G04*
G04 #@! TF.GenerationSoftware,Altium Limited,Altium Designer,22.5.1 (42)*
G04*
G04 Layer_Physical_Order=2*
G04 Layer_Color=16711680*
%FSLAX25Y25*%
%MOIN*%
G70*
G04*
G04 #@! TF.SameCoordinates,3A988065-C8E6-409E-8F77-962EE0EB2120*
G04*
G04*
G04 #@! TF.FilePolarity,Positive*
G04*
G01*
G75*
%ADD10C,0.01000*%
%ADD26C,0.06000*%
%ADD27C,0.04016*%
%ADD28C,0.06436*%
%ADD29R,0.06232X0.06232*%
%ADD30C,0.02000*%
G36*
X74200Y92300D02*
X74657D01*
X75503Y91950D01*
X76150Y91303D01*
X76500Y90457D01*
Y90000D01*
Y5433D01*
X76500Y5433D01*
X76503Y4992D01*
X76172Y4175D01*
X75553Y3547D01*
X74741Y3203D01*
X74300Y3200D01*
X74000Y3200D01*
X8000Y3000D01*
X7800Y3200D01*
X7343D01*
X6497Y3550D01*
X5850Y4197D01*
X5500Y5043D01*
Y5500D01*
Y90067D01*
X5497Y90508D01*
X5828Y91325D01*
X6447Y91953D01*
X7259Y92297D01*
X7700Y92300D01*
X8000Y92300D01*
X74000Y92500D01*
X74200Y92300D01*
D02*
G37*
%LPC*%
G36*
X68500Y91469D02*
Y88000D01*
X71969D01*
X71897Y88544D01*
X71494Y89517D01*
X70853Y90353D01*
X70017Y90994D01*
X69044Y91397D01*
X68500Y91469D01*
D02*
G37*
G36*
X67500D02*
X66956Y91397D01*
X65983Y90994D01*
X65147Y90353D01*
X64506Y89517D01*
X64103Y88544D01*
X64031Y88000D01*
X67500D01*
Y91469D01*
D02*
G37*
G36*
X71969Y87000D02*
X68500D01*
Y83531D01*
X69044Y83603D01*
X70017Y84006D01*
X70853Y84647D01*
X71494Y85483D01*
X71897Y86456D01*
X71969Y87000D01*
D02*
G37*
G36*
X67500D02*
X64031D01*
X64103Y86456D01*
X64506Y85483D01*
X65147Y84647D01*
X65983Y84006D01*
X66956Y83603D01*
X67500Y83531D01*
Y87000D01*
D02*
G37*
G36*
X31500Y91535D02*
X30456Y91397D01*
X29483Y90994D01*
X28647Y90353D01*
X28006Y89517D01*
X27603Y88544D01*
X27466Y87500D01*
X27603Y86456D01*
X28006Y85483D01*
X28647Y84647D01*
X29483Y84006D01*
X30456Y83603D01*
X31500Y83465D01*
X32544Y83603D01*
X33517Y84006D01*
X34353Y84647D01*
X34994Y85483D01*
X35397Y86456D01*
X35535Y87500D01*
X35397Y88544D01*
X34994Y89517D01*
X34353Y90353D01*
X33517Y90994D01*
X32544Y91397D01*
X31500Y91535D01*
D02*
G37*
G36*
X21500D02*
X20456Y91397D01*
X19483Y90994D01*
X18647Y90353D01*
X18006Y89517D01*
X17603Y88544D01*
X17466Y87500D01*
X17603Y86456D01*
X18006Y85483D01*
X18647Y84647D01*
X19483Y84006D01*
X20456Y83603D01*
X21500Y83465D01*
X22544Y83603D01*
X23517Y84006D01*
X24353Y84647D01*
X24994Y85483D01*
X25397Y86456D01*
X25534Y87500D01*
X25397Y88544D01*
X24994Y89517D01*
X24353Y90353D01*
X23517Y90994D01*
X22544Y91397D01*
X21500Y91535D01*
D02*
G37*
G36*
X58000D02*
X56956Y91397D01*
X55983Y90994D01*
X55147Y90353D01*
X54506Y89517D01*
X54103Y88544D01*
X53966Y87500D01*
X54103Y86456D01*
X54506Y85483D01*
X55147Y84647D01*
X55983Y84006D01*
X56471Y83804D01*
Y81000D01*
X56514Y80782D01*
Y78132D01*
X56471Y77914D01*
Y66811D01*
X56116Y66280D01*
X55961Y65500D01*
X56116Y64720D01*
X56558Y64058D01*
X57220Y63616D01*
X58000Y63461D01*
X58780Y63616D01*
X59442Y64058D01*
X59884Y64720D01*
X60039Y65500D01*
X59884Y66280D01*
X59529Y66811D01*
Y77740D01*
X59573Y77957D01*
Y80957D01*
X59529Y81174D01*
Y83804D01*
X60017Y84006D01*
X60853Y84647D01*
X61494Y85483D01*
X61897Y86456D01*
X62034Y87500D01*
X61897Y88544D01*
X61494Y89517D01*
X60853Y90353D01*
X60017Y90994D01*
X59044Y91397D01*
X58000Y91535D01*
D02*
G37*
G36*
X9791Y51845D02*
X9006Y51742D01*
X8274Y51438D01*
X7646Y50956D01*
X7164Y50328D01*
X6860Y49596D01*
X6757Y48811D01*
X6860Y48026D01*
X7164Y47294D01*
X7646Y46666D01*
X8274Y46183D01*
X9006Y45880D01*
X9791Y45777D01*
X10576Y45880D01*
X11308Y46183D01*
X11936Y46666D01*
X12419Y47294D01*
X12722Y48026D01*
X12825Y48811D01*
X12722Y49596D01*
X12419Y50328D01*
X11936Y50956D01*
X11308Y51438D01*
X10576Y51742D01*
X9791Y51845D01*
D02*
G37*
G36*
X41691Y62039D02*
X40911Y61884D01*
X40249Y61442D01*
X39807Y60780D01*
X39683Y60154D01*
X37419Y57890D01*
X37087Y57394D01*
X36971Y56809D01*
Y48002D01*
X36616Y47472D01*
X36461Y46691D01*
X36616Y45911D01*
X37058Y45249D01*
X37720Y44807D01*
X38500Y44652D01*
X39280Y44807D01*
X39942Y45249D01*
X40384Y45911D01*
X40539Y46691D01*
X40384Y47472D01*
X40029Y48002D01*
Y56175D01*
X41846Y57991D01*
X42472Y58116D01*
X43133Y58558D01*
X43575Y59220D01*
X43731Y60000D01*
X43575Y60780D01*
X43133Y61442D01*
X42472Y61884D01*
X41691Y62039D01*
D02*
G37*
G36*
X13992Y41189D02*
Y37500D01*
X17681D01*
X17602Y38101D01*
X17177Y39127D01*
X16500Y40009D01*
X15619Y40685D01*
X14593Y41110D01*
X13992Y41189D01*
D02*
G37*
G36*
X12992D02*
X12391Y41110D01*
X11365Y40685D01*
X10484Y40009D01*
X9807Y39127D01*
X9382Y38101D01*
X9303Y37500D01*
X12992D01*
Y41189D01*
D02*
G37*
G36*
X29419Y41116D02*
X21187D01*
Y32884D01*
X29419D01*
Y41116D01*
D02*
G37*
G36*
X17681Y36500D02*
X13992D01*
Y32811D01*
X14593Y32890D01*
X15619Y33315D01*
X16500Y33992D01*
X17177Y34873D01*
X17602Y35899D01*
X17681Y36500D01*
D02*
G37*
G36*
X12992D02*
X9303D01*
X9382Y35899D01*
X9807Y34873D01*
X10484Y33992D01*
X11365Y33315D01*
X12391Y32890D01*
X12992Y32811D01*
Y36500D01*
D02*
G37*
G36*
X9791Y28223D02*
X9006Y28120D01*
X8274Y27817D01*
X7646Y27334D01*
X7164Y26706D01*
X6860Y25974D01*
X6757Y25189D01*
X6860Y24404D01*
X7164Y23672D01*
X7646Y23044D01*
X8274Y22561D01*
X9006Y22258D01*
X9791Y22155D01*
X10576Y22258D01*
X11308Y22561D01*
X11936Y23044D01*
X12419Y23672D01*
X12722Y24404D01*
X12825Y25189D01*
X12722Y25974D01*
X12419Y26706D01*
X11936Y27334D01*
X11308Y27817D01*
X10576Y28120D01*
X9791Y28223D01*
D02*
G37*
%LPD*%
D10*
X58000Y81000D02*
Y87000D01*
X58043Y77957D02*
Y80957D01*
X58000Y81000D02*
X58043Y80957D01*
X38500Y46691D02*
Y56809D01*
X58000Y77914D02*
X58043Y77957D01*
X58000Y65500D02*
Y77914D01*
X38500Y56809D02*
X41691Y60000D01*
D26*
X21500Y87500D02*
D03*
X31500D02*
D03*
X58000D02*
D03*
X68000D02*
D03*
D27*
X9791Y25189D02*
D03*
Y48811D02*
D03*
D28*
X13492Y37000D02*
D03*
D29*
X25303D02*
D03*
D30*
X62500Y40000D02*
D03*
X10000Y55000D02*
D03*
X52500Y40000D02*
D03*
X57500D02*
D03*
X62500Y80000D02*
D03*
X10000Y65000D02*
D03*
X12500Y10000D02*
D03*
X67500D02*
D03*
X72500Y70000D02*
D03*
Y30000D02*
D03*
Y80000D02*
D03*
X17500Y20000D02*
D03*
X10000Y15000D02*
D03*
X17500Y10000D02*
D03*
X72500Y20000D02*
D03*
X22500Y10000D02*
D03*
X70000Y35000D02*
D03*
X67500Y80000D02*
D03*
X60000Y35000D02*
D03*
X65000D02*
D03*
X70000Y25000D02*
D03*
X42500Y30000D02*
D03*
X10000Y85000D02*
D03*
X50000Y35000D02*
D03*
X15000Y15000D02*
D03*
X37500Y10000D02*
D03*
X15000Y65000D02*
D03*
X67500Y70000D02*
D03*
X72500Y10000D02*
D03*
X70000Y75000D02*
D03*
X20000Y15000D02*
D03*
X72500Y50000D02*
D03*
X52500Y80000D02*
D03*
X15000Y85000D02*
D03*
X12500Y80000D02*
D03*
X72500Y40000D02*
D03*
X45000Y35000D02*
D03*
X27500Y10000D02*
D03*
X47500Y40000D02*
D03*
X55000Y35000D02*
D03*
X12500Y20000D02*
D03*
X67500Y40000D02*
D03*
X32500Y10000D02*
D03*
X65000Y75000D02*
D03*
X15000Y55000D02*
D03*
X70000Y45000D02*
D03*
X43500Y77500D02*
D03*
X47682Y78567D02*
D03*
X13563Y60563D02*
D03*
X42682Y65067D02*
D03*
X41691Y60000D02*
D03*
X58000Y65500D02*
D03*
X38500Y46691D02*
D03*
M02*
