G04*
G04 #@! TF.GenerationSoftware,Altium Limited,Altium Designer,22.5.1 (42)*
G04*
G04 Layer_Physical_Order=1*
G04 Layer_Color=255*
%FSLAX25Y25*%
%MOIN*%
G70*
G04*
G04 #@! TF.SameCoordinates,3A988065-C8E6-409E-8F77-962EE0EB2120*
G04*
G04*
G04 #@! TF.FilePolarity,Positive*
G04*
G01*
G75*
%ADD10C,0.01000*%
%ADD12R,0.02400X0.06000*%
%ADD13R,0.04528X0.04331*%
%ADD14R,0.04331X0.04528*%
%ADD15R,0.02756X0.02362*%
%ADD25C,0.02000*%
%ADD26C,0.06000*%
%ADD27C,0.04016*%
%ADD28C,0.06436*%
%ADD29R,0.06232X0.06232*%
%ADD30C,0.02000*%
G36*
X74200Y92300D02*
X74657D01*
X75503Y91950D01*
X76150Y91303D01*
X76500Y90457D01*
Y90000D01*
Y5433D01*
X76500Y5433D01*
X76503Y4992D01*
X76172Y4175D01*
X75553Y3547D01*
X74741Y3203D01*
X74300Y3200D01*
X74000Y3200D01*
X8000Y3000D01*
X7800Y3200D01*
X7343D01*
X6497Y3550D01*
X5850Y4197D01*
X5500Y5043D01*
Y5500D01*
Y90067D01*
X5497Y90508D01*
X5828Y91325D01*
X6447Y91953D01*
X7259Y92297D01*
X7700Y92300D01*
X8000Y92300D01*
X26381Y92356D01*
X26478Y92272D01*
X26729Y91857D01*
X26724Y91830D01*
X26686Y91636D01*
X26687Y91634D01*
X26686Y91632D01*
X26907Y61520D01*
X26555Y61165D01*
X24100D01*
X22966Y62299D01*
Y67079D01*
X23815D01*
Y71441D01*
X19059D01*
Y67079D01*
X19908D01*
Y61665D01*
X20024Y61080D01*
X20356Y60584D01*
X21937Y59003D01*
Y54835D01*
X26551D01*
X26945Y54488D01*
X26959Y54472D01*
X26980Y51493D01*
X27020Y51301D01*
X27058Y51110D01*
X27060Y51107D01*
X27061Y51103D01*
X27171Y50941D01*
X27279Y50779D01*
X34114Y43944D01*
X34444Y43723D01*
X34835Y43646D01*
X35335Y43241D01*
Y38386D01*
Y32087D01*
X36971D01*
Y28500D01*
X37087Y27915D01*
X37419Y27419D01*
X43210Y21627D01*
X43018Y21165D01*
X38437D01*
Y19529D01*
X36413D01*
Y21165D01*
X26832D01*
Y32884D01*
X29419D01*
Y41116D01*
X21187D01*
Y32884D01*
X23774D01*
Y21165D01*
X23587D01*
Y14835D01*
X36413D01*
Y16471D01*
X38437D01*
Y14835D01*
X40171D01*
Y10799D01*
X40288Y10214D01*
X40619Y9718D01*
X42419Y7919D01*
X42915Y7587D01*
X43500Y7471D01*
X46087D01*
Y5835D01*
X58913D01*
Y10002D01*
X59081Y10170D01*
X59413Y10667D01*
X59529Y11252D01*
Y14835D01*
X63799D01*
Y18000D01*
Y21165D01*
X59529D01*
Y24250D01*
X60200D01*
Y32250D01*
X55800D01*
Y24250D01*
X56471D01*
Y21165D01*
X54736D01*
Y14835D01*
X56471D01*
Y12165D01*
X46087D01*
Y10529D01*
X44133D01*
X43230Y11433D01*
Y14835D01*
X51264D01*
Y21165D01*
X49529D01*
Y24250D01*
X50200D01*
Y26721D01*
X50800D01*
Y24250D01*
X55200D01*
Y32250D01*
X50800D01*
Y29779D01*
X50200D01*
Y32250D01*
X45800D01*
Y24250D01*
X46471D01*
Y23346D01*
X46009Y23154D01*
X40029Y29133D01*
Y32087D01*
X41665D01*
Y38386D01*
Y43480D01*
X50000Y43480D01*
X50390Y43558D01*
X50721Y43779D01*
X50942Y44110D01*
X51020Y44500D01*
Y45750D01*
X55200D01*
Y48221D01*
X55800D01*
Y45750D01*
X60200D01*
Y53750D01*
X55800D01*
Y51279D01*
X55200D01*
Y53750D01*
X54529D01*
Y56835D01*
X56264D01*
Y61002D01*
X58699Y63437D01*
X58849Y63662D01*
X59442Y64058D01*
X59884Y64720D01*
X60039Y65500D01*
X59884Y66280D01*
X59442Y66942D01*
X58780Y67384D01*
X58000Y67539D01*
X57220Y67384D01*
X56558Y66942D01*
X56116Y66280D01*
X55961Y65500D01*
X56040Y65104D01*
X54101Y63165D01*
X48230D01*
Y68835D01*
X56413D01*
Y69971D01*
X59866D01*
X61471Y68366D01*
Y63165D01*
X59736D01*
Y56835D01*
X61471D01*
Y53750D01*
X60800D01*
Y45750D01*
X65200D01*
Y53750D01*
X64529D01*
Y56835D01*
X68799D01*
Y60000D01*
Y63165D01*
X64529D01*
Y69000D01*
X64413Y69585D01*
X64081Y70081D01*
X61581Y72581D01*
X61085Y72913D01*
X60500Y73029D01*
X56413D01*
Y75165D01*
X43587D01*
Y68835D01*
X45171D01*
Y63165D01*
X43437D01*
Y61710D01*
X42937Y61573D01*
X42472Y61884D01*
X41691Y62039D01*
X41449Y61991D01*
X41063Y62308D01*
Y64500D01*
X38299D01*
Y61835D01*
X40006D01*
X40178Y61335D01*
X39807Y60780D01*
X39652Y60000D01*
X39807Y59220D01*
X40249Y58558D01*
X40911Y58116D01*
X41691Y57961D01*
X42472Y58116D01*
X42937Y58427D01*
X43437Y58290D01*
Y56835D01*
X51471D01*
Y53750D01*
X50800D01*
X50415Y54027D01*
X48721Y55721D01*
X48390Y55942D01*
X48000Y56020D01*
X39422D01*
X36020Y59422D01*
Y61835D01*
X37299D01*
Y65000D01*
X37799D01*
Y65500D01*
X41063D01*
Y68165D01*
X41063D01*
Y68335D01*
X41063D01*
Y71000D01*
X37799D01*
Y72000D01*
X41063D01*
Y74665D01*
X41063D01*
Y74835D01*
X41063D01*
Y79002D01*
X42432Y80371D01*
X42763Y80867D01*
X42880Y81453D01*
Y81835D01*
X47150D01*
Y85000D01*
Y88165D01*
X38087D01*
Y81835D01*
X38538D01*
X38789Y81335D01*
X38662Y81165D01*
X36020D01*
Y91500D01*
X35942Y91890D01*
X36212Y92386D01*
X74000Y92500D01*
X74200Y92300D01*
D02*
G37*
G36*
X28500Y91500D02*
X35000Y91500D01*
Y81165D01*
X34535D01*
Y74835D01*
X34535D01*
Y74665D01*
X34535D01*
Y68335D01*
X34535D01*
Y68165D01*
X34535D01*
Y61835D01*
X35000D01*
Y59000D01*
X39000Y55000D01*
X48000D01*
X50000Y53000D01*
Y44500D01*
X41665Y44500D01*
Y44913D01*
X40162D01*
X40051Y45413D01*
X40384Y45911D01*
X40539Y46691D01*
X40384Y47472D01*
X39942Y48133D01*
X39280Y48575D01*
X38500Y48730D01*
X37720Y48575D01*
X37058Y48133D01*
X36616Y47472D01*
X36461Y46691D01*
X36616Y45911D01*
X36948Y45413D01*
X36838Y44913D01*
X35335D01*
Y44872D01*
X34835Y44665D01*
X28000Y51500D01*
X27978Y54480D01*
X28330Y54835D01*
X28465D01*
Y61165D01*
X27929D01*
X27706Y91640D01*
X28167Y91833D01*
X28500Y91500D01*
D02*
G37*
%LPC*%
G36*
X68500Y91469D02*
Y88000D01*
X71969D01*
X71897Y88544D01*
X71494Y89517D01*
X70853Y90353D01*
X70017Y90994D01*
X69044Y91397D01*
X68500Y91469D01*
D02*
G37*
G36*
X67500D02*
X66956Y91397D01*
X65983Y90994D01*
X65147Y90353D01*
X64506Y89517D01*
X64103Y88544D01*
X64031Y88000D01*
X67500D01*
Y91469D01*
D02*
G37*
G36*
X50913Y88165D02*
X48150D01*
Y85500D01*
X50913D01*
Y88165D01*
D02*
G37*
G36*
X71969Y87000D02*
X68500D01*
Y83531D01*
X69044Y83603D01*
X70017Y84006D01*
X70853Y84647D01*
X71494Y85483D01*
X71897Y86456D01*
X71969Y87000D01*
D02*
G37*
G36*
X67500D02*
X64031D01*
X64103Y86456D01*
X64506Y85483D01*
X65147Y84647D01*
X65983Y84006D01*
X66956Y83603D01*
X67500Y83531D01*
Y87000D01*
D02*
G37*
G36*
X58000Y91535D02*
X56956Y91397D01*
X55983Y90994D01*
X55147Y90353D01*
X54506Y89517D01*
X54103Y88544D01*
X53966Y87500D01*
X54103Y86456D01*
X54506Y85483D01*
X55147Y84647D01*
X55983Y84006D01*
X56956Y83603D01*
X58000Y83465D01*
X59044Y83603D01*
X60017Y84006D01*
X60853Y84647D01*
X61494Y85483D01*
X61897Y86456D01*
X62034Y87500D01*
X61897Y88544D01*
X61494Y89517D01*
X60853Y90353D01*
X60017Y90994D01*
X59044Y91397D01*
X58000Y91535D01*
D02*
G37*
G36*
X50913Y84500D02*
X48150D01*
Y81835D01*
X50913D01*
Y84500D01*
D02*
G37*
G36*
X21500Y91535D02*
X20456Y91397D01*
X19483Y90994D01*
X18647Y90353D01*
X18006Y89517D01*
X17603Y88544D01*
X17466Y87500D01*
X17603Y86456D01*
X18006Y85483D01*
X18647Y84647D01*
X19483Y84006D01*
X19939Y83817D01*
Y78921D01*
X19059D01*
Y74559D01*
X23815D01*
Y78921D01*
X22998D01*
Y83791D01*
X23517Y84006D01*
X24353Y84647D01*
X24994Y85483D01*
X25397Y86456D01*
X25534Y87500D01*
X25397Y88544D01*
X24994Y89517D01*
X24353Y90353D01*
X23517Y90994D01*
X22544Y91397D01*
X21500Y91535D01*
D02*
G37*
G36*
X15941Y75181D02*
X14063D01*
Y73500D01*
X15941D01*
Y75181D01*
D02*
G37*
G36*
X13063D02*
X11185D01*
Y73500D01*
X13063D01*
Y75181D01*
D02*
G37*
G36*
X15941Y72500D02*
X14063D01*
Y70819D01*
X15941D01*
Y72500D01*
D02*
G37*
G36*
X13063D02*
X11185D01*
Y70819D01*
X13063D01*
Y72500D01*
D02*
G37*
G36*
X72563Y63165D02*
X69799D01*
Y60500D01*
X72563D01*
Y63165D01*
D02*
G37*
G36*
Y59500D02*
X69799D01*
Y56835D01*
X72563D01*
Y59500D01*
D02*
G37*
G36*
X9791Y51845D02*
X9006Y51742D01*
X8274Y51438D01*
X7646Y50956D01*
X7164Y50328D01*
X6860Y49596D01*
X6757Y48811D01*
X6860Y48026D01*
X7164Y47294D01*
X7646Y46666D01*
X8274Y46183D01*
X9006Y45880D01*
X9791Y45777D01*
X10576Y45880D01*
X11308Y46183D01*
X11936Y46666D01*
X12419Y47294D01*
X12722Y48026D01*
X12825Y48811D01*
X12722Y49596D01*
X12419Y50328D01*
X11936Y50956D01*
X11308Y51438D01*
X10576Y51742D01*
X9791Y51845D01*
D02*
G37*
G36*
X13992Y41189D02*
Y37500D01*
X17681D01*
X17602Y38101D01*
X17177Y39127D01*
X16500Y40009D01*
X15619Y40685D01*
X14593Y41110D01*
X13992Y41189D01*
D02*
G37*
G36*
X12992D02*
X12391Y41110D01*
X11365Y40685D01*
X10484Y40009D01*
X9807Y39127D01*
X9382Y38101D01*
X9303Y37500D01*
X12992D01*
Y41189D01*
D02*
G37*
G36*
X17681Y36500D02*
X13992D01*
Y32811D01*
X14593Y32890D01*
X15619Y33315D01*
X16500Y33992D01*
X17177Y34873D01*
X17602Y35899D01*
X17681Y36500D01*
D02*
G37*
G36*
X12992D02*
X9303D01*
X9382Y35899D01*
X9807Y34873D01*
X10484Y33992D01*
X11365Y33315D01*
X12391Y32890D01*
X12992Y32811D01*
Y36500D01*
D02*
G37*
G36*
X65200Y32250D02*
X63500D01*
Y28750D01*
X65200D01*
Y32250D01*
D02*
G37*
G36*
X62500D02*
X60800D01*
Y28750D01*
X62500D01*
Y32250D01*
D02*
G37*
G36*
X65200Y27750D02*
X63500D01*
Y24250D01*
X65200D01*
Y27750D01*
D02*
G37*
G36*
X62500D02*
X60800D01*
Y24250D01*
X62500D01*
Y27750D01*
D02*
G37*
G36*
X9791Y28223D02*
X9006Y28120D01*
X8274Y27817D01*
X7646Y27334D01*
X7164Y26706D01*
X6860Y25974D01*
X6757Y25189D01*
X6860Y24404D01*
X7164Y23672D01*
X7646Y23044D01*
X8274Y22561D01*
X9006Y22258D01*
X9791Y22155D01*
X10576Y22258D01*
X11308Y22561D01*
X11936Y23044D01*
X12419Y23672D01*
X12722Y24404D01*
X12825Y25189D01*
X12722Y25974D01*
X12419Y26706D01*
X11936Y27334D01*
X11308Y27817D01*
X10576Y28120D01*
X9791Y28223D01*
D02*
G37*
G36*
X67563Y21165D02*
X64799D01*
Y18500D01*
X67563D01*
Y21165D01*
D02*
G37*
G36*
Y17500D02*
X64799D01*
Y14835D01*
X67563D01*
Y17500D01*
D02*
G37*
%LPD*%
D10*
X37898Y71500D02*
X43309Y76911D01*
Y77309D02*
X43500Y77500D01*
X37799Y71500D02*
X37898D01*
X43309Y76911D02*
Y77309D01*
X64299Y18000D02*
X70500D01*
X72500Y20000D01*
X63000Y28250D02*
X66750D01*
X70000Y25000D01*
X69201Y60000D02*
X69299D01*
X67535Y61665D02*
X69201Y60000D01*
X67535Y61665D02*
Y69965D01*
X67500Y70000D02*
X67535Y69965D01*
X67500Y80000D02*
X67691Y80191D01*
Y86691D01*
X68000Y87000D01*
X47650Y85000D02*
X47748D01*
X47650Y78650D02*
X47682Y78682D01*
X47500Y78500D02*
X47650Y78650D01*
Y85000D02*
X47682Y84967D01*
Y78682D02*
Y84967D01*
X25303Y19547D02*
Y37000D01*
Y19547D02*
X26850Y18000D01*
X37799Y78000D02*
X37898D01*
X41350Y81453D02*
Y86000D01*
X37898Y78000D02*
X41350Y81453D01*
X47650Y78650D02*
Y85000D01*
X37799Y65000D02*
X42500D01*
X21437Y61665D02*
Y69260D01*
Y61665D02*
X25102Y58000D01*
X25201D01*
X21468Y87468D02*
X21500Y87500D01*
X21468Y76772D02*
Y87468D01*
X21437Y76740D02*
X21468Y76772D01*
X41701Y10799D02*
X43500Y9000D01*
X53000Y60000D02*
X53098D01*
X55748Y9000D02*
X58000Y11252D01*
X55650Y9000D02*
X55748D01*
X46236Y19665D02*
X47902Y18000D01*
X38500Y28500D02*
X46236Y20764D01*
X38500Y41650D02*
Y46500D01*
X41701Y10799D02*
Y18000D01*
X53000Y49750D02*
Y60000D01*
X58000Y11252D02*
Y18000D01*
X38500Y28500D02*
Y35350D01*
X46701Y60000D02*
Y72000D01*
X47902Y18000D02*
X48000D01*
X41500Y60000D02*
X41691D01*
X46701D01*
X53150Y72000D02*
X53650Y71500D01*
X57617Y64519D02*
Y65117D01*
X58000Y18000D02*
Y28250D01*
X60500Y71500D02*
X63000Y69000D01*
X43500Y9000D02*
X49350D01*
X48000Y28250D02*
X53000D01*
X53650Y71500D02*
X60500D01*
X53098Y60000D02*
X57617Y64519D01*
X46236Y19665D02*
Y20764D01*
X57617Y65117D02*
X58000Y65500D01*
X63000Y49750D02*
Y60000D01*
Y69000D01*
X53000Y49750D02*
X58000D01*
X48000Y18000D02*
Y28250D01*
X33150Y18000D02*
X41701D01*
D12*
X48000Y28250D02*
D03*
X53000D02*
D03*
X58000D02*
D03*
X63000D02*
D03*
Y49750D02*
D03*
X58000D02*
D03*
X53000D02*
D03*
X48000D02*
D03*
D13*
X37799Y71500D02*
D03*
X31500D02*
D03*
Y78000D02*
D03*
X37799D02*
D03*
X47650Y85000D02*
D03*
X41350D02*
D03*
X58000Y18000D02*
D03*
X64299D02*
D03*
X55650Y9000D02*
D03*
X49350D02*
D03*
X41701Y18000D02*
D03*
X48000D02*
D03*
X33150D02*
D03*
X26850D02*
D03*
X63000Y60000D02*
D03*
X69299D02*
D03*
X46701D02*
D03*
X53000D02*
D03*
X53150Y72000D02*
D03*
X46850D02*
D03*
X31500Y65000D02*
D03*
X37799D02*
D03*
X25201Y58000D02*
D03*
X31500D02*
D03*
D14*
X38500Y41650D02*
D03*
Y35350D02*
D03*
D15*
X21437Y69260D02*
D03*
Y76740D02*
D03*
X13563Y73000D02*
D03*
D25*
Y60563D02*
Y73000D01*
D26*
X21500Y87500D02*
D03*
X31500D02*
D03*
X58000D02*
D03*
X68000D02*
D03*
D27*
X9791Y25189D02*
D03*
Y48811D02*
D03*
D28*
X13492Y37000D02*
D03*
D29*
X25303D02*
D03*
D30*
X62500Y40000D02*
D03*
X10000Y55000D02*
D03*
X52500Y40000D02*
D03*
X57500D02*
D03*
X62500Y80000D02*
D03*
X10000Y65000D02*
D03*
X12500Y10000D02*
D03*
X67500D02*
D03*
X72500Y70000D02*
D03*
Y30000D02*
D03*
Y80000D02*
D03*
X17500Y20000D02*
D03*
X10000Y15000D02*
D03*
X17500Y10000D02*
D03*
X72500Y20000D02*
D03*
X22500Y10000D02*
D03*
X70000Y35000D02*
D03*
X67500Y80000D02*
D03*
X60000Y35000D02*
D03*
X65000D02*
D03*
X70000Y25000D02*
D03*
X42500Y30000D02*
D03*
X10000Y85000D02*
D03*
X50000Y35000D02*
D03*
X15000Y15000D02*
D03*
X37500Y10000D02*
D03*
X15000Y65000D02*
D03*
X67500Y70000D02*
D03*
X72500Y10000D02*
D03*
X70000Y75000D02*
D03*
X20000Y15000D02*
D03*
X72500Y50000D02*
D03*
X52500Y80000D02*
D03*
X15000Y85000D02*
D03*
X12500Y80000D02*
D03*
X72500Y40000D02*
D03*
X45000Y35000D02*
D03*
X27500Y10000D02*
D03*
X47500Y40000D02*
D03*
X55000Y35000D02*
D03*
X12500Y20000D02*
D03*
X67500Y40000D02*
D03*
X32500Y10000D02*
D03*
X65000Y75000D02*
D03*
X15000Y55000D02*
D03*
X70000Y45000D02*
D03*
X43500Y77500D02*
D03*
X47682Y78567D02*
D03*
X13563Y60563D02*
D03*
X42682Y65067D02*
D03*
X41691Y60000D02*
D03*
X58000Y65500D02*
D03*
X38500Y46691D02*
D03*
M02*
