M48
;Layer_Color=9474304
;FILE_FORMAT=2:5
INCH,LZ
;TYPE=PLATED
T1F00S00C0.01000
T2F00S00C0.04000
T3F00S00C0.04291
;TYPE=NON_PLATED
T4F00S00C0.04016
%
T01
X00125Y001
X00175
X00225
X00275
X00325
X00375
X002Y0015
X0015
X001
X00125Y002
X00175
X00425Y003
X0045Y0035
X005
X0055
X006
X0065
X007
X00725Y003
X007Y0025
X00725Y002
Y001
X00675
Y004
X00625
X00575
X00525
X00475
X00385Y0046691
X0041691Y006
X0042682Y0065067
X00435Y00775
X0047682Y0078567
X00525Y008
X00625
X00675
X00725
X007Y0075
X0065
X00675Y007
X00725
X0058Y00655
X00725Y005
X007Y0045
X00725Y004
X0015Y0055
X001
X0013563Y0060563
X0015Y0065
X001
X00125Y008
X001Y0085
X0015
T02
X00215Y00875
X00315
X0058
X0068
T03
X0013492Y0037
X0025303
T04
X0009791Y0025189
Y0048811
M30
