G04*
G04 #@! TF.GenerationSoftware,Altium Limited,Altium Designer,22.5.1 (42)*
G04*
G04 Layer_Color=65535*
%FSLAX25Y25*%
%MOIN*%
G70*
G04*
G04 #@! TF.SameCoordinates,3A988065-C8E6-409E-8F77-962EE0EB2120*
G04*
G04*
G04 #@! TF.FilePolarity,Positive*
G04*
G01*
G75*
%ADD10C,0.01000*%
%ADD11C,0.00700*%
D10*
X65350Y31150D02*
Y46850D01*
X45650D02*
X65350D01*
X45650Y31150D02*
Y46850D01*
Y31150D02*
X65350D01*
X44500Y23500D02*
Y26500D01*
Y23500D02*
X47500D01*
X35693Y83000D02*
Y92000D01*
X17307Y83000D02*
Y92000D01*
X17307D01*
X17307Y83000D02*
X17307D01*
Y92000D02*
X35693D01*
X17307Y83000D02*
X35693D01*
X49500Y88500D02*
X50000D01*
X53807Y92000D02*
X72193D01*
X53807Y83000D02*
X72193D01*
Y92000D02*
X72193D01*
X72193Y83000D02*
X72193D01*
Y92000D01*
X53807Y83000D02*
Y92000D01*
X14744Y67094D02*
X20256D01*
X14744Y78905D02*
X20256D01*
Y67094D02*
Y78905D01*
X14744Y67094D02*
Y78905D01*
D11*
X60700Y5200D02*
Y8199D01*
X61700Y7199D01*
X62699Y8199D01*
Y5200D01*
X63699Y8199D02*
Y5200D01*
Y6200D01*
X65698Y8199D01*
X64199Y6700D01*
X65698Y5200D01*
X69697D02*
Y7199D01*
X70697Y8199D01*
X71696Y7199D01*
Y5200D01*
Y6700D01*
X69697D01*
X72696Y8199D02*
X74695D01*
Y7699D01*
X72696Y5700D01*
Y5200D01*
X74695D01*
X7700Y10200D02*
Y13199D01*
X8700Y12199D01*
X9699Y13199D01*
Y10200D01*
X10699D02*
Y13199D01*
X12199D01*
X12698Y12699D01*
Y11699D01*
X12199Y11200D01*
X10699D01*
X11699D02*
X12698Y10200D01*
X14198D02*
X15198D01*
X15697Y10700D01*
Y11699D01*
X15198Y12199D01*
X14198D01*
X13698Y11699D01*
Y10700D01*
X14198Y10200D01*
X16697Y12199D02*
X17697Y10200D01*
X18696Y12199D01*
X21196Y10200D02*
X20196D01*
X19696Y10700D01*
Y11699D01*
X20196Y12199D01*
X21196D01*
X21696Y11699D01*
Y11200D01*
X19696D01*
X22695Y12199D02*
Y10200D01*
Y11200D01*
X23195Y11699D01*
X23695Y12199D01*
X24195D01*
X7700Y4700D02*
Y7699D01*
X9200D01*
X9699Y7199D01*
Y6199D01*
X9200Y5700D01*
X7700D01*
X10699Y6699D02*
Y4700D01*
Y5700D01*
X11199Y6199D01*
X11699Y6699D01*
X12199D01*
X14198D02*
X15198D01*
X15697Y6199D01*
Y4700D01*
X14198D01*
X13698Y5200D01*
X14198Y5700D01*
X15697D01*
X18696Y6699D02*
X17197D01*
X16697Y6199D01*
Y5200D01*
X17197Y4700D01*
X18696D01*
X20196Y7199D02*
Y6699D01*
X19696D01*
X20696D01*
X20196D01*
Y5200D01*
X20696Y4700D01*
X22195D02*
X23195D01*
X22695D01*
Y6699D01*
X22195D01*
X26694D02*
X25194D01*
X24694Y6199D01*
Y5200D01*
X25194Y4700D01*
X26694D01*
X29193D02*
X28193D01*
X27694Y5200D01*
Y6199D01*
X28193Y6699D01*
X29193D01*
X29693Y6199D01*
Y5700D01*
X27694D01*
X33692Y4700D02*
Y7699D01*
X35191D01*
X35691Y7199D01*
Y6199D01*
X35191Y5700D01*
X33692D01*
X38690Y7199D02*
X38190Y7699D01*
X37190D01*
X36691Y7199D01*
Y5200D01*
X37190Y4700D01*
X38190D01*
X38690Y5200D01*
X39690Y7699D02*
Y4700D01*
X41189D01*
X41689Y5200D01*
Y5700D01*
X41189Y6199D01*
X39690D01*
X41189D01*
X41689Y6699D01*
Y7199D01*
X41189Y7699D01*
X39690D01*
X60501Y10001D02*
Y13000D01*
X62000D01*
X62500Y12500D01*
Y11500D01*
X62000Y11000D01*
X60501D01*
X61501D02*
X62500Y10001D01*
X65499Y13000D02*
X64499Y12500D01*
X63500Y11500D01*
Y10500D01*
X64000Y10001D01*
X64999D01*
X65499Y10500D01*
Y11000D01*
X64999Y11500D01*
X63500D01*
X17001Y15500D02*
Y18499D01*
X18500D01*
X19000Y18000D01*
Y17000D01*
X18500Y16500D01*
X17001D01*
X18000D02*
X19000Y15500D01*
X21999Y18499D02*
X20000D01*
Y17000D01*
X21000Y17500D01*
X21499D01*
X21999Y17000D01*
Y16000D01*
X21499Y15500D01*
X20500D01*
X20000Y16000D01*
X57001Y70500D02*
Y73500D01*
X58500D01*
X59000Y73000D01*
Y72000D01*
X58500Y71500D01*
X57001D01*
X58000D02*
X59000Y70500D01*
X61499D02*
Y73500D01*
X60000Y72000D01*
X61999D01*
X36001Y46501D02*
Y49499D01*
X37500D01*
X38000Y49000D01*
Y48000D01*
X37500Y47500D01*
X36001D01*
X37001D02*
X38000Y46501D01*
X39000Y49000D02*
X39500Y49499D01*
X40499D01*
X40999Y49000D01*
Y48500D01*
X40499Y48000D01*
X39999D01*
X40499D01*
X40999Y47500D01*
Y47000D01*
X40499Y46501D01*
X39500D01*
X39000Y47000D01*
X16501Y56501D02*
Y59500D01*
X18000D01*
X18500Y59000D01*
Y58000D01*
X18000Y57500D01*
X16501D01*
X17501D02*
X18500Y56501D01*
X21499D02*
X19500D01*
X21499Y58500D01*
Y59000D01*
X20999Y59500D01*
X20000D01*
X19500Y59000D01*
X24001Y76500D02*
Y79500D01*
X25500D01*
X26000Y79000D01*
Y78000D01*
X25500Y77500D01*
X24001D01*
X25000D02*
X26000Y76500D01*
X27000D02*
X27999D01*
X27499D01*
Y79500D01*
X27000Y79000D01*
X10000Y77500D02*
Y79500D01*
X9500Y80000D01*
X8501D01*
X8001Y79500D01*
Y77500D01*
X8501Y77000D01*
X9500D01*
X9000Y78000D02*
X10000Y77000D01*
X9500D02*
X10000Y77500D01*
X11000Y77000D02*
X11999D01*
X11500D01*
Y80000D01*
X11000Y79500D01*
X7501Y57999D02*
X9500Y55001D01*
Y57999D02*
X7501Y55001D01*
X10500D02*
X11499D01*
X11000D01*
Y57999D01*
X10500Y57500D01*
X68000Y80999D02*
X67001D01*
X67500D01*
Y78500D01*
X67001Y78000D01*
X66501D01*
X66001Y78500D01*
X70999Y78000D02*
X69000D01*
X70999Y80000D01*
Y80500D01*
X70499Y80999D01*
X69500D01*
X69000Y80500D01*
X12500Y90000D02*
X11500D01*
X12000D01*
Y87500D01*
X11500Y87001D01*
X11000D01*
X10501Y87500D01*
X13500Y87001D02*
X14499D01*
X13999D01*
Y90000D01*
X13500Y89500D01*
X67251Y46499D02*
X68250D01*
X67750D01*
Y43501D01*
X67251D01*
X68250D01*
X69750D02*
X70749D01*
X70250D01*
Y46499D01*
X69750Y46000D01*
X42501Y80999D02*
Y78000D01*
X44000D01*
X44500Y78500D01*
Y80500D01*
X44000Y80999D01*
X42501D01*
X45500Y78000D02*
X46499D01*
X46000D01*
Y80999D01*
X45500Y80500D01*
X71000Y19000D02*
X70500Y19500D01*
X69501D01*
X69001Y19000D01*
Y17000D01*
X69501Y16500D01*
X70500D01*
X71000Y17000D01*
X73999Y19500D02*
X73000Y19000D01*
X72000Y18000D01*
Y17000D01*
X72500Y16500D01*
X73499D01*
X73999Y17000D01*
Y17500D01*
X73499Y18000D01*
X72000D01*
X69500Y56000D02*
X69000Y56499D01*
X68001D01*
X67501Y56000D01*
Y54000D01*
X68001Y53500D01*
X69000D01*
X69500Y54000D01*
X72499Y56499D02*
X70500D01*
Y55000D01*
X71500Y55500D01*
X71999D01*
X72499Y55000D01*
Y54000D01*
X71999Y53500D01*
X71000D01*
X70500Y54000D01*
X41500Y14000D02*
X41000Y14500D01*
X40001D01*
X39501Y14000D01*
Y12000D01*
X40001Y11501D01*
X41000D01*
X41500Y12000D01*
X43999Y11501D02*
Y14500D01*
X42500Y13000D01*
X44499D01*
X50000Y66000D02*
X49500Y66500D01*
X48501D01*
X48001Y66000D01*
Y64000D01*
X48501Y63500D01*
X49500D01*
X50000Y64000D01*
X51000Y66000D02*
X51500Y66500D01*
X52499D01*
X52999Y66000D01*
Y65500D01*
X52499Y65000D01*
X51999D01*
X52499D01*
X52999Y64500D01*
Y64000D01*
X52499Y63500D01*
X51500D01*
X51000Y64000D01*
X25000Y66000D02*
X24500Y66500D01*
X23501D01*
X23001Y66000D01*
Y64000D01*
X23501Y63500D01*
X24500D01*
X25000Y64000D01*
X27999Y63500D02*
X26000D01*
X27999Y65500D01*
Y66000D01*
X27499Y66500D01*
X26500D01*
X26000Y66000D01*
X26000Y72500D02*
X25500Y73000D01*
X24500D01*
X24001Y72500D01*
Y70500D01*
X24500Y70000D01*
X25500D01*
X26000Y70500D01*
X27000Y70000D02*
X27999D01*
X27499D01*
Y73000D01*
X27000Y72500D01*
M02*
