G04*
G04 #@! TF.GenerationSoftware,Altium Limited,Altium Designer,22.5.1 (42)*
G04*
G04 Layer_Color=8388736*
%FSLAX25Y25*%
%MOIN*%
G70*
G04*
G04 #@! TF.SameCoordinates,3A988065-C8E6-409E-8F77-962EE0EB2120*
G04*
G04*
G04 #@! TF.FilePolarity,Negative*
G04*
G01*
G75*
%ADD16R,0.03200X0.06800*%
%ADD17R,0.05328X0.05131*%
%ADD18R,0.05131X0.05328*%
%ADD19R,0.03556X0.03162*%
%ADD20C,0.06800*%
%ADD21C,0.04816*%
%ADD22C,0.07237*%
%ADD23R,0.07032X0.07032*%
%ADD24C,0.02800*%
D16*
X48000Y28250D02*
D03*
X53000D02*
D03*
X58000D02*
D03*
X63000D02*
D03*
Y49750D02*
D03*
X58000D02*
D03*
X53000D02*
D03*
X48000D02*
D03*
D17*
X37799Y71500D02*
D03*
X31500D02*
D03*
Y78000D02*
D03*
X37799D02*
D03*
X47650Y85000D02*
D03*
X41350D02*
D03*
X58000Y18000D02*
D03*
X64299D02*
D03*
X55650Y9000D02*
D03*
X49350D02*
D03*
X41701Y18000D02*
D03*
X48000D02*
D03*
X33150D02*
D03*
X26850D02*
D03*
X63000Y60000D02*
D03*
X69299D02*
D03*
X46701D02*
D03*
X53000D02*
D03*
X53150Y72000D02*
D03*
X46850D02*
D03*
X31500Y65000D02*
D03*
X37799D02*
D03*
X25201Y58000D02*
D03*
X31500D02*
D03*
D18*
X38500Y41650D02*
D03*
Y35350D02*
D03*
D19*
X21437Y69260D02*
D03*
Y76740D02*
D03*
X13563Y73000D02*
D03*
D20*
X21500Y87500D02*
D03*
X31500D02*
D03*
X58000D02*
D03*
X68000D02*
D03*
D21*
X9791Y25189D02*
D03*
Y48811D02*
D03*
D22*
X13492Y37000D02*
D03*
D23*
X25303D02*
D03*
D24*
X62500Y40000D02*
D03*
X10000Y55000D02*
D03*
X52500Y40000D02*
D03*
X57500D02*
D03*
X62500Y80000D02*
D03*
X10000Y65000D02*
D03*
X12500Y10000D02*
D03*
X67500D02*
D03*
X72500Y70000D02*
D03*
Y30000D02*
D03*
Y80000D02*
D03*
X17500Y20000D02*
D03*
X10000Y15000D02*
D03*
X17500Y10000D02*
D03*
X72500Y20000D02*
D03*
X22500Y10000D02*
D03*
X70000Y35000D02*
D03*
X67500Y80000D02*
D03*
X60000Y35000D02*
D03*
X65000D02*
D03*
X70000Y25000D02*
D03*
X42500Y30000D02*
D03*
X10000Y85000D02*
D03*
X50000Y35000D02*
D03*
X15000Y15000D02*
D03*
X37500Y10000D02*
D03*
X15000Y65000D02*
D03*
X67500Y70000D02*
D03*
X72500Y10000D02*
D03*
X70000Y75000D02*
D03*
X20000Y15000D02*
D03*
X72500Y50000D02*
D03*
X52500Y80000D02*
D03*
X15000Y85000D02*
D03*
X12500Y80000D02*
D03*
X72500Y40000D02*
D03*
X45000Y35000D02*
D03*
X27500Y10000D02*
D03*
X47500Y40000D02*
D03*
X55000Y35000D02*
D03*
X12500Y20000D02*
D03*
X67500Y40000D02*
D03*
X32500Y10000D02*
D03*
X65000Y75000D02*
D03*
X15000Y55000D02*
D03*
X70000Y45000D02*
D03*
X43500Y77500D02*
D03*
X47682Y78567D02*
D03*
X13563Y60563D02*
D03*
X42682Y65067D02*
D03*
X41691Y60000D02*
D03*
X58000Y65500D02*
D03*
X38500Y46691D02*
D03*
M02*
