G04*
G04 #@! TF.GenerationSoftware,Altium Limited,Altium Designer,22.5.1 (42)*
G04*
G04 Layer_Color=8421504*
%FSLAX25Y25*%
%MOIN*%
G70*
G04*
G04 #@! TF.SameCoordinates,3A988065-C8E6-409E-8F77-962EE0EB2120*
G04*
G04*
G04 #@! TF.FilePolarity,Positive*
G04*
G01*
G75*
%ADD12R,0.02400X0.06000*%
%ADD13R,0.04528X0.04331*%
%ADD14R,0.04331X0.04528*%
%ADD15R,0.02756X0.02362*%
D12*
X48000Y28250D02*
D03*
X53000D02*
D03*
X58000D02*
D03*
X63000D02*
D03*
Y49750D02*
D03*
X58000D02*
D03*
X53000D02*
D03*
X48000D02*
D03*
D13*
X37799Y71500D02*
D03*
X31500D02*
D03*
Y78000D02*
D03*
X37799D02*
D03*
X47650Y85000D02*
D03*
X41350D02*
D03*
X58000Y18000D02*
D03*
X64299D02*
D03*
X55650Y9000D02*
D03*
X49350D02*
D03*
X41701Y18000D02*
D03*
X48000D02*
D03*
X33150D02*
D03*
X26850D02*
D03*
X63000Y60000D02*
D03*
X69299D02*
D03*
X46701D02*
D03*
X53000D02*
D03*
X53150Y72000D02*
D03*
X46850D02*
D03*
X31500Y65000D02*
D03*
X37799D02*
D03*
X25201Y58000D02*
D03*
X31500D02*
D03*
D14*
X38500Y41650D02*
D03*
Y35350D02*
D03*
D15*
X21437Y69260D02*
D03*
Y76740D02*
D03*
X13563Y73000D02*
D03*
M02*
