G04*
G04 #@! TF.GenerationSoftware,Altium Limited,Altium Designer,19.1.8 (144)*
G04*
G04 Layer_Color=8421504*
%FSLAX25Y25*%
%MOIN*%
G70*
G01*
G75*
G04:AMPARAMS|DCode=14|XSize=50.39mil|YSize=53.94mil|CornerRadius=2.02mil|HoleSize=0mil|Usage=FLASHONLY|Rotation=270.000|XOffset=0mil|YOffset=0mil|HoleType=Round|Shape=RoundedRectangle|*
%AMROUNDEDRECTD14*
21,1,0.05039,0.04991,0,0,270.0*
21,1,0.04636,0.05394,0,0,270.0*
1,1,0.00403,-0.02495,-0.02318*
1,1,0.00403,-0.02495,0.02318*
1,1,0.00403,0.02495,0.02318*
1,1,0.00403,0.02495,-0.02318*
%
%ADD14ROUNDEDRECTD14*%
%ADD15R,0.03740X0.03150*%
%ADD16R,0.01772X0.01378*%
%ADD17R,0.04331X0.05315*%
%ADD18R,0.05315X0.03347*%
%ADD19R,0.02559X0.06004*%
%ADD20R,0.03937X0.05315*%
%ADD21R,0.05709X0.04724*%
%ADD22R,0.07087X0.04528*%
%ADD23R,0.13819X0.20984*%
%ADD24R,0.04134X0.03543*%
%ADD25R,0.37795X0.40748*%
%ADD26R,0.15158X0.03543*%
%ADD27R,0.04724X0.04724*%
%ADD28R,0.03347X0.05315*%
%ADD29R,0.02165X0.06693*%
%ADD30R,0.05709X0.04134*%
%ADD31R,0.03740X0.03347*%
%ADD32R,0.03937X0.04134*%
%ADD33R,0.03543X0.02756*%
%ADD34R,0.03543X0.04134*%
G04:AMPARAMS|DCode=35|XSize=9.45mil|YSize=23.62mil|CornerRadius=1.98mil|HoleSize=0mil|Usage=FLASHONLY|Rotation=270.000|XOffset=0mil|YOffset=0mil|HoleType=Round|Shape=RoundedRectangle|*
%AMROUNDEDRECTD35*
21,1,0.00945,0.01965,0,0,270.0*
21,1,0.00548,0.02362,0,0,270.0*
1,1,0.00397,-0.00983,-0.00274*
1,1,0.00397,-0.00983,0.00274*
1,1,0.00397,0.00983,0.00274*
1,1,0.00397,0.00983,-0.00274*
%
%ADD35ROUNDEDRECTD35*%
G04:AMPARAMS|DCode=36|XSize=9.45mil|YSize=23.62mil|CornerRadius=1.98mil|HoleSize=0mil|Usage=FLASHONLY|Rotation=180.000|XOffset=0mil|YOffset=0mil|HoleType=Round|Shape=RoundedRectangle|*
%AMROUNDEDRECTD36*
21,1,0.00945,0.01965,0,0,180.0*
21,1,0.00548,0.02362,0,0,180.0*
1,1,0.00397,-0.00274,0.00983*
1,1,0.00397,0.00274,0.00983*
1,1,0.00397,0.00274,-0.00983*
1,1,0.00397,-0.00274,-0.00983*
%
%ADD36ROUNDEDRECTD36*%
%ADD37R,0.03150X0.03740*%
%ADD38R,0.03740X0.06102*%
%ADD39R,0.02953X0.20866*%
%ADD40R,0.03543X0.03347*%
%ADD41R,0.03543X0.03937*%
%ADD42R,0.03937X0.04331*%
%ADD43R,0.07874X0.13780*%
%ADD44R,0.03937X0.03543*%
%ADD45R,0.02165X0.05315*%
%ADD46R,0.04134X0.03740*%
%ADD47R,0.05512X0.03543*%
%ADD48R,0.05512X0.08661*%
%ADD49R,0.03347X0.02756*%
%ADD50R,0.03347X0.03740*%
D14*
X163319Y274500D02*
D03*
Y268673D02*
D03*
Y280327D02*
D03*
X169500D02*
D03*
Y268673D02*
D03*
Y274500D02*
D03*
X157138D02*
D03*
Y280327D02*
D03*
Y268673D02*
D03*
D15*
X126772Y222933D02*
D03*
Y228248D02*
D03*
X133858Y222835D02*
D03*
Y228150D02*
D03*
X140157Y222835D02*
D03*
Y228150D02*
D03*
X105000Y331658D02*
D03*
Y326343D02*
D03*
X117000Y287500D02*
D03*
Y282185D02*
D03*
X116500Y270685D02*
D03*
Y276000D02*
D03*
X115500Y254000D02*
D03*
Y259315D02*
D03*
X176772Y226772D02*
D03*
Y221457D02*
D03*
D16*
X164075Y319291D02*
D03*
Y320866D02*
D03*
X178347Y319882D02*
D03*
Y321457D02*
D03*
X149803Y319193D02*
D03*
Y320768D02*
D03*
D17*
X211256Y258500D02*
D03*
X205744D02*
D03*
D18*
X320000Y205004D02*
D03*
Y211500D02*
D03*
X332677Y303445D02*
D03*
Y296949D02*
D03*
X318898Y392028D02*
D03*
Y385531D02*
D03*
D19*
X40500Y260823D02*
D03*
X45500D02*
D03*
X50500D02*
D03*
X55500D02*
D03*
X60500D02*
D03*
X65500D02*
D03*
X70500D02*
D03*
Y282177D02*
D03*
X65500D02*
D03*
X60500D02*
D03*
X55500D02*
D03*
X50500D02*
D03*
X45500D02*
D03*
X40500D02*
D03*
D20*
X295000Y148500D02*
D03*
X300905D02*
D03*
D21*
X275590Y141929D02*
D03*
Y148622D02*
D03*
D22*
X286417Y136811D02*
D03*
Y148622D02*
D03*
D23*
X334000Y190000D02*
D03*
X317779D02*
D03*
X341535Y282480D02*
D03*
X325315D02*
D03*
X335118Y370079D02*
D03*
X318898D02*
D03*
D24*
X176484Y428626D02*
D03*
Y433941D02*
D03*
X164764Y428051D02*
D03*
Y433366D02*
D03*
X220484Y428126D02*
D03*
Y433441D02*
D03*
X207484Y427626D02*
D03*
Y432941D02*
D03*
X143000Y320000D02*
D03*
Y314685D02*
D03*
X157000Y320657D02*
D03*
Y315342D02*
D03*
X171000Y320657D02*
D03*
Y315342D02*
D03*
X414984Y166701D02*
D03*
Y172016D02*
D03*
X416000Y257343D02*
D03*
Y262657D02*
D03*
X413000Y345685D02*
D03*
Y351000D02*
D03*
X109000Y282791D02*
D03*
Y288500D02*
D03*
X117000Y298815D02*
D03*
Y293500D02*
D03*
X116500Y236185D02*
D03*
Y241500D02*
D03*
D25*
X393701Y204724D02*
D03*
X397386Y292500D02*
D03*
X391000Y377500D02*
D03*
X334646Y156496D02*
D03*
X341000Y247000D02*
D03*
X339000Y335000D02*
D03*
D26*
X355906Y194724D02*
D03*
Y214724D02*
D03*
X359591Y282500D02*
D03*
Y302500D02*
D03*
X353205Y367500D02*
D03*
Y387500D02*
D03*
X372441Y166496D02*
D03*
Y146496D02*
D03*
X378795Y257000D02*
D03*
Y237000D02*
D03*
X376795Y345000D02*
D03*
Y325000D02*
D03*
D27*
X105000Y319134D02*
D03*
Y310866D02*
D03*
D28*
X294685Y156496D02*
D03*
X301181D02*
D03*
X332087Y221457D02*
D03*
X338583D02*
D03*
X336319Y310039D02*
D03*
X342815D02*
D03*
X334055Y402559D02*
D03*
X340551D02*
D03*
D29*
X299606Y173228D02*
D03*
X312008D02*
D03*
X306791Y264764D02*
D03*
X319193D02*
D03*
X304823Y354331D02*
D03*
X317224D02*
D03*
D30*
X435484Y160158D02*
D03*
Y152874D02*
D03*
X442500Y255000D02*
D03*
Y247716D02*
D03*
X433000Y338642D02*
D03*
Y331358D02*
D03*
X405484Y153374D02*
D03*
Y160658D02*
D03*
X407000Y242000D02*
D03*
Y249284D02*
D03*
X401500Y332000D02*
D03*
Y339283D02*
D03*
D31*
X390748Y160728D02*
D03*
Y166043D02*
D03*
Y251279D02*
D03*
Y256594D02*
D03*
X390500Y340370D02*
D03*
Y345685D02*
D03*
X434484Y167358D02*
D03*
Y172673D02*
D03*
X442500Y262000D02*
D03*
Y267315D02*
D03*
X433000Y346500D02*
D03*
Y351815D02*
D03*
X404984Y172673D02*
D03*
Y167358D02*
D03*
X406500Y262315D02*
D03*
Y257000D02*
D03*
X401000Y351000D02*
D03*
Y345685D02*
D03*
X340500Y210315D02*
D03*
Y205000D02*
D03*
X346457Y302854D02*
D03*
Y297539D02*
D03*
X339567Y392421D02*
D03*
Y387106D02*
D03*
D32*
X423484Y159421D02*
D03*
Y153516D02*
D03*
X425500Y249453D02*
D03*
Y243547D02*
D03*
X423000Y337453D02*
D03*
Y331547D02*
D03*
X330500Y205000D02*
D03*
Y210906D02*
D03*
X339567Y297244D02*
D03*
Y303150D02*
D03*
X332677Y386811D02*
D03*
Y392717D02*
D03*
D33*
X414984Y159272D02*
D03*
Y153760D02*
D03*
X416500Y249256D02*
D03*
Y243744D02*
D03*
X413000Y337756D02*
D03*
Y332244D02*
D03*
D34*
X102500Y274500D02*
D03*
X107815D02*
D03*
Y266000D02*
D03*
X102500D02*
D03*
X101842Y258500D02*
D03*
X107158D02*
D03*
X106815Y249500D02*
D03*
X101500D02*
D03*
D35*
X177445Y263673D02*
D03*
Y265642D02*
D03*
Y267610D02*
D03*
Y269579D02*
D03*
Y271547D02*
D03*
Y273516D02*
D03*
Y275484D02*
D03*
Y277453D02*
D03*
Y279421D02*
D03*
Y281390D02*
D03*
Y283358D02*
D03*
Y285327D02*
D03*
X150673D02*
D03*
Y283358D02*
D03*
Y281390D02*
D03*
Y279421D02*
D03*
Y277453D02*
D03*
Y275484D02*
D03*
Y273516D02*
D03*
Y271547D02*
D03*
Y269579D02*
D03*
Y267610D02*
D03*
Y265642D02*
D03*
Y263673D02*
D03*
D36*
X174886Y287886D02*
D03*
X172917D02*
D03*
X170949D02*
D03*
X168980D02*
D03*
X167012D02*
D03*
X165043D02*
D03*
X163075D02*
D03*
X161106D02*
D03*
X159138D02*
D03*
X157169D02*
D03*
X155201D02*
D03*
X153232D02*
D03*
Y261114D02*
D03*
X155201D02*
D03*
X157169D02*
D03*
X159138D02*
D03*
X161106D02*
D03*
X163075D02*
D03*
X165043D02*
D03*
X167012D02*
D03*
X168980D02*
D03*
X170949D02*
D03*
X172917D02*
D03*
X174886D02*
D03*
D37*
X210157Y272000D02*
D03*
X204842D02*
D03*
X210157Y265500D02*
D03*
X204842D02*
D03*
X94500Y283000D02*
D03*
X99815D02*
D03*
D38*
X205374Y280500D02*
D03*
X214626D02*
D03*
D39*
X226122Y298000D02*
D03*
X203878D02*
D03*
D40*
X149508Y240551D02*
D03*
Y235433D02*
D03*
X169291Y245276D02*
D03*
Y240158D02*
D03*
D41*
X116559Y310000D02*
D03*
X111441D02*
D03*
X203000Y226000D02*
D03*
X209299D02*
D03*
X202618Y233500D02*
D03*
X197500D02*
D03*
D42*
X156791Y225886D02*
D03*
X162500D02*
D03*
D43*
X164284Y199000D02*
D03*
X199716D02*
D03*
D44*
X131102Y315551D02*
D03*
Y310236D02*
D03*
X190500Y237618D02*
D03*
Y232500D02*
D03*
D45*
X197839Y226000D02*
D03*
X190161D02*
D03*
D46*
X183000Y225500D02*
D03*
Y231209D02*
D03*
D47*
X153740Y203839D02*
D03*
D48*
Y213878D02*
D03*
D49*
X169882Y228740D02*
D03*
Y224213D02*
D03*
D50*
X170843Y327500D02*
D03*
X176157D02*
D03*
X156685Y328000D02*
D03*
X162000D02*
D03*
X142685D02*
D03*
X148000D02*
D03*
M02*
