M48
;Layer_Color=9474304
;FILE_FORMAT=2:4
INCH,TZ
;TYPE=PLATED
T01F00S00C0.0079
T02F00S00C0.0080
T03F00S00C0.0394
T04F00S00C0.0402
T05F00S00C0.0433
T06F00S00C0.1500
;TYPE=NON_PLATED
T07F00S00C0.0402
T08F00S00C0.0500
%
T01
X48800Y23150
X49150Y23350
Y22950
X49500Y23150
X40200
X39850Y23350
Y22950
X39500Y23150
X36850Y23250
X36500Y23050
Y23450
X36150Y23250
X27550
X27200Y23050
Y23450
X26850Y23250
X24250
X23900Y23050
Y23450
X23550Y23250
X14950
X14600Y23450
Y23050
X14250Y23250
X18300Y39758
Y40250
X18713
X17887
X18300Y40742
X30900
Y40250
X30487
X30900Y39758
X31313Y40250
X43137Y40150
X43550
X43963
X43550Y40642
Y39658
X55770Y39606
Y40118
X56282
Y39606
Y39094
Y38582
X55770
Y39094
T02
X79000Y19000
X80000
X81000
Y21000
X80500Y22000
X81000Y23000
X79000
X78650Y22700
X78500Y24000
X79500
Y26000
X80000Y27000
X81000
X80500Y28000
X81000Y29000
Y31000
X79000
X78650Y31200
X79000Y29000
X78500Y28000
X78650Y26900
X79000Y27000
X81000Y25000
X79500Y20000
X78500
X77500
X76500
X76050Y19850
X75500Y20000
X75000Y19000
X74000
X73000
X72000
X71000
X70000
X69000
X68000
X67000
X66000
X65000
X64000
X63000
X63500Y20000
X64500
X65500
X65650Y20400
X66000Y21000
X65650Y21600
X65500Y22000
X66500
X67500
X68500
X69500
Y22800
X70100Y23100
X70850
X71850Y23200
X71500Y24000
X71000Y25000
X69900Y25200
X69700Y25500
X69450Y25750
X68950Y26900
X68400Y26600
X67900Y26550
X66900Y26050
Y25150
X66908Y23608
X65000Y23000
X64000
Y23500
X63700Y23300
X63400Y23100
X63500Y22000
X64000Y21000
X65000
X62500Y20000
Y26000
X63500
X62500Y28000
X63000Y29000
X63800
Y29550
Y30200
X63500Y30000
X62500
X63000Y31000
X63800Y30850
X65400Y30700
Y30300
Y29250
X65150Y28550
X64700
X65850Y28200
X68550Y27563
X69900Y27650
X70250
X70600
X69900Y26950
X72200
X73000Y27000
X74000
X75000
X75500Y28000
X76000Y29000
X77000
X78000
X77500Y30000
X76500
X75500
X76000Y31000
X78000
X77500Y28000
X78000Y27000
X77500Y26000
X78000Y25000
Y23000
X76000
X75000
X73928Y23185
X73000Y23000
X73500Y22000
X74500
X75500
X76500
X76000Y21000
X75000
X74000
X73000
X71500Y22000
X70500
X70600Y19850
X76000Y19000
X77000
X78000
Y21000
X76500Y24000
X73500
X74000Y25000
X73500Y26000
X72500
X71500
Y29850
X71150
X70800
X70250Y29200
X70400Y30800
X70200Y31200
X71000Y31000
X72000
X74000
X73500Y30000
X73000Y29000
X62000
X61000
X60000
X59000
X59500Y30000
X60500
X61500
X62000Y31000
X61000
X60000
X59000
X58750
X58800Y30400
X59500Y28000
X60500
X61500
X60000Y27000
X59100Y26850
Y26200
X59350Y25500
X59600Y25200
X59350Y24900
X59800Y24850
X61000Y25000
X62000
X62150Y24050
Y23750
X61500Y24000
X60500
X61400Y22850
X61800
X62150
X61500Y22000
X59500
X59200Y21600
Y20400
X59500Y20000
X60500
X60000Y19000
X61000
X62000
X62200Y20400
X57900
X58000Y19000
X57000
X59000
X56285Y21446
X55500Y22000
X55835Y22746
X54535
X53500Y22000
X53800Y21600
Y20400
X53500Y20000
X52500
X52000Y21000
X51000
X50200Y21350
X50500Y22000
X49750Y21850
X49401Y21828
X49100Y21850
X48800Y22100
X49365Y22287
X49750Y22250
X50058Y23144
X50500Y24000
X49250Y24150
X49335Y25496
X49650Y26000
X50500
X51500
X51550Y26250
X51900Y26950
X51500Y28000
X50500
X52000Y29000
X54000
X55000
X56000
X57000
X56500Y28000
X55500
X54500
X54450Y26850
Y26200
X55500Y26000
X56200Y26250
X56000Y27000
X56600Y26900
X55000Y27000
Y25000
X56100Y25200
X52900Y24400
X52625Y24550
Y24250
X52350Y24100
Y24400
X51450Y25150
X50000Y25000
X47000
X47500Y24000
X48258Y23144
X48150Y22250
Y21850
X47500Y22000
X48000Y21000
X49000
X49550Y20500
X49350Y19597
X49750Y19400
X50350Y19850
X53000Y21010
X54500Y30000
X54150Y30500
Y31050
X55000Y31000
X55500Y30000
X49521Y29881
X48550Y29950
X48000
X47650Y29750
X49000Y29000
X48000Y27150
X47250
X46950
X47500Y26000
X50000Y31000
X45500Y30000
X44850Y30050
X44450Y30000
X44050Y30050
X43500Y30000
X42500Y29550
X40900Y30000
X40350
X39450Y29900
X38750Y30850
X38000Y31000
X37000
X36871Y29931
X36500Y30000
X35900
X35350
X35000Y29850
X36000Y29000
X38000
X38500Y28000
X39500
X38700Y27050
X38000Y27000
X37500Y26000
X37000Y26050
X36635Y25646
X36600Y24200
X37500Y24000
X37408Y23194
X38000Y23000
X38950Y23150
X38750Y22300
X39500Y21850
X39950
X40300
X40450Y22100
X39750
X40000Y21000
X39750Y20500
X39100Y19850
X38500Y20000
X37860Y19850
X37596Y19410
X36700Y19600
X36900Y20600
X37000Y21000
X37050Y21950
X37350Y21850
X37550Y21450
X37200Y22450
X36750Y22350
X36200Y22200
X36450Y21950
X35500Y21900
X35462Y22412
X35608Y23194
X34000Y23000
X34500Y22000
X34000Y21000
X33950Y20650
X32000Y21000
X32800Y24350
X33500Y24000
X34000Y25000
X33350Y26050
X34000Y27250
X34250Y27200
X34550
X35350
X35500Y26000
X38500
X38000Y25000
X39000
X39400Y24100
X39950
X38500Y24000
X40700Y23150
X41000Y23000
X41500Y22000
X40450Y21350
Y19900
X40900Y19400
X42300Y20600
X43000Y23000
X43400Y24300
X45450
X46000Y23000
Y26000
Y27000
X46650Y27200
X43000Y27000
X42900Y26000
X42500
X42000Y25000
X41700Y27150
X41450
X41200
X40850
X40500Y26000
X40153Y26155
X32500Y30000
X32200Y30100
X31800Y30050
X31400Y30100
X46600Y20600
X31000Y21000
X30000
X29650Y20650
X29500Y22000
X28500
X27700Y21950
Y22250
X27050Y22150
X26850Y21950
X27300Y21900
X27800Y21450
X27000Y21000
X27100Y20600
X27800Y19950
X28250Y19400
X26450Y19850
X25260Y19900
X24100Y19686
X24000Y19000
X23000
X22000
X21000
X20000
X19000
X18000
X17000
X16000
X15800Y19400
X17050Y20700
X17000Y21000
X18000
X19000
X21000
X21350Y20700
X21500Y22000
X22500
X22900Y21950
X22862Y22462
X23008Y23244
X23550Y22200
X23850Y21950
X24151Y21928
X24500Y21900
X24600Y22500
X24150Y22400
X25000Y23000
X24808Y23244
X24500Y24000
X24000Y24250
X24035Y25646
X24400Y26100
X23500Y26000
X25500
X26500
X27503Y26205
X28500Y26000
Y27250
X28750Y27200
X29000
X28200
X27500Y28000
X25500
X26050Y27100
X25000Y27000
Y25000
X25500Y24000
X26500
X26750Y24150
X27300
X28500Y24000
X28050Y23200
X26300
X26100Y22300
X25500Y22000
X24950Y21450
X24000Y21000
X24300Y20600
X20500Y22000
X21000Y23000
X20500Y24000
X20200Y24400
X20500Y26000
X20750Y26100
X21400Y27300
X21650Y27250
X21950
X22750
X23500Y28000
X23300Y30050
X22750
X22400Y29850
X24271Y29981
X25500Y30000
X26800Y29950
X27700Y30050
X28250
X29850Y29600
X30500Y30000
Y26000
X30250Y26050
X30750Y24350
X30500Y24000
X30000Y23000
X30500Y22000
X29000Y25000
X22000
X18150Y24400
X17500Y24000
X17000Y25000
X17650Y26100
X16150Y26650
X16450Y26950
Y27250
X16200
X17250Y29650
X17500Y30000
X18500
X18800Y30150
X19200Y30100
X19600Y30150
X20500Y30000
X24000Y31000
X25000
X26100Y30900
X17000Y23000
X17500Y22000
X16500
X15500
X15050Y21950
X15150Y22200
X14460Y22190
X14700Y21950
X14200
X14000Y22400
X13500Y22450
X13550Y23250
X13000Y23000
X12500Y22000
X13000Y21000
X14000
X14500Y20600
X15200Y20000
X15000Y19000
X14000
X13000
X12500Y20000
X13800Y19800
X15200Y21450
X15450Y23250
X15150Y24350
X14650Y24650
X13500Y24000
X12500
X13000Y27000
X14000
X14903Y26255
X15500Y26000
X15000Y29000
X15100Y30100
X15600Y30050
X14500Y30000
X14200
X13500Y30950
X13000Y31000
X12500Y30000
X13000Y29000
X12500Y28000
Y32000
X13400Y32200
X13500Y31550
X13400Y32950
X13000Y33000
X13050Y33700
Y34500
Y35300
X13500Y36000
X14500
X14000Y37000
X13000
X13500Y38000
X12500
X13000Y39000
X14000
X14640Y39860
X15500Y40000
Y40300
Y42000
X14500
X13500
X12500
X13000Y43000
X14000
X15000
X15500Y44000
X14500
X13500
X12500
X13000Y45000
X14000
X15000
X14000Y41000
X13500Y40000
X12500
Y36000
Y34000
X19500Y36000
X20400Y35500
X21000Y35000
X22000Y35300
Y34450
X22500Y34000
X21500
Y36000
X22500
X23000Y35000
X24000
X25000
X25650Y35250
Y34450
Y33650
X26000Y32900
Y32150
X25500Y32000
X24500
X25000Y33000
X23800Y32950
X23650Y33850
X24500Y36000
X25500
X26500
X27500
X26000Y37000
X25000
X24200Y36850
X23100Y36950
X22000Y37000
X22150Y37200
X21300Y37550
X21000Y37000
X20000
X19000
X18810Y38003
X18800Y38700
X18750Y39200
X17250Y39600
Y40250
X16900Y39300
X16260Y39353
X15900Y39600
Y39900
X18000Y41000
X17500Y42000
X18500
X19500
Y41600
X20150Y41750
X20500Y42000
X20850Y41600
X21500Y42000
X21450Y40300
X20600Y40000
X20100
X19950Y38197
X20550Y37750
X25500Y38000
X26500
X26000Y39000
X27050
X26500Y40000
X25500
X25000Y41000
X25500Y42000
X26500
X27500
X28500
X30500
X31000Y41000
X29850Y40200
Y39550
X29500Y39250
X28860Y39303
X28500Y39550
Y39850
X28100Y40250
X27000Y41000
X26900Y45250
X27900
X28900
X29900
X30900
X25900
X24900
X23900
X22900
X22550Y44600
X22000Y45000
X21000
X20000
X19000
X18000
X17000
X16000
X16500Y44000
X17500
X18500
X18000Y43000
X19000
X17000
X16000
X26100Y31500
X32000Y35000
X33000Y35450
X33500Y36000
X34500
X34600Y35250
Y34400
X36300Y33850
X36400Y32900
X37000Y33000
X38000
X38650Y32850
Y32100
X38750Y31450
X37500Y32000
X36500
X38300Y33600
Y34400
Y35200
X38000Y35000
X37000
X36500Y36000
X37500
X38500
X39000Y37000
X38000
X36800Y36800
X35700Y36900
X35000Y37000
X34750Y37150
X34000Y37000
X33900Y37500
X33150Y37700
X33000Y37000
X32500Y36000
X31500
X31410Y37953
X31400Y38650
X31350Y39150
X32350Y39800
X33300Y40050
X34050Y40250
X34000Y41000
X35000
X36000
X37000
X38000
X39000
X40000
X39500Y42000
X40500
X41500
X42500
X43500
X44500
X44750Y41500
X45400Y41700
X45500Y42000
X46500
X46100Y41500
X46600Y40250
X45850Y39950
X45350
X45200Y38097
X44500Y38000
X44060Y37903
X44050Y38600
X44000Y39100
Y41000
X43000
X42000
X42500Y40150
Y39500
X42150Y39200
X41510Y39253
X41150Y39500
Y39750
X40750Y40150
X40500Y40000
X39500
X39000Y39000
X38000
X37500Y40000
X38500Y42000
X38900Y45250
X37900
X36900
X35900
X34900
X33900
X32900
X31900
X31500Y42000
X32500
X32750Y41800
X32100Y41600
X33450
X33500Y42000
X34500
X32550Y38147
X38500Y38000
X39300
X40000Y37000
X44000
X45000
X46000
X45800Y37600
X46550Y37400
X46500Y36000
X45650Y35400
X45000Y35000
X44500Y36000
X44900Y45250
X45900
X43900
X42900
X41900
X40900
X39900
X46900
X47900
X48900
X49900
X50900
X51900
X52900
X53900
X54900
X55900
X56900
X57900
X58900
X59900
X60900
X61900
X61500Y42000
X60500
X60826Y41350
X60000Y41000
X59776Y40850
X58976Y40400
X58326
X57126Y40750
X57000Y41000
X56000
X56026Y40600
X55000Y41000
X55500Y42000
X56500
X57500
X58500
X59500
X62000Y41000
Y37000
X61000
X60826Y37350
X60000Y37000
X59000
X58976Y37850
X58500Y38000
X58326Y38300
X58000Y37000
X57000
X57050Y37400
X56850Y37900
X56500Y36000
X57500
X58500
X59500
X60500
X61500
X61000Y35000
X60000
X59000
X58000
X57000
X56000
X56500Y34000
X57226Y34100
X58576
X59500Y34000
X60500
X61500
X62000Y35000
X59776Y37850
X54376Y38250
Y39100
X54000Y39000
X53000
X52776Y38300
X52000Y39000
X51576Y39400
X51500Y38000
X50500
Y36000
X49500
X49400Y36700
X48350Y36800
X48500Y36000
X47500
X47250Y35200
X47000Y35000
X47250Y34350
X48000Y35000
X49000
X50000
X49500Y34000
X48950Y33800
X49050Y32850
X50000Y33000
X50500Y34000
X51500Y36000
X52500
X52000Y37000
X54500Y36000
X55500
X54176Y40000
X53500
Y42000
X54500
X52500
X51500
X50500
X51000Y41000
X50000
X48000
X47500Y42000
Y38000
X47400Y37050
X47000Y37000
X49500Y32000
X59500
X52000Y41000
X63000
X64000
X63500Y42000
X62500
X62900Y45250
X63900
X64900
X65900
X66900
X67900
X68900
X69900
X70900
X71900
X72900
X74000Y45000
X75000
X76000
X77000
X78000
X77500Y44000
X76500
X75500
X75000Y43000
X76000
X77000
X78000
X77500Y42000
X76500
X75500
X74500
X74000Y41000
X73500Y40000
X72450Y39650
X72000Y39000
X71000
X71200Y39600
X70500Y40000
X69900Y39650
X70000Y39000
X69000
X68000
X67000
X66000
X66500Y38000
X67500
X68500
X69500
X70500
X71500
X72500
X73000Y37000
X74000
X75000
X76000
X75500Y36000
X74500
X73500
X72500
X72000Y35000
X71000
X70500Y36000
X69500
X68500
X67500
X66500
X66000Y37000
X67000
X68000
X69000
X70000
X71000
X70500Y34000
X71500
X72500
X73500
X74500
X75500
X76500
X76000Y35000
X75000
X74000
X73000
Y33000
X74000
X73500Y32000
X74500
X75500
X76000Y33000
X77050Y32650
X77350Y33300
X78000Y33000
X77500Y32000
X78000Y35000
Y37000
Y39000
Y41000
X77000
X74000Y39000
X73000
X72500Y42000
X70000Y41000
X69000
X68000
X67500Y40000
X68500
X65500Y38000
X64500
X63500
X62500
X63000Y37000
X64000
X63500Y36000
X62500
X63000Y35000
X64000
X65126Y34700
X65500Y34000
X64500
X63500
X62500
X63000Y33000
X64000
X65000
X66000
X66450Y32700
X66800Y32950
X66500Y34000
X67500
X67700Y33450
X67950Y33200
X68500Y34000
X68000Y35000
X67000
X66000
X69000
X69600Y32300
X70500Y32000
X70700Y31600
X71500Y32000
X72000Y33000
X76500Y36000
X64850Y31250
X63500Y32000
X78500
X79500
X80000Y33000
X81000
X80500Y34000
X81000Y35000
X79850Y35350
X79500Y36000
X78500
X78650Y35350
X79000Y37000
X81000
X80500Y38000
X81000Y39000
X79850Y39600
X79500Y40000
X78500
X78650Y39600
X81000Y41000
X80500Y42000
X81000Y43000
X80500Y44000
X79850Y43850
X79500Y44000
X78650Y43850
X79000Y43000
Y45000
X80000
X81000
X79000Y33000
T03
X54100Y25200
X58765
X45250Y25000
X43650
X32600Y25100
X31000
X20000
X18400
X15100Y38100
X13000Y40400
X16550Y41750
X22100Y41000
X26050Y40750
X29200Y41650
X27650Y38150
X23100Y31700
X35700
X34400Y41150
X38550Y39900
X40150Y38250
X41850Y41600
X47000Y41200
X53561Y41101
X53700Y36950
X55800Y31500
X48350Y31600
X69900Y38500
Y43600
T04
X78650Y20959
X79831
Y22141
X78650
Y25209
X79831
Y26391
X78650
Y29459
X79831
Y30641
X78650
X76031Y20350
X74850
X73669
X70581
X69400
X68219
X65131Y20419
X63950
Y21600
X65131
X62769
Y20419
X59731
X58550
Y21600
X59731
X57369
Y20419
X54331
X53150
Y21600
X54331
X51969
Y20419
X45031Y21950
X43850
X32381Y22050
X31200
X19781
X18600
X73159Y43500
X74341
X78650Y43291
X79831
Y42109
X78650
Y39041
X79831
Y37859
X78650
Y34841
X79831
Y33659
X78650
T05
X72200Y27500
X73200
X74200
T06
X75450Y25200
X13250Y25575
X20850Y43525
X61200Y32500
X75450Y39950
T07
X80201Y19778
Y23322
Y24028
Y27572
Y28278
X66312Y20049
X61588
X60912
X56188
X55512
X50788
X45401Y20769
Y23131
X32751Y23231
Y20869
X20151
Y23231
X80201Y31822
Y32478
Y36022
Y36678
Y40222
Y40928
Y44472
T08
X67038Y21122
X71762
X72488
X77212
X75522Y42728
X71978
M30
