G04*
G04 #@! TF.GenerationSoftware,Altium Limited,Altium Designer,23.11.1 (41)*
G04*
G04 Layer_Color=16711935*
%FSLAX25Y25*%
%MOIN*%
G70*
G04*
G04 #@! TF.SameCoordinates,C18E11E6-2F2A-4DEC-BC48-3546B0B1B692*
G04*
G04*
G04 #@! TF.FilePolarity,Negative*
G04*
G01*
G75*
%ADD74C,0.25591*%
%ADD75C,0.05709*%
%ADD76C,0.02041*%
%ADD77C,0.04607*%
%ADD78C,0.06615*%
%ADD79R,0.06423X0.06423*%
%ADD80C,0.05591*%
%ADD81R,0.06423X0.06423*%
%ADD82C,0.06890*%
G04:AMPARAMS|DCode=83|XSize=68.9mil|YSize=68.9mil|CornerRadius=18.7mil|HoleSize=0mil|Usage=FLASHONLY|Rotation=180.000|XOffset=0mil|YOffset=0mil|HoleType=Round|Shape=RoundedRectangle|*
%AMROUNDEDRECTD83*
21,1,0.06890,0.03150,0,0,180.0*
21,1,0.03150,0.06890,0,0,180.0*
1,1,0.03740,-0.01575,0.01575*
1,1,0.03740,0.01575,0.01575*
1,1,0.03740,0.01575,-0.01575*
1,1,0.03740,-0.01575,-0.01575*
%
%ADD83ROUNDEDRECTD83*%
%ADD84C,0.02591*%
D74*
X612000Y325000D02*
D03*
X754500Y252000D02*
D03*
X132500Y255750D02*
D03*
X208500Y435250D02*
D03*
X754500Y399500D02*
D03*
D75*
X385500Y399000D02*
D03*
X260500Y407500D02*
D03*
X130000Y404000D02*
D03*
X165500Y417500D02*
D03*
X151000Y381000D02*
D03*
X221000Y410000D02*
D03*
X292000Y416500D02*
D03*
X344000Y411500D02*
D03*
X276500Y381500D02*
D03*
X401500Y382500D02*
D03*
X418500Y416000D02*
D03*
X470000Y412000D02*
D03*
X537000Y369500D02*
D03*
X535608Y411006D02*
D03*
X200000Y251000D02*
D03*
X326000D02*
D03*
X452500Y250000D02*
D03*
X184000Y251000D02*
D03*
X310000D02*
D03*
X436500Y250000D02*
D03*
X541000Y252000D02*
D03*
X587650D02*
D03*
X558000Y315000D02*
D03*
X231000Y317000D02*
D03*
X357000D02*
D03*
X483500Y316000D02*
D03*
X699000Y385000D02*
D03*
Y436000D02*
D03*
D76*
X562818Y385823D02*
D03*
X557700D02*
D03*
X562818Y390941D02*
D03*
X557700D02*
D03*
X562818Y396059D02*
D03*
X557700D02*
D03*
X562818Y401177D02*
D03*
X557700D02*
D03*
D77*
X201512Y232311D02*
D03*
Y208689D02*
D03*
X327512Y232311D02*
D03*
Y208689D02*
D03*
X454012Y231311D02*
D03*
Y207689D02*
D03*
X802012Y366783D02*
D03*
Y402217D02*
D03*
Y324783D02*
D03*
Y360217D02*
D03*
Y409283D02*
D03*
Y444717D02*
D03*
Y318217D02*
D03*
Y282783D02*
D03*
Y240283D02*
D03*
Y275717D02*
D03*
Y233217D02*
D03*
Y197783D02*
D03*
X609122Y200488D02*
D03*
X561878D02*
D03*
X555122D02*
D03*
X507878D02*
D03*
X663122D02*
D03*
X615878D02*
D03*
D78*
X197811Y220500D02*
D03*
X323811D02*
D03*
X450311Y219500D02*
D03*
X731594Y435000D02*
D03*
X786500Y390406D02*
D03*
X798311Y378594D02*
D03*
Y390406D02*
D03*
X786500Y348406D02*
D03*
X798311Y336594D02*
D03*
Y348406D02*
D03*
X786500Y432906D02*
D03*
X798311Y421094D02*
D03*
Y432906D02*
D03*
Y306406D02*
D03*
Y294594D02*
D03*
X786500Y306406D02*
D03*
Y263906D02*
D03*
X798311Y252094D02*
D03*
Y263906D02*
D03*
Y221406D02*
D03*
Y209594D02*
D03*
X786500Y221406D02*
D03*
X585500Y216000D02*
D03*
X597311Y204189D02*
D03*
X585500D02*
D03*
X573689D02*
D03*
X597311Y216000D02*
D03*
X531500D02*
D03*
X543311Y204189D02*
D03*
X531500D02*
D03*
X519689D02*
D03*
X543311Y216000D02*
D03*
X639500D02*
D03*
X651311Y204189D02*
D03*
X639500D02*
D03*
X627689D02*
D03*
X651311Y216000D02*
D03*
X748500Y203500D02*
D03*
X760311D02*
D03*
X694000D02*
D03*
X705811D02*
D03*
D79*
X186000Y220500D02*
D03*
X312000D02*
D03*
X438500Y219500D02*
D03*
X786500Y378594D02*
D03*
Y336594D02*
D03*
Y421094D02*
D03*
Y294594D02*
D03*
Y252094D02*
D03*
Y209594D02*
D03*
D80*
X719783Y427283D02*
D03*
X755217D02*
D03*
X724878Y211217D02*
D03*
X772122D02*
D03*
X717622D02*
D03*
X670378D02*
D03*
D81*
X743406Y435000D02*
D03*
X573689Y216000D02*
D03*
X519689D02*
D03*
X627689D02*
D03*
X736689Y203500D02*
D03*
X682189D02*
D03*
D82*
X722000Y275000D02*
D03*
X732000D02*
D03*
D83*
X742000D02*
D03*
D84*
X702000Y312000D02*
D03*
X707000Y316000D02*
D03*
X702500Y292000D02*
D03*
X711500Y298500D02*
D03*
X715000D02*
D03*
X708000D02*
D03*
X704000Y308000D02*
D03*
X786500Y312000D02*
D03*
X770500Y326500D02*
D03*
X696000Y323000D02*
D03*
X664500Y327000D02*
D03*
X668000Y329500D02*
D03*
X654000Y292500D02*
D03*
X679500Y332000D02*
D03*
X677000Y334500D02*
D03*
X773500Y333000D02*
D03*
X495000Y360000D02*
D03*
X265000Y400000D02*
D03*
X415000Y220000D02*
D03*
X375000Y240000D02*
D03*
X780000Y350000D02*
D03*
X709000Y452500D02*
D03*
X135000Y420000D02*
D03*
X630000Y190000D02*
D03*
X489000Y452500D02*
D03*
X125000Y300000D02*
D03*
X210000Y230000D02*
D03*
X660000Y210000D02*
D03*
X365000Y360000D02*
D03*
X520000Y290000D02*
D03*
X635000Y320000D02*
D03*
X795000Y240000D02*
D03*
X600000Y190000D02*
D03*
X800000Y330000D02*
D03*
X405000Y260000D02*
D03*
X810000Y330000D02*
D03*
X255000Y260000D02*
D03*
X640000Y210000D02*
D03*
X600000Y410000D02*
D03*
X740000D02*
D03*
X460000Y370000D02*
D03*
X685000Y360000D02*
D03*
X700000Y370000D02*
D03*
X689000Y452500D02*
D03*
X735000Y320000D02*
D03*
X595000Y300000D02*
D03*
X140000Y450000D02*
D03*
X390000Y370000D02*
D03*
X775000Y200000D02*
D03*
X155000Y400000D02*
D03*
X745000Y320000D02*
D03*
X419000Y452500D02*
D03*
X790000Y230000D02*
D03*
X705000Y360000D02*
D03*
X210000Y370000D02*
D03*
X175000Y240000D02*
D03*
X265000Y420000D02*
D03*
X660000Y370000D02*
D03*
X130000Y230000D02*
D03*
Y430000D02*
D03*
X445000Y360000D02*
D03*
X475000Y420000D02*
D03*
X265000Y380000D02*
D03*
X515000Y360000D02*
D03*
X630000Y290000D02*
D03*
X430000Y410000D02*
D03*
X285000Y240000D02*
D03*
X146398Y398602D02*
D03*
X715000Y320000D02*
D03*
X145000Y420000D02*
D03*
X150000Y450000D02*
D03*
X555000Y420000D02*
D03*
X395000D02*
D03*
X605000Y200000D02*
D03*
X565000Y280000D02*
D03*
X695000Y360000D02*
D03*
X795000Y200000D02*
D03*
X150000Y190000D02*
D03*
X785000Y200000D02*
D03*
X705000Y320000D02*
D03*
X670000Y390000D02*
D03*
X765000Y220000D02*
D03*
X630000Y330000D02*
D03*
X397500Y205000D02*
D03*
X185000Y440000D02*
D03*
X620000Y310000D02*
D03*
X695000Y220000D02*
D03*
X309000Y452500D02*
D03*
X130000Y390000D02*
D03*
X393000Y380000D02*
D03*
X705000Y340000D02*
D03*
X595000Y360000D02*
D03*
X195000D02*
D03*
X675000Y340000D02*
D03*
X425000Y420000D02*
D03*
X680000Y390000D02*
D03*
X545000Y300000D02*
D03*
X675000Y400000D02*
D03*
X770000Y430000D02*
D03*
X380000Y250000D02*
D03*
Y350000D02*
D03*
X735000Y340000D02*
D03*
Y260000D02*
D03*
X560000Y350000D02*
D03*
X785000Y280000D02*
D03*
X705000Y380000D02*
D03*
X500000Y350000D02*
D03*
X460000Y230000D02*
D03*
X740000Y350000D02*
D03*
X140000Y390000D02*
D03*
X600000Y310000D02*
D03*
X735000Y220000D02*
D03*
X530000Y210101D02*
D03*
X305000Y420000D02*
D03*
X610000Y350000D02*
D03*
X725000Y260000D02*
D03*
X765000Y200000D02*
D03*
X725000Y360000D02*
D03*
X750000Y190000D02*
D03*
X379000Y452500D02*
D03*
X140000Y210000D02*
D03*
X785000Y360000D02*
D03*
X500000Y250000D02*
D03*
X229000Y452500D02*
D03*
X329000D02*
D03*
X180000Y210000D02*
D03*
X535000Y200000D02*
D03*
X305000Y300000D02*
D03*
X243000Y206000D02*
D03*
X640000Y350000D02*
D03*
X750000Y430000D02*
D03*
X690000Y370000D02*
D03*
X625000Y380000D02*
D03*
X670000Y350000D02*
D03*
X125000Y220000D02*
D03*
X780000Y310000D02*
D03*
X339000Y452500D02*
D03*
X400000Y410000D02*
D03*
X455000Y300000D02*
D03*
X710000Y250000D02*
D03*
X390000D02*
D03*
X565000Y420000D02*
D03*
X755000Y300000D02*
D03*
X525000Y200000D02*
D03*
X380000Y290000D02*
D03*
X760000Y210000D02*
D03*
X545346Y227464D02*
D03*
X190000Y450000D02*
D03*
X370000Y310000D02*
D03*
X135000Y440000D02*
D03*
X245000Y240000D02*
D03*
X660000Y190000D02*
D03*
X609000Y452500D02*
D03*
X359000D02*
D03*
X810000Y230000D02*
D03*
X335000Y360000D02*
D03*
X300000Y230000D02*
D03*
X335000Y420000D02*
D03*
X610000Y310000D02*
D03*
X505000Y260000D02*
D03*
X600000Y290000D02*
D03*
X230000Y190000D02*
D03*
X345000Y360000D02*
D03*
X240000Y190000D02*
D03*
X370000Y350000D02*
D03*
X620000Y370000D02*
D03*
X580000D02*
D03*
X170000Y250000D02*
D03*
X730000Y290000D02*
D03*
X625000Y300000D02*
D03*
X380000Y230000D02*
D03*
X455000Y420000D02*
D03*
X515000Y260000D02*
D03*
X730000Y330000D02*
D03*
X740000Y310000D02*
D03*
X805000Y420000D02*
D03*
X475000Y220000D02*
D03*
X240000Y310000D02*
D03*
X345000Y220000D02*
D03*
X805000D02*
D03*
X325000Y300000D02*
D03*
X500000Y330000D02*
D03*
X790000Y310000D02*
D03*
X275000Y280000D02*
D03*
X775000Y260000D02*
D03*
X140000Y190000D02*
D03*
X155000Y440000D02*
D03*
X380000Y270000D02*
D03*
X255000Y400000D02*
D03*
X430000Y270000D02*
D03*
X440000Y370000D02*
D03*
X810000D02*
D03*
X470000D02*
D03*
X255000Y380000D02*
D03*
X550000Y250000D02*
D03*
X380000Y390000D02*
D03*
X745000Y360000D02*
D03*
X630000Y370000D02*
D03*
X800000Y190000D02*
D03*
X520000Y210000D02*
D03*
X635000Y200000D02*
D03*
X755000Y320000D02*
D03*
X810000Y190000D02*
D03*
X710000Y350000D02*
D03*
X349000Y452500D02*
D03*
X610000Y290000D02*
D03*
X595000Y340000D02*
D03*
X279000Y452500D02*
D03*
X620000Y250000D02*
D03*
X605000Y420000D02*
D03*
X135000Y380000D02*
D03*
X740000Y250000D02*
D03*
X369000Y206000D02*
D03*
X745000Y340000D02*
D03*
X525000Y360000D02*
D03*
X780000Y190000D02*
D03*
X810000Y270000D02*
D03*
X125000Y240000D02*
D03*
X415000Y420000D02*
D03*
X180000Y190000D02*
D03*
X635000Y340000D02*
D03*
X479000Y452500D02*
D03*
X505000Y240000D02*
D03*
X170000Y210000D02*
D03*
X125000Y320000D02*
D03*
X615000Y340000D02*
D03*
X395000Y400000D02*
D03*
X790000Y370000D02*
D03*
X755000Y220000D02*
D03*
X680000Y350000D02*
D03*
X475000Y240000D02*
D03*
X265000Y360000D02*
D03*
X720000Y390000D02*
D03*
X640000Y190000D02*
D03*
X375000Y260000D02*
D03*
X740000Y330000D02*
D03*
X605000Y360000D02*
D03*
X615000Y220000D02*
D03*
X130000Y450000D02*
D03*
X399000Y452500D02*
D03*
X645000Y340000D02*
D03*
X680000Y190000D02*
D03*
X385000Y280000D02*
D03*
X465000Y360000D02*
D03*
X469000Y452500D02*
D03*
X589000D02*
D03*
X610000Y190000D02*
D03*
X760000Y430000D02*
D03*
X720000Y330000D02*
D03*
X240000Y350000D02*
D03*
X680000Y410000D02*
D03*
X810000Y350000D02*
D03*
X719000Y452500D02*
D03*
X530000Y390000D02*
D03*
X635000Y420000D02*
D03*
X755000Y360000D02*
D03*
X529000Y452500D02*
D03*
X215000Y420000D02*
D03*
X725000Y380000D02*
D03*
X635000Y220000D02*
D03*
X770000Y190000D02*
D03*
X145000Y440000D02*
D03*
X515000Y420000D02*
D03*
X675000Y380000D02*
D03*
X225500Y446000D02*
D03*
X675000Y220000D02*
D03*
X665000Y380000D02*
D03*
X770000Y290000D02*
D03*
X340000Y250000D02*
D03*
X345000Y420000D02*
D03*
X780000Y290000D02*
D03*
X370000Y330000D02*
D03*
X315000Y360000D02*
D03*
X385000Y260000D02*
D03*
X299000Y452500D02*
D03*
X790000Y450000D02*
D03*
X435000Y420000D02*
D03*
X495000Y340000D02*
D03*
X570000Y190000D02*
D03*
X490000Y350000D02*
D03*
X510000Y410000D02*
D03*
X780000Y250000D02*
D03*
X740000Y210000D02*
D03*
X500000Y310000D02*
D03*
X735000Y400000D02*
D03*
X605000Y280000D02*
D03*
X690000Y190000D02*
D03*
X545000Y420000D02*
D03*
X780000Y450000D02*
D03*
X255000Y220000D02*
D03*
X445000Y380000D02*
D03*
X255000Y320000D02*
D03*
X275000Y420000D02*
D03*
X220000Y190000D02*
D03*
X155000Y260000D02*
D03*
X340000Y370000D02*
D03*
X740000Y270000D02*
D03*
X225000Y220000D02*
D03*
X505000Y380000D02*
D03*
X255000Y420000D02*
D03*
X559000Y452500D02*
D03*
X380000Y370000D02*
D03*
X725000Y420000D02*
D03*
X315000D02*
D03*
X560000Y410000D02*
D03*
X180000D02*
D03*
X735000Y240000D02*
D03*
X640000Y330000D02*
D03*
X558346Y227464D02*
D03*
X389000Y452500D02*
D03*
X285000Y260000D02*
D03*
X810000Y210000D02*
D03*
X590000Y190000D02*
D03*
X570000Y410000D02*
D03*
X770000Y450000D02*
D03*
X660000Y390000D02*
D03*
X700000Y410000D02*
D03*
X475000Y360000D02*
D03*
X810000Y390000D02*
D03*
X305000Y260000D02*
D03*
X630000Y350000D02*
D03*
X625000Y280000D02*
D03*
X175000Y220000D02*
D03*
X385000Y240000D02*
D03*
X655000Y200000D02*
D03*
X795000Y260000D02*
D03*
X510000Y210000D02*
D03*
X265000Y240000D02*
D03*
X140000Y370000D02*
D03*
X810000Y430000D02*
D03*
X745000Y220000D02*
D03*
X255000Y360000D02*
D03*
X515000Y380000D02*
D03*
X650000Y210000D02*
D03*
X710000Y390000D02*
D03*
X685000Y340000D02*
D03*
X600000Y350000D02*
D03*
X335000Y240000D02*
D03*
X310000Y210000D02*
D03*
X490000D02*
D03*
X770000Y410000D02*
D03*
X805000Y340000D02*
D03*
X775000Y420000D02*
D03*
X715000Y240000D02*
D03*
X740000Y390000D02*
D03*
X715000Y340000D02*
D03*
X255000Y280000D02*
D03*
X560000Y270000D02*
D03*
X715000Y380000D02*
D03*
X375000Y360000D02*
D03*
X160000Y430000D02*
D03*
X135000Y240000D02*
D03*
X295000Y220000D02*
D03*
X810000Y410000D02*
D03*
X595000Y200000D02*
D03*
X130000Y370000D02*
D03*
X405000Y420000D02*
D03*
X130000Y310000D02*
D03*
X605000Y300000D02*
D03*
X810000Y450000D02*
D03*
X125000Y440000D02*
D03*
X565000Y360000D02*
D03*
X620000Y190000D02*
D03*
X485000Y360000D02*
D03*
X366346Y256464D02*
D03*
X569000Y452500D02*
D03*
X429000D02*
D03*
X375000Y400000D02*
D03*
X780000Y230000D02*
D03*
X175000Y440000D02*
D03*
X475000Y260000D02*
D03*
X205000Y220000D02*
D03*
X562846Y214464D02*
D03*
X710000Y190000D02*
D03*
X660000Y330000D02*
D03*
X430000Y230000D02*
D03*
X805000Y380000D02*
D03*
X760000Y350000D02*
D03*
X539000Y452500D02*
D03*
X460000Y270000D02*
D03*
X305000Y240000D02*
D03*
X649000Y452500D02*
D03*
X249000D02*
D03*
X250000Y330000D02*
D03*
X365000Y300000D02*
D03*
X805000Y440000D02*
D03*
X130000Y290000D02*
D03*
X775000Y300000D02*
D03*
X265000Y260000D02*
D03*
X669000Y452500D02*
D03*
X355000Y260000D02*
D03*
X750000Y370000D02*
D03*
X259000Y452500D02*
D03*
X155000Y420000D02*
D03*
X275000Y360000D02*
D03*
X475000Y380000D02*
D03*
X690000Y350000D02*
D03*
X755000Y280000D02*
D03*
X130000Y210000D02*
D03*
X730000Y370000D02*
D03*
X639000Y452500D02*
D03*
X175000Y420000D02*
D03*
X180000Y450000D02*
D03*
X260000Y390000D02*
D03*
X125000Y340000D02*
D03*
X810000Y310000D02*
D03*
X575000Y360000D02*
D03*
X300000Y210000D02*
D03*
X760000Y330000D02*
D03*
X700000Y390000D02*
D03*
X250000Y270000D02*
D03*
X595000Y320000D02*
D03*
X655000Y340000D02*
D03*
X380000Y410000D02*
D03*
X630000D02*
D03*
X425000Y260000D02*
D03*
X365000Y320000D02*
D03*
X350000Y410000D02*
D03*
X790000Y290000D02*
D03*
X170000Y190000D02*
D03*
X785000Y400000D02*
D03*
X780000Y370000D02*
D03*
X730000Y270000D02*
D03*
X760000Y310000D02*
D03*
X140000Y270000D02*
D03*
X185000Y300000D02*
D03*
X155000Y220000D02*
D03*
X775000Y280000D02*
D03*
X205000Y300000D02*
D03*
X600000Y370000D02*
D03*
X145000Y206000D02*
D03*
X505000Y360000D02*
D03*
X720000Y190000D02*
D03*
X240000Y210000D02*
D03*
X580000Y190000D02*
D03*
X665000Y220000D02*
D03*
X535000Y400000D02*
D03*
X715000Y220000D02*
D03*
X595000Y280000D02*
D03*
X555000Y300000D02*
D03*
Y260000D02*
D03*
X805000Y280000D02*
D03*
X180000Y430000D02*
D03*
X760000Y290000D02*
D03*
X705000Y400000D02*
D03*
X700000Y190000D02*
D03*
X629000Y452500D02*
D03*
X599000D02*
D03*
X170000Y450000D02*
D03*
X465000Y420000D02*
D03*
X765000D02*
D03*
X615000Y300000D02*
D03*
X720000Y310000D02*
D03*
X320000Y350000D02*
D03*
X235000Y280000D02*
D03*
X730000Y210000D02*
D03*
X635000Y300000D02*
D03*
X270000Y410000D02*
D03*
X250000D02*
D03*
Y370000D02*
D03*
X449000Y452500D02*
D03*
X380000Y330000D02*
D03*
X640000Y370000D02*
D03*
Y410000D02*
D03*
X720000Y350000D02*
D03*
X800000Y450000D02*
D03*
X165000Y220000D02*
D03*
X670000Y190000D02*
D03*
X235000Y260000D02*
D03*
X520000Y370000D02*
D03*
X210000Y210000D02*
D03*
X620000Y350000D02*
D03*
X685000Y400000D02*
D03*
X615000Y420000D02*
D03*
X125000D02*
D03*
X130000Y270000D02*
D03*
X755000Y420000D02*
D03*
X225000Y360000D02*
D03*
X320000Y210000D02*
D03*
X570000Y370000D02*
D03*
X615000Y280000D02*
D03*
X755000Y340000D02*
D03*
X319000Y452500D02*
D03*
X800000Y270000D02*
D03*
X375000Y320000D02*
D03*
X755000Y440000D02*
D03*
X130000Y190000D02*
D03*
X740000Y370000D02*
D03*
X255000Y240000D02*
D03*
X125000Y380000D02*
D03*
X330000Y370000D02*
D03*
X690000Y410000D02*
D03*
X480000Y350000D02*
D03*
X619000Y452500D02*
D03*
X765000Y300000D02*
D03*
X590000Y290000D02*
D03*
X659000Y452500D02*
D03*
X605000Y240000D02*
D03*
X699000Y452500D02*
D03*
X790000Y330000D02*
D03*
X150000Y430000D02*
D03*
X760000Y230000D02*
D03*
X395000Y280000D02*
D03*
X509000Y452500D02*
D03*
X380000Y310000D02*
D03*
X140000Y410000D02*
D03*
X145000Y360000D02*
D03*
X190000Y370000D02*
D03*
X655000Y380000D02*
D03*
X665000Y340000D02*
D03*
X565000D02*
D03*
X810000Y250000D02*
D03*
X285000Y220000D02*
D03*
X360000Y290000D02*
D03*
X775000Y320000D02*
D03*
X385000Y420000D02*
D03*
X400000Y370000D02*
D03*
X260000D02*
D03*
X625000Y360000D02*
D03*
X725000Y340000D02*
D03*
X790000Y190000D02*
D03*
X210000Y350000D02*
D03*
X125000Y360000D02*
D03*
Y280000D02*
D03*
X680000Y370000D02*
D03*
X370000Y410000D02*
D03*
X550000D02*
D03*
X620000Y290000D02*
D03*
X710000Y310000D02*
D03*
X790000Y430000D02*
D03*
X735000Y300000D02*
D03*
X440000Y410000D02*
D03*
X535000Y420000D02*
D03*
X225000Y340000D02*
D03*
X215000Y360000D02*
D03*
X200000Y190000D02*
D03*
X255000Y300000D02*
D03*
X505000Y340000D02*
D03*
X735000Y360000D02*
D03*
X285000Y420000D02*
D03*
X200000Y450000D02*
D03*
X390000Y410000D02*
D03*
X200000Y370000D02*
D03*
X555000Y280000D02*
D03*
X765000Y440000D02*
D03*
X459000Y452500D02*
D03*
X655000Y220000D02*
D03*
X239000Y452500D02*
D03*
X765000Y340000D02*
D03*
X750000Y230000D02*
D03*
X350000Y370000D02*
D03*
X450000D02*
D03*
X170000Y230000D02*
D03*
X215000Y220000D02*
D03*
X555000Y360000D02*
D03*
X540000Y390000D02*
D03*
X271000Y206000D02*
D03*
X210000Y450000D02*
D03*
X585000Y380000D02*
D03*
X780000Y210000D02*
D03*
X585000Y360000D02*
D03*
X765000Y240000D02*
D03*
X750000Y210000D02*
D03*
X545000Y280000D02*
D03*
X409000Y452500D02*
D03*
X679000D02*
D03*
X740000Y450000D02*
D03*
X715000Y260000D02*
D03*
X600000Y270000D02*
D03*
X405000Y400000D02*
D03*
X785000Y320000D02*
D03*
X780000Y270000D02*
D03*
X230000Y350000D02*
D03*
X210000Y190000D02*
D03*
X760000Y450000D02*
D03*
X385000Y360000D02*
D03*
X445000Y420000D02*
D03*
X480000Y210000D02*
D03*
X610000Y250000D02*
D03*
X570000Y290000D02*
D03*
X505000Y420000D02*
D03*
X810000Y290000D02*
D03*
X780000Y390000D02*
D03*
X675000Y360000D02*
D03*
X645000Y380000D02*
D03*
X730000Y190000D02*
D03*
X400000Y210000D02*
D03*
X165000Y440000D02*
D03*
X470000Y350000D02*
D03*
X615000Y360000D02*
D03*
X625000Y260000D02*
D03*
X290000Y250000D02*
D03*
X500000Y410000D02*
D03*
X495000Y320000D02*
D03*
X220000Y450000D02*
D03*
X269000Y452500D02*
D03*
X555000Y220000D02*
D03*
X145000Y300000D02*
D03*
X549000Y452500D02*
D03*
X520000Y390000D02*
D03*
X579000Y452500D02*
D03*
X150000Y290000D02*
D03*
X135000Y400000D02*
D03*
X730000Y350000D02*
D03*
X190000Y210000D02*
D03*
X690000Y390000D02*
D03*
X390000D02*
D03*
X245000Y320000D02*
D03*
X505000Y220000D02*
D03*
X340000Y230000D02*
D03*
X450000Y350000D02*
D03*
X190000Y190000D02*
D03*
X270000Y210000D02*
D03*
X685000Y380000D02*
D03*
X785000Y240000D02*
D03*
X635000Y380000D02*
D03*
X545000Y360000D02*
D03*
X750000Y350000D02*
D03*
X535000Y220000D02*
D03*
X750000Y450000D02*
D03*
X550000Y290000D02*
D03*
X695000Y380000D02*
D03*
X775000Y440000D02*
D03*
X250000Y350000D02*
D03*
X190000Y430000D02*
D03*
X205000Y240000D02*
D03*
X420000Y410000D02*
D03*
X590000Y310000D02*
D03*
X580000Y350000D02*
D03*
X780000Y330000D02*
D03*
X220000Y250000D02*
D03*
X305000Y220000D02*
D03*
X665000Y360000D02*
D03*
X640000Y230000D02*
D03*
X160000Y450000D02*
D03*
X410000Y230000D02*
D03*
X470000Y250000D02*
D03*
X790000Y270000D02*
D03*
X670000Y370000D02*
D03*
X420000Y250000D02*
D03*
X525000Y420000D02*
D03*
X575000D02*
D03*
X710000Y370000D02*
D03*
X615000Y240000D02*
D03*
X795000Y440000D02*
D03*
X760000Y370000D02*
D03*
X195000Y420000D02*
D03*
X340000Y210000D02*
D03*
X505000Y280000D02*
D03*
X685000Y220000D02*
D03*
X780000Y430000D02*
D03*
X385000Y200000D02*
D03*
X610000Y370000D02*
D03*
X370000Y210000D02*
D03*
X499000Y452500D02*
D03*
X765000Y360000D02*
D03*
X325000D02*
D03*
X620000Y410000D02*
D03*
X340000D02*
D03*
X550000Y270000D02*
D03*
X160000Y190000D02*
D03*
X245000Y360000D02*
D03*
X515000Y280000D02*
D03*
X705000Y220000D02*
D03*
X595000D02*
D03*
X630000Y310000D02*
D03*
X289000Y452500D02*
D03*
X435000Y300000D02*
D03*
X360000Y410000D02*
D03*
X740000Y190000D02*
D03*
X780000Y410000D02*
D03*
X125000Y200000D02*
D03*
X660000Y350000D02*
D03*
X635000Y360000D02*
D03*
X220000Y370000D02*
D03*
X240346Y256464D02*
D03*
X650000Y230000D02*
D03*
X519000Y452500D02*
D03*
X730000Y230000D02*
D03*
X480000Y410000D02*
D03*
X625000Y340000D02*
D03*
X170000Y430000D02*
D03*
X250000Y250000D02*
D03*
X325000Y420000D02*
D03*
X729000Y452500D02*
D03*
X585000Y420000D02*
D03*
X493346Y254964D02*
D03*
X750000Y270000D02*
D03*
X560000Y290000D02*
D03*
X185000Y420000D02*
D03*
X439000Y452500D02*
D03*
X540000Y290000D02*
D03*
X795000Y400000D02*
D03*
X745000Y420000D02*
D03*
X590000Y370000D02*
D03*
X130000Y330000D02*
D03*
X625000Y420000D02*
D03*
X590000Y350000D02*
D03*
X205000Y420000D02*
D03*
X215000Y340000D02*
D03*
X795000Y320000D02*
D03*
X755000Y200000D02*
D03*
X520000Y410000D02*
D03*
X385000Y380000D02*
D03*
X635000Y260000D02*
D03*
X570000Y350000D02*
D03*
X270500Y390000D02*
D03*
X495500Y205000D02*
D03*
X135000Y360000D02*
D03*
X140000Y430000D02*
D03*
X250000Y310000D02*
D03*
X645000Y200000D02*
D03*
X250000Y230000D02*
D03*
X595000Y420000D02*
D03*
X650000Y190000D02*
D03*
X760000D02*
D03*
X125000Y400000D02*
D03*
X205000Y260000D02*
D03*
X605000Y340000D02*
D03*
X650000Y330000D02*
D03*
X310000Y410000D02*
D03*
X369000Y452500D02*
D03*
X490000Y290000D02*
D03*
X730000Y390000D02*
D03*
X550000Y310000D02*
D03*
X175000Y300000D02*
D03*
X625000Y200000D02*
D03*
X795000Y360000D02*
D03*
X538000Y204000D02*
D03*
X241500Y224000D02*
D03*
X187134Y402500D02*
D03*
X183000Y407421D02*
D03*
Y397579D02*
D03*
X178866Y402500D02*
D03*
X183000D02*
D03*
X309000D02*
D03*
X304866D02*
D03*
X309000Y397579D02*
D03*
Y407421D02*
D03*
X313134Y402500D02*
D03*
X439634Y401500D02*
D03*
X435500Y406421D02*
D03*
Y396579D02*
D03*
X431366Y401500D02*
D03*
X435500D02*
D03*
X699000Y252000D02*
D03*
X669082Y236082D02*
D03*
X481500Y222500D02*
D03*
X493646Y222866D02*
D03*
X497500Y222500D02*
D03*
X503500Y198500D02*
D03*
X493500Y195968D02*
D03*
X367000Y196000D02*
D03*
X149026Y262547D02*
D03*
X151500Y243500D02*
D03*
X146500Y246500D02*
D03*
X523500Y241000D02*
D03*
X526250Y245500D02*
D03*
X523500Y244000D02*
D03*
X529000D02*
D03*
X526250Y242500D02*
D03*
X391000Y198500D02*
D03*
X264500D02*
D03*
X138000Y198000D02*
D03*
X560259Y406000D02*
D03*
X541759Y400000D02*
D03*
X527759Y383000D02*
D03*
X543759Y382500D02*
D03*
X798500Y438500D02*
D03*
Y396000D02*
D03*
X786500D02*
D03*
Y438500D02*
D03*
X724500Y396500D02*
D03*
X699000D02*
D03*
X712000Y396000D02*
D03*
X608259Y373500D02*
D03*
X597759Y408500D02*
D03*
Y378500D02*
D03*
X608259Y413500D02*
D03*
X589759Y404000D02*
D03*
X583259D02*
D03*
X571259Y407500D02*
D03*
X589759Y378500D02*
D03*
X568500Y379000D02*
D03*
X583259Y383000D02*
D03*
X570500Y374000D02*
D03*
X543759Y391000D02*
D03*
X515759Y394000D02*
D03*
X684000Y266000D02*
D03*
X702500Y276500D02*
D03*
X706000D02*
D03*
X689500Y269000D02*
D03*
X722000Y269500D02*
D03*
X699000Y276500D02*
D03*
X685500Y275634D02*
D03*
X699000Y269500D02*
D03*
X679000Y265500D02*
D03*
X622000Y204000D02*
D03*
X640000Y235000D02*
D03*
X637000Y233000D02*
D03*
X634000Y231000D02*
D03*
X621500Y237500D02*
D03*
Y228500D02*
D03*
X618000D02*
D03*
X621500Y240500D02*
D03*
X669000Y260500D02*
D03*
X697000Y255000D02*
D03*
X669000Y251500D02*
D03*
X694500Y257500D02*
D03*
X638000Y295500D02*
D03*
X651500Y285500D02*
D03*
X658500Y282000D02*
D03*
X654000Y303000D02*
D03*
X647000Y285500D02*
D03*
X638000Y308500D02*
D03*
Y302000D02*
D03*
X654000Y307000D02*
D03*
X648500Y312500D02*
D03*
X638000Y290000D02*
D03*
X760500Y198500D02*
D03*
X656500Y216000D02*
D03*
X695000Y228000D02*
D03*
X656500Y204000D02*
D03*
X718500Y232000D02*
D03*
X739285Y231854D02*
D03*
X706000Y198500D02*
D03*
X701000Y231000D02*
D03*
X708500D02*
D03*
X786500Y227000D02*
D03*
Y269000D02*
D03*
X541500Y310500D02*
D03*
X651259Y347000D02*
D03*
X541500Y305000D02*
D03*
X592000Y216000D02*
D03*
Y204000D02*
D03*
X561000Y252000D02*
D03*
X562000Y262500D02*
D03*
X566000Y269000D02*
D03*
X596000Y252000D02*
D03*
X593500Y249000D02*
D03*
Y255000D02*
D03*
X786500Y353500D02*
D03*
X798500D02*
D03*
X614000Y228500D02*
D03*
X572259Y341000D02*
D03*
X585759D02*
D03*
X588000Y304000D02*
D03*
X591000Y268500D02*
D03*
X587500Y310000D02*
D03*
X591000Y262000D02*
D03*
X538000Y216000D02*
D03*
X544500Y268500D02*
D03*
X514500Y251500D02*
D03*
X519000Y269500D02*
D03*
X544500Y262000D02*
D03*
X515500Y262500D02*
D03*
X598000Y248500D02*
D03*
X579000Y204000D02*
D03*
X135500Y232500D02*
D03*
X140000Y224000D02*
D03*
X230083Y232443D02*
D03*
X181500Y244000D02*
D03*
X170500Y207000D02*
D03*
X161500Y266500D02*
D03*
X158000Y194000D02*
D03*
X409000D02*
D03*
X497500D02*
D03*
X282500D02*
D03*
X404500Y221000D02*
D03*
X375956Y194104D02*
D03*
X256500Y344500D02*
D03*
X277000Y219500D02*
D03*
X241000Y196859D02*
D03*
X144604Y221896D02*
D03*
X151500Y222000D02*
D03*
X156000Y300500D02*
D03*
X491000Y218500D02*
D03*
X497500D02*
D03*
X275026Y262047D02*
D03*
X440000Y391000D02*
D03*
X296500Y206500D02*
D03*
X356083Y231943D02*
D03*
X307500Y243500D02*
D03*
X423000Y206000D02*
D03*
X395000Y218500D02*
D03*
X397500Y221000D02*
D03*
X434000Y243000D02*
D03*
X482583Y231443D02*
D03*
X362000Y222000D02*
D03*
X370500Y219500D02*
D03*
X350000Y298500D02*
D03*
X425000Y295500D02*
D03*
X409000Y300000D02*
D03*
X394500Y299000D02*
D03*
X403500Y300000D02*
D03*
X399500Y241000D02*
D03*
X480000Y299500D02*
D03*
X485500D02*
D03*
X495208Y298809D02*
D03*
X492500Y241500D02*
D03*
X429000Y260000D02*
D03*
X404500Y213500D02*
D03*
X387500Y223000D02*
D03*
X389500Y231500D02*
D03*
X407000D02*
D03*
X394000Y241000D02*
D03*
X417000Y271500D02*
D03*
X414500D02*
D03*
X412000D02*
D03*
X472500D02*
D03*
X469500D02*
D03*
X466500Y272000D02*
D03*
X460000Y260000D02*
D03*
X466000Y206000D02*
D03*
X454500Y243000D02*
D03*
X481500Y218500D02*
D03*
X500583Y231443D02*
D03*
X502000Y213500D02*
D03*
X476500Y297500D02*
D03*
X403000Y218500D02*
D03*
X399500D02*
D03*
X488000Y221000D02*
D03*
X480000Y271500D02*
D03*
X387000Y270500D02*
D03*
X494007Y218276D02*
D03*
X401526Y261547D02*
D03*
X408500Y271500D02*
D03*
X496500Y260000D02*
D03*
X458500Y399500D02*
D03*
X453500D02*
D03*
X415104Y392529D02*
D03*
X440500Y386000D02*
D03*
X421500Y392000D02*
D03*
X425000Y395000D02*
D03*
X411500Y397500D02*
D03*
Y395000D02*
D03*
X425000Y401500D02*
D03*
X407500D02*
D03*
X472500Y343500D02*
D03*
X458000Y376000D02*
D03*
X452000Y380968D02*
D03*
X440604Y379029D02*
D03*
X472500Y352000D02*
D03*
X489500Y338000D02*
D03*
X466000Y402500D02*
D03*
X465500Y374000D02*
D03*
X474000Y370500D02*
D03*
X483500Y368000D02*
D03*
X494000Y367000D02*
D03*
X461000Y415000D02*
D03*
X454000Y417000D02*
D03*
X447500Y415000D02*
D03*
X456500Y354000D02*
D03*
X383000Y352000D02*
D03*
Y344000D02*
D03*
Y336000D02*
D03*
X386500Y328500D02*
D03*
Y321000D02*
D03*
X387500Y314500D02*
D03*
Y308500D02*
D03*
X490500Y328500D02*
D03*
X448500Y300500D02*
D03*
X444500Y300000D02*
D03*
X440500Y300500D02*
D03*
X404500Y199000D02*
D03*
X298500Y296000D02*
D03*
X282500Y300500D02*
D03*
X268000Y299500D02*
D03*
X277000Y300500D02*
D03*
X273000Y241500D02*
D03*
X353500Y300000D02*
D03*
X359000D02*
D03*
X368708Y299309D02*
D03*
X366000Y242000D02*
D03*
X302500Y260500D02*
D03*
X277000Y222500D02*
D03*
X278000Y214500D02*
D03*
X270500Y221500D02*
D03*
X261000Y223000D02*
D03*
X263000Y232000D02*
D03*
X280500D02*
D03*
X267500Y241500D02*
D03*
X290000Y272000D02*
D03*
X287500D02*
D03*
X285000Y272500D02*
D03*
X345500Y272000D02*
D03*
X342500D02*
D03*
X340000Y272500D02*
D03*
X333500Y260500D02*
D03*
X339500Y206500D02*
D03*
X328000Y243500D02*
D03*
X355000Y219000D02*
D03*
X374082Y231943D02*
D03*
X375500Y214500D02*
D03*
X373500Y218500D02*
D03*
X268500Y219500D02*
D03*
X367500Y223500D02*
D03*
X273000Y219000D02*
D03*
X353500Y272000D02*
D03*
X260500Y271000D02*
D03*
X364500Y219500D02*
D03*
X372000Y224500D02*
D03*
X378600Y198500D02*
D03*
X282000Y272000D02*
D03*
X370000Y260500D02*
D03*
X333000Y400500D02*
D03*
X323500Y398000D02*
D03*
X288604Y393029D02*
D03*
X314000Y386500D02*
D03*
X295000Y392500D02*
D03*
X298500Y395500D02*
D03*
X285000Y398500D02*
D03*
Y395500D02*
D03*
X298500Y402000D02*
D03*
X313500Y391500D02*
D03*
X281000Y402500D02*
D03*
X346000Y344000D02*
D03*
X331500Y377000D02*
D03*
X325500Y381469D02*
D03*
X314105Y379529D02*
D03*
X346000Y352500D02*
D03*
X363000Y338500D02*
D03*
X340500Y402500D02*
D03*
X339000Y375000D02*
D03*
X347500Y371500D02*
D03*
X357000Y369000D02*
D03*
X368000Y368000D02*
D03*
X334500Y416000D02*
D03*
X327500Y418000D02*
D03*
X321000Y416000D02*
D03*
X330000Y354500D02*
D03*
X256500Y352500D02*
D03*
Y336500D02*
D03*
X260000Y329000D02*
D03*
Y321500D02*
D03*
X261000Y315000D02*
D03*
Y309000D02*
D03*
X364000Y329000D02*
D03*
X322000Y301000D02*
D03*
X318000Y300500D02*
D03*
X314000Y301000D02*
D03*
X354625Y224125D02*
D03*
X278000Y199500D02*
D03*
X152000Y200000D02*
D03*
X228625Y224625D02*
D03*
X188000Y301500D02*
D03*
X192000Y301000D02*
D03*
X196000Y301500D02*
D03*
X238000Y329500D02*
D03*
X135000Y309500D02*
D03*
Y315500D02*
D03*
X134000Y322000D02*
D03*
Y329500D02*
D03*
X130500Y337000D02*
D03*
Y345000D02*
D03*
Y353000D02*
D03*
X204000Y355000D02*
D03*
X195000Y416000D02*
D03*
X201500Y417500D02*
D03*
X208500Y416000D02*
D03*
X242000Y368500D02*
D03*
X231000Y369500D02*
D03*
X221500Y372000D02*
D03*
X213000Y375500D02*
D03*
X214500Y403000D02*
D03*
X236500Y338500D02*
D03*
X220000Y353000D02*
D03*
X188104Y380029D02*
D03*
X199500Y381968D02*
D03*
X205500Y377500D02*
D03*
X220000Y344500D02*
D03*
X155000Y403000D02*
D03*
X187500Y392000D02*
D03*
X172500Y402500D02*
D03*
X159000Y396000D02*
D03*
Y399000D02*
D03*
X172500Y396000D02*
D03*
X169000Y393000D02*
D03*
X188000Y387000D02*
D03*
X162604Y393529D02*
D03*
X201000Y400000D02*
D03*
X206000D02*
D03*
X244000Y261000D02*
D03*
X252600Y199000D02*
D03*
X241507Y219276D02*
D03*
X246000Y225000D02*
D03*
X238500Y219500D02*
D03*
X227500Y272500D02*
D03*
X235500Y222000D02*
D03*
X147000Y219500D02*
D03*
X150500D02*
D03*
X224000Y298500D02*
D03*
X142000Y219500D02*
D03*
X245000Y219000D02*
D03*
X249500Y214500D02*
D03*
X248082Y232443D02*
D03*
X229000Y219500D02*
D03*
X202000Y244000D02*
D03*
X213500Y207000D02*
D03*
X207500Y261000D02*
D03*
X214000Y273000D02*
D03*
X216500Y272500D02*
D03*
X219500D02*
D03*
X164500Y269500D02*
D03*
X162000Y272500D02*
D03*
X164500D02*
D03*
X154500Y232500D02*
D03*
X135000Y224500D02*
D03*
X152000Y214500D02*
D03*
X176500Y261000D02*
D03*
X240000Y242500D02*
D03*
X242708Y299809D02*
D03*
X233000Y300500D02*
D03*
X227500D02*
D03*
X151000Y301000D02*
D03*
X142000Y300000D02*
D03*
X172500Y296500D02*
D03*
M02*
