G04*
G04 #@! TF.GenerationSoftware,Altium Limited,Altium Designer,23.11.1 (41)*
G04*
G04 Layer_Color=65535*
%FSLAX25Y25*%
%MOIN*%
G70*
G04*
G04 #@! TF.SameCoordinates,C18E11E6-2F2A-4DEC-BC48-3546B0B1B692*
G04*
G04*
G04 #@! TF.FilePolarity,Positive*
G04*
G01*
G75*
%ADD10C,0.00600*%
%ADD11C,0.00984*%
%ADD12C,0.01000*%
%ADD13C,0.00787*%
%ADD14C,0.00799*%
%ADD15C,0.00500*%
%ADD16C,0.00800*%
G36*
X655918Y297797D02*
Y299297D01*
X654918D01*
Y297797D01*
X655918D01*
D02*
G37*
G36*
X669860Y321582D02*
Y322582D01*
X668360D01*
Y321582D01*
X669860D01*
D02*
G37*
G36*
X675766Y281418D02*
Y280418D01*
X674266D01*
Y281418D01*
X675766D01*
D02*
G37*
G36*
X696082Y295829D02*
Y297329D01*
X697082D01*
Y295829D01*
X696082D01*
D02*
G37*
D10*
X687127Y322567D02*
G03*
X687127Y322567I-300J0D01*
G01*
X716300Y249000D02*
G03*
X716300Y249000I-300J0D01*
G01*
X738300Y249500D02*
G03*
X738300Y249500I-300J0D01*
G01*
X387800Y221500D02*
G03*
X387800Y221500I-300J0D01*
G01*
X261300Y222500D02*
G03*
X261300Y222500I-300J0D01*
G01*
X135300D02*
G03*
X135300Y222500I-300J0D01*
G01*
X485800Y220500D02*
G03*
X485800Y220500I-300J0D01*
G01*
X359300Y221500D02*
G03*
X359300Y221500I-300J0D01*
G01*
X233300D02*
G03*
X233300Y221500I-300J0D01*
G01*
X491800Y356000D02*
G03*
X491800Y356000I-300J0D01*
G01*
X365300Y357000D02*
G03*
X365300Y357000I-300J0D01*
G01*
X239300D02*
G03*
X239300Y357000I-300J0D01*
G01*
X524059Y402500D02*
G03*
X524059Y402500I-300J0D01*
G01*
X568800Y374000D02*
G03*
X568800Y374000I-300J0D01*
G01*
X661350Y314237D02*
Y316150D01*
Y286850D02*
X663263D01*
X690650D02*
Y288763D01*
X688737Y316150D02*
X690650D01*
X661350D02*
X663263D01*
X661350Y286850D02*
Y288763D01*
X688737Y286850D02*
X690650D01*
Y314237D02*
Y316150D01*
X543496Y367752D02*
Y369481D01*
Y380248D02*
X566504D01*
X543496Y378519D02*
Y380248D01*
Y367752D02*
X566504D01*
Y369481D01*
Y378519D02*
Y380248D01*
X418500Y332500D02*
X422575D01*
X418500Y370500D02*
X422575D01*
X292000Y371500D02*
X296075D01*
X292000Y333500D02*
X296075D01*
X166000D02*
X170075D01*
X166000Y371500D02*
X170075D01*
X515200Y364150D02*
X528470D01*
X543530D02*
X556800D01*
Y321850D02*
Y364150D01*
X515200Y321850D02*
X528470D01*
X515200D02*
Y364150D01*
X543530Y321850D02*
X556800D01*
X652001Y242500D02*
X651501Y243000D01*
X650501D01*
X650001Y242500D01*
Y240500D01*
X650501Y240001D01*
X651501D01*
X652001Y240500D01*
Y241500D01*
X651001D01*
X653000Y240001D02*
Y243000D01*
X655000Y240001D01*
Y243000D01*
X655999D02*
Y240001D01*
X657499D01*
X657999Y240500D01*
Y242500D01*
X657499Y243000D01*
X655999D01*
X652001Y238000D02*
X651501Y238499D01*
X650501D01*
X650001Y238000D01*
Y236000D01*
X650501Y235501D01*
X651501D01*
X652001Y236000D01*
Y237000D01*
X651001D01*
X653000Y235501D02*
Y238499D01*
X655000Y235501D01*
Y238499D01*
X655999D02*
Y235501D01*
X657499D01*
X657999Y236000D01*
Y238000D01*
X657499Y238499D01*
X655999D01*
X601001Y241000D02*
X601501Y241499D01*
X602501D01*
X603001Y241000D01*
Y240500D01*
X602501Y240000D01*
X602001D01*
X602501D01*
X603001Y239500D01*
Y239000D01*
X602501Y238500D01*
X601501D01*
X601001Y239000D01*
X604000Y241499D02*
Y239500D01*
X605000Y238500D01*
X606000Y239500D01*
Y241499D01*
X606999Y241000D02*
X607499Y241499D01*
X608499D01*
X608999Y241000D01*
Y240500D01*
X608499Y240000D01*
X607999D01*
X608499D01*
X608999Y239500D01*
Y239000D01*
X608499Y238500D01*
X607499D01*
X606999Y239000D01*
X603001Y236500D02*
X602501Y237000D01*
X601501D01*
X601001Y236500D01*
Y234500D01*
X601501Y234000D01*
X602501D01*
X603001Y234500D01*
Y235500D01*
X602001D01*
X604000Y234000D02*
Y237000D01*
X606000Y234000D01*
Y237000D01*
X606999D02*
Y234000D01*
X608499D01*
X608999Y234500D01*
Y236500D01*
X608499Y237000D01*
X606999D01*
X515505Y241500D02*
X516005Y242000D01*
X517005D01*
X517505Y241500D01*
Y241000D01*
X517005Y240500D01*
X516505D01*
X517005D01*
X517505Y240000D01*
Y239500D01*
X517005Y239001D01*
X516005D01*
X515505Y239500D01*
X518504Y242000D02*
Y240000D01*
X519504Y239001D01*
X520504Y240000D01*
Y242000D01*
X521503Y241500D02*
X522003Y242000D01*
X523003D01*
X523503Y241500D01*
Y241000D01*
X523003Y240500D01*
X522503D01*
X523003D01*
X523503Y240000D01*
Y239500D01*
X523003Y239001D01*
X522003D01*
X521503Y239500D01*
X529501Y241500D02*
X529001Y242000D01*
X528001D01*
X527501Y241500D01*
Y241000D01*
X528001Y240500D01*
X529001D01*
X529501Y240000D01*
Y239500D01*
X529001Y239001D01*
X528001D01*
X527501Y239500D01*
X530500Y242000D02*
Y239001D01*
X532000D01*
X532500Y239500D01*
Y241500D01*
X532000Y242000D01*
X530500D01*
X533499Y239001D02*
Y241000D01*
X534499Y242000D01*
X535499Y241000D01*
Y239001D01*
Y240500D01*
X533499D01*
X539497Y241500D02*
X539997Y242000D01*
X540997D01*
X541497Y241500D01*
Y241000D01*
X540997Y240500D01*
X540497D01*
X540997D01*
X541497Y240000D01*
Y239500D01*
X540997Y239001D01*
X539997D01*
X539497Y239500D01*
X542496Y242000D02*
Y240000D01*
X543496Y239001D01*
X544496Y240000D01*
Y242000D01*
X545496Y241500D02*
X545995Y242000D01*
X546995D01*
X547495Y241500D01*
Y241000D01*
X546995Y240500D01*
X546495D01*
X546995D01*
X547495Y240000D01*
Y239500D01*
X546995Y239001D01*
X545995D01*
X545496Y239500D01*
X728006Y226000D02*
X727506Y226500D01*
X726506D01*
X726006Y226000D01*
Y224000D01*
X726506Y223500D01*
X727506D01*
X728006Y224000D01*
X729005Y223500D02*
Y225500D01*
X730005Y226500D01*
X731004Y225500D01*
Y223500D01*
Y225000D01*
X729005D01*
X732004Y223500D02*
Y226500D01*
X734004Y223500D01*
Y226500D01*
X735003D02*
Y223500D01*
Y225000D01*
X737003D01*
Y226500D01*
Y223500D01*
X743001Y226000D02*
X742501Y226500D01*
X741501D01*
X741001Y226000D01*
Y224000D01*
X741501Y223500D01*
X742501D01*
X743001Y224000D01*
X744000Y223500D02*
Y225500D01*
X745000Y226500D01*
X746000Y225500D01*
Y223500D01*
Y225000D01*
X744000D01*
X746999Y223500D02*
Y226500D01*
X748999Y223500D01*
Y226500D01*
X749998D02*
Y223500D01*
X751998D01*
X757996Y226000D02*
X757496Y226500D01*
X756496D01*
X755997Y226000D01*
Y224000D01*
X756496Y223500D01*
X757496D01*
X757996Y224000D01*
Y225000D01*
X756996D01*
X758995Y223500D02*
Y226500D01*
X760995Y223500D01*
Y226500D01*
X761995D02*
Y223500D01*
X763494D01*
X763994Y224000D01*
Y226000D01*
X763494Y226500D01*
X761995D01*
X765750Y289004D02*
X763750D01*
X763251Y288504D01*
Y287504D01*
X763750Y287004D01*
X765750D01*
X766250Y287504D01*
Y288504D01*
X765250Y288004D02*
X766250Y289004D01*
Y288504D02*
X765750Y289004D01*
X763251Y290003D02*
X765750D01*
X766250Y290503D01*
Y291503D01*
X765750Y292003D01*
X763251D01*
X766250Y293002D02*
X764250D01*
X763251Y294002D01*
X764250Y295002D01*
X766250D01*
X764750D01*
Y293002D01*
X763251Y296001D02*
X766250D01*
Y297501D01*
X765750Y298001D01*
X763750D01*
X763251Y297501D01*
Y296001D01*
X766749Y299000D02*
Y301000D01*
X763251Y301999D02*
X766250D01*
Y303499D01*
X765750Y303999D01*
X765250D01*
X764750Y303499D01*
Y301999D01*
Y303499D01*
X764250Y303999D01*
X763750D01*
X763251Y303499D01*
Y301999D01*
Y309997D02*
Y307997D01*
X764750D01*
X764250Y308997D01*
Y309497D01*
X764750Y309997D01*
X765750D01*
X766250Y309497D01*
Y308497D01*
X765750Y307997D01*
X763251Y310997D02*
X765250D01*
X766250Y311996D01*
X765250Y312996D01*
X763251D01*
X760862Y287559D02*
X758862D01*
X758362Y287059D01*
Y286059D01*
X758862Y285559D01*
X760862D01*
X761362Y286059D01*
Y287059D01*
X760362Y286559D02*
X761362Y287559D01*
Y287059D02*
X760862Y287559D01*
X758362Y288558D02*
X760862D01*
X761362Y289058D01*
Y290058D01*
X760862Y290558D01*
X758362D01*
X761362Y291557D02*
X759362D01*
X758362Y292557D01*
X759362Y293557D01*
X761362D01*
X759862D01*
Y291557D01*
X758362Y294556D02*
X761362D01*
Y296056D01*
X760862Y296556D01*
X758862D01*
X758362Y296056D01*
Y294556D01*
X761861Y297555D02*
Y299555D01*
X761362Y300554D02*
X759362D01*
X758362Y301554D01*
X759362Y302554D01*
X761362D01*
X759862D01*
Y300554D01*
X758862Y308552D02*
X758362Y308052D01*
Y307052D01*
X758862Y306553D01*
X760862D01*
X761362Y307052D01*
Y308052D01*
X760862Y308552D01*
X759862D01*
Y307552D01*
X761362Y309552D02*
X758362D01*
X761362Y311551D01*
X758362D01*
Y312551D02*
X761362D01*
Y314050D01*
X760862Y314550D01*
X758862D01*
X758362Y314050D01*
Y312551D01*
X758362Y331809D02*
X761362D01*
Y333808D01*
X758362Y334808D02*
Y335807D01*
Y335308D01*
X761362D01*
Y334808D01*
Y335807D01*
Y337307D02*
X758362D01*
X759362Y338307D01*
X758362Y339306D01*
X761362D01*
X761861Y340306D02*
Y342305D01*
X761362Y343305D02*
X759362D01*
X758362Y344305D01*
X759362Y345304D01*
X761362D01*
X759862D01*
Y343305D01*
X758862Y351303D02*
X758362Y350803D01*
Y349803D01*
X758862Y349303D01*
X760862D01*
X761362Y349803D01*
Y350803D01*
X760862Y351303D01*
X759862D01*
Y350303D01*
X761362Y352302D02*
X758362D01*
X761362Y354302D01*
X758362D01*
Y355301D02*
X761362D01*
Y356801D01*
X760862Y357300D01*
X758862D01*
X758362Y356801D01*
Y355301D01*
X763251Y331754D02*
X766250D01*
Y333753D01*
X763251Y334753D02*
Y335753D01*
Y335253D01*
X766250D01*
Y334753D01*
Y335753D01*
Y337252D02*
X763251D01*
X764250Y338252D01*
X763251Y339252D01*
X766250D01*
X766749Y340251D02*
Y342251D01*
X763251Y343250D02*
X766250D01*
Y344750D01*
X765750Y345250D01*
X765250D01*
X764750Y344750D01*
Y343250D01*
Y344750D01*
X764250Y345250D01*
X763750D01*
X763251Y344750D01*
Y343250D01*
X763750Y351248D02*
X763251Y350748D01*
Y349748D01*
X763750Y349249D01*
X765750D01*
X766250Y349748D01*
Y350748D01*
X765750Y351248D01*
X764750D01*
Y350248D01*
X766250Y352248D02*
X763251D01*
X766250Y354247D01*
X763251D01*
Y355246D02*
X766250D01*
Y356746D01*
X765750Y357246D01*
X763750D01*
X763251Y356746D01*
Y355246D01*
X731000Y284251D02*
X730501Y283752D01*
Y282752D01*
X731000Y282252D01*
X731500D01*
X732000Y282752D01*
Y283752D01*
X732500Y284251D01*
X733000D01*
X733499Y283752D01*
Y282752D01*
X733000Y282252D01*
X730501Y285251D02*
X733499D01*
X732500Y286251D01*
X733499Y287251D01*
X730501D01*
Y288250D02*
X733499D01*
Y289750D01*
X733000Y290250D01*
X731000D01*
X730501Y289750D01*
Y288250D01*
Y291249D02*
Y292249D01*
Y291749D01*
X733499D01*
Y291249D01*
Y292249D01*
X730501Y295248D02*
Y294248D01*
X731000Y293748D01*
X733000D01*
X733499Y294248D01*
Y295248D01*
X733000Y295748D01*
X731000D01*
X730501Y295248D01*
X721000Y284501D02*
X720501Y284001D01*
Y283001D01*
X721000Y282501D01*
X723000D01*
X723499Y283001D01*
Y284001D01*
X723000Y284501D01*
X722000D01*
Y283501D01*
X723499Y285500D02*
X720501D01*
X723499Y287500D01*
X720501D01*
Y288499D02*
X723499D01*
Y289999D01*
X723000Y290499D01*
X721000D01*
X720501Y289999D01*
Y288499D01*
X741148Y284597D02*
X740649Y284097D01*
Y283098D01*
X741148Y282598D01*
X741648D01*
X742148Y283098D01*
Y284097D01*
X742648Y284597D01*
X743148D01*
X743647Y284097D01*
Y283098D01*
X743148Y282598D01*
X740649Y285597D02*
X743647D01*
X742648Y286596D01*
X743647Y287596D01*
X740649D01*
X741148Y290595D02*
X740649Y290095D01*
Y289096D01*
X741148Y288596D01*
X743148D01*
X743647Y289096D01*
Y290095D01*
X743148Y290595D01*
X740649Y291595D02*
X743647D01*
Y293594D01*
X740649Y294594D02*
X743647D01*
X742648D01*
X740649Y296593D01*
X742148Y295094D01*
X743647Y296593D01*
X728501Y254501D02*
Y257500D01*
X730000D01*
X730500Y257000D01*
Y256000D01*
X730000Y255500D01*
X728501D01*
X729500D02*
X730500Y254501D01*
X731500Y257500D02*
X733499Y254501D01*
Y257500D02*
X731500Y254501D01*
X517505Y237500D02*
X517005Y238000D01*
X516005D01*
X515505Y237500D01*
Y235500D01*
X516005Y235000D01*
X517005D01*
X517505Y235500D01*
Y236500D01*
X516505D01*
X518504Y235000D02*
Y238000D01*
X520504Y235000D01*
Y238000D01*
X521503D02*
Y235000D01*
X523003D01*
X523503Y235500D01*
Y237500D01*
X523003Y238000D01*
X521503D01*
X529501Y237500D02*
X529001Y238000D01*
X528001D01*
X527501Y237500D01*
Y237000D01*
X528001Y236500D01*
X529001D01*
X529501Y236000D01*
Y235500D01*
X529001Y235000D01*
X528001D01*
X527501Y235500D01*
X532500Y237500D02*
X532000Y238000D01*
X531000D01*
X530500Y237500D01*
Y235500D01*
X531000Y235000D01*
X532000D01*
X532500Y235500D01*
X533499Y238000D02*
Y235000D01*
X535499D01*
X539497Y237500D02*
X539997Y238000D01*
X540997D01*
X541497Y237500D01*
Y237000D01*
X540997Y236500D01*
X540497D01*
X540997D01*
X541497Y236000D01*
Y235500D01*
X540997Y235000D01*
X539997D01*
X539497Y235500D01*
X542496Y238000D02*
Y236000D01*
X543496Y235000D01*
X544496Y236000D01*
Y238000D01*
X545496Y237500D02*
X545995Y238000D01*
X546995D01*
X547495Y237500D01*
Y237000D01*
X546995Y236500D01*
X546495D01*
X546995D01*
X547495Y236000D01*
Y235500D01*
X546995Y235000D01*
X545995D01*
X545496Y235500D01*
X707001Y257500D02*
X709000D01*
X708001D01*
Y254501D01*
X710000Y257500D02*
X711999Y254501D01*
Y257500D02*
X710000Y254501D01*
X701001Y321500D02*
X700501Y322000D01*
X699501D01*
X699001Y321500D01*
Y319500D01*
X699501Y319001D01*
X700501D01*
X701001Y319500D01*
X703500Y319001D02*
Y322000D01*
X702000Y320500D01*
X704000D01*
X704999Y321500D02*
X705499Y322000D01*
X706499D01*
X706999Y321500D01*
Y321000D01*
X706499Y320500D01*
X706999Y320000D01*
Y319500D01*
X706499Y319001D01*
X705499D01*
X704999Y319500D01*
Y320000D01*
X705499Y320500D01*
X704999Y321000D01*
Y321500D01*
X705499Y320500D02*
X706499D01*
X383501Y407500D02*
X383001Y408000D01*
X382001D01*
X381501Y407500D01*
Y405500D01*
X382001Y405000D01*
X383001D01*
X383501Y405500D01*
Y406500D01*
X382501D01*
X384500Y405000D02*
Y408000D01*
X386500Y405000D01*
Y408000D01*
X387499D02*
Y405000D01*
X388999D01*
X389499Y405500D01*
Y407500D01*
X388999Y408000D01*
X387499D01*
X258501Y416500D02*
X258001Y416999D01*
X257001D01*
X256501Y416500D01*
Y414500D01*
X257001Y414001D01*
X258001D01*
X258501Y414500D01*
Y415500D01*
X257501D01*
X259500Y414001D02*
Y416999D01*
X261500Y414001D01*
Y416999D01*
X262499D02*
Y414001D01*
X263999D01*
X264499Y414500D01*
Y416500D01*
X263999Y416999D01*
X262499D01*
X212502Y418749D02*
X210502D01*
Y415750D01*
X212502D01*
X210502Y417250D02*
X211502D01*
X213501Y415750D02*
Y418749D01*
X215501Y415750D01*
Y418749D01*
X216500Y415251D02*
X218500D01*
X219499Y415750D02*
Y418749D01*
X220499Y417750D01*
X221499Y418749D01*
Y415750D01*
X224498D02*
X222498D01*
X224498Y417750D01*
Y418250D01*
X223998Y418749D01*
X222998D01*
X222498Y418250D01*
X143002Y389250D02*
X142502Y389749D01*
X141502D01*
X141002Y389250D01*
Y388750D01*
X141502Y388250D01*
X142502D01*
X143002Y387750D01*
Y387250D01*
X142502Y386750D01*
X141502D01*
X141002Y387250D01*
X144001Y389749D02*
Y386750D01*
X145001Y387750D01*
X146001Y386750D01*
Y389749D01*
X147000Y386251D02*
X149000D01*
X149999Y386750D02*
Y389749D01*
X150999Y388750D01*
X151999Y389749D01*
Y386750D01*
X154998D02*
X152998D01*
X154998Y388750D01*
Y389250D01*
X154498Y389749D01*
X153498D01*
X152998Y389250D01*
X161502Y426749D02*
X159502D01*
Y425250D01*
X160502D01*
X159502D01*
Y423750D01*
X162501Y426749D02*
Y423750D01*
X164001D01*
X164501Y424250D01*
Y424750D01*
X164001Y425250D01*
X162501D01*
X164001D01*
X164501Y425750D01*
Y426250D01*
X164001Y426749D01*
X162501D01*
X165500Y423251D02*
X167500D01*
X168499Y423750D02*
Y426749D01*
X169499Y425750D01*
X170499Y426749D01*
Y423750D01*
X173498D02*
X171498D01*
X173498Y425750D01*
Y426250D01*
X172998Y426749D01*
X171998D01*
X171498Y426250D01*
X465002Y421249D02*
X463002D01*
Y418250D01*
X465002D01*
X463002Y419750D02*
X464002D01*
X466001Y418250D02*
Y421249D01*
X468001Y418250D01*
Y421249D01*
X469000Y417751D02*
X471000D01*
X471999Y418250D02*
Y421249D01*
X472999Y420250D01*
X473999Y421249D01*
Y418250D01*
X474998Y420750D02*
X475498Y421249D01*
X476498D01*
X476998Y420750D01*
Y418750D01*
X476498Y418250D01*
X475498D01*
X474998Y418750D01*
Y420750D01*
X415002Y425249D02*
X413002D01*
Y423750D01*
X414002D01*
X413002D01*
Y422250D01*
X416001Y425249D02*
Y422250D01*
X417501D01*
X418001Y422750D01*
Y423250D01*
X417501Y423750D01*
X416001D01*
X417501D01*
X418001Y424250D01*
Y424750D01*
X417501Y425249D01*
X416001D01*
X419000Y421751D02*
X421000D01*
X421999Y422250D02*
Y425249D01*
X422999Y424250D01*
X423999Y425249D01*
Y422250D01*
X424998Y424750D02*
X425498Y425249D01*
X426498D01*
X426998Y424750D01*
Y422750D01*
X426498Y422250D01*
X425498D01*
X424998Y422750D01*
Y424750D01*
X528002Y376750D02*
X527502Y377249D01*
X526502D01*
X526002Y376750D01*
Y376250D01*
X526502Y375750D01*
X527502D01*
X528002Y375250D01*
Y374750D01*
X527502Y374250D01*
X526502D01*
X526002Y374750D01*
X529001Y377249D02*
Y374250D01*
X530001Y375250D01*
X531001Y374250D01*
Y377249D01*
X532000Y373751D02*
X534000D01*
X534999Y377249D02*
X536999D01*
Y376750D01*
X534999Y374750D01*
Y374250D01*
X537998Y377249D02*
Y375250D01*
X538998Y374250D01*
X539998Y375250D01*
Y377249D01*
X533199Y422099D02*
X531200D01*
Y420600D01*
X532200D01*
X531200D01*
Y419100D01*
X534199Y422099D02*
Y419100D01*
X535699D01*
X536198Y419600D01*
Y420100D01*
X535699Y420600D01*
X534199D01*
X535699D01*
X536198Y421099D01*
Y421599D01*
X535699Y422099D01*
X534199D01*
X537198Y418600D02*
X539197D01*
X540197Y422099D02*
X542196D01*
Y421599D01*
X540197Y419600D01*
Y419100D01*
X543196Y422099D02*
Y420100D01*
X544196Y419100D01*
X545195Y420100D01*
Y422099D01*
X340501Y420749D02*
X338502D01*
Y417750D01*
X340501D01*
X338502Y419250D02*
X339502D01*
X341501Y417750D02*
Y420749D01*
X343500Y417750D01*
Y420749D01*
X344500Y417251D02*
X346499D01*
X347499Y417750D02*
Y420749D01*
X348499Y419750D01*
X349499Y420749D01*
Y417750D01*
X350498D02*
X351498D01*
X350998D01*
Y420749D01*
X350498Y420250D01*
X270501Y390250D02*
X270002Y390749D01*
X269002D01*
X268502Y390250D01*
Y389750D01*
X269002Y389250D01*
X270002D01*
X270501Y388750D01*
Y388250D01*
X270002Y387750D01*
X269002D01*
X268502Y388250D01*
X271501Y390749D02*
Y387750D01*
X272501Y388750D01*
X273500Y387750D01*
Y390749D01*
X274500Y387251D02*
X276500D01*
X277499Y387750D02*
Y390749D01*
X278499Y389750D01*
X279499Y390749D01*
Y387750D01*
X280498D02*
X281498D01*
X280998D01*
Y390749D01*
X280498Y390250D01*
X289502Y425249D02*
X287502D01*
Y423750D01*
X288502D01*
X287502D01*
Y422250D01*
X290501Y425249D02*
Y422250D01*
X292001D01*
X292500Y422750D01*
Y423250D01*
X292001Y423750D01*
X290501D01*
X292001D01*
X292500Y424250D01*
Y424750D01*
X292001Y425249D01*
X290501D01*
X293500Y421751D02*
X295499D01*
X296499Y422250D02*
Y425249D01*
X297499Y424250D01*
X298499Y425249D01*
Y422250D01*
X299498D02*
X300498D01*
X299998D01*
Y425249D01*
X299498Y424750D01*
X396002Y391750D02*
X395502Y392249D01*
X394502D01*
X394002Y391750D01*
Y391250D01*
X394502Y390750D01*
X395502D01*
X396002Y390250D01*
Y389750D01*
X395502Y389250D01*
X394502D01*
X394002Y389750D01*
X397001Y392249D02*
Y389250D01*
X398001Y390250D01*
X399001Y389250D01*
Y392249D01*
X400000Y388751D02*
X402000D01*
X402999Y389250D02*
Y392249D01*
X403999Y391250D01*
X404999Y392249D01*
Y389250D01*
X405998Y391750D02*
X406498Y392249D01*
X407498D01*
X407998Y391750D01*
Y389750D01*
X407498Y389250D01*
X406498D01*
X405998Y389750D01*
Y391750D01*
X563760Y408999D02*
Y406500D01*
X564259Y406001D01*
X565259D01*
X565759Y406500D01*
Y408999D01*
X568758Y406001D02*
X566759D01*
X568758Y408000D01*
Y408500D01*
X568258Y408999D01*
X567259D01*
X566759Y408500D01*
X603500Y246499D02*
X601501D01*
Y245000D01*
X602500D01*
X601501D01*
Y243500D01*
X605999D02*
Y246499D01*
X604500Y245000D01*
X606499D01*
X597000Y246499D02*
X595001D01*
Y245000D01*
X596000D01*
X595001D01*
Y243500D01*
X598000Y246000D02*
X598500Y246499D01*
X599499D01*
X599999Y246000D01*
Y245500D01*
X599499Y245000D01*
X599000D01*
X599499D01*
X599999Y244500D01*
Y244000D01*
X599499Y243500D01*
X598500D01*
X598000Y244000D01*
X610000Y246499D02*
X608001D01*
Y245000D01*
X609000D01*
X608001D01*
Y243500D01*
X612999D02*
X611000D01*
X612999Y245500D01*
Y246000D01*
X612499Y246499D01*
X611500D01*
X611000Y246000D01*
X700500Y276500D02*
X700001Y276999D01*
X699001D01*
X698501Y276500D01*
Y274500D01*
X699001Y274001D01*
X700001D01*
X700500Y274500D01*
X703500Y276999D02*
X701500D01*
Y275500D01*
X702500Y276000D01*
X703000D01*
X703500Y275500D01*
Y274500D01*
X703000Y274001D01*
X702000D01*
X701500Y274500D01*
X704499Y274001D02*
X705499D01*
X704999D01*
Y276999D01*
X704499Y276500D01*
X772001Y397751D02*
Y396751D01*
Y397251D01*
X774500D01*
X775000Y396751D01*
Y396251D01*
X774500Y395751D01*
X775000Y398750D02*
Y399750D01*
Y399250D01*
X772001D01*
X772500Y398750D01*
Y401249D02*
X772001Y401749D01*
Y402749D01*
X772500Y403249D01*
X774500D01*
X775000Y402749D01*
Y401749D01*
X774500Y401249D01*
X772500D01*
X772001Y358000D02*
Y357000D01*
Y357500D01*
X774500D01*
X775000Y357000D01*
Y356501D01*
X774500Y356001D01*
X772001Y360999D02*
X772500Y359999D01*
X773500Y359000D01*
X774500D01*
X775000Y359500D01*
Y360499D01*
X774500Y360999D01*
X774000D01*
X773500Y360499D01*
Y359000D01*
X712751Y219000D02*
X711751D01*
X712251D01*
Y216500D01*
X711751Y216001D01*
X711251D01*
X710751Y216500D01*
X713750Y216001D02*
X714750D01*
X714250D01*
Y219000D01*
X713750Y218500D01*
X718249Y219000D02*
X716249D01*
Y217500D01*
X717249Y218000D01*
X717749D01*
X718249Y217500D01*
Y216500D01*
X717749Y216001D01*
X716749D01*
X716249Y216500D01*
X761251Y219000D02*
X760251D01*
X760751D01*
Y216500D01*
X760251Y216001D01*
X759751D01*
X759251Y216500D01*
X762250Y216001D02*
X763250D01*
X762750D01*
Y219000D01*
X762250Y218500D01*
X766249Y216001D02*
Y219000D01*
X764749Y217500D01*
X766749D01*
X734500Y410000D02*
Y412000D01*
X734000Y412500D01*
X733001D01*
X732501Y412000D01*
Y410000D01*
X733001Y409501D01*
X734000D01*
X733500Y410500D02*
X734500Y409501D01*
X734000D02*
X734500Y410000D01*
X735500Y409501D02*
X736499D01*
X735999D01*
Y412500D01*
X735500Y412000D01*
X234502Y337750D02*
Y339750D01*
X234002Y340249D01*
X233002D01*
X232502Y339750D01*
Y337750D01*
X233002Y337250D01*
X234002D01*
X233502Y338250D02*
X234502Y337250D01*
X234002D02*
X234502Y337750D01*
X237501Y337250D02*
X235501D01*
X237501Y339250D01*
Y339750D01*
X237001Y340249D01*
X236001D01*
X235501Y339750D01*
X238500Y336751D02*
X240500D01*
X241499Y337250D02*
Y340249D01*
X242499Y339250D01*
X243499Y340249D01*
Y337250D01*
X246498D02*
X244498D01*
X246498Y339250D01*
Y339750D01*
X245998Y340249D01*
X244998D01*
X244498Y339750D01*
X537259Y404000D02*
Y406000D01*
X536759Y406499D01*
X535759D01*
X535260Y406000D01*
Y404000D01*
X535759Y403501D01*
X536759D01*
X536259Y404500D02*
X537259Y403501D01*
X536759D02*
X537259Y404000D01*
X538259D02*
X538759Y403501D01*
X539758D01*
X540258Y404000D01*
Y406000D01*
X539758Y406499D01*
X538759D01*
X538259Y406000D01*
Y405500D01*
X538759Y405000D01*
X540258D01*
X489002Y336750D02*
Y338750D01*
X488502Y339249D01*
X487502D01*
X487002Y338750D01*
Y336750D01*
X487502Y336250D01*
X488502D01*
X488002Y337250D02*
X489002Y336250D01*
X488502D02*
X489002Y336750D01*
X492001Y336250D02*
X490001D01*
X492001Y338250D01*
Y338750D01*
X491501Y339249D01*
X490501D01*
X490001Y338750D01*
X493000Y335751D02*
X495000D01*
X495999Y336250D02*
Y339249D01*
X496999Y338250D01*
X497999Y339249D01*
Y336250D01*
X498998Y338750D02*
X499498Y339249D01*
X500498D01*
X500998Y338750D01*
Y336750D01*
X500498Y336250D01*
X499498D01*
X498998Y336750D01*
Y338750D01*
X361001Y337250D02*
Y339250D01*
X360502Y339749D01*
X359502D01*
X359002Y339250D01*
Y337250D01*
X359502Y336750D01*
X360502D01*
X360002Y337750D02*
X361001Y336750D01*
X360502D02*
X361001Y337250D01*
X364001Y336750D02*
X362001D01*
X364001Y338750D01*
Y339250D01*
X363501Y339749D01*
X362501D01*
X362001Y339250D01*
X365000Y336251D02*
X367000D01*
X367999Y336750D02*
Y339749D01*
X368999Y338750D01*
X369999Y339749D01*
Y336750D01*
X370998D02*
X371998D01*
X371498D01*
Y339749D01*
X370998Y339250D01*
X180502Y415750D02*
Y418749D01*
X182002D01*
X182502Y418250D01*
Y417250D01*
X182002Y416750D01*
X180502D01*
X181502D02*
X182502Y415750D01*
X183501Y416250D02*
X184001Y415750D01*
X185001D01*
X185501Y416250D01*
Y418250D01*
X185001Y418749D01*
X184001D01*
X183501Y418250D01*
Y417750D01*
X184001Y417250D01*
X185501D01*
X186500Y415251D02*
X188500D01*
X189499Y415750D02*
Y418749D01*
X190499Y417750D01*
X191499Y418749D01*
Y415750D01*
X194498D02*
X192498D01*
X194498Y417750D01*
Y418250D01*
X193998Y418749D01*
X192998D01*
X192498Y418250D01*
X309502Y416750D02*
Y419749D01*
X311002D01*
X311502Y419250D01*
Y418250D01*
X311002Y417750D01*
X309502D01*
X310502D02*
X311502Y416750D01*
X312501Y417250D02*
X313001Y416750D01*
X314001D01*
X314500Y417250D01*
Y419250D01*
X314001Y419749D01*
X313001D01*
X312501Y419250D01*
Y418750D01*
X313001Y418250D01*
X314500D01*
X315500Y416251D02*
X317499D01*
X318499Y416750D02*
Y419749D01*
X319499Y418750D01*
X320498Y419749D01*
Y416750D01*
X321498D02*
X322498D01*
X321998D01*
Y419749D01*
X321498Y419250D01*
X431502Y415250D02*
Y418249D01*
X433002D01*
X433502Y417750D01*
Y416750D01*
X433002Y416250D01*
X431502D01*
X432502D02*
X433502Y415250D01*
X434501Y415750D02*
X435001Y415250D01*
X436001D01*
X436501Y415750D01*
Y417750D01*
X436001Y418249D01*
X435001D01*
X434501Y417750D01*
Y417250D01*
X435001Y416750D01*
X436501D01*
X437500Y414751D02*
X439500D01*
X440499Y415250D02*
Y418249D01*
X441499Y417250D01*
X442499Y418249D01*
Y415250D01*
X443498Y417750D02*
X443998Y418249D01*
X444998D01*
X445498Y417750D01*
Y415750D01*
X444998Y415250D01*
X443998D01*
X443498Y415750D01*
Y417750D01*
X144002Y413250D02*
Y416249D01*
X145502D01*
X146002Y415750D01*
Y414750D01*
X145502Y414250D01*
X144002D01*
X145002D02*
X146002Y413250D01*
X147001Y415750D02*
X147501Y416249D01*
X148501D01*
X149001Y415750D01*
Y415250D01*
X148501Y414750D01*
X149001Y414250D01*
Y413750D01*
X148501Y413250D01*
X147501D01*
X147001Y413750D01*
Y414250D01*
X147501Y414750D01*
X147001Y415250D01*
Y415750D01*
X147501Y414750D02*
X148501D01*
X150000Y412751D02*
X152000D01*
X152999Y413250D02*
Y416249D01*
X153999Y415250D01*
X154999Y416249D01*
Y413250D01*
X157998D02*
X155998D01*
X157998Y415250D01*
Y415750D01*
X157498Y416249D01*
X156498D01*
X155998Y415750D01*
X271002Y421250D02*
Y424249D01*
X272502D01*
X273002Y423750D01*
Y422750D01*
X272502Y422250D01*
X271002D01*
X272002D02*
X273002Y421250D01*
X274001Y423750D02*
X274501Y424249D01*
X275501D01*
X276000Y423750D01*
Y423250D01*
X275501Y422750D01*
X276000Y422250D01*
Y421750D01*
X275501Y421250D01*
X274501D01*
X274001Y421750D01*
Y422250D01*
X274501Y422750D01*
X274001Y423250D01*
Y423750D01*
X274501Y422750D02*
X275501D01*
X277000Y420751D02*
X278999D01*
X279999Y421250D02*
Y424249D01*
X280999Y423250D01*
X281998Y424249D01*
Y421250D01*
X282998D02*
X283998D01*
X283498D01*
Y424249D01*
X282998Y423750D01*
X394002Y420250D02*
Y423249D01*
X395502D01*
X396002Y422750D01*
Y421750D01*
X395502Y421250D01*
X394002D01*
X395002D02*
X396002Y420250D01*
X397001Y422750D02*
X397501Y423249D01*
X398501D01*
X399001Y422750D01*
Y422250D01*
X398501Y421750D01*
X399001Y421250D01*
Y420750D01*
X398501Y420250D01*
X397501D01*
X397001Y420750D01*
Y421250D01*
X397501Y421750D01*
X397001Y422250D01*
Y422750D01*
X397501Y421750D02*
X398501D01*
X400000Y419751D02*
X402000D01*
X402999Y420250D02*
Y423249D01*
X403999Y422250D01*
X404999Y423249D01*
Y420250D01*
X405998Y422750D02*
X406498Y423249D01*
X407498D01*
X407998Y422750D01*
Y420750D01*
X407498Y420250D01*
X406498D01*
X405998Y420750D01*
Y422750D01*
X146252Y375749D02*
Y372750D01*
X148251D01*
X149251D02*
X150251D01*
X149751D01*
Y375749D01*
X149251Y375250D01*
X151750Y372251D02*
X153750D01*
X154749Y372750D02*
Y375749D01*
X155749Y374750D01*
X156749Y375749D01*
Y372750D01*
X159748D02*
X157748D01*
X159748Y374750D01*
Y375250D01*
X159248Y375749D01*
X158248D01*
X157748Y375250D01*
X270752Y375749D02*
Y372750D01*
X272751D01*
X273751D02*
X274751D01*
X274251D01*
Y375749D01*
X273751Y375250D01*
X276250Y372251D02*
X278250D01*
X279249Y372750D02*
Y375749D01*
X280249Y374750D01*
X281249Y375749D01*
Y372750D01*
X282248D02*
X283248D01*
X282748D01*
Y375749D01*
X282248Y375250D01*
X396752Y374749D02*
Y371750D01*
X398751D01*
X399751D02*
X400751D01*
X400251D01*
Y374749D01*
X399751Y374250D01*
X402250Y371251D02*
X404250D01*
X405249Y371750D02*
Y374749D01*
X406249Y373750D01*
X407249Y374749D01*
Y371750D01*
X408249Y374250D02*
X408748Y374749D01*
X409748D01*
X410248Y374250D01*
Y372250D01*
X409748Y371750D01*
X408748D01*
X408249Y372250D01*
Y374250D01*
X142002Y396750D02*
X141502Y397249D01*
X140503D01*
X140003Y396750D01*
Y394750D01*
X140503Y394250D01*
X141502D01*
X142002Y394750D01*
X145001Y394250D02*
X143002D01*
X145001Y396250D01*
Y396750D01*
X144501Y397249D01*
X143502D01*
X143002Y396750D01*
X146001Y394750D02*
X146501Y394250D01*
X147500D01*
X148000Y394750D01*
Y396750D01*
X147500Y397249D01*
X146501D01*
X146001Y396750D01*
Y396250D01*
X146501Y395750D01*
X148000D01*
X149000Y393751D02*
X150999D01*
X151999Y394250D02*
Y397249D01*
X152999Y396250D01*
X153998Y397249D01*
Y394250D01*
X156997D02*
X154998D01*
X156997Y396250D01*
Y396750D01*
X156497Y397249D01*
X155498D01*
X154998Y396750D01*
X269502Y399250D02*
X269002Y399749D01*
X268002D01*
X267503Y399250D01*
Y397250D01*
X268002Y396750D01*
X269002D01*
X269502Y397250D01*
X272501Y396750D02*
X270502D01*
X272501Y398750D01*
Y399250D01*
X272001Y399749D01*
X271002D01*
X270502Y399250D01*
X273501Y397250D02*
X274001Y396750D01*
X275000D01*
X275500Y397250D01*
Y399250D01*
X275000Y399749D01*
X274001D01*
X273501Y399250D01*
Y398750D01*
X274001Y398250D01*
X275500D01*
X276500Y396251D02*
X278499D01*
X279499Y396750D02*
Y399749D01*
X280498Y398750D01*
X281498Y399749D01*
Y396750D01*
X282498D02*
X283497D01*
X282998D01*
Y399749D01*
X282498Y399250D01*
X393502Y402250D02*
X393002Y402749D01*
X392003D01*
X391503Y402250D01*
Y400250D01*
X392003Y399750D01*
X393002D01*
X393502Y400250D01*
X396501Y399750D02*
X394502D01*
X396501Y401750D01*
Y402250D01*
X396001Y402749D01*
X395002D01*
X394502Y402250D01*
X397501Y400250D02*
X398001Y399750D01*
X399000D01*
X399500Y400250D01*
Y402250D01*
X399000Y402749D01*
X398001D01*
X397501Y402250D01*
Y401750D01*
X398001Y401250D01*
X399500D01*
X400500Y399251D02*
X402499D01*
X403499Y399750D02*
Y402749D01*
X404498Y401750D01*
X405498Y402749D01*
Y399750D01*
X406498Y402250D02*
X406998Y402749D01*
X407997D01*
X408497Y402250D01*
Y400250D01*
X407997Y399750D01*
X406998D01*
X406498Y400250D01*
Y402250D01*
X178252Y414249D02*
Y411750D01*
X178752Y411250D01*
X179752D01*
X180252Y411750D01*
Y414249D01*
X181251Y411250D02*
X182251D01*
X181751D01*
Y414249D01*
X181251Y413750D01*
X183750Y410751D02*
X185750D01*
X186749Y411250D02*
Y414249D01*
X187749Y413250D01*
X188749Y414249D01*
Y411250D01*
X191748D02*
X189749D01*
X191748Y413250D01*
Y413750D01*
X191248Y414249D01*
X190248D01*
X189749Y413750D01*
X305252Y414749D02*
Y412250D01*
X305752Y411750D01*
X306751D01*
X307251Y412250D01*
Y414749D01*
X308251Y411750D02*
X309251D01*
X308751D01*
Y414749D01*
X308251Y414250D01*
X310750Y411251D02*
X312750D01*
X313749Y411750D02*
Y414749D01*
X314749Y413750D01*
X315749Y414749D01*
Y411750D01*
X316748D02*
X317748D01*
X317248D01*
Y414749D01*
X316748Y414250D01*
X429252Y413749D02*
Y411250D01*
X429752Y410750D01*
X430752D01*
X431251Y411250D01*
Y413749D01*
X432251Y410750D02*
X433251D01*
X432751D01*
Y413749D01*
X432251Y413250D01*
X434750Y410251D02*
X436750D01*
X437749Y410750D02*
Y413749D01*
X438749Y412750D01*
X439749Y413749D01*
Y410750D01*
X440749Y413250D02*
X441248Y413749D01*
X442248D01*
X442748Y413250D01*
Y411250D01*
X442248Y410750D01*
X441248D01*
X440749Y411250D01*
Y413250D01*
X533001Y381000D02*
Y383999D01*
X534501D01*
X535001Y383500D01*
Y382500D01*
X534501Y382000D01*
X533001D01*
X534001D02*
X535001Y381000D01*
X536000Y383500D02*
X536500Y383999D01*
X537500D01*
X538000Y383500D01*
Y383000D01*
X537500Y382500D01*
X537000D01*
X537500D01*
X538000Y382000D01*
Y381500D01*
X537500Y381000D01*
X536500D01*
X536000Y381500D01*
X540999Y383999D02*
X538999D01*
Y382500D01*
X539999Y383000D01*
X540499D01*
X540999Y382500D01*
Y381500D01*
X540499Y381000D01*
X539499D01*
X538999Y381500D01*
X522260Y381000D02*
Y383999D01*
X523760D01*
X524260Y383500D01*
Y382500D01*
X523760Y382000D01*
X522260D01*
X523260D02*
X524260Y381000D01*
X525259Y383500D02*
X525759Y383999D01*
X526759D01*
X527258Y383500D01*
Y383000D01*
X526759Y382500D01*
X526259D01*
X526759D01*
X527258Y382000D01*
Y381500D01*
X526759Y381000D01*
X525759D01*
X525259Y381500D01*
X529758Y381000D02*
Y383999D01*
X528258Y382500D01*
X530258D01*
X517258Y386901D02*
X514259D01*
Y388400D01*
X514759Y388900D01*
X515759D01*
X516259Y388400D01*
Y386901D01*
Y387900D02*
X517258Y388900D01*
Y389900D02*
Y390899D01*
Y390400D01*
X514259D01*
X514759Y389900D01*
Y392399D02*
X514259Y392899D01*
Y393899D01*
X514759Y394398D01*
X515259D01*
X515759Y393899D01*
Y393399D01*
Y393899D01*
X516259Y394398D01*
X516758D01*
X517258Y393899D01*
Y392899D01*
X516758Y392399D01*
X573010Y410500D02*
Y413499D01*
X574509D01*
X575009Y413000D01*
Y412000D01*
X574509Y411500D01*
X573010D01*
X574010D02*
X575009Y410500D01*
X576009D02*
X577009D01*
X576509D01*
Y413499D01*
X576009Y413000D01*
X580508Y410500D02*
X578508D01*
X580508Y412500D01*
Y413000D01*
X580008Y413499D01*
X579008D01*
X578508Y413000D01*
X510758Y387901D02*
X507759D01*
Y389400D01*
X508259Y389900D01*
X509259D01*
X509759Y389400D01*
Y387901D01*
Y388900D02*
X510758Y389900D01*
Y390900D02*
Y391899D01*
Y391400D01*
X507759D01*
X508259Y390900D01*
X510758Y393399D02*
Y394399D01*
Y393899D01*
X507759D01*
X508259Y393399D01*
X141753Y417750D02*
Y420749D01*
X143252D01*
X143752Y420250D01*
Y419250D01*
X143252Y418750D01*
X141753D01*
X142752D02*
X143752Y417750D01*
X144752D02*
X145751D01*
X145252D01*
Y420749D01*
X144752Y420250D01*
X147251D02*
X147751Y420749D01*
X148750D01*
X149250Y420250D01*
Y418250D01*
X148750Y417750D01*
X147751D01*
X147251Y418250D01*
Y420250D01*
X150250Y417251D02*
X152249D01*
X153249Y417750D02*
Y420749D01*
X154249Y419750D01*
X155248Y420749D01*
Y417750D01*
X158247D02*
X156248D01*
X158247Y419750D01*
Y420250D01*
X157747Y420749D01*
X156748D01*
X156248Y420250D01*
X266252Y416750D02*
Y419749D01*
X267752D01*
X268252Y419250D01*
Y418250D01*
X267752Y417750D01*
X266252D01*
X267252D02*
X268252Y416750D01*
X269251D02*
X270251D01*
X269751D01*
Y419749D01*
X269251Y419250D01*
X271751D02*
X272251Y419749D01*
X273250D01*
X273750Y419250D01*
Y417250D01*
X273250Y416750D01*
X272251D01*
X271751Y417250D01*
Y419250D01*
X274750Y416251D02*
X276749D01*
X277749Y416750D02*
Y419749D01*
X278748Y418750D01*
X279748Y419749D01*
Y416750D01*
X280748D02*
X281748D01*
X281248D01*
Y419749D01*
X280748Y419250D01*
X396253Y415750D02*
Y418749D01*
X397752D01*
X398252Y418250D01*
Y417250D01*
X397752Y416750D01*
X396253D01*
X397252D02*
X398252Y415750D01*
X399252D02*
X400251D01*
X399751D01*
Y418749D01*
X399252Y418250D01*
X401751D02*
X402251Y418749D01*
X403250D01*
X403750Y418250D01*
Y416250D01*
X403250Y415750D01*
X402251D01*
X401751Y416250D01*
Y418250D01*
X404750Y415251D02*
X406749D01*
X407749Y415750D02*
Y418749D01*
X408749Y417750D01*
X409748Y418749D01*
Y415750D01*
X410748Y418250D02*
X411248Y418749D01*
X412248D01*
X412747Y418250D01*
Y416250D01*
X412248Y415750D01*
X411248D01*
X410748Y416250D01*
Y418250D01*
X144002Y422250D02*
Y425249D01*
X145502D01*
X146002Y424750D01*
Y423750D01*
X145502Y423250D01*
X144002D01*
X145002D02*
X146002Y422250D01*
X147001Y425249D02*
X149001D01*
Y424750D01*
X147001Y422750D01*
Y422250D01*
X150000Y421751D02*
X152000D01*
X152999Y422250D02*
Y425249D01*
X153999Y424250D01*
X154999Y425249D01*
Y422250D01*
X157998D02*
X155998D01*
X157998Y424250D01*
Y424750D01*
X157498Y425249D01*
X156498D01*
X155998Y424750D01*
X275002Y412250D02*
Y415249D01*
X276502D01*
X277002Y414750D01*
Y413750D01*
X276502Y413250D01*
X275002D01*
X276002D02*
X277002Y412250D01*
X278001Y415249D02*
X280000D01*
Y414750D01*
X278001Y412750D01*
Y412250D01*
X281000Y411751D02*
X282999D01*
X283999Y412250D02*
Y415249D01*
X284999Y414250D01*
X285999Y415249D01*
Y412250D01*
X286998D02*
X287998D01*
X287498D01*
Y415249D01*
X286998Y414750D01*
X392502Y411250D02*
Y414249D01*
X394002D01*
X394502Y413750D01*
Y412750D01*
X394002Y412250D01*
X392502D01*
X393502D02*
X394502Y411250D01*
X395501Y414249D02*
X397501D01*
Y413750D01*
X395501Y411750D01*
Y411250D01*
X398500Y410751D02*
X400500D01*
X401499Y411250D02*
Y414249D01*
X402499Y413250D01*
X403499Y414249D01*
Y411250D01*
X404498Y413750D02*
X404998Y414249D01*
X405998D01*
X406498Y413750D01*
Y411750D01*
X405998Y411250D01*
X404998D01*
X404498Y411750D01*
Y413750D01*
X195502Y417750D02*
Y420749D01*
X197002D01*
X197502Y420250D01*
Y419250D01*
X197002Y418750D01*
X195502D01*
X196502D02*
X197502Y417750D01*
X200501Y420749D02*
X199501Y420250D01*
X198501Y419250D01*
Y418250D01*
X199001Y417750D01*
X200001D01*
X200501Y418250D01*
Y418750D01*
X200001Y419250D01*
X198501D01*
X201500Y417251D02*
X203500D01*
X204499Y417750D02*
Y420749D01*
X205499Y419750D01*
X206499Y420749D01*
Y417750D01*
X209498D02*
X207498D01*
X209498Y419750D01*
Y420250D01*
X208998Y420749D01*
X207998D01*
X207498Y420250D01*
X324002Y421250D02*
Y424249D01*
X325502D01*
X326002Y423750D01*
Y422750D01*
X325502Y422250D01*
X324002D01*
X325002D02*
X326002Y421250D01*
X329000Y424249D02*
X328001Y423750D01*
X327001Y422750D01*
Y421750D01*
X327501Y421250D01*
X328501D01*
X329000Y421750D01*
Y422250D01*
X328501Y422750D01*
X327001D01*
X330000Y420751D02*
X331999D01*
X332999Y421250D02*
Y424249D01*
X333999Y423250D01*
X334998Y424249D01*
Y421250D01*
X335998D02*
X336998D01*
X336498D01*
Y424249D01*
X335998Y423750D01*
X447502Y416750D02*
Y419749D01*
X449002D01*
X449502Y419250D01*
Y418250D01*
X449002Y417750D01*
X447502D01*
X448502D02*
X449502Y416750D01*
X452501Y419749D02*
X451501Y419250D01*
X450501Y418250D01*
Y417250D01*
X451001Y416750D01*
X452001D01*
X452501Y417250D01*
Y417750D01*
X452001Y418250D01*
X450501D01*
X453500Y416251D02*
X455500D01*
X456499Y416750D02*
Y419749D01*
X457499Y418750D01*
X458499Y419749D01*
Y416750D01*
X459498Y419250D02*
X459998Y419749D01*
X460998D01*
X461498Y419250D01*
Y417250D01*
X460998Y416750D01*
X459998D01*
X459498Y417250D01*
Y419250D01*
X217002Y337250D02*
Y340249D01*
X218502D01*
X219002Y339750D01*
Y338750D01*
X218502Y338250D01*
X217002D01*
X218002D02*
X219002Y337250D01*
X222001Y340249D02*
X220001D01*
Y338750D01*
X221001Y339250D01*
X221501D01*
X222001Y338750D01*
Y337750D01*
X221501Y337250D01*
X220501D01*
X220001Y337750D01*
X223000Y336751D02*
X225000D01*
X225999Y337250D02*
Y340249D01*
X226999Y339250D01*
X227999Y340249D01*
Y337250D01*
X230998D02*
X228998D01*
X230998Y339250D01*
Y339750D01*
X230498Y340249D01*
X229498D01*
X228998Y339750D01*
X344002Y336750D02*
Y339749D01*
X345502D01*
X346002Y339250D01*
Y338250D01*
X345502Y337750D01*
X344002D01*
X345002D02*
X346002Y336750D01*
X349001Y339749D02*
X347001D01*
Y338250D01*
X348001Y338750D01*
X348501D01*
X349001Y338250D01*
Y337250D01*
X348501Y336750D01*
X347501D01*
X347001Y337250D01*
X350000Y336251D02*
X351999D01*
X352999Y336750D02*
Y339749D01*
X353999Y338750D01*
X354998Y339749D01*
Y336750D01*
X355998D02*
X356998D01*
X356498D01*
Y339749D01*
X355998Y339250D01*
X471502Y336250D02*
Y339249D01*
X473002D01*
X473502Y338750D01*
Y337750D01*
X473002Y337250D01*
X471502D01*
X472502D02*
X473502Y336250D01*
X476501Y339249D02*
X474501D01*
Y337750D01*
X475501Y338250D01*
X476001D01*
X476501Y337750D01*
Y336750D01*
X476001Y336250D01*
X475001D01*
X474501Y336750D01*
X477500Y335751D02*
X479500D01*
X480499Y336250D02*
Y339249D01*
X481499Y338250D01*
X482499Y339249D01*
Y336250D01*
X483498Y338750D02*
X483998Y339249D01*
X484998D01*
X485498Y338750D01*
Y336750D01*
X484998Y336250D01*
X483998D01*
X483498Y336750D01*
Y338750D01*
X181502Y425750D02*
Y428749D01*
X183002D01*
X183502Y428250D01*
Y427250D01*
X183002Y426750D01*
X181502D01*
X182502D02*
X183502Y425750D01*
X186001D02*
Y428749D01*
X184501Y427250D01*
X186501D01*
X187500Y425251D02*
X189500D01*
X190499Y425750D02*
Y428749D01*
X191499Y427750D01*
X192499Y428749D01*
Y425750D01*
X195498D02*
X193498D01*
X195498Y427750D01*
Y428250D01*
X194998Y428749D01*
X193998D01*
X193498Y428250D01*
X324002Y416750D02*
Y419749D01*
X325502D01*
X326002Y419250D01*
Y418250D01*
X325502Y417750D01*
X324002D01*
X325002D02*
X326002Y416750D01*
X328501D02*
Y419749D01*
X327001Y418250D01*
X329000D01*
X330000Y416251D02*
X331999D01*
X332999Y416750D02*
Y419749D01*
X333999Y418750D01*
X334998Y419749D01*
Y416750D01*
X335998D02*
X336998D01*
X336498D01*
Y419749D01*
X335998Y419250D01*
X463002Y422750D02*
Y425749D01*
X464502D01*
X465002Y425250D01*
Y424250D01*
X464502Y423750D01*
X463002D01*
X464002D02*
X465002Y422750D01*
X467501D02*
Y425749D01*
X466001Y424250D01*
X468001D01*
X469000Y422251D02*
X471000D01*
X471999Y422750D02*
Y425749D01*
X472999Y424750D01*
X473999Y425749D01*
Y422750D01*
X474998Y425250D02*
X475498Y425749D01*
X476498D01*
X476998Y425250D01*
Y423250D01*
X476498Y422750D01*
X475498D01*
X474998Y423250D01*
Y425250D01*
X220750Y344502D02*
X217751D01*
Y346002D01*
X218250Y346502D01*
X219250D01*
X219750Y346002D01*
Y344502D01*
Y345502D02*
X220750Y346502D01*
X218250Y347501D02*
X217751Y348001D01*
Y349001D01*
X218250Y349501D01*
X218750D01*
X219250Y349001D01*
Y348501D01*
Y349001D01*
X219750Y349501D01*
X220250D01*
X220750Y349001D01*
Y348001D01*
X220250Y347501D01*
X221249Y350500D02*
Y352500D01*
X220750Y353499D02*
X217751D01*
X218750Y354499D01*
X217751Y355499D01*
X220750D01*
Y358498D02*
Y356498D01*
X218750Y358498D01*
X218250D01*
X217751Y357998D01*
Y356998D01*
X218250Y356498D01*
X346750Y344002D02*
X343751D01*
Y345502D01*
X344250Y346002D01*
X345250D01*
X345750Y345502D01*
Y344002D01*
Y345002D02*
X346750Y346002D01*
X344250Y347001D02*
X343751Y347501D01*
Y348501D01*
X344250Y349001D01*
X344750D01*
X345250Y348501D01*
Y348001D01*
Y348501D01*
X345750Y349001D01*
X346250D01*
X346750Y348501D01*
Y347501D01*
X346250Y347001D01*
X347249Y350000D02*
Y351999D01*
X346750Y352999D02*
X343751D01*
X344750Y353999D01*
X343751Y354998D01*
X346750D01*
Y355998D02*
Y356998D01*
Y356498D01*
X343751D01*
X344250Y355998D01*
X473250Y343002D02*
X470251D01*
Y344502D01*
X470750Y345002D01*
X471750D01*
X472250Y344502D01*
Y343002D01*
Y344002D02*
X473250Y345002D01*
X470750Y346001D02*
X470251Y346501D01*
Y347501D01*
X470750Y348001D01*
X471250D01*
X471750Y347501D01*
Y347001D01*
Y347501D01*
X472250Y348001D01*
X472750D01*
X473250Y347501D01*
Y346501D01*
X472750Y346001D01*
X473749Y349000D02*
Y351000D01*
X473250Y351999D02*
X470251D01*
X471250Y352999D01*
X470251Y353999D01*
X473250D01*
X470750Y354998D02*
X470251Y355498D01*
Y356498D01*
X470750Y356998D01*
X472750D01*
X473250Y356498D01*
Y355498D01*
X472750Y354998D01*
X470750D01*
X540751Y307500D02*
X541750D01*
X541251D01*
Y304501D01*
X540751D01*
X541750D01*
X545249D02*
X543250D01*
X545249Y306500D01*
Y307000D01*
X544749Y307500D01*
X543750D01*
X543250Y307000D01*
X587400Y307500D02*
X588400D01*
X587900D01*
Y304501D01*
X587400D01*
X588400D01*
X589899D02*
X590899D01*
X590399D01*
Y307500D01*
X589899Y307000D01*
X222751Y424752D02*
Y422752D01*
X224250D01*
Y423752D01*
Y422752D01*
X225750D01*
Y425751D02*
Y426751D01*
Y426251D01*
X222751D01*
X223250Y425751D01*
X226249Y428250D02*
Y430250D01*
X225750Y431249D02*
X222751D01*
X223750Y432249D01*
X222751Y433249D01*
X225750D01*
Y436248D02*
Y434248D01*
X223750Y436248D01*
X223250D01*
X222751Y435748D01*
Y434748D01*
X223250Y434248D01*
X341751Y428249D02*
X339752D01*
Y426750D01*
X340752D01*
X339752D01*
Y425250D01*
X342751D02*
X343751D01*
X343251D01*
Y428249D01*
X342751Y427750D01*
X345250Y424751D02*
X347250D01*
X348249Y425250D02*
Y428249D01*
X349249Y427250D01*
X350249Y428249D01*
Y425250D01*
X351248D02*
X352248D01*
X351748D01*
Y428249D01*
X351248Y427750D01*
X465251Y429749D02*
X463252D01*
Y428250D01*
X464252D01*
X463252D01*
Y426750D01*
X466251D02*
X467251D01*
X466751D01*
Y429749D01*
X466251Y429250D01*
X468750Y426251D02*
X470750D01*
X471749Y426750D02*
Y429749D01*
X472749Y428750D01*
X473749Y429749D01*
Y426750D01*
X474749Y429250D02*
X475248Y429749D01*
X476248D01*
X476748Y429250D01*
Y427250D01*
X476248Y426750D01*
X475248D01*
X474749Y427250D01*
Y429250D01*
X521760Y406999D02*
Y404001D01*
X523259D01*
X523759Y404500D01*
Y406500D01*
X523259Y406999D01*
X521760D01*
X526758Y404001D02*
X524759D01*
X526758Y406000D01*
Y406500D01*
X526259Y406999D01*
X525259D01*
X524759Y406500D01*
X527758Y404001D02*
X528758D01*
X528258D01*
Y406999D01*
X527758Y406500D01*
X561001Y366499D02*
Y363500D01*
X562501D01*
X563001Y364000D01*
Y366000D01*
X562501Y366499D01*
X561001D01*
X566000Y363500D02*
X564000D01*
X566000Y365500D01*
Y366000D01*
X565500Y366499D01*
X564500D01*
X564000Y366000D01*
X566999D02*
X567499Y366499D01*
X568499D01*
X568999Y366000D01*
Y364000D01*
X568499Y363500D01*
X567499D01*
X566999Y364000D01*
Y366000D01*
X186251Y375502D02*
X189250D01*
Y377002D01*
X188750Y377502D01*
X186750D01*
X186251Y377002D01*
Y375502D01*
X186750Y378501D02*
X186251Y379001D01*
Y380001D01*
X186750Y380501D01*
X187250D01*
X187750Y380001D01*
Y379501D01*
Y380001D01*
X188250Y380501D01*
X188750D01*
X189250Y380001D01*
Y379001D01*
X188750Y378501D01*
X189749Y381500D02*
Y383500D01*
X189250Y384499D02*
X186251D01*
X187250Y385499D01*
X186251Y386499D01*
X189250D01*
Y389498D02*
Y387498D01*
X187250Y389498D01*
X186750D01*
X186251Y388998D01*
Y387998D01*
X186750Y387498D01*
X313251Y376002D02*
X316250D01*
Y377502D01*
X315750Y378001D01*
X313750D01*
X313251Y377502D01*
Y376002D01*
X313750Y379001D02*
X313251Y379501D01*
Y380501D01*
X313750Y381000D01*
X314250D01*
X314750Y380501D01*
Y380001D01*
Y380501D01*
X315250Y381000D01*
X315750D01*
X316250Y380501D01*
Y379501D01*
X315750Y379001D01*
X316749Y382000D02*
Y383999D01*
X316250Y384999D02*
X313251D01*
X314250Y385999D01*
X313251Y386999D01*
X316250D01*
Y387998D02*
Y388998D01*
Y388498D01*
X313251D01*
X313750Y387998D01*
X439251Y372502D02*
X442250D01*
Y374002D01*
X441750Y374502D01*
X439750D01*
X439251Y374002D01*
Y372502D01*
X439750Y375501D02*
X439251Y376001D01*
Y377001D01*
X439750Y377501D01*
X440250D01*
X440750Y377001D01*
Y376501D01*
Y377001D01*
X441250Y377501D01*
X441750D01*
X442250Y377001D01*
Y376001D01*
X441750Y375501D01*
X442749Y378500D02*
Y380500D01*
X442250Y381499D02*
X439251D01*
X440250Y382499D01*
X439251Y383499D01*
X442250D01*
X439750Y384498D02*
X439251Y384998D01*
Y385998D01*
X439750Y386498D01*
X441750D01*
X442250Y385998D01*
Y384998D01*
X441750Y384498D01*
X439750D01*
X239751Y345502D02*
X242750D01*
Y347002D01*
X242250Y347502D01*
X240250D01*
X239751Y347002D01*
Y345502D01*
X242750Y350501D02*
Y348501D01*
X240750Y350501D01*
X240250D01*
X239751Y350001D01*
Y349001D01*
X240250Y348501D01*
X243249Y351500D02*
Y353500D01*
X242750Y354499D02*
X239751D01*
X240750Y355499D01*
X239751Y356499D01*
X242750D01*
Y359498D02*
Y357498D01*
X240750Y359498D01*
X240250D01*
X239751Y358998D01*
Y357998D01*
X240250Y357498D01*
X366251Y346002D02*
X369250D01*
Y347502D01*
X368750Y348002D01*
X366750D01*
X366251Y347502D01*
Y346002D01*
X369250Y351000D02*
Y349001D01*
X367250Y351000D01*
X366750D01*
X366251Y350501D01*
Y349501D01*
X366750Y349001D01*
X369749Y352000D02*
Y353999D01*
X369250Y354999D02*
X366251D01*
X367250Y355999D01*
X366251Y356998D01*
X369250D01*
Y357998D02*
Y358998D01*
Y358498D01*
X366251D01*
X366750Y357998D01*
X493251Y343502D02*
X496250D01*
Y345002D01*
X495750Y345502D01*
X493750D01*
X493251Y345002D01*
Y343502D01*
X496250Y348501D02*
Y346501D01*
X494250Y348501D01*
X493750D01*
X493251Y348001D01*
Y347001D01*
X493750Y346501D01*
X496749Y349500D02*
Y351500D01*
X496250Y352499D02*
X493251D01*
X494250Y353499D01*
X493251Y354499D01*
X496250D01*
X493750Y355498D02*
X493251Y355998D01*
Y356998D01*
X493750Y357498D01*
X495750D01*
X496250Y356998D01*
Y355998D01*
X495750Y355498D01*
X493750D01*
X509001Y253000D02*
X508501Y253500D01*
X507501D01*
X507001Y253000D01*
Y251000D01*
X507501Y250500D01*
X508501D01*
X509001Y251000D01*
X511500Y250500D02*
Y253500D01*
X510000Y252000D01*
X512000D01*
X514999Y253500D02*
X513999Y253000D01*
X512999Y252000D01*
Y251000D01*
X513499Y250500D01*
X514499D01*
X514999Y251000D01*
Y251500D01*
X514499Y252000D01*
X512999D01*
X518500Y308501D02*
X518001Y308001D01*
Y307001D01*
X518500Y306501D01*
X520500D01*
X520999Y307001D01*
Y308001D01*
X520500Y308501D01*
X520999Y311000D02*
X518001D01*
X519500Y309500D01*
Y311500D01*
X518001Y314499D02*
Y312499D01*
X519500D01*
X519000Y313499D01*
Y313999D01*
X519500Y314499D01*
X520500D01*
X520999Y313999D01*
Y312999D01*
X520500Y312499D01*
X556001Y258000D02*
X555501Y258500D01*
X554501D01*
X554001Y258000D01*
Y256000D01*
X554501Y255501D01*
X555501D01*
X556001Y256000D01*
X558500Y255501D02*
Y258500D01*
X557000Y257000D01*
X559000D01*
X561499Y255501D02*
Y258500D01*
X559999Y257000D01*
X561999D01*
X546501Y263000D02*
X546001Y263499D01*
X545001D01*
X544501Y263000D01*
Y261000D01*
X545001Y260501D01*
X546001D01*
X546501Y261000D01*
X549000Y260501D02*
Y263499D01*
X547500Y262000D01*
X549500D01*
X552499Y260501D02*
X550499D01*
X552499Y262500D01*
Y263000D01*
X551999Y263499D01*
X550999D01*
X550499Y263000D01*
X511000Y263500D02*
X510501Y264000D01*
X509501D01*
X509001Y263500D01*
Y261500D01*
X509501Y261000D01*
X510501D01*
X511000Y261500D01*
X513500Y261000D02*
Y264000D01*
X512000Y262500D01*
X514000D01*
X514999Y261000D02*
X515999D01*
X515499D01*
Y264000D01*
X514999Y263500D01*
X513501Y270500D02*
X513001Y271000D01*
X512001D01*
X511501Y270500D01*
Y268500D01*
X512001Y268001D01*
X513001D01*
X513501Y268500D01*
X516000Y268001D02*
Y271000D01*
X514500Y269500D01*
X516500D01*
X517499Y270500D02*
X517999Y271000D01*
X518999D01*
X519499Y270500D01*
Y268500D01*
X518999Y268001D01*
X517999D01*
X517499Y268500D01*
Y270500D01*
X546501Y269500D02*
X546001Y270000D01*
X545001D01*
X544501Y269500D01*
Y267500D01*
X545001Y267001D01*
X546001D01*
X546501Y267500D01*
X547500Y269500D02*
X548000Y270000D01*
X549000D01*
X549500Y269500D01*
Y269000D01*
X549000Y268500D01*
X548500D01*
X549000D01*
X549500Y268000D01*
Y267500D01*
X549000Y267001D01*
X548000D01*
X547500Y267500D01*
X550499D02*
X550999Y267001D01*
X551999D01*
X552499Y267500D01*
Y269500D01*
X551999Y270000D01*
X550999D01*
X550499Y269500D01*
Y269000D01*
X550999Y268500D01*
X552499D01*
X583759Y343500D02*
X583260Y344000D01*
X582260D01*
X581760Y343500D01*
Y341500D01*
X582260Y341001D01*
X583260D01*
X583759Y341500D01*
X584759Y343500D02*
X585259Y344000D01*
X586259D01*
X586759Y343500D01*
Y343000D01*
X586259Y342500D01*
X585759D01*
X586259D01*
X586759Y342000D01*
Y341500D01*
X586259Y341001D01*
X585259D01*
X584759Y341500D01*
X587758Y343500D02*
X588258Y344000D01*
X589258D01*
X589757Y343500D01*
Y343000D01*
X589258Y342500D01*
X589757Y342000D01*
Y341500D01*
X589258Y341001D01*
X588258D01*
X587758Y341500D01*
Y342000D01*
X588258Y342500D01*
X587758Y343000D01*
Y343500D01*
X588258Y342500D02*
X589258D01*
X570759Y343500D02*
X570260Y344000D01*
X569260D01*
X568760Y343500D01*
Y341500D01*
X569260Y341001D01*
X570260D01*
X570759Y341500D01*
X571759Y343500D02*
X572259Y344000D01*
X573259D01*
X573759Y343500D01*
Y343000D01*
X573259Y342500D01*
X572759D01*
X573259D01*
X573759Y342000D01*
Y341500D01*
X573259Y341001D01*
X572259D01*
X571759Y341500D01*
X574758Y344000D02*
X576757D01*
Y343500D01*
X574758Y341500D01*
Y341001D01*
X502259Y390650D02*
X501759Y390150D01*
Y389151D01*
X502259Y388651D01*
X504258D01*
X504758Y389151D01*
Y390150D01*
X504258Y390650D01*
X502259Y391650D02*
X501759Y392150D01*
Y393149D01*
X502259Y393649D01*
X502759D01*
X503259Y393149D01*
Y392650D01*
Y393149D01*
X503759Y393649D01*
X504258D01*
X504758Y393149D01*
Y392150D01*
X504258Y391650D01*
X501759Y396648D02*
X502259Y395649D01*
X503259Y394649D01*
X504258D01*
X504758Y395149D01*
Y396148D01*
X504258Y396648D01*
X503759D01*
X503259Y396148D01*
Y394649D01*
X593150Y269500D02*
X592650Y270000D01*
X591651D01*
X591151Y269500D01*
Y267500D01*
X591651Y267001D01*
X592650D01*
X593150Y267500D01*
X594150Y269500D02*
X594650Y270000D01*
X595649D01*
X596149Y269500D01*
Y269000D01*
X595649Y268500D01*
X595150D01*
X595649D01*
X596149Y268000D01*
Y267500D01*
X595649Y267001D01*
X594650D01*
X594150Y267500D01*
X599148Y270000D02*
X597149D01*
Y268500D01*
X598149Y269000D01*
X598649D01*
X599148Y268500D01*
Y267500D01*
X598649Y267001D01*
X597649D01*
X597149Y267500D01*
X606259Y373000D02*
X605760Y373499D01*
X604760D01*
X604260Y373000D01*
Y371000D01*
X604760Y370500D01*
X605760D01*
X606259Y371000D01*
X607259Y373000D02*
X607759Y373499D01*
X608759D01*
X609259Y373000D01*
Y372500D01*
X608759Y372000D01*
X608259D01*
X608759D01*
X609259Y371500D01*
Y371000D01*
X608759Y370500D01*
X607759D01*
X607259Y371000D01*
X610258Y373000D02*
X610758Y373499D01*
X611758D01*
X612257Y373000D01*
Y372500D01*
X611758Y372000D01*
X611258D01*
X611758D01*
X612257Y371500D01*
Y371000D01*
X611758Y370500D01*
X610758D01*
X610258Y371000D01*
X560501Y269500D02*
X560001Y270000D01*
X559001D01*
X558501Y269500D01*
Y267500D01*
X559001Y267001D01*
X560001D01*
X560501Y267500D01*
X561500Y269500D02*
X562000Y270000D01*
X563000D01*
X563500Y269500D01*
Y269000D01*
X563000Y268500D01*
X562500D01*
X563000D01*
X563500Y268000D01*
Y267500D01*
X563000Y267001D01*
X562000D01*
X561500Y267500D01*
X566499Y267001D02*
X564499D01*
X566499Y269000D01*
Y269500D01*
X565999Y270000D01*
X564999D01*
X564499Y269500D01*
X593150Y263000D02*
X592650Y263499D01*
X591651D01*
X591151Y263000D01*
Y261000D01*
X591651Y260501D01*
X592650D01*
X593150Y261000D01*
X594150Y263000D02*
X594650Y263499D01*
X595649D01*
X596149Y263000D01*
Y262500D01*
X595649Y262000D01*
X595149D01*
X595649D01*
X596149Y261500D01*
Y261000D01*
X595649Y260501D01*
X594650D01*
X594150Y261000D01*
X597149Y260501D02*
X598148D01*
X597649D01*
Y263499D01*
X597149Y263000D01*
X573760Y374500D02*
X573260Y374999D01*
X572260D01*
X571760Y374500D01*
Y372500D01*
X572260Y372001D01*
X573260D01*
X573760Y372500D01*
X574759Y374500D02*
X575259Y374999D01*
X576259D01*
X576758Y374500D01*
Y374000D01*
X576259Y373500D01*
X575759D01*
X576259D01*
X576758Y373000D01*
Y372500D01*
X576259Y372001D01*
X575259D01*
X574759Y372500D01*
X577758Y374500D02*
X578258Y374999D01*
X579258D01*
X579757Y374500D01*
Y372500D01*
X579258Y372001D01*
X578258D01*
X577758Y372500D01*
Y374500D01*
X141502Y400750D02*
X141002Y401249D01*
X140003D01*
X139503Y400750D01*
Y398750D01*
X140003Y398250D01*
X141002D01*
X141502Y398750D01*
X144501Y398250D02*
X142502D01*
X144501Y400250D01*
Y400750D01*
X144001Y401249D01*
X143002D01*
X142502Y400750D01*
X145501D02*
X146001Y401249D01*
X147000D01*
X147500Y400750D01*
Y400250D01*
X147000Y399750D01*
X147500Y399250D01*
Y398750D01*
X147000Y398250D01*
X146001D01*
X145501Y398750D01*
Y399250D01*
X146001Y399750D01*
X145501Y400250D01*
Y400750D01*
X146001Y399750D02*
X147000D01*
X148500Y397751D02*
X150499D01*
X151499Y398250D02*
Y401249D01*
X152499Y400250D01*
X153498Y401249D01*
Y398250D01*
X156497D02*
X154498D01*
X156497Y400250D01*
Y400750D01*
X155997Y401249D01*
X154998D01*
X154498Y400750D01*
X269502Y394750D02*
X269002Y395249D01*
X268002D01*
X267503Y394750D01*
Y392750D01*
X268002Y392250D01*
X269002D01*
X269502Y392750D01*
X272501Y392250D02*
X270502D01*
X272501Y394250D01*
Y394750D01*
X272001Y395249D01*
X271002D01*
X270502Y394750D01*
X273501D02*
X274001Y395249D01*
X275000D01*
X275500Y394750D01*
Y394250D01*
X275000Y393750D01*
X275500Y393250D01*
Y392750D01*
X275000Y392250D01*
X274001D01*
X273501Y392750D01*
Y393250D01*
X274001Y393750D01*
X273501Y394250D01*
Y394750D01*
X274001Y393750D02*
X275000D01*
X276500Y391751D02*
X278499D01*
X279499Y392250D02*
Y395249D01*
X280498Y394250D01*
X281498Y395249D01*
Y392250D01*
X282498D02*
X283497D01*
X282998D01*
Y395249D01*
X282498Y394750D01*
X398002Y397250D02*
X397502Y397749D01*
X396503D01*
X396003Y397250D01*
Y395250D01*
X396503Y394750D01*
X397502D01*
X398002Y395250D01*
X401001Y394750D02*
X399002D01*
X401001Y396750D01*
Y397250D01*
X400501Y397749D01*
X399502D01*
X399002Y397250D01*
X402001D02*
X402501Y397749D01*
X403500D01*
X404000Y397250D01*
Y396750D01*
X403500Y396250D01*
X404000Y395750D01*
Y395250D01*
X403500Y394750D01*
X402501D01*
X402001Y395250D01*
Y395750D01*
X402501Y396250D01*
X402001Y396750D01*
Y397250D01*
X402501Y396250D02*
X403500D01*
X405000Y394251D02*
X406999D01*
X407999Y394750D02*
Y397749D01*
X408998Y396750D01*
X409998Y397749D01*
Y394750D01*
X410998Y397250D02*
X411498Y397749D01*
X412497D01*
X412997Y397250D01*
Y395250D01*
X412497Y394750D01*
X411498D01*
X410998Y395250D01*
Y397250D01*
X179502Y423750D02*
X179002Y424249D01*
X178003D01*
X177503Y423750D01*
Y421750D01*
X178003Y421250D01*
X179002D01*
X179502Y421750D01*
X182501Y421250D02*
X180502D01*
X182501Y423250D01*
Y423750D01*
X182001Y424249D01*
X181002D01*
X180502Y423750D01*
X183501Y424249D02*
X185500D01*
Y423750D01*
X183501Y421750D01*
Y421250D01*
X186500Y420751D02*
X188499D01*
X189499Y421250D02*
Y424249D01*
X190499Y423250D01*
X191498Y424249D01*
Y421250D01*
X194497D02*
X192498D01*
X194497Y423250D01*
Y423750D01*
X193997Y424249D01*
X192998D01*
X192498Y423750D01*
X308502D02*
X308002Y424249D01*
X307002D01*
X306503Y423750D01*
Y421750D01*
X307002Y421250D01*
X308002D01*
X308502Y421750D01*
X311501Y421250D02*
X309502D01*
X311501Y423250D01*
Y423750D01*
X311001Y424249D01*
X310001D01*
X309502Y423750D01*
X312501Y424249D02*
X314500D01*
Y423750D01*
X312501Y421750D01*
Y421250D01*
X315500Y420751D02*
X317499D01*
X318499Y421250D02*
Y424249D01*
X319498Y423250D01*
X320498Y424249D01*
Y421250D01*
X321498D02*
X322497D01*
X321998D01*
Y424249D01*
X321498Y423750D01*
X447002Y424250D02*
X446502Y424749D01*
X445503D01*
X445003Y424250D01*
Y422250D01*
X445503Y421750D01*
X446502D01*
X447002Y422250D01*
X450001Y421750D02*
X448002D01*
X450001Y423750D01*
Y424250D01*
X449501Y424749D01*
X448502D01*
X448002Y424250D01*
X451001Y424749D02*
X453000D01*
Y424250D01*
X451001Y422250D01*
Y421750D01*
X454000Y421251D02*
X455999D01*
X456999Y421750D02*
Y424749D01*
X457999Y423750D01*
X458998Y424749D01*
Y421750D01*
X459998Y424250D02*
X460498Y424749D01*
X461497D01*
X461997Y424250D01*
Y422250D01*
X461497Y421750D01*
X460498D01*
X459998Y422250D01*
Y424250D01*
X193502Y357750D02*
X193002Y358249D01*
X192003D01*
X191503Y357750D01*
Y355750D01*
X192003Y355250D01*
X193002D01*
X193502Y355750D01*
X196501Y355250D02*
X194502D01*
X196501Y357250D01*
Y357750D01*
X196001Y358249D01*
X195002D01*
X194502Y357750D01*
X199500Y358249D02*
X198501Y357750D01*
X197501Y356750D01*
Y355750D01*
X198001Y355250D01*
X199000D01*
X199500Y355750D01*
Y356250D01*
X199000Y356750D01*
X197501D01*
X200500Y354751D02*
X202499D01*
X203499Y355250D02*
Y358249D01*
X204499Y357250D01*
X205498Y358249D01*
Y355250D01*
X208497D02*
X206498D01*
X208497Y357250D01*
Y357750D01*
X207997Y358249D01*
X206998D01*
X206498Y357750D01*
X320002Y358250D02*
X319502Y358749D01*
X318502D01*
X318003Y358250D01*
Y356250D01*
X318502Y355750D01*
X319502D01*
X320002Y356250D01*
X323001Y355750D02*
X321002D01*
X323001Y357750D01*
Y358250D01*
X322501Y358749D01*
X321501D01*
X321002Y358250D01*
X326000Y358749D02*
X325000Y358250D01*
X324001Y357250D01*
Y356250D01*
X324500Y355750D01*
X325500D01*
X326000Y356250D01*
Y356750D01*
X325500Y357250D01*
X324001D01*
X327000Y355251D02*
X328999D01*
X329999Y355750D02*
Y358749D01*
X330998Y357750D01*
X331998Y358749D01*
Y355750D01*
X332998D02*
X333997D01*
X333498D01*
Y358749D01*
X332998Y358250D01*
X448502Y356250D02*
X448002Y356749D01*
X447003D01*
X446503Y356250D01*
Y354250D01*
X447003Y353750D01*
X448002D01*
X448502Y354250D01*
X451501Y353750D02*
X449502D01*
X451501Y355750D01*
Y356250D01*
X451001Y356749D01*
X450002D01*
X449502Y356250D01*
X454500Y356749D02*
X453501Y356250D01*
X452501Y355250D01*
Y354250D01*
X453001Y353750D01*
X454000D01*
X454500Y354250D01*
Y354750D01*
X454000Y355250D01*
X452501D01*
X455500Y353251D02*
X457499D01*
X458499Y353750D02*
Y356749D01*
X459499Y355750D01*
X460498Y356749D01*
Y353750D01*
X461498Y356250D02*
X461998Y356749D01*
X462997D01*
X463497Y356250D01*
Y354250D01*
X462997Y353750D01*
X461998D01*
X461498Y354250D01*
Y356250D01*
X232502Y363750D02*
X232002Y364249D01*
X231003D01*
X230503Y363750D01*
Y361750D01*
X231003Y361250D01*
X232002D01*
X232502Y361750D01*
X235501Y361250D02*
X233502D01*
X235501Y363250D01*
Y363750D01*
X235001Y364249D01*
X234002D01*
X233502Y363750D01*
X238500Y364249D02*
X236501D01*
Y362750D01*
X237501Y363250D01*
X238000D01*
X238500Y362750D01*
Y361750D01*
X238000Y361250D01*
X237001D01*
X236501Y361750D01*
X239500Y360751D02*
X241499D01*
X242499Y361250D02*
Y364249D01*
X243498Y363250D01*
X244498Y364249D01*
Y361250D01*
X247497D02*
X245498D01*
X247497Y363250D01*
Y363750D01*
X246997Y364249D01*
X245998D01*
X245498Y363750D01*
X359002Y364250D02*
X358502Y364749D01*
X357502D01*
X357003Y364250D01*
Y362250D01*
X357502Y361750D01*
X358502D01*
X359002Y362250D01*
X362001Y361750D02*
X360002D01*
X362001Y363750D01*
Y364250D01*
X361501Y364749D01*
X360502D01*
X360002Y364250D01*
X365000Y364749D02*
X363001D01*
Y363250D01*
X364000Y363750D01*
X364500D01*
X365000Y363250D01*
Y362250D01*
X364500Y361750D01*
X363500D01*
X363001Y362250D01*
X366000Y361251D02*
X367999D01*
X368999Y361750D02*
Y364749D01*
X369998Y363750D01*
X370998Y364749D01*
Y361750D01*
X371998D02*
X372997D01*
X372498D01*
Y364749D01*
X371998Y364250D01*
X485002Y362750D02*
X484502Y363249D01*
X483503D01*
X483003Y362750D01*
Y360750D01*
X483503Y360250D01*
X484502D01*
X485002Y360750D01*
X488001Y360250D02*
X486002D01*
X488001Y362250D01*
Y362750D01*
X487501Y363249D01*
X486502D01*
X486002Y362750D01*
X491000Y363249D02*
X489001D01*
Y361750D01*
X490000Y362250D01*
X490500D01*
X491000Y361750D01*
Y360750D01*
X490500Y360250D01*
X489501D01*
X489001Y360750D01*
X492000Y359751D02*
X493999D01*
X494999Y360250D02*
Y363249D01*
X495998Y362250D01*
X496998Y363249D01*
Y360250D01*
X497998Y362750D02*
X498498Y363249D01*
X499497D01*
X499997Y362750D01*
Y360750D01*
X499497Y360250D01*
X498498D01*
X497998Y360750D01*
Y362750D01*
X232502Y368250D02*
X232002Y368749D01*
X231003D01*
X230503Y368250D01*
Y366250D01*
X231003Y365750D01*
X232002D01*
X232502Y366250D01*
X235501Y365750D02*
X233502D01*
X235501Y367750D01*
Y368250D01*
X235001Y368749D01*
X234002D01*
X233502Y368250D01*
X238000Y365750D02*
Y368749D01*
X236501Y367250D01*
X238500D01*
X239500Y365251D02*
X241499D01*
X242499Y365750D02*
Y368749D01*
X243498Y367750D01*
X244498Y368749D01*
Y365750D01*
X247497D02*
X245498D01*
X247497Y367750D01*
Y368250D01*
X246997Y368749D01*
X245998D01*
X245498Y368250D01*
X359002Y368750D02*
X358502Y369249D01*
X357502D01*
X357003Y368750D01*
Y366750D01*
X357502Y366250D01*
X358502D01*
X359002Y366750D01*
X362001Y366250D02*
X360002D01*
X362001Y368250D01*
Y368750D01*
X361501Y369249D01*
X360502D01*
X360002Y368750D01*
X364500Y366250D02*
Y369249D01*
X363001Y367750D01*
X365000D01*
X366000Y365751D02*
X367999D01*
X368999Y366250D02*
Y369249D01*
X369998Y368250D01*
X370998Y369249D01*
Y366250D01*
X371998D02*
X372997D01*
X372498D01*
Y369249D01*
X371998Y368750D01*
X485002Y367750D02*
X484502Y368249D01*
X483503D01*
X483003Y367750D01*
Y365750D01*
X483503Y365250D01*
X484502D01*
X485002Y365750D01*
X488001Y365250D02*
X486002D01*
X488001Y367250D01*
Y367750D01*
X487501Y368249D01*
X486502D01*
X486002Y367750D01*
X490500Y365250D02*
Y368249D01*
X489001Y366750D01*
X491000D01*
X492000Y364751D02*
X493999D01*
X494999Y365250D02*
Y368249D01*
X495998Y367250D01*
X496998Y368249D01*
Y365250D01*
X497998Y367750D02*
X498498Y368249D01*
X499497D01*
X499997Y367750D01*
Y365750D01*
X499497Y365250D01*
X498498D01*
X497998Y365750D01*
Y367750D01*
X191250Y374502D02*
X190751Y374002D01*
Y373003D01*
X191250Y372503D01*
X193250D01*
X193750Y373003D01*
Y374002D01*
X193250Y374502D01*
X193750Y377501D02*
Y375502D01*
X191750Y377501D01*
X191250D01*
X190751Y377001D01*
Y376002D01*
X191250Y375502D01*
Y378501D02*
X190751Y379001D01*
Y380000D01*
X191250Y380500D01*
X191750D01*
X192250Y380000D01*
Y379501D01*
Y380000D01*
X192750Y380500D01*
X193250D01*
X193750Y380000D01*
Y379001D01*
X193250Y378501D01*
X194249Y381500D02*
Y383499D01*
X193750Y384499D02*
X190751D01*
X191750Y385499D01*
X190751Y386498D01*
X193750D01*
Y389497D02*
Y387498D01*
X191750Y389497D01*
X191250D01*
X190751Y388997D01*
Y387998D01*
X191250Y387498D01*
X318250Y375502D02*
X317751Y375002D01*
Y374002D01*
X318250Y373503D01*
X320250D01*
X320750Y374002D01*
Y375002D01*
X320250Y375502D01*
X320750Y378501D02*
Y376502D01*
X318750Y378501D01*
X318250D01*
X317751Y378001D01*
Y377002D01*
X318250Y376502D01*
Y379501D02*
X317751Y380000D01*
Y381000D01*
X318250Y381500D01*
X318750D01*
X319250Y381000D01*
Y380500D01*
Y381000D01*
X319750Y381500D01*
X320250D01*
X320750Y381000D01*
Y380000D01*
X320250Y379501D01*
X321249Y382500D02*
Y384499D01*
X320750Y385499D02*
X317751D01*
X318750Y386498D01*
X317751Y387498D01*
X320750D01*
Y388498D02*
Y389497D01*
Y388998D01*
X317751D01*
X318250Y388498D01*
X444750Y372502D02*
X444251Y372002D01*
Y371003D01*
X444750Y370503D01*
X446750D01*
X447250Y371003D01*
Y372002D01*
X446750Y372502D01*
X447250Y375501D02*
Y373502D01*
X445250Y375501D01*
X444750D01*
X444251Y375001D01*
Y374002D01*
X444750Y373502D01*
Y376501D02*
X444251Y377001D01*
Y378000D01*
X444750Y378500D01*
X445250D01*
X445750Y378000D01*
Y377501D01*
Y378000D01*
X446250Y378500D01*
X446750D01*
X447250Y378000D01*
Y377001D01*
X446750Y376501D01*
X447749Y379500D02*
Y381499D01*
X447250Y382499D02*
X444251D01*
X445250Y383499D01*
X444251Y384498D01*
X447250D01*
X444750Y385498D02*
X444251Y385998D01*
Y386997D01*
X444750Y387497D01*
X446750D01*
X447250Y386997D01*
Y385998D01*
X446750Y385498D01*
X444750D01*
X194750Y287502D02*
X194251Y287002D01*
Y286003D01*
X194750Y285503D01*
X196750D01*
X197250Y286003D01*
Y287002D01*
X196750Y287502D01*
X197250Y290501D02*
Y288502D01*
X195250Y290501D01*
X194750D01*
X194251Y290001D01*
Y289002D01*
X194750Y288502D01*
X197250Y293500D02*
Y291501D01*
X195250Y293500D01*
X194750D01*
X194251Y293000D01*
Y292001D01*
X194750Y291501D01*
X197749Y294500D02*
Y296499D01*
X197250Y297499D02*
X194251D01*
X195250Y298499D01*
X194251Y299498D01*
X197250D01*
Y302497D02*
Y300498D01*
X195250Y302497D01*
X194750D01*
X194251Y301997D01*
Y300998D01*
X194750Y300498D01*
X321250Y289002D02*
X320751Y288502D01*
Y287502D01*
X321250Y287003D01*
X323250D01*
X323750Y287502D01*
Y288502D01*
X323250Y289002D01*
X323750Y292001D02*
Y290002D01*
X321750Y292001D01*
X321250D01*
X320751Y291501D01*
Y290501D01*
X321250Y290002D01*
X323750Y295000D02*
Y293001D01*
X321750Y295000D01*
X321250D01*
X320751Y294500D01*
Y293500D01*
X321250Y293001D01*
X324249Y296000D02*
Y297999D01*
X323750Y298999D02*
X320751D01*
X321750Y299998D01*
X320751Y300998D01*
X323750D01*
Y301998D02*
Y302997D01*
Y302498D01*
X320751D01*
X321250Y301998D01*
X447250Y286502D02*
X446751Y286002D01*
Y285003D01*
X447250Y284503D01*
X449250D01*
X449750Y285003D01*
Y286002D01*
X449250Y286502D01*
X449750Y289501D02*
Y287502D01*
X447750Y289501D01*
X447250D01*
X446751Y289001D01*
Y288002D01*
X447250Y287502D01*
X449750Y292500D02*
Y290501D01*
X447750Y292500D01*
X447250D01*
X446751Y292000D01*
Y291001D01*
X447250Y290501D01*
X450249Y293500D02*
Y295499D01*
X449750Y296499D02*
X446751D01*
X447750Y297498D01*
X446751Y298498D01*
X449750D01*
X447250Y299498D02*
X446751Y299998D01*
Y300997D01*
X447250Y301497D01*
X449250D01*
X449750Y300997D01*
Y299998D01*
X449250Y299498D01*
X447250D01*
X190750Y287252D02*
X190251Y286752D01*
Y285753D01*
X190750Y285253D01*
X192750D01*
X193250Y285753D01*
Y286752D01*
X192750Y287252D01*
X193250Y290251D02*
Y288252D01*
X191250Y290251D01*
X190750D01*
X190251Y289751D01*
Y288752D01*
X190750Y288252D01*
X193250Y291251D02*
Y292250D01*
Y291751D01*
X190251D01*
X190750Y291251D01*
X193749Y293750D02*
Y295749D01*
X193250Y296749D02*
X190251D01*
X191250Y297749D01*
X190251Y298748D01*
X193250D01*
Y301747D02*
Y299748D01*
X191250Y301747D01*
X190750D01*
X190251Y301248D01*
Y300248D01*
X190750Y299748D01*
X317250Y288752D02*
X316751Y288252D01*
Y287252D01*
X317250Y286753D01*
X319250D01*
X319750Y287252D01*
Y288252D01*
X319250Y288752D01*
X319750Y291751D02*
Y289752D01*
X317750Y291751D01*
X317250D01*
X316751Y291251D01*
Y290251D01*
X317250Y289752D01*
X319750Y292751D02*
Y293750D01*
Y293250D01*
X316751D01*
X317250Y292751D01*
X320249Y295250D02*
Y297249D01*
X319750Y298249D02*
X316751D01*
X317750Y299249D01*
X316751Y300248D01*
X319750D01*
Y301248D02*
Y302248D01*
Y301748D01*
X316751D01*
X317250Y301248D01*
X443250Y286752D02*
X442751Y286252D01*
Y285252D01*
X443250Y284753D01*
X445250D01*
X445750Y285252D01*
Y286252D01*
X445250Y286752D01*
X445750Y289751D02*
Y287752D01*
X443750Y289751D01*
X443250D01*
X442751Y289251D01*
Y288251D01*
X443250Y287752D01*
X445750Y290751D02*
Y291750D01*
Y291251D01*
X442751D01*
X443250Y290751D01*
X446249Y293250D02*
Y295249D01*
X445750Y296249D02*
X442751D01*
X443750Y297249D01*
X442751Y298248D01*
X445750D01*
X443250Y299248D02*
X442751Y299748D01*
Y300747D01*
X443250Y301247D01*
X445250D01*
X445750Y300747D01*
Y299748D01*
X445250Y299248D01*
X443250D01*
X186750Y287002D02*
X186250Y286502D01*
Y285503D01*
X186750Y285003D01*
X188750D01*
X189250Y285503D01*
Y286502D01*
X188750Y287002D01*
X189250Y290001D02*
Y288002D01*
X187250Y290001D01*
X186750D01*
X186250Y289501D01*
Y288502D01*
X186750Y288002D01*
Y291001D02*
X186250Y291501D01*
Y292500D01*
X186750Y293000D01*
X188750D01*
X189250Y292500D01*
Y291501D01*
X188750Y291001D01*
X186750D01*
X189749Y294000D02*
Y295999D01*
X189250Y296999D02*
X186250D01*
X187250Y297999D01*
X186250Y298998D01*
X189250D01*
Y301997D02*
Y299998D01*
X187250Y301997D01*
X186750D01*
X186250Y301497D01*
Y300498D01*
X186750Y299998D01*
X313250Y288002D02*
X312751Y287502D01*
Y286502D01*
X313250Y286003D01*
X315250D01*
X315750Y286502D01*
Y287502D01*
X315250Y288002D01*
X315750Y291001D02*
Y289002D01*
X313750Y291001D01*
X313250D01*
X312751Y290501D01*
Y289502D01*
X313250Y289002D01*
Y292001D02*
X312751Y292500D01*
Y293500D01*
X313250Y294000D01*
X315250D01*
X315750Y293500D01*
Y292500D01*
X315250Y292001D01*
X313250D01*
X316249Y295000D02*
Y296999D01*
X315750Y297999D02*
X312751D01*
X313750Y298998D01*
X312751Y299998D01*
X315750D01*
Y300998D02*
Y301997D01*
Y301498D01*
X312751D01*
X313250Y300998D01*
X439250Y286002D02*
X438751Y285502D01*
Y284503D01*
X439250Y284003D01*
X441250D01*
X441750Y284503D01*
Y285502D01*
X441250Y286002D01*
X441750Y289001D02*
Y287002D01*
X439750Y289001D01*
X439250D01*
X438751Y288501D01*
Y287502D01*
X439250Y287002D01*
Y290001D02*
X438751Y290501D01*
Y291500D01*
X439250Y292000D01*
X441250D01*
X441750Y291500D01*
Y290501D01*
X441250Y290001D01*
X439250D01*
X442249Y293000D02*
Y294999D01*
X441750Y295999D02*
X438751D01*
X439750Y296999D01*
X438751Y297998D01*
X441750D01*
X439250Y298998D02*
X438751Y299498D01*
Y300497D01*
X439250Y300997D01*
X441250D01*
X441750Y300497D01*
Y299498D01*
X441250Y298998D01*
X439250D01*
X136250Y360252D02*
X135751Y359752D01*
Y358752D01*
X136250Y358253D01*
X138250D01*
X138750Y358752D01*
Y359752D01*
X138250Y360252D01*
X138750Y361252D02*
Y362251D01*
Y361752D01*
X135751D01*
X136250Y361252D01*
X138250Y363751D02*
X138750Y364251D01*
Y365250D01*
X138250Y365750D01*
X136250D01*
X135751Y365250D01*
Y364251D01*
X136250Y363751D01*
X136750D01*
X137250Y364251D01*
Y365750D01*
X139249Y366750D02*
Y368749D01*
X138750Y369749D02*
X135751D01*
X136750Y370749D01*
X135751Y371748D01*
X138750D01*
Y374747D02*
Y372748D01*
X136750Y374747D01*
X136250D01*
X135751Y374248D01*
Y373248D01*
X136250Y372748D01*
X262750Y359252D02*
X262251Y358752D01*
Y357752D01*
X262750Y357253D01*
X264750D01*
X265250Y357752D01*
Y358752D01*
X264750Y359252D01*
X265250Y360251D02*
Y361251D01*
Y360751D01*
X262251D01*
X262750Y360251D01*
X264750Y362751D02*
X265250Y363251D01*
Y364250D01*
X264750Y364750D01*
X262750D01*
X262251Y364250D01*
Y363251D01*
X262750Y362751D01*
X263250D01*
X263750Y363251D01*
Y364750D01*
X265749Y365750D02*
Y367749D01*
X265250Y368749D02*
X262251D01*
X263250Y369748D01*
X262251Y370748D01*
X265250D01*
Y371748D02*
Y372747D01*
Y372248D01*
X262251D01*
X262750Y371748D01*
X386750Y358252D02*
X386251Y357752D01*
Y356752D01*
X386750Y356253D01*
X388750D01*
X389250Y356752D01*
Y357752D01*
X388750Y358252D01*
X389250Y359252D02*
Y360251D01*
Y359752D01*
X386251D01*
X386750Y359252D01*
X388750Y361751D02*
X389250Y362251D01*
Y363250D01*
X388750Y363750D01*
X386750D01*
X386251Y363250D01*
Y362251D01*
X386750Y361751D01*
X387250D01*
X387750Y362251D01*
Y363750D01*
X389749Y364750D02*
Y366749D01*
X389250Y367749D02*
X386251D01*
X387250Y368749D01*
X386251Y369748D01*
X389250D01*
X386750Y370748D02*
X386251Y371248D01*
Y372248D01*
X386750Y372747D01*
X388750D01*
X389250Y372248D01*
Y371248D01*
X388750Y370748D01*
X386750D01*
X141750Y360252D02*
X141251Y359752D01*
Y358752D01*
X141750Y358253D01*
X143750D01*
X144250Y358752D01*
Y359752D01*
X143750Y360252D01*
X144250Y361252D02*
Y362251D01*
Y361752D01*
X141251D01*
X141750Y361252D01*
Y363751D02*
X141251Y364251D01*
Y365250D01*
X141750Y365750D01*
X142250D01*
X142750Y365250D01*
X143250Y365750D01*
X143750D01*
X144250Y365250D01*
Y364251D01*
X143750Y363751D01*
X143250D01*
X142750Y364251D01*
X142250Y363751D01*
X141750D01*
X142750Y364251D02*
Y365250D01*
X144749Y366750D02*
Y368749D01*
X144250Y369749D02*
X141251D01*
X142250Y370749D01*
X141251Y371748D01*
X144250D01*
Y374747D02*
Y372748D01*
X142250Y374747D01*
X141750D01*
X141251Y374248D01*
Y373248D01*
X141750Y372748D01*
X267250Y359252D02*
X266751Y358752D01*
Y357752D01*
X267250Y357253D01*
X269250D01*
X269750Y357752D01*
Y358752D01*
X269250Y359252D01*
X269750Y360251D02*
Y361251D01*
Y360751D01*
X266751D01*
X267250Y360251D01*
Y362751D02*
X266751Y363251D01*
Y364250D01*
X267250Y364750D01*
X267750D01*
X268250Y364250D01*
X268750Y364750D01*
X269250D01*
X269750Y364250D01*
Y363251D01*
X269250Y362751D01*
X268750D01*
X268250Y363251D01*
X267750Y362751D01*
X267250D01*
X268250Y363251D02*
Y364250D01*
X270249Y365750D02*
Y367749D01*
X269750Y368749D02*
X266751D01*
X267750Y369748D01*
X266751Y370748D01*
X269750D01*
Y371748D02*
Y372747D01*
Y372248D01*
X266751D01*
X267250Y371748D01*
X393250Y358252D02*
X392751Y357752D01*
Y356752D01*
X393250Y356253D01*
X395250D01*
X395750Y356752D01*
Y357752D01*
X395250Y358252D01*
X395750Y359252D02*
Y360251D01*
Y359752D01*
X392751D01*
X393250Y359252D01*
Y361751D02*
X392751Y362251D01*
Y363250D01*
X393250Y363750D01*
X393750D01*
X394250Y363250D01*
X394750Y363750D01*
X395250D01*
X395750Y363250D01*
Y362251D01*
X395250Y361751D01*
X394750D01*
X394250Y362251D01*
X393750Y361751D01*
X393250D01*
X394250Y362251D02*
Y363250D01*
X396249Y364750D02*
Y366749D01*
X395750Y367749D02*
X392751D01*
X393750Y368749D01*
X392751Y369748D01*
X395750D01*
X393250Y370748D02*
X392751Y371248D01*
Y372248D01*
X393250Y372747D01*
X395250D01*
X395750Y372248D01*
Y371248D01*
X395250Y370748D01*
X393250D01*
X131250Y359252D02*
X130751Y358752D01*
Y357752D01*
X131250Y357253D01*
X133250D01*
X133750Y357752D01*
Y358752D01*
X133250Y359252D01*
X133750Y360252D02*
Y361251D01*
Y360752D01*
X130751D01*
X131250Y360252D01*
X130751Y362751D02*
Y364750D01*
X131250D01*
X133250Y362751D01*
X133750D01*
X134249Y365750D02*
Y367749D01*
X133750Y368749D02*
X130751D01*
X131750Y369749D01*
X130751Y370748D01*
X133750D01*
Y373747D02*
Y371748D01*
X131750Y373747D01*
X131250D01*
X130751Y373248D01*
Y372248D01*
X131250Y371748D01*
X258250Y359252D02*
X257751Y358752D01*
Y357752D01*
X258250Y357253D01*
X260250D01*
X260750Y357752D01*
Y358752D01*
X260250Y359252D01*
X260750Y360251D02*
Y361251D01*
Y360751D01*
X257751D01*
X258250Y360251D01*
X257751Y362751D02*
Y364750D01*
X258250D01*
X260250Y362751D01*
X260750D01*
X261249Y365750D02*
Y367749D01*
X260750Y368749D02*
X257751D01*
X258750Y369748D01*
X257751Y370748D01*
X260750D01*
Y371748D02*
Y372747D01*
Y372248D01*
X257751D01*
X258250Y371748D01*
X381750Y358252D02*
X381251Y357752D01*
Y356752D01*
X381750Y356253D01*
X383750D01*
X384250Y356752D01*
Y357752D01*
X383750Y358252D01*
X384250Y359252D02*
Y360251D01*
Y359752D01*
X381251D01*
X381750Y359252D01*
X381251Y361751D02*
Y363750D01*
X381750D01*
X383750Y361751D01*
X384250D01*
X384749Y364750D02*
Y366749D01*
X384250Y367749D02*
X381251D01*
X382250Y368749D01*
X381251Y369748D01*
X384250D01*
X381750Y370748D02*
X381251Y371248D01*
Y372248D01*
X381750Y372747D01*
X383750D01*
X384250Y372248D01*
Y371248D01*
X383750Y370748D01*
X381750D01*
X238252Y326750D02*
X237752Y327249D01*
X236753D01*
X236253Y326750D01*
Y324750D01*
X236753Y324250D01*
X237752D01*
X238252Y324750D01*
X239252Y324250D02*
X240251D01*
X239752D01*
Y327249D01*
X239252Y326750D01*
X243750Y327249D02*
X242751Y326750D01*
X241751Y325750D01*
Y324750D01*
X242251Y324250D01*
X243250D01*
X243750Y324750D01*
Y325250D01*
X243250Y325750D01*
X241751D01*
X244750Y323751D02*
X246749D01*
X247749Y324250D02*
Y327249D01*
X248749Y326250D01*
X249748Y327249D01*
Y324250D01*
X252747D02*
X250748D01*
X252747Y326250D01*
Y326750D01*
X252248Y327249D01*
X251248D01*
X250748Y326750D01*
X363752Y327250D02*
X363252Y327749D01*
X362252D01*
X361753Y327250D01*
Y325250D01*
X362252Y324750D01*
X363252D01*
X363752Y325250D01*
X364752Y324750D02*
X365751D01*
X365251D01*
Y327749D01*
X364752Y327250D01*
X369250Y327749D02*
X368250Y327250D01*
X367251Y326250D01*
Y325250D01*
X367751Y324750D01*
X368750D01*
X369250Y325250D01*
Y325750D01*
X368750Y326250D01*
X367251D01*
X370250Y324251D02*
X372249D01*
X373249Y324750D02*
Y327749D01*
X374249Y326750D01*
X375248Y327749D01*
Y324750D01*
X376248D02*
X377248D01*
X376748D01*
Y327749D01*
X376248Y327250D01*
X490252Y325750D02*
X489752Y326249D01*
X488753D01*
X488253Y325750D01*
Y323750D01*
X488753Y323250D01*
X489752D01*
X490252Y323750D01*
X491252Y323250D02*
X492251D01*
X491751D01*
Y326249D01*
X491252Y325750D01*
X495750Y326249D02*
X494751Y325750D01*
X493751Y324750D01*
Y323750D01*
X494251Y323250D01*
X495250D01*
X495750Y323750D01*
Y324250D01*
X495250Y324750D01*
X493751D01*
X496750Y322751D02*
X498749D01*
X499749Y323250D02*
Y326249D01*
X500749Y325250D01*
X501748Y326249D01*
Y323250D01*
X502748Y325750D02*
X503248Y326249D01*
X504248D01*
X504747Y325750D01*
Y323750D01*
X504248Y323250D01*
X503248D01*
X502748Y323750D01*
Y325750D01*
X204250Y361752D02*
X203750Y361252D01*
Y360252D01*
X204250Y359753D01*
X206250D01*
X206750Y360252D01*
Y361252D01*
X206250Y361752D01*
X206750Y362752D02*
Y363751D01*
Y363251D01*
X203750D01*
X204250Y362752D01*
X203750Y367250D02*
Y365251D01*
X205250D01*
X204750Y366251D01*
Y366750D01*
X205250Y367250D01*
X206250D01*
X206750Y366750D01*
Y365751D01*
X206250Y365251D01*
X207249Y368250D02*
Y370249D01*
X206750Y371249D02*
X203750D01*
X204750Y372249D01*
X203750Y373248D01*
X206750D01*
Y376247D02*
Y374248D01*
X204750Y376247D01*
X204250D01*
X203750Y375747D01*
Y374748D01*
X204250Y374248D01*
X331250Y362252D02*
X330751Y361752D01*
Y360752D01*
X331250Y360252D01*
X333250D01*
X333750Y360752D01*
Y361752D01*
X333250Y362252D01*
X333750Y363251D02*
Y364251D01*
Y363751D01*
X330751D01*
X331250Y363251D01*
X330751Y367750D02*
Y365751D01*
X332250D01*
X331750Y366750D01*
Y367250D01*
X332250Y367750D01*
X333250D01*
X333750Y367250D01*
Y366251D01*
X333250Y365751D01*
X334249Y368750D02*
Y370749D01*
X333750Y371749D02*
X330751D01*
X331750Y372748D01*
X330751Y373748D01*
X333750D01*
Y374748D02*
Y375747D01*
Y375248D01*
X330751D01*
X331250Y374748D01*
X457250Y360252D02*
X456751Y359752D01*
Y358752D01*
X457250Y358253D01*
X459250D01*
X459750Y358752D01*
Y359752D01*
X459250Y360252D01*
X459750Y361252D02*
Y362251D01*
Y361752D01*
X456751D01*
X457250Y361252D01*
X456751Y365750D02*
Y363751D01*
X458250D01*
X457750Y364751D01*
Y365250D01*
X458250Y365750D01*
X459250D01*
X459750Y365250D01*
Y364251D01*
X459250Y363751D01*
X460249Y366750D02*
Y368749D01*
X459750Y369749D02*
X456751D01*
X457750Y370749D01*
X456751Y371748D01*
X459750D01*
X457250Y372748D02*
X456751Y373248D01*
Y374248D01*
X457250Y374747D01*
X459250D01*
X459750Y374248D01*
Y373248D01*
X459250Y372748D01*
X457250D01*
X195250Y361752D02*
X194751Y361252D01*
Y360252D01*
X195250Y359753D01*
X197250D01*
X197750Y360252D01*
Y361252D01*
X197250Y361752D01*
X197750Y362752D02*
Y363751D01*
Y363251D01*
X194751D01*
X195250Y362752D01*
X197750Y366750D02*
X194751D01*
X196250Y365251D01*
Y367250D01*
X198249Y368250D02*
Y370249D01*
X197750Y371249D02*
X194751D01*
X195750Y372249D01*
X194751Y373248D01*
X197750D01*
Y376247D02*
Y374248D01*
X195750Y376247D01*
X195250D01*
X194751Y375747D01*
Y374748D01*
X195250Y374248D01*
X322750Y362752D02*
X322251Y362252D01*
Y361252D01*
X322750Y360753D01*
X324750D01*
X325250Y361252D01*
Y362252D01*
X324750Y362752D01*
X325250Y363752D02*
Y364751D01*
Y364251D01*
X322251D01*
X322750Y363752D01*
X325250Y367750D02*
X322251D01*
X323750Y366251D01*
Y368250D01*
X325749Y369250D02*
Y371249D01*
X325250Y372249D02*
X322251D01*
X323250Y373249D01*
X322251Y374248D01*
X325250D01*
Y375248D02*
Y376248D01*
Y375748D01*
X322251D01*
X322750Y375248D01*
X448750Y360252D02*
X448251Y359752D01*
Y358752D01*
X448750Y358253D01*
X450750D01*
X451250Y358752D01*
Y359752D01*
X450750Y360252D01*
X451250Y361252D02*
Y362251D01*
Y361752D01*
X448251D01*
X448750Y361252D01*
X451250Y365250D02*
X448251D01*
X449750Y363751D01*
Y365750D01*
X451749Y366750D02*
Y368749D01*
X451250Y369749D02*
X448251D01*
X449250Y370749D01*
X448251Y371748D01*
X451250D01*
X448750Y372748D02*
X448251Y373248D01*
Y374248D01*
X448750Y374747D01*
X450750D01*
X451250Y374248D01*
Y373248D01*
X450750Y372748D01*
X448750D01*
X199750Y361752D02*
X199251Y361252D01*
Y360252D01*
X199750Y359753D01*
X201750D01*
X202250Y360252D01*
Y361252D01*
X201750Y361752D01*
X202250Y362752D02*
Y363751D01*
Y363251D01*
X199251D01*
X199750Y362752D01*
Y365251D02*
X199251Y365751D01*
Y366750D01*
X199750Y367250D01*
X200250D01*
X200750Y366750D01*
Y366251D01*
Y366750D01*
X201250Y367250D01*
X201750D01*
X202250Y366750D01*
Y365751D01*
X201750Y365251D01*
X202749Y368250D02*
Y370249D01*
X202250Y371249D02*
X199251D01*
X200250Y372249D01*
X199251Y373248D01*
X202250D01*
Y376247D02*
Y374248D01*
X200250Y376247D01*
X199750D01*
X199251Y375747D01*
Y374748D01*
X199750Y374248D01*
X326750Y362752D02*
X326251Y362252D01*
Y361252D01*
X326750Y360753D01*
X328750D01*
X329250Y361252D01*
Y362252D01*
X328750Y362752D01*
X329250Y363752D02*
Y364751D01*
Y364251D01*
X326251D01*
X326750Y363752D01*
Y366251D02*
X326251Y366751D01*
Y367750D01*
X326750Y368250D01*
X327250D01*
X327750Y367750D01*
Y367250D01*
Y367750D01*
X328250Y368250D01*
X328750D01*
X329250Y367750D01*
Y366751D01*
X328750Y366251D01*
X329749Y369250D02*
Y371249D01*
X329250Y372249D02*
X326251D01*
X327250Y373249D01*
X326251Y374248D01*
X329250D01*
Y375248D02*
Y376248D01*
Y375748D01*
X326251D01*
X326750Y375248D01*
X452750Y360252D02*
X452251Y359752D01*
Y358752D01*
X452750Y358253D01*
X454750D01*
X455250Y358752D01*
Y359752D01*
X454750Y360252D01*
X455250Y361252D02*
Y362251D01*
Y361752D01*
X452251D01*
X452750Y361252D01*
Y363751D02*
X452251Y364251D01*
Y365250D01*
X452750Y365750D01*
X453250D01*
X453750Y365250D01*
Y364751D01*
Y365250D01*
X454250Y365750D01*
X454750D01*
X455250Y365250D01*
Y364251D01*
X454750Y363751D01*
X455749Y366750D02*
Y368749D01*
X455250Y369749D02*
X452251D01*
X453250Y370749D01*
X452251Y371748D01*
X455250D01*
X452750Y372748D02*
X452251Y373248D01*
Y374248D01*
X452750Y374747D01*
X454750D01*
X455250Y374248D01*
Y373248D01*
X454750Y372748D01*
X452750D01*
X208750Y361752D02*
X208251Y361252D01*
Y360252D01*
X208750Y359753D01*
X210750D01*
X211250Y360252D01*
Y361252D01*
X210750Y361752D01*
X211250Y362752D02*
Y363751D01*
Y363251D01*
X208251D01*
X208750Y362752D01*
X211250Y367250D02*
Y365251D01*
X209250Y367250D01*
X208750D01*
X208251Y366750D01*
Y365751D01*
X208750Y365251D01*
X211749Y368250D02*
Y370249D01*
X211250Y371249D02*
X208251D01*
X209250Y372249D01*
X208251Y373248D01*
X211250D01*
Y376247D02*
Y374248D01*
X209250Y376247D01*
X208750D01*
X208251Y375747D01*
Y374748D01*
X208750Y374248D01*
X335750Y361752D02*
X335251Y361252D01*
Y360252D01*
X335750Y359752D01*
X337750D01*
X338250Y360252D01*
Y361252D01*
X337750Y361752D01*
X338250Y362752D02*
Y363751D01*
Y363251D01*
X335251D01*
X335750Y362752D01*
X338250Y367250D02*
Y365251D01*
X336250Y367250D01*
X335750D01*
X335251Y366750D01*
Y365751D01*
X335750Y365251D01*
X338749Y368250D02*
Y370249D01*
X338250Y371249D02*
X335251D01*
X336250Y372249D01*
X335251Y373248D01*
X338250D01*
Y374248D02*
Y375248D01*
Y374748D01*
X335251D01*
X335750Y374248D01*
X461750Y360252D02*
X461251Y359752D01*
Y358752D01*
X461750Y358253D01*
X463750D01*
X464250Y358752D01*
Y359752D01*
X463750Y360252D01*
X464250Y361252D02*
Y362251D01*
Y361752D01*
X461251D01*
X461750Y361252D01*
X464250Y365750D02*
Y363751D01*
X462250Y365750D01*
X461750D01*
X461251Y365250D01*
Y364251D01*
X461750Y363751D01*
X464749Y366750D02*
Y368749D01*
X464250Y369749D02*
X461251D01*
X462250Y370749D01*
X461251Y371748D01*
X464250D01*
X461750Y372748D02*
X461251Y373248D01*
Y374248D01*
X461750Y374747D01*
X463750D01*
X464250Y374248D01*
Y373248D01*
X463750Y372748D01*
X461750D01*
X215002Y363750D02*
X214502Y364249D01*
X213502D01*
X213003Y363750D01*
Y361750D01*
X213502Y361250D01*
X214502D01*
X215002Y361750D01*
X216002Y361250D02*
X217001D01*
X216501D01*
Y364249D01*
X216002Y363750D01*
X218501Y361250D02*
X219500D01*
X219001D01*
Y364249D01*
X218501Y363750D01*
X221000Y360751D02*
X222999D01*
X223999Y361250D02*
Y364249D01*
X224999Y363250D01*
X225998Y364249D01*
Y361250D01*
X228997D02*
X226998D01*
X228997Y363250D01*
Y363750D01*
X228498Y364249D01*
X227498D01*
X226998Y363750D01*
X342502Y364250D02*
X342002Y364749D01*
X341002D01*
X340502Y364250D01*
Y362250D01*
X341002Y361750D01*
X342002D01*
X342502Y362250D01*
X343501Y361750D02*
X344501D01*
X344001D01*
Y364749D01*
X343501Y364250D01*
X346001Y361750D02*
X347000D01*
X346500D01*
Y364749D01*
X346001Y364250D01*
X348500Y361251D02*
X350499D01*
X351499Y361750D02*
Y364749D01*
X352499Y363750D01*
X353498Y364749D01*
Y361750D01*
X354498D02*
X355498D01*
X354998D01*
Y364749D01*
X354498Y364250D01*
X468002Y362750D02*
X467502Y363249D01*
X466502D01*
X466003Y362750D01*
Y360750D01*
X466502Y360250D01*
X467502D01*
X468002Y360750D01*
X469002Y360250D02*
X470001D01*
X469501D01*
Y363249D01*
X469002Y362750D01*
X471501Y360250D02*
X472501D01*
X472001D01*
Y363249D01*
X471501Y362750D01*
X474000Y359751D02*
X475999D01*
X476999Y360250D02*
Y363249D01*
X477999Y362250D01*
X478998Y363249D01*
Y360250D01*
X479998Y362750D02*
X480498Y363249D01*
X481498D01*
X481997Y362750D01*
Y360750D01*
X481498Y360250D01*
X480498D01*
X479998Y360750D01*
Y362750D01*
X214252Y368250D02*
X213752Y368749D01*
X212753D01*
X212253Y368250D01*
Y366250D01*
X212753Y365750D01*
X213752D01*
X214252Y366250D01*
X215252Y365750D02*
X216251D01*
X215752D01*
Y368749D01*
X215252Y368250D01*
X217751D02*
X218251Y368749D01*
X219250D01*
X219750Y368250D01*
Y366250D01*
X219250Y365750D01*
X218251D01*
X217751Y366250D01*
Y368250D01*
X220750Y365251D02*
X222749D01*
X223749Y365750D02*
Y368749D01*
X224749Y367750D01*
X225748Y368749D01*
Y365750D01*
X228747D02*
X226748D01*
X228747Y367750D01*
Y368250D01*
X228247Y368749D01*
X227248D01*
X226748Y368250D01*
X341752Y369250D02*
X341252Y369749D01*
X340252D01*
X339753Y369250D01*
Y367250D01*
X340252Y366750D01*
X341252D01*
X341752Y367250D01*
X342752Y366750D02*
X343751D01*
X343251D01*
Y369749D01*
X342752Y369250D01*
X345251D02*
X345751Y369749D01*
X346750D01*
X347250Y369250D01*
Y367250D01*
X346750Y366750D01*
X345751D01*
X345251Y367250D01*
Y369250D01*
X348250Y366251D02*
X350249D01*
X351249Y366750D02*
Y369749D01*
X352249Y368750D01*
X353248Y369749D01*
Y366750D01*
X354248D02*
X355247D01*
X354748D01*
Y369749D01*
X354248Y369250D01*
X467752Y367750D02*
X467252Y368249D01*
X466253D01*
X465753Y367750D01*
Y365750D01*
X466253Y365250D01*
X467252D01*
X467752Y365750D01*
X468752Y365250D02*
X469751D01*
X469251D01*
Y368249D01*
X468752Y367750D01*
X471251D02*
X471751Y368249D01*
X472750D01*
X473250Y367750D01*
Y365750D01*
X472750Y365250D01*
X471751D01*
X471251Y365750D01*
Y367750D01*
X474250Y364751D02*
X476249D01*
X477249Y365250D02*
Y368249D01*
X478249Y367250D01*
X479248Y368249D01*
Y365250D01*
X480248Y367750D02*
X480748Y368249D01*
X481747D01*
X482247Y367750D01*
Y365750D01*
X481747Y365250D01*
X480748D01*
X480248Y365750D01*
Y367750D01*
X244750Y347502D02*
X244251Y347002D01*
Y346002D01*
X244750Y345502D01*
X246750D01*
X247250Y346002D01*
Y347002D01*
X246750Y347502D01*
Y348501D02*
X247250Y349001D01*
Y350001D01*
X246750Y350501D01*
X244750D01*
X244251Y350001D01*
Y349001D01*
X244750Y348501D01*
X245250D01*
X245750Y349001D01*
Y350501D01*
X247749Y351500D02*
Y353500D01*
X247250Y354499D02*
X244251D01*
X245250Y355499D01*
X244251Y356499D01*
X247250D01*
Y359498D02*
Y357498D01*
X245250Y359498D01*
X244750D01*
X244251Y358998D01*
Y357998D01*
X244750Y357498D01*
X371250Y348002D02*
X370751Y347502D01*
Y346502D01*
X371250Y346002D01*
X373250D01*
X373750Y346502D01*
Y347502D01*
X373250Y348002D01*
Y349001D02*
X373750Y349501D01*
Y350501D01*
X373250Y351000D01*
X371250D01*
X370751Y350501D01*
Y349501D01*
X371250Y349001D01*
X371750D01*
X372250Y349501D01*
Y351000D01*
X374249Y352000D02*
Y353999D01*
X373750Y354999D02*
X370751D01*
X371750Y355999D01*
X370751Y356998D01*
X373750D01*
Y357998D02*
Y358998D01*
Y358498D01*
X370751D01*
X371250Y357998D01*
X498750Y345002D02*
X498251Y344502D01*
Y343502D01*
X498750Y343002D01*
X500750D01*
X501250Y343502D01*
Y344502D01*
X500750Y345002D01*
Y346001D02*
X501250Y346501D01*
Y347501D01*
X500750Y348001D01*
X498750D01*
X498251Y347501D01*
Y346501D01*
X498750Y346001D01*
X499250D01*
X499750Y346501D01*
Y348001D01*
X501749Y349000D02*
Y351000D01*
X501250Y351999D02*
X498251D01*
X499250Y352999D01*
X498251Y353999D01*
X501250D01*
X498750Y354998D02*
X498251Y355498D01*
Y356498D01*
X498750Y356998D01*
X500750D01*
X501250Y356498D01*
Y355498D01*
X500750Y354998D01*
X498750D01*
X248251Y225002D02*
X250750D01*
X251250Y225502D01*
Y226502D01*
X250750Y227002D01*
X248251D01*
X248750Y228001D02*
X248251Y228501D01*
Y229501D01*
X248750Y230001D01*
X249250D01*
X249750Y229501D01*
X250250Y230001D01*
X250750D01*
X251250Y229501D01*
Y228501D01*
X250750Y228001D01*
X250250D01*
X249750Y228501D01*
X249250Y228001D01*
X248750D01*
X249750Y228501D02*
Y229501D01*
X251749Y231000D02*
Y233000D01*
X251250Y233999D02*
X248251D01*
X249250Y234999D01*
X248251Y235999D01*
X251250D01*
Y238998D02*
Y236998D01*
X249250Y238998D01*
X248750D01*
X248251Y238498D01*
Y237498D01*
X248750Y236998D01*
X134251Y225502D02*
X136750D01*
X137250Y226002D01*
Y227002D01*
X136750Y227502D01*
X134251D01*
Y228501D02*
Y230501D01*
X134750D01*
X136750Y228501D01*
X137250D01*
X137749Y231500D02*
Y233500D01*
X137250Y234499D02*
X134251D01*
X135250Y235499D01*
X134251Y236499D01*
X137250D01*
Y239498D02*
Y237498D01*
X135250Y239498D01*
X134750D01*
X134251Y238998D01*
Y237998D01*
X134750Y237498D01*
X234753Y200249D02*
Y197750D01*
X235252Y197250D01*
X236252D01*
X236752Y197750D01*
Y200249D01*
X237752Y197250D02*
X238751D01*
X238251D01*
Y200249D01*
X237752Y199750D01*
X240251D02*
X240751Y200249D01*
X241750D01*
X242250Y199750D01*
Y197750D01*
X241750Y197250D01*
X240751D01*
X240251Y197750D01*
Y199750D01*
X243250Y196751D02*
X245249D01*
X246249Y197250D02*
Y200249D01*
X247249Y199250D01*
X248248Y200249D01*
Y197250D01*
X251247D02*
X249248D01*
X251247Y199250D01*
Y199750D01*
X250747Y200249D01*
X249748D01*
X249248Y199750D01*
X364753Y199749D02*
Y197250D01*
X365252Y196750D01*
X366252D01*
X366752Y197250D01*
Y199749D01*
X367752Y196750D02*
X368751D01*
X368251D01*
Y199749D01*
X367752Y199250D01*
X370251D02*
X370751Y199749D01*
X371750D01*
X372250Y199250D01*
Y197250D01*
X371750Y196750D01*
X370751D01*
X370251Y197250D01*
Y199250D01*
X373250Y196251D02*
X375249D01*
X376249Y196750D02*
Y199749D01*
X377249Y198750D01*
X378248Y199749D01*
Y196750D01*
X379248D02*
X380247D01*
X379748D01*
Y199749D01*
X379248Y199250D01*
X488253Y198749D02*
Y196250D01*
X488753Y195750D01*
X489752D01*
X490252Y196250D01*
Y198749D01*
X491252Y195750D02*
X492251D01*
X491751D01*
Y198749D01*
X491252Y198250D01*
X493751D02*
X494251Y198749D01*
X495250D01*
X495750Y198250D01*
Y196250D01*
X495250Y195750D01*
X494251D01*
X493751Y196250D01*
Y198250D01*
X496750Y195251D02*
X498749D01*
X499749Y195750D02*
Y198749D01*
X500749Y197750D01*
X501748Y198749D01*
Y195750D01*
X502748Y198250D02*
X503248Y198749D01*
X504248D01*
X504747Y198250D01*
Y196250D01*
X504248Y195750D01*
X503248D01*
X502748Y196250D01*
Y198250D01*
X136002Y200249D02*
Y197750D01*
X136502Y197250D01*
X137502D01*
X138002Y197750D01*
Y200249D01*
X139001Y197750D02*
X139501Y197250D01*
X140501D01*
X141001Y197750D01*
Y199750D01*
X140501Y200249D01*
X139501D01*
X139001Y199750D01*
Y199250D01*
X139501Y198750D01*
X141001D01*
X142000Y196751D02*
X144000D01*
X144999Y197250D02*
Y200249D01*
X145999Y199250D01*
X146999Y200249D01*
Y197250D01*
X149998D02*
X147998D01*
X149998Y199250D01*
Y199750D01*
X149498Y200249D01*
X148498D01*
X147998Y199750D01*
X265502Y200249D02*
Y197750D01*
X266002Y197250D01*
X267002D01*
X267501Y197750D01*
Y200249D01*
X268501Y197750D02*
X269001Y197250D01*
X270001D01*
X270500Y197750D01*
Y199750D01*
X270001Y200249D01*
X269001D01*
X268501Y199750D01*
Y199250D01*
X269001Y198750D01*
X270500D01*
X271500Y196751D02*
X273499D01*
X274499Y197250D02*
Y200249D01*
X275499Y199250D01*
X276499Y200249D01*
Y197250D01*
X277498D02*
X278498D01*
X277998D01*
Y200249D01*
X277498Y199750D01*
X392002Y199749D02*
Y197250D01*
X392502Y196750D01*
X393502D01*
X394002Y197250D01*
Y199749D01*
X395001Y197250D02*
X395501Y196750D01*
X396501D01*
X397001Y197250D01*
Y199250D01*
X396501Y199749D01*
X395501D01*
X395001Y199250D01*
Y198750D01*
X395501Y198250D01*
X397001D01*
X398000Y196251D02*
X400000D01*
X400999Y196750D02*
Y199749D01*
X401999Y198750D01*
X402999Y199749D01*
Y196750D01*
X403998Y199250D02*
X404498Y199749D01*
X405498D01*
X405998Y199250D01*
Y197250D01*
X405498Y196750D01*
X404498D01*
X403998Y197250D01*
Y199250D01*
X373251Y226502D02*
X375750D01*
X376250Y227002D01*
Y228002D01*
X375750Y228502D01*
X373251D01*
X373750Y229501D02*
X373251Y230001D01*
Y231001D01*
X373750Y231501D01*
X374250D01*
X374750Y231001D01*
X375250Y231501D01*
X375750D01*
X376250Y231001D01*
Y230001D01*
X375750Y229501D01*
X375250D01*
X374750Y230001D01*
X374250Y229501D01*
X373750D01*
X374750Y230001D02*
Y231001D01*
X376749Y232500D02*
Y234500D01*
X376250Y235499D02*
X373251D01*
X374250Y236499D01*
X373251Y237498D01*
X376250D01*
Y238498D02*
Y239498D01*
Y238998D01*
X373251D01*
X373750Y238498D01*
X499751Y225002D02*
X502250D01*
X502750Y225502D01*
Y226502D01*
X502250Y227002D01*
X499751D01*
X500250Y228001D02*
X499751Y228501D01*
Y229501D01*
X500250Y230001D01*
X500750D01*
X501250Y229501D01*
X501750Y230001D01*
X502250D01*
X502750Y229501D01*
Y228501D01*
X502250Y228001D01*
X501750D01*
X501250Y228501D01*
X500750Y228001D01*
X500250D01*
X501250Y228501D02*
Y229501D01*
X503249Y231000D02*
Y233000D01*
X502750Y233999D02*
X499751D01*
X500750Y234999D01*
X499751Y235999D01*
X502750D01*
X500250Y236998D02*
X499751Y237498D01*
Y238498D01*
X500250Y238998D01*
X502250D01*
X502750Y238498D01*
Y237498D01*
X502250Y236998D01*
X500250D01*
X260251Y225002D02*
X262750D01*
X263250Y225502D01*
Y226502D01*
X262750Y227002D01*
X260251D01*
Y228001D02*
Y230000D01*
X260750D01*
X262750Y228001D01*
X263250D01*
X263749Y231000D02*
Y232999D01*
X263250Y233999D02*
X260251D01*
X261250Y234999D01*
X260251Y235999D01*
X263250D01*
Y236998D02*
Y237998D01*
Y237498D01*
X260251D01*
X260750Y236998D01*
X386751Y224502D02*
X389250D01*
X389750Y225002D01*
Y226002D01*
X389250Y226502D01*
X386751D01*
Y227501D02*
Y229501D01*
X387250D01*
X389250Y227501D01*
X389750D01*
X390249Y230500D02*
Y232500D01*
X389750Y233499D02*
X386751D01*
X387750Y234499D01*
X386751Y235499D01*
X389750D01*
X387250Y236498D02*
X386751Y236998D01*
Y237998D01*
X387250Y238498D01*
X389250D01*
X389750Y237998D01*
Y236998D01*
X389250Y236498D01*
X387250D01*
X671501Y268000D02*
Y265500D01*
X672001Y265001D01*
X673000D01*
X673500Y265500D01*
Y268000D01*
X676499D02*
X675499Y267500D01*
X674500Y266500D01*
Y265500D01*
X675000Y265001D01*
X675999D01*
X676499Y265500D01*
Y266000D01*
X675999Y266500D01*
X674500D01*
X657001Y323000D02*
Y320500D01*
X657501Y320001D01*
X658500D01*
X659000Y320500D01*
Y323000D01*
X661999D02*
X660000D01*
Y321500D01*
X660999Y322000D01*
X661499D01*
X661999Y321500D01*
Y320500D01*
X661499Y320001D01*
X660500D01*
X660000Y320500D01*
X128001Y412500D02*
X127501Y412999D01*
X126501D01*
X126001Y412500D01*
Y410500D01*
X126501Y410001D01*
X127501D01*
X128001Y410500D01*
Y411500D01*
X127001D01*
X129000Y410001D02*
Y412999D01*
X131000Y410001D01*
Y412999D01*
X131999D02*
Y410001D01*
X133499D01*
X133999Y410500D01*
Y412500D01*
X133499Y412999D01*
X131999D01*
X549000Y253500D02*
X547001D01*
Y252000D01*
X548000Y252500D01*
X548500D01*
X549000Y252000D01*
Y251000D01*
X548500Y250500D01*
X547501D01*
X547001Y251000D01*
X550000Y253500D02*
Y251500D01*
X550999Y250500D01*
X551999Y251500D01*
Y253500D01*
X594501Y253500D02*
X595001Y253999D01*
X596001D01*
X596501Y253500D01*
Y253000D01*
X596001Y252500D01*
X595501D01*
X596001D01*
X596501Y252000D01*
Y251500D01*
X596001Y251000D01*
X595001D01*
X594501Y251500D01*
X597500Y253999D02*
Y252000D01*
X598500Y251000D01*
X599500Y252000D01*
Y253999D01*
X600499Y253500D02*
X600999Y253999D01*
X601999D01*
X602499Y253500D01*
Y253000D01*
X601999Y252500D01*
X601499D01*
X601999D01*
X602499Y252000D01*
Y251500D01*
X601999Y251000D01*
X600999D01*
X600499Y251500D01*
X555501Y307999D02*
X557500D01*
Y307500D01*
X555501Y305500D01*
Y305000D01*
X558500Y307999D02*
Y306000D01*
X559500Y305000D01*
X560499Y306000D01*
Y307999D01*
X236003Y334249D02*
X238002D01*
X237002D01*
Y331250D01*
X239002D02*
Y334249D01*
X240501D01*
X241001Y333750D01*
Y332750D01*
X240501Y332250D01*
X239002D01*
X242001Y333750D02*
X242501Y334249D01*
X243500D01*
X244000Y333750D01*
Y333250D01*
X243500Y332750D01*
X243001D01*
X243500D01*
X244000Y332250D01*
Y331750D01*
X243500Y331250D01*
X242501D01*
X242001Y331750D01*
X245000Y330751D02*
X246999D01*
X247999Y331250D02*
Y334249D01*
X248998Y333250D01*
X249998Y334249D01*
Y331250D01*
X252997D02*
X250998D01*
X252997Y333250D01*
Y333750D01*
X252497Y334249D01*
X251498D01*
X250998Y333750D01*
X361503Y332749D02*
X363502D01*
X362502D01*
Y329750D01*
X364502D02*
Y332749D01*
X366001D01*
X366501Y332250D01*
Y331250D01*
X366001Y330750D01*
X364502D01*
X367501Y332250D02*
X368001Y332749D01*
X369000D01*
X369500Y332250D01*
Y331750D01*
X369000Y331250D01*
X368500D01*
X369000D01*
X369500Y330750D01*
Y330250D01*
X369000Y329750D01*
X368001D01*
X367501Y330250D01*
X370500Y329251D02*
X372499D01*
X373499Y329750D02*
Y332749D01*
X374498Y331750D01*
X375498Y332749D01*
Y329750D01*
X376498D02*
X377497D01*
X376998D01*
Y332749D01*
X376498Y332250D01*
X488003Y331249D02*
X490002D01*
X489002D01*
Y328250D01*
X491002D02*
Y331249D01*
X492501D01*
X493001Y330750D01*
Y329750D01*
X492501Y329250D01*
X491002D01*
X494001Y330750D02*
X494501Y331249D01*
X495500D01*
X496000Y330750D01*
Y330250D01*
X495500Y329750D01*
X495001D01*
X495500D01*
X496000Y329250D01*
Y328750D01*
X495500Y328250D01*
X494501D01*
X494001Y328750D01*
X497000Y327751D02*
X498999D01*
X499999Y328250D02*
Y331249D01*
X500998Y330250D01*
X501998Y331249D01*
Y328250D01*
X502998Y330750D02*
X503498Y331249D01*
X504497D01*
X504997Y330750D01*
Y328750D01*
X504497Y328250D01*
X503498D01*
X502998Y328750D01*
Y330750D01*
X697001Y377500D02*
X696501Y377999D01*
X695501D01*
X695001Y377500D01*
Y375500D01*
X695501Y375001D01*
X696501D01*
X697001Y375500D01*
Y376500D01*
X696001D01*
X698000Y375001D02*
Y377999D01*
X700000Y375001D01*
Y377999D01*
X700999D02*
Y375001D01*
X702499D01*
X702999Y375500D01*
Y377500D01*
X702499Y377999D01*
X700999D01*
X693502Y445500D02*
Y443500D01*
X694501Y442500D01*
X695501Y443500D01*
Y445500D01*
X696501D02*
Y442500D01*
X698000D01*
X698500Y443000D01*
Y443500D01*
X698000Y444000D01*
X696501D01*
X698000D01*
X698500Y444500D01*
Y445000D01*
X698000Y445500D01*
X696501D01*
X699500Y442500D02*
Y444500D01*
X700499Y445500D01*
X701499Y444500D01*
Y442500D01*
Y444000D01*
X699500D01*
X702499Y445500D02*
X704498D01*
X703499D01*
Y442500D01*
X213003Y197750D02*
Y200749D01*
X214502D01*
X215002Y200250D01*
Y199250D01*
X214502Y198750D01*
X213003D01*
X214002D02*
X215002Y197750D01*
X216002Y200250D02*
X216502Y200749D01*
X217501D01*
X218001Y200250D01*
Y199750D01*
X217501Y199250D01*
X217002D01*
X217501D01*
X218001Y198750D01*
Y198250D01*
X217501Y197750D01*
X216502D01*
X216002Y198250D01*
X219001Y200250D02*
X219501Y200749D01*
X220500D01*
X221000Y200250D01*
Y199750D01*
X220500Y199250D01*
X220001D01*
X220500D01*
X221000Y198750D01*
Y198250D01*
X220500Y197750D01*
X219501D01*
X219001Y198250D01*
X222000Y197251D02*
X223999D01*
X224999Y197750D02*
Y200749D01*
X225998Y199750D01*
X226998Y200749D01*
Y197750D01*
X229997D02*
X227998D01*
X229997Y199750D01*
Y200250D01*
X229497Y200749D01*
X228498D01*
X227998Y200250D01*
X340503Y196750D02*
Y199749D01*
X342002D01*
X342502Y199250D01*
Y198250D01*
X342002Y197750D01*
X340503D01*
X341502D02*
X342502Y196750D01*
X343502Y199250D02*
X344002Y199749D01*
X345001D01*
X345501Y199250D01*
Y198750D01*
X345001Y198250D01*
X344501D01*
X345001D01*
X345501Y197750D01*
Y197250D01*
X345001Y196750D01*
X344002D01*
X343502Y197250D01*
X346501Y199250D02*
X347001Y199749D01*
X348000D01*
X348500Y199250D01*
Y198750D01*
X348000Y198250D01*
X347500D01*
X348000D01*
X348500Y197750D01*
Y197250D01*
X348000Y196750D01*
X347001D01*
X346501Y197250D01*
X349500Y196251D02*
X351499D01*
X352499Y196750D02*
Y199749D01*
X353498Y198750D01*
X354498Y199749D01*
Y196750D01*
X355498D02*
X356497D01*
X355998D01*
Y199749D01*
X355498Y199250D01*
X465003Y196250D02*
Y199249D01*
X466502D01*
X467002Y198750D01*
Y197750D01*
X466502Y197250D01*
X465003D01*
X466002D02*
X467002Y196250D01*
X468002Y198750D02*
X468502Y199249D01*
X469501D01*
X470001Y198750D01*
Y198250D01*
X469501Y197750D01*
X469001D01*
X469501D01*
X470001Y197250D01*
Y196750D01*
X469501Y196250D01*
X468502D01*
X468002Y196750D01*
X471001Y198750D02*
X471501Y199249D01*
X472500D01*
X473000Y198750D01*
Y198250D01*
X472500Y197750D01*
X472001D01*
X472500D01*
X473000Y197250D01*
Y196750D01*
X472500Y196250D01*
X471501D01*
X471001Y196750D01*
X474000Y195751D02*
X475999D01*
X476999Y196250D02*
Y199249D01*
X477998Y198250D01*
X478998Y199249D01*
Y196250D01*
X479998Y198750D02*
X480498Y199249D01*
X481497D01*
X481997Y198750D01*
Y196750D01*
X481497Y196250D01*
X480498D01*
X479998Y196750D01*
Y198750D01*
X154503Y197750D02*
Y200749D01*
X156002D01*
X156502Y200250D01*
Y199250D01*
X156002Y198750D01*
X154503D01*
X155502D02*
X156502Y197750D01*
X157502Y200250D02*
X158002Y200749D01*
X159001D01*
X159501Y200250D01*
Y199750D01*
X159001Y199250D01*
X158502D01*
X159001D01*
X159501Y198750D01*
Y198250D01*
X159001Y197750D01*
X158002D01*
X157502Y198250D01*
X162500Y197750D02*
X160501D01*
X162500Y199750D01*
Y200250D01*
X162000Y200749D01*
X161001D01*
X160501Y200250D01*
X163500Y197251D02*
X165499D01*
X166499Y197750D02*
Y200749D01*
X167499Y199750D01*
X168498Y200749D01*
Y197750D01*
X171497D02*
X169498D01*
X171497Y199750D01*
Y200250D01*
X170997Y200749D01*
X169998D01*
X169498Y200250D01*
X282503Y197250D02*
Y200249D01*
X284002D01*
X284502Y199750D01*
Y198750D01*
X284002Y198250D01*
X282503D01*
X283502D02*
X284502Y197250D01*
X285502Y199750D02*
X286001Y200249D01*
X287001D01*
X287501Y199750D01*
Y199250D01*
X287001Y198750D01*
X286501D01*
X287001D01*
X287501Y198250D01*
Y197750D01*
X287001Y197250D01*
X286001D01*
X285502Y197750D01*
X290500Y197250D02*
X288501D01*
X290500Y199250D01*
Y199750D01*
X290000Y200249D01*
X289001D01*
X288501Y199750D01*
X291500Y196751D02*
X293499D01*
X294499Y197250D02*
Y200249D01*
X295498Y199250D01*
X296498Y200249D01*
Y197250D01*
X297498D02*
X298497D01*
X297998D01*
Y200249D01*
X297498Y199750D01*
X408503Y196750D02*
Y199749D01*
X410002D01*
X410502Y199250D01*
Y198250D01*
X410002Y197750D01*
X408503D01*
X409502D02*
X410502Y196750D01*
X411502Y199250D02*
X412002Y199749D01*
X413001D01*
X413501Y199250D01*
Y198750D01*
X413001Y198250D01*
X412501D01*
X413001D01*
X413501Y197750D01*
Y197250D01*
X413001Y196750D01*
X412002D01*
X411502Y197250D01*
X416500Y196750D02*
X414501D01*
X416500Y198750D01*
Y199250D01*
X416000Y199749D01*
X415001D01*
X414501Y199250D01*
X417500Y196251D02*
X419499D01*
X420499Y196750D02*
Y199749D01*
X421498Y198750D01*
X422498Y199749D01*
Y196750D01*
X423498Y199250D02*
X423998Y199749D01*
X424997D01*
X425497Y199250D01*
Y197250D01*
X424997Y196750D01*
X423998D01*
X423498Y197250D01*
Y199250D01*
X225750Y254753D02*
X222751D01*
Y256252D01*
X223250Y256752D01*
X224250D01*
X224750Y256252D01*
Y254753D01*
Y255752D02*
X225750Y256752D01*
X223250Y257752D02*
X222751Y258252D01*
Y259251D01*
X223250Y259751D01*
X223750D01*
X224250Y259251D01*
Y258751D01*
Y259251D01*
X224750Y259751D01*
X225250D01*
X225750Y259251D01*
Y258252D01*
X225250Y257752D01*
X225750Y260751D02*
Y261750D01*
Y261251D01*
X222751D01*
X223250Y260751D01*
X226249Y263250D02*
Y265249D01*
X225750Y266249D02*
X222751D01*
X223750Y267249D01*
X222751Y268248D01*
X225750D01*
Y271247D02*
Y269248D01*
X223750Y271247D01*
X223250D01*
X222751Y270747D01*
Y269748D01*
X223250Y269248D01*
X351250Y257253D02*
X348251D01*
Y258752D01*
X348750Y259252D01*
X349750D01*
X350250Y258752D01*
Y257253D01*
Y258252D02*
X351250Y259252D01*
X348750Y260251D02*
X348251Y260751D01*
Y261751D01*
X348750Y262251D01*
X349250D01*
X349750Y261751D01*
Y261251D01*
Y261751D01*
X350250Y262251D01*
X350750D01*
X351250Y261751D01*
Y260751D01*
X350750Y260251D01*
X351250Y263251D02*
Y264250D01*
Y263750D01*
X348251D01*
X348750Y263251D01*
X351749Y265750D02*
Y267749D01*
X351250Y268749D02*
X348251D01*
X349250Y269748D01*
X348251Y270748D01*
X351250D01*
Y271748D02*
Y272747D01*
Y272248D01*
X348251D01*
X348750Y271748D01*
X477750Y253253D02*
X474751D01*
Y254752D01*
X475250Y255252D01*
X476250D01*
X476750Y254752D01*
Y253253D01*
Y254252D02*
X477750Y255252D01*
X475250Y256252D02*
X474751Y256751D01*
Y257751D01*
X475250Y258251D01*
X475750D01*
X476250Y257751D01*
Y257251D01*
Y257751D01*
X476750Y258251D01*
X477250D01*
X477750Y257751D01*
Y256751D01*
X477250Y256252D01*
X477750Y259251D02*
Y260250D01*
Y259751D01*
X474751D01*
X475250Y259251D01*
X478249Y261750D02*
Y263749D01*
X477750Y264749D02*
X474751D01*
X475750Y265749D01*
X474751Y266748D01*
X477750D01*
X475250Y267748D02*
X474751Y268248D01*
Y269248D01*
X475250Y269747D01*
X477250D01*
X477750Y269248D01*
Y268248D01*
X477250Y267748D01*
X475250D01*
X174503Y259250D02*
Y262249D01*
X176002D01*
X176502Y261750D01*
Y260750D01*
X176002Y260250D01*
X174503D01*
X175502D02*
X176502Y259250D01*
X177502Y261750D02*
X178002Y262249D01*
X179001D01*
X179501Y261750D01*
Y261250D01*
X179001Y260750D01*
X178501D01*
X179001D01*
X179501Y260250D01*
Y259750D01*
X179001Y259250D01*
X178002D01*
X177502Y259750D01*
X180501Y261750D02*
X181001Y262249D01*
X182000D01*
X182500Y261750D01*
Y259750D01*
X182000Y259250D01*
X181001D01*
X180501Y259750D01*
Y261750D01*
X183500Y258751D02*
X185499D01*
X186499Y259250D02*
Y262249D01*
X187499Y261250D01*
X188498Y262249D01*
Y259250D01*
X191497D02*
X189498D01*
X191497Y261250D01*
Y261750D01*
X190997Y262249D01*
X189998D01*
X189498Y261750D01*
X287250Y256503D02*
X284251D01*
Y258002D01*
X284750Y258502D01*
X285750D01*
X286250Y258002D01*
Y256503D01*
Y257502D02*
X287250Y258502D01*
X284750Y259502D02*
X284251Y260001D01*
Y261001D01*
X284750Y261501D01*
X285250D01*
X285750Y261001D01*
Y260501D01*
Y261001D01*
X286250Y261501D01*
X286750D01*
X287250Y261001D01*
Y260001D01*
X286750Y259502D01*
X284750Y262501D02*
X284251Y263000D01*
Y264000D01*
X284750Y264500D01*
X286750D01*
X287250Y264000D01*
Y263000D01*
X286750Y262501D01*
X284750D01*
X287749Y265500D02*
Y267499D01*
X287250Y268499D02*
X284251D01*
X285250Y269498D01*
X284251Y270498D01*
X287250D01*
Y271498D02*
Y272497D01*
Y271998D01*
X284251D01*
X284750Y271498D01*
X413750Y255003D02*
X410751D01*
Y256502D01*
X411250Y257002D01*
X412250D01*
X412750Y256502D01*
Y255003D01*
Y256002D02*
X413750Y257002D01*
X411250Y258002D02*
X410751Y258502D01*
Y259501D01*
X411250Y260001D01*
X411750D01*
X412250Y259501D01*
Y259001D01*
Y259501D01*
X412750Y260001D01*
X413250D01*
X413750Y259501D01*
Y258502D01*
X413250Y258002D01*
X411250Y261001D02*
X410751Y261501D01*
Y262500D01*
X411250Y263000D01*
X413250D01*
X413750Y262500D01*
Y261501D01*
X413250Y261001D01*
X411250D01*
X414249Y264000D02*
Y265999D01*
X413750Y266999D02*
X410751D01*
X411750Y267999D01*
X410751Y268998D01*
X413750D01*
X411250Y269998D02*
X410751Y270498D01*
Y271497D01*
X411250Y271997D01*
X413250D01*
X413750Y271497D01*
Y270498D01*
X413250Y269998D01*
X411250D01*
X194003Y259250D02*
Y262249D01*
X195502D01*
X196002Y261750D01*
Y260750D01*
X195502Y260250D01*
X194003D01*
X195002D02*
X196002Y259250D01*
X199001D02*
X197002D01*
X199001Y261250D01*
Y261750D01*
X198501Y262249D01*
X197502D01*
X197002Y261750D01*
X200001Y259750D02*
X200501Y259250D01*
X201500D01*
X202000Y259750D01*
Y261750D01*
X201500Y262249D01*
X200501D01*
X200001Y261750D01*
Y261250D01*
X200501Y260750D01*
X202000D01*
X203000Y258751D02*
X204999D01*
X205999Y259250D02*
Y262249D01*
X206998Y261250D01*
X207998Y262249D01*
Y259250D01*
X210997D02*
X208998D01*
X210997Y261250D01*
Y261750D01*
X210497Y262249D01*
X209498D01*
X208998Y261750D01*
X319003Y258250D02*
Y261249D01*
X320502D01*
X321002Y260750D01*
Y259750D01*
X320502Y259250D01*
X319003D01*
X320002D02*
X321002Y258250D01*
X324001D02*
X322002D01*
X324001Y260250D01*
Y260750D01*
X323501Y261249D01*
X322501D01*
X322002Y260750D01*
X325001Y258750D02*
X325500Y258250D01*
X326500D01*
X327000Y258750D01*
Y260750D01*
X326500Y261249D01*
X325500D01*
X325001Y260750D01*
Y260250D01*
X325500Y259750D01*
X327000D01*
X328000Y257751D02*
X329999D01*
X330999Y258250D02*
Y261249D01*
X331998Y260250D01*
X332998Y261249D01*
Y258250D01*
X333998D02*
X334997D01*
X334498D01*
Y261249D01*
X333998Y260750D01*
X445503Y256750D02*
Y259749D01*
X447002D01*
X447502Y259250D01*
Y258250D01*
X447002Y257750D01*
X445503D01*
X446502D02*
X447502Y256750D01*
X450501D02*
X448502D01*
X450501Y258750D01*
Y259250D01*
X450001Y259749D01*
X449002D01*
X448502Y259250D01*
X451501Y257250D02*
X452001Y256750D01*
X453000D01*
X453500Y257250D01*
Y259250D01*
X453000Y259749D01*
X452001D01*
X451501Y259250D01*
Y258750D01*
X452001Y258250D01*
X453500D01*
X454500Y256251D02*
X456499D01*
X457499Y256750D02*
Y259749D01*
X458498Y258750D01*
X459498Y259749D01*
Y256750D01*
X460498Y259250D02*
X460998Y259749D01*
X461997D01*
X462497Y259250D01*
Y257250D01*
X461997Y256750D01*
X460998D01*
X460498Y257250D01*
Y259250D01*
X174503Y255250D02*
Y258249D01*
X176002D01*
X176502Y257750D01*
Y256750D01*
X176002Y256250D01*
X174503D01*
X175502D02*
X176502Y255250D01*
X179501D02*
X177502D01*
X179501Y257250D01*
Y257750D01*
X179001Y258249D01*
X178002D01*
X177502Y257750D01*
X180501D02*
X181001Y258249D01*
X182000D01*
X182500Y257750D01*
Y257250D01*
X182000Y256750D01*
X182500Y256250D01*
Y255750D01*
X182000Y255250D01*
X181001D01*
X180501Y255750D01*
Y256250D01*
X181001Y256750D01*
X180501Y257250D01*
Y257750D01*
X181001Y256750D02*
X182000D01*
X183500Y254751D02*
X185499D01*
X186499Y255250D02*
Y258249D01*
X187499Y257250D01*
X188498Y258249D01*
Y255250D01*
X191497D02*
X189498D01*
X191497Y257250D01*
Y257750D01*
X190997Y258249D01*
X189998D01*
X189498Y257750D01*
X299503Y258250D02*
Y261249D01*
X301002D01*
X301502Y260750D01*
Y259750D01*
X301002Y259250D01*
X299503D01*
X300502D02*
X301502Y258250D01*
X304501D02*
X302502D01*
X304501Y260250D01*
Y260750D01*
X304001Y261249D01*
X303001D01*
X302502Y260750D01*
X305501D02*
X306000Y261249D01*
X307000D01*
X307500Y260750D01*
Y260250D01*
X307000Y259750D01*
X307500Y259250D01*
Y258750D01*
X307000Y258250D01*
X306000D01*
X305501Y258750D01*
Y259250D01*
X306000Y259750D01*
X305501Y260250D01*
Y260750D01*
X306000Y259750D02*
X307000D01*
X308500Y257751D02*
X310499D01*
X311499Y258250D02*
Y261249D01*
X312498Y260250D01*
X313498Y261249D01*
Y258250D01*
X314498D02*
X315497D01*
X314998D01*
Y261249D01*
X314498Y260750D01*
X426503Y256750D02*
Y259749D01*
X428002D01*
X428502Y259250D01*
Y258250D01*
X428002Y257750D01*
X426503D01*
X427502D02*
X428502Y256750D01*
X431501D02*
X429502D01*
X431501Y258750D01*
Y259250D01*
X431001Y259749D01*
X430002D01*
X429502Y259250D01*
X432501D02*
X433001Y259749D01*
X434000D01*
X434500Y259250D01*
Y258750D01*
X434000Y258250D01*
X434500Y257750D01*
Y257250D01*
X434000Y256750D01*
X433001D01*
X432501Y257250D01*
Y257750D01*
X433001Y258250D01*
X432501Y258750D01*
Y259250D01*
X433001Y258250D02*
X434000D01*
X435500Y256251D02*
X437499D01*
X438499Y256750D02*
Y259749D01*
X439499Y258750D01*
X440498Y259749D01*
Y256750D01*
X441498Y259250D02*
X441998Y259749D01*
X442997D01*
X443497Y259250D01*
Y257250D01*
X442997Y256750D01*
X441998D01*
X441498Y257250D01*
Y259250D01*
X158503Y315750D02*
Y318749D01*
X160002D01*
X160502Y318250D01*
Y317250D01*
X160002Y316750D01*
X158503D01*
X159502D02*
X160502Y315750D01*
X163501D02*
X161502D01*
X163501Y317750D01*
Y318250D01*
X163001Y318749D01*
X162002D01*
X161502Y318250D01*
X164501Y318749D02*
X166500D01*
Y318250D01*
X164501Y316250D01*
Y315750D01*
X167500Y315251D02*
X169499D01*
X170499Y315750D02*
Y318749D01*
X171499Y317750D01*
X172498Y318749D01*
Y315750D01*
X175497D02*
X173498D01*
X175497Y317750D01*
Y318250D01*
X174997Y318749D01*
X173998D01*
X173498Y318250D01*
X287503Y315250D02*
Y318249D01*
X289002D01*
X289502Y317750D01*
Y316750D01*
X289002Y316250D01*
X287503D01*
X288502D02*
X289502Y315250D01*
X292501D02*
X290502D01*
X292501Y317250D01*
Y317750D01*
X292001Y318249D01*
X291002D01*
X290502Y317750D01*
X293501Y318249D02*
X295500D01*
Y317750D01*
X293501Y315750D01*
Y315250D01*
X296500Y314751D02*
X298499D01*
X299499Y315250D02*
Y318249D01*
X300498Y317250D01*
X301498Y318249D01*
Y315250D01*
X302498D02*
X303497D01*
X302998D01*
Y318249D01*
X302498Y317750D01*
X412003Y314750D02*
Y317749D01*
X413502D01*
X414002Y317250D01*
Y316250D01*
X413502Y315750D01*
X412003D01*
X413002D02*
X414002Y314750D01*
X417001D02*
X415002D01*
X417001Y316750D01*
Y317250D01*
X416501Y317749D01*
X415502D01*
X415002Y317250D01*
X418001Y317749D02*
X420000D01*
Y317250D01*
X418001Y315250D01*
Y314750D01*
X421000Y314251D02*
X422999D01*
X423999Y314750D02*
Y317749D01*
X424999Y316750D01*
X425998Y317749D01*
Y314750D01*
X426998Y317250D02*
X427498Y317749D01*
X428497D01*
X428997Y317250D01*
Y315250D01*
X428497Y314750D01*
X427498D01*
X426998Y315250D01*
Y317250D01*
X246250Y303503D02*
X243251D01*
Y305002D01*
X243750Y305502D01*
X244750D01*
X245250Y305002D01*
Y303503D01*
Y304502D02*
X246250Y305502D01*
Y308501D02*
Y306502D01*
X244250Y308501D01*
X243750D01*
X243251Y308001D01*
Y307002D01*
X243750Y306502D01*
X243251Y311500D02*
X243750Y310501D01*
X244750Y309501D01*
X245750D01*
X246250Y310001D01*
Y311000D01*
X245750Y311500D01*
X245250D01*
X244750Y311000D01*
Y309501D01*
X246749Y312500D02*
Y314499D01*
X246250Y315499D02*
X243251D01*
X244250Y316498D01*
X243251Y317498D01*
X246250D01*
Y320497D02*
Y318498D01*
X244250Y320497D01*
X243750D01*
X243251Y319997D01*
Y318998D01*
X243750Y318498D01*
X370250Y303503D02*
X367251D01*
Y305002D01*
X367750Y305502D01*
X368750D01*
X369250Y305002D01*
Y303503D01*
Y304502D02*
X370250Y305502D01*
Y308501D02*
Y306502D01*
X368250Y308501D01*
X367750D01*
X367251Y308001D01*
Y307001D01*
X367750Y306502D01*
X367251Y311500D02*
X367750Y310500D01*
X368750Y309501D01*
X369750D01*
X370250Y310000D01*
Y311000D01*
X369750Y311500D01*
X369250D01*
X368750Y311000D01*
Y309501D01*
X370749Y312500D02*
Y314499D01*
X370250Y315499D02*
X367251D01*
X368250Y316498D01*
X367251Y317498D01*
X370250D01*
Y318498D02*
Y319497D01*
Y318998D01*
X367251D01*
X367750Y318498D01*
X497750Y302003D02*
X494751D01*
Y303502D01*
X495250Y304002D01*
X496250D01*
X496750Y303502D01*
Y302003D01*
Y303002D02*
X497750Y304002D01*
Y307001D02*
Y305002D01*
X495750Y307001D01*
X495250D01*
X494751Y306501D01*
Y305502D01*
X495250Y305002D01*
X494751Y310000D02*
X495250Y309000D01*
X496250Y308001D01*
X497250D01*
X497750Y308501D01*
Y309500D01*
X497250Y310000D01*
X496750D01*
X496250Y309500D01*
Y308001D01*
X498249Y311000D02*
Y312999D01*
X497750Y313999D02*
X494751D01*
X495750Y314999D01*
X494751Y315998D01*
X497750D01*
X495250Y316998D02*
X494751Y317498D01*
Y318497D01*
X495250Y318997D01*
X497250D01*
X497750Y318497D01*
Y317498D01*
X497250Y316998D01*
X495250D01*
X236750Y275503D02*
X233751D01*
Y277002D01*
X234250Y277502D01*
X235250D01*
X235750Y277002D01*
Y275503D01*
Y276502D02*
X236750Y277502D01*
Y280501D02*
Y278502D01*
X234750Y280501D01*
X234250D01*
X233751Y280001D01*
Y279002D01*
X234250Y278502D01*
X233751Y283500D02*
Y281501D01*
X235250D01*
X234750Y282501D01*
Y283000D01*
X235250Y283500D01*
X236250D01*
X236750Y283000D01*
Y282001D01*
X236250Y281501D01*
X237249Y284500D02*
Y286499D01*
X236750Y287499D02*
X233751D01*
X234750Y288498D01*
X233751Y289498D01*
X236750D01*
Y292497D02*
Y290498D01*
X234750Y292497D01*
X234250D01*
X233751Y291997D01*
Y290998D01*
X234250Y290498D01*
X362750Y275003D02*
X359751D01*
Y276502D01*
X360250Y277002D01*
X361250D01*
X361750Y276502D01*
Y275003D01*
Y276002D02*
X362750Y277002D01*
Y280001D02*
Y278002D01*
X360750Y280001D01*
X360250D01*
X359751Y279501D01*
Y278502D01*
X360250Y278002D01*
X359751Y283000D02*
Y281001D01*
X361250D01*
X360750Y282000D01*
Y282500D01*
X361250Y283000D01*
X362250D01*
X362750Y282500D01*
Y281501D01*
X362250Y281001D01*
X363249Y284000D02*
Y285999D01*
X362750Y286999D02*
X359751D01*
X360750Y287998D01*
X359751Y288998D01*
X362750D01*
Y289998D02*
Y290997D01*
Y290498D01*
X359751D01*
X360250Y289998D01*
X489250Y274003D02*
X486251D01*
Y275502D01*
X486750Y276002D01*
X487750D01*
X488250Y275502D01*
Y274003D01*
Y275002D02*
X489250Y276002D01*
Y279001D02*
Y277002D01*
X487250Y279001D01*
X486750D01*
X486251Y278501D01*
Y277502D01*
X486750Y277002D01*
X486251Y282000D02*
Y280001D01*
X487750D01*
X487250Y281000D01*
Y281500D01*
X487750Y282000D01*
X488750D01*
X489250Y281500D01*
Y280501D01*
X488750Y280001D01*
X489749Y283000D02*
Y284999D01*
X489250Y285999D02*
X486251D01*
X487250Y286999D01*
X486251Y287998D01*
X489250D01*
X486750Y288998D02*
X486251Y289498D01*
Y290497D01*
X486750Y290997D01*
X488750D01*
X489250Y290497D01*
Y289498D01*
X488750Y288998D01*
X486750D01*
X251250Y303503D02*
X248251D01*
Y305002D01*
X248750Y305502D01*
X249750D01*
X250250Y305002D01*
Y303503D01*
Y304502D02*
X251250Y305502D01*
Y308501D02*
Y306502D01*
X249250Y308501D01*
X248750D01*
X248251Y308001D01*
Y307002D01*
X248750Y306502D01*
X251250Y311000D02*
X248251D01*
X249750Y309501D01*
Y311500D01*
X251749Y312500D02*
Y314499D01*
X251250Y315499D02*
X248251D01*
X249250Y316498D01*
X248251Y317498D01*
X251250D01*
Y320497D02*
Y318498D01*
X249250Y320497D01*
X248750D01*
X248251Y319997D01*
Y318998D01*
X248750Y318498D01*
X375250Y303503D02*
X372251D01*
Y305002D01*
X372750Y305502D01*
X373750D01*
X374250Y305002D01*
Y303503D01*
Y304502D02*
X375250Y305502D01*
Y308501D02*
Y306502D01*
X373250Y308501D01*
X372750D01*
X372251Y308001D01*
Y307001D01*
X372750Y306502D01*
X375250Y311000D02*
X372251D01*
X373750Y309501D01*
Y311500D01*
X375749Y312500D02*
Y314499D01*
X375250Y315499D02*
X372251D01*
X373250Y316498D01*
X372251Y317498D01*
X375250D01*
Y318498D02*
Y319497D01*
Y318998D01*
X372251D01*
X372750Y318498D01*
X502250Y302003D02*
X499251D01*
Y303502D01*
X499750Y304002D01*
X500750D01*
X501250Y303502D01*
Y302003D01*
Y303002D02*
X502250Y304002D01*
Y307001D02*
Y305002D01*
X500250Y307001D01*
X499750D01*
X499251Y306501D01*
Y305502D01*
X499750Y305002D01*
X502250Y309500D02*
X499251D01*
X500750Y308001D01*
Y310000D01*
X502749Y311000D02*
Y312999D01*
X502250Y313999D02*
X499251D01*
X500250Y314999D01*
X499251Y315998D01*
X502250D01*
X499750Y316998D02*
X499251Y317498D01*
Y318497D01*
X499750Y318997D01*
X501750D01*
X502250Y318497D01*
Y317498D01*
X501750Y316998D01*
X499750D01*
X131750Y286003D02*
X128751D01*
Y287502D01*
X129250Y288002D01*
X130250D01*
X130750Y287502D01*
Y286003D01*
Y287002D02*
X131750Y288002D01*
Y291001D02*
Y289002D01*
X129750Y291001D01*
X129250D01*
X128751Y290501D01*
Y289502D01*
X129250Y289002D01*
Y292001D02*
X128751Y292501D01*
Y293500D01*
X129250Y294000D01*
X129750D01*
X130250Y293500D01*
Y293001D01*
Y293500D01*
X130750Y294000D01*
X131250D01*
X131750Y293500D01*
Y292501D01*
X131250Y292001D01*
X132249Y295000D02*
Y296999D01*
X131750Y297999D02*
X128751D01*
X129750Y298998D01*
X128751Y299998D01*
X131750D01*
Y302997D02*
Y300998D01*
X129750Y302997D01*
X129250D01*
X128751Y302497D01*
Y301498D01*
X129250Y300998D01*
X256750Y285503D02*
X253751D01*
Y287002D01*
X254250Y287502D01*
X255250D01*
X255750Y287002D01*
Y285503D01*
Y286502D02*
X256750Y287502D01*
Y290501D02*
Y288502D01*
X254750Y290501D01*
X254250D01*
X253751Y290001D01*
Y289001D01*
X254250Y288502D01*
Y291501D02*
X253751Y292001D01*
Y293000D01*
X254250Y293500D01*
X254750D01*
X255250Y293000D01*
Y292500D01*
Y293000D01*
X255750Y293500D01*
X256250D01*
X256750Y293000D01*
Y292001D01*
X256250Y291501D01*
X257249Y294500D02*
Y296499D01*
X256750Y297499D02*
X253751D01*
X254750Y298498D01*
X253751Y299498D01*
X256750D01*
Y300498D02*
Y301497D01*
Y300998D01*
X253751D01*
X254250Y300498D01*
X383750Y285503D02*
X380751D01*
Y287002D01*
X381250Y287502D01*
X382250D01*
X382750Y287002D01*
Y285503D01*
Y286502D02*
X383750Y287502D01*
Y290501D02*
Y288502D01*
X381750Y290501D01*
X381250D01*
X380751Y290001D01*
Y289002D01*
X381250Y288502D01*
Y291501D02*
X380751Y292001D01*
Y293000D01*
X381250Y293500D01*
X381750D01*
X382250Y293000D01*
Y292500D01*
Y293000D01*
X382750Y293500D01*
X383250D01*
X383750Y293000D01*
Y292001D01*
X383250Y291501D01*
X384249Y294500D02*
Y296499D01*
X383750Y297499D02*
X380751D01*
X381750Y298499D01*
X380751Y299498D01*
X383750D01*
X381250Y300498D02*
X380751Y300998D01*
Y301997D01*
X381250Y302497D01*
X383250D01*
X383750Y301997D01*
Y300998D01*
X383250Y300498D01*
X381250D01*
X150250Y275003D02*
X147250D01*
Y276502D01*
X147750Y277002D01*
X148750D01*
X149250Y276502D01*
Y275003D01*
Y276002D02*
X150250Y277002D01*
Y280001D02*
Y278002D01*
X148250Y280001D01*
X147750D01*
X147250Y279501D01*
Y278502D01*
X147750Y278002D01*
X150250Y283000D02*
Y281001D01*
X148250Y283000D01*
X147750D01*
X147250Y282500D01*
Y281501D01*
X147750Y281001D01*
X150749Y284000D02*
Y285999D01*
X150250Y286999D02*
X147250D01*
X148250Y287999D01*
X147250Y288998D01*
X150250D01*
Y291997D02*
Y289998D01*
X148250Y291997D01*
X147750D01*
X147250Y291497D01*
Y290498D01*
X147750Y289998D01*
X276250Y275003D02*
X273251D01*
Y276502D01*
X273750Y277002D01*
X274750D01*
X275250Y276502D01*
Y275003D01*
Y276002D02*
X276250Y277002D01*
Y280001D02*
Y278002D01*
X274250Y280001D01*
X273750D01*
X273251Y279501D01*
Y278502D01*
X273750Y278002D01*
X276250Y283000D02*
Y281001D01*
X274250Y283000D01*
X273750D01*
X273251Y282500D01*
Y281501D01*
X273750Y281001D01*
X276749Y284000D02*
Y285999D01*
X276250Y286999D02*
X273251D01*
X274250Y287998D01*
X273251Y288998D01*
X276250D01*
Y289998D02*
Y290997D01*
Y290498D01*
X273251D01*
X273750Y289998D01*
X402750Y274003D02*
X399751D01*
Y275502D01*
X400250Y276002D01*
X401250D01*
X401750Y275502D01*
Y274003D01*
Y275002D02*
X402750Y276002D01*
Y279001D02*
Y277002D01*
X400750Y279001D01*
X400250D01*
X399751Y278501D01*
Y277502D01*
X400250Y277002D01*
X402750Y282000D02*
Y280001D01*
X400750Y282000D01*
X400250D01*
X399751Y281500D01*
Y280501D01*
X400250Y280001D01*
X403249Y283000D02*
Y284999D01*
X402750Y285999D02*
X399751D01*
X400750Y286999D01*
X399751Y287998D01*
X402750D01*
X400250Y288998D02*
X399751Y289498D01*
Y290497D01*
X400250Y290997D01*
X402250D01*
X402750Y290497D01*
Y289498D01*
X402250Y288998D01*
X400250D01*
X689501Y226000D02*
Y228999D01*
X691001D01*
X691501Y228500D01*
Y227500D01*
X691001Y227000D01*
X689501D01*
X690501D02*
X691501Y226000D01*
X694499D02*
X692500D01*
X694499Y228000D01*
Y228500D01*
X694000Y228999D01*
X693000D01*
X692500Y228500D01*
X695499Y226000D02*
X696499D01*
X695999D01*
Y228999D01*
X695499Y228500D01*
X696499Y243001D02*
X693501D01*
Y244501D01*
X694000Y245001D01*
X695000D01*
X695500Y244501D01*
Y243001D01*
Y244001D02*
X696499Y245001D01*
Y248000D02*
Y246000D01*
X694500Y248000D01*
X694000D01*
X693501Y247500D01*
Y246500D01*
X694000Y246000D01*
Y248999D02*
X693501Y249499D01*
Y250499D01*
X694000Y250999D01*
X696000D01*
X696499Y250499D01*
Y249499D01*
X696000Y248999D01*
X694000D01*
X723499Y238251D02*
X720501D01*
Y239751D01*
X721000Y240251D01*
X722000D01*
X722500Y239751D01*
Y238251D01*
Y239251D02*
X723499Y240251D01*
Y241250D02*
Y242250D01*
Y241750D01*
X720501D01*
X721000Y241250D01*
X723000Y243749D02*
X723499Y244249D01*
Y245249D01*
X723000Y245749D01*
X721000D01*
X720501Y245249D01*
Y244249D01*
X721000Y243749D01*
X721500D01*
X722000Y244249D01*
Y245749D01*
X701500Y237751D02*
X698500D01*
Y239251D01*
X699000Y239751D01*
X700000D01*
X700500Y239251D01*
Y237751D01*
Y238751D02*
X701500Y239751D01*
Y240750D02*
Y241750D01*
Y241250D01*
X698500D01*
X699000Y240750D01*
Y243249D02*
X698500Y243749D01*
Y244749D01*
X699000Y245249D01*
X699500D01*
X700000Y244749D01*
X700500Y245249D01*
X701000D01*
X701500Y244749D01*
Y243749D01*
X701000Y243249D01*
X700500D01*
X700000Y243749D01*
X699500Y243249D01*
X699000D01*
X700000Y243749D02*
Y244749D01*
X723499Y229251D02*
X720501D01*
Y230751D01*
X721000Y231251D01*
X722000D01*
X722500Y230751D01*
Y229251D01*
Y230251D02*
X723499Y231251D01*
Y232250D02*
Y233250D01*
Y232750D01*
X720501D01*
X721000Y232250D01*
X720501Y234749D02*
Y236749D01*
X721000D01*
X723000Y234749D01*
X723499D01*
X701500Y228251D02*
X698500D01*
Y229751D01*
X699000Y230251D01*
X700000D01*
X700500Y229751D01*
Y228251D01*
Y229251D02*
X701500Y230251D01*
Y231250D02*
Y232250D01*
Y231750D01*
X698500D01*
X699000Y231250D01*
X698500Y235749D02*
X699000Y234749D01*
X700000Y233749D01*
X701000D01*
X701500Y234249D01*
Y235249D01*
X701000Y235749D01*
X700500D01*
X700000Y235249D01*
Y233749D01*
X660751Y232501D02*
Y235500D01*
X662251D01*
X662751Y235000D01*
Y234000D01*
X662251Y233500D01*
X660751D01*
X661751D02*
X662751Y232501D01*
X663750D02*
X664750D01*
X664250D01*
Y235500D01*
X663750Y235000D01*
X668249Y235500D02*
X666249D01*
Y234000D01*
X667249Y234500D01*
X667749D01*
X668249Y234000D01*
Y233000D01*
X667749Y232501D01*
X666749D01*
X666249Y233000D01*
X658499Y245602D02*
X655501D01*
Y247101D01*
X656000Y247601D01*
X657000D01*
X657500Y247101D01*
Y245602D01*
Y246601D02*
X658499Y247601D01*
Y248601D02*
Y249600D01*
Y249100D01*
X655501D01*
X656000Y248601D01*
X658499Y252599D02*
X655501D01*
X657000Y251100D01*
Y253099D01*
X709501Y388500D02*
Y391499D01*
X711000D01*
X711500Y391000D01*
Y390000D01*
X711000Y389500D01*
X709501D01*
X710500D02*
X711500Y388500D01*
X714499D02*
X712500D01*
X714499Y390500D01*
Y391000D01*
X713999Y391499D01*
X713000D01*
X712500Y391000D01*
X710001Y393001D02*
Y396000D01*
X711500D01*
X712000Y395500D01*
Y394500D01*
X711500Y394000D01*
X710001D01*
X711000D02*
X712000Y393001D01*
X713000D02*
X713999D01*
X713499D01*
Y396000D01*
X713000Y395500D01*
X154250Y277002D02*
X152250D01*
X151751Y276502D01*
Y275502D01*
X152250Y275002D01*
X154250D01*
X154750Y275502D01*
Y276502D01*
X153750Y276002D02*
X154750Y277002D01*
Y276502D02*
X154250Y277002D01*
X152250Y278001D02*
X151751Y278501D01*
Y279501D01*
X152250Y280001D01*
X152750D01*
X153250Y279501D01*
X153750Y280001D01*
X154250D01*
X154750Y279501D01*
Y278501D01*
X154250Y278001D01*
X153750D01*
X153250Y278501D01*
X152750Y278001D01*
X152250D01*
X153250Y278501D02*
Y279501D01*
X155249Y281000D02*
Y283000D01*
X154750Y283999D02*
X151751D01*
X152750Y284999D01*
X151751Y285999D01*
X154750D01*
Y288998D02*
Y286998D01*
X152750Y288998D01*
X152250D01*
X151751Y288498D01*
Y287498D01*
X152250Y286998D01*
X280250Y277502D02*
X278250D01*
X277751Y277002D01*
Y276002D01*
X278250Y275502D01*
X280250D01*
X280750Y276002D01*
Y277002D01*
X279750Y276502D02*
X280750Y277502D01*
Y277002D02*
X280250Y277502D01*
X278250Y278501D02*
X277751Y279001D01*
Y280001D01*
X278250Y280501D01*
X278750D01*
X279250Y280001D01*
X279750Y280501D01*
X280250D01*
X280750Y280001D01*
Y279001D01*
X280250Y278501D01*
X279750D01*
X279250Y279001D01*
X278750Y278501D01*
X278250D01*
X279250Y279001D02*
Y280001D01*
X281249Y281500D02*
Y283500D01*
X280750Y284499D02*
X277751D01*
X278750Y285499D01*
X277751Y286498D01*
X280750D01*
Y287498D02*
Y288498D01*
Y287998D01*
X277751D01*
X278250Y287498D01*
X407250Y278002D02*
X405250D01*
X404751Y277502D01*
Y276502D01*
X405250Y276002D01*
X407250D01*
X407750Y276502D01*
Y277502D01*
X406750Y277002D02*
X407750Y278002D01*
Y277502D02*
X407250Y278002D01*
X405250Y279001D02*
X404751Y279501D01*
Y280501D01*
X405250Y281001D01*
X405750D01*
X406250Y280501D01*
X406750Y281001D01*
X407250D01*
X407750Y280501D01*
Y279501D01*
X407250Y279001D01*
X406750D01*
X406250Y279501D01*
X405750Y279001D01*
X405250D01*
X406250Y279501D02*
Y280501D01*
X408249Y282000D02*
Y284000D01*
X407750Y284999D02*
X404751D01*
X405750Y285999D01*
X404751Y286999D01*
X407750D01*
X405250Y287998D02*
X404751Y288498D01*
Y289498D01*
X405250Y289998D01*
X407250D01*
X407750Y289498D01*
Y288498D01*
X407250Y287998D01*
X405250D01*
X231750Y277502D02*
X229750D01*
X229251Y277002D01*
Y276002D01*
X229750Y275502D01*
X231750D01*
X232250Y276002D01*
Y277002D01*
X231250Y276502D02*
X232250Y277502D01*
Y277002D02*
X231750Y277502D01*
X229251Y278501D02*
Y280501D01*
X229750D01*
X231750Y278501D01*
X232250D01*
X232749Y281500D02*
Y283500D01*
X232250Y284499D02*
X229251D01*
X230250Y285499D01*
X229251Y286499D01*
X232250D01*
Y289498D02*
Y287498D01*
X230250Y289498D01*
X229750D01*
X229251Y288998D01*
Y287998D01*
X229750Y287498D01*
X356750Y279502D02*
X354750D01*
X354251Y279002D01*
Y278002D01*
X354750Y277502D01*
X356750D01*
X357250Y278002D01*
Y279002D01*
X356250Y278502D02*
X357250Y279502D01*
Y279002D02*
X356750Y279502D01*
X354251Y280501D02*
Y282501D01*
X354750D01*
X356750Y280501D01*
X357250D01*
X357749Y283500D02*
Y285500D01*
X357250Y286499D02*
X354251D01*
X355250Y287499D01*
X354251Y288498D01*
X357250D01*
Y289498D02*
Y290498D01*
Y289998D01*
X354251D01*
X354750Y289498D01*
X483750Y278002D02*
X481750D01*
X481251Y277502D01*
Y276502D01*
X481750Y276002D01*
X483750D01*
X484250Y276502D01*
Y277502D01*
X483250Y277002D02*
X484250Y278002D01*
Y277502D02*
X483750Y278002D01*
X481251Y279001D02*
Y281001D01*
X481750D01*
X483750Y279001D01*
X484250D01*
X484749Y282000D02*
Y284000D01*
X484250Y284999D02*
X481251D01*
X482250Y285999D01*
X481251Y286999D01*
X484250D01*
X481750Y287998D02*
X481251Y288498D01*
Y289498D01*
X481750Y289998D01*
X483750D01*
X484250Y289498D01*
Y288498D01*
X483750Y287998D01*
X481750D01*
X179002Y318250D02*
Y320250D01*
X178502Y320749D01*
X177502D01*
X177002Y320250D01*
Y318250D01*
X177502Y317750D01*
X178502D01*
X178002Y318750D02*
X179002Y317750D01*
X178502D02*
X179002Y318250D01*
X182001Y320749D02*
X181001Y320250D01*
X180001Y319250D01*
Y318250D01*
X180501Y317750D01*
X181501D01*
X182001Y318250D01*
Y318750D01*
X181501Y319250D01*
X180001D01*
X183000Y317251D02*
X185000D01*
X185999Y317750D02*
Y320749D01*
X186999Y319750D01*
X187999Y320749D01*
Y317750D01*
X190998D02*
X188998D01*
X190998Y319750D01*
Y320250D01*
X190498Y320749D01*
X189498D01*
X188998Y320250D01*
X308502Y318250D02*
Y320250D01*
X308002Y320749D01*
X307002D01*
X306502Y320250D01*
Y318250D01*
X307002Y317750D01*
X308002D01*
X307502Y318750D02*
X308502Y317750D01*
X308002D02*
X308502Y318250D01*
X311501Y320749D02*
X310501Y320250D01*
X309501Y319250D01*
Y318250D01*
X310001Y317750D01*
X311001D01*
X311501Y318250D01*
Y318750D01*
X311001Y319250D01*
X309501D01*
X312500Y317251D02*
X314499D01*
X315499Y317750D02*
Y320749D01*
X316499Y319750D01*
X317498Y320749D01*
Y317750D01*
X318498D02*
X319498D01*
X318998D01*
Y320749D01*
X318498Y320250D01*
X433002Y316250D02*
Y318250D01*
X432502Y318749D01*
X431502D01*
X431002Y318250D01*
Y316250D01*
X431502Y315750D01*
X432502D01*
X432002Y316750D02*
X433002Y315750D01*
X432502D02*
X433002Y316250D01*
X436001Y318749D02*
X435001Y318250D01*
X434001Y317250D01*
Y316250D01*
X434501Y315750D01*
X435501D01*
X436001Y316250D01*
Y316750D01*
X435501Y317250D01*
X434001D01*
X437000Y315251D02*
X439000D01*
X439999Y315750D02*
Y318749D01*
X440999Y317750D01*
X441999Y318749D01*
Y315750D01*
X442998Y318250D02*
X443498Y318749D01*
X444498D01*
X444998Y318250D01*
Y316250D01*
X444498Y315750D01*
X443498D01*
X442998Y316250D01*
Y318250D01*
X201002Y318250D02*
Y320250D01*
X200502Y320749D01*
X199502D01*
X199002Y320250D01*
Y318250D01*
X199502Y317750D01*
X200502D01*
X200002Y318750D02*
X201002Y317750D01*
X200502D02*
X201002Y318250D01*
X204001Y320749D02*
X202001D01*
Y319250D01*
X203001Y319750D01*
X203501D01*
X204001Y319250D01*
Y318250D01*
X203501Y317750D01*
X202501D01*
X202001Y318250D01*
X205000Y317251D02*
X207000D01*
X207999Y317750D02*
Y320749D01*
X208999Y319750D01*
X209999Y320749D01*
Y317750D01*
X212998D02*
X210998D01*
X212998Y319750D01*
Y320250D01*
X212498Y320749D01*
X211498D01*
X210998Y320250D01*
X336502Y316750D02*
Y318750D01*
X336002Y319249D01*
X335002D01*
X334502Y318750D01*
Y316750D01*
X335002Y316250D01*
X336002D01*
X335502Y317250D02*
X336502Y316250D01*
X336002D02*
X336502Y316750D01*
X339500Y319249D02*
X337501D01*
Y317750D01*
X338501Y318250D01*
X339001D01*
X339500Y317750D01*
Y316750D01*
X339001Y316250D01*
X338001D01*
X337501Y316750D01*
X340500Y315751D02*
X342499D01*
X343499Y316250D02*
Y319249D01*
X344499Y318250D01*
X345498Y319249D01*
Y316250D01*
X346498D02*
X347498D01*
X346998D01*
Y319249D01*
X346498Y318750D01*
X454502Y316250D02*
Y318250D01*
X454002Y318749D01*
X453002D01*
X452502Y318250D01*
Y316250D01*
X453002Y315750D01*
X454002D01*
X453502Y316750D02*
X454502Y315750D01*
X454002D02*
X454502Y316250D01*
X457501Y318749D02*
X455501D01*
Y317250D01*
X456501Y317750D01*
X457001D01*
X457501Y317250D01*
Y316250D01*
X457001Y315750D01*
X456001D01*
X455501Y316250D01*
X458500Y315251D02*
X460500D01*
X461499Y315750D02*
Y318749D01*
X462499Y317750D01*
X463499Y318749D01*
Y315750D01*
X464498Y318250D02*
X464998Y318749D01*
X465998D01*
X466498Y318250D01*
Y316250D01*
X465998Y315750D01*
X464998D01*
X464498Y316250D01*
Y318250D01*
X732500Y230500D02*
Y232500D01*
X732000Y232999D01*
X731001D01*
X730501Y232500D01*
Y230500D01*
X731001Y230000D01*
X732000D01*
X731500Y231000D02*
X732500Y230000D01*
X732000D02*
X732500Y230500D01*
X734999Y230000D02*
Y232999D01*
X733500Y231500D01*
X735499D01*
X712500Y230000D02*
Y232000D01*
X712000Y232500D01*
X711001D01*
X710501Y232000D01*
Y230000D01*
X711001Y229501D01*
X712000D01*
X711501Y230500D02*
X712500Y229501D01*
X712000D02*
X712500Y230000D01*
X713500Y232000D02*
X714000Y232500D01*
X714999D01*
X715499Y232000D01*
Y231500D01*
X714999Y231000D01*
X714500D01*
X714999D01*
X715499Y230500D01*
Y230000D01*
X714999Y229501D01*
X714000D01*
X713500Y230000D01*
X515001Y369000D02*
Y366001D01*
X517000D01*
X519999D02*
X518000D01*
X519999Y368000D01*
Y368500D01*
X519499Y369000D01*
X518500D01*
X518000Y368500D01*
X186252Y199749D02*
X185252D01*
X185752D01*
Y197250D01*
X185252Y196750D01*
X184753D01*
X184253Y197250D01*
X187252Y196750D02*
X188251D01*
X187751D01*
Y199749D01*
X187252Y199250D01*
X191250Y196750D02*
Y199749D01*
X189751Y198250D01*
X191750D01*
X192750Y196251D02*
X194749D01*
X195749Y196750D02*
Y199749D01*
X196749Y198750D01*
X197748Y199749D01*
Y196750D01*
X200747D02*
X198748D01*
X200747Y198750D01*
Y199250D01*
X200248Y199749D01*
X199248D01*
X198748Y199250D01*
X313252Y199749D02*
X312252D01*
X312752D01*
Y197250D01*
X312252Y196750D01*
X311752D01*
X311252Y197250D01*
X314251Y196750D02*
X315251D01*
X314751D01*
Y199749D01*
X314251Y199250D01*
X318250Y196750D02*
Y199749D01*
X316751Y198250D01*
X318750D01*
X319750Y196251D02*
X321749D01*
X322749Y196750D02*
Y199749D01*
X323748Y198750D01*
X324748Y199749D01*
Y196750D01*
X325748D02*
X326747D01*
X326248D01*
Y199749D01*
X325748Y199250D01*
X437252Y198749D02*
X436252D01*
X436752D01*
Y196250D01*
X436252Y195750D01*
X435752D01*
X435253Y196250D01*
X438252Y195750D02*
X439251D01*
X438752D01*
Y198749D01*
X438252Y198250D01*
X442250Y195750D02*
Y198749D01*
X440751Y197250D01*
X442750D01*
X443750Y195251D02*
X445749D01*
X446749Y195750D02*
Y198749D01*
X447749Y197750D01*
X448748Y198749D01*
Y195750D01*
X449748Y198250D02*
X450248Y198749D01*
X451248D01*
X451747Y198250D01*
Y196250D01*
X451248Y195750D01*
X450248D01*
X449748Y196250D01*
Y198250D01*
X562751Y230999D02*
X561751D01*
X562251D01*
Y228500D01*
X561751Y228000D01*
X561251D01*
X560751Y228500D01*
X563750Y228000D02*
X564750D01*
X564250D01*
Y230999D01*
X563750Y230500D01*
X566249D02*
X566749Y230999D01*
X567749D01*
X568249Y230500D01*
Y230000D01*
X567749Y229500D01*
X567249D01*
X567749D01*
X568249Y229000D01*
Y228500D01*
X567749Y228000D01*
X566749D01*
X566249Y228500D01*
X772001Y440251D02*
Y439251D01*
Y439751D01*
X774500D01*
X775000Y439251D01*
Y438751D01*
X774500Y438251D01*
X775000Y441250D02*
Y442250D01*
Y441750D01*
X772001D01*
X772500Y441250D01*
X775000Y445749D02*
Y443749D01*
X773000Y445749D01*
X772500D01*
X772001Y445249D01*
Y444249D01*
X772500Y443749D01*
X509500Y231500D02*
X508500D01*
X509000D01*
Y229000D01*
X508500Y228501D01*
X508001D01*
X507501Y229000D01*
X510500D02*
X511000Y228501D01*
X511999D01*
X512499Y229000D01*
Y231000D01*
X511999Y231500D01*
X511000D01*
X510500Y231000D01*
Y230500D01*
X511000Y230000D01*
X512499D01*
X751500Y280500D02*
X750500D01*
X751000D01*
Y278000D01*
X750500Y277501D01*
X750001D01*
X749501Y278000D01*
X752500Y280500D02*
X754499D01*
Y280000D01*
X752500Y278000D01*
Y277501D01*
X616500Y231500D02*
X615500D01*
X616000D01*
Y229000D01*
X615500Y228501D01*
X615001D01*
X614501Y229000D01*
X619499Y231500D02*
X617500D01*
Y230000D01*
X618500Y230500D01*
X618999D01*
X619499Y230000D01*
Y229000D01*
X618999Y228501D01*
X618000D01*
X617500Y229000D01*
X771000Y317000D02*
Y316001D01*
Y316500D01*
X773500D01*
X774000Y316001D01*
Y315501D01*
X773500Y315001D01*
X774000Y319499D02*
X771000D01*
X772500Y318000D01*
Y319999D01*
X771000Y274500D02*
Y273500D01*
Y274000D01*
X773500D01*
X774000Y273500D01*
Y273001D01*
X773500Y272501D01*
X771500Y275500D02*
X771000Y276000D01*
Y276999D01*
X771500Y277499D01*
X772000D01*
X772500Y276999D01*
Y276500D01*
Y276999D01*
X773000Y277499D01*
X773500D01*
X774000Y276999D01*
Y276000D01*
X773500Y275500D01*
X780500Y192999D02*
X779500D01*
X780000D01*
Y190500D01*
X779500Y190000D01*
X779001D01*
X778501Y190500D01*
X783499Y190000D02*
X781500D01*
X783499Y192000D01*
Y192500D01*
X782999Y192999D01*
X782000D01*
X781500Y192500D01*
X719000Y422000D02*
X718000D01*
X718500D01*
Y419500D01*
X718000Y419000D01*
X717500D01*
X717001Y419500D01*
X720000Y419000D02*
X720999D01*
X720500D01*
Y422000D01*
X720000Y421500D01*
X213253Y204749D02*
Y201750D01*
X214752D01*
X215252Y202250D01*
Y204250D01*
X214752Y204749D01*
X213253D01*
X216252Y201750D02*
X217251D01*
X216752D01*
Y204749D01*
X216252Y204250D01*
X218751Y202250D02*
X219251Y201750D01*
X220250D01*
X220750Y202250D01*
Y204250D01*
X220250Y204749D01*
X219251D01*
X218751Y204250D01*
Y203750D01*
X219251Y203250D01*
X220750D01*
X221750Y201251D02*
X223749D01*
X224749Y201750D02*
Y204749D01*
X225749Y203750D01*
X226748Y204749D01*
Y201750D01*
X229747D02*
X227748D01*
X229747Y203750D01*
Y204250D01*
X229247Y204749D01*
X228248D01*
X227748Y204250D01*
X340753Y204749D02*
Y201750D01*
X342252D01*
X342752Y202250D01*
Y204250D01*
X342252Y204749D01*
X340753D01*
X343752Y201750D02*
X344751D01*
X344251D01*
Y204749D01*
X343752Y204250D01*
X346251Y202250D02*
X346751Y201750D01*
X347750D01*
X348250Y202250D01*
Y204250D01*
X347750Y204749D01*
X346751D01*
X346251Y204250D01*
Y203750D01*
X346751Y203250D01*
X348250D01*
X349250Y201251D02*
X351249D01*
X352249Y201750D02*
Y204749D01*
X353249Y203750D01*
X354248Y204749D01*
Y201750D01*
X355248D02*
X356247D01*
X355748D01*
Y204749D01*
X355248Y204250D01*
X465253Y203249D02*
Y200250D01*
X466752D01*
X467252Y200750D01*
Y202750D01*
X466752Y203249D01*
X465253D01*
X468252Y200250D02*
X469251D01*
X468751D01*
Y203249D01*
X468252Y202750D01*
X470751Y200750D02*
X471251Y200250D01*
X472250D01*
X472750Y200750D01*
Y202750D01*
X472250Y203249D01*
X471251D01*
X470751Y202750D01*
Y202250D01*
X471251Y201750D01*
X472750D01*
X473750Y199751D02*
X475749D01*
X476749Y200250D02*
Y203249D01*
X477749Y202250D01*
X478748Y203249D01*
Y200250D01*
X479748Y202750D02*
X480248Y203249D01*
X481248D01*
X481747Y202750D01*
Y200750D01*
X481248Y200250D01*
X480248D01*
X479748Y200750D01*
Y202750D01*
X155753Y204749D02*
Y201750D01*
X157252D01*
X157752Y202250D01*
Y204250D01*
X157252Y204749D01*
X155753D01*
X158752Y201750D02*
X159751D01*
X159251D01*
Y204749D01*
X158752Y204250D01*
X161251D02*
X161751Y204749D01*
X162750D01*
X163250Y204250D01*
Y203750D01*
X162750Y203250D01*
X163250Y202750D01*
Y202250D01*
X162750Y201750D01*
X161751D01*
X161251Y202250D01*
Y202750D01*
X161751Y203250D01*
X161251Y203750D01*
Y204250D01*
X161751Y203250D02*
X162750D01*
X164250Y201251D02*
X166249D01*
X167249Y201750D02*
Y204749D01*
X168249Y203750D01*
X169248Y204749D01*
Y201750D01*
X172247D02*
X170248D01*
X172247Y203750D01*
Y204250D01*
X171748Y204749D01*
X170748D01*
X170248Y204250D01*
X282752Y204749D02*
Y201750D01*
X284252D01*
X284752Y202250D01*
Y204250D01*
X284252Y204749D01*
X282752D01*
X285752Y201750D02*
X286751D01*
X286251D01*
Y204749D01*
X285752Y204250D01*
X288251D02*
X288751Y204749D01*
X289750D01*
X290250Y204250D01*
Y203750D01*
X289750Y203250D01*
X290250Y202750D01*
Y202250D01*
X289750Y201750D01*
X288751D01*
X288251Y202250D01*
Y202750D01*
X288751Y203250D01*
X288251Y203750D01*
Y204250D01*
X288751Y203250D02*
X289750D01*
X291250Y201251D02*
X293249D01*
X294249Y201750D02*
Y204749D01*
X295249Y203750D01*
X296248Y204749D01*
Y201750D01*
X297248D02*
X298248D01*
X297748D01*
Y204749D01*
X297248Y204250D01*
X408753Y203749D02*
Y200750D01*
X410252D01*
X410752Y201250D01*
Y203250D01*
X410252Y203749D01*
X408753D01*
X411752Y200750D02*
X412751D01*
X412252D01*
Y203749D01*
X411752Y203250D01*
X414251D02*
X414751Y203749D01*
X415750D01*
X416250Y203250D01*
Y202750D01*
X415750Y202250D01*
X416250Y201750D01*
Y201250D01*
X415750Y200750D01*
X414751D01*
X414251Y201250D01*
Y201750D01*
X414751Y202250D01*
X414251Y202750D01*
Y203250D01*
X414751Y202250D02*
X415750D01*
X417250Y200251D02*
X419249D01*
X420249Y200750D02*
Y203749D01*
X421249Y202750D01*
X422248Y203749D01*
Y200750D01*
X423248Y203250D02*
X423748Y203749D01*
X424748D01*
X425247Y203250D01*
Y201250D01*
X424748Y200750D01*
X423748D01*
X423248Y201250D01*
Y203250D01*
X193751Y263753D02*
X196750D01*
Y265252D01*
X196250Y265752D01*
X194250D01*
X193751Y265252D01*
Y263753D01*
X196750Y266752D02*
Y267751D01*
Y267251D01*
X193751D01*
X194250Y266752D01*
X193751Y269251D02*
Y271250D01*
X194250D01*
X196250Y269251D01*
X196750D01*
X197249Y272250D02*
Y274249D01*
X196750Y275249D02*
X193751D01*
X194750Y276249D01*
X193751Y277248D01*
X196750D01*
Y280247D02*
Y278248D01*
X194750Y280247D01*
X194250D01*
X193751Y279748D01*
Y278748D01*
X194250Y278248D01*
X319751Y264753D02*
X322750D01*
Y266252D01*
X322250Y266752D01*
X320250D01*
X319751Y266252D01*
Y264753D01*
X322750Y267752D02*
Y268751D01*
Y268251D01*
X319751D01*
X320250Y267752D01*
X319751Y270251D02*
Y272250D01*
X320250D01*
X322250Y270251D01*
X322750D01*
X323249Y273250D02*
Y275249D01*
X322750Y276249D02*
X319751D01*
X320750Y277249D01*
X319751Y278248D01*
X322750D01*
Y279248D02*
Y280247D01*
Y279748D01*
X319751D01*
X320250Y279248D01*
X444751Y263753D02*
X447750D01*
Y265252D01*
X447250Y265752D01*
X445250D01*
X444751Y265252D01*
Y263753D01*
X447750Y266752D02*
Y267751D01*
Y267251D01*
X444751D01*
X445250Y266752D01*
X444751Y269251D02*
Y271250D01*
X445250D01*
X447250Y269251D01*
X447750D01*
X448249Y272250D02*
Y274249D01*
X447750Y275249D02*
X444751D01*
X445750Y276249D01*
X444751Y277248D01*
X447750D01*
X445250Y278248D02*
X444751Y278748D01*
Y279748D01*
X445250Y280247D01*
X447250D01*
X447750Y279748D01*
Y278748D01*
X447250Y278248D01*
X445250D01*
X187251Y263753D02*
X190250D01*
Y265252D01*
X189750Y265752D01*
X187750D01*
X187251Y265252D01*
Y263753D01*
X190250Y266752D02*
Y267751D01*
Y267251D01*
X187251D01*
X187750Y266752D01*
X187251Y271250D02*
X187750Y270251D01*
X188750Y269251D01*
X189750D01*
X190250Y269751D01*
Y270750D01*
X189750Y271250D01*
X189250D01*
X188750Y270750D01*
Y269251D01*
X190749Y272250D02*
Y274249D01*
X190250Y275249D02*
X187251D01*
X188250Y276249D01*
X187251Y277248D01*
X190250D01*
Y280247D02*
Y278248D01*
X188250Y280247D01*
X187750D01*
X187251Y279748D01*
Y278748D01*
X187750Y278248D01*
X313251Y264753D02*
X316250D01*
Y266252D01*
X315750Y266752D01*
X313750D01*
X313251Y266252D01*
Y264753D01*
X316250Y267752D02*
Y268751D01*
Y268251D01*
X313251D01*
X313750Y267752D01*
X313251Y272250D02*
X313750Y271250D01*
X314750Y270251D01*
X315750D01*
X316250Y270751D01*
Y271750D01*
X315750Y272250D01*
X315250D01*
X314750Y271750D01*
Y270251D01*
X316749Y273250D02*
Y275249D01*
X316250Y276249D02*
X313251D01*
X314250Y277249D01*
X313251Y278248D01*
X316250D01*
Y279248D02*
Y280247D01*
Y279748D01*
X313251D01*
X313750Y279248D01*
X439251Y263753D02*
X442250D01*
Y265252D01*
X441750Y265752D01*
X439750D01*
X439251Y265252D01*
Y263753D01*
X442250Y266752D02*
Y267751D01*
Y267251D01*
X439251D01*
X439750Y266752D01*
X439251Y271250D02*
X439750Y270251D01*
X440750Y269251D01*
X441750D01*
X442250Y269751D01*
Y270750D01*
X441750Y271250D01*
X441250D01*
X440750Y270750D01*
Y269251D01*
X442749Y272250D02*
Y274249D01*
X442250Y275249D02*
X439251D01*
X440250Y276249D01*
X439251Y277248D01*
X442250D01*
X439750Y278248D02*
X439251Y278748D01*
Y279748D01*
X439750Y280247D01*
X441750D01*
X442250Y279748D01*
Y278748D01*
X441750Y278248D01*
X439750D01*
X193753Y204249D02*
Y201250D01*
X195252D01*
X195752Y201750D01*
Y203750D01*
X195252Y204249D01*
X193753D01*
X196752Y201250D02*
X197751D01*
X197251D01*
Y204249D01*
X196752Y203750D01*
X201250Y204249D02*
X199251D01*
Y202750D01*
X200251Y203250D01*
X200750D01*
X201250Y202750D01*
Y201750D01*
X200750Y201250D01*
X199751D01*
X199251Y201750D01*
X202250Y200751D02*
X204249D01*
X205249Y201250D02*
Y204249D01*
X206249Y203250D01*
X207248Y204249D01*
Y201250D01*
X210247D02*
X208248D01*
X210247Y203250D01*
Y203750D01*
X209748Y204249D01*
X208748D01*
X208248Y203750D01*
X322752Y204249D02*
Y201250D01*
X324252D01*
X324752Y201750D01*
Y203750D01*
X324252Y204249D01*
X322752D01*
X325751Y201250D02*
X326751D01*
X326251D01*
Y204249D01*
X325751Y203750D01*
X330250Y204249D02*
X328251D01*
Y202750D01*
X329250Y203250D01*
X329750D01*
X330250Y202750D01*
Y201750D01*
X329750Y201250D01*
X328751D01*
X328251Y201750D01*
X331250Y200751D02*
X333249D01*
X334249Y201250D02*
Y204249D01*
X335248Y203250D01*
X336248Y204249D01*
Y201250D01*
X337248D02*
X338247D01*
X337748D01*
Y204249D01*
X337248Y203750D01*
X446253Y203249D02*
Y200250D01*
X447752D01*
X448252Y200750D01*
Y202750D01*
X447752Y203249D01*
X446253D01*
X449252Y200250D02*
X450251D01*
X449752D01*
Y203249D01*
X449252Y202750D01*
X453750Y203249D02*
X451751D01*
Y201750D01*
X452751Y202250D01*
X453250D01*
X453750Y201750D01*
Y200750D01*
X453250Y200250D01*
X452251D01*
X451751Y200750D01*
X454750Y199751D02*
X456749D01*
X457749Y200250D02*
Y203249D01*
X458749Y202250D01*
X459748Y203249D01*
Y200250D01*
X460748Y202750D02*
X461248Y203249D01*
X462248D01*
X462747Y202750D01*
Y200750D01*
X462248Y200250D01*
X461248D01*
X460748Y200750D01*
Y202750D01*
X243251Y253253D02*
X246250D01*
Y254752D01*
X245750Y255252D01*
X243750D01*
X243251Y254752D01*
Y253253D01*
X246250Y256252D02*
Y257251D01*
Y256751D01*
X243251D01*
X243750Y256252D01*
X246250Y260250D02*
X243251D01*
X244750Y258751D01*
Y260750D01*
X246749Y261750D02*
Y263749D01*
X246250Y264749D02*
X243251D01*
X244250Y265749D01*
X243251Y266748D01*
X246250D01*
Y269747D02*
Y267748D01*
X244250Y269747D01*
X243750D01*
X243251Y269248D01*
Y268248D01*
X243750Y267748D01*
X369251Y254752D02*
X372250D01*
Y256252D01*
X371750Y256752D01*
X369750D01*
X369251Y256252D01*
Y254752D01*
X372250Y257751D02*
Y258751D01*
Y258251D01*
X369251D01*
X369750Y257751D01*
X372250Y261750D02*
X369251D01*
X370750Y260251D01*
Y262250D01*
X372749Y263250D02*
Y265249D01*
X372250Y266249D02*
X369251D01*
X370250Y267249D01*
X369251Y268248D01*
X372250D01*
Y269248D02*
Y270248D01*
Y269748D01*
X369251D01*
X369750Y269248D01*
X496251Y250253D02*
X499250D01*
Y251752D01*
X498750Y252252D01*
X496750D01*
X496251Y251752D01*
Y250253D01*
X499250Y253252D02*
Y254251D01*
Y253751D01*
X496251D01*
X496750Y253252D01*
X499250Y257250D02*
X496251D01*
X497750Y255751D01*
Y257750D01*
X499749Y258750D02*
Y260749D01*
X499250Y261749D02*
X496251D01*
X497250Y262749D01*
X496251Y263748D01*
X499250D01*
X496750Y264748D02*
X496251Y265248D01*
Y266248D01*
X496750Y266747D01*
X498750D01*
X499250Y266248D01*
Y265248D01*
X498750Y264748D01*
X496750D01*
X129751Y223753D02*
X132750D01*
Y225252D01*
X132250Y225752D01*
X130250D01*
X129751Y225252D01*
Y223753D01*
X132750Y226752D02*
Y227751D01*
Y227252D01*
X129751D01*
X130250Y226752D01*
Y229251D02*
X129751Y229751D01*
Y230750D01*
X130250Y231250D01*
X130750D01*
X131250Y230750D01*
Y230251D01*
Y230750D01*
X131750Y231250D01*
X132250D01*
X132750Y230750D01*
Y229751D01*
X132250Y229251D01*
X133249Y232250D02*
Y234249D01*
X132750Y235249D02*
X129751D01*
X130750Y236249D01*
X129751Y237248D01*
X132750D01*
Y240247D02*
Y238248D01*
X130750Y240247D01*
X130250D01*
X129751Y239748D01*
Y238748D01*
X130250Y238248D01*
X263251Y254253D02*
X266250D01*
Y255752D01*
X265750Y256252D01*
X263750D01*
X263251Y255752D01*
Y254253D01*
X266250Y257252D02*
Y258251D01*
Y257751D01*
X263251D01*
X263750Y257252D01*
Y259751D02*
X263251Y260251D01*
Y261250D01*
X263750Y261750D01*
X264250D01*
X264750Y261250D01*
Y260750D01*
Y261250D01*
X265250Y261750D01*
X265750D01*
X266250Y261250D01*
Y260251D01*
X265750Y259751D01*
X266749Y262750D02*
Y264749D01*
X266250Y265749D02*
X263251D01*
X264250Y266748D01*
X263251Y267748D01*
X266250D01*
Y268748D02*
Y269747D01*
Y269248D01*
X263251D01*
X263750Y268748D01*
X389751Y252253D02*
X392750D01*
Y253752D01*
X392250Y254252D01*
X390250D01*
X389751Y253752D01*
Y252253D01*
X392750Y255252D02*
Y256251D01*
Y255751D01*
X389751D01*
X390250Y255252D01*
Y257751D02*
X389751Y258251D01*
Y259250D01*
X390250Y259750D01*
X390750D01*
X391250Y259250D01*
Y258751D01*
Y259250D01*
X391750Y259750D01*
X392250D01*
X392750Y259250D01*
Y258251D01*
X392250Y257751D01*
X393249Y260750D02*
Y262749D01*
X392750Y263749D02*
X389751D01*
X390750Y264749D01*
X389751Y265748D01*
X392750D01*
X390250Y266748D02*
X389751Y267248D01*
Y268248D01*
X390250Y268747D01*
X392250D01*
X392750Y268248D01*
Y267248D01*
X392250Y266748D01*
X390250D01*
X175753Y204249D02*
Y201250D01*
X177252D01*
X177752Y201750D01*
Y203750D01*
X177252Y204249D01*
X175753D01*
X178752Y201250D02*
X179751D01*
X179252D01*
Y204249D01*
X178752Y203750D01*
X183250Y201250D02*
X181251D01*
X183250Y203250D01*
Y203750D01*
X182750Y204249D01*
X181751D01*
X181251Y203750D01*
X184250Y200751D02*
X186249D01*
X187249Y201250D02*
Y204249D01*
X188249Y203250D01*
X189248Y204249D01*
Y201250D01*
X192247D02*
X190248D01*
X192247Y203250D01*
Y203750D01*
X191747Y204249D01*
X190748D01*
X190248Y203750D01*
X303253Y204249D02*
Y201250D01*
X304752D01*
X305252Y201750D01*
Y203750D01*
X304752Y204249D01*
X303253D01*
X306252Y201250D02*
X307251D01*
X306751D01*
Y204249D01*
X306252Y203750D01*
X310750Y201250D02*
X308751D01*
X310750Y203250D01*
Y203750D01*
X310250Y204249D01*
X309251D01*
X308751Y203750D01*
X311750Y200751D02*
X313749D01*
X314749Y201250D02*
Y204249D01*
X315749Y203250D01*
X316748Y204249D01*
Y201250D01*
X317748D02*
X318747D01*
X318248D01*
Y204249D01*
X317748Y203750D01*
X428253Y203249D02*
Y200250D01*
X429752D01*
X430252Y200750D01*
Y202750D01*
X429752Y203249D01*
X428253D01*
X431252Y200250D02*
X432251D01*
X431751D01*
Y203249D01*
X431252Y202750D01*
X435750Y200250D02*
X433751D01*
X435750Y202250D01*
Y202750D01*
X435250Y203249D01*
X434251D01*
X433751Y202750D01*
X436750Y199751D02*
X438749D01*
X439749Y200250D02*
Y203249D01*
X440749Y202250D01*
X441748Y203249D01*
Y200250D01*
X442748Y202750D02*
X443248Y203249D01*
X444247D01*
X444747Y202750D01*
Y200750D01*
X444247Y200250D01*
X443248D01*
X442748Y200750D01*
Y202750D01*
X222751Y236503D02*
X225750D01*
Y238002D01*
X225250Y238502D01*
X223250D01*
X222751Y238002D01*
Y236503D01*
X225750Y239502D02*
Y240501D01*
Y240002D01*
X222751D01*
X223250Y239502D01*
X225750Y242001D02*
Y243001D01*
Y242501D01*
X222751D01*
X223250Y242001D01*
X226249Y244500D02*
Y246499D01*
X225750Y247499D02*
X222751D01*
X223750Y248499D01*
X222751Y249498D01*
X225750D01*
Y252497D02*
Y250498D01*
X223750Y252497D01*
X223250D01*
X222751Y251998D01*
Y250998D01*
X223250Y250498D01*
X348751Y239002D02*
X351750D01*
Y240502D01*
X351250Y241002D01*
X349250D01*
X348751Y240502D01*
Y239002D01*
X351750Y242002D02*
Y243001D01*
Y242501D01*
X348751D01*
X349250Y242002D01*
X351750Y244501D02*
Y245500D01*
Y245001D01*
X348751D01*
X349250Y244501D01*
X352249Y247000D02*
Y248999D01*
X351750Y249999D02*
X348751D01*
X349750Y250998D01*
X348751Y251998D01*
X351750D01*
Y252998D02*
Y253998D01*
Y253498D01*
X348751D01*
X349250Y252998D01*
X475251Y234503D02*
X478250D01*
Y236002D01*
X477750Y236502D01*
X475750D01*
X475251Y236002D01*
Y234503D01*
X478250Y237502D02*
Y238501D01*
Y238001D01*
X475251D01*
X475750Y237502D01*
X478250Y240001D02*
Y241001D01*
Y240501D01*
X475251D01*
X475750Y240001D01*
X478749Y242500D02*
Y244499D01*
X478250Y245499D02*
X475251D01*
X476250Y246499D01*
X475251Y247498D01*
X478250D01*
X475750Y248498D02*
X475251Y248998D01*
Y249998D01*
X475750Y250497D01*
X477750D01*
X478250Y249998D01*
Y248998D01*
X477750Y248498D01*
X475750D01*
X194253Y258249D02*
Y255250D01*
X195752D01*
X196252Y255750D01*
Y257750D01*
X195752Y258249D01*
X194253D01*
X197252Y255250D02*
X198251D01*
X197751D01*
Y258249D01*
X197252Y257750D01*
X199751D02*
X200251Y258249D01*
X201250D01*
X201750Y257750D01*
Y255750D01*
X201250Y255250D01*
X200251D01*
X199751Y255750D01*
Y257750D01*
X202750Y254751D02*
X204749D01*
X205749Y255250D02*
Y258249D01*
X206749Y257250D01*
X207748Y258249D01*
Y255250D01*
X210747D02*
X208748D01*
X210747Y257250D01*
Y257750D01*
X210247Y258249D01*
X209248D01*
X208748Y257750D01*
X283751Y237753D02*
X286750D01*
Y239252D01*
X286250Y239752D01*
X284250D01*
X283751Y239252D01*
Y237753D01*
X286750Y240752D02*
Y241751D01*
Y241251D01*
X283751D01*
X284250Y240752D01*
Y243251D02*
X283751Y243751D01*
Y244750D01*
X284250Y245250D01*
X286250D01*
X286750Y244750D01*
Y243751D01*
X286250Y243251D01*
X284250D01*
X287249Y246250D02*
Y248249D01*
X286750Y249249D02*
X283751D01*
X284750Y250249D01*
X283751Y251248D01*
X286750D01*
Y252248D02*
Y253247D01*
Y252748D01*
X283751D01*
X284250Y252248D01*
X410251Y236253D02*
X413250D01*
Y237752D01*
X412750Y238252D01*
X410750D01*
X410251Y237752D01*
Y236253D01*
X413250Y239252D02*
Y240251D01*
Y239752D01*
X410251D01*
X410750Y239252D01*
Y241751D02*
X410251Y242251D01*
Y243250D01*
X410750Y243750D01*
X412750D01*
X413250Y243250D01*
Y242251D01*
X412750Y241751D01*
X410750D01*
X413749Y244750D02*
Y246749D01*
X413250Y247749D02*
X410251D01*
X411250Y248749D01*
X410251Y249748D01*
X413250D01*
X410750Y250748D02*
X410251Y251248D01*
Y252248D01*
X410750Y252747D01*
X412750D01*
X413250Y252248D01*
Y251248D01*
X412750Y250748D01*
X410750D01*
X198251Y268502D02*
X201250D01*
Y270002D01*
X200750Y270502D01*
X198750D01*
X198251Y270002D01*
Y268502D01*
X200750Y271501D02*
X201250Y272001D01*
Y273001D01*
X200750Y273501D01*
X198750D01*
X198251Y273001D01*
Y272001D01*
X198750Y271501D01*
X199250D01*
X199750Y272001D01*
Y273501D01*
X201749Y274500D02*
Y276500D01*
X201250Y277499D02*
X198251D01*
X199250Y278499D01*
X198251Y279499D01*
X201250D01*
Y282498D02*
Y280498D01*
X199250Y282498D01*
X198750D01*
X198251Y281998D01*
Y280998D01*
X198750Y280498D01*
X324251Y273002D02*
X327250D01*
Y274502D01*
X326750Y275002D01*
X324750D01*
X324251Y274502D01*
Y273002D01*
X326750Y276001D02*
X327250Y276501D01*
Y277501D01*
X326750Y278000D01*
X324750D01*
X324251Y277501D01*
Y276501D01*
X324750Y276001D01*
X325250D01*
X325750Y276501D01*
Y278000D01*
X327749Y279000D02*
Y280999D01*
X327250Y281999D02*
X324251D01*
X325250Y282999D01*
X324251Y283998D01*
X327250D01*
Y284998D02*
Y285998D01*
Y285498D01*
X324251D01*
X324750Y284998D01*
X450751Y271502D02*
X453750D01*
Y273002D01*
X453250Y273502D01*
X451250D01*
X450751Y273002D01*
Y271502D01*
X453250Y274501D02*
X453750Y275001D01*
Y276001D01*
X453250Y276501D01*
X451250D01*
X450751Y276001D01*
Y275001D01*
X451250Y274501D01*
X451750D01*
X452250Y275001D01*
Y276501D01*
X454249Y277500D02*
Y279500D01*
X453750Y280499D02*
X450751D01*
X451750Y281499D01*
X450751Y282499D01*
X453750D01*
X451250Y283498D02*
X450751Y283998D01*
Y284998D01*
X451250Y285498D01*
X453250D01*
X453750Y284998D01*
Y283998D01*
X453250Y283498D01*
X451250D01*
X182751Y268502D02*
X185750D01*
Y270002D01*
X185250Y270502D01*
X183250D01*
X182751Y270002D01*
Y268502D01*
X183250Y271501D02*
X182751Y272001D01*
Y273001D01*
X183250Y273501D01*
X183750D01*
X184250Y273001D01*
X184750Y273501D01*
X185250D01*
X185750Y273001D01*
Y272001D01*
X185250Y271501D01*
X184750D01*
X184250Y272001D01*
X183750Y271501D01*
X183250D01*
X184250Y272001D02*
Y273001D01*
X186249Y274500D02*
Y276500D01*
X185750Y277499D02*
X182751D01*
X183750Y278499D01*
X182751Y279499D01*
X185750D01*
Y282498D02*
Y280498D01*
X183750Y282498D01*
X183250D01*
X182751Y281998D01*
Y280998D01*
X183250Y280498D01*
X308751Y276002D02*
X311750D01*
Y277502D01*
X311250Y278001D01*
X309250D01*
X308751Y277502D01*
Y276002D01*
X309250Y279001D02*
X308751Y279501D01*
Y280501D01*
X309250Y281000D01*
X309750D01*
X310250Y280501D01*
X310750Y281000D01*
X311250D01*
X311750Y280501D01*
Y279501D01*
X311250Y279001D01*
X310750D01*
X310250Y279501D01*
X309750Y279001D01*
X309250D01*
X310250Y279501D02*
Y280501D01*
X312249Y282000D02*
Y283999D01*
X311750Y284999D02*
X308751D01*
X309750Y285999D01*
X308751Y286999D01*
X311750D01*
Y287998D02*
Y288998D01*
Y288498D01*
X308751D01*
X309250Y287998D01*
X434751Y273502D02*
X437750D01*
Y275002D01*
X437250Y275502D01*
X435250D01*
X434751Y275002D01*
Y273502D01*
X435250Y276501D02*
X434751Y277001D01*
Y278001D01*
X435250Y278501D01*
X435750D01*
X436250Y278001D01*
X436750Y278501D01*
X437250D01*
X437750Y278001D01*
Y277001D01*
X437250Y276501D01*
X436750D01*
X436250Y277001D01*
X435750Y276501D01*
X435250D01*
X436250Y277001D02*
Y278001D01*
X438249Y279500D02*
Y281500D01*
X437750Y282499D02*
X434751D01*
X435750Y283499D01*
X434751Y284499D01*
X437750D01*
X435250Y285498D02*
X434751Y285998D01*
Y286998D01*
X435250Y287498D01*
X437250D01*
X437750Y286998D01*
Y285998D01*
X437250Y285498D01*
X435250D01*
X248751Y258502D02*
X251750D01*
Y260002D01*
X251250Y260502D01*
X249250D01*
X248751Y260002D01*
Y258502D01*
Y261501D02*
Y263501D01*
X249250D01*
X251250Y261501D01*
X251750D01*
X252249Y264500D02*
Y266500D01*
X251750Y267499D02*
X248751D01*
X249750Y268499D01*
X248751Y269499D01*
X251750D01*
Y272498D02*
Y270498D01*
X249750Y272498D01*
X249250D01*
X248751Y271998D01*
Y270998D01*
X249250Y270498D01*
X374251Y258002D02*
X377250D01*
Y259502D01*
X376750Y260001D01*
X374750D01*
X374251Y259502D01*
Y258002D01*
Y261001D02*
Y263000D01*
X374750D01*
X376750Y261001D01*
X377250D01*
X377749Y264000D02*
Y266000D01*
X377250Y266999D02*
X374251D01*
X375250Y267999D01*
X374251Y268999D01*
X377250D01*
Y269998D02*
Y270998D01*
Y270498D01*
X374251D01*
X374750Y269998D01*
X501251Y255502D02*
X504250D01*
Y257002D01*
X503750Y257502D01*
X501750D01*
X501251Y257002D01*
Y255502D01*
Y258501D02*
Y260501D01*
X501750D01*
X503750Y258501D01*
X504250D01*
X504749Y261500D02*
Y263500D01*
X504250Y264499D02*
X501251D01*
X502250Y265499D01*
X501251Y266499D01*
X504250D01*
X501750Y267498D02*
X501251Y267998D01*
Y268998D01*
X501750Y269498D01*
X503750D01*
X504250Y268998D01*
Y267998D01*
X503750Y267498D01*
X501750D01*
X128751Y270002D02*
X131750D01*
Y271502D01*
X131250Y272002D01*
X129250D01*
X128751Y271502D01*
Y270002D01*
Y275001D02*
X129250Y274001D01*
X130250Y273001D01*
X131250D01*
X131750Y273501D01*
Y274501D01*
X131250Y275001D01*
X130750D01*
X130250Y274501D01*
Y273001D01*
X132249Y276000D02*
Y278000D01*
X131750Y278999D02*
X128751D01*
X129750Y279999D01*
X128751Y280999D01*
X131750D01*
Y283998D02*
Y281998D01*
X129750Y283998D01*
X129250D01*
X128751Y283498D01*
Y282498D01*
X129250Y281998D01*
X258251Y259502D02*
X261250D01*
Y261002D01*
X260750Y261502D01*
X258750D01*
X258251Y261002D01*
Y259502D01*
Y264500D02*
X258750Y263501D01*
X259750Y262501D01*
X260750D01*
X261250Y263001D01*
Y264001D01*
X260750Y264500D01*
X260250D01*
X259750Y264001D01*
Y262501D01*
X261749Y265500D02*
Y267499D01*
X261250Y268499D02*
X258251D01*
X259250Y269499D01*
X258251Y270498D01*
X261250D01*
Y271498D02*
Y272498D01*
Y271998D01*
X258251D01*
X258750Y271498D01*
X384751Y257002D02*
X387750D01*
Y258502D01*
X387250Y259002D01*
X385250D01*
X384751Y258502D01*
Y257002D01*
Y262001D02*
X385250Y261001D01*
X386250Y260001D01*
X387250D01*
X387750Y260501D01*
Y261501D01*
X387250Y262001D01*
X386750D01*
X386250Y261501D01*
Y260001D01*
X388249Y263000D02*
Y265000D01*
X387750Y265999D02*
X384751D01*
X385750Y266999D01*
X384751Y267999D01*
X387750D01*
X385250Y268998D02*
X384751Y269498D01*
Y270498D01*
X385250Y270998D01*
X387250D01*
X387750Y270498D01*
Y269498D01*
X387250Y268998D01*
X385250D01*
X721000Y248001D02*
X724000D01*
Y249500D01*
X723500Y250000D01*
X721500D01*
X721000Y249500D01*
Y248001D01*
Y252999D02*
Y251000D01*
X722500D01*
X722000Y251999D01*
Y252499D01*
X722500Y252999D01*
X723500D01*
X724000Y252499D01*
Y251500D01*
X723500Y251000D01*
X699001Y247501D02*
X702000D01*
Y249000D01*
X701500Y249500D01*
X699500D01*
X699001Y249000D01*
Y247501D01*
X702000Y251999D02*
X699001D01*
X700500Y250500D01*
Y252499D01*
X701501Y396499D02*
Y393500D01*
X703000D01*
X703500Y394000D01*
Y396000D01*
X703000Y396499D01*
X701501D01*
X704500Y393500D02*
X705499D01*
X704999D01*
Y396499D01*
X704500Y396000D01*
X238002Y222750D02*
X237502Y223249D01*
X236503D01*
X236003Y222750D01*
Y220750D01*
X236503Y220250D01*
X237502D01*
X238002Y220750D01*
X241001Y223249D02*
X240002Y222750D01*
X239002Y221750D01*
Y220750D01*
X239502Y220250D01*
X240501D01*
X241001Y220750D01*
Y221250D01*
X240501Y221750D01*
X239002D01*
X244000Y223249D02*
X242001D01*
Y221750D01*
X243001Y222250D01*
X243500D01*
X244000Y221750D01*
Y220750D01*
X243500Y220250D01*
X242501D01*
X242001Y220750D01*
X245000Y219751D02*
X246999D01*
X247999Y220250D02*
Y223249D01*
X248998Y222250D01*
X249998Y223249D01*
Y220250D01*
X252997D02*
X250998D01*
X252997Y222250D01*
Y222750D01*
X252497Y223249D01*
X251498D01*
X250998Y222750D01*
X365502Y222250D02*
X365002Y222749D01*
X364002D01*
X363503Y222250D01*
Y220250D01*
X364002Y219750D01*
X365002D01*
X365502Y220250D01*
X368501Y222749D02*
X367501Y222250D01*
X366502Y221250D01*
Y220250D01*
X367002Y219750D01*
X368001D01*
X368501Y220250D01*
Y220750D01*
X368001Y221250D01*
X366502D01*
X371500Y222749D02*
X369501D01*
Y221250D01*
X370500Y221750D01*
X371000D01*
X371500Y221250D01*
Y220250D01*
X371000Y219750D01*
X370001D01*
X369501Y220250D01*
X372500Y219251D02*
X374499D01*
X375499Y219750D02*
Y222749D01*
X376498Y221750D01*
X377498Y222749D01*
Y219750D01*
X378498D02*
X379497D01*
X378998D01*
Y222749D01*
X378498Y222250D01*
X488502Y223250D02*
X488002Y223749D01*
X487003D01*
X486503Y223250D01*
Y221250D01*
X487003Y220750D01*
X488002D01*
X488502Y221250D01*
X491501Y223749D02*
X490501Y223250D01*
X489502Y222250D01*
Y221250D01*
X490002Y220750D01*
X491001D01*
X491501Y221250D01*
Y221750D01*
X491001Y222250D01*
X489502D01*
X494500Y223749D02*
X492501D01*
Y222250D01*
X493501Y222750D01*
X494000D01*
X494500Y222250D01*
Y221250D01*
X494000Y220750D01*
X493001D01*
X492501Y221250D01*
X495500Y220251D02*
X497499D01*
X498499Y220750D02*
Y223749D01*
X499499Y222750D01*
X500498Y223749D01*
Y220750D01*
X501498Y223250D02*
X501998Y223749D01*
X502997D01*
X503497Y223250D01*
Y221250D01*
X502997Y220750D01*
X501998D01*
X501498Y221250D01*
Y223250D01*
X140502Y221250D02*
X140002Y221749D01*
X139003D01*
X138503Y221250D01*
Y219250D01*
X139003Y218750D01*
X140002D01*
X140502Y219250D01*
X143501Y221749D02*
X142501Y221250D01*
X141502Y220250D01*
Y219250D01*
X142002Y218750D01*
X143001D01*
X143501Y219250D01*
Y219750D01*
X143001Y220250D01*
X141502D01*
X146000Y218750D02*
Y221749D01*
X144501Y220250D01*
X146500D01*
X147500Y218251D02*
X149499D01*
X150499Y218750D02*
Y221749D01*
X151499Y220750D01*
X152498Y221749D01*
Y218750D01*
X155497D02*
X153498D01*
X155497Y220750D01*
Y221250D01*
X154997Y221749D01*
X153998D01*
X153498Y221250D01*
X267502Y222250D02*
X267002Y222749D01*
X266002D01*
X265503Y222250D01*
Y220250D01*
X266002Y219750D01*
X267002D01*
X267502Y220250D01*
X270501Y222749D02*
X269501Y222250D01*
X268502Y221250D01*
Y220250D01*
X269002Y219750D01*
X270001D01*
X270501Y220250D01*
Y220750D01*
X270001Y221250D01*
X268502D01*
X273000Y219750D02*
Y222749D01*
X271501Y221250D01*
X273500D01*
X274500Y219251D02*
X276499D01*
X277499Y219750D02*
Y222749D01*
X278498Y221750D01*
X279498Y222749D01*
Y219750D01*
X280498D02*
X281497D01*
X280998D01*
Y222749D01*
X280498Y222250D01*
X393502Y221750D02*
X393002Y222249D01*
X392003D01*
X391503Y221750D01*
Y219750D01*
X392003Y219250D01*
X393002D01*
X393502Y219750D01*
X396501Y222249D02*
X395501Y221750D01*
X394502Y220750D01*
Y219750D01*
X395002Y219250D01*
X396001D01*
X396501Y219750D01*
Y220250D01*
X396001Y220750D01*
X394502D01*
X399000Y219250D02*
Y222249D01*
X397501Y220750D01*
X399500D01*
X400500Y218751D02*
X402499D01*
X403499Y219250D02*
Y222249D01*
X404498Y221250D01*
X405498Y222249D01*
Y219250D01*
X406498Y221750D02*
X406998Y222249D01*
X407997D01*
X408497Y221750D01*
Y219750D01*
X407997Y219250D01*
X406998D01*
X406498Y219750D01*
Y221750D01*
X238750Y305502D02*
X238251Y305002D01*
Y304003D01*
X238750Y303503D01*
X240750D01*
X241250Y304003D01*
Y305002D01*
X240750Y305502D01*
X238251Y308501D02*
X238750Y307502D01*
X239750Y306502D01*
X240750D01*
X241250Y307002D01*
Y308001D01*
X240750Y308501D01*
X240250D01*
X239750Y308001D01*
Y306502D01*
X238750Y309501D02*
X238251Y310001D01*
Y311000D01*
X238750Y311500D01*
X239250D01*
X239750Y311000D01*
Y310501D01*
Y311000D01*
X240250Y311500D01*
X240750D01*
X241250Y311000D01*
Y310001D01*
X240750Y309501D01*
X241749Y312500D02*
Y314499D01*
X241250Y315499D02*
X238251D01*
X239250Y316499D01*
X238251Y317498D01*
X241250D01*
Y320497D02*
Y318498D01*
X239250Y320497D01*
X238750D01*
X238251Y319997D01*
Y318998D01*
X238750Y318498D01*
X363250Y305502D02*
X362751Y305002D01*
Y304002D01*
X363250Y303503D01*
X365250D01*
X365750Y304002D01*
Y305002D01*
X365250Y305502D01*
X362751Y308501D02*
X363250Y307501D01*
X364250Y306502D01*
X365250D01*
X365750Y307001D01*
Y308001D01*
X365250Y308501D01*
X364750D01*
X364250Y308001D01*
Y306502D01*
X363250Y309501D02*
X362751Y310000D01*
Y311000D01*
X363250Y311500D01*
X363750D01*
X364250Y311000D01*
Y310500D01*
Y311000D01*
X364750Y311500D01*
X365250D01*
X365750Y311000D01*
Y310000D01*
X365250Y309501D01*
X366249Y312500D02*
Y314499D01*
X365750Y315499D02*
X362751D01*
X363750Y316498D01*
X362751Y317498D01*
X365750D01*
Y318498D02*
Y319497D01*
Y318998D01*
X362751D01*
X363250Y318498D01*
X490250Y304502D02*
X489751Y304002D01*
Y303003D01*
X490250Y302503D01*
X492250D01*
X492750Y303003D01*
Y304002D01*
X492250Y304502D01*
X489751Y307501D02*
X490250Y306502D01*
X491250Y305502D01*
X492250D01*
X492750Y306002D01*
Y307001D01*
X492250Y307501D01*
X491750D01*
X491250Y307001D01*
Y305502D01*
X490250Y308501D02*
X489751Y309001D01*
Y310000D01*
X490250Y310500D01*
X490750D01*
X491250Y310000D01*
Y309501D01*
Y310000D01*
X491750Y310500D01*
X492250D01*
X492750Y310000D01*
Y309001D01*
X492250Y308501D01*
X493249Y311500D02*
Y313499D01*
X492750Y314499D02*
X489751D01*
X490750Y315498D01*
X489751Y316498D01*
X492750D01*
X490250Y317498D02*
X489751Y317998D01*
Y318997D01*
X490250Y319497D01*
X492250D01*
X492750Y318997D01*
Y317998D01*
X492250Y317498D01*
X490250D01*
X160502Y322750D02*
X160002Y323249D01*
X159003D01*
X158503Y322750D01*
Y320750D01*
X159003Y320250D01*
X160002D01*
X160502Y320750D01*
X163501Y323249D02*
X162502Y322750D01*
X161502Y321750D01*
Y320750D01*
X162002Y320250D01*
X163001D01*
X163501Y320750D01*
Y321250D01*
X163001Y321750D01*
X161502D01*
X166500Y320250D02*
X164501D01*
X166500Y322250D01*
Y322750D01*
X166000Y323249D01*
X165001D01*
X164501Y322750D01*
X167500Y319751D02*
X169499D01*
X170499Y320250D02*
Y323249D01*
X171499Y322250D01*
X172498Y323249D01*
Y320250D01*
X175497D02*
X173498D01*
X175497Y322250D01*
Y322750D01*
X174997Y323249D01*
X173998D01*
X173498Y322750D01*
X289502Y323250D02*
X289002Y323749D01*
X288002D01*
X287503Y323250D01*
Y321250D01*
X288002Y320750D01*
X289002D01*
X289502Y321250D01*
X292501Y323749D02*
X291501Y323250D01*
X290502Y322250D01*
Y321250D01*
X291002Y320750D01*
X292001D01*
X292501Y321250D01*
Y321750D01*
X292001Y322250D01*
X290502D01*
X295500Y320750D02*
X293501D01*
X295500Y322750D01*
Y323250D01*
X295000Y323749D01*
X294001D01*
X293501Y323250D01*
X296500Y320251D02*
X298499D01*
X299499Y320750D02*
Y323749D01*
X300498Y322750D01*
X301498Y323749D01*
Y320750D01*
X302498D02*
X303497D01*
X302998D01*
Y323749D01*
X302498Y323250D01*
X414002Y321750D02*
X413502Y322249D01*
X412503D01*
X412003Y321750D01*
Y319750D01*
X412503Y319250D01*
X413502D01*
X414002Y319750D01*
X417001Y322249D02*
X416002Y321750D01*
X415002Y320750D01*
Y319750D01*
X415502Y319250D01*
X416501D01*
X417001Y319750D01*
Y320250D01*
X416501Y320750D01*
X415002D01*
X420000Y319250D02*
X418001D01*
X420000Y321250D01*
Y321750D01*
X419500Y322249D01*
X418501D01*
X418001Y321750D01*
X421000Y318751D02*
X422999D01*
X423999Y319250D02*
Y322249D01*
X424999Y321250D01*
X425998Y322249D01*
Y319250D01*
X426998Y321750D02*
X427498Y322249D01*
X428497D01*
X428997Y321750D01*
Y319750D01*
X428497Y319250D01*
X427498D01*
X426998Y319750D01*
Y321750D01*
X227252Y301250D02*
X226752Y301749D01*
X225752D01*
X225253Y301250D01*
Y299250D01*
X225752Y298750D01*
X226752D01*
X227252Y299250D01*
X230251Y301749D02*
X229251Y301250D01*
X228252Y300250D01*
Y299250D01*
X228751Y298750D01*
X229751D01*
X230251Y299250D01*
Y299750D01*
X229751Y300250D01*
X228252D01*
X231251Y298750D02*
X232250D01*
X231751D01*
Y301749D01*
X231251Y301250D01*
X233750Y298251D02*
X235749D01*
X236749Y298750D02*
Y301749D01*
X237749Y300750D01*
X238748Y301749D01*
Y298750D01*
X241747D02*
X239748D01*
X241747Y300750D01*
Y301250D01*
X241248Y301749D01*
X240248D01*
X239748Y301250D01*
X354252Y300750D02*
X353752Y301249D01*
X352752D01*
X352253Y300750D01*
Y298750D01*
X352752Y298250D01*
X353752D01*
X354252Y298750D01*
X357251Y301249D02*
X356251Y300750D01*
X355252Y299750D01*
Y298750D01*
X355751Y298250D01*
X356751D01*
X357251Y298750D01*
Y299250D01*
X356751Y299750D01*
X355252D01*
X358251Y298250D02*
X359250D01*
X358750D01*
Y301249D01*
X358251Y300750D01*
X360750Y297751D02*
X362749D01*
X363749Y298250D02*
Y301249D01*
X364749Y300250D01*
X365748Y301249D01*
Y298250D01*
X366748D02*
X367747D01*
X367248D01*
Y301249D01*
X366748Y300750D01*
X480752Y299750D02*
X480252Y300249D01*
X479252D01*
X478753Y299750D01*
Y297750D01*
X479252Y297250D01*
X480252D01*
X480752Y297750D01*
X483751Y300249D02*
X482751Y299750D01*
X481752Y298750D01*
Y297750D01*
X482252Y297250D01*
X483251D01*
X483751Y297750D01*
Y298250D01*
X483251Y298750D01*
X481752D01*
X484751Y297250D02*
X485750D01*
X485251D01*
Y300249D01*
X484751Y299750D01*
X487250Y296751D02*
X489249D01*
X490249Y297250D02*
Y300249D01*
X491249Y299250D01*
X492248Y300249D01*
Y297250D01*
X493248Y299750D02*
X493748Y300249D01*
X494747D01*
X495247Y299750D01*
Y297750D01*
X494747Y297250D01*
X493748D01*
X493248Y297750D01*
Y299750D01*
X144002Y301250D02*
X143502Y301749D01*
X142503D01*
X142003Y301250D01*
Y299250D01*
X142503Y298750D01*
X143502D01*
X144002Y299250D01*
X147001Y301749D02*
X146002Y301250D01*
X145002Y300250D01*
Y299250D01*
X145502Y298750D01*
X146501D01*
X147001Y299250D01*
Y299750D01*
X146501Y300250D01*
X145002D01*
X148001Y301250D02*
X148501Y301749D01*
X149500D01*
X150000Y301250D01*
Y299250D01*
X149500Y298750D01*
X148501D01*
X148001Y299250D01*
Y301250D01*
X151000Y298251D02*
X152999D01*
X153999Y298750D02*
Y301749D01*
X154999Y300750D01*
X155998Y301749D01*
Y298750D01*
X158997D02*
X156998D01*
X158997Y300750D01*
Y301250D01*
X158497Y301749D01*
X157498D01*
X156998Y301250D01*
X270502D02*
X270002Y301749D01*
X269002D01*
X268503Y301250D01*
Y299250D01*
X269002Y298750D01*
X270002D01*
X270502Y299250D01*
X273501Y301749D02*
X272501Y301250D01*
X271502Y300250D01*
Y299250D01*
X272002Y298750D01*
X273001D01*
X273501Y299250D01*
Y299750D01*
X273001Y300250D01*
X271502D01*
X274501Y301250D02*
X275001Y301749D01*
X276000D01*
X276500Y301250D01*
Y299250D01*
X276000Y298750D01*
X275001D01*
X274501Y299250D01*
Y301250D01*
X277500Y298251D02*
X279499D01*
X280499Y298750D02*
Y301749D01*
X281498Y300750D01*
X282498Y301749D01*
Y298750D01*
X283498D02*
X284497D01*
X283998D01*
Y301749D01*
X283498Y301250D01*
X396002Y300250D02*
X395502Y300749D01*
X394503D01*
X394003Y300250D01*
Y298250D01*
X394503Y297750D01*
X395502D01*
X396002Y298250D01*
X399001Y300749D02*
X398002Y300250D01*
X397002Y299250D01*
Y298250D01*
X397502Y297750D01*
X398501D01*
X399001Y298250D01*
Y298750D01*
X398501Y299250D01*
X397002D01*
X400001Y300250D02*
X400501Y300749D01*
X401500D01*
X402000Y300250D01*
Y298250D01*
X401500Y297750D01*
X400501D01*
X400001Y298250D01*
Y300250D01*
X403000Y297251D02*
X404999D01*
X405999Y297750D02*
Y300749D01*
X406998Y299750D01*
X407998Y300749D01*
Y297750D01*
X408998Y300250D02*
X409498Y300749D01*
X410497D01*
X410997Y300250D01*
Y298250D01*
X410497Y297750D01*
X409498D01*
X408998Y298250D01*
Y300250D01*
X132750Y306002D02*
X132251Y305502D01*
Y304503D01*
X132750Y304003D01*
X134750D01*
X135250Y304503D01*
Y305502D01*
X134750Y306002D01*
X132251Y309001D02*
Y307002D01*
X133750D01*
X133250Y308001D01*
Y308501D01*
X133750Y309001D01*
X134750D01*
X135250Y308501D01*
Y307502D01*
X134750Y307002D01*
Y310001D02*
X135250Y310501D01*
Y311500D01*
X134750Y312000D01*
X132750D01*
X132251Y311500D01*
Y310501D01*
X132750Y310001D01*
X133250D01*
X133750Y310501D01*
Y312000D01*
X135749Y313000D02*
Y314999D01*
X135250Y315999D02*
X132251D01*
X133250Y316999D01*
X132251Y317998D01*
X135250D01*
Y320997D02*
Y318998D01*
X133250Y320997D01*
X132750D01*
X132251Y320497D01*
Y319498D01*
X132750Y318998D01*
X257750Y308502D02*
X257251Y308002D01*
Y307002D01*
X257750Y306503D01*
X259750D01*
X260250Y307002D01*
Y308002D01*
X259750Y308502D01*
X257251Y311501D02*
Y309502D01*
X258750D01*
X258250Y310501D01*
Y311001D01*
X258750Y311501D01*
X259750D01*
X260250Y311001D01*
Y310001D01*
X259750Y309502D01*
Y312501D02*
X260250Y313000D01*
Y314000D01*
X259750Y314500D01*
X257750D01*
X257251Y314000D01*
Y313000D01*
X257750Y312501D01*
X258250D01*
X258750Y313000D01*
Y314500D01*
X260749Y315500D02*
Y317499D01*
X260250Y318499D02*
X257251D01*
X258250Y319498D01*
X257251Y320498D01*
X260250D01*
Y321498D02*
Y322497D01*
Y321998D01*
X257251D01*
X257750Y321498D01*
X384750Y306002D02*
X384251Y305502D01*
Y304503D01*
X384750Y304003D01*
X386750D01*
X387250Y304503D01*
Y305502D01*
X386750Y306002D01*
X384251Y309001D02*
Y307002D01*
X385750D01*
X385250Y308001D01*
Y308501D01*
X385750Y309001D01*
X386750D01*
X387250Y308501D01*
Y307502D01*
X386750Y307002D01*
Y310001D02*
X387250Y310501D01*
Y311500D01*
X386750Y312000D01*
X384750D01*
X384251Y311500D01*
Y310501D01*
X384750Y310001D01*
X385250D01*
X385750Y310501D01*
Y312000D01*
X387749Y313000D02*
Y314999D01*
X387250Y315999D02*
X384251D01*
X385250Y316999D01*
X384251Y317998D01*
X387250D01*
X384750Y318998D02*
X384251Y319498D01*
Y320497D01*
X384750Y320997D01*
X386750D01*
X387250Y320497D01*
Y319498D01*
X386750Y318998D01*
X384750D01*
X150250Y313002D02*
X149751Y312502D01*
Y311503D01*
X150250Y311003D01*
X152250D01*
X152750Y311503D01*
Y312502D01*
X152250Y313002D01*
X149751Y316001D02*
Y314002D01*
X151250D01*
X150750Y315002D01*
Y315501D01*
X151250Y316001D01*
X152250D01*
X152750Y315501D01*
Y314502D01*
X152250Y314002D01*
X150250Y317001D02*
X149751Y317501D01*
Y318500D01*
X150250Y319000D01*
X150750D01*
X151250Y318500D01*
X151750Y319000D01*
X152250D01*
X152750Y318500D01*
Y317501D01*
X152250Y317001D01*
X151750D01*
X151250Y317501D01*
X150750Y317001D01*
X150250D01*
X151250Y317501D02*
Y318500D01*
X153249Y320000D02*
Y321999D01*
X152750Y322999D02*
X149751D01*
X150750Y323998D01*
X149751Y324998D01*
X152750D01*
Y327997D02*
Y325998D01*
X150750Y327997D01*
X150250D01*
X149751Y327497D01*
Y326498D01*
X150250Y325998D01*
X276250Y313002D02*
X275751Y312502D01*
Y311502D01*
X276250Y311003D01*
X278250D01*
X278750Y311502D01*
Y312502D01*
X278250Y313002D01*
X275751Y316001D02*
Y314002D01*
X277250D01*
X276750Y315001D01*
Y315501D01*
X277250Y316001D01*
X278250D01*
X278750Y315501D01*
Y314502D01*
X278250Y314002D01*
X276250Y317001D02*
X275751Y317500D01*
Y318500D01*
X276250Y319000D01*
X276750D01*
X277250Y318500D01*
X277750Y319000D01*
X278250D01*
X278750Y318500D01*
Y317500D01*
X278250Y317001D01*
X277750D01*
X277250Y317500D01*
X276750Y317001D01*
X276250D01*
X277250Y317500D02*
Y318500D01*
X279249Y320000D02*
Y321999D01*
X278750Y322999D02*
X275751D01*
X276750Y323998D01*
X275751Y324998D01*
X278750D01*
Y325998D02*
Y326997D01*
Y326498D01*
X275751D01*
X276250Y325998D01*
X402750Y312002D02*
X402251Y311502D01*
Y310503D01*
X402750Y310003D01*
X404750D01*
X405250Y310503D01*
Y311502D01*
X404750Y312002D01*
X402251Y315001D02*
Y313002D01*
X403750D01*
X403250Y314001D01*
Y314501D01*
X403750Y315001D01*
X404750D01*
X405250Y314501D01*
Y313502D01*
X404750Y313002D01*
X402750Y316001D02*
X402251Y316501D01*
Y317500D01*
X402750Y318000D01*
X403250D01*
X403750Y317500D01*
X404250Y318000D01*
X404750D01*
X405250Y317500D01*
Y316501D01*
X404750Y316001D01*
X404250D01*
X403750Y316501D01*
X403250Y316001D01*
X402750D01*
X403750Y316501D02*
Y317500D01*
X405749Y319000D02*
Y320999D01*
X405250Y321999D02*
X402251D01*
X403250Y322998D01*
X402251Y323998D01*
X405250D01*
X402750Y324998D02*
X402251Y325498D01*
Y326497D01*
X402750Y326997D01*
X404750D01*
X405250Y326497D01*
Y325498D01*
X404750Y324998D01*
X402750D01*
X151502Y331250D02*
X151002Y331749D01*
X150003D01*
X149503Y331250D01*
Y329250D01*
X150003Y328750D01*
X151002D01*
X151502Y329250D01*
X154501Y331749D02*
X152502D01*
Y330250D01*
X153501Y330750D01*
X154001D01*
X154501Y330250D01*
Y329250D01*
X154001Y328750D01*
X153002D01*
X152502Y329250D01*
X155501Y331749D02*
X157500D01*
Y331250D01*
X155501Y329250D01*
Y328750D01*
X158500Y328251D02*
X160499D01*
X161499Y328750D02*
Y331749D01*
X162499Y330750D01*
X163498Y331749D01*
Y328750D01*
X166497D02*
X164498D01*
X166497Y330750D01*
Y331250D01*
X165997Y331749D01*
X164998D01*
X164498Y331250D01*
X281002Y330750D02*
X280502Y331249D01*
X279502D01*
X279003Y330750D01*
Y328750D01*
X279502Y328250D01*
X280502D01*
X281002Y328750D01*
X284001Y331249D02*
X282002D01*
Y329750D01*
X283001Y330250D01*
X283501D01*
X284001Y329750D01*
Y328750D01*
X283501Y328250D01*
X282502D01*
X282002Y328750D01*
X285001Y331249D02*
X287000D01*
Y330750D01*
X285001Y328750D01*
Y328250D01*
X288000Y327751D02*
X289999D01*
X290999Y328250D02*
Y331249D01*
X291998Y330250D01*
X292998Y331249D01*
Y328250D01*
X293998D02*
X294997D01*
X294498D01*
Y331249D01*
X293998Y330750D01*
X413002Y329750D02*
X412502Y330249D01*
X411503D01*
X411003Y329750D01*
Y327750D01*
X411503Y327250D01*
X412502D01*
X413002Y327750D01*
X416001Y330249D02*
X414002D01*
Y328750D01*
X415001Y329250D01*
X415501D01*
X416001Y328750D01*
Y327750D01*
X415501Y327250D01*
X414502D01*
X414002Y327750D01*
X417001Y330249D02*
X419000D01*
Y329750D01*
X417001Y327750D01*
Y327250D01*
X420000Y326751D02*
X421999D01*
X422999Y327250D02*
Y330249D01*
X423998Y329250D01*
X424998Y330249D01*
Y327250D01*
X425998Y329750D02*
X426498Y330249D01*
X427497D01*
X427997Y329750D01*
Y327750D01*
X427497Y327250D01*
X426498D01*
X425998Y327750D01*
Y329750D01*
X154750Y312502D02*
X154251Y312002D01*
Y311003D01*
X154750Y310503D01*
X156750D01*
X157250Y311003D01*
Y312002D01*
X156750Y312502D01*
X154251Y315501D02*
Y313502D01*
X155750D01*
X155250Y314502D01*
Y315001D01*
X155750Y315501D01*
X156750D01*
X157250Y315001D01*
Y314002D01*
X156750Y313502D01*
X154251Y318500D02*
X154750Y317500D01*
X155750Y316501D01*
X156750D01*
X157250Y317001D01*
Y318000D01*
X156750Y318500D01*
X156250D01*
X155750Y318000D01*
Y316501D01*
X157749Y319500D02*
Y321499D01*
X157250Y322499D02*
X154251D01*
X155250Y323499D01*
X154251Y324498D01*
X157250D01*
Y327497D02*
Y325498D01*
X155250Y327497D01*
X154750D01*
X154251Y326997D01*
Y325998D01*
X154750Y325498D01*
X281750Y313002D02*
X281251Y312502D01*
Y311502D01*
X281750Y311003D01*
X283750D01*
X284250Y311502D01*
Y312502D01*
X283750Y313002D01*
X281251Y316001D02*
Y314002D01*
X282750D01*
X282250Y315001D01*
Y315501D01*
X282750Y316001D01*
X283750D01*
X284250Y315501D01*
Y314502D01*
X283750Y314002D01*
X281251Y319000D02*
X281750Y318000D01*
X282750Y317001D01*
X283750D01*
X284250Y317500D01*
Y318500D01*
X283750Y319000D01*
X283250D01*
X282750Y318500D01*
Y317001D01*
X284749Y320000D02*
Y321999D01*
X284250Y322999D02*
X281251D01*
X282250Y323998D01*
X281251Y324998D01*
X284250D01*
Y325998D02*
Y326997D01*
Y326498D01*
X281251D01*
X281750Y325998D01*
X407750Y312002D02*
X407251Y311502D01*
Y310503D01*
X407750Y310003D01*
X409750D01*
X410250Y310503D01*
Y311502D01*
X409750Y312002D01*
X407251Y315001D02*
Y313002D01*
X408750D01*
X408250Y314001D01*
Y314501D01*
X408750Y315001D01*
X409750D01*
X410250Y314501D01*
Y313502D01*
X409750Y313002D01*
X407251Y318000D02*
X407750Y317001D01*
X408750Y316001D01*
X409750D01*
X410250Y316501D01*
Y317500D01*
X409750Y318000D01*
X409250D01*
X408750Y317500D01*
Y316001D01*
X410749Y319000D02*
Y320999D01*
X410250Y321999D02*
X407251D01*
X408250Y322998D01*
X407251Y323998D01*
X410250D01*
X407750Y324998D02*
X407251Y325498D01*
Y326497D01*
X407750Y326997D01*
X409750D01*
X410250Y326497D01*
Y325498D01*
X409750Y324998D01*
X407750D01*
X633001Y291000D02*
X632501Y291499D01*
X631501D01*
X631001Y291000D01*
Y289000D01*
X631501Y288500D01*
X632501D01*
X633001Y289000D01*
X636000Y291499D02*
X634000D01*
Y290000D01*
X635000Y290500D01*
X635500D01*
X636000Y290000D01*
Y289000D01*
X635500Y288500D01*
X634500D01*
X634000Y289000D01*
X638999Y291499D02*
X636999D01*
Y290000D01*
X637999Y290500D01*
X638499D01*
X638999Y290000D01*
Y289000D01*
X638499Y288500D01*
X637499D01*
X636999Y289000D01*
X633001Y297000D02*
X632501Y297499D01*
X631501D01*
X631001Y297000D01*
Y295000D01*
X631501Y294500D01*
X632501D01*
X633001Y295000D01*
X636000Y297499D02*
X634000D01*
Y296000D01*
X635000Y296500D01*
X635500D01*
X636000Y296000D01*
Y295000D01*
X635500Y294500D01*
X634500D01*
X634000Y295000D01*
X638499Y294500D02*
Y297499D01*
X636999Y296000D01*
X638999D01*
X633001Y309000D02*
X632501Y309500D01*
X631501D01*
X631001Y309000D01*
Y307000D01*
X631501Y306501D01*
X632501D01*
X633001Y307000D01*
X636000Y309500D02*
X634000D01*
Y308000D01*
X635000Y308500D01*
X635500D01*
X636000Y308000D01*
Y307000D01*
X635500Y306501D01*
X634500D01*
X634000Y307000D01*
X636999Y309000D02*
X637499Y309500D01*
X638499D01*
X638999Y309000D01*
Y308500D01*
X638499Y308000D01*
X637999D01*
X638499D01*
X638999Y307500D01*
Y307000D01*
X638499Y306501D01*
X637499D01*
X636999Y307000D01*
X633001Y303000D02*
X632501Y303500D01*
X631501D01*
X631001Y303000D01*
Y301000D01*
X631501Y300500D01*
X632501D01*
X633001Y301000D01*
X636000Y303500D02*
X634000D01*
Y302000D01*
X635000Y302500D01*
X635500D01*
X636000Y302000D01*
Y301000D01*
X635500Y300500D01*
X634500D01*
X634000Y301000D01*
X638999Y300500D02*
X636999D01*
X638999Y302500D01*
Y303000D01*
X638499Y303500D01*
X637499D01*
X636999Y303000D01*
X700501Y272000D02*
X700001Y272499D01*
X699001D01*
X698501Y272000D01*
Y270000D01*
X699001Y269500D01*
X700001D01*
X700501Y270000D01*
X703500Y272499D02*
X701500D01*
Y271000D01*
X702500Y271500D01*
X703000D01*
X703500Y271000D01*
Y270000D01*
X703000Y269500D01*
X702000D01*
X701500Y270000D01*
X704499Y272000D02*
X704999Y272499D01*
X705999D01*
X706499Y272000D01*
Y270000D01*
X705999Y269500D01*
X704999D01*
X704499Y270000D01*
Y272000D01*
X656000Y277499D02*
X656499Y277999D01*
Y278999D01*
X656000Y279499D01*
X654000D01*
X653501Y278999D01*
Y277999D01*
X654000Y277499D01*
X653501Y275000D02*
X656499D01*
X655000Y276500D01*
Y274500D01*
X654000Y273501D02*
X653501Y273001D01*
Y272001D01*
X654000Y271501D01*
X656000D01*
X656499Y272001D01*
Y273001D01*
X656000Y273501D01*
X655500D01*
X655000Y273001D01*
Y271501D01*
X564650Y308001D02*
X564150Y307501D01*
Y306501D01*
X564650Y306001D01*
X566649D01*
X567149Y306501D01*
Y307501D01*
X566649Y308001D01*
X567149Y310500D02*
X564150D01*
X565650Y309000D01*
Y311000D01*
X564650Y311999D02*
X564150Y312499D01*
Y313499D01*
X564650Y313999D01*
X565150D01*
X565650Y313499D01*
Y312999D01*
Y313499D01*
X566149Y313999D01*
X566649D01*
X567149Y313499D01*
Y312499D01*
X566649Y311999D01*
X557001Y263000D02*
X556501Y263499D01*
X555501D01*
X555001Y263000D01*
Y261000D01*
X555501Y260501D01*
X556501D01*
X557001Y261000D01*
X558000Y263000D02*
X558500Y263499D01*
X559500D01*
X560000Y263000D01*
Y262500D01*
X559500Y262000D01*
X559000D01*
X559500D01*
X560000Y261500D01*
Y261000D01*
X559500Y260501D01*
X558500D01*
X558000Y261000D01*
X562499Y260501D02*
Y263499D01*
X560999Y262000D01*
X562999D01*
X589259Y406000D02*
X588759Y406499D01*
X587759D01*
X587260Y406000D01*
Y404000D01*
X587759Y403501D01*
X588759D01*
X589259Y404000D01*
X590259Y406000D02*
X590759Y406499D01*
X591758D01*
X592258Y406000D01*
Y405500D01*
X591758Y405000D01*
X592258Y404500D01*
Y404000D01*
X591758Y403501D01*
X590759D01*
X590259Y404000D01*
Y404500D01*
X590759Y405000D01*
X590259Y405500D01*
Y406000D01*
X590759Y405000D02*
X591758D01*
X577759Y397000D02*
X577259Y397499D01*
X576260D01*
X575760Y397000D01*
Y395000D01*
X576260Y394500D01*
X577259D01*
X577759Y395000D01*
X578759Y397499D02*
X580758D01*
Y397000D01*
X578759Y395000D01*
Y394500D01*
X577759Y391000D02*
X577259Y391499D01*
X576260D01*
X575760Y391000D01*
Y389000D01*
X576260Y388500D01*
X577259D01*
X577759Y389000D01*
X580758Y391499D02*
X579758Y391000D01*
X578759Y390000D01*
Y389000D01*
X579258Y388500D01*
X580258D01*
X580758Y389000D01*
Y389500D01*
X580258Y390000D01*
X578759D01*
X589259Y378500D02*
X588759Y378999D01*
X587759D01*
X587260Y378500D01*
Y376500D01*
X587759Y376000D01*
X588759D01*
X589259Y376500D01*
X592258Y378999D02*
X590259D01*
Y377500D01*
X591258Y378000D01*
X591758D01*
X592258Y377500D01*
Y376500D01*
X591758Y376000D01*
X590759D01*
X590259Y376500D01*
X597259Y378500D02*
X596759Y378999D01*
X595759D01*
X595260Y378500D01*
Y376500D01*
X595759Y376000D01*
X596759D01*
X597259Y376500D01*
X599758Y376000D02*
Y378999D01*
X598259Y377500D01*
X600258D01*
X597099Y411699D02*
X596599Y412199D01*
X595600D01*
X595100Y411699D01*
Y409700D01*
X595600Y409200D01*
X596599D01*
X597099Y409700D01*
X598099Y411699D02*
X598599Y412199D01*
X599599D01*
X600098Y411699D01*
Y411199D01*
X599599Y410700D01*
X599099D01*
X599599D01*
X600098Y410200D01*
Y409700D01*
X599599Y409200D01*
X598599D01*
X598099Y409700D01*
X607759Y416000D02*
X607259Y416500D01*
X606259D01*
X605760Y416000D01*
Y414000D01*
X606259Y413500D01*
X607259D01*
X607759Y414000D01*
X610758Y413500D02*
X608759D01*
X610758Y415500D01*
Y416000D01*
X610258Y416500D01*
X609259D01*
X608759Y416000D01*
X619759Y427500D02*
X619259Y427999D01*
X618259D01*
X617760Y427500D01*
Y425500D01*
X618259Y425000D01*
X619259D01*
X619759Y425500D01*
X620758Y425000D02*
X621758D01*
X621258D01*
Y427999D01*
X620758Y427500D01*
D11*
X408492Y382500D02*
G03*
X408492Y382500I-492J0D01*
G01*
X689492Y265500D02*
G03*
X689492Y265500I-492J0D01*
G01*
X207992Y288000D02*
G03*
X207992Y288000I-492J0D01*
G01*
X333992D02*
G03*
X333992Y288000I-492J0D01*
G01*
X460492Y287000D02*
G03*
X460492Y287000I-492J0D01*
G01*
X176992Y288000D02*
G03*
X176992Y288000I-492J0D01*
G01*
X302992D02*
G03*
X302992Y288000I-492J0D01*
G01*
X429492Y287000D02*
G03*
X429492Y287000I-492J0D01*
G01*
X217492Y235500D02*
G03*
X217492Y235500I-492J0D01*
G01*
X343492D02*
G03*
X343492Y235500I-492J0D01*
G01*
X469992Y234500D02*
G03*
X469992Y234500I-492J0D01*
G01*
X168992Y235500D02*
G03*
X168992Y235500I-492J0D01*
G01*
X293492D02*
G03*
X293492Y235500I-492J0D01*
G01*
X419992Y234500D02*
G03*
X419992Y234500I-492J0D01*
G01*
X203992Y315500D02*
G03*
X203992Y315500I-492J0D01*
G01*
X329992D02*
G03*
X329992Y315500I-492J0D01*
G01*
X456492Y314500D02*
G03*
X456492Y314500I-492J0D01*
G01*
X180992Y315500D02*
G03*
X180992Y315500I-492J0D01*
G01*
X306992D02*
G03*
X306992Y315500I-492J0D01*
G01*
X433492Y314500D02*
G03*
X433492Y314500I-492J0D01*
G01*
X247492Y272000D02*
G03*
X247492Y272000I-492J0D01*
G01*
X373492D02*
G03*
X373492Y272000I-492J0D01*
G01*
X499992Y271000D02*
G03*
X499992Y271000I-492J0D01*
G01*
X137992Y272000D02*
G03*
X137992Y272000I-492J0D01*
G01*
X263992D02*
G03*
X263992Y272000I-492J0D01*
G01*
X390492Y271000D02*
G03*
X390492Y271000I-492J0D01*
G01*
X155992Y383500D02*
G03*
X155992Y383500I-492J0D01*
G01*
X281992D02*
G03*
X281992Y383500I-492J0D01*
G01*
X204492Y354232D02*
G03*
X204492Y354232I-492J0D01*
G01*
X330492D02*
G03*
X330492Y354232I-492J0D01*
G01*
X456992Y353232D02*
G03*
X456992Y353232I-492J0D01*
G01*
X749992Y275000D02*
G03*
X749992Y275000I-492J0D01*
G01*
X220492Y235500D02*
G03*
X220492Y235500I-492J0D01*
G01*
X346492D02*
G03*
X346492Y235500I-492J0D01*
G01*
X472992Y234500D02*
G03*
X472992Y234500I-492J0D01*
G01*
X234992Y243500D02*
G03*
X234992Y243500I-492J0D01*
G01*
X360992D02*
G03*
X360992Y243500I-492J0D01*
G01*
X487492Y242500D02*
G03*
X487492Y242500I-492J0D01*
G01*
X154992Y243500D02*
G03*
X154992Y243500I-492J0D01*
G01*
X275492D02*
G03*
X275492Y243500I-492J0D01*
G01*
X401992Y242500D02*
G03*
X401992Y242500I-492J0D01*
G01*
X164492Y235500D02*
G03*
X164492Y235500I-492J0D01*
G01*
X290492D02*
G03*
X290492Y235500I-492J0D01*
G01*
X416992Y234500D02*
G03*
X416992Y234500I-492J0D01*
G01*
X699492Y396500D02*
G03*
X699492Y396500I-492J0D01*
G01*
D12*
X468894Y296000D02*
G03*
X468894Y296000I-394J0D01*
G01*
X342394Y297000D02*
G03*
X342394Y297000I-394J0D01*
G01*
X216394D02*
G03*
X216394Y297000I-394J0D01*
G01*
X418394Y296000D02*
G03*
X418394Y296000I-394J0D01*
G01*
X291894Y297000D02*
G03*
X291894Y297000I-394J0D01*
G01*
X165894D02*
G03*
X165894Y297000I-394J0D01*
G01*
X472394Y272000D02*
G03*
X472394Y272000I-394J0D01*
G01*
X345894Y273000D02*
G03*
X345894Y273000I-394J0D01*
G01*
X219894D02*
G03*
X219894Y273000I-394J0D01*
G01*
X414894Y272000D02*
G03*
X414894Y272000I-394J0D01*
G01*
X288394Y273000D02*
G03*
X288394Y273000I-394J0D01*
G01*
X162394D02*
G03*
X162394Y273000I-394J0D01*
G01*
X725894Y415500D02*
G03*
X725894Y415500I-394J0D01*
G01*
X245563Y219492D02*
G03*
X245563Y219492I-500J0D01*
G01*
X371500Y219500D02*
G03*
X371500Y219500I-500J0D01*
G01*
X498000Y218500D02*
G03*
X498000Y218500I-500J0D01*
G01*
X147500Y219500D02*
G03*
X147500Y219500I-500J0D01*
G01*
X273500D02*
G03*
X273500Y219500I-500J0D01*
G01*
X400000Y218500D02*
G03*
X400000Y218500I-500J0D01*
G01*
X658380Y225937D02*
Y233437D01*
X558500Y226000D02*
Y233500D01*
X612500Y226000D02*
Y233500D01*
X463236Y298953D02*
Y311945D01*
X476228Y298953D02*
Y311945D01*
X349728Y299953D02*
Y312945D01*
X336736Y299953D02*
Y312945D01*
X210736Y299953D02*
Y312945D01*
X223728Y299953D02*
Y312945D01*
X425728Y298953D02*
Y311945D01*
X412736Y298953D02*
Y311945D01*
X286236Y299953D02*
Y312945D01*
X299228Y299953D02*
Y312945D01*
X173228Y299953D02*
Y312945D01*
X160236Y299953D02*
Y312945D01*
X466736Y274953D02*
Y287945D01*
X479728Y274953D02*
Y287945D01*
X353228Y275953D02*
Y288945D01*
X340236Y275953D02*
Y288945D01*
X214236Y275953D02*
Y288945D01*
X227228Y275953D02*
Y288945D01*
X422228Y274953D02*
Y287945D01*
X409236Y274953D02*
Y287945D01*
X282736Y275953D02*
Y288945D01*
X295728Y275953D02*
Y288945D01*
X169728Y275953D02*
Y288945D01*
X156736Y275953D02*
Y288945D01*
X730764Y399555D02*
Y412547D01*
X717772Y399555D02*
Y412547D01*
X505000Y191000D02*
Y226000D01*
Y191000D02*
X667500D01*
X505000Y226000D02*
X667500D01*
X776500Y191000D02*
Y195000D01*
X768500Y213500D02*
X776500D01*
X667500Y191000D02*
X776500D01*
X667500Y213500D02*
X768500D01*
X721000Y191000D02*
Y222000D01*
X768000D01*
X667500D02*
X721000D01*
X667500Y191000D02*
Y226000D01*
X558500Y191000D02*
Y232000D01*
X612500Y191000D02*
Y232000D01*
X768500Y279500D02*
X811500D01*
X768500Y363500D02*
X811500D01*
X768750Y321250D02*
X811500D01*
X768500Y406000D02*
X811500D01*
X716000Y424000D02*
X759000D01*
X716000Y417000D02*
Y424000D01*
Y417000D02*
X759000D01*
Y424000D01*
X716000Y447500D02*
X757000D01*
X811500Y195000D02*
Y447500D01*
X776500Y195000D02*
Y447500D01*
X768500D02*
X811500D01*
X757000D02*
X759000D01*
X716000Y424000D02*
Y447500D01*
X768500Y213500D02*
Y447500D01*
X776500Y237000D02*
X811500D01*
X776500Y195000D02*
X811500D01*
X768500Y241000D02*
X776500D01*
X759000Y424000D02*
Y447500D01*
X558500Y232000D02*
X612500D01*
Y233500D02*
X658000D01*
X505000D02*
X558500D01*
X505000Y226000D02*
Y233500D01*
X427500Y204500D02*
Y241500D01*
Y204500D02*
X464000D01*
Y241500D01*
X427500D02*
X464000D01*
X427500Y234500D02*
X464000D01*
X301000Y205500D02*
Y242500D01*
Y205500D02*
X337500D01*
Y242500D01*
X301000D02*
X337500D01*
X301000Y235500D02*
X337500D01*
X175000D02*
X211500D01*
X175000Y242500D02*
X211500D01*
Y205500D02*
Y242500D01*
X175000Y205500D02*
X211500D01*
X175000D02*
Y242500D01*
D13*
X576676Y386000D02*
G03*
X576676Y386000I-394J0D01*
G01*
X402894Y240500D02*
G03*
X402894Y240500I-394J0D01*
G01*
X276394Y241500D02*
G03*
X276394Y241500I-394J0D01*
G01*
X495894Y240500D02*
G03*
X495894Y240500I-394J0D01*
G01*
X369394Y241500D02*
G03*
X369394Y241500I-394J0D01*
G01*
X150394D02*
G03*
X150394Y241500I-394J0D01*
G01*
X243394D02*
G03*
X243394Y241500I-394J0D01*
G01*
X642794Y349508D02*
G03*
X642794Y349508I-394J0D01*
G01*
X247402Y390846D02*
Y429153D01*
X227598Y390846D02*
X228524D01*
X246476D02*
X247402D01*
X227598D02*
Y429153D01*
X228524D01*
X246476D02*
X247402D01*
X373402Y390846D02*
Y429153D01*
X353598Y390846D02*
X354524D01*
X372476D02*
X373402D01*
X353598D02*
Y429153D01*
X354524D01*
X372476D02*
X373402D01*
X499902Y389846D02*
Y428154D01*
X480098Y389846D02*
X481024D01*
X498976D02*
X499902D01*
X480098D02*
Y428154D01*
X481024D01*
X498976D02*
X499902D01*
X197110Y326673D02*
X199276D01*
X208724D02*
X210890D01*
X193173Y330610D02*
X197110Y326673D01*
X210890D02*
X214827Y330610D01*
X193173D02*
Y348327D01*
X214827Y330610D02*
Y348327D01*
X208626D02*
X214827D01*
X193173D02*
X199374D01*
X323110Y326673D02*
X325276D01*
X334724D02*
X336890D01*
X319173Y330610D02*
X323110Y326673D01*
X336890D02*
X340827Y330610D01*
X319173D02*
Y348327D01*
X340827Y330610D02*
Y348327D01*
X334626D02*
X340827D01*
X319173D02*
X325374D01*
X449610Y325673D02*
X451776D01*
X461224D02*
X463390D01*
X445673Y329610D02*
X449610Y325673D01*
X463390D02*
X467327Y329610D01*
X445673D02*
Y347327D01*
X467327Y329610D02*
Y347327D01*
X461126D02*
X467327D01*
X445673D02*
X451874D01*
X716409Y280295D02*
X747590D01*
Y269705D02*
Y280295D01*
X716409Y269705D02*
X747590D01*
X716409D02*
Y280295D01*
D14*
X709530Y249074D02*
X710221D01*
X709530Y247543D02*
Y250642D01*
X731531Y248042D02*
Y251143D01*
Y249574D02*
X732221D01*
X387426Y215031D02*
Y215721D01*
X385858Y215031D02*
X388958D01*
X259358Y216031D02*
X262457D01*
X260926D02*
Y216721D01*
X134926Y216031D02*
Y216721D01*
X133358Y216031D02*
X136458D01*
X483857Y214031D02*
X486958D01*
X485426D02*
Y214721D01*
X358926Y215031D02*
Y215721D01*
X357358Y215031D02*
X360457D01*
X231358D02*
X234457D01*
X232926D02*
Y215721D01*
X485031Y356074D02*
X485721D01*
X485031Y354542D02*
Y357643D01*
X358530Y355542D02*
Y358643D01*
Y357074D02*
X359221D01*
X232530D02*
X233221D01*
X232530Y355542D02*
Y358643D01*
X522116Y396030D02*
X525216D01*
X523685D02*
Y396721D01*
D15*
X552582Y403441D02*
X567936D01*
X552582Y383559D02*
X567936D01*
X392595Y225594D02*
Y228764D01*
X404405Y225594D02*
Y228764D01*
X392595Y234236D02*
Y237405D01*
X404405Y234236D02*
Y237405D01*
X277906Y235236D02*
Y238405D01*
X266094Y235236D02*
Y238405D01*
X277906Y226594D02*
Y229764D01*
X266094Y226594D02*
Y229764D01*
X485595Y225594D02*
Y228764D01*
X497405Y225594D02*
Y228764D01*
X485595Y234236D02*
Y237405D01*
X497405Y234236D02*
Y237405D01*
X370905Y235236D02*
Y238405D01*
X359095Y235236D02*
Y238405D01*
X370905Y226594D02*
Y229764D01*
X359095Y226594D02*
Y229764D01*
X140094Y226594D02*
Y229764D01*
X151906Y226594D02*
Y229764D01*
X140094Y235236D02*
Y238405D01*
X151906Y235236D02*
Y238405D01*
X244905Y235236D02*
Y238405D01*
X233095Y235236D02*
Y238405D01*
X244905Y226594D02*
Y229764D01*
X233095Y226594D02*
Y229764D01*
X672912Y354035D02*
X684723Y365846D01*
Y420965D01*
X617794Y365846D02*
Y420965D01*
Y365846D02*
X629605Y354035D01*
X645078D01*
X657440D02*
X672912D01*
X617794Y420965D02*
X645078D01*
X657440D02*
X684723D01*
D16*
X440925Y250051D02*
X443590D01*
X442257Y251384D02*
Y248719D01*
X445425Y250051D02*
X448090D01*
X313925Y251051D02*
X316590D01*
X315257Y252384D02*
Y249718D01*
X318425Y251051D02*
X321090D01*
X193167Y251000D02*
X195833D01*
X188667D02*
X191333D01*
X190000Y252333D02*
Y249667D01*
X522670Y227834D02*
Y230500D01*
X524003Y231833D01*
X525336Y230500D01*
Y227834D01*
Y229833D01*
X522670D01*
X526668Y231833D02*
Y227834D01*
X528668D01*
X529334Y228500D01*
Y229167D01*
X528668Y229833D01*
X526668D01*
X528668D01*
X529334Y230500D01*
Y231166D01*
X528668Y231833D01*
X526668D01*
X533333Y231166D02*
X532666Y231833D01*
X531334D01*
X530667Y231166D01*
Y230500D01*
X531334Y229833D01*
X532666D01*
X533333Y229167D01*
Y228500D01*
X532666Y227834D01*
X531334D01*
X530667Y228500D01*
X534666Y227167D02*
X537332D01*
X538664Y231166D02*
X539331Y231833D01*
X540664D01*
X541330Y231166D01*
Y228500D01*
X540664Y227834D01*
X539331D01*
X538664Y228500D01*
Y231166D01*
X686200Y219307D02*
X685534Y219973D01*
X684201D01*
X683534Y219307D01*
Y216641D01*
X684201Y215975D01*
X685534D01*
X686200Y216641D01*
X687533Y215975D02*
Y218640D01*
X688866Y219973D01*
X690199Y218640D01*
Y215975D01*
Y217974D01*
X687533D01*
X691532Y215975D02*
Y219973D01*
X694198Y215975D01*
Y219973D01*
X695531Y215308D02*
X698196D01*
X699529Y219307D02*
X700196Y219973D01*
X701529D01*
X702195Y219307D01*
Y216641D01*
X701529Y215975D01*
X700196D01*
X699529Y216641D01*
Y219307D01*
X629170Y227834D02*
Y230500D01*
X630503Y231833D01*
X631836Y230500D01*
Y227834D01*
Y229833D01*
X629170D01*
X633168Y231833D02*
Y227834D01*
X635168D01*
X635834Y228500D01*
Y229167D01*
X635168Y229833D01*
X633168D01*
X635168D01*
X635834Y230500D01*
Y231166D01*
X635168Y231833D01*
X633168D01*
X639833Y231166D02*
X639166Y231833D01*
X637834D01*
X637167Y231166D01*
Y230500D01*
X637834Y229833D01*
X639166D01*
X639833Y229167D01*
Y228500D01*
X639166Y227834D01*
X637834D01*
X637167Y228500D01*
X641166Y227167D02*
X643832D01*
X647830Y227834D02*
X645164D01*
X647830Y230500D01*
Y231166D01*
X647164Y231833D01*
X645831D01*
X645164Y231166D01*
X737502Y219166D02*
X736835Y219833D01*
X735503D01*
X734836Y219166D01*
Y216500D01*
X735503Y215834D01*
X736835D01*
X737502Y216500D01*
X738835Y215834D02*
Y218500D01*
X740168Y219833D01*
X741501Y218500D01*
Y215834D01*
Y217833D01*
X738835D01*
X742834Y215834D02*
Y219833D01*
X745499Y215834D01*
Y219833D01*
X746832Y215167D02*
X749498D01*
X750831Y215834D02*
X752164D01*
X751497D01*
Y219833D01*
X750831Y219166D01*
X576836Y226834D02*
Y229500D01*
X578169Y230833D01*
X579502Y229500D01*
Y226834D01*
Y228833D01*
X576836D01*
X580835Y230833D02*
Y226834D01*
X582834D01*
X583501Y227500D01*
Y228167D01*
X582834Y228833D01*
X580835D01*
X582834D01*
X583501Y229500D01*
Y230166D01*
X582834Y230833D01*
X580835D01*
X587499Y230166D02*
X586833Y230833D01*
X585500D01*
X584834Y230166D01*
Y229500D01*
X585500Y228833D01*
X586833D01*
X587499Y228167D01*
Y227500D01*
X586833Y226834D01*
X585500D01*
X584834Y227500D01*
X588832Y226167D02*
X591498D01*
X592831Y226834D02*
X594164D01*
X593497D01*
Y230833D01*
X592831Y230166D01*
X774000Y290836D02*
X771334D01*
X770667Y290170D01*
Y288837D01*
X771334Y288170D01*
X774000D01*
X774666Y288837D01*
Y290170D01*
X773333Y289503D02*
X774666Y290836D01*
Y290170D02*
X774000Y290836D01*
X770667Y292169D02*
X774000D01*
X774666Y292835D01*
Y294168D01*
X774000Y294835D01*
X770667D01*
X774666Y296168D02*
X772000D01*
X770667Y297501D01*
X772000Y298834D01*
X774666D01*
X772667D01*
Y296168D01*
X770667Y300167D02*
X774666D01*
Y302166D01*
X774000Y302832D01*
X771334D01*
X770667Y302166D01*
Y300167D01*
X775333Y304165D02*
Y306831D01*
X774666Y310830D02*
Y308164D01*
X772000Y310830D01*
X771334D01*
X770667Y310163D01*
Y308830D01*
X771334Y308164D01*
X770167Y376169D02*
X774166D01*
Y378835D01*
X770167Y380168D02*
Y381501D01*
Y380835D01*
X774166D01*
Y380168D01*
Y381501D01*
Y383500D02*
X770167D01*
X771500Y384833D01*
X770167Y386166D01*
X774166D01*
X774833Y387499D02*
Y390165D01*
X774166Y391498D02*
Y392831D01*
Y392164D01*
X770167D01*
X770834Y391498D01*
X770667Y334003D02*
X774666D01*
Y336669D01*
X770667Y338002D02*
Y339335D01*
Y338668D01*
X774666D01*
Y338002D01*
Y339335D01*
Y341334D02*
X770667D01*
X772000Y342667D01*
X770667Y344000D01*
X774666D01*
X775333Y345333D02*
Y347998D01*
X771334Y349331D02*
X770667Y349998D01*
Y351331D01*
X771334Y351997D01*
X774000D01*
X774666Y351331D01*
Y349998D01*
X774000Y349331D01*
X771334D01*
X726170Y420500D02*
X728836D01*
X727503Y421833D02*
Y419167D01*
X730169Y422499D02*
Y419834D01*
X731502Y418501D01*
X732835Y419834D01*
Y422499D01*
X734168D02*
Y418501D01*
X736167D01*
X736834Y419167D01*
Y419834D01*
X736167Y420500D01*
X734168D01*
X736167D01*
X736834Y421166D01*
Y421833D01*
X736167Y422499D01*
X734168D01*
X738167Y418501D02*
Y421166D01*
X739499Y422499D01*
X740832Y421166D01*
Y418501D01*
Y420500D01*
X738167D01*
X742165Y422499D02*
X744831D01*
X743498D01*
Y418501D01*
X746164Y420500D02*
X748830D01*
X773500Y248503D02*
X770834D01*
X770167Y247836D01*
Y246503D01*
X770834Y245837D01*
X773500D01*
X774166Y246503D01*
Y247836D01*
X772833Y247170D02*
X774166Y248503D01*
Y247836D02*
X773500Y248503D01*
X770167Y249835D02*
X773500D01*
X774166Y250502D01*
Y251835D01*
X773500Y252501D01*
X770167D01*
X774166Y253834D02*
X771500D01*
X770167Y255167D01*
X771500Y256500D01*
X774166D01*
X772167D01*
Y253834D01*
X770167Y257833D02*
X774166D01*
Y259832D01*
X773500Y260499D01*
X770834D01*
X770167Y259832D01*
Y257833D01*
X774833Y261832D02*
Y264497D01*
X774166Y265830D02*
Y267163D01*
Y266497D01*
X770167D01*
X770834Y265830D01*
X770337Y413487D02*
X774336D01*
Y416152D01*
X770337Y417485D02*
Y418818D01*
Y418152D01*
X774336D01*
Y417485D01*
Y418818D01*
Y420818D02*
X770337D01*
X771670Y422151D01*
X770337Y423483D01*
X774336D01*
X775002Y424816D02*
Y427482D01*
X774336Y431481D02*
Y428815D01*
X771670Y431481D01*
X771003D01*
X770337Y430814D01*
Y429482D01*
X771003Y428815D01*
X773500Y219336D02*
X770834D01*
X770167Y218670D01*
Y217337D01*
X770834Y216670D01*
X773500D01*
X774166Y217337D01*
Y218670D01*
X772833Y218003D02*
X774166Y219336D01*
Y218670D02*
X773500Y219336D01*
X770167Y220669D02*
X773500D01*
X774166Y221336D01*
Y222668D01*
X773500Y223335D01*
X770167D01*
X774166Y224668D02*
X771500D01*
X770167Y226001D01*
X771500Y227334D01*
X774166D01*
X772167D01*
Y224668D01*
X770167Y228666D02*
X774166D01*
Y230666D01*
X773500Y231332D01*
X770834D01*
X770167Y230666D01*
Y228666D01*
X774833Y232665D02*
Y235331D01*
X770834Y236664D02*
X770167Y237330D01*
Y238663D01*
X770834Y239330D01*
X773500D01*
X774166Y238663D01*
Y237330D01*
X773500Y236664D01*
X770834D01*
X433710Y238000D02*
X436376D01*
X435043Y239333D02*
Y236667D01*
X441707Y236001D02*
Y239999D01*
X443040Y238666D01*
X444373Y239999D01*
Y236001D01*
X445706Y239333D02*
X446372Y239999D01*
X447705D01*
X448372Y239333D01*
Y236667D01*
X447705Y236001D01*
X446372D01*
X445706Y236667D01*
Y239333D01*
X453703Y238000D02*
X456369D01*
X307504Y239000D02*
X310169D01*
X308837Y240333D02*
Y237667D01*
X315501Y237001D02*
Y240999D01*
X316834Y239666D01*
X318167Y240999D01*
Y237001D01*
X319500D02*
X320833D01*
X320166D01*
Y240999D01*
X319500Y240333D01*
X326831Y239000D02*
X329497D01*
X181710D02*
X184376D01*
X183043Y240333D02*
Y237667D01*
X189707Y237001D02*
Y240999D01*
X191040Y239666D01*
X192373Y240999D01*
Y237001D01*
X196372D02*
X193706D01*
X196372Y239666D01*
Y240333D01*
X195705Y240999D01*
X194372D01*
X193706Y240333D01*
X201703Y239000D02*
X204369D01*
M02*
