G04*
G04 #@! TF.GenerationSoftware,Altium Limited,Altium Designer,23.11.1 (41)*
G04*
G04 Layer_Color=8421504*
%FSLAX25Y25*%
%MOIN*%
G70*
G04*
G04 #@! TF.SameCoordinates,C18E11E6-2F2A-4DEC-BC48-3546B0B1B692*
G04*
G04*
G04 #@! TF.FilePolarity,Positive*
G04*
G01*
G75*
%ADD17R,0.01200X0.04700*%
%ADD18R,0.04700X0.01200*%
%ADD19R,0.02362X0.02756*%
%ADD20R,0.19134X0.13228*%
%ADD21R,0.05512X0.05472*%
%ADD22R,0.03150X0.03150*%
%ADD23R,0.03150X0.03150*%
%ADD24R,0.08584X0.06417*%
%ADD25R,0.04331X0.04528*%
%ADD26R,0.12992X0.13386*%
G04:AMPARAMS|DCode=27|XSize=61.02mil|YSize=23.62mil|CornerRadius=0.59mil|HoleSize=0mil|Usage=FLASHONLY|Rotation=180.000|XOffset=0mil|YOffset=0mil|HoleType=Round|Shape=RoundedRectangle|*
%AMROUNDEDRECTD27*
21,1,0.06102,0.02244,0,0,180.0*
21,1,0.05984,0.02362,0,0,180.0*
1,1,0.00118,-0.02992,0.01122*
1,1,0.00118,0.02992,0.01122*
1,1,0.00118,0.02992,-0.01122*
1,1,0.00118,-0.02992,-0.01122*
%
%ADD27ROUNDEDRECTD27*%
%ADD28R,0.12600X0.06300*%
G04:AMPARAMS|DCode=29|XSize=23.62mil|YSize=9.45mil|CornerRadius=1.18mil|HoleSize=0mil|Usage=FLASHONLY|Rotation=270.000|XOffset=0mil|YOffset=0mil|HoleType=Round|Shape=RoundedRectangle|*
%AMROUNDEDRECTD29*
21,1,0.02362,0.00709,0,0,270.0*
21,1,0.02126,0.00945,0,0,270.0*
1,1,0.00236,-0.00354,-0.01063*
1,1,0.00236,-0.00354,0.01063*
1,1,0.00236,0.00354,0.01063*
1,1,0.00236,0.00354,-0.01063*
%
%ADD29ROUNDEDRECTD29*%
%ADD30R,0.02756X0.02362*%
%ADD31R,0.04528X0.04331*%
%ADD32R,0.04567X0.05787*%
%ADD33R,0.05787X0.04567*%
%ADD34R,0.07874X0.04921*%
%ADD35R,0.06024X0.10709*%
%ADD36R,0.10709X0.06024*%
%ADD37R,0.02362X0.05906*%
%ADD38R,0.03740X0.10236*%
%ADD39R,0.15000X0.16700*%
%ADD40R,0.02362X0.01181*%
%ADD41R,0.10236X0.11811*%
%ADD42R,0.00984X0.02953*%
%ADD43R,0.07874X0.05512*%
%ADD44R,0.06299X0.11811*%
%ADD45R,0.13780X0.05512*%
%ADD46R,0.04724X0.05512*%
%ADD47R,0.09843X0.25591*%
%ADD48R,0.08898X0.08504*%
G36*
X728894Y411169D02*
X727319D01*
Y413925D01*
X728894D01*
Y411169D01*
D02*
G37*
G36*
X726334D02*
X724759D01*
Y413925D01*
X726334D01*
Y411169D01*
D02*
G37*
G36*
X723775D02*
X722200D01*
Y413925D01*
X723775D01*
Y411169D01*
D02*
G37*
G36*
X721216D02*
X719641D01*
Y413925D01*
X721216D01*
Y411169D01*
D02*
G37*
G36*
X729110Y400775D02*
X728874D01*
Y398571D01*
X727339D01*
Y400775D01*
X726315D01*
Y398571D01*
X724780D01*
Y400775D01*
X723756D01*
Y398571D01*
X722221D01*
Y400775D01*
X721236D01*
Y398571D01*
X719622D01*
Y400775D01*
X719465D01*
Y408256D01*
X729110Y408295D01*
Y400775D01*
D02*
G37*
G36*
X565593Y386807D02*
X554924D01*
Y400193D01*
X565593D01*
Y386807D01*
D02*
G37*
G36*
X347878Y311725D02*
X348035D01*
Y304244D01*
X338390Y304205D01*
Y311725D01*
X338626D01*
Y313929D01*
X340161D01*
Y311725D01*
X341185D01*
Y313929D01*
X342720D01*
Y311725D01*
X343744D01*
Y313929D01*
X345279D01*
Y311725D01*
X346264D01*
Y313929D01*
X347878D01*
Y311725D01*
D02*
G37*
G36*
X297378D02*
X297535D01*
Y304244D01*
X287890Y304205D01*
Y311725D01*
X288126D01*
Y313929D01*
X289661D01*
Y311725D01*
X290685D01*
Y313929D01*
X292220D01*
Y311725D01*
X293244D01*
Y313929D01*
X294779D01*
Y311725D01*
X295764D01*
Y313929D01*
X297378D01*
Y311725D01*
D02*
G37*
G36*
X221878D02*
X222035D01*
Y304244D01*
X212390Y304205D01*
Y311725D01*
X212626D01*
Y313929D01*
X214161D01*
Y311725D01*
X215185D01*
Y313929D01*
X216720D01*
Y311725D01*
X217744D01*
Y313929D01*
X219279D01*
Y311725D01*
X220264D01*
Y313929D01*
X221878D01*
Y311725D01*
D02*
G37*
G36*
X171378D02*
X171535D01*
Y304244D01*
X161890Y304205D01*
Y311725D01*
X162126D01*
Y313929D01*
X163661D01*
Y311725D01*
X164685D01*
Y313929D01*
X166220D01*
Y311725D01*
X167244D01*
Y313929D01*
X168779D01*
Y311725D01*
X169764D01*
Y313929D01*
X171378D01*
Y311725D01*
D02*
G37*
G36*
X474378Y310725D02*
X474535D01*
Y303244D01*
X464890Y303205D01*
Y310725D01*
X465126D01*
Y312929D01*
X466661D01*
Y310725D01*
X467685D01*
Y312929D01*
X469220D01*
Y310725D01*
X470244D01*
Y312929D01*
X471779D01*
Y310725D01*
X472764D01*
Y312929D01*
X474378D01*
Y310725D01*
D02*
G37*
G36*
X423878D02*
X424035D01*
Y303244D01*
X414390Y303205D01*
Y310725D01*
X414626D01*
Y312929D01*
X416161D01*
Y310725D01*
X417185D01*
Y312929D01*
X418720D01*
Y310725D01*
X419744D01*
Y312929D01*
X421279D01*
Y310725D01*
X422264D01*
Y312929D01*
X423878D01*
Y310725D01*
D02*
G37*
G36*
X347859Y298575D02*
X346284D01*
Y301331D01*
X347859D01*
Y298575D01*
D02*
G37*
G36*
X345300D02*
X343725D01*
Y301331D01*
X345300D01*
Y298575D01*
D02*
G37*
G36*
X342741D02*
X341166D01*
Y301331D01*
X342741D01*
Y298575D01*
D02*
G37*
G36*
X340181D02*
X338606D01*
Y301331D01*
X340181D01*
Y298575D01*
D02*
G37*
G36*
X297359D02*
X295784D01*
Y301331D01*
X297359D01*
Y298575D01*
D02*
G37*
G36*
X294799D02*
X293225D01*
Y301331D01*
X294799D01*
Y298575D01*
D02*
G37*
G36*
X292241D02*
X290666D01*
Y301331D01*
X292241D01*
Y298575D01*
D02*
G37*
G36*
X289681D02*
X288106D01*
Y301331D01*
X289681D01*
Y298575D01*
D02*
G37*
G36*
X221859D02*
X220284D01*
Y301331D01*
X221859D01*
Y298575D01*
D02*
G37*
G36*
X219300D02*
X217725D01*
Y301331D01*
X219300D01*
Y298575D01*
D02*
G37*
G36*
X216741D02*
X215166D01*
Y301331D01*
X216741D01*
Y298575D01*
D02*
G37*
G36*
X214181D02*
X212606D01*
Y301331D01*
X214181D01*
Y298575D01*
D02*
G37*
G36*
X171359D02*
X169784D01*
Y301331D01*
X171359D01*
Y298575D01*
D02*
G37*
G36*
X168799D02*
X167225D01*
Y301331D01*
X168799D01*
Y298575D01*
D02*
G37*
G36*
X166241D02*
X164666D01*
Y301331D01*
X166241D01*
Y298575D01*
D02*
G37*
G36*
X163681D02*
X162106D01*
Y301331D01*
X163681D01*
Y298575D01*
D02*
G37*
G36*
X474359Y297575D02*
X472784D01*
Y300331D01*
X474359D01*
Y297575D01*
D02*
G37*
G36*
X471800D02*
X470225D01*
Y300331D01*
X471800D01*
Y297575D01*
D02*
G37*
G36*
X469241D02*
X467666D01*
Y300331D01*
X469241D01*
Y297575D01*
D02*
G37*
G36*
X466681D02*
X465106D01*
Y300331D01*
X466681D01*
Y297575D01*
D02*
G37*
G36*
X423859D02*
X422284D01*
Y300331D01*
X423859D01*
Y297575D01*
D02*
G37*
G36*
X421300D02*
X419725D01*
Y300331D01*
X421300D01*
Y297575D01*
D02*
G37*
G36*
X418741D02*
X417166D01*
Y300331D01*
X418741D01*
Y297575D01*
D02*
G37*
G36*
X416181D02*
X414606D01*
Y300331D01*
X416181D01*
Y297575D01*
D02*
G37*
G36*
X351378Y287725D02*
X351535D01*
Y280244D01*
X341890Y280205D01*
Y287725D01*
X342126D01*
Y289929D01*
X343661D01*
Y287725D01*
X344685D01*
Y289929D01*
X346220D01*
Y287725D01*
X347244D01*
Y289929D01*
X348779D01*
Y287725D01*
X349764D01*
Y289929D01*
X351378D01*
Y287725D01*
D02*
G37*
G36*
X293878D02*
X294035D01*
Y280244D01*
X284390Y280205D01*
Y287725D01*
X284626D01*
Y289929D01*
X286161D01*
Y287725D01*
X287185D01*
Y289929D01*
X288720D01*
Y287725D01*
X289744D01*
Y289929D01*
X291279D01*
Y287725D01*
X292264D01*
Y289929D01*
X293878D01*
Y287725D01*
D02*
G37*
G36*
X225378D02*
X225535D01*
Y280244D01*
X215890Y280205D01*
Y287725D01*
X216126D01*
Y289929D01*
X217661D01*
Y287725D01*
X218685D01*
Y289929D01*
X220220D01*
Y287725D01*
X221244D01*
Y289929D01*
X222779D01*
Y287725D01*
X223764D01*
Y289929D01*
X225378D01*
Y287725D01*
D02*
G37*
G36*
X167878D02*
X168035D01*
Y280244D01*
X158390Y280205D01*
Y287725D01*
X158626D01*
Y289929D01*
X160161D01*
Y287725D01*
X161185D01*
Y289929D01*
X162720D01*
Y287725D01*
X163744D01*
Y289929D01*
X165279D01*
Y287725D01*
X166264D01*
Y289929D01*
X167878D01*
Y287725D01*
D02*
G37*
G36*
X477878Y286725D02*
X478035D01*
Y279244D01*
X468390Y279205D01*
Y286725D01*
X468626D01*
Y288929D01*
X470161D01*
Y286725D01*
X471185D01*
Y288929D01*
X472720D01*
Y286725D01*
X473744D01*
Y288929D01*
X475279D01*
Y286725D01*
X476264D01*
Y288929D01*
X477878D01*
Y286725D01*
D02*
G37*
G36*
X420378D02*
X420535D01*
Y279244D01*
X410890Y279205D01*
Y286725D01*
X411126D01*
Y288929D01*
X412661D01*
Y286725D01*
X413685D01*
Y288929D01*
X415220D01*
Y286725D01*
X416244D01*
Y288929D01*
X417779D01*
Y286725D01*
X418764D01*
Y288929D01*
X420378D01*
Y286725D01*
D02*
G37*
G36*
X351359Y274575D02*
X349784D01*
Y277331D01*
X351359D01*
Y274575D01*
D02*
G37*
G36*
X348799D02*
X347225D01*
Y277331D01*
X348799D01*
Y274575D01*
D02*
G37*
G36*
X346241D02*
X344666D01*
Y277331D01*
X346241D01*
Y274575D01*
D02*
G37*
G36*
X343681D02*
X342106D01*
Y277331D01*
X343681D01*
Y274575D01*
D02*
G37*
G36*
X293859D02*
X292284D01*
Y277331D01*
X293859D01*
Y274575D01*
D02*
G37*
G36*
X291300D02*
X289725D01*
Y277331D01*
X291300D01*
Y274575D01*
D02*
G37*
G36*
X288741D02*
X287166D01*
Y277331D01*
X288741D01*
Y274575D01*
D02*
G37*
G36*
X286181D02*
X284606D01*
Y277331D01*
X286181D01*
Y274575D01*
D02*
G37*
G36*
X225359D02*
X223784D01*
Y277331D01*
X225359D01*
Y274575D01*
D02*
G37*
G36*
X222799D02*
X221225D01*
Y277331D01*
X222799D01*
Y274575D01*
D02*
G37*
G36*
X220241D02*
X218666D01*
Y277331D01*
X220241D01*
Y274575D01*
D02*
G37*
G36*
X217681D02*
X216106D01*
Y277331D01*
X217681D01*
Y274575D01*
D02*
G37*
G36*
X167859D02*
X166284D01*
Y277331D01*
X167859D01*
Y274575D01*
D02*
G37*
G36*
X165299D02*
X163725D01*
Y277331D01*
X165299D01*
Y274575D01*
D02*
G37*
G36*
X162741D02*
X161166D01*
Y277331D01*
X162741D01*
Y274575D01*
D02*
G37*
G36*
X160181D02*
X158606D01*
Y277331D01*
X160181D01*
Y274575D01*
D02*
G37*
G36*
X477859Y273575D02*
X476284D01*
Y276331D01*
X477859D01*
Y273575D01*
D02*
G37*
G36*
X475300D02*
X473725D01*
Y276331D01*
X475300D01*
Y273575D01*
D02*
G37*
G36*
X472741D02*
X471166D01*
Y276331D01*
X472741D01*
Y273575D01*
D02*
G37*
G36*
X470181D02*
X468606D01*
Y276331D01*
X470181D01*
Y273575D01*
D02*
G37*
G36*
X420359D02*
X418784D01*
Y276331D01*
X420359D01*
Y273575D01*
D02*
G37*
G36*
X417800D02*
X416225D01*
Y276331D01*
X417800D01*
Y273575D01*
D02*
G37*
G36*
X415241D02*
X413666D01*
Y276331D01*
X415241D01*
Y273575D01*
D02*
G37*
G36*
X412681D02*
X411106D01*
Y276331D01*
X412681D01*
Y273575D01*
D02*
G37*
G36*
X371693Y232992D02*
X370354D01*
Y233976D01*
X371693D01*
Y232992D01*
D02*
G37*
G36*
X359646D02*
X358307D01*
Y233976D01*
X359646D01*
Y232992D01*
D02*
G37*
G36*
X278693D02*
X277354D01*
Y233976D01*
X278693D01*
Y232992D01*
D02*
G37*
G36*
X266646D02*
X265307D01*
Y233976D01*
X266646D01*
Y232992D01*
D02*
G37*
G36*
X245693D02*
X244354D01*
Y233976D01*
X245693D01*
Y232992D01*
D02*
G37*
G36*
X233646D02*
X232307D01*
Y233976D01*
X233646D01*
Y232992D01*
D02*
G37*
G36*
X152693D02*
X151354D01*
Y233976D01*
X152693D01*
Y232992D01*
D02*
G37*
G36*
X140646D02*
X139307D01*
Y233976D01*
X140646D01*
Y232992D01*
D02*
G37*
G36*
X498193Y231992D02*
X496854D01*
Y232976D01*
X498193D01*
Y231992D01*
D02*
G37*
G36*
X486146D02*
X484807D01*
Y232976D01*
X486146D01*
Y231992D01*
D02*
G37*
G36*
X405193D02*
X403854D01*
Y232976D01*
X405193D01*
Y231992D01*
D02*
G37*
G36*
X393146D02*
X391807D01*
Y232976D01*
X393146D01*
Y231992D01*
D02*
G37*
G36*
X371693Y231024D02*
X370354D01*
Y232008D01*
X371693D01*
Y231024D01*
D02*
G37*
G36*
X359646D02*
X358307D01*
Y232008D01*
X359646D01*
Y231024D01*
D02*
G37*
G36*
X278693D02*
X277354D01*
Y232008D01*
X278693D01*
Y231024D01*
D02*
G37*
G36*
X266646D02*
X265307D01*
Y232008D01*
X266646D01*
Y231024D01*
D02*
G37*
G36*
X245693D02*
X244354D01*
Y232008D01*
X245693D01*
Y231024D01*
D02*
G37*
G36*
X233646D02*
X232307D01*
Y232008D01*
X233646D01*
Y231024D01*
D02*
G37*
G36*
X152693D02*
X151354D01*
Y232008D01*
X152693D01*
Y231024D01*
D02*
G37*
G36*
X140646D02*
X139307D01*
Y232008D01*
X140646D01*
Y231024D01*
D02*
G37*
G36*
X498193Y230024D02*
X496854D01*
Y231008D01*
X498193D01*
Y230024D01*
D02*
G37*
G36*
X486146D02*
X484807D01*
Y231008D01*
X486146D01*
Y230024D01*
D02*
G37*
G36*
X405193D02*
X403854D01*
Y231008D01*
X405193D01*
Y230024D01*
D02*
G37*
G36*
X393146D02*
X391807D01*
Y231008D01*
X393146D01*
Y230024D01*
D02*
G37*
G36*
X369567Y229547D02*
X365394D01*
Y235453D01*
X369567D01*
Y229547D01*
D02*
G37*
G36*
X364606D02*
X360433D01*
Y235453D01*
X364606D01*
Y229547D01*
D02*
G37*
G36*
X276567D02*
X272394D01*
Y235453D01*
X276567D01*
Y229547D01*
D02*
G37*
G36*
X271606D02*
X267433D01*
Y235453D01*
X271606D01*
Y229547D01*
D02*
G37*
G36*
X243567D02*
X239394D01*
Y235453D01*
X243567D01*
Y229547D01*
D02*
G37*
G36*
X238606D02*
X234433D01*
Y235453D01*
X238606D01*
Y229547D01*
D02*
G37*
G36*
X150567D02*
X146394D01*
Y235453D01*
X150567D01*
Y229547D01*
D02*
G37*
G36*
X145606D02*
X141433D01*
Y235453D01*
X145606D01*
Y229547D01*
D02*
G37*
G36*
X496067Y228547D02*
X491894D01*
Y234453D01*
X496067D01*
Y228547D01*
D02*
G37*
G36*
X491106D02*
X486933D01*
Y234453D01*
X491106D01*
Y228547D01*
D02*
G37*
G36*
X403067D02*
X398894D01*
Y234453D01*
X403067D01*
Y228547D01*
D02*
G37*
G36*
X398106D02*
X393933D01*
Y234453D01*
X398106D01*
Y228547D01*
D02*
G37*
D17*
X686827Y318232D02*
D03*
X684858D02*
D03*
X682890D02*
D03*
X680921D02*
D03*
X678953D02*
D03*
X676984D02*
D03*
X675016D02*
D03*
X673047D02*
D03*
X671079D02*
D03*
X669110D02*
D03*
X667142D02*
D03*
X665173D02*
D03*
Y284768D02*
D03*
X667142D02*
D03*
X669110D02*
D03*
X671079D02*
D03*
X673047D02*
D03*
X675016D02*
D03*
X676984D02*
D03*
X678953D02*
D03*
X680921D02*
D03*
X682890D02*
D03*
X684858D02*
D03*
X686827D02*
D03*
D18*
X659268Y312327D02*
D03*
Y310358D02*
D03*
Y308390D02*
D03*
Y306421D02*
D03*
Y304453D02*
D03*
Y302484D02*
D03*
Y300516D02*
D03*
Y298547D02*
D03*
Y296579D02*
D03*
Y294610D02*
D03*
Y292642D02*
D03*
Y290673D02*
D03*
X692732D02*
D03*
Y292642D02*
D03*
Y294610D02*
D03*
Y296579D02*
D03*
Y298547D02*
D03*
Y300516D02*
D03*
Y302484D02*
D03*
Y304453D02*
D03*
Y306421D02*
D03*
Y308390D02*
D03*
Y310358D02*
D03*
Y312327D02*
D03*
D19*
X700032Y316000D02*
D03*
X703968D02*
D03*
X526469Y269500D02*
D03*
X522532D02*
D03*
X573118Y269000D02*
D03*
X569181D02*
D03*
X194468Y392000D02*
D03*
X190532D02*
D03*
X320468D02*
D03*
X316531D02*
D03*
X443032Y391000D02*
D03*
X446969D02*
D03*
X159031Y409500D02*
D03*
X162969D02*
D03*
X285032D02*
D03*
X288968D02*
D03*
X411531Y408500D02*
D03*
X415469D02*
D03*
X533532Y387000D02*
D03*
X537468D02*
D03*
X527727D02*
D03*
X523790D02*
D03*
X578727Y407500D02*
D03*
X574790D02*
D03*
X249969Y300000D02*
D03*
X246031D02*
D03*
X375969D02*
D03*
X372031D02*
D03*
X502468Y299000D02*
D03*
X498531D02*
D03*
X138469Y300000D02*
D03*
X134531D02*
D03*
X264469D02*
D03*
X260531D02*
D03*
X390968Y299000D02*
D03*
X387032D02*
D03*
X229260Y342563D02*
D03*
X236740D02*
D03*
X233000Y350437D02*
D03*
X481760Y341563D02*
D03*
X489240D02*
D03*
X485500Y349437D02*
D03*
X355260Y342563D02*
D03*
X362740D02*
D03*
X359000Y350437D02*
D03*
X735500Y243437D02*
D03*
X739240Y235563D02*
D03*
X731760D02*
D03*
X713500Y242937D02*
D03*
X717240Y235063D02*
D03*
X709760D02*
D03*
D20*
X419567Y382500D02*
D03*
X167067Y383500D02*
D03*
X293067D02*
D03*
D21*
X435244Y386122D02*
D03*
Y378878D02*
D03*
X182744Y379878D02*
D03*
Y387122D02*
D03*
X308744Y379878D02*
D03*
Y387122D02*
D03*
D22*
X713180Y249043D02*
D03*
X706481D02*
D03*
X728480Y249542D02*
D03*
X735181D02*
D03*
X488681Y356043D02*
D03*
X481981D02*
D03*
X355481Y357043D02*
D03*
X362180D02*
D03*
X236180D02*
D03*
X229481D02*
D03*
D23*
X387457Y218681D02*
D03*
Y211981D02*
D03*
X260958Y212981D02*
D03*
Y219681D02*
D03*
X134958D02*
D03*
Y212981D02*
D03*
X485458Y210981D02*
D03*
Y217681D02*
D03*
X358958Y218681D02*
D03*
Y211981D02*
D03*
X232958D02*
D03*
Y218681D02*
D03*
X523716Y392981D02*
D03*
Y399680D02*
D03*
D24*
X562312Y374000D02*
D03*
X547688D02*
D03*
D25*
X583000Y235350D02*
D03*
Y241650D02*
D03*
X694500Y276150D02*
D03*
Y269850D02*
D03*
X164000Y404150D02*
D03*
Y397850D02*
D03*
X290000Y404150D02*
D03*
Y397850D02*
D03*
X416500Y403150D02*
D03*
Y396850D02*
D03*
X249500Y210150D02*
D03*
Y203850D02*
D03*
X375500Y210150D02*
D03*
Y203850D02*
D03*
X501000Y202850D02*
D03*
Y209150D02*
D03*
X152000Y210150D02*
D03*
Y203850D02*
D03*
X278000Y210150D02*
D03*
Y203850D02*
D03*
X404500Y209150D02*
D03*
Y202850D02*
D03*
X574500Y235850D02*
D03*
Y242150D02*
D03*
X591500Y235350D02*
D03*
Y241650D02*
D03*
X515759Y398500D02*
D03*
Y404799D02*
D03*
X509259D02*
D03*
Y398500D02*
D03*
X208500Y405350D02*
D03*
Y411650D02*
D03*
X334500Y405350D02*
D03*
Y411650D02*
D03*
X461000Y404350D02*
D03*
Y410650D02*
D03*
X222000Y397350D02*
D03*
Y403650D02*
D03*
X348000Y397350D02*
D03*
Y403650D02*
D03*
X474500Y396350D02*
D03*
Y402650D02*
D03*
X695000Y239150D02*
D03*
Y232850D02*
D03*
X662500Y246350D02*
D03*
Y252650D02*
D03*
X712000Y400350D02*
D03*
Y406650D02*
D03*
Y413350D02*
D03*
Y419650D02*
D03*
D26*
X430000Y339500D02*
D03*
Y363500D02*
D03*
X411000D02*
D03*
Y339500D02*
D03*
X284500Y340500D02*
D03*
Y364500D02*
D03*
X303500D02*
D03*
Y340500D02*
D03*
X177500D02*
D03*
Y364500D02*
D03*
X158500D02*
D03*
Y340500D02*
D03*
D27*
X570889Y386000D02*
D03*
Y391000D02*
D03*
Y396000D02*
D03*
Y401000D02*
D03*
X549629D02*
D03*
Y396000D02*
D03*
Y391000D02*
D03*
Y386000D02*
D03*
D28*
X536000Y325450D02*
D03*
Y360550D02*
D03*
D29*
X402437Y225988D02*
D03*
X400468D02*
D03*
X398500D02*
D03*
X396532D02*
D03*
X394563D02*
D03*
Y237012D02*
D03*
X396532D02*
D03*
X398500D02*
D03*
X400468D02*
D03*
X402437D02*
D03*
X275937Y238012D02*
D03*
X273969D02*
D03*
X272000D02*
D03*
X270031D02*
D03*
X268063D02*
D03*
Y226988D02*
D03*
X270031D02*
D03*
X272000D02*
D03*
X273969D02*
D03*
X275937D02*
D03*
X495437Y225988D02*
D03*
X493469D02*
D03*
X491500D02*
D03*
X489532D02*
D03*
X487563D02*
D03*
Y237012D02*
D03*
X489532D02*
D03*
X491500D02*
D03*
X493469D02*
D03*
X495437D02*
D03*
X368937Y238012D02*
D03*
X366968D02*
D03*
X365000D02*
D03*
X363032D02*
D03*
X361063D02*
D03*
Y226988D02*
D03*
X363032D02*
D03*
X365000D02*
D03*
X366968D02*
D03*
X368937D02*
D03*
X149937D02*
D03*
X147968D02*
D03*
X146000D02*
D03*
X144032D02*
D03*
X142063D02*
D03*
Y238012D02*
D03*
X144032D02*
D03*
X146000D02*
D03*
X147968D02*
D03*
X149937D02*
D03*
X242937D02*
D03*
X240968D02*
D03*
X239000D02*
D03*
X237032D02*
D03*
X235063D02*
D03*
Y226988D02*
D03*
X237032D02*
D03*
X239000D02*
D03*
X240968D02*
D03*
X242937D02*
D03*
D30*
X159000Y401532D02*
D03*
Y405469D02*
D03*
X285000Y401532D02*
D03*
Y405469D02*
D03*
X411500Y400531D02*
D03*
Y404468D02*
D03*
X503259Y403618D02*
D03*
Y399681D02*
D03*
X196000Y305031D02*
D03*
Y308968D02*
D03*
X322000Y305031D02*
D03*
Y308968D02*
D03*
X448500Y304031D02*
D03*
Y307968D02*
D03*
X192000Y304532D02*
D03*
Y308469D02*
D03*
X318000Y304532D02*
D03*
Y308469D02*
D03*
X444500Y303532D02*
D03*
Y307469D02*
D03*
X188000Y305031D02*
D03*
Y308968D02*
D03*
X314000Y305031D02*
D03*
Y308968D02*
D03*
X440500Y304031D02*
D03*
Y307968D02*
D03*
X206000Y397468D02*
D03*
Y393531D02*
D03*
X332000Y397468D02*
D03*
Y393531D02*
D03*
X458500Y396468D02*
D03*
Y392531D02*
D03*
X201000Y397468D02*
D03*
Y393531D02*
D03*
X327000Y397468D02*
D03*
Y393531D02*
D03*
X453500Y396468D02*
D03*
Y392531D02*
D03*
X199500Y385500D02*
D03*
Y389437D02*
D03*
X325500Y385500D02*
D03*
Y389437D02*
D03*
X452000Y384500D02*
D03*
Y388437D02*
D03*
X227500Y308469D02*
D03*
Y304532D02*
D03*
X353500D02*
D03*
Y308469D02*
D03*
X480000Y303532D02*
D03*
Y307469D02*
D03*
X151000Y308469D02*
D03*
Y304532D02*
D03*
X277000Y308469D02*
D03*
Y304532D02*
D03*
X403500Y307469D02*
D03*
Y303532D02*
D03*
X689500Y272532D02*
D03*
Y276468D02*
D03*
X655000Y282031D02*
D03*
Y285968D02*
D03*
X589759Y396532D02*
D03*
Y400468D02*
D03*
X583259Y396532D02*
D03*
Y400468D02*
D03*
Y390469D02*
D03*
Y386531D02*
D03*
X195000Y412968D02*
D03*
Y409031D02*
D03*
X321000Y412968D02*
D03*
Y409031D02*
D03*
X447500Y411969D02*
D03*
Y408032D02*
D03*
X155000Y405532D02*
D03*
Y409469D02*
D03*
X281000Y405532D02*
D03*
Y409469D02*
D03*
X407500Y404531D02*
D03*
Y408468D02*
D03*
X150500Y409469D02*
D03*
Y405532D02*
D03*
X276500Y409469D02*
D03*
Y405532D02*
D03*
X403000Y408468D02*
D03*
Y404531D02*
D03*
X224000Y348437D02*
D03*
Y344500D02*
D03*
X350000D02*
D03*
Y348437D02*
D03*
X476500Y343500D02*
D03*
Y347437D02*
D03*
X224000Y356937D02*
D03*
Y353000D02*
D03*
X350000Y356937D02*
D03*
Y353000D02*
D03*
X476500Y355937D02*
D03*
Y352000D02*
D03*
X233000Y202532D02*
D03*
Y206469D02*
D03*
X359000D02*
D03*
Y202532D02*
D03*
X485500Y205469D02*
D03*
Y201532D02*
D03*
X135000Y207469D02*
D03*
Y203532D02*
D03*
X261000Y207469D02*
D03*
Y203532D02*
D03*
X387500Y206469D02*
D03*
Y202532D02*
D03*
X219500Y263531D02*
D03*
Y267469D02*
D03*
X345500Y263531D02*
D03*
Y267469D02*
D03*
X472000Y262531D02*
D03*
Y266469D02*
D03*
X169000Y265531D02*
D03*
Y269468D02*
D03*
X293000D02*
D03*
Y265531D02*
D03*
X419500Y268468D02*
D03*
Y264531D02*
D03*
X209000Y250468D02*
D03*
Y246532D02*
D03*
X335000Y250468D02*
D03*
Y246532D02*
D03*
X461500Y249468D02*
D03*
Y245532D02*
D03*
X176500Y250468D02*
D03*
Y246532D02*
D03*
X301000Y250468D02*
D03*
Y246532D02*
D03*
X427500Y249468D02*
D03*
Y245532D02*
D03*
X156500Y308469D02*
D03*
Y304532D02*
D03*
X282500Y308469D02*
D03*
Y304532D02*
D03*
X409000Y307469D02*
D03*
Y303532D02*
D03*
X233000Y308469D02*
D03*
Y304532D02*
D03*
X359000Y308469D02*
D03*
Y304532D02*
D03*
X485500Y307469D02*
D03*
Y303532D02*
D03*
X239500Y287469D02*
D03*
Y283531D02*
D03*
X365500Y287469D02*
D03*
Y283531D02*
D03*
X492000Y286469D02*
D03*
Y282531D02*
D03*
X145000Y283531D02*
D03*
Y287469D02*
D03*
X271000D02*
D03*
Y283531D02*
D03*
X397500Y286469D02*
D03*
Y282531D02*
D03*
X726500Y243468D02*
D03*
Y239531D02*
D03*
X704500Y242969D02*
D03*
Y239032D02*
D03*
X726500Y235469D02*
D03*
Y231532D02*
D03*
X704500Y234968D02*
D03*
Y231031D02*
D03*
X530322Y396500D02*
D03*
X538196Y400240D02*
D03*
Y392760D02*
D03*
D31*
X540150Y262000D02*
D03*
X533850D02*
D03*
X540150Y268500D02*
D03*
X533850D02*
D03*
X586799D02*
D03*
X580500D02*
D03*
X586799Y262000D02*
D03*
X580500D02*
D03*
X578908Y379000D02*
D03*
X572609D02*
D03*
X229650Y294500D02*
D03*
X223350D02*
D03*
X355650D02*
D03*
X349350D02*
D03*
X482150Y293500D02*
D03*
X475850D02*
D03*
X153850Y294500D02*
D03*
X160150D02*
D03*
X279850D02*
D03*
X286150D02*
D03*
X406350Y293500D02*
D03*
X412650D02*
D03*
X139350Y309500D02*
D03*
X145650D02*
D03*
X265350D02*
D03*
X271650D02*
D03*
X391850Y308500D02*
D03*
X398150D02*
D03*
X139350Y315500D02*
D03*
X145650D02*
D03*
X271650D02*
D03*
X265350D02*
D03*
X398150Y314500D02*
D03*
X391850D02*
D03*
X648650Y290000D02*
D03*
X642350D02*
D03*
X648650Y296000D02*
D03*
X642350D02*
D03*
X648650Y308000D02*
D03*
X642350D02*
D03*
X648650Y302000D02*
D03*
X642350D02*
D03*
X669150Y229500D02*
D03*
X662850D02*
D03*
D32*
X526965Y262500D02*
D03*
X520035D02*
D03*
X135035Y337000D02*
D03*
X141965D02*
D03*
X261035D02*
D03*
X267965D02*
D03*
X387535Y336000D02*
D03*
X394465D02*
D03*
X135035Y345000D02*
D03*
X141965D02*
D03*
X261035D02*
D03*
X267965D02*
D03*
X387535Y344000D02*
D03*
X394465D02*
D03*
X135035Y353000D02*
D03*
X141965D02*
D03*
X261035D02*
D03*
X267965D02*
D03*
X387535Y352000D02*
D03*
X394465D02*
D03*
X145465Y329500D02*
D03*
X138535D02*
D03*
X271465D02*
D03*
X264535D02*
D03*
X397965Y328500D02*
D03*
X391035D02*
D03*
X138535Y322000D02*
D03*
X145465D02*
D03*
X264535D02*
D03*
X271465D02*
D03*
X391035Y321000D02*
D03*
X397965D02*
D03*
X573614Y262500D02*
D03*
X566685D02*
D03*
D33*
X201500Y413465D02*
D03*
Y406535D02*
D03*
X327500Y413465D02*
D03*
Y406535D02*
D03*
X454000Y412465D02*
D03*
Y405535D02*
D03*
X205500Y381535D02*
D03*
Y388465D02*
D03*
X331500Y381535D02*
D03*
Y388465D02*
D03*
X458000Y380535D02*
D03*
Y387465D02*
D03*
X213000Y379535D02*
D03*
Y386465D02*
D03*
X339000Y379535D02*
D03*
Y386465D02*
D03*
X465500Y378535D02*
D03*
Y385465D02*
D03*
X213000Y399465D02*
D03*
Y392535D02*
D03*
X339000Y399465D02*
D03*
Y392535D02*
D03*
X465500Y398465D02*
D03*
Y391535D02*
D03*
X589759Y389965D02*
D03*
Y383035D02*
D03*
X597759Y389965D02*
D03*
Y383035D02*
D03*
Y403965D02*
D03*
Y397035D02*
D03*
D34*
X231000Y384413D02*
D03*
Y373587D02*
D03*
X357000Y384413D02*
D03*
Y373587D02*
D03*
X483500Y383413D02*
D03*
Y372587D02*
D03*
X221500Y386913D02*
D03*
Y376087D02*
D03*
X347500Y386913D02*
D03*
Y376087D02*
D03*
X474000Y385913D02*
D03*
Y375087D02*
D03*
D35*
X519721Y252000D02*
D03*
X530279D02*
D03*
X536279Y310500D02*
D03*
X525721D02*
D03*
X566370Y252000D02*
D03*
X576929D02*
D03*
X221220Y329500D02*
D03*
X231780D02*
D03*
X347220D02*
D03*
X357780D02*
D03*
X473721Y328500D02*
D03*
X484279D02*
D03*
X571870Y310000D02*
D03*
X582429D02*
D03*
D36*
X585759Y335780D02*
D03*
Y325220D02*
D03*
X572259Y335780D02*
D03*
Y325220D02*
D03*
X608259Y378720D02*
D03*
Y389280D02*
D03*
X242000Y383780D02*
D03*
Y373220D02*
D03*
X368000Y383780D02*
D03*
Y373220D02*
D03*
X494500Y382780D02*
D03*
Y372220D02*
D03*
X608259Y408280D02*
D03*
Y397721D02*
D03*
D37*
X674000Y240657D02*
D03*
X679000D02*
D03*
X684000D02*
D03*
X689000D02*
D03*
X674000Y260343D02*
D03*
X679000D02*
D03*
X684000D02*
D03*
X689000D02*
D03*
D38*
X686020Y229000D02*
D03*
X675980D02*
D03*
D39*
X237500Y422550D02*
D03*
Y397450D02*
D03*
X363500Y422550D02*
D03*
Y397450D02*
D03*
X490000Y421550D02*
D03*
Y396450D02*
D03*
D40*
X190480Y408799D02*
D03*
Y405650D02*
D03*
Y402500D02*
D03*
Y399350D02*
D03*
Y396201D02*
D03*
X175520Y408799D02*
D03*
Y405650D02*
D03*
Y402500D02*
D03*
Y399350D02*
D03*
Y396201D02*
D03*
X301520D02*
D03*
Y399350D02*
D03*
Y402500D02*
D03*
Y405650D02*
D03*
Y408799D02*
D03*
X316480Y396201D02*
D03*
Y399350D02*
D03*
Y402500D02*
D03*
Y405650D02*
D03*
Y408799D02*
D03*
X442980Y407799D02*
D03*
Y404650D02*
D03*
Y401500D02*
D03*
Y398350D02*
D03*
Y395201D02*
D03*
X428020Y407799D02*
D03*
Y404650D02*
D03*
Y401500D02*
D03*
Y398350D02*
D03*
Y395201D02*
D03*
D41*
X183000Y402500D02*
D03*
X309000D02*
D03*
X435500Y401500D02*
D03*
D42*
X239063Y215992D02*
D03*
X241032D02*
D03*
X243000D02*
D03*
X244969D02*
D03*
X239063Y203000D02*
D03*
X241032D02*
D03*
X243000D02*
D03*
X244969D02*
D03*
X365000Y216000D02*
D03*
X366968D02*
D03*
X368937D02*
D03*
X370905D02*
D03*
X365000Y203008D02*
D03*
X366968D02*
D03*
X368937D02*
D03*
X370905D02*
D03*
X491500Y215000D02*
D03*
X493469D02*
D03*
X495437D02*
D03*
X497405D02*
D03*
X491500Y202008D02*
D03*
X493469D02*
D03*
X495437D02*
D03*
X497405D02*
D03*
X146906Y203008D02*
D03*
X144937D02*
D03*
X142968D02*
D03*
X141000D02*
D03*
X146906Y216000D02*
D03*
X144937D02*
D03*
X142968D02*
D03*
X141000D02*
D03*
X267000D02*
D03*
X268969D02*
D03*
X270937D02*
D03*
X272905D02*
D03*
X267000Y203008D02*
D03*
X268969D02*
D03*
X270937D02*
D03*
X272905D02*
D03*
X393500Y215000D02*
D03*
X395468D02*
D03*
X397437D02*
D03*
X399406D02*
D03*
X393500Y202008D02*
D03*
X395468D02*
D03*
X397437D02*
D03*
X399406D02*
D03*
D43*
X207500Y265839D02*
D03*
Y283161D02*
D03*
X333500Y265839D02*
D03*
Y283161D02*
D03*
X460000Y264839D02*
D03*
Y282161D02*
D03*
X176500Y283161D02*
D03*
Y265839D02*
D03*
X302500D02*
D03*
Y283161D02*
D03*
X429000Y264839D02*
D03*
Y282161D02*
D03*
X217000Y257661D02*
D03*
Y240339D02*
D03*
X343000Y257661D02*
D03*
Y240339D02*
D03*
X469500Y256661D02*
D03*
Y239339D02*
D03*
X168500Y240339D02*
D03*
Y257661D02*
D03*
X293000D02*
D03*
Y240339D02*
D03*
X419500Y256661D02*
D03*
Y239339D02*
D03*
X203500Y293339D02*
D03*
Y310661D02*
D03*
X329500Y293339D02*
D03*
Y310661D02*
D03*
X456000Y292339D02*
D03*
Y309661D02*
D03*
X180500Y293339D02*
D03*
Y310661D02*
D03*
X306500Y293339D02*
D03*
Y310661D02*
D03*
X433000Y292339D02*
D03*
Y309661D02*
D03*
X247000Y276839D02*
D03*
Y294161D02*
D03*
X373000D02*
D03*
Y276839D02*
D03*
X499500Y293161D02*
D03*
Y275839D02*
D03*
X137500Y294161D02*
D03*
Y276839D02*
D03*
X263500Y294161D02*
D03*
Y276839D02*
D03*
X390000Y293161D02*
D03*
Y275839D02*
D03*
D44*
X204000Y328839D02*
D03*
Y346161D02*
D03*
X330000Y328839D02*
D03*
Y346161D02*
D03*
X456500Y327839D02*
D03*
Y345161D02*
D03*
D45*
X531000Y276189D02*
D03*
X577150Y275689D02*
D03*
D46*
X521945Y299811D02*
D03*
X531000D02*
D03*
X540055D02*
D03*
X586205Y299311D02*
D03*
X577150D02*
D03*
X568094D02*
D03*
D47*
X651259Y362894D02*
D03*
Y412106D02*
D03*
D48*
X220000Y229279D02*
D03*
Y209988D02*
D03*
X346000Y229279D02*
D03*
Y209988D02*
D03*
X472500Y228279D02*
D03*
Y208988D02*
D03*
X234500Y249721D02*
D03*
Y269012D02*
D03*
X360500Y249721D02*
D03*
Y269012D02*
D03*
X487000Y248721D02*
D03*
Y268012D02*
D03*
X154500Y269012D02*
D03*
Y249721D02*
D03*
X275000D02*
D03*
Y269012D02*
D03*
X401500Y248721D02*
D03*
Y268012D02*
D03*
X164000Y229279D02*
D03*
Y209988D02*
D03*
X290000Y229279D02*
D03*
Y209988D02*
D03*
X416500Y208988D02*
D03*
Y228279D02*
D03*
X699000Y422012D02*
D03*
Y402720D02*
D03*
M02*
