M48
;Layer_Color=9474304
;FILE_FORMAT=2:5
INCH,TZ
;TYPE=PLATED
T1F00S00C0.00787
T2F00S00C0.04000
T3F00S00C0.04016
T4F00S00C0.06004
;TYPE=NON_PLATED
T5F00S00C0.11811
%
T01
X275590Y135827
X283465Y141732
X291339
X299213
X307087
Y149606
Y133858
X299213
X291339
X286417Y131890
X269685Y152559
X318898Y154528
X318898Y150591
X324147
X324147Y154528
X329396
X329396Y150591
X334646
X334646Y154528
X339895
X339895Y150591
X345144
X345144Y154528
X350394
X350394Y150591
X350394Y144685
Y139764
X345144
Y144685
X339895
Y139764
X334646
Y144685
X329396
Y139764
X324147
Y144685
X318898
Y139764
X362205Y146653
X405512Y148622
X414740Y148992
X423228Y148622
X435039Y147638
X423228Y163386
X350394Y165354
X350394Y169291
Y174213
X345144
Y169291
X345144Y165354
X339895
X339895Y169291
Y174213
X334646
Y169291
X334646Y165354
X329396
X329396Y169291
Y174213
X324147
Y169291
X324147Y165354
X318898
X318898Y169291
Y174213
Y159449
X324147
X329396
X334646
X339895
X345144
X350394
X355906Y200197
X355315Y218504
X356299Y229331
X351050
X345800
X340551
X335302
X330052
X324803
X326772Y221457
X314961Y228347
Y236221
Y244095
X324803Y244094
Y248031
X330052
Y244094
X335302
Y248031
X340551
Y244094
X345800
Y248031
X351050
Y244094
X356299
Y248031
Y253937
Y258858
Y263779
X351050
Y258858
Y253937
X345800
Y258858
Y263779
X340551
Y258858
Y253937
X335302
Y258858
Y263779
X330052
Y258858
Y253937
X324803
Y258858
Y263779
X314961Y259843
Y267717
Y275591
Y283465
Y307087
X328445Y303445
X332677Y310039
X357283Y306102
X358268Y288386
X378795Y237000
X406496Y237205
X416339Y238189
X425197
Y253937
X441929Y241142
X314961Y211614
X314961Y204725
X307087
Y196851
Y188977
Y181103
Y173228
X299213Y181103
Y188977
Y196851
Y204725
X291339
Y196851
Y188977
X283465Y196851
Y204725
Y228347
X291339
X299213
X307087
Y236221
Y244095
X299213
X291339
X283465
X275591
Y259843
X283465
X291339
X299213
Y267717
Y275591
X307087
Y283465
X299213
X291339
Y275591
Y267717
X283465
Y275591
Y283465
X275591
Y275591
Y267717
X252362Y280709
X250394Y284646
X257874Y287402
X261024Y292913
X246063Y294094
X229823Y300394
X218504Y280315
X213779Y272047
X215256Y258465
X186902Y258945
Y255520
Y262370
Y265795
Y269220
Y272646
Y276354
Y279780
Y283205
Y286630
Y290055
Y293480
X183039Y297342
X179614
X176189
X172764
X169339
X165913
X162205
X158780
X160228Y282571
Y277413
Y271587
Y266429
X166409
Y271587
X172130
Y277413
X166409
Y282571
X169291Y310236
X173228Y309842
X177953Y305906
X179921Y303150
X185827Y310630
X198819Y301575
X183039Y251658
X179614
X176189
X172764
X169339
X165913
X162205
X158780
X161909Y236417
X171949Y233760
X169685Y220472
X176772Y218110
X207087Y212598
X210630Y209055
X213075Y225969
X206201Y233465
X229528
X235433Y233858
X239370Y235433
X247244
X248425Y241339
X275591Y181103
Y173228
X283465
Y165354
X290354Y158465
X275591Y157480
X299213Y165354
Y307087
X307087
X291339
X283465
X275591
X155354Y297342
X151929
X148504
X145079
X141217Y293480
Y290055
Y286630
Y283205
Y279780
Y276354
Y272646
Y269220
Y265795
Y262370
Y255520
X145079Y251658
X148504
X151929
X155354
X153937Y238583
X146358Y235630
X140157Y233071
X136811Y241043
X126772Y233465
X116437Y232972
X112205Y229921
X101181Y237697
X98425Y250000
X97441Y258858
X98425Y265748
Y274606
X90551Y277559
X91043Y283465
X69882Y289370
X61024Y288583
X55118Y288386
X50197
X45276
X40354
Y254921
X45276
X49606Y255118
X55118Y254921
X60827
X64961
X69882
X74016Y250787
X70866Y226772
X57480Y220472
X53543Y203150
X59449Y172835
X63779Y164173
X81496Y163779
X104331Y174409
X123228Y174803
X130315Y176772
X132677Y168110
X137402Y160236
X153937Y176378
X147244Y203740
X140157Y218504
X133858
X126772Y218110
X127362Y256299
X122835Y255118
X120079Y264173
X116500Y266374
X123622Y269291
X124409Y273228
X130315Y279528
X129134Y282283
X133071Y261811
X115157Y250984
X108858Y292913
X117126Y303150
X124902Y310039
X100079Y311024
X154508Y277413
Y271587
X48425Y240945
X51181Y337598
X36417Y370079
X57087Y395669
X104331
X120866Y409449
X143701Y368898
Y360630
X140157Y356693
X138189Y351969
X131890Y349213
X128740Y344488
X125591Y334252
X138189Y327165
X148228Y331594
X152362Y329528
X152362Y334646
X149803Y317126
X105315Y335630
X91339Y366929
X169000Y360732
X178740Y357874
X162992Y348819
X157480Y345276
Y334646
X162182Y331617
X176378Y331004
X172047Y337402
X178248Y317126
X164173Y315846
X209842Y334252
X219291Y331102
X228346Y327165
X235433Y322441
X241339Y317717
X254724Y319685
X275591Y314961
X283465
X291339
X299213
X307087
Y330709
Y338583
Y346457
Y362205
Y370079
X299213
Y362205
Y354331
X291339
Y362205
Y370079
X283465Y362205
Y354331
X275591
X258661Y353150
X260827Y345472
X246850Y347244
X250590Y356102
X207480Y355118
X218504Y401968
X228740Y398425
X259842Y396457
X275591Y393701
X283465
Y401575
X291339
Y409449
X299213
X307087
X283465
Y417323
Y425197
X291339
X283465Y433071
X275591Y425197
Y417323
Y409449
Y401575
Y385827
Y330709
X283465
X291339
X299213
X314961
Y338583
Y346457
X322835Y347441
Y352362
X328084
X333333
X338583
X343832
X349081
X354331
Y332677
Y327756
X349081
Y332677
X343832
Y327756
X338583
Y332677
X333333
Y327756
X328084
Y332677
X322835
Y337598
Y327756
X322933Y322342
X322835Y317913
X328084
X327953Y322047
X333563
X333333Y317913
X338583
X338287Y321850
X343799Y321949
X343832Y317913
X349081
X348524Y322047
X354331Y321161
Y317913
X376795Y325000
X401575Y326921
X412614Y327756
X423228
X433071Y325787
X423228Y341535
X353346Y375984
X352498Y387500
X328740Y402559
X322835Y409449
X314961
X313287Y392028
X322835Y425197
X314961Y314961
T02
X49000Y139500
X59000
X69000
X79000
X89000
X99000
X109000
X119000
X129000
X139000
X149000
Y149500
X139000
X129000
X119000
X109000
X99000
X89000
X79000
X69000
X59000
X49000
X159000
Y139500
X169000
X179000
X189000
X199000
X209000
X219000
X229000
Y149500
X219000
X209000
X199000
X189000
X179000
X169000
X149000Y379500
X139000
X129000
X119000
X109000
X99000
X89000
X79000
X69000
X59000
X49000
Y389500
X59000
X69000
X79000
X89000
X99000
X109000
X119000
X129000
X139000
X149000
X159000
Y379500
X169000
X179000
X189000
X199000
X209000
X219000
X229000
Y389500
X219000
X209000
X199000
X189000
X179000
X169000
T03
X57019Y406465
X68830
Y418276
X80641
X92452
Y406465
X80641
X104263
Y418276
X141519
Y406465
X153330
Y418276
X57019
X165141
Y406465
X176953
X188764
X200575
Y418276
X188764
X176953
X245078Y420276
Y408465
X256890
Y420276
T04
X427500Y196500
X437500
X447500
Y216500
X437500
X427500
X431000Y281000
X441000
X451000
Y301000
X441000
X431000
X307087Y418150
X297087
Y438150
X307087
X317087
Y418150
X345315Y417165
X355315
X365315
Y437165
X355315
X345315
X429500Y389500
X439500
X449500
Y369500
X439500
X429500
T05
X65484Y435284
X95798
X149984
X192110
X250984Y437284
M30
