G04*
G04 #@! TF.GenerationSoftware,Altium Limited,Altium Designer,19.1.7 (138)*
G04*
G04 Layer_Color=16711935*
%FSLAX25Y25*%
%MOIN*%
G70*
G01*
G75*
%ADD11C,0.00591*%
%ADD12C,0.12900*%
%ADD13R,0.06632X0.06632*%
%ADD14C,0.06836*%
%ADD15C,0.06424*%
%ADD16C,0.04416*%
%ADD17R,0.05203X0.05203*%
%ADD18C,0.05203*%
G04:AMPARAMS|DCode=34|XSize=29.59mil|YSize=68.96mil|CornerRadius=3.92mil|HoleSize=0mil|Usage=FLASHONLY|Rotation=180.000|XOffset=0mil|YOffset=0mil|HoleType=Round|Shape=RoundedRectangle|*
%AMROUNDEDRECTD34*
21,1,0.02959,0.06112,0,0,180.0*
21,1,0.02175,0.06896,0,0,180.0*
1,1,0.00784,-0.01088,0.03056*
1,1,0.00784,0.01088,0.03056*
1,1,0.00784,0.01088,-0.03056*
1,1,0.00784,-0.01088,-0.03056*
%
%ADD34ROUNDEDRECTD34*%
%ADD35R,0.03156X0.03156*%
%ADD36R,0.06502X0.02762*%
%ADD37R,0.04534X0.03943*%
%ADD38R,0.04337X0.03550*%
%ADD39R,0.03550X0.04337*%
%ADD40R,0.03747X0.02172*%
G36*
X165562Y61258D02*
X30062D01*
Y90000D01*
X165562D01*
X165562Y61258D01*
D02*
G37*
D11*
X85131Y39079D02*
X87755D01*
X88279Y38554D01*
Y37504D01*
X87755Y36980D01*
X85131D01*
X88279Y35930D02*
Y34881D01*
Y35405D01*
X85131D01*
X85656Y35930D01*
D12*
X41500Y12500D02*
D03*
X184500D02*
D03*
Y112500D02*
D03*
X41500D02*
D03*
D13*
X149311Y27500D02*
D03*
D14*
X125689D02*
D03*
X149311Y15689D02*
D03*
X137500D02*
D03*
X125689D02*
D03*
D15*
X137500Y27500D02*
D03*
D16*
X161122Y11988D02*
D03*
X113878D02*
D03*
D17*
X62500Y55000D02*
D03*
D18*
X72500D02*
D03*
X82500D02*
D03*
X92500D02*
D03*
X102500D02*
D03*
X112500D02*
D03*
X122500D02*
D03*
X132500D02*
D03*
X142500D02*
D03*
X152500D02*
D03*
X162500D02*
D03*
Y95000D02*
D03*
X152500D02*
D03*
X142500D02*
D03*
X132500D02*
D03*
X122500D02*
D03*
X112500D02*
D03*
X102500D02*
D03*
X92500D02*
D03*
X82500D02*
D03*
X72500D02*
D03*
X62500D02*
D03*
D34*
X72000Y44000D02*
D03*
X77000D02*
D03*
X82000D02*
D03*
X87000D02*
D03*
X92000D02*
D03*
X97000D02*
D03*
X102000D02*
D03*
X72000Y21756D02*
D03*
X77000D02*
D03*
X82000D02*
D03*
X87000D02*
D03*
X92000D02*
D03*
X97000D02*
D03*
X102000D02*
D03*
D35*
X56854Y46866D02*
D03*
X62366D02*
D03*
D36*
X172331Y49740D02*
D03*
Y42260D02*
D03*
X163669Y46000D02*
D03*
D37*
X169500Y29342D02*
D03*
Y34657D02*
D03*
D38*
X146500Y44953D02*
D03*
Y39047D02*
D03*
D39*
X113547Y117000D02*
D03*
X119453D02*
D03*
D40*
X103000Y15453D02*
D03*
Y9547D02*
D03*
M02*
