G04*
G04 #@! TF.GenerationSoftware,Altium Limited,Altium Designer,19.1.7 (138)*
G04*
G04 Layer_Physical_Order=1*
G04 Layer_Color=255*
%FSLAX25Y25*%
%MOIN*%
G70*
G01*
G75*
%ADD11C,0.00591*%
%ADD19C,0.12500*%
%ADD20R,0.06232X0.06232*%
%ADD21C,0.06436*%
%ADD22C,0.06024*%
%ADD23C,0.04016*%
%ADD24R,0.04803X0.04803*%
%ADD25C,0.04803*%
G36*
X195981Y1020D02*
X30020D01*
Y123980D01*
X195981D01*
Y1020D01*
D02*
G37*
%LPC*%
G36*
X185000Y119736D02*
Y113000D01*
X191736D01*
X191645Y113921D01*
X191230Y115288D01*
X190557Y116547D01*
X189651Y117651D01*
X188547Y118557D01*
X187288Y119230D01*
X185921Y119645D01*
X185000Y119736D01*
D02*
G37*
G36*
X184000D02*
X183079Y119645D01*
X181712Y119230D01*
X180453Y118557D01*
X179349Y117651D01*
X178443Y116547D01*
X177769Y115288D01*
X177355Y113921D01*
X177264Y113000D01*
X184000D01*
Y119736D01*
D02*
G37*
G36*
X42000D02*
Y113000D01*
X48736D01*
X48645Y113921D01*
X48230Y115288D01*
X47557Y116547D01*
X46651Y117651D01*
X45547Y118557D01*
X44288Y119230D01*
X42921Y119645D01*
X42000Y119736D01*
D02*
G37*
G36*
X41000D02*
X40079Y119645D01*
X38712Y119230D01*
X37453Y118557D01*
X36349Y117651D01*
X35443Y116547D01*
X34769Y115288D01*
X34355Y113921D01*
X34264Y113000D01*
X41000D01*
Y119736D01*
D02*
G37*
G36*
X191736Y112000D02*
X185000D01*
Y105264D01*
X185921Y105355D01*
X187288Y105770D01*
X188547Y106443D01*
X189651Y107349D01*
X190557Y108453D01*
X191230Y109712D01*
X191645Y111079D01*
X191736Y112000D01*
D02*
G37*
G36*
X184000D02*
X177264D01*
X177355Y111079D01*
X177769Y109712D01*
X178443Y108453D01*
X179349Y107349D01*
X180453Y106443D01*
X181712Y105770D01*
X183079Y105355D01*
X184000Y105264D01*
Y112000D01*
D02*
G37*
G36*
X48736D02*
X42000D01*
Y105264D01*
X42921Y105355D01*
X44288Y105770D01*
X45547Y106443D01*
X46651Y107349D01*
X47557Y108453D01*
X48230Y109712D01*
X48645Y111079D01*
X48736Y112000D01*
D02*
G37*
G36*
X41000D02*
X34264D01*
X34355Y111079D01*
X34769Y109712D01*
X35443Y108453D01*
X36349Y107349D01*
X37453Y106443D01*
X38712Y105770D01*
X40079Y105355D01*
X41000Y105264D01*
Y112000D01*
D02*
G37*
G36*
X163000Y98365D02*
Y95500D01*
X165865D01*
X165814Y95888D01*
X165471Y96715D01*
X164926Y97426D01*
X164215Y97971D01*
X163388Y98314D01*
X163000Y98365D01*
D02*
G37*
G36*
X153000D02*
Y95500D01*
X155865D01*
X155814Y95888D01*
X155471Y96715D01*
X154926Y97426D01*
X154215Y97971D01*
X153388Y98314D01*
X153000Y98365D01*
D02*
G37*
G36*
X143000D02*
Y95500D01*
X145865D01*
X145814Y95888D01*
X145471Y96715D01*
X144926Y97426D01*
X144215Y97971D01*
X143388Y98314D01*
X143000Y98365D01*
D02*
G37*
G36*
X133000D02*
Y95500D01*
X135865D01*
X135814Y95888D01*
X135471Y96715D01*
X134926Y97426D01*
X134215Y97971D01*
X133388Y98314D01*
X133000Y98365D01*
D02*
G37*
G36*
X123000D02*
Y95500D01*
X125865D01*
X125814Y95888D01*
X125471Y96715D01*
X124926Y97426D01*
X124215Y97971D01*
X123388Y98314D01*
X123000Y98365D01*
D02*
G37*
G36*
X113000D02*
Y95500D01*
X115865D01*
X115814Y95888D01*
X115471Y96715D01*
X114926Y97426D01*
X114215Y97971D01*
X113388Y98314D01*
X113000Y98365D01*
D02*
G37*
G36*
X103000D02*
Y95500D01*
X105865D01*
X105814Y95888D01*
X105471Y96715D01*
X104926Y97426D01*
X104215Y97971D01*
X103388Y98314D01*
X103000Y98365D01*
D02*
G37*
G36*
X93000D02*
Y95500D01*
X95865D01*
X95814Y95888D01*
X95471Y96715D01*
X94926Y97426D01*
X94215Y97971D01*
X93388Y98314D01*
X93000Y98365D01*
D02*
G37*
G36*
X83000D02*
Y95500D01*
X85865D01*
X85814Y95888D01*
X85471Y96715D01*
X84926Y97426D01*
X84215Y97971D01*
X83388Y98314D01*
X83000Y98365D01*
D02*
G37*
G36*
X63000D02*
Y95500D01*
X65865D01*
X65814Y95888D01*
X65471Y96715D01*
X64926Y97426D01*
X64215Y97971D01*
X63388Y98314D01*
X63000Y98365D01*
D02*
G37*
G36*
X102000D02*
X101612Y98314D01*
X100785Y97971D01*
X100074Y97426D01*
X99529Y96715D01*
X99186Y95888D01*
X99135Y95500D01*
X102000D01*
Y98365D01*
D02*
G37*
G36*
X142000D02*
X141612Y98314D01*
X140785Y97971D01*
X140074Y97426D01*
X139529Y96715D01*
X139186Y95888D01*
X139135Y95500D01*
X142000D01*
Y98365D01*
D02*
G37*
G36*
X132000D02*
X131612Y98314D01*
X130784Y97971D01*
X130074Y97426D01*
X129529Y96715D01*
X129186Y95888D01*
X129135Y95500D01*
X132000D01*
Y98365D01*
D02*
G37*
G36*
X112000D02*
X111612Y98314D01*
X110784Y97971D01*
X110074Y97426D01*
X109529Y96715D01*
X109186Y95888D01*
X109135Y95500D01*
X112000D01*
Y98365D01*
D02*
G37*
G36*
X92000D02*
X91612Y98314D01*
X90785Y97971D01*
X90074Y97426D01*
X89529Y96715D01*
X89186Y95888D01*
X89135Y95500D01*
X92000D01*
Y98365D01*
D02*
G37*
G36*
X152000D02*
X151612Y98314D01*
X150785Y97971D01*
X150074Y97426D01*
X149529Y96715D01*
X149186Y95888D01*
X149135Y95500D01*
X152000D01*
Y98365D01*
D02*
G37*
G36*
X122000D02*
X121612Y98314D01*
X120784Y97971D01*
X120074Y97426D01*
X119529Y96715D01*
X119186Y95888D01*
X119135Y95500D01*
X122000D01*
Y98365D01*
D02*
G37*
G36*
X62000D02*
X61612Y98314D01*
X60785Y97971D01*
X60074Y97426D01*
X59529Y96715D01*
X59186Y95888D01*
X59135Y95500D01*
X62000D01*
Y98365D01*
D02*
G37*
G36*
X82000D02*
X81612Y98314D01*
X80784Y97971D01*
X80074Y97426D01*
X79529Y96715D01*
X79186Y95888D01*
X79135Y95500D01*
X82000D01*
Y98365D01*
D02*
G37*
G36*
X162000D02*
X161612Y98314D01*
X160784Y97971D01*
X160074Y97426D01*
X159529Y96715D01*
X159186Y95888D01*
X159135Y95500D01*
X162000D01*
Y98365D01*
D02*
G37*
G36*
X72500Y97927D02*
X71742Y97827D01*
X71037Y97535D01*
X70431Y97069D01*
X69965Y96463D01*
X69673Y95758D01*
X69573Y95000D01*
X69673Y94243D01*
X69965Y93537D01*
X70431Y92931D01*
X71037Y92466D01*
X71742Y92173D01*
X72500Y92073D01*
X73257Y92173D01*
X73963Y92466D01*
X74569Y92931D01*
X75034Y93537D01*
X75327Y94243D01*
X75427Y95000D01*
X75327Y95758D01*
X75034Y96463D01*
X74569Y97069D01*
X73963Y97535D01*
X73257Y97827D01*
X72500Y97927D01*
D02*
G37*
G36*
X165865Y94500D02*
X163000D01*
Y91635D01*
X163388Y91686D01*
X164215Y92029D01*
X164926Y92574D01*
X165471Y93284D01*
X165814Y94112D01*
X165865Y94500D01*
D02*
G37*
G36*
X125865D02*
X123000D01*
Y91635D01*
X123388Y91686D01*
X124215Y92029D01*
X124926Y92574D01*
X125471Y93284D01*
X125814Y94112D01*
X125865Y94500D01*
D02*
G37*
G36*
X85865D02*
X83000D01*
Y91635D01*
X83388Y91686D01*
X84215Y92029D01*
X84926Y92574D01*
X85471Y93284D01*
X85814Y94112D01*
X85865Y94500D01*
D02*
G37*
G36*
X65865D02*
X63000D01*
Y91635D01*
X63388Y91686D01*
X64215Y92029D01*
X64926Y92574D01*
X65471Y93284D01*
X65814Y94112D01*
X65865Y94500D01*
D02*
G37*
G36*
X155865D02*
X153000D01*
Y91635D01*
X153388Y91686D01*
X154215Y92029D01*
X154926Y92574D01*
X155471Y93284D01*
X155814Y94112D01*
X155865Y94500D01*
D02*
G37*
G36*
X135865D02*
X133000D01*
Y91635D01*
X133388Y91686D01*
X134215Y92029D01*
X134926Y92574D01*
X135471Y93284D01*
X135814Y94112D01*
X135865Y94500D01*
D02*
G37*
G36*
X115865D02*
X113000D01*
Y91635D01*
X113388Y91686D01*
X114215Y92029D01*
X114926Y92574D01*
X115471Y93284D01*
X115814Y94112D01*
X115865Y94500D01*
D02*
G37*
G36*
X95865D02*
X93000D01*
Y91635D01*
X93388Y91686D01*
X94215Y92029D01*
X94926Y92574D01*
X95471Y93284D01*
X95814Y94112D01*
X95865Y94500D01*
D02*
G37*
G36*
X145865D02*
X143000D01*
Y91635D01*
X143388Y91686D01*
X144215Y92029D01*
X144926Y92574D01*
X145471Y93284D01*
X145814Y94112D01*
X145865Y94500D01*
D02*
G37*
G36*
X105865D02*
X103000D01*
Y91635D01*
X103388Y91686D01*
X104215Y92029D01*
X104926Y92574D01*
X105471Y93284D01*
X105814Y94112D01*
X105865Y94500D01*
D02*
G37*
G36*
X142000D02*
X139135D01*
X139186Y94112D01*
X139529Y93284D01*
X140074Y92574D01*
X140785Y92029D01*
X141612Y91686D01*
X142000Y91635D01*
Y94500D01*
D02*
G37*
G36*
X102000D02*
X99135D01*
X99186Y94112D01*
X99529Y93284D01*
X100074Y92574D01*
X100785Y92029D01*
X101612Y91686D01*
X102000Y91635D01*
Y94500D01*
D02*
G37*
G36*
X152000D02*
X149135D01*
X149186Y94112D01*
X149529Y93284D01*
X150074Y92574D01*
X150785Y92029D01*
X151612Y91686D01*
X152000Y91635D01*
Y94500D01*
D02*
G37*
G36*
X132000D02*
X129135D01*
X129186Y94112D01*
X129529Y93284D01*
X130074Y92574D01*
X130784Y92029D01*
X131612Y91686D01*
X132000Y91635D01*
Y94500D01*
D02*
G37*
G36*
X112000D02*
X109135D01*
X109186Y94112D01*
X109529Y93284D01*
X110074Y92574D01*
X110784Y92029D01*
X111612Y91686D01*
X112000Y91635D01*
Y94500D01*
D02*
G37*
G36*
X92000D02*
X89135D01*
X89186Y94112D01*
X89529Y93284D01*
X90074Y92574D01*
X90785Y92029D01*
X91612Y91686D01*
X92000Y91635D01*
Y94500D01*
D02*
G37*
G36*
X82000D02*
X79135D01*
X79186Y94112D01*
X79529Y93284D01*
X80074Y92574D01*
X80784Y92029D01*
X81612Y91686D01*
X82000Y91635D01*
Y94500D01*
D02*
G37*
G36*
X62000D02*
X59135D01*
X59186Y94112D01*
X59529Y93284D01*
X60074Y92574D01*
X60785Y92029D01*
X61612Y91686D01*
X62000Y91635D01*
Y94500D01*
D02*
G37*
G36*
X162000D02*
X159135D01*
X159186Y94112D01*
X159529Y93284D01*
X160074Y92574D01*
X160784Y92029D01*
X161612Y91686D01*
X162000Y91635D01*
Y94500D01*
D02*
G37*
G36*
X122000D02*
X119135D01*
X119186Y94112D01*
X119529Y93284D01*
X120074Y92574D01*
X120784Y92029D01*
X121612Y91686D01*
X122000Y91635D01*
Y94500D01*
D02*
G37*
G36*
X163000Y58365D02*
Y55500D01*
X165865D01*
X165814Y55888D01*
X165471Y56716D01*
X164926Y57426D01*
X164215Y57971D01*
X163388Y58314D01*
X163000Y58365D01*
D02*
G37*
G36*
X153000D02*
Y55500D01*
X155865D01*
X155814Y55888D01*
X155471Y56716D01*
X154926Y57426D01*
X154215Y57971D01*
X153388Y58314D01*
X153000Y58365D01*
D02*
G37*
G36*
X143000D02*
Y55500D01*
X145865D01*
X145814Y55888D01*
X145471Y56716D01*
X144926Y57426D01*
X144215Y57971D01*
X143388Y58314D01*
X143000Y58365D01*
D02*
G37*
G36*
X133000D02*
Y55500D01*
X135865D01*
X135814Y55888D01*
X135471Y56716D01*
X134926Y57426D01*
X134215Y57971D01*
X133388Y58314D01*
X133000Y58365D01*
D02*
G37*
G36*
X123000D02*
Y55500D01*
X125865D01*
X125814Y55888D01*
X125471Y56716D01*
X124926Y57426D01*
X124215Y57971D01*
X123388Y58314D01*
X123000Y58365D01*
D02*
G37*
G36*
X113000D02*
Y55500D01*
X115865D01*
X115814Y55888D01*
X115471Y56716D01*
X114926Y57426D01*
X114215Y57971D01*
X113388Y58314D01*
X113000Y58365D01*
D02*
G37*
G36*
X142000D02*
X141612Y58314D01*
X140785Y57971D01*
X140074Y57426D01*
X139529Y56716D01*
X139186Y55888D01*
X139135Y55500D01*
X142000D01*
Y58365D01*
D02*
G37*
G36*
X162000D02*
X161612Y58314D01*
X160784Y57971D01*
X160074Y57426D01*
X159529Y56716D01*
X159186Y55888D01*
X159135Y55500D01*
X162000D01*
Y58365D01*
D02*
G37*
G36*
X112000D02*
X111612Y58314D01*
X110784Y57971D01*
X110074Y57426D01*
X109529Y56716D01*
X109186Y55888D01*
X109135Y55500D01*
X112000D01*
Y58365D01*
D02*
G37*
G36*
X152000D02*
X151612Y58314D01*
X150785Y57971D01*
X150074Y57426D01*
X149529Y56716D01*
X149186Y55888D01*
X149135Y55500D01*
X152000D01*
Y58365D01*
D02*
G37*
G36*
X132000D02*
X131612Y58314D01*
X130784Y57971D01*
X130074Y57426D01*
X129529Y56716D01*
X129186Y55888D01*
X129135Y55500D01*
X132000D01*
Y58365D01*
D02*
G37*
G36*
X122000D02*
X121612Y58314D01*
X120784Y57971D01*
X120074Y57426D01*
X119529Y56716D01*
X119186Y55888D01*
X119135Y55500D01*
X122000D01*
Y58365D01*
D02*
G37*
G36*
X65402Y57902D02*
X59598D01*
Y52098D01*
X65402D01*
Y57902D01*
D02*
G37*
G36*
X102500Y57927D02*
X101742Y57827D01*
X101037Y57534D01*
X100431Y57069D01*
X99966Y56463D01*
X99673Y55757D01*
X99573Y55000D01*
X99673Y54242D01*
X99966Y53537D01*
X100431Y52931D01*
X101037Y52465D01*
X101742Y52173D01*
X102500Y52073D01*
X103257Y52173D01*
X103963Y52465D01*
X104569Y52931D01*
X105034Y53537D01*
X105327Y54242D01*
X105427Y55000D01*
X105327Y55757D01*
X105034Y56463D01*
X104569Y57069D01*
X103963Y57534D01*
X103257Y57827D01*
X102500Y57927D01*
D02*
G37*
G36*
X92500D02*
X91742Y57827D01*
X91037Y57534D01*
X90431Y57069D01*
X89965Y56463D01*
X89673Y55757D01*
X89573Y55000D01*
X89673Y54242D01*
X89965Y53537D01*
X90431Y52931D01*
X91037Y52465D01*
X91742Y52173D01*
X92500Y52073D01*
X93257Y52173D01*
X93963Y52465D01*
X94569Y52931D01*
X95034Y53537D01*
X95327Y54242D01*
X95427Y55000D01*
X95327Y55757D01*
X95034Y56463D01*
X94569Y57069D01*
X93963Y57534D01*
X93257Y57827D01*
X92500Y57927D01*
D02*
G37*
G36*
X82500D02*
X81743Y57827D01*
X81037Y57534D01*
X80431Y57069D01*
X79966Y56463D01*
X79673Y55757D01*
X79573Y55000D01*
X79673Y54242D01*
X79966Y53537D01*
X80431Y52931D01*
X81037Y52465D01*
X81743Y52173D01*
X82500Y52073D01*
X83257Y52173D01*
X83963Y52465D01*
X84569Y52931D01*
X85035Y53537D01*
X85327Y54242D01*
X85427Y55000D01*
X85327Y55757D01*
X85035Y56463D01*
X84569Y57069D01*
X83963Y57534D01*
X83257Y57827D01*
X82500Y57927D01*
D02*
G37*
G36*
X72500D02*
X71742Y57827D01*
X71037Y57534D01*
X70431Y57069D01*
X69965Y56463D01*
X69673Y55757D01*
X69573Y55000D01*
X69673Y54242D01*
X69965Y53537D01*
X70431Y52931D01*
X71037Y52465D01*
X71742Y52173D01*
X72500Y52073D01*
X73257Y52173D01*
X73963Y52465D01*
X74569Y52931D01*
X75034Y53537D01*
X75327Y54242D01*
X75427Y55000D01*
X75327Y55757D01*
X75034Y56463D01*
X74569Y57069D01*
X73963Y57534D01*
X73257Y57827D01*
X72500Y57927D01*
D02*
G37*
G36*
X125865Y54500D02*
X123000D01*
Y51635D01*
X123388Y51686D01*
X124215Y52029D01*
X124926Y52574D01*
X125471Y53285D01*
X125814Y54112D01*
X125865Y54500D01*
D02*
G37*
G36*
X155865D02*
X153000D01*
Y51635D01*
X153388Y51686D01*
X154215Y52029D01*
X154926Y52574D01*
X155471Y53285D01*
X155814Y54112D01*
X155865Y54500D01*
D02*
G37*
G36*
X135865D02*
X133000D01*
Y51635D01*
X133388Y51686D01*
X134215Y52029D01*
X134926Y52574D01*
X135471Y53285D01*
X135814Y54112D01*
X135865Y54500D01*
D02*
G37*
G36*
X115865D02*
X113000D01*
Y51635D01*
X113388Y51686D01*
X114215Y52029D01*
X114926Y52574D01*
X115471Y53285D01*
X115814Y54112D01*
X115865Y54500D01*
D02*
G37*
G36*
X165865D02*
X163000D01*
Y51635D01*
X163388Y51686D01*
X164215Y52029D01*
X164926Y52574D01*
X165471Y53285D01*
X165814Y54112D01*
X165865Y54500D01*
D02*
G37*
G36*
X145865D02*
X143000D01*
Y51635D01*
X143388Y51686D01*
X144215Y52029D01*
X144926Y52574D01*
X145471Y53285D01*
X145814Y54112D01*
X145865Y54500D01*
D02*
G37*
G36*
X142000D02*
X139135D01*
X139186Y54112D01*
X139529Y53285D01*
X140074Y52574D01*
X140785Y52029D01*
X141612Y51686D01*
X142000Y51635D01*
Y54500D01*
D02*
G37*
G36*
X162000D02*
X159135D01*
X159186Y54112D01*
X159529Y53285D01*
X160074Y52574D01*
X160784Y52029D01*
X161612Y51686D01*
X162000Y51635D01*
Y54500D01*
D02*
G37*
G36*
X152000D02*
X149135D01*
X149186Y54112D01*
X149529Y53285D01*
X150074Y52574D01*
X150785Y52029D01*
X151612Y51686D01*
X152000Y51635D01*
Y54500D01*
D02*
G37*
G36*
X132000D02*
X129135D01*
X129186Y54112D01*
X129529Y53285D01*
X130074Y52574D01*
X130784Y52029D01*
X131612Y51686D01*
X132000Y51635D01*
Y54500D01*
D02*
G37*
G36*
X112000D02*
X109135D01*
X109186Y54112D01*
X109529Y53285D01*
X110074Y52574D01*
X110784Y52029D01*
X111612Y51686D01*
X112000Y51635D01*
Y54500D01*
D02*
G37*
G36*
X122000D02*
X119135D01*
X119186Y54112D01*
X119529Y53285D01*
X120074Y52574D01*
X120784Y52029D01*
X121612Y51686D01*
X122000Y51635D01*
Y54500D01*
D02*
G37*
G36*
X153427Y31616D02*
X149811D01*
Y28000D01*
X153427D01*
Y31616D01*
D02*
G37*
G36*
X148811D02*
X145195D01*
Y28000D01*
X148811D01*
Y31616D01*
D02*
G37*
G36*
X137500Y31042D02*
X136583Y30922D01*
X135729Y30568D01*
X134995Y30005D01*
X134432Y29271D01*
X134078Y28417D01*
X133958Y27500D01*
X134078Y26583D01*
X134432Y25729D01*
X134995Y24995D01*
X135729Y24432D01*
X136583Y24078D01*
X137500Y23958D01*
X138417Y24078D01*
X139271Y24432D01*
X140005Y24995D01*
X140568Y25729D01*
X140922Y26583D01*
X141042Y27500D01*
X140922Y28417D01*
X140568Y29271D01*
X140005Y30005D01*
X139271Y30568D01*
X138417Y30922D01*
X137500Y31042D01*
D02*
G37*
G36*
X125689Y31250D02*
X124718Y31122D01*
X123814Y30748D01*
X123037Y30152D01*
X122441Y29375D01*
X122066Y28471D01*
X121939Y27500D01*
X122066Y26529D01*
X122441Y25625D01*
X123037Y24848D01*
X123814Y24252D01*
X124718Y23877D01*
X125689Y23750D01*
X126660Y23877D01*
X127564Y24252D01*
X128341Y24848D01*
X128937Y25625D01*
X129312Y26529D01*
X129439Y27500D01*
X129312Y28471D01*
X128937Y29375D01*
X128341Y30152D01*
X127564Y30748D01*
X126660Y31122D01*
X125689Y31250D01*
D02*
G37*
G36*
X153427Y27000D02*
X149811D01*
Y23384D01*
X153427D01*
Y27000D01*
D02*
G37*
G36*
X148811D02*
X145195D01*
Y23384D01*
X148811D01*
Y27000D01*
D02*
G37*
G36*
X185000Y19736D02*
Y13000D01*
X191736D01*
X191645Y13921D01*
X191230Y15288D01*
X190557Y16547D01*
X189651Y17651D01*
X188547Y18557D01*
X187288Y19230D01*
X185921Y19645D01*
X185000Y19736D01*
D02*
G37*
G36*
X184000D02*
X183079Y19645D01*
X181712Y19230D01*
X180453Y18557D01*
X179349Y17651D01*
X178443Y16547D01*
X177769Y15288D01*
X177355Y13921D01*
X177264Y13000D01*
X184000D01*
Y19736D01*
D02*
G37*
G36*
X42000D02*
Y13000D01*
X48736D01*
X48645Y13921D01*
X48230Y15288D01*
X47557Y16547D01*
X46651Y17651D01*
X45547Y18557D01*
X44288Y19230D01*
X42921Y19645D01*
X42000Y19736D01*
D02*
G37*
G36*
X41000D02*
X40079Y19645D01*
X38712Y19230D01*
X37453Y18557D01*
X36349Y17651D01*
X35443Y16547D01*
X34769Y15288D01*
X34355Y13921D01*
X34264Y13000D01*
X41000D01*
Y19736D01*
D02*
G37*
G36*
X149311Y19439D02*
X148340Y19311D01*
X147436Y18937D01*
X146659Y18341D01*
X146063Y17564D01*
X145688Y16660D01*
X145561Y15689D01*
X145688Y14718D01*
X146063Y13814D01*
X146659Y13037D01*
X147436Y12441D01*
X148340Y12066D01*
X149311Y11939D01*
X150282Y12066D01*
X151186Y12441D01*
X151963Y13037D01*
X152559Y13814D01*
X152934Y14718D01*
X153061Y15689D01*
X152934Y16660D01*
X152559Y17564D01*
X151963Y18341D01*
X151186Y18937D01*
X150282Y19311D01*
X149311Y19439D01*
D02*
G37*
G36*
X137500D02*
X136529Y19311D01*
X135625Y18937D01*
X134848Y18341D01*
X134252Y17564D01*
X133878Y16660D01*
X133750Y15689D01*
X133878Y14718D01*
X134252Y13814D01*
X134848Y13037D01*
X135625Y12441D01*
X136529Y12066D01*
X137500Y11939D01*
X138471Y12066D01*
X139375Y12441D01*
X140152Y13037D01*
X140748Y13814D01*
X141122Y14718D01*
X141250Y15689D01*
X141122Y16660D01*
X140748Y17564D01*
X140152Y18341D01*
X139375Y18937D01*
X138471Y19311D01*
X137500Y19439D01*
D02*
G37*
G36*
X125689D02*
X124718Y19311D01*
X123814Y18937D01*
X123037Y18341D01*
X122441Y17564D01*
X122066Y16660D01*
X121939Y15689D01*
X122066Y14718D01*
X122441Y13814D01*
X123037Y13037D01*
X123814Y12441D01*
X124718Y12066D01*
X125689Y11939D01*
X126660Y12066D01*
X127564Y12441D01*
X128341Y13037D01*
X128937Y13814D01*
X129312Y14718D01*
X129439Y15689D01*
X129312Y16660D01*
X128937Y17564D01*
X128341Y18341D01*
X127564Y18937D01*
X126660Y19311D01*
X125689Y19439D01*
D02*
G37*
G36*
X161122Y14545D02*
X160143Y14351D01*
X159314Y13796D01*
X158759Y12967D01*
X158565Y11988D01*
X158759Y11009D01*
X159314Y10180D01*
X160143Y9625D01*
X161122Y9431D01*
X162101Y9625D01*
X162930Y10180D01*
X163485Y11009D01*
X163679Y11988D01*
X163485Y12967D01*
X162930Y13796D01*
X162101Y14351D01*
X161122Y14545D01*
D02*
G37*
G36*
X113878D02*
X112899Y14351D01*
X112070Y13796D01*
X111515Y12967D01*
X111321Y11988D01*
X111515Y11009D01*
X112070Y10180D01*
X112899Y9625D01*
X113878Y9431D01*
X114857Y9625D01*
X115686Y10180D01*
X116241Y11009D01*
X116435Y11988D01*
X116241Y12967D01*
X115686Y13796D01*
X114857Y14351D01*
X113878Y14545D01*
D02*
G37*
G36*
X191736Y12000D02*
X185000D01*
Y5264D01*
X185921Y5355D01*
X187288Y5770D01*
X188547Y6443D01*
X189651Y7349D01*
X190557Y8453D01*
X191230Y9712D01*
X191645Y11079D01*
X191736Y12000D01*
D02*
G37*
G36*
X184000D02*
X177264D01*
X177355Y11079D01*
X177769Y9712D01*
X178443Y8453D01*
X179349Y7349D01*
X180453Y6443D01*
X181712Y5770D01*
X183079Y5355D01*
X184000Y5264D01*
Y12000D01*
D02*
G37*
G36*
X48736D02*
X42000D01*
Y5264D01*
X42921Y5355D01*
X44288Y5770D01*
X45547Y6443D01*
X46651Y7349D01*
X47557Y8453D01*
X48230Y9712D01*
X48645Y11079D01*
X48736Y12000D01*
D02*
G37*
G36*
X41000D02*
X34264D01*
X34355Y11079D01*
X34769Y9712D01*
X35443Y8453D01*
X36349Y7349D01*
X37453Y6443D01*
X38712Y5770D01*
X40079Y5355D01*
X41000Y5264D01*
Y12000D01*
D02*
G37*
%LPD*%
D11*
X85131Y39079D02*
X87755D01*
X88279Y38554D01*
Y37504D01*
X87755Y36980D01*
X85131D01*
X88279Y35930D02*
Y34881D01*
Y35405D01*
X85131D01*
X85656Y35930D01*
D19*
X41500Y12500D02*
D03*
X184500D02*
D03*
Y112500D02*
D03*
X41500D02*
D03*
D20*
X149311Y27500D02*
D03*
D21*
X125689D02*
D03*
X149311Y15689D02*
D03*
X137500D02*
D03*
X125689D02*
D03*
D22*
X137500Y27500D02*
D03*
D23*
X161122Y11988D02*
D03*
X113878D02*
D03*
D24*
X62500Y55000D02*
D03*
D25*
X72500D02*
D03*
X82500D02*
D03*
X92500D02*
D03*
X102500D02*
D03*
X112500D02*
D03*
X122500D02*
D03*
X132500D02*
D03*
X142500D02*
D03*
X152500D02*
D03*
X162500D02*
D03*
Y95000D02*
D03*
X152500D02*
D03*
X142500D02*
D03*
X132500D02*
D03*
X122500D02*
D03*
X112500D02*
D03*
X102500D02*
D03*
X92500D02*
D03*
X82500D02*
D03*
X72500D02*
D03*
X62500D02*
D03*
M02*
