G04*
G04 #@! TF.GenerationSoftware,Altium Limited,Altium Designer,19.1.7 (138)*
G04*
G04 Layer_Color=16711935*
%FSLAX25Y25*%
%MOIN*%
G70*
G01*
G75*
%ADD11C,0.00591*%
%ADD43C,0.00394*%
D11*
X85131Y39079D02*
X87755D01*
X88279Y38554D01*
Y37504D01*
X87755Y36980D01*
X85131D01*
X88279Y35930D02*
Y34881D01*
Y35405D01*
X85131D01*
X85656Y35930D01*
D43*
X75189Y37209D02*
X74925Y38193D01*
X74205Y38913D01*
X73220Y39177D01*
X72236Y38913D01*
X71516Y38193D01*
X71252Y37209D01*
X71516Y36224D01*
X72236Y35504D01*
X73220Y35240D01*
X74205Y35504D01*
X74925Y36224D01*
X75189Y37209D01*
X69776Y40752D02*
X104224D01*
X69776Y25004D02*
X104224D01*
X69776D02*
Y40752D01*
X104224Y25004D02*
Y40752D01*
X29626Y55413D02*
Y94587D01*
X195374D01*
Y55413D02*
Y94587D01*
X29626Y55413D02*
X195374D01*
X29626Y60413D02*
X34626Y55413D01*
X56461Y45292D02*
Y48441D01*
X62760Y45292D02*
Y48441D01*
X56461Y45292D02*
X62760D01*
X56461Y48441D02*
X62760D01*
X164949Y51709D02*
X171051D01*
X164949Y40291D02*
Y51709D01*
Y40291D02*
X171051D01*
Y51709D01*
X167311D02*
X171051Y47969D01*
X167630Y28752D02*
X171370D01*
X167630Y35248D02*
X171370D01*
Y28752D02*
Y35248D01*
X167630Y28752D02*
Y35248D01*
X144728Y38653D02*
Y45346D01*
X148272Y38653D02*
Y45346D01*
X144728D02*
X148272D01*
X144728Y38653D02*
X148272D01*
X113154Y115228D02*
X119846D01*
X113154Y118772D02*
X119846D01*
X113154Y115228D02*
Y118772D01*
X119846Y115228D02*
Y118772D01*
X101228Y9154D02*
Y15846D01*
X104772Y9154D02*
Y15846D01*
X101228D02*
X104772D01*
X101228Y9154D02*
X104772D01*
M02*
