G04*
G04 #@! TF.GenerationSoftware,Altium Limited,Altium Designer,19.1.7 (138)*
G04*
G04 Layer_Color=16711935*
%FSLAX44Y44*%
%MOMM*%
G71*
G01*
G75*
%ADD11C,0.1500*%
%ADD12C,3.2766*%
%ADD13R,1.6846X1.6846*%
%ADD14C,1.7365*%
%ADD15C,1.6317*%
%ADD16C,1.1217*%
%ADD17R,1.3216X1.3216*%
%ADD18C,1.3216*%
G04:AMPARAMS|DCode=34|XSize=0.7516mm|YSize=1.7516mm|CornerRadius=0.0996mm|HoleSize=0mm|Usage=FLASHONLY|Rotation=180.000|XOffset=0mm|YOffset=0mm|HoleType=Round|Shape=RoundedRectangle|*
%AMROUNDEDRECTD34*
21,1,0.7516,1.5525,0,0,180.0*
21,1,0.5525,1.7516,0,0,180.0*
1,1,0.1991,-0.2763,0.7763*
1,1,0.1991,0.2763,0.7763*
1,1,0.1991,0.2763,-0.7763*
1,1,0.1991,-0.2763,-0.7763*
%
%ADD34ROUNDEDRECTD34*%
%ADD35R,0.8016X0.8016*%
%ADD36R,1.6516X0.7016*%
%ADD37R,1.1516X1.0016*%
%ADD38R,1.1016X0.9016*%
%ADD39R,0.9016X1.1016*%
%ADD40R,0.9516X0.5516*%
G36*
X420529Y155594D02*
X76359D01*
Y228600D01*
X420529D01*
X420529Y155594D01*
D02*
G37*
D11*
X216233Y99260D02*
X222897D01*
X224230Y97927D01*
Y95261D01*
X222897Y93928D01*
X216233D01*
X224230Y91263D02*
Y88597D01*
Y89930D01*
X216233D01*
X217565Y91263D01*
D12*
X105410Y31750D02*
D03*
X468630D02*
D03*
Y285750D02*
D03*
X105410D02*
D03*
D13*
X379250Y69850D02*
D03*
D14*
X319250D02*
D03*
X379250Y39850D02*
D03*
X349250D02*
D03*
X319250D02*
D03*
D15*
X349250Y69850D02*
D03*
D16*
X409250Y30450D02*
D03*
X289250D02*
D03*
D17*
X158750Y139700D02*
D03*
D18*
X184150D02*
D03*
X209550D02*
D03*
X234950D02*
D03*
X260350D02*
D03*
X285750D02*
D03*
X311150D02*
D03*
X336550D02*
D03*
X361950D02*
D03*
X387350D02*
D03*
X412750D02*
D03*
Y241300D02*
D03*
X387350D02*
D03*
X361950D02*
D03*
X336550D02*
D03*
X311150D02*
D03*
X285750D02*
D03*
X260350D02*
D03*
X234950D02*
D03*
X209550D02*
D03*
X184150D02*
D03*
X158750D02*
D03*
D34*
X182880Y111760D02*
D03*
X195580D02*
D03*
X208280D02*
D03*
X220980D02*
D03*
X233680D02*
D03*
X246380D02*
D03*
X259080D02*
D03*
X182880Y55260D02*
D03*
X195580D02*
D03*
X208280D02*
D03*
X220980D02*
D03*
X233680D02*
D03*
X246380D02*
D03*
X259080D02*
D03*
D35*
X144410Y119040D02*
D03*
X158410D02*
D03*
D36*
X437720Y126340D02*
D03*
Y107340D02*
D03*
X415720Y116840D02*
D03*
D37*
X430530Y74530D02*
D03*
Y88030D02*
D03*
D38*
X372110Y114180D02*
D03*
Y99180D02*
D03*
D39*
X288410Y297180D02*
D03*
X303410D02*
D03*
D40*
X261620Y39250D02*
D03*
Y24250D02*
D03*
M02*
