G04*
G04 #@! TF.GenerationSoftware,Altium Limited,Altium Designer,19.1.7 (138)*
G04*
G04 Layer_Color=128*
%FSLAX25Y25*%
%MOIN*%
G70*
G01*
G75*
%ADD11C,0.00591*%
G04:AMPARAMS|DCode=26|XSize=25.59mil|YSize=64.96mil|CornerRadius=1.92mil|HoleSize=0mil|Usage=FLASHONLY|Rotation=180.000|XOffset=0mil|YOffset=0mil|HoleType=Round|Shape=RoundedRectangle|*
%AMROUNDEDRECTD26*
21,1,0.02559,0.06112,0,0,180.0*
21,1,0.02175,0.06496,0,0,180.0*
1,1,0.00384,-0.01088,0.03056*
1,1,0.00384,0.01088,0.03056*
1,1,0.00384,0.01088,-0.03056*
1,1,0.00384,-0.01088,-0.03056*
%
%ADD26ROUNDEDRECTD26*%
%ADD27R,0.02756X0.02756*%
%ADD28R,0.06102X0.02362*%
%ADD29R,0.04134X0.03543*%
%ADD30R,0.03937X0.03150*%
%ADD31R,0.03150X0.03937*%
%ADD32R,0.03347X0.01772*%
D11*
X85131Y39079D02*
X87755D01*
X88279Y38554D01*
Y37504D01*
X87755Y36980D01*
X85131D01*
X88279Y35930D02*
Y34881D01*
Y35405D01*
X85131D01*
X85656Y35930D01*
D26*
X72000Y44000D02*
D03*
X77000D02*
D03*
X82000D02*
D03*
X87000D02*
D03*
X92000D02*
D03*
X97000D02*
D03*
X102000D02*
D03*
X72000Y21756D02*
D03*
X77000D02*
D03*
X82000D02*
D03*
X87000D02*
D03*
X92000D02*
D03*
X97000D02*
D03*
X102000D02*
D03*
D27*
X56854Y46866D02*
D03*
X62366D02*
D03*
D28*
X172331Y49740D02*
D03*
Y42260D02*
D03*
X163669Y46000D02*
D03*
D29*
X169500Y29342D02*
D03*
Y34657D02*
D03*
D30*
X146500Y44953D02*
D03*
Y39047D02*
D03*
D31*
X113547Y117000D02*
D03*
X119453D02*
D03*
D32*
X103000Y15453D02*
D03*
Y9547D02*
D03*
M02*
