M48
;Layer_Color=9474304
;FILE_FORMAT=2:5
INCH,TZ
;TYPE=PLATED
T1F00S00C0.03228
T2F00S00C0.04016
T3F00S00C0.04291
;TYPE=NON_PLATED
T4F00S00C0.04016
T5F00S00C0.12500
%
T01
X62500Y55000
X72500
X82500
X92500
X102500
X112500
X122500
X132500
X142500
X152500
Y95000
X142500
X132500
X122500
X112500
X102500
X92500
X82500
X72500
X62500
X162500
Y55000
T02
X137500Y27500
T03
X125689Y15689
Y27500
X149311
Y15689
X137500
T04
X113878Y11988
X161122
T05
X41500Y12500
Y112500
X184500
Y12500
M30
