G04*
G04 #@! TF.GenerationSoftware,Altium Limited,Altium Designer,19.1.7 (138)*
G04*
G04 Layer_Color=8388736*
%FSLAX44Y44*%
%MOMM*%
G71*
G01*
G75*
%ADD11C,0.1500*%
%ADD12C,3.2766*%
%ADD13R,1.6846X1.6846*%
%ADD14C,1.7365*%
%ADD15C,1.6317*%
%ADD16C,1.1217*%
%ADD17R,1.3216X1.3216*%
%ADD18C,1.3216*%
D11*
X216233Y99260D02*
X222897D01*
X224230Y97927D01*
Y95261D01*
X222897Y93928D01*
X216233D01*
X224230Y91263D02*
Y88597D01*
Y89930D01*
X216233D01*
X217565Y91263D01*
D12*
X105410Y31750D02*
D03*
X468630D02*
D03*
Y285750D02*
D03*
X105410D02*
D03*
D13*
X379250Y69850D02*
D03*
D14*
X319250D02*
D03*
X379250Y39850D02*
D03*
X349250D02*
D03*
X319250D02*
D03*
D15*
X349250Y69850D02*
D03*
D16*
X409250Y30450D02*
D03*
X289250D02*
D03*
D17*
X158750Y139700D02*
D03*
D18*
X184150D02*
D03*
X209550D02*
D03*
X234950D02*
D03*
X260350D02*
D03*
X285750D02*
D03*
X311150D02*
D03*
X336550D02*
D03*
X361950D02*
D03*
X387350D02*
D03*
X412750D02*
D03*
Y241300D02*
D03*
X387350D02*
D03*
X361950D02*
D03*
X336550D02*
D03*
X311150D02*
D03*
X285750D02*
D03*
X260350D02*
D03*
X234950D02*
D03*
X209550D02*
D03*
X184150D02*
D03*
X158750D02*
D03*
M02*
