G04*
G04 #@! TF.GenerationSoftware,Altium Limited,Altium Designer,19.1.8 (144)*
G04*
G04 Layer_Color=128*
%FSLAX44Y44*%
%MOMM*%
G71*
G01*
G75*
%ADD11C,0.1500*%
G04:AMPARAMS|DCode=26|XSize=0.65mm|YSize=1.65mm|CornerRadius=0.0488mm|HoleSize=0mm|Usage=FLASHONLY|Rotation=180.000|XOffset=0mm|YOffset=0mm|HoleType=Round|Shape=RoundedRectangle|*
%AMROUNDEDRECTD26*
21,1,0.6500,1.5525,0,0,180.0*
21,1,0.5525,1.6500,0,0,180.0*
1,1,0.0975,-0.2763,0.7763*
1,1,0.0975,0.2763,0.7763*
1,1,0.0975,0.2763,-0.7763*
1,1,0.0975,-0.2763,-0.7763*
%
%ADD26ROUNDEDRECTD26*%
%ADD27R,0.7000X0.7000*%
%ADD28R,1.5500X0.6000*%
%ADD29R,1.0500X0.9000*%
%ADD30R,1.0000X0.8000*%
%ADD31R,0.8000X1.0000*%
%ADD32R,0.8500X0.4500*%
D11*
X216233Y99260D02*
X222897D01*
X224230Y97927D01*
Y95261D01*
X222897Y93928D01*
X216233D01*
X224230Y91263D02*
Y88597D01*
Y89930D01*
X216233D01*
X217565Y91263D01*
D26*
X182880Y111760D02*
D03*
X195580D02*
D03*
X208280D02*
D03*
X220980D02*
D03*
X233680D02*
D03*
X246380D02*
D03*
X259080D02*
D03*
X182880Y55260D02*
D03*
X195580D02*
D03*
X208280D02*
D03*
X220980D02*
D03*
X233680D02*
D03*
X246380D02*
D03*
X259080D02*
D03*
D27*
X144410Y119040D02*
D03*
X158410D02*
D03*
D28*
X437720Y126340D02*
D03*
Y107340D02*
D03*
X415720Y116840D02*
D03*
D29*
X430530Y74530D02*
D03*
Y88030D02*
D03*
D30*
X372110Y114180D02*
D03*
Y99180D02*
D03*
D31*
X288410Y297180D02*
D03*
X303410D02*
D03*
D32*
X261620Y39250D02*
D03*
Y24250D02*
D03*
M02*
