G04*
G04 #@! TF.GenerationSoftware,Altium Limited,Altium Designer,19.1.8 (144)*
G04*
G04 Layer_Color=8388736*
%FSLAX44Y44*%
%MOMM*%
G71*
G01*
G75*
%ADD11C,0.1500*%
%ADD33C,0.2540*%
%ADD45C,0.1999*%
D11*
X216233Y99260D02*
X222897D01*
X224230Y97927D01*
Y95261D01*
X222897Y93928D01*
X216233D01*
X224230Y91263D02*
Y88597D01*
Y89930D01*
X216233D01*
X217565Y91263D01*
D33*
X283500Y20851D02*
X286250D01*
X303550D01*
X342250D01*
X356250D01*
X394950D01*
X412250D01*
X415000D01*
Y94549D01*
X404251Y88849D02*
Y94549D01*
X394950Y88849D02*
X404251D01*
X364251D02*
X394950D01*
X354251D02*
X364251D01*
X344249D02*
X354251D01*
X334249D02*
X344249D01*
X303550D02*
X334249D01*
X294249D02*
X303550D01*
X294249D02*
Y94549D01*
X286250D02*
X294249D01*
X283500D02*
X286250D01*
X283500Y20851D02*
Y94549D01*
X404251D02*
X412250D01*
X415000D01*
X342250Y6850D02*
X356250D01*
Y20851D01*
X342250Y6850D02*
Y20851D01*
X354251Y88849D02*
Y94851D01*
X364251D01*
Y88849D02*
Y94851D01*
X334249Y88849D02*
Y94851D01*
X344249D01*
Y88849D02*
Y94851D01*
X336550Y57150D02*
X361950D01*
Y82550D01*
X341630D02*
X361950D01*
X336550Y57150D02*
Y77470D01*
X341630Y82550D01*
X366550Y57150D02*
X391950D01*
Y82550D01*
X371630D02*
X391950D01*
X366550Y57150D02*
Y77470D01*
X371630Y82550D01*
X306550Y57150D02*
X331950D01*
Y82550D01*
X311630D02*
X331950D01*
X306550Y57150D02*
Y77470D01*
X311630Y82550D01*
X306550Y27150D02*
X331950D01*
Y52550D01*
X311630D02*
X331950D01*
X306550Y27150D02*
Y47470D01*
X311630Y52550D01*
X336550Y27150D02*
X361950D01*
Y52550D01*
X341630D02*
X361950D01*
X336550Y27150D02*
Y47470D01*
X341630Y52550D01*
D45*
X286250Y86850D02*
Y94549D01*
Y79850D02*
Y86850D01*
Y64849D02*
Y79850D01*
Y44849D02*
Y64849D01*
Y29850D02*
Y44849D01*
Y20851D02*
Y29850D01*
X412250Y86850D02*
Y94549D01*
Y79850D02*
Y86850D01*
Y64849D02*
Y79850D01*
Y44849D02*
Y64849D01*
Y29850D02*
Y44849D01*
Y20851D02*
Y29850D01*
X303550Y79850D02*
Y88849D01*
Y64849D02*
Y79850D01*
Y44849D02*
Y64849D01*
Y29850D02*
Y44849D01*
Y20851D02*
Y29850D01*
X394950Y20851D02*
Y29850D01*
Y44849D01*
Y64849D01*
Y79850D01*
Y88849D01*
X297251Y44849D02*
X303550D01*
X286250D02*
X297251D01*
Y64849D02*
X303550D01*
X286250D02*
X297251D01*
X394950Y44849D02*
X401249D01*
X412250D01*
X394950Y64849D02*
X401249D01*
X412250D01*
X297251Y44849D02*
Y49850D01*
X294249D02*
X297251D01*
X294249D02*
Y59850D01*
X297251D01*
Y64849D01*
X401249Y44849D02*
Y49850D01*
X404251D01*
Y59850D01*
X401249D02*
X404251D01*
X401249D02*
Y64849D01*
M02*
