G04*
G04 #@! TF.GenerationSoftware,Altium Limited,Altium Designer,19.1.8 (144)*
G04*
G04 Layer_Color=32896*
%FSLAX44Y44*%
%MOMM*%
G71*
G01*
G75*
%ADD10C,0.2000*%
%ADD11C,0.1500*%
%ADD41C,0.2500*%
%ADD42C,0.6000*%
G36*
X126471Y111226D02*
X126562Y111069D01*
X126772Y110768D01*
X126994Y110481D01*
X127229Y110219D01*
X127439Y110010D01*
X127530Y109905D01*
X127609Y109826D01*
X127674Y109774D01*
X127726Y109722D01*
X127753Y109696D01*
X127766Y109683D01*
X128145Y109369D01*
X128524Y109094D01*
X128904Y108846D01*
X129257Y108623D01*
X129427Y108532D01*
X129571Y108453D01*
X129702Y108388D01*
X129806Y108322D01*
X129898Y108283D01*
X129976Y108244D01*
X130016Y108231D01*
X130029Y108218D01*
Y106713D01*
X129754Y106818D01*
X129466Y106949D01*
X129205Y107079D01*
X128943Y107210D01*
X128734Y107328D01*
X128642Y107380D01*
X128564Y107420D01*
X128498Y107459D01*
X128446Y107485D01*
X128420Y107511D01*
X128407D01*
X128080Y107707D01*
X127792Y107904D01*
X127530Y108087D01*
X127321Y108244D01*
X127151Y108388D01*
X127033Y108492D01*
X126955Y108558D01*
X126929Y108584D01*
Y98721D01*
X125385D01*
Y111383D01*
X126392D01*
X126471Y111226D01*
D02*
G37*
G36*
X138152Y111540D02*
X138453Y111514D01*
X138741Y111488D01*
X139028Y111435D01*
X139290Y111370D01*
X139539Y111305D01*
X139774Y111239D01*
X139996Y111174D01*
X140193Y111095D01*
X140376Y111030D01*
X140520Y110965D01*
X140651Y110899D01*
X140755Y110847D01*
X140834Y110821D01*
X140886Y110794D01*
X140899Y110781D01*
X141148Y110638D01*
X141383Y110468D01*
X141605Y110297D01*
X141815Y110114D01*
X142011Y109931D01*
X142181Y109748D01*
X142351Y109565D01*
X142495Y109382D01*
X142626Y109212D01*
X142730Y109068D01*
X142822Y108924D01*
X142900Y108793D01*
X142966Y108702D01*
X143005Y108623D01*
X143031Y108571D01*
X143044Y108558D01*
X143175Y108283D01*
X143293Y107995D01*
X143384Y107694D01*
X143476Y107407D01*
X143541Y107106D01*
X143607Y106831D01*
X143659Y106556D01*
X143698Y106295D01*
X143724Y106046D01*
X143751Y105824D01*
X143764Y105614D01*
X143777Y105444D01*
X143790Y105314D01*
Y105209D01*
Y105143D01*
Y105117D01*
X143777Y104777D01*
X143764Y104450D01*
X143724Y104136D01*
X143685Y103822D01*
X143633Y103535D01*
X143581Y103247D01*
X143528Y102985D01*
X143463Y102750D01*
X143398Y102527D01*
X143345Y102331D01*
X143293Y102148D01*
X143240Y102004D01*
X143201Y101886D01*
X143162Y101808D01*
X143149Y101742D01*
X143136Y101729D01*
X143005Y101442D01*
X142861Y101180D01*
X142704Y100931D01*
X142547Y100696D01*
X142390Y100474D01*
X142220Y100277D01*
X142063Y100107D01*
X141906Y99950D01*
X141762Y99806D01*
X141632Y99676D01*
X141501Y99571D01*
X141396Y99493D01*
X141305Y99427D01*
X141239Y99375D01*
X141200Y99349D01*
X141187Y99336D01*
X140938Y99192D01*
X140677Y99061D01*
X140402Y98956D01*
X140127Y98865D01*
X139853Y98786D01*
X139578Y98708D01*
X139303Y98655D01*
X139055Y98616D01*
X138806Y98577D01*
X138584Y98551D01*
X138387Y98538D01*
X138217Y98525D01*
X138074Y98511D01*
X137877D01*
X137511Y98525D01*
X137171Y98564D01*
X136831Y98616D01*
X136517Y98681D01*
X136229Y98760D01*
X135954Y98852D01*
X135706Y98943D01*
X135470Y99048D01*
X135261Y99152D01*
X135078Y99244D01*
X134921Y99336D01*
X134790Y99414D01*
X134686Y99480D01*
X134607Y99545D01*
X134555Y99571D01*
X134542Y99584D01*
X134293Y99793D01*
X134071Y100029D01*
X133862Y100277D01*
X133665Y100539D01*
X133495Y100788D01*
X133338Y101049D01*
X133207Y101311D01*
X133077Y101559D01*
X132972Y101795D01*
X132880Y102017D01*
X132815Y102213D01*
X132750Y102383D01*
X132697Y102527D01*
X132671Y102632D01*
X132645Y102697D01*
Y102724D01*
X134319Y103142D01*
X134398Y102854D01*
X134476Y102580D01*
X134568Y102331D01*
X134672Y102096D01*
X134777Y101873D01*
X134895Y101677D01*
X135000Y101507D01*
X135117Y101337D01*
X135222Y101193D01*
X135313Y101075D01*
X135405Y100971D01*
X135484Y100892D01*
X135549Y100827D01*
X135601Y100774D01*
X135627Y100748D01*
X135640Y100735D01*
X135824Y100591D01*
X136020Y100474D01*
X136216Y100369D01*
X136425Y100277D01*
X136622Y100199D01*
X136818Y100133D01*
X137197Y100042D01*
X137367Y100003D01*
X137524Y99977D01*
X137668Y99964D01*
X137786Y99950D01*
X137890Y99937D01*
X138021D01*
X138230Y99950D01*
X138440Y99964D01*
X138845Y100029D01*
X139212Y100120D01*
X139369Y100173D01*
X139525Y100238D01*
X139669Y100290D01*
X139787Y100343D01*
X139905Y100395D01*
X139996Y100434D01*
X140062Y100474D01*
X140127Y100500D01*
X140153Y100526D01*
X140167D01*
X140350Y100644D01*
X140507Y100774D01*
X140808Y101049D01*
X141056Y101350D01*
X141265Y101638D01*
X141422Y101912D01*
X141475Y102017D01*
X141527Y102122D01*
X141566Y102200D01*
X141592Y102266D01*
X141618Y102305D01*
Y102318D01*
X141776Y102789D01*
X141880Y103260D01*
X141959Y103731D01*
X141998Y103966D01*
X142024Y104176D01*
X142037Y104372D01*
X142050Y104555D01*
X142063Y104725D01*
Y104856D01*
X142076Y104973D01*
Y105065D01*
Y105117D01*
Y105130D01*
X142063Y105588D01*
X142011Y106033D01*
X141945Y106439D01*
X141919Y106635D01*
X141880Y106805D01*
X141841Y106962D01*
X141802Y107119D01*
X141776Y107236D01*
X141749Y107341D01*
X141723Y107433D01*
X141697Y107498D01*
X141684Y107537D01*
Y107550D01*
X141605Y107760D01*
X141514Y107969D01*
X141305Y108335D01*
X141200Y108505D01*
X141082Y108662D01*
X140964Y108806D01*
X140860Y108924D01*
X140755Y109042D01*
X140651Y109146D01*
X140559Y109225D01*
X140480Y109290D01*
X140415Y109356D01*
X140363Y109395D01*
X140337Y109408D01*
X140323Y109421D01*
X140140Y109552D01*
X139931Y109656D01*
X139735Y109748D01*
X139525Y109826D01*
X139120Y109957D01*
X138728Y110036D01*
X138558Y110075D01*
X138387Y110088D01*
X138244Y110101D01*
X138126Y110114D01*
X138021Y110127D01*
X137877D01*
X137642Y110114D01*
X137433Y110101D01*
X137014Y110023D01*
X136831Y109984D01*
X136661Y109931D01*
X136504Y109866D01*
X136360Y109813D01*
X136229Y109748D01*
X136111Y109696D01*
X136020Y109630D01*
X135928Y109591D01*
X135876Y109552D01*
X135824Y109513D01*
X135797Y109500D01*
X135784Y109486D01*
X135627Y109356D01*
X135484Y109225D01*
X135235Y108911D01*
X135013Y108584D01*
X134829Y108257D01*
X134751Y108100D01*
X134686Y107956D01*
X134633Y107825D01*
X134581Y107707D01*
X134555Y107616D01*
X134529Y107550D01*
X134502Y107498D01*
Y107485D01*
X132854Y107878D01*
X132959Y108191D01*
X133077Y108492D01*
X133207Y108780D01*
X133351Y109029D01*
X133495Y109277D01*
X133652Y109500D01*
X133796Y109696D01*
X133953Y109879D01*
X134084Y110049D01*
X134228Y110193D01*
X134346Y110310D01*
X134450Y110402D01*
X134542Y110481D01*
X134607Y110546D01*
X134646Y110572D01*
X134659Y110585D01*
X134908Y110755D01*
X135170Y110899D01*
X135431Y111030D01*
X135706Y111148D01*
X135968Y111239D01*
X136229Y111318D01*
X136491Y111383D01*
X136739Y111435D01*
X136962Y111475D01*
X137171Y111501D01*
X137367Y111527D01*
X137524Y111540D01*
X137655Y111553D01*
X137838D01*
X138152Y111540D01*
D02*
G37*
G36*
X343674Y120599D02*
X343935Y120573D01*
X344184Y120534D01*
X344419Y120482D01*
X344642Y120416D01*
X344838Y120338D01*
X345034Y120259D01*
X345204Y120181D01*
X345361Y120102D01*
X345505Y120024D01*
X345623Y119945D01*
X345714Y119880D01*
X345793Y119827D01*
X345845Y119788D01*
X345884Y119762D01*
X345897Y119749D01*
X346081Y119579D01*
X346237Y119396D01*
X346394Y119213D01*
X346525Y119017D01*
X346643Y118820D01*
X346748Y118611D01*
X346839Y118415D01*
X346918Y118232D01*
X346983Y118048D01*
X347035Y117879D01*
X347088Y117735D01*
X347114Y117604D01*
X347153Y117486D01*
X347166Y117408D01*
X347179Y117355D01*
Y117342D01*
X345636Y117067D01*
X345597Y117277D01*
X345557Y117473D01*
X345505Y117643D01*
X345439Y117813D01*
X345387Y117970D01*
X345322Y118101D01*
X345256Y118232D01*
X345191Y118349D01*
X345126Y118441D01*
X345060Y118532D01*
X345008Y118598D01*
X344955Y118663D01*
X344916Y118703D01*
X344890Y118742D01*
X344864Y118768D01*
X344746Y118873D01*
X344628Y118964D01*
X344380Y119095D01*
X344118Y119200D01*
X343883Y119278D01*
X343674Y119317D01*
X343582Y119331D01*
X343503D01*
X343451Y119344D01*
X343190D01*
X343033Y119317D01*
X342745Y119252D01*
X342496Y119160D01*
X342287Y119069D01*
X342117Y118964D01*
X341986Y118873D01*
X341908Y118807D01*
X341881Y118794D01*
Y118781D01*
X341777Y118676D01*
X341685Y118559D01*
X341541Y118323D01*
X341437Y118088D01*
X341371Y117865D01*
X341319Y117669D01*
X341306Y117578D01*
Y117512D01*
X341293Y117447D01*
Y117408D01*
Y117381D01*
Y117368D01*
X341306Y117172D01*
X341332Y116989D01*
X341371Y116819D01*
X341410Y116662D01*
X341541Y116387D01*
X341685Y116165D01*
X341842Y115995D01*
X341960Y115877D01*
X342012Y115825D01*
X342052Y115799D01*
X342078Y115786D01*
X342091Y115772D01*
X342392Y115602D01*
X342706Y115472D01*
X343006Y115393D01*
X343281Y115328D01*
X343517Y115288D01*
X343621Y115275D01*
X343700D01*
X343778Y115262D01*
X343948D01*
X344027Y115275D01*
X344092Y115288D01*
X344118D01*
X344301Y113928D01*
X344066Y113980D01*
X343857Y114033D01*
X343661Y114059D01*
X343503Y114072D01*
X343373Y114085D01*
X343281Y114098D01*
X343203D01*
X343006Y114085D01*
X342823Y114072D01*
X342470Y113993D01*
X342169Y113876D01*
X341921Y113758D01*
X341803Y113693D01*
X341711Y113627D01*
X341633Y113562D01*
X341567Y113509D01*
X341502Y113470D01*
X341463Y113431D01*
X341450Y113418D01*
X341437Y113405D01*
X341306Y113274D01*
X341201Y113130D01*
X341110Y112986D01*
X341031Y112842D01*
X340900Y112541D01*
X340822Y112267D01*
X340770Y112018D01*
X340756Y111913D01*
X340743Y111822D01*
X340730Y111743D01*
Y111691D01*
Y111652D01*
Y111639D01*
X340743Y111430D01*
X340756Y111233D01*
X340796Y111050D01*
X340848Y110880D01*
X340966Y110553D01*
X341110Y110292D01*
X341175Y110174D01*
X341254Y110069D01*
X341319Y109978D01*
X341371Y109899D01*
X341424Y109847D01*
X341450Y109808D01*
X341476Y109781D01*
X341489Y109768D01*
X341633Y109637D01*
X341777Y109520D01*
X341934Y109428D01*
X342091Y109337D01*
X342248Y109271D01*
X342405Y109206D01*
X342692Y109114D01*
X342941Y109062D01*
X343059Y109049D01*
X343150Y109036D01*
X343229Y109023D01*
X343334D01*
X343503Y109036D01*
X343674Y109049D01*
X343974Y109114D01*
X344236Y109206D01*
X344472Y109310D01*
X344655Y109415D01*
X344785Y109507D01*
X344838Y109546D01*
X344877Y109572D01*
X344890Y109598D01*
X344903D01*
X345021Y109716D01*
X345126Y109847D01*
X345309Y110134D01*
X345466Y110449D01*
X345583Y110762D01*
X345675Y111050D01*
X345714Y111168D01*
X345740Y111286D01*
X345766Y111364D01*
X345780Y111443D01*
X345793Y111482D01*
Y111495D01*
X347336Y111286D01*
X347297Y110998D01*
X347245Y110723D01*
X347166Y110462D01*
X347075Y110213D01*
X346983Y109991D01*
X346878Y109781D01*
X346774Y109585D01*
X346656Y109415D01*
X346551Y109258D01*
X346447Y109114D01*
X346355Y108996D01*
X346264Y108905D01*
X346198Y108826D01*
X346146Y108761D01*
X346107Y108735D01*
X346093Y108722D01*
X345884Y108552D01*
X345662Y108395D01*
X345426Y108264D01*
X345204Y108159D01*
X344969Y108055D01*
X344733Y107976D01*
X344511Y107911D01*
X344301Y107858D01*
X344105Y107819D01*
X343922Y107793D01*
X343752Y107767D01*
X343608Y107754D01*
X343490D01*
X343412Y107741D01*
X343334D01*
X342993Y107754D01*
X342679Y107793D01*
X342379Y107845D01*
X342091Y107924D01*
X341816Y108002D01*
X341567Y108107D01*
X341332Y108198D01*
X341123Y108316D01*
X340940Y108421D01*
X340770Y108526D01*
X340639Y108617D01*
X340521Y108696D01*
X340416Y108774D01*
X340351Y108826D01*
X340312Y108866D01*
X340299Y108879D01*
X340089Y109101D01*
X339893Y109324D01*
X339736Y109559D01*
X339592Y109808D01*
X339475Y110043D01*
X339383Y110265D01*
X339305Y110501D01*
X339239Y110710D01*
X339187Y110906D01*
X339147Y111103D01*
X339121Y111259D01*
X339095Y111403D01*
Y111521D01*
X339082Y111600D01*
Y111665D01*
Y111678D01*
X339095Y111901D01*
X339108Y112110D01*
X339174Y112502D01*
X339278Y112855D01*
X339331Y113012D01*
X339396Y113143D01*
X339448Y113274D01*
X339514Y113392D01*
X339566Y113483D01*
X339605Y113562D01*
X339658Y113627D01*
X339684Y113666D01*
X339697Y113693D01*
X339710Y113706D01*
X339828Y113849D01*
X339959Y113993D01*
X340233Y114216D01*
X340521Y114412D01*
X340809Y114556D01*
X341057Y114661D01*
X341162Y114700D01*
X341254Y114726D01*
X341332Y114752D01*
X341384Y114765D01*
X341424Y114778D01*
X341437D01*
X341136Y114935D01*
X340874Y115118D01*
X340652Y115302D01*
X340469Y115472D01*
X340325Y115616D01*
X340220Y115746D01*
X340168Y115825D01*
X340142Y115838D01*
Y115851D01*
X339998Y116112D01*
X339880Y116361D01*
X339802Y116610D01*
X339749Y116845D01*
X339723Y117041D01*
X339710Y117120D01*
X339697Y117198D01*
Y117251D01*
Y117290D01*
Y117316D01*
Y117329D01*
X339723Y117643D01*
X339775Y117944D01*
X339841Y118219D01*
X339932Y118467D01*
X340024Y118663D01*
X340063Y118755D01*
X340089Y118820D01*
X340129Y118873D01*
X340142Y118912D01*
X340168Y118938D01*
Y118951D01*
X340351Y119226D01*
X340573Y119461D01*
X340796Y119671D01*
X341005Y119854D01*
X341201Y119985D01*
X341358Y120089D01*
X341424Y120128D01*
X341463Y120141D01*
X341489Y120168D01*
X341502D01*
X341829Y120311D01*
X342156Y120429D01*
X342483Y120508D01*
X342771Y120560D01*
X342902Y120573D01*
X343019Y120586D01*
X343137Y120599D01*
X343229Y120612D01*
X343399D01*
X343674Y120599D01*
D02*
G37*
G36*
X359410Y107950D02*
X357736D01*
Y113549D01*
X355590D01*
X355394Y113536D01*
X355237Y113523D01*
X355106D01*
X355015Y113509D01*
X354936Y113496D01*
X354897Y113483D01*
X354884D01*
X354740Y113444D01*
X354596Y113392D01*
X354465Y113339D01*
X354361Y113274D01*
X354256Y113222D01*
X354191Y113182D01*
X354138Y113156D01*
X354125Y113143D01*
X353981Y113039D01*
X353838Y112908D01*
X353694Y112764D01*
X353563Y112620D01*
X353445Y112502D01*
X353354Y112397D01*
X353301Y112319D01*
X353275Y112306D01*
Y112293D01*
X353092Y112044D01*
X352883Y111770D01*
X352686Y111482D01*
X352490Y111207D01*
X352333Y110959D01*
X352255Y110841D01*
X352189Y110749D01*
X352137Y110671D01*
X352098Y110618D01*
X352085Y110579D01*
X352072Y110566D01*
X350410Y107950D01*
X348330D01*
X350502Y111377D01*
X350750Y111730D01*
X350999Y112057D01*
X351221Y112345D01*
X351444Y112594D01*
X351627Y112790D01*
X351692Y112868D01*
X351758Y112934D01*
X351810Y112986D01*
X351849Y113025D01*
X351875Y113039D01*
X351888Y113052D01*
X352032Y113169D01*
X352189Y113274D01*
X352359Y113379D01*
X352516Y113483D01*
X352660Y113562D01*
X352791Y113627D01*
X352869Y113666D01*
X352883Y113680D01*
X352896D01*
X352569Y113732D01*
X352255Y113797D01*
X351967Y113876D01*
X351705Y113967D01*
X351470Y114059D01*
X351247Y114164D01*
X351051Y114255D01*
X350868Y114360D01*
X350711Y114451D01*
X350580Y114543D01*
X350476Y114621D01*
X350371Y114700D01*
X350306Y114752D01*
X350253Y114804D01*
X350227Y114831D01*
X350214Y114844D01*
X350057Y115027D01*
X349926Y115210D01*
X349809Y115393D01*
X349704Y115589D01*
X349625Y115772D01*
X349547Y115969D01*
X349442Y116322D01*
X349416Y116479D01*
X349390Y116636D01*
X349364Y116767D01*
X349351Y116884D01*
X349338Y116976D01*
Y117041D01*
Y117094D01*
Y117107D01*
X349364Y117486D01*
X349416Y117852D01*
X349508Y118166D01*
X349599Y118454D01*
X349652Y118572D01*
X349704Y118689D01*
X349743Y118781D01*
X349795Y118860D01*
X349822Y118925D01*
X349848Y118977D01*
X349874Y119003D01*
Y119017D01*
X350083Y119317D01*
X350319Y119566D01*
X350541Y119775D01*
X350764Y119945D01*
X350973Y120063D01*
X351051Y120115D01*
X351130Y120155D01*
X351195Y120181D01*
X351234Y120207D01*
X351260Y120220D01*
X351274D01*
X351444Y120285D01*
X351627Y120338D01*
X352032Y120416D01*
X352464Y120482D01*
X352869Y120521D01*
X353066Y120534D01*
X353249Y120547D01*
X353406D01*
X353550Y120560D01*
X359410D01*
Y107950D01*
D02*
G37*
G36*
X445103Y86309D02*
X445417Y86283D01*
X445718Y86231D01*
X445993Y86179D01*
X446242Y86100D01*
X446477Y86021D01*
X446699Y85943D01*
X446896Y85851D01*
X447066Y85760D01*
X447223Y85681D01*
X447353Y85603D01*
X447458Y85525D01*
X447537Y85472D01*
X447602Y85420D01*
X447641Y85394D01*
X447654Y85381D01*
X447850Y85197D01*
X448021Y85001D01*
X448164Y84792D01*
X448295Y84570D01*
X448413Y84347D01*
X448518Y84112D01*
X448596Y83889D01*
X448675Y83680D01*
X448727Y83471D01*
X448779Y83288D01*
X448819Y83118D01*
X448845Y82961D01*
X448858Y82843D01*
X448871Y82751D01*
X448884Y82699D01*
Y82673D01*
X447288Y82503D01*
X447275Y82725D01*
X447262Y82921D01*
X447223Y83118D01*
X447183Y83301D01*
X447131Y83458D01*
X447079Y83615D01*
X447013Y83758D01*
X446948Y83876D01*
X446896Y83994D01*
X446830Y84086D01*
X446778Y84164D01*
X446726Y84242D01*
X446686Y84295D01*
X446647Y84334D01*
X446634Y84347D01*
X446621Y84360D01*
X446490Y84478D01*
X446346Y84583D01*
X446202Y84674D01*
X446045Y84753D01*
X445745Y84870D01*
X445457Y84962D01*
X445208Y85001D01*
X445103Y85014D01*
X444999Y85027D01*
X444920Y85041D01*
X444816D01*
X444619Y85027D01*
X444436Y85014D01*
X444096Y84936D01*
X443809Y84844D01*
X443560Y84726D01*
X443442Y84661D01*
X443351Y84609D01*
X443272Y84543D01*
X443207Y84504D01*
X443154Y84465D01*
X443115Y84426D01*
X443102Y84413D01*
X443089Y84399D01*
X442971Y84282D01*
X442867Y84151D01*
X442775Y84020D01*
X442697Y83889D01*
X442579Y83641D01*
X442500Y83392D01*
X442461Y83183D01*
X442448Y83091D01*
X442435Y83013D01*
X442422Y82948D01*
Y82895D01*
Y82869D01*
Y82856D01*
X442435Y82686D01*
X442448Y82516D01*
X442540Y82189D01*
X442657Y81875D01*
X442788Y81587D01*
X442854Y81456D01*
X442919Y81339D01*
X442984Y81247D01*
X443037Y81155D01*
X443089Y81077D01*
X443128Y81025D01*
X443141Y80998D01*
X443154Y80985D01*
X443311Y80789D01*
X443481Y80593D01*
X443678Y80371D01*
X443900Y80161D01*
X444358Y79717D01*
X444816Y79285D01*
X445038Y79089D01*
X445247Y78906D01*
X445444Y78735D01*
X445614Y78591D01*
X445745Y78474D01*
X445849Y78395D01*
X445914Y78330D01*
X445941Y78317D01*
X446176Y78121D01*
X446412Y77924D01*
X446621Y77741D01*
X446817Y77558D01*
X447000Y77388D01*
X447157Y77231D01*
X447314Y77087D01*
X447445Y76956D01*
X447576Y76839D01*
X447681Y76721D01*
X447759Y76629D01*
X447837Y76551D01*
X447890Y76486D01*
X447929Y76446D01*
X447955Y76420D01*
X447968Y76407D01*
X448217Y76093D01*
X448426Y75792D01*
X448609Y75518D01*
X448753Y75256D01*
X448858Y75047D01*
X448910Y74955D01*
X448936Y74876D01*
X448962Y74811D01*
X448989Y74772D01*
X449002Y74746D01*
Y74733D01*
X449067Y74536D01*
X449106Y74340D01*
X449146Y74170D01*
X449159Y74000D01*
X449172Y73856D01*
Y73752D01*
Y73686D01*
Y73660D01*
X440813D01*
Y75151D01*
X447026D01*
X446817Y75452D01*
X446699Y75596D01*
X446595Y75727D01*
X446516Y75831D01*
X446438Y75910D01*
X446385Y75962D01*
X446372Y75975D01*
X446281Y76067D01*
X446176Y76158D01*
X446058Y76276D01*
X445914Y76407D01*
X445627Y76669D01*
X445313Y76930D01*
X445025Y77179D01*
X444907Y77283D01*
X444790Y77375D01*
X444698Y77467D01*
X444633Y77519D01*
X444580Y77558D01*
X444567Y77571D01*
X444266Y77833D01*
X443979Y78068D01*
X443730Y78304D01*
X443481Y78513D01*
X443272Y78709D01*
X443076Y78892D01*
X442893Y79062D01*
X442736Y79206D01*
X442605Y79337D01*
X442487Y79455D01*
X442396Y79559D01*
X442317Y79638D01*
X442252Y79703D01*
X442213Y79743D01*
X442186Y79769D01*
X442173Y79782D01*
X441925Y80083D01*
X441702Y80371D01*
X441532Y80632D01*
X441389Y80855D01*
X441271Y81051D01*
X441231Y81129D01*
X441205Y81195D01*
X441179Y81247D01*
X441153Y81299D01*
X441140Y81312D01*
Y81326D01*
X441035Y81600D01*
X440957Y81862D01*
X440905Y82123D01*
X440865Y82346D01*
X440839Y82542D01*
Y82620D01*
X440826Y82686D01*
Y82738D01*
Y82778D01*
Y82804D01*
Y82817D01*
X440839Y83091D01*
X440865Y83353D01*
X440931Y83602D01*
X440996Y83837D01*
X441075Y84059D01*
X441166Y84269D01*
X441258Y84452D01*
X441362Y84622D01*
X441467Y84779D01*
X441559Y84923D01*
X441650Y85041D01*
X441729Y85132D01*
X441794Y85211D01*
X441846Y85276D01*
X441886Y85302D01*
X441899Y85315D01*
X442108Y85498D01*
X442330Y85642D01*
X442553Y85786D01*
X442801Y85904D01*
X443037Y85995D01*
X443272Y86074D01*
X443508Y86139D01*
X443730Y86192D01*
X443952Y86244D01*
X444149Y86270D01*
X444319Y86296D01*
X444476Y86309D01*
X444606Y86322D01*
X444776D01*
X445103Y86309D01*
D02*
G37*
G36*
X461010Y73660D02*
X459336D01*
Y79259D01*
X457190D01*
X456994Y79246D01*
X456837Y79233D01*
X456706D01*
X456615Y79219D01*
X456536Y79206D01*
X456497Y79193D01*
X456484D01*
X456340Y79154D01*
X456196Y79102D01*
X456065Y79049D01*
X455961Y78984D01*
X455856Y78932D01*
X455791Y78892D01*
X455738Y78866D01*
X455725Y78853D01*
X455581Y78748D01*
X455438Y78618D01*
X455294Y78474D01*
X455163Y78330D01*
X455045Y78212D01*
X454953Y78108D01*
X454901Y78029D01*
X454875Y78016D01*
Y78003D01*
X454692Y77754D01*
X454483Y77480D01*
X454286Y77192D01*
X454090Y76917D01*
X453933Y76669D01*
X453855Y76551D01*
X453789Y76459D01*
X453737Y76381D01*
X453698Y76329D01*
X453685Y76289D01*
X453672Y76276D01*
X452010Y73660D01*
X449930D01*
X452102Y77087D01*
X452350Y77440D01*
X452599Y77767D01*
X452821Y78055D01*
X453044Y78304D01*
X453227Y78500D01*
X453292Y78579D01*
X453358Y78644D01*
X453410Y78696D01*
X453449Y78735D01*
X453475Y78748D01*
X453488Y78762D01*
X453632Y78879D01*
X453789Y78984D01*
X453959Y79089D01*
X454116Y79193D01*
X454260Y79272D01*
X454391Y79337D01*
X454469Y79376D01*
X454483Y79390D01*
X454496D01*
X454169Y79442D01*
X453855Y79507D01*
X453567Y79586D01*
X453305Y79677D01*
X453070Y79769D01*
X452848Y79873D01*
X452651Y79965D01*
X452468Y80070D01*
X452311Y80161D01*
X452180Y80253D01*
X452076Y80331D01*
X451971Y80410D01*
X451906Y80462D01*
X451853Y80514D01*
X451827Y80541D01*
X451814Y80554D01*
X451657Y80737D01*
X451526Y80920D01*
X451409Y81103D01*
X451304Y81299D01*
X451225Y81482D01*
X451147Y81679D01*
X451042Y82032D01*
X451016Y82189D01*
X450990Y82346D01*
X450964Y82477D01*
X450951Y82594D01*
X450938Y82686D01*
Y82751D01*
Y82804D01*
Y82817D01*
X450964Y83196D01*
X451016Y83562D01*
X451108Y83876D01*
X451199Y84164D01*
X451252Y84282D01*
X451304Y84399D01*
X451343Y84491D01*
X451395Y84570D01*
X451422Y84635D01*
X451448Y84687D01*
X451474Y84713D01*
Y84726D01*
X451683Y85027D01*
X451919Y85276D01*
X452141Y85485D01*
X452364Y85655D01*
X452573Y85773D01*
X452651Y85825D01*
X452730Y85865D01*
X452795Y85891D01*
X452834Y85917D01*
X452860Y85930D01*
X452874D01*
X453044Y85995D01*
X453227Y86048D01*
X453632Y86126D01*
X454064Y86192D01*
X454469Y86231D01*
X454666Y86244D01*
X454849Y86257D01*
X455006D01*
X455150Y86270D01*
X461010D01*
Y73660D01*
D02*
G37*
G36*
X290531Y286825D02*
X290623Y286668D01*
X290832Y286368D01*
X291054Y286080D01*
X291290Y285818D01*
X291499Y285609D01*
X291590Y285504D01*
X291669Y285426D01*
X291734Y285373D01*
X291787Y285321D01*
X291813Y285295D01*
X291826Y285282D01*
X292205Y284968D01*
X292585Y284693D01*
X292964Y284445D01*
X293317Y284222D01*
X293487Y284131D01*
X293631Y284052D01*
X293762Y283987D01*
X293867Y283922D01*
X293958Y283882D01*
X294037Y283843D01*
X294076Y283830D01*
X294089Y283817D01*
Y282313D01*
X293814Y282417D01*
X293526Y282548D01*
X293265Y282679D01*
X293003Y282810D01*
X292794Y282927D01*
X292702Y282980D01*
X292624Y283019D01*
X292558Y283058D01*
X292506Y283084D01*
X292480Y283110D01*
X292467D01*
X292140Y283307D01*
X291852Y283503D01*
X291590Y283686D01*
X291381Y283843D01*
X291211Y283987D01*
X291093Y284091D01*
X291015Y284157D01*
X290989Y284183D01*
Y274320D01*
X289445D01*
Y286982D01*
X290452D01*
X290531Y286825D01*
D02*
G37*
G36*
X307340Y274320D02*
X305666D01*
Y279919D01*
X303520D01*
X303324Y279906D01*
X303167Y279893D01*
X303036D01*
X302945Y279879D01*
X302866Y279866D01*
X302827Y279853D01*
X302814D01*
X302670Y279814D01*
X302526Y279762D01*
X302395Y279709D01*
X302291Y279644D01*
X302186Y279592D01*
X302121Y279552D01*
X302068Y279526D01*
X302055Y279513D01*
X301911Y279408D01*
X301768Y279278D01*
X301624Y279134D01*
X301493Y278990D01*
X301375Y278872D01*
X301283Y278768D01*
X301231Y278689D01*
X301205Y278676D01*
Y278663D01*
X301022Y278414D01*
X300813Y278140D01*
X300616Y277852D01*
X300420Y277577D01*
X300263Y277329D01*
X300185Y277211D01*
X300119Y277119D01*
X300067Y277041D01*
X300028Y276989D01*
X300015Y276949D01*
X300002Y276936D01*
X298340Y274320D01*
X296260D01*
X298432Y277747D01*
X298680Y278100D01*
X298929Y278427D01*
X299151Y278715D01*
X299374Y278964D01*
X299557Y279160D01*
X299622Y279238D01*
X299688Y279304D01*
X299740Y279356D01*
X299779Y279395D01*
X299805Y279408D01*
X299818Y279422D01*
X299962Y279539D01*
X300119Y279644D01*
X300289Y279749D01*
X300446Y279853D01*
X300590Y279932D01*
X300721Y279997D01*
X300800Y280036D01*
X300813Y280049D01*
X300826D01*
X300499Y280102D01*
X300185Y280167D01*
X299897Y280246D01*
X299635Y280337D01*
X299400Y280429D01*
X299177Y280534D01*
X298981Y280625D01*
X298798Y280730D01*
X298641Y280821D01*
X298510Y280913D01*
X298406Y280991D01*
X298301Y281070D01*
X298236Y281122D01*
X298183Y281174D01*
X298157Y281201D01*
X298144Y281214D01*
X297987Y281397D01*
X297856Y281580D01*
X297738Y281763D01*
X297634Y281959D01*
X297555Y282142D01*
X297477Y282339D01*
X297372Y282692D01*
X297346Y282849D01*
X297320Y283006D01*
X297294Y283137D01*
X297281Y283254D01*
X297268Y283346D01*
Y283411D01*
Y283464D01*
Y283477D01*
X297294Y283856D01*
X297346Y284222D01*
X297438Y284536D01*
X297529Y284824D01*
X297582Y284942D01*
X297634Y285060D01*
X297673Y285151D01*
X297726Y285230D01*
X297752Y285295D01*
X297778Y285347D01*
X297804Y285373D01*
Y285387D01*
X298013Y285687D01*
X298249Y285936D01*
X298471Y286145D01*
X298694Y286315D01*
X298903Y286433D01*
X298981Y286485D01*
X299060Y286525D01*
X299125Y286551D01*
X299164Y286577D01*
X299191Y286590D01*
X299204D01*
X299374Y286655D01*
X299557Y286708D01*
X299962Y286786D01*
X300394Y286852D01*
X300800Y286891D01*
X300996Y286904D01*
X301179Y286917D01*
X301336D01*
X301480Y286930D01*
X307340D01*
Y274320D01*
D02*
G37*
G36*
X232503Y31699D02*
X232817Y31673D01*
X233118Y31621D01*
X233393Y31569D01*
X233641Y31490D01*
X233877Y31411D01*
X234099Y31333D01*
X234295Y31242D01*
X234466Y31150D01*
X234622Y31071D01*
X234753Y30993D01*
X234858Y30914D01*
X234936Y30862D01*
X235002Y30810D01*
X235041Y30784D01*
X235054Y30771D01*
X235250Y30587D01*
X235420Y30391D01*
X235564Y30182D01*
X235695Y29960D01*
X235813Y29737D01*
X235917Y29502D01*
X235996Y29279D01*
X236075Y29070D01*
X236127Y28861D01*
X236179Y28678D01*
X236218Y28508D01*
X236245Y28351D01*
X236258Y28233D01*
X236271Y28141D01*
X236284Y28089D01*
Y28063D01*
X234688Y27893D01*
X234675Y28115D01*
X234662Y28311D01*
X234622Y28508D01*
X234583Y28691D01*
X234531Y28848D01*
X234479Y29005D01*
X234413Y29148D01*
X234348Y29266D01*
X234295Y29384D01*
X234230Y29476D01*
X234178Y29554D01*
X234125Y29632D01*
X234086Y29685D01*
X234047Y29724D01*
X234034Y29737D01*
X234021Y29750D01*
X233890Y29868D01*
X233746Y29973D01*
X233602Y30064D01*
X233445Y30143D01*
X233144Y30260D01*
X232857Y30352D01*
X232608Y30391D01*
X232503Y30404D01*
X232399Y30417D01*
X232320Y30431D01*
X232216D01*
X232019Y30417D01*
X231836Y30404D01*
X231496Y30326D01*
X231208Y30234D01*
X230960Y30117D01*
X230842Y30051D01*
X230751Y29999D01*
X230672Y29933D01*
X230607Y29894D01*
X230554Y29855D01*
X230515Y29816D01*
X230502Y29803D01*
X230489Y29790D01*
X230371Y29672D01*
X230266Y29541D01*
X230175Y29410D01*
X230096Y29279D01*
X229979Y29031D01*
X229900Y28782D01*
X229861Y28573D01*
X229848Y28481D01*
X229835Y28403D01*
X229822Y28338D01*
Y28285D01*
Y28259D01*
Y28246D01*
X229835Y28076D01*
X229848Y27906D01*
X229939Y27579D01*
X230057Y27265D01*
X230188Y26977D01*
X230253Y26846D01*
X230319Y26728D01*
X230384Y26637D01*
X230436Y26545D01*
X230489Y26467D01*
X230528Y26415D01*
X230541Y26388D01*
X230554Y26375D01*
X230711Y26179D01*
X230881Y25983D01*
X231077Y25761D01*
X231300Y25551D01*
X231758Y25106D01*
X232216Y24675D01*
X232438Y24479D01*
X232647Y24295D01*
X232843Y24125D01*
X233013Y23981D01*
X233144Y23864D01*
X233249Y23785D01*
X233314Y23720D01*
X233340Y23707D01*
X233576Y23511D01*
X233811Y23314D01*
X234021Y23131D01*
X234217Y22948D01*
X234400Y22778D01*
X234557Y22621D01*
X234714Y22477D01*
X234845Y22346D01*
X234976Y22229D01*
X235080Y22111D01*
X235159Y22019D01*
X235237Y21941D01*
X235290Y21876D01*
X235329Y21836D01*
X235355Y21810D01*
X235368Y21797D01*
X235617Y21483D01*
X235826Y21182D01*
X236009Y20907D01*
X236153Y20646D01*
X236258Y20437D01*
X236310Y20345D01*
X236336Y20266D01*
X236362Y20201D01*
X236388Y20162D01*
X236402Y20136D01*
Y20123D01*
X236467Y19926D01*
X236506Y19730D01*
X236545Y19560D01*
X236558Y19390D01*
X236572Y19246D01*
Y19142D01*
Y19076D01*
Y19050D01*
X228213D01*
Y20541D01*
X234426D01*
X234217Y20842D01*
X234099Y20986D01*
X233995Y21117D01*
X233916Y21221D01*
X233838Y21300D01*
X233785Y21352D01*
X233772Y21365D01*
X233681Y21457D01*
X233576Y21549D01*
X233458Y21666D01*
X233314Y21797D01*
X233027Y22059D01*
X232713Y22320D01*
X232425Y22569D01*
X232307Y22673D01*
X232189Y22765D01*
X232098Y22857D01*
X232032Y22909D01*
X231980Y22948D01*
X231967Y22961D01*
X231666Y23223D01*
X231378Y23458D01*
X231130Y23694D01*
X230881Y23903D01*
X230672Y24099D01*
X230476Y24282D01*
X230293Y24453D01*
X230136Y24596D01*
X230005Y24727D01*
X229887Y24845D01*
X229796Y24950D01*
X229717Y25028D01*
X229652Y25093D01*
X229612Y25133D01*
X229586Y25159D01*
X229573Y25172D01*
X229325Y25473D01*
X229102Y25761D01*
X228932Y26022D01*
X228788Y26244D01*
X228671Y26441D01*
X228631Y26519D01*
X228605Y26585D01*
X228579Y26637D01*
X228553Y26689D01*
X228540Y26702D01*
Y26716D01*
X228435Y26990D01*
X228357Y27252D01*
X228304Y27513D01*
X228265Y27736D01*
X228239Y27932D01*
Y28010D01*
X228226Y28076D01*
Y28128D01*
Y28168D01*
Y28194D01*
Y28207D01*
X228239Y28481D01*
X228265Y28743D01*
X228330Y28992D01*
X228396Y29227D01*
X228474Y29449D01*
X228566Y29659D01*
X228657Y29842D01*
X228762Y30012D01*
X228867Y30169D01*
X228958Y30313D01*
X229050Y30431D01*
X229128Y30522D01*
X229194Y30601D01*
X229246Y30666D01*
X229285Y30692D01*
X229298Y30705D01*
X229508Y30888D01*
X229730Y31032D01*
X229953Y31176D01*
X230201Y31294D01*
X230436Y31385D01*
X230672Y31464D01*
X230907Y31529D01*
X231130Y31582D01*
X231352Y31634D01*
X231548Y31660D01*
X231719Y31686D01*
X231875Y31699D01*
X232006Y31712D01*
X232176D01*
X232503Y31699D01*
D02*
G37*
G36*
X243282Y31869D02*
X243583Y31843D01*
X243871Y31817D01*
X244158Y31765D01*
X244420Y31699D01*
X244669Y31634D01*
X244904Y31569D01*
X245126Y31503D01*
X245323Y31425D01*
X245506Y31359D01*
X245650Y31294D01*
X245781Y31228D01*
X245885Y31176D01*
X245964Y31150D01*
X246016Y31124D01*
X246029Y31111D01*
X246278Y30967D01*
X246513Y30797D01*
X246735Y30627D01*
X246945Y30444D01*
X247141Y30260D01*
X247311Y30077D01*
X247481Y29894D01*
X247625Y29711D01*
X247756Y29541D01*
X247860Y29397D01*
X247952Y29253D01*
X248030Y29122D01*
X248096Y29031D01*
X248135Y28952D01*
X248161Y28900D01*
X248174Y28887D01*
X248305Y28612D01*
X248423Y28324D01*
X248514Y28024D01*
X248606Y27736D01*
X248671Y27435D01*
X248737Y27160D01*
X248789Y26885D01*
X248828Y26624D01*
X248855Y26375D01*
X248881Y26153D01*
X248894Y25944D01*
X248907Y25774D01*
X248920Y25643D01*
Y25538D01*
Y25473D01*
Y25447D01*
X248907Y25106D01*
X248894Y24780D01*
X248855Y24465D01*
X248815Y24152D01*
X248763Y23864D01*
X248711Y23576D01*
X248658Y23314D01*
X248593Y23079D01*
X248528Y22857D01*
X248475Y22660D01*
X248423Y22477D01*
X248371Y22333D01*
X248331Y22216D01*
X248292Y22137D01*
X248279Y22072D01*
X248266Y22059D01*
X248135Y21771D01*
X247991Y21509D01*
X247834Y21261D01*
X247677Y21025D01*
X247520Y20803D01*
X247350Y20607D01*
X247193Y20437D01*
X247036Y20280D01*
X246892Y20136D01*
X246762Y20005D01*
X246631Y19900D01*
X246526Y19822D01*
X246435Y19756D01*
X246369Y19704D01*
X246330Y19678D01*
X246317Y19665D01*
X246068Y19521D01*
X245807Y19390D01*
X245532Y19286D01*
X245257Y19194D01*
X244983Y19115D01*
X244708Y19037D01*
X244433Y18985D01*
X244185Y18945D01*
X243936Y18906D01*
X243714Y18880D01*
X243517Y18867D01*
X243347Y18854D01*
X243204Y18841D01*
X243007D01*
X242641Y18854D01*
X242301Y18893D01*
X241961Y18945D01*
X241647Y19011D01*
X241359Y19089D01*
X241084Y19181D01*
X240836Y19272D01*
X240600Y19377D01*
X240391Y19482D01*
X240208Y19573D01*
X240051Y19665D01*
X239920Y19743D01*
X239816Y19809D01*
X239737Y19874D01*
X239685Y19900D01*
X239672Y19913D01*
X239423Y20123D01*
X239201Y20358D01*
X238992Y20607D01*
X238795Y20868D01*
X238625Y21117D01*
X238468Y21378D01*
X238337Y21640D01*
X238207Y21889D01*
X238102Y22124D01*
X238010Y22346D01*
X237945Y22543D01*
X237880Y22713D01*
X237827Y22857D01*
X237801Y22961D01*
X237775Y23027D01*
Y23053D01*
X239449Y23471D01*
X239528Y23184D01*
X239606Y22909D01*
X239698Y22660D01*
X239802Y22425D01*
X239907Y22202D01*
X240025Y22006D01*
X240130Y21836D01*
X240247Y21666D01*
X240352Y21522D01*
X240443Y21405D01*
X240535Y21300D01*
X240614Y21221D01*
X240679Y21156D01*
X240731Y21104D01*
X240758Y21078D01*
X240770Y21065D01*
X240954Y20921D01*
X241150Y20803D01*
X241346Y20698D01*
X241555Y20607D01*
X241752Y20528D01*
X241948Y20463D01*
X242327Y20371D01*
X242497Y20332D01*
X242654Y20306D01*
X242798Y20293D01*
X242916Y20280D01*
X243020Y20266D01*
X243151D01*
X243361Y20280D01*
X243570Y20293D01*
X243975Y20358D01*
X244342Y20450D01*
X244499Y20502D01*
X244656Y20567D01*
X244799Y20620D01*
X244917Y20672D01*
X245035Y20724D01*
X245126Y20764D01*
X245192Y20803D01*
X245257Y20829D01*
X245284Y20855D01*
X245297D01*
X245480Y20973D01*
X245637Y21104D01*
X245938Y21378D01*
X246186Y21679D01*
X246395Y21967D01*
X246552Y22242D01*
X246605Y22346D01*
X246657Y22451D01*
X246696Y22529D01*
X246722Y22595D01*
X246749Y22634D01*
Y22647D01*
X246905Y23118D01*
X247010Y23589D01*
X247089Y24060D01*
X247128Y24295D01*
X247154Y24505D01*
X247167Y24701D01*
X247180Y24884D01*
X247193Y25054D01*
Y25185D01*
X247206Y25303D01*
Y25394D01*
Y25447D01*
Y25460D01*
X247193Y25917D01*
X247141Y26362D01*
X247076Y26768D01*
X247049Y26964D01*
X247010Y27134D01*
X246971Y27291D01*
X246932Y27448D01*
X246905Y27566D01*
X246879Y27670D01*
X246853Y27762D01*
X246827Y27827D01*
X246814Y27867D01*
Y27880D01*
X246735Y28089D01*
X246644Y28298D01*
X246435Y28665D01*
X246330Y28835D01*
X246212Y28992D01*
X246094Y29135D01*
X245990Y29253D01*
X245885Y29371D01*
X245781Y29476D01*
X245689Y29554D01*
X245611Y29619D01*
X245545Y29685D01*
X245493Y29724D01*
X245467Y29737D01*
X245453Y29750D01*
X245270Y29881D01*
X245061Y29986D01*
X244865Y30077D01*
X244656Y30156D01*
X244250Y30287D01*
X243858Y30365D01*
X243688Y30404D01*
X243517Y30417D01*
X243374Y30431D01*
X243256Y30444D01*
X243151Y30457D01*
X243007D01*
X242772Y30444D01*
X242563Y30431D01*
X242144Y30352D01*
X241961Y30313D01*
X241791Y30260D01*
X241634Y30195D01*
X241490Y30143D01*
X241359Y30077D01*
X241241Y30025D01*
X241150Y29960D01*
X241058Y29920D01*
X241006Y29881D01*
X240954Y29842D01*
X240928Y29829D01*
X240914Y29816D01*
X240758Y29685D01*
X240614Y29554D01*
X240365Y29240D01*
X240143Y28913D01*
X239960Y28586D01*
X239881Y28429D01*
X239816Y28285D01*
X239763Y28154D01*
X239711Y28037D01*
X239685Y27945D01*
X239659Y27880D01*
X239632Y27827D01*
Y27814D01*
X237984Y28207D01*
X238089Y28521D01*
X238207Y28821D01*
X238337Y29109D01*
X238481Y29358D01*
X238625Y29606D01*
X238782Y29829D01*
X238926Y30025D01*
X239083Y30208D01*
X239214Y30378D01*
X239358Y30522D01*
X239475Y30640D01*
X239580Y30731D01*
X239672Y30810D01*
X239737Y30875D01*
X239776Y30901D01*
X239790Y30914D01*
X240038Y31084D01*
X240300Y31228D01*
X240561Y31359D01*
X240836Y31477D01*
X241098Y31569D01*
X241359Y31647D01*
X241621Y31712D01*
X241869Y31765D01*
X242092Y31804D01*
X242301Y31830D01*
X242497Y31856D01*
X242654Y31869D01*
X242785Y31883D01*
X242968D01*
X243282Y31869D01*
D02*
G37*
%LPC*%
G36*
X357736Y119173D02*
X353511D01*
X353275Y119147D01*
X353053Y119121D01*
X352843Y119082D01*
X352660Y119043D01*
X352490Y118990D01*
X352346Y118938D01*
X352202Y118886D01*
X352085Y118820D01*
X351980Y118768D01*
X351902Y118716D01*
X351823Y118676D01*
X351771Y118637D01*
X351731Y118611D01*
X351718Y118598D01*
X351705Y118585D01*
X351588Y118480D01*
X351483Y118363D01*
X351404Y118232D01*
X351326Y118114D01*
X351208Y117865D01*
X351130Y117630D01*
X351091Y117421D01*
X351064Y117329D01*
Y117264D01*
X351051Y117198D01*
Y117146D01*
Y117120D01*
Y117107D01*
X351064Y116884D01*
X351104Y116675D01*
X351156Y116492D01*
X351221Y116322D01*
X351287Y116178D01*
X351339Y116073D01*
X351378Y116008D01*
X351391Y115982D01*
X351535Y115799D01*
X351692Y115642D01*
X351849Y115511D01*
X352006Y115406D01*
X352150Y115328D01*
X352268Y115262D01*
X352346Y115236D01*
X352359Y115223D01*
X352372D01*
X352634Y115145D01*
X352922Y115092D01*
X353223Y115040D01*
X353511Y115014D01*
X353772Y115001D01*
X353877D01*
X353968Y114988D01*
X357736D01*
Y119173D01*
D02*
G37*
G36*
X459336Y84883D02*
X455111D01*
X454875Y84857D01*
X454653Y84831D01*
X454443Y84792D01*
X454260Y84753D01*
X454090Y84700D01*
X453946Y84648D01*
X453802Y84596D01*
X453685Y84530D01*
X453580Y84478D01*
X453502Y84426D01*
X453423Y84386D01*
X453371Y84347D01*
X453331Y84321D01*
X453318Y84308D01*
X453305Y84295D01*
X453188Y84190D01*
X453083Y84073D01*
X453004Y83942D01*
X452926Y83824D01*
X452808Y83575D01*
X452730Y83340D01*
X452691Y83131D01*
X452664Y83039D01*
Y82974D01*
X452651Y82908D01*
Y82856D01*
Y82830D01*
Y82817D01*
X452664Y82594D01*
X452704Y82385D01*
X452756Y82202D01*
X452821Y82032D01*
X452887Y81888D01*
X452939Y81783D01*
X452978Y81718D01*
X452991Y81692D01*
X453135Y81509D01*
X453292Y81352D01*
X453449Y81221D01*
X453606Y81116D01*
X453750Y81038D01*
X453868Y80972D01*
X453946Y80946D01*
X453959Y80933D01*
X453972D01*
X454234Y80855D01*
X454522Y80802D01*
X454823Y80750D01*
X455111Y80724D01*
X455372Y80711D01*
X455477D01*
X455568Y80698D01*
X459336D01*
Y84883D01*
D02*
G37*
G36*
X305666Y285543D02*
X301441D01*
X301205Y285517D01*
X300983Y285491D01*
X300773Y285452D01*
X300590Y285413D01*
X300420Y285360D01*
X300276Y285308D01*
X300132Y285256D01*
X300015Y285190D01*
X299910Y285138D01*
X299832Y285086D01*
X299753Y285046D01*
X299701Y285007D01*
X299662Y284981D01*
X299648Y284968D01*
X299635Y284955D01*
X299518Y284850D01*
X299413Y284732D01*
X299334Y284602D01*
X299256Y284484D01*
X299138Y284235D01*
X299060Y284000D01*
X299021Y283791D01*
X298994Y283699D01*
Y283634D01*
X298981Y283568D01*
Y283516D01*
Y283490D01*
Y283477D01*
X298994Y283254D01*
X299034Y283045D01*
X299086Y282862D01*
X299151Y282692D01*
X299217Y282548D01*
X299269Y282443D01*
X299308Y282378D01*
X299321Y282352D01*
X299465Y282169D01*
X299622Y282012D01*
X299779Y281881D01*
X299936Y281776D01*
X300080Y281698D01*
X300198Y281632D01*
X300276Y281606D01*
X300289Y281593D01*
X300302D01*
X300564Y281514D01*
X300852Y281462D01*
X301153Y281410D01*
X301441Y281384D01*
X301702Y281371D01*
X301807D01*
X301898Y281358D01*
X305666D01*
Y285543D01*
D02*
G37*
%LPD*%
D10*
X177230Y99510D02*
X264730D01*
X177230Y67510D02*
X264730D01*
X177230D02*
Y99510D01*
X264730Y67510D02*
Y99510D01*
X429970Y131840D02*
X445470D01*
X258370Y30250D02*
Y33250D01*
X264870Y30250D02*
Y33250D01*
D11*
X216233Y99260D02*
X222897D01*
X224230Y97927D01*
Y95261D01*
X222897Y93928D01*
X216233D01*
X224230Y91263D02*
Y88597D01*
Y89930D01*
X216233D01*
X217565Y91263D01*
D41*
X175380Y111760D02*
G03*
X175380Y111760I-1250J0D01*
G01*
D42*
X189980Y89510D02*
G03*
X189980Y89510I-3000J0D01*
G01*
M02*
