G04*
G04 #@! TF.GenerationSoftware,Altium Limited,Altium Designer,19.1.8 (144)*
G04*
G04 Layer_Physical_Order=2*
G04 Layer_Color=16711680*
%FSLAX44Y44*%
%MOMM*%
G71*
G01*
G75*
%ADD11C,0.1500*%
%ADD19C,3.1750*%
%ADD20R,1.5830X1.5830*%
%ADD21C,1.6349*%
%ADD22C,1.5301*%
%ADD23C,1.0201*%
%ADD24R,1.2200X1.2200*%
%ADD25C,1.2200*%
G04:AMPARAMS|DCode=26|XSize=0.65mm|YSize=1.65mm|CornerRadius=0.0488mm|HoleSize=0mm|Usage=FLASHONLY|Rotation=180.000|XOffset=0mm|YOffset=0mm|HoleType=Round|Shape=RoundedRectangle|*
%AMROUNDEDRECTD26*
21,1,0.6500,1.5525,0,0,180.0*
21,1,0.5525,1.6500,0,0,180.0*
1,1,0.0975,-0.2763,0.7763*
1,1,0.0975,0.2763,0.7763*
1,1,0.0975,0.2763,-0.7763*
1,1,0.0975,-0.2763,-0.7763*
%
%ADD26ROUNDEDRECTD26*%
%ADD27R,0.7000X0.7000*%
%ADD28R,1.5500X0.6000*%
%ADD29R,1.0500X0.9000*%
%ADD30R,1.0000X0.8000*%
%ADD31R,0.8000X1.0000*%
%ADD32R,0.8500X0.4500*%
%ADD33C,0.2540*%
G36*
X497790Y2590D02*
X76250D01*
Y314910D01*
X497790D01*
Y2590D01*
D02*
G37*
%LPC*%
G36*
X293680Y303450D02*
X283140D01*
Y299770D01*
X208280D01*
X207289Y299573D01*
X206449Y299011D01*
X182319Y274881D01*
X181757Y274041D01*
X181560Y273050D01*
Y248204D01*
X180433Y247738D01*
X178894Y246556D01*
X177712Y245017D01*
X176970Y243224D01*
X176716Y241300D01*
X176970Y239376D01*
X177712Y237583D01*
X178894Y236044D01*
X180433Y234862D01*
X182226Y234120D01*
X184150Y233866D01*
X186074Y234120D01*
X187867Y234862D01*
X189406Y236044D01*
X190588Y237583D01*
X191330Y239376D01*
X191583Y241300D01*
X191330Y243224D01*
X190588Y245017D01*
X189406Y246556D01*
X187867Y247738D01*
X186740Y248204D01*
Y271977D01*
X209353Y294590D01*
X283140D01*
Y290910D01*
X293680D01*
Y303450D01*
D02*
G37*
G36*
X469900Y304129D02*
Y287020D01*
X487009D01*
X486779Y289360D01*
X485726Y292831D01*
X484016Y296030D01*
X481714Y298834D01*
X478910Y301136D01*
X475711Y302846D01*
X472240Y303899D01*
X469900Y304129D01*
D02*
G37*
G36*
X467360D02*
X465020Y303899D01*
X461549Y302846D01*
X458350Y301136D01*
X455546Y298834D01*
X453244Y296030D01*
X451534Y292831D01*
X450481Y289360D01*
X450251Y287020D01*
X467360D01*
Y304129D01*
D02*
G37*
G36*
X106680D02*
Y287020D01*
X123789D01*
X123559Y289360D01*
X122506Y292831D01*
X120796Y296030D01*
X118494Y298834D01*
X115690Y301136D01*
X112491Y302846D01*
X109020Y303899D01*
X106680Y304129D01*
D02*
G37*
G36*
X104140D02*
X101800Y303899D01*
X98329Y302846D01*
X95130Y301136D01*
X92326Y298834D01*
X90024Y296030D01*
X88314Y292831D01*
X87261Y289360D01*
X87031Y287020D01*
X104140D01*
Y304129D01*
D02*
G37*
G36*
X487009Y284480D02*
X469900D01*
Y267371D01*
X472240Y267601D01*
X475711Y268654D01*
X478910Y270364D01*
X481714Y272666D01*
X484016Y275470D01*
X485726Y278669D01*
X486779Y282140D01*
X487009Y284480D01*
D02*
G37*
G36*
X467360D02*
X450251D01*
X450481Y282140D01*
X451534Y278669D01*
X453244Y275470D01*
X455546Y272666D01*
X458350Y270364D01*
X461549Y268654D01*
X465020Y267601D01*
X467360Y267371D01*
Y284480D01*
D02*
G37*
G36*
X123789D02*
X106680D01*
Y267371D01*
X109020Y267601D01*
X112491Y268654D01*
X115690Y270364D01*
X118494Y272666D01*
X120796Y275470D01*
X122506Y278669D01*
X123559Y282140D01*
X123789Y284480D01*
D02*
G37*
G36*
X104140D02*
X87031D01*
X87261Y282140D01*
X88314Y278669D01*
X90024Y275470D01*
X92326Y272666D01*
X95130Y270364D01*
X98329Y268654D01*
X101800Y267601D01*
X104140Y267371D01*
Y284480D01*
D02*
G37*
G36*
X414020Y249847D02*
Y242570D01*
X421297D01*
X421167Y243556D01*
X420297Y245657D01*
X418912Y247462D01*
X417107Y248847D01*
X415005Y249718D01*
X414020Y249847D01*
D02*
G37*
G36*
X388620D02*
Y242570D01*
X395897D01*
X395768Y243556D01*
X394897Y245657D01*
X393512Y247462D01*
X391707Y248847D01*
X389605Y249718D01*
X388620Y249847D01*
D02*
G37*
G36*
X363220D02*
Y242570D01*
X370497D01*
X370368Y243556D01*
X369497Y245657D01*
X368112Y247462D01*
X366307Y248847D01*
X364205Y249718D01*
X363220Y249847D01*
D02*
G37*
G36*
X337820D02*
Y242570D01*
X345097D01*
X344967Y243556D01*
X344097Y245657D01*
X342712Y247462D01*
X340907Y248847D01*
X338805Y249718D01*
X337820Y249847D01*
D02*
G37*
G36*
X312420D02*
Y242570D01*
X319697D01*
X319568Y243556D01*
X318697Y245657D01*
X317312Y247462D01*
X315507Y248847D01*
X313405Y249718D01*
X312420Y249847D01*
D02*
G37*
G36*
X287020D02*
Y242570D01*
X294297D01*
X294167Y243556D01*
X293297Y245657D01*
X291912Y247462D01*
X290107Y248847D01*
X288005Y249718D01*
X287020Y249847D01*
D02*
G37*
G36*
X261620D02*
Y242570D01*
X268897D01*
X268768Y243556D01*
X267897Y245657D01*
X266512Y247462D01*
X264707Y248847D01*
X262605Y249718D01*
X261620Y249847D01*
D02*
G37*
G36*
X236220D02*
Y242570D01*
X243497D01*
X243368Y243556D01*
X242497Y245657D01*
X241112Y247462D01*
X239307Y248847D01*
X237205Y249718D01*
X236220Y249847D01*
D02*
G37*
G36*
X210820D02*
Y242570D01*
X218097D01*
X217967Y243556D01*
X217097Y245657D01*
X215712Y247462D01*
X213907Y248847D01*
X211805Y249718D01*
X210820Y249847D01*
D02*
G37*
G36*
X160020D02*
Y242570D01*
X167297D01*
X167167Y243556D01*
X166297Y245657D01*
X164912Y247462D01*
X163107Y248847D01*
X161005Y249718D01*
X160020Y249847D01*
D02*
G37*
G36*
X259080D02*
X258095Y249718D01*
X255993Y248847D01*
X254188Y247462D01*
X252803Y245657D01*
X251932Y243556D01*
X251803Y242570D01*
X259080D01*
Y249847D01*
D02*
G37*
G36*
X360680D02*
X359695Y249718D01*
X357593Y248847D01*
X355788Y247462D01*
X354403Y245657D01*
X353532Y243556D01*
X353403Y242570D01*
X360680D01*
Y249847D01*
D02*
G37*
G36*
X335280D02*
X334295Y249718D01*
X332193Y248847D01*
X330388Y247462D01*
X329003Y245657D01*
X328132Y243556D01*
X328003Y242570D01*
X335280D01*
Y249847D01*
D02*
G37*
G36*
X284480D02*
X283494Y249718D01*
X281393Y248847D01*
X279588Y247462D01*
X278203Y245657D01*
X277332Y243556D01*
X277203Y242570D01*
X284480D01*
Y249847D01*
D02*
G37*
G36*
X233680D02*
X232694Y249718D01*
X230593Y248847D01*
X228788Y247462D01*
X227403Y245657D01*
X226532Y243556D01*
X226403Y242570D01*
X233680D01*
Y249847D01*
D02*
G37*
G36*
X386080D02*
X385094Y249718D01*
X382993Y248847D01*
X381188Y247462D01*
X379803Y245657D01*
X378932Y243556D01*
X378803Y242570D01*
X386080D01*
Y249847D01*
D02*
G37*
G36*
X309880D02*
X308895Y249718D01*
X306793Y248847D01*
X304988Y247462D01*
X303603Y245657D01*
X302732Y243556D01*
X302603Y242570D01*
X309880D01*
Y249847D01*
D02*
G37*
G36*
X157480D02*
X156495Y249718D01*
X154393Y248847D01*
X152588Y247462D01*
X151203Y245657D01*
X150332Y243556D01*
X150203Y242570D01*
X157480D01*
Y249847D01*
D02*
G37*
G36*
X208280D02*
X207295Y249718D01*
X205193Y248847D01*
X203388Y247462D01*
X202003Y245657D01*
X201132Y243556D01*
X201003Y242570D01*
X208280D01*
Y249847D01*
D02*
G37*
G36*
X411480D02*
X410494Y249718D01*
X408393Y248847D01*
X406588Y247462D01*
X405203Y245657D01*
X404332Y243556D01*
X404203Y242570D01*
X411480D01*
Y249847D01*
D02*
G37*
G36*
X421297Y240030D02*
X414020D01*
Y232753D01*
X415005Y232882D01*
X417107Y233753D01*
X418912Y235138D01*
X420297Y236943D01*
X421167Y239044D01*
X421297Y240030D01*
D02*
G37*
G36*
X319697D02*
X312420D01*
Y232753D01*
X313405Y232882D01*
X315507Y233753D01*
X317312Y235138D01*
X318697Y236943D01*
X319568Y239044D01*
X319697Y240030D01*
D02*
G37*
G36*
X218097D02*
X210820D01*
Y232753D01*
X211805Y232882D01*
X213907Y233753D01*
X215712Y235138D01*
X217097Y236943D01*
X217967Y239044D01*
X218097Y240030D01*
D02*
G37*
G36*
X167297D02*
X160020D01*
Y232753D01*
X161005Y232882D01*
X163107Y233753D01*
X164912Y235138D01*
X166297Y236943D01*
X167167Y239044D01*
X167297Y240030D01*
D02*
G37*
G36*
X395897D02*
X388620D01*
Y232753D01*
X389605Y232882D01*
X391707Y233753D01*
X393512Y235138D01*
X394897Y236943D01*
X395768Y239044D01*
X395897Y240030D01*
D02*
G37*
G36*
X345097D02*
X337820D01*
Y232753D01*
X338805Y232882D01*
X340907Y233753D01*
X342712Y235138D01*
X344097Y236943D01*
X344967Y239044D01*
X345097Y240030D01*
D02*
G37*
G36*
X294297D02*
X287020D01*
Y232753D01*
X288005Y232882D01*
X290107Y233753D01*
X291912Y235138D01*
X293297Y236943D01*
X294167Y239044D01*
X294297Y240030D01*
D02*
G37*
G36*
X243497D02*
X236220D01*
Y232753D01*
X237205Y232882D01*
X239307Y233753D01*
X241112Y235138D01*
X242497Y236943D01*
X243368Y239044D01*
X243497Y240030D01*
D02*
G37*
G36*
X370497D02*
X363220D01*
Y232753D01*
X364205Y232882D01*
X366307Y233753D01*
X368112Y235138D01*
X369497Y236943D01*
X370368Y239044D01*
X370497Y240030D01*
D02*
G37*
G36*
X268897D02*
X261620D01*
Y232753D01*
X262605Y232882D01*
X264707Y233753D01*
X266512Y235138D01*
X267897Y236943D01*
X268768Y239044D01*
X268897Y240030D01*
D02*
G37*
G36*
X360680D02*
X353403D01*
X353532Y239044D01*
X354403Y236943D01*
X355788Y235138D01*
X357593Y233753D01*
X359695Y232882D01*
X360680Y232753D01*
Y240030D01*
D02*
G37*
G36*
X259080D02*
X251803D01*
X251932Y239044D01*
X252803Y236943D01*
X254188Y235138D01*
X255993Y233753D01*
X258095Y232882D01*
X259080Y232753D01*
Y240030D01*
D02*
G37*
G36*
X386080D02*
X378803D01*
X378932Y239044D01*
X379803Y236943D01*
X381188Y235138D01*
X382993Y233753D01*
X385094Y232882D01*
X386080Y232753D01*
Y240030D01*
D02*
G37*
G36*
X335280D02*
X328003D01*
X328132Y239044D01*
X329003Y236943D01*
X330388Y235138D01*
X332193Y233753D01*
X334295Y232882D01*
X335280Y232753D01*
Y240030D01*
D02*
G37*
G36*
X284480D02*
X277203D01*
X277332Y239044D01*
X278203Y236943D01*
X279588Y235138D01*
X281393Y233753D01*
X283494Y232882D01*
X284480Y232753D01*
Y240030D01*
D02*
G37*
G36*
X233680D02*
X226403D01*
X226532Y239044D01*
X227403Y236943D01*
X228788Y235138D01*
X230593Y233753D01*
X232694Y232882D01*
X233680Y232753D01*
Y240030D01*
D02*
G37*
G36*
X208280D02*
X201003D01*
X201132Y239044D01*
X202003Y236943D01*
X203388Y235138D01*
X205193Y233753D01*
X207295Y232882D01*
X208280Y232753D01*
Y240030D01*
D02*
G37*
G36*
X157480D02*
X150203D01*
X150332Y239044D01*
X151203Y236943D01*
X152588Y235138D01*
X154393Y233753D01*
X156495Y232882D01*
X157480Y232753D01*
Y240030D01*
D02*
G37*
G36*
X411480D02*
X404203D01*
X404332Y239044D01*
X405203Y236943D01*
X406588Y235138D01*
X408393Y233753D01*
X410494Y232882D01*
X411480Y232753D01*
Y240030D01*
D02*
G37*
G36*
X309880D02*
X302603D01*
X302732Y239044D01*
X303603Y236943D01*
X304988Y235138D01*
X306793Y233753D01*
X308895Y232882D01*
X309880Y232753D01*
Y240030D01*
D02*
G37*
G36*
X414020Y148247D02*
Y140970D01*
X421297D01*
X421167Y141955D01*
X420297Y144057D01*
X418912Y145862D01*
X417107Y147247D01*
X415005Y148118D01*
X414020Y148247D01*
D02*
G37*
G36*
X388620D02*
Y140970D01*
X395897D01*
X395768Y141955D01*
X394897Y144057D01*
X393512Y145862D01*
X391707Y147247D01*
X389605Y148118D01*
X388620Y148247D01*
D02*
G37*
G36*
X363220D02*
Y140970D01*
X370497D01*
X370368Y141955D01*
X369497Y144057D01*
X368112Y145862D01*
X366307Y147247D01*
X364205Y148118D01*
X363220Y148247D01*
D02*
G37*
G36*
X337820D02*
Y140970D01*
X345097D01*
X344967Y141955D01*
X344097Y144057D01*
X342712Y145862D01*
X340907Y147247D01*
X338805Y148118D01*
X337820Y148247D01*
D02*
G37*
G36*
X312420D02*
Y140970D01*
X319697D01*
X319568Y141955D01*
X318697Y144057D01*
X317312Y145862D01*
X315507Y147247D01*
X313405Y148118D01*
X312420Y148247D01*
D02*
G37*
G36*
X287020D02*
Y140970D01*
X294297D01*
X294167Y141955D01*
X293297Y144057D01*
X291912Y145862D01*
X290107Y147247D01*
X288005Y148118D01*
X287020Y148247D01*
D02*
G37*
G36*
X360680D02*
X359695Y148118D01*
X357593Y147247D01*
X355788Y145862D01*
X354403Y144057D01*
X353532Y141955D01*
X353403Y140970D01*
X360680D01*
Y148247D01*
D02*
G37*
G36*
X411480D02*
X410494Y148118D01*
X408393Y147247D01*
X406588Y145862D01*
X405203Y144057D01*
X404332Y141955D01*
X404203Y140970D01*
X411480D01*
Y148247D01*
D02*
G37*
G36*
X284480D02*
X283494Y148118D01*
X281393Y147247D01*
X279588Y145862D01*
X278203Y144057D01*
X277332Y141955D01*
X277203Y140970D01*
X284480D01*
Y148247D01*
D02*
G37*
G36*
X386080D02*
X385094Y148118D01*
X382993Y147247D01*
X381188Y145862D01*
X379803Y144057D01*
X378932Y141955D01*
X378803Y140970D01*
X386080D01*
Y148247D01*
D02*
G37*
G36*
X335280D02*
X334295Y148118D01*
X332193Y147247D01*
X330388Y145862D01*
X329003Y144057D01*
X328132Y141955D01*
X328003Y140970D01*
X335280D01*
Y148247D01*
D02*
G37*
G36*
X309880D02*
X308895Y148118D01*
X306793Y147247D01*
X304988Y145862D01*
X303603Y144057D01*
X302732Y141955D01*
X302603Y140970D01*
X309880D01*
Y148247D01*
D02*
G37*
G36*
X260350Y147134D02*
X258426Y146880D01*
X256633Y146138D01*
X255094Y144956D01*
X253912Y143417D01*
X253170Y141624D01*
X252916Y139700D01*
X253170Y137776D01*
X253636Y136649D01*
X244549Y127561D01*
X243987Y126721D01*
X243790Y125730D01*
Y121314D01*
X243617D01*
X242932Y121178D01*
X242350Y120790D01*
X241962Y120208D01*
X241826Y119522D01*
Y104073D01*
X241654Y103921D01*
X240636Y103466D01*
X238234Y105868D01*
Y119522D01*
X238098Y120208D01*
X237710Y120790D01*
X237128Y121178D01*
X236443Y121314D01*
X230917D01*
X230232Y121178D01*
X229650Y120790D01*
X229262Y120208D01*
X229126Y119522D01*
Y103997D01*
X229262Y103312D01*
X229650Y102730D01*
X230232Y102342D01*
X230917Y102206D01*
X234572D01*
X239728Y97050D01*
X239202Y95780D01*
X222923D01*
X217686Y101016D01*
X218141Y102034D01*
X218293Y102206D01*
X223743D01*
X224428Y102342D01*
X225010Y102730D01*
X225398Y103312D01*
X225534Y103997D01*
Y119522D01*
X225398Y120208D01*
X225010Y120790D01*
X224428Y121178D01*
X223743Y121314D01*
X223570D01*
Y124657D01*
X231899Y132986D01*
X233026Y132520D01*
X234950Y132266D01*
X236874Y132520D01*
X238667Y133262D01*
X240206Y134444D01*
X241388Y135983D01*
X242130Y137776D01*
X242383Y139700D01*
X242130Y141624D01*
X241388Y143417D01*
X240206Y144956D01*
X238667Y146138D01*
X236874Y146880D01*
X234950Y147134D01*
X233026Y146880D01*
X231233Y146138D01*
X229694Y144956D01*
X228512Y143417D01*
X227770Y141624D01*
X227516Y139700D01*
X227770Y137776D01*
X228237Y136649D01*
X219149Y127561D01*
X218587Y126721D01*
X218390Y125730D01*
Y121314D01*
X218218D01*
X217532Y121178D01*
X216950Y120790D01*
X216562Y120208D01*
X216426Y119522D01*
Y104073D01*
X216254Y103921D01*
X215236Y103466D01*
X212834Y105868D01*
Y119522D01*
X212698Y120208D01*
X212310Y120790D01*
X211728Y121178D01*
X211042Y121314D01*
X205518D01*
X204832Y121178D01*
X204250Y120790D01*
X203862Y120208D01*
X203726Y119522D01*
Y103997D01*
X203862Y103312D01*
X204250Y102730D01*
X204832Y102342D01*
X205518Y102206D01*
X209172D01*
X218802Y92576D01*
X218316Y91402D01*
X201900D01*
X192286Y101016D01*
X192741Y102034D01*
X192893Y102206D01*
X198342D01*
X199028Y102342D01*
X199610Y102730D01*
X199998Y103312D01*
X200134Y103997D01*
Y119522D01*
X199998Y120208D01*
X199610Y120790D01*
X199028Y121178D01*
X198342Y121314D01*
X198170D01*
Y124657D01*
X206499Y132986D01*
X207626Y132520D01*
X209550Y132266D01*
X211474Y132520D01*
X213267Y133262D01*
X214806Y134444D01*
X215988Y135983D01*
X216730Y137776D01*
X216984Y139700D01*
X216730Y141624D01*
X215988Y143417D01*
X214806Y144956D01*
X213267Y146138D01*
X211474Y146880D01*
X209550Y147134D01*
X207626Y146880D01*
X205833Y146138D01*
X204294Y144956D01*
X203112Y143417D01*
X202370Y141624D01*
X202116Y139700D01*
X202370Y137776D01*
X202836Y136649D01*
X193749Y127561D01*
X193187Y126721D01*
X192990Y125730D01*
Y121314D01*
X192817D01*
X192132Y121178D01*
X191550Y120790D01*
X191162Y120208D01*
X191026Y119522D01*
Y104073D01*
X190854Y103921D01*
X189836Y103466D01*
X187434Y105868D01*
Y119522D01*
X187298Y120208D01*
X186910Y120790D01*
X186328Y121178D01*
X185643Y121314D01*
X180117D01*
X179432Y121178D01*
X178850Y120790D01*
X178462Y120208D01*
X178326Y119522D01*
Y103997D01*
X178462Y103312D01*
X178850Y102730D01*
X179432Y102342D01*
X180117Y102206D01*
X183772D01*
X198996Y86981D01*
X199837Y86420D01*
X200828Y86223D01*
X283495D01*
X312413Y57304D01*
X313253Y56743D01*
X313994Y56596D01*
X320115Y50475D01*
X319553Y49336D01*
X319250Y49376D01*
X316785Y49051D01*
X314487Y48100D01*
X312514Y46586D01*
X311000Y44613D01*
X310049Y42316D01*
X310026Y42140D01*
X267140D01*
Y42770D01*
X256100D01*
Y41840D01*
X194963D01*
X192286Y44516D01*
X192741Y45534D01*
X192893Y45706D01*
X198342D01*
X199028Y45842D01*
X199610Y46230D01*
X199998Y46812D01*
X200134Y47498D01*
Y63022D01*
X199998Y63708D01*
X199610Y64290D01*
X199028Y64678D01*
X198342Y64814D01*
X192817D01*
X192132Y64678D01*
X191550Y64290D01*
X191162Y63708D01*
X191026Y63022D01*
Y47573D01*
X190854Y47421D01*
X189836Y46966D01*
X187434Y49368D01*
Y63022D01*
X187298Y63708D01*
X186910Y64290D01*
X186328Y64678D01*
X185643Y64814D01*
X180117D01*
X179432Y64678D01*
X178850Y64290D01*
X178462Y63708D01*
X178326Y63022D01*
Y57850D01*
X167753D01*
X160720Y64883D01*
Y114270D01*
X163180D01*
Y123810D01*
X161000D01*
Y132330D01*
X166120D01*
Y137110D01*
X177245D01*
X177712Y135983D01*
X178894Y134444D01*
X180433Y133262D01*
X182226Y132520D01*
X184150Y132266D01*
X186074Y132520D01*
X187867Y133262D01*
X189406Y134444D01*
X190588Y135983D01*
X191330Y137776D01*
X191583Y139700D01*
X191330Y141624D01*
X190588Y143417D01*
X189406Y144956D01*
X187867Y146138D01*
X186074Y146880D01*
X184150Y147134D01*
X182226Y146880D01*
X180433Y146138D01*
X178894Y144956D01*
X177712Y143417D01*
X177245Y142290D01*
X166120D01*
Y147070D01*
X151380D01*
Y132330D01*
X155820D01*
Y123810D01*
X153640D01*
Y114270D01*
X155540D01*
Y63810D01*
X155737Y62819D01*
X156299Y61979D01*
X164849Y53429D01*
X165689Y52867D01*
X166680Y52670D01*
X178326D01*
Y47498D01*
X178462Y46812D01*
X178850Y46230D01*
X179432Y45842D01*
X180117Y45706D01*
X183772D01*
X192059Y37419D01*
X192899Y36857D01*
X193890Y36660D01*
X256100D01*
Y35730D01*
X267140D01*
Y36960D01*
X285242D01*
X285627Y35690D01*
X284657Y35042D01*
X283249Y32935D01*
X282755Y30450D01*
X283249Y27964D01*
X284657Y25857D01*
X286765Y24449D01*
X289250Y23954D01*
X291736Y24449D01*
X293843Y25857D01*
X295251Y27964D01*
X295745Y30450D01*
X295251Y32935D01*
X293843Y35042D01*
X292873Y35690D01*
X293258Y36960D01*
X310225D01*
X311000Y35087D01*
X312514Y33114D01*
X314487Y31600D01*
X316785Y30649D01*
X319250Y30324D01*
X321716Y30649D01*
X323889Y31549D01*
X339489Y15949D01*
X340329Y15387D01*
X341320Y15190D01*
X385775D01*
X386766Y15387D01*
X387607Y15949D01*
X401567Y29910D01*
X402945Y29492D01*
X403249Y27964D01*
X404657Y25857D01*
X406764Y24449D01*
X409250Y23954D01*
X411735Y24449D01*
X413843Y25857D01*
X415251Y27964D01*
X415745Y30450D01*
X415251Y32935D01*
X413843Y35042D01*
X411735Y36450D01*
X410208Y36754D01*
X409790Y38132D01*
X432361Y60703D01*
X432923Y61544D01*
X433120Y62535D01*
Y68760D01*
X437050D01*
Y80300D01*
X424010D01*
Y68760D01*
X427940D01*
Y63607D01*
X384703Y20370D01*
X342393D01*
X328588Y34174D01*
X328607Y34235D01*
X330043Y34594D01*
X337333Y27304D01*
X338173Y26743D01*
X339164Y26546D01*
X354805D01*
X355797Y26743D01*
X356637Y27304D01*
X366592Y37260D01*
X370100D01*
X371000Y35087D01*
X372514Y33114D01*
X374487Y31600D01*
X376785Y30649D01*
X379250Y30324D01*
X381715Y30649D01*
X384013Y31600D01*
X385986Y33114D01*
X387500Y35087D01*
X388451Y37385D01*
X388776Y39850D01*
X388451Y42316D01*
X387500Y44613D01*
X385986Y46586D01*
X384013Y48100D01*
X381715Y49051D01*
X379250Y49376D01*
X376785Y49051D01*
X374487Y48100D01*
X372514Y46586D01*
X371000Y44613D01*
X370100Y42440D01*
X365520D01*
X364529Y42243D01*
X363689Y41681D01*
X359784Y37777D01*
X358581Y38370D01*
X358776Y39850D01*
X358451Y42316D01*
X357551Y44489D01*
X369868Y56805D01*
X388445D01*
X389436Y57003D01*
X390276Y57564D01*
X418153Y85440D01*
X424010D01*
Y82260D01*
X437050D01*
Y93800D01*
X436350D01*
Y103070D01*
X446740D01*
Y111610D01*
X428700D01*
Y103070D01*
X431170D01*
Y93800D01*
X424010D01*
Y90620D01*
X417080D01*
X416089Y90423D01*
X415249Y89861D01*
X390878Y65490D01*
X389705Y65977D01*
Y68580D01*
X368795D01*
Y61985D01*
X367804Y61788D01*
X366964Y61226D01*
X353889Y48151D01*
X351716Y49051D01*
X349250Y49376D01*
X346785Y49051D01*
X344487Y48100D01*
X342514Y46586D01*
X341000Y44613D01*
X340049Y42316D01*
X339724Y39850D01*
X340049Y37385D01*
X341000Y35087D01*
X342514Y33114D01*
X342757Y32928D01*
X342349Y31725D01*
X340237D01*
X332554Y39408D01*
Y44288D01*
X332357Y45279D01*
X331796Y46119D01*
X318702Y59213D01*
X318962Y59741D01*
X319371Y60340D01*
X321716Y60649D01*
X324013Y61600D01*
X325986Y63114D01*
X327500Y65087D01*
X328451Y67385D01*
X328776Y69850D01*
X328736Y70153D01*
X329875Y70715D01*
X332571Y68019D01*
X333411Y67457D01*
X334402Y67260D01*
X340667D01*
X341458Y65351D01*
X342888Y63488D01*
X344751Y62058D01*
X346921Y61159D01*
X349250Y60853D01*
X351579Y61159D01*
X353749Y62058D01*
X355612Y63488D01*
X357042Y65351D01*
X357941Y67521D01*
X358247Y69850D01*
X357941Y72179D01*
X357042Y74349D01*
X355612Y76212D01*
X353749Y77642D01*
X351579Y78541D01*
X349250Y78847D01*
X346921Y78541D01*
X344751Y77642D01*
X342888Y76212D01*
X341458Y74349D01*
X340667Y72440D01*
X335475D01*
X307868Y100047D01*
X307028Y100609D01*
X306037Y100806D01*
X264762D01*
X264511Y101149D01*
X264200Y102076D01*
X264694Y102816D01*
X264929Y103997D01*
Y110490D01*
X259080D01*
X253231D01*
Y103997D01*
X253466Y102816D01*
X253960Y102076D01*
X253649Y101149D01*
X253398Y100806D01*
X244383D01*
X244294Y100936D01*
X244963Y102206D01*
X249142D01*
X249828Y102342D01*
X250410Y102730D01*
X250798Y103312D01*
X250934Y103997D01*
Y119522D01*
X250798Y120208D01*
X250410Y120790D01*
X249828Y121178D01*
X249142Y121314D01*
X248970D01*
Y124657D01*
X257299Y132986D01*
X258426Y132520D01*
X260350Y132266D01*
X262274Y132520D01*
X264067Y133262D01*
X265606Y134444D01*
X266788Y135983D01*
X267530Y137776D01*
X267784Y139700D01*
X267530Y141624D01*
X266788Y143417D01*
X265606Y144956D01*
X264067Y146138D01*
X262274Y146880D01*
X260350Y147134D01*
D02*
G37*
G36*
X395897Y138430D02*
X388620D01*
Y131153D01*
X389605Y131282D01*
X391707Y132153D01*
X393512Y133538D01*
X394897Y135343D01*
X395768Y137444D01*
X395897Y138430D01*
D02*
G37*
G36*
X345097D02*
X337820D01*
Y131153D01*
X338805Y131282D01*
X340907Y132153D01*
X342712Y133538D01*
X344097Y135343D01*
X344967Y137444D01*
X345097Y138430D01*
D02*
G37*
G36*
X319697D02*
X312420D01*
Y131153D01*
X313405Y131282D01*
X315507Y132153D01*
X317312Y133538D01*
X318697Y135343D01*
X319568Y137444D01*
X319697Y138430D01*
D02*
G37*
G36*
X294297D02*
X287020D01*
Y131153D01*
X288005Y131282D01*
X290107Y132153D01*
X291912Y133538D01*
X293297Y135343D01*
X294167Y137444D01*
X294297Y138430D01*
D02*
G37*
G36*
X421297D02*
X414020D01*
Y131153D01*
X415005Y131282D01*
X417107Y132153D01*
X418912Y133538D01*
X420297Y135343D01*
X421167Y137444D01*
X421297Y138430D01*
D02*
G37*
G36*
X370497D02*
X363220D01*
Y131153D01*
X364205Y131282D01*
X366307Y132153D01*
X368112Y133538D01*
X369497Y135343D01*
X370368Y137444D01*
X370497Y138430D01*
D02*
G37*
G36*
X360680D02*
X353403D01*
X353532Y137444D01*
X354403Y135343D01*
X355788Y133538D01*
X357593Y132153D01*
X359695Y131282D01*
X360680Y131153D01*
Y138430D01*
D02*
G37*
G36*
X411480D02*
X404203D01*
X404332Y137444D01*
X405203Y135343D01*
X406588Y133538D01*
X408393Y132153D01*
X410494Y131282D01*
X411480Y131153D01*
Y138430D01*
D02*
G37*
G36*
X386080D02*
X378803D01*
X378932Y137444D01*
X379803Y135343D01*
X381188Y133538D01*
X382993Y132153D01*
X385094Y131282D01*
X386080Y131153D01*
Y138430D01*
D02*
G37*
G36*
X335280D02*
X328003D01*
X328132Y137444D01*
X329003Y135343D01*
X330388Y133538D01*
X332193Y132153D01*
X334295Y131282D01*
X335280Y131153D01*
Y138430D01*
D02*
G37*
G36*
X284480D02*
X277203D01*
X277332Y137444D01*
X278203Y135343D01*
X279588Y133538D01*
X281393Y132153D01*
X283494Y131282D01*
X284480Y131153D01*
Y138430D01*
D02*
G37*
G36*
X309880D02*
X302603D01*
X302732Y137444D01*
X303603Y135343D01*
X304988Y133538D01*
X306793Y132153D01*
X308895Y131282D01*
X309880Y131153D01*
Y138430D01*
D02*
G37*
G36*
X308680Y303450D02*
X298140D01*
Y290910D01*
X308680D01*
Y294590D01*
X400247D01*
X450800Y244037D01*
Y133300D01*
X447709Y130209D01*
X446740Y130610D01*
Y130610D01*
X428700D01*
Y122070D01*
X446740D01*
Y123750D01*
X447503D01*
X448493Y123947D01*
X449334Y124509D01*
X455221Y130396D01*
X455783Y131236D01*
X455980Y132227D01*
Y245110D01*
X455783Y246101D01*
X455221Y246941D01*
X403151Y299011D01*
X402311Y299573D01*
X401320Y299770D01*
X308680D01*
Y303450D01*
D02*
G37*
G36*
X150450Y125080D02*
X145680D01*
Y120310D01*
X150450D01*
Y125080D01*
D02*
G37*
G36*
X143140D02*
X138370D01*
Y120310D01*
X143140D01*
Y125080D01*
D02*
G37*
G36*
X424740Y121110D02*
X406700D01*
Y119430D01*
X378380D01*
Y119450D01*
X365840D01*
Y108910D01*
X378380D01*
Y114250D01*
X406700D01*
Y112570D01*
X424740D01*
Y121110D01*
D02*
G37*
G36*
X261842Y122609D02*
X260350D01*
Y113030D01*
X264929D01*
Y119522D01*
X264694Y120704D01*
X264025Y121705D01*
X263024Y122374D01*
X261842Y122609D01*
D02*
G37*
G36*
X257810D02*
X256318D01*
X255136Y122374D01*
X254135Y121705D01*
X253466Y120704D01*
X253231Y119522D01*
Y113030D01*
X257810D01*
Y122609D01*
D02*
G37*
G36*
X150450Y117770D02*
X145680D01*
Y113000D01*
X150450D01*
Y117770D01*
D02*
G37*
G36*
X143140D02*
X138370D01*
Y113000D01*
X143140D01*
Y117770D01*
D02*
G37*
G36*
X379650Y105720D02*
X373380D01*
Y100450D01*
X379650D01*
Y105720D01*
D02*
G37*
G36*
X370840D02*
X364570D01*
Y100450D01*
X370840D01*
Y105720D01*
D02*
G37*
G36*
X379650Y97910D02*
X373380D01*
Y92640D01*
X379650D01*
Y97910D01*
D02*
G37*
G36*
X370840D02*
X364570D01*
Y92640D01*
X370840D01*
Y97910D01*
D02*
G37*
G36*
X389705Y80305D02*
X380520D01*
Y71120D01*
X389705D01*
Y80305D01*
D02*
G37*
G36*
X377980D02*
X368795D01*
Y71120D01*
X377980D01*
Y80305D01*
D02*
G37*
G36*
X249142Y66109D02*
X247650D01*
Y56530D01*
X252229D01*
Y63022D01*
X251994Y64204D01*
X251325Y65205D01*
X250324Y65874D01*
X249142Y66109D01*
D02*
G37*
G36*
X245110D02*
X243617D01*
X242436Y65874D01*
X241435Y65205D01*
X240766Y64204D01*
X240531Y63022D01*
Y56530D01*
X245110D01*
Y66109D01*
D02*
G37*
G36*
X261842Y64814D02*
X256318D01*
X255632Y64678D01*
X255050Y64290D01*
X254662Y63708D01*
X254526Y63022D01*
Y47498D01*
X254662Y46812D01*
X255050Y46230D01*
X255632Y45842D01*
X256318Y45706D01*
X261842D01*
X262528Y45842D01*
X263110Y46230D01*
X263498Y46812D01*
X263634Y47498D01*
Y63022D01*
X263498Y63708D01*
X263110Y64290D01*
X262528Y64678D01*
X261842Y64814D01*
D02*
G37*
G36*
X236443D02*
X230917D01*
X230232Y64678D01*
X229650Y64290D01*
X229262Y63708D01*
X229126Y63022D01*
Y47498D01*
X229262Y46812D01*
X229650Y46230D01*
X230232Y45842D01*
X230917Y45706D01*
X236443D01*
X237128Y45842D01*
X237710Y46230D01*
X238098Y46812D01*
X238234Y47498D01*
Y63022D01*
X238098Y63708D01*
X237710Y64290D01*
X237128Y64678D01*
X236443Y64814D01*
D02*
G37*
G36*
X223743D02*
X218218D01*
X217532Y64678D01*
X216950Y64290D01*
X216562Y63708D01*
X216426Y63022D01*
Y47498D01*
X216562Y46812D01*
X216950Y46230D01*
X217532Y45842D01*
X218218Y45706D01*
X223743D01*
X224428Y45842D01*
X225010Y46230D01*
X225398Y46812D01*
X225534Y47498D01*
Y63022D01*
X225398Y63708D01*
X225010Y64290D01*
X224428Y64678D01*
X223743Y64814D01*
D02*
G37*
G36*
X211042D02*
X205518D01*
X204832Y64678D01*
X204250Y64290D01*
X203862Y63708D01*
X203726Y63022D01*
Y47498D01*
X203862Y46812D01*
X204250Y46230D01*
X204832Y45842D01*
X205518Y45706D01*
X211042D01*
X211728Y45842D01*
X212310Y46230D01*
X212698Y46812D01*
X212834Y47498D01*
Y63022D01*
X212698Y63708D01*
X212310Y64290D01*
X211728Y64678D01*
X211042Y64814D01*
D02*
G37*
G36*
X252229Y53990D02*
X247650D01*
Y44411D01*
X249142D01*
X250324Y44646D01*
X251325Y45315D01*
X251994Y46316D01*
X252229Y47498D01*
Y53990D01*
D02*
G37*
G36*
X245110D02*
X240531D01*
Y47498D01*
X240766Y46316D01*
X241435Y45315D01*
X242436Y44646D01*
X243617Y44411D01*
X245110D01*
Y53990D01*
D02*
G37*
G36*
X469900Y50129D02*
Y33020D01*
X487009D01*
X486779Y35360D01*
X485726Y38831D01*
X484016Y42030D01*
X481714Y44834D01*
X478910Y47136D01*
X475711Y48846D01*
X472240Y49899D01*
X469900Y50129D01*
D02*
G37*
G36*
X467360D02*
X465020Y49899D01*
X461549Y48846D01*
X458350Y47136D01*
X455546Y44834D01*
X453244Y42030D01*
X451534Y38831D01*
X450481Y35360D01*
X450251Y33020D01*
X467360D01*
Y50129D01*
D02*
G37*
G36*
X106680D02*
Y33020D01*
X123789D01*
X123559Y35360D01*
X122506Y38831D01*
X120796Y42030D01*
X118494Y44834D01*
X115690Y47136D01*
X112491Y48846D01*
X109020Y49899D01*
X106680Y50129D01*
D02*
G37*
G36*
X104140D02*
X101800Y49899D01*
X98329Y48846D01*
X95130Y47136D01*
X92326Y44834D01*
X90024Y42030D01*
X88314Y38831D01*
X87261Y35360D01*
X87031Y33020D01*
X104140D01*
Y50129D01*
D02*
G37*
G36*
X268410Y29040D02*
X262890D01*
Y25520D01*
X268410D01*
Y29040D01*
D02*
G37*
G36*
X260350D02*
X254830D01*
Y25520D01*
X260350D01*
Y29040D01*
D02*
G37*
G36*
X268410Y22980D02*
X262890D01*
Y19460D01*
X268410D01*
Y22980D01*
D02*
G37*
G36*
X260350D02*
X254830D01*
Y19460D01*
X260350D01*
Y22980D01*
D02*
G37*
G36*
X487009Y30480D02*
X469900D01*
Y13371D01*
X472240Y13601D01*
X475711Y14654D01*
X478910Y16364D01*
X481714Y18666D01*
X484016Y21470D01*
X485726Y24669D01*
X486779Y28140D01*
X487009Y30480D01*
D02*
G37*
G36*
X467360D02*
X450251D01*
X450481Y28140D01*
X451534Y24669D01*
X453244Y21470D01*
X455546Y18666D01*
X458350Y16364D01*
X461549Y14654D01*
X465020Y13601D01*
X467360Y13371D01*
Y30480D01*
D02*
G37*
G36*
X123789D02*
X106680D01*
Y13371D01*
X109020Y13601D01*
X112491Y14654D01*
X115690Y16364D01*
X118494Y18666D01*
X120796Y21470D01*
X122506Y24669D01*
X123559Y28140D01*
X123789Y30480D01*
D02*
G37*
G36*
X104140D02*
X87031D01*
X87261Y28140D01*
X88314Y24669D01*
X90024Y21470D01*
X92326Y18666D01*
X95130Y16364D01*
X98329Y14654D01*
X101800Y13601D01*
X104140Y13371D01*
Y30480D01*
D02*
G37*
%LPD*%
D11*
X216233Y99260D02*
X222897D01*
X224230Y97927D01*
Y95261D01*
X222897Y93928D01*
X216233D01*
X224230Y91263D02*
Y88597D01*
Y89930D01*
X216233D01*
X217565Y91263D01*
D19*
X105410Y31750D02*
D03*
X468630D02*
D03*
Y285750D02*
D03*
X105410D02*
D03*
D20*
X379250Y69850D02*
D03*
D21*
X319250D02*
D03*
X379250Y39850D02*
D03*
X349250D02*
D03*
X319250D02*
D03*
D22*
X349250Y69850D02*
D03*
D23*
X409250Y30450D02*
D03*
X289250D02*
D03*
D24*
X158750Y139700D02*
D03*
D25*
X184150D02*
D03*
X209550D02*
D03*
X234950D02*
D03*
X260350D02*
D03*
X285750D02*
D03*
X311150D02*
D03*
X336550D02*
D03*
X361950D02*
D03*
X387350D02*
D03*
X412750D02*
D03*
Y241300D02*
D03*
X387350D02*
D03*
X361950D02*
D03*
X336550D02*
D03*
X311150D02*
D03*
X285750D02*
D03*
X260350D02*
D03*
X234950D02*
D03*
X209550D02*
D03*
X184150D02*
D03*
X158750D02*
D03*
D26*
X182880Y111760D02*
D03*
X195580D02*
D03*
X208280D02*
D03*
X220980D02*
D03*
X233680D02*
D03*
X246380D02*
D03*
X259080D02*
D03*
X182880Y55260D02*
D03*
X195580D02*
D03*
X208280D02*
D03*
X220980D02*
D03*
X233680D02*
D03*
X246380D02*
D03*
X259080D02*
D03*
D27*
X144410Y119040D02*
D03*
X158410D02*
D03*
D28*
X437720Y126340D02*
D03*
Y107340D02*
D03*
X415720Y116840D02*
D03*
D29*
X430530Y74530D02*
D03*
Y88030D02*
D03*
D30*
X372110Y114180D02*
D03*
Y99180D02*
D03*
D31*
X288410Y297180D02*
D03*
X303410D02*
D03*
D32*
X261620Y39250D02*
D03*
Y24250D02*
D03*
D33*
X447503Y126340D02*
X453390Y132227D01*
X437720Y126340D02*
X447503D01*
X372110Y114180D02*
X374770Y116840D01*
X415720D01*
X430530Y88030D02*
X433760Y91260D01*
Y105610D01*
X435490Y107340D01*
X437720D01*
X453390Y132227D02*
Y245110D01*
X385775Y17780D02*
X430530Y62535D01*
Y74530D01*
X388445Y59395D02*
X417080Y88030D01*
X430530D01*
X166680Y55260D02*
X182880D01*
X182760Y50380D02*
Y55140D01*
Y50380D02*
X193890Y39250D01*
X261620D01*
X261920Y39550D01*
X318950D01*
X319250Y39850D01*
X184150Y241300D02*
Y273050D01*
X246380Y125730D02*
X260350Y139700D01*
X246380Y111760D02*
Y125730D01*
X220980D02*
X234950Y139700D01*
X220980Y111760D02*
Y125730D01*
X195580D02*
X209550Y139700D01*
X195580Y111760D02*
Y125730D01*
X233680Y106760D02*
X242224Y98216D01*
X233680Y106760D02*
Y111760D01*
X208280Y106760D02*
X221850Y93190D01*
X208280Y106760D02*
Y111760D01*
X182880Y106760D02*
X200828Y88812D01*
X182880Y106760D02*
Y111760D01*
X182760Y55140D02*
X182880Y55260D01*
X158750Y139700D02*
X184150D01*
X158410Y139360D02*
X158750Y139700D01*
X158410Y119040D02*
Y139360D01*
X158130Y63810D02*
Y118760D01*
X158410Y119040D01*
X303410Y297180D02*
X401320D01*
X453390Y245110D01*
X184150Y273050D02*
X208280Y297180D01*
X288410D01*
X315117Y59136D02*
X329964Y44288D01*
X314244Y59136D02*
X315117D01*
X329964Y38336D02*
Y44288D01*
X284568Y88812D02*
X314244Y59136D01*
X200828Y88812D02*
X284568D01*
X329964Y38336D02*
X339164Y29136D01*
X354805D01*
X365520Y39850D01*
X295910Y93190D02*
X319250Y69850D01*
X306037Y98216D02*
X334402Y69850D01*
X221850Y93190D02*
X295910D01*
X242224Y98216D02*
X306037D01*
X334402Y69850D02*
X349250D01*
X365520Y39850D02*
X379250D01*
X349250D02*
X368795Y59395D01*
X388445D01*
X341320Y17780D02*
X385775D01*
X319250Y39850D02*
X341320Y17780D01*
X158130Y63810D02*
X166680Y55260D01*
M02*
