G04*
G04 #@! TF.GenerationSoftware,Altium Limited,Altium Designer,19.1.8 (144)*
G04*
G04 Layer_Color=8388736*
%FSLAX25Y25*%
%MOIN*%
G70*
G01*
G75*
%ADD13C,0.01000*%
%ADD14C,0.01968*%
%ADD54R,0.03753X0.21666*%
%ADD55R,0.07808X0.14304*%
%ADD56R,0.06509X0.05524*%
%ADD57R,0.07887X0.05328*%
%ADD58R,0.15958X0.18595*%
%ADD59R,0.03123X0.03595*%
%ADD60R,0.06202X0.03595*%
%ADD61R,0.02965X0.07493*%
%ADD62R,0.04737X0.04934*%
%ADD63R,0.04147X0.04540*%
%ADD64R,0.04934X0.04343*%
%ADD65R,0.08674X0.14580*%
%ADD66R,0.06312X0.09461*%
%ADD67R,0.06312X0.04343*%
%ADD68R,0.04737X0.05131*%
%ADD69R,0.04343X0.03556*%
%ADD70R,0.04343X0.04147*%
%ADD71R,0.04737X0.04343*%
%ADD72R,0.03950X0.04540*%
%ADD73R,0.04540X0.03950*%
%ADD74R,0.04147X0.06115*%
%ADD75R,0.04737X0.06115*%
%ADD76R,0.14619X0.21784*%
%ADD77R,0.06115X0.04147*%
%ADD78R,0.05524X0.05524*%
%ADD79R,0.04343X0.04737*%
%ADD80R,0.04343X0.04934*%
%ADD81R,0.06509X0.04934*%
%ADD82R,0.04540X0.04147*%
%ADD83R,0.04540X0.06902*%
%ADD84R,0.06115X0.05131*%
%ADD85R,0.02965X0.06115*%
%ADD86R,0.04540X0.04934*%
%ADD87R,0.04147X0.03556*%
%ADD88R,0.02572X0.02178*%
%ADD89R,0.03359X0.06804*%
G04:AMPARAMS|DCode=90|XSize=17.45mil|YSize=31.62mil|CornerRadius=5.98mil|HoleSize=0mil|Usage=FLASHONLY|Rotation=270.000|XOffset=0mil|YOffset=0mil|HoleType=Round|Shape=RoundedRectangle|*
%AMROUNDEDRECTD90*
21,1,0.01745,0.01965,0,0,270.0*
21,1,0.00548,0.03162,0,0,270.0*
1,1,0.01197,-0.00983,-0.00274*
1,1,0.01197,-0.00983,0.00274*
1,1,0.01197,0.00983,0.00274*
1,1,0.01197,0.00983,-0.00274*
%
%ADD90ROUNDEDRECTD90*%
G04:AMPARAMS|DCode=91|XSize=17.45mil|YSize=31.62mil|CornerRadius=5.98mil|HoleSize=0mil|Usage=FLASHONLY|Rotation=180.000|XOffset=0mil|YOffset=0mil|HoleType=Round|Shape=RoundedRectangle|*
%AMROUNDEDRECTD91*
21,1,0.01745,0.01965,0,0,180.0*
21,1,0.00548,0.03162,0,0,180.0*
1,1,0.01197,-0.00274,0.00983*
1,1,0.01197,0.00274,0.00983*
1,1,0.01197,0.00274,-0.00983*
1,1,0.01197,-0.00274,-0.00983*
%
%ADD91ROUNDEDRECTD91*%
G04:AMPARAMS|DCode=92|XSize=203.87mil|YSize=189.1mil|CornerRadius=5.81mil|HoleSize=0mil|Usage=FLASHONLY|Rotation=180.000|XOffset=0mil|YOffset=0mil|HoleType=Round|Shape=RoundedRectangle|*
%AMROUNDEDRECTD92*
21,1,0.20387,0.17748,0,0,180.0*
21,1,0.19224,0.18910,0,0,180.0*
1,1,0.01162,-0.09612,0.08874*
1,1,0.01162,0.09612,0.08874*
1,1,0.01162,0.09612,-0.08874*
1,1,0.01162,-0.09612,-0.08874*
%
%ADD92ROUNDEDRECTD92*%
%ADD93C,0.12414*%
%ADD94C,0.06800*%
%ADD95R,0.06633X0.06633*%
%ADD96C,0.06824*%
%ADD97C,0.12611*%
%ADD98R,0.06300X0.07800*%
%ADD99O,0.06300X0.07800*%
%ADD100C,0.02769*%
D13*
X28000Y456642D02*
X28051Y456693D01*
D14*
X420866Y125500D02*
Y456626D01*
X28051Y456693D02*
X420933D01*
X28000Y449500D02*
Y456642D01*
X28000Y125500D02*
X420866Y125500D01*
X28000Y449500D02*
X28000Y125500D01*
D54*
X204232Y257874D02*
D03*
X226476D02*
D03*
D55*
X252756Y337008D02*
D03*
Y375984D02*
D03*
Y166142D02*
D03*
Y252756D02*
D03*
Y192520D02*
D03*
Y304724D02*
D03*
D56*
X275590Y148622D02*
D03*
Y141929D02*
D03*
D57*
X286417Y148622D02*
D03*
Y136811D02*
D03*
D58*
X310236Y163779D02*
D03*
X309307Y343307D02*
D03*
X328882Y373228D02*
D03*
X330732Y190807D02*
D03*
X330063Y281602D02*
D03*
X310488Y252756D02*
D03*
D59*
X301476Y156280D02*
D03*
Y161279D02*
D03*
Y166279D02*
D03*
Y171280D02*
D03*
X300547Y335807D02*
D03*
Y340807D02*
D03*
Y345807D02*
D03*
Y350807D02*
D03*
X337642Y365728D02*
D03*
Y370728D02*
D03*
Y375728D02*
D03*
Y380728D02*
D03*
X339492Y183307D02*
D03*
Y188307D02*
D03*
Y193307D02*
D03*
Y198307D02*
D03*
X338823Y274102D02*
D03*
Y279102D02*
D03*
Y284102D02*
D03*
Y289102D02*
D03*
X301728Y260256D02*
D03*
Y255256D02*
D03*
Y250256D02*
D03*
Y245256D02*
D03*
D60*
X324827Y171280D02*
D03*
Y166279D02*
D03*
Y161279D02*
D03*
Y156280D02*
D03*
X323898Y350807D02*
D03*
Y345807D02*
D03*
Y340807D02*
D03*
Y335807D02*
D03*
X314291Y380728D02*
D03*
Y375728D02*
D03*
Y370728D02*
D03*
Y365728D02*
D03*
X316142Y198307D02*
D03*
Y193307D02*
D03*
Y188307D02*
D03*
Y183307D02*
D03*
X315472Y289102D02*
D03*
Y284102D02*
D03*
Y279102D02*
D03*
Y274102D02*
D03*
X325079Y245256D02*
D03*
Y250256D02*
D03*
Y255256D02*
D03*
Y260256D02*
D03*
D61*
X292421Y165748D02*
D03*
X280020D02*
D03*
X290059Y252756D02*
D03*
X277658D02*
D03*
X290453Y341339D02*
D03*
X278051D02*
D03*
D62*
X396457Y237992D02*
D03*
Y243898D02*
D03*
X291732Y209252D02*
D03*
Y203346D02*
D03*
X292126Y301772D02*
D03*
Y295866D02*
D03*
X291732Y394291D02*
D03*
Y388386D02*
D03*
X395276Y329724D02*
D03*
Y335630D02*
D03*
X387008Y151772D02*
D03*
Y157677D02*
D03*
D63*
X323917Y266142D02*
D03*
X318602D02*
D03*
X326673Y177165D02*
D03*
X321358D02*
D03*
X322342Y357480D02*
D03*
X317028D02*
D03*
X176157Y327500D02*
D03*
X170843D02*
D03*
X162000Y328000D02*
D03*
X156685D02*
D03*
X148000D02*
D03*
X142685D02*
D03*
D64*
X109000Y288500D02*
D03*
Y282791D02*
D03*
X390551Y254232D02*
D03*
Y248917D02*
D03*
X213681Y401083D02*
D03*
Y406398D02*
D03*
X202461Y401083D02*
D03*
Y406398D02*
D03*
X189075Y400787D02*
D03*
Y406102D02*
D03*
X177657Y400787D02*
D03*
Y406102D02*
D03*
X116500Y241500D02*
D03*
Y236185D02*
D03*
X117000Y293500D02*
D03*
Y298815D02*
D03*
X390158Y343996D02*
D03*
Y338681D02*
D03*
X381890Y167618D02*
D03*
Y162303D02*
D03*
X171000Y315342D02*
D03*
Y320657D02*
D03*
X157000Y315342D02*
D03*
Y320657D02*
D03*
X143000Y314685D02*
D03*
Y320000D02*
D03*
D65*
X199716Y199000D02*
D03*
X164284D02*
D03*
D66*
X153740Y213878D02*
D03*
D67*
Y203839D02*
D03*
D68*
X162500Y225886D02*
D03*
X156791D02*
D03*
D69*
X390551Y238976D02*
D03*
Y244488D02*
D03*
X390158Y329134D02*
D03*
Y334646D02*
D03*
X381102Y152362D02*
D03*
Y157874D02*
D03*
D70*
X149508Y235433D02*
D03*
Y240551D02*
D03*
X169291Y240158D02*
D03*
Y245276D02*
D03*
D71*
X131102Y310236D02*
D03*
Y315551D02*
D03*
X184646Y232874D02*
D03*
Y237992D02*
D03*
D72*
X99815Y283000D02*
D03*
X94500D02*
D03*
X111516Y318110D02*
D03*
X116831D02*
D03*
X204842Y272000D02*
D03*
X210157D02*
D03*
D73*
X140157Y228150D02*
D03*
Y222835D02*
D03*
X133858Y228150D02*
D03*
Y222835D02*
D03*
X126772Y228248D02*
D03*
Y222933D02*
D03*
X115500Y259315D02*
D03*
Y254000D02*
D03*
X116500Y276000D02*
D03*
Y270685D02*
D03*
X117000Y282185D02*
D03*
Y287500D02*
D03*
X203150Y243602D02*
D03*
Y238287D02*
D03*
X176772Y223327D02*
D03*
Y228642D02*
D03*
D74*
X295374Y174016D02*
D03*
X288878D02*
D03*
X283957Y208661D02*
D03*
X277461D02*
D03*
X328248Y220472D02*
D03*
X321752D02*
D03*
X276673Y302756D02*
D03*
X283169D02*
D03*
X278248Y394488D02*
D03*
X284744D02*
D03*
D75*
X300905Y148500D02*
D03*
X295000D02*
D03*
D76*
X274803Y190551D02*
D03*
X291024D02*
D03*
X273819Y282480D02*
D03*
X290039D02*
D03*
X273819Y374311D02*
D03*
X290039D02*
D03*
D77*
X331496Y303839D02*
D03*
Y310335D02*
D03*
X330315Y394193D02*
D03*
Y387697D02*
D03*
D78*
X105000Y310866D02*
D03*
Y319134D02*
D03*
D79*
X111441Y310000D02*
D03*
X116559D02*
D03*
X196653Y232283D02*
D03*
X191535D02*
D03*
X220472Y237008D02*
D03*
X214173D02*
D03*
D80*
X107815Y274500D02*
D03*
X102500D02*
D03*
Y266000D02*
D03*
X107815D02*
D03*
X101500Y249500D02*
D03*
X106815D02*
D03*
X107158Y258500D02*
D03*
X101842D02*
D03*
D81*
X383858Y248130D02*
D03*
Y240846D02*
D03*
X382283Y336713D02*
D03*
Y329429D02*
D03*
X372835Y161909D02*
D03*
Y154626D02*
D03*
X393701Y149902D02*
D03*
Y157185D02*
D03*
X408268Y330217D02*
D03*
Y337500D02*
D03*
X402756Y236910D02*
D03*
Y244193D02*
D03*
D82*
X375984Y248524D02*
D03*
Y253839D02*
D03*
X374803Y337106D02*
D03*
Y342421D02*
D03*
X303937Y366437D02*
D03*
Y361122D02*
D03*
X305118Y274311D02*
D03*
Y268996D02*
D03*
X307257Y182776D02*
D03*
Y177461D02*
D03*
X366142Y162303D02*
D03*
Y167618D02*
D03*
X393307D02*
D03*
Y162303D02*
D03*
X401968Y254626D02*
D03*
Y249311D02*
D03*
Y342815D02*
D03*
Y337500D02*
D03*
D83*
X213681Y280315D02*
D03*
X204429D02*
D03*
D84*
X194882Y257874D02*
D03*
Y252362D02*
D03*
D85*
X206398Y229134D02*
D03*
X214075D02*
D03*
D86*
X191634Y226772D02*
D03*
X197343D02*
D03*
D87*
X169882Y224213D02*
D03*
Y228740D02*
D03*
D88*
X178347Y321457D02*
D03*
Y319882D02*
D03*
X164075Y320866D02*
D03*
Y319291D02*
D03*
X149803Y320768D02*
D03*
Y319193D02*
D03*
D89*
X40500Y260823D02*
D03*
X45500D02*
D03*
X50500D02*
D03*
X55500D02*
D03*
X60500D02*
D03*
X65500D02*
D03*
X70500D02*
D03*
Y282177D02*
D03*
X65500D02*
D03*
X60500D02*
D03*
X55500D02*
D03*
X50500D02*
D03*
X45500D02*
D03*
X40500D02*
D03*
D90*
X177445Y263673D02*
D03*
Y265642D02*
D03*
Y267610D02*
D03*
Y269579D02*
D03*
Y271547D02*
D03*
Y273516D02*
D03*
Y275484D02*
D03*
Y277453D02*
D03*
Y279421D02*
D03*
Y281390D02*
D03*
Y283358D02*
D03*
Y285327D02*
D03*
X150673D02*
D03*
Y283358D02*
D03*
Y281390D02*
D03*
Y279421D02*
D03*
Y277453D02*
D03*
Y275484D02*
D03*
Y273516D02*
D03*
Y271547D02*
D03*
Y269579D02*
D03*
Y267610D02*
D03*
Y265642D02*
D03*
Y263673D02*
D03*
D91*
X174886Y287886D02*
D03*
X172917D02*
D03*
X170949D02*
D03*
X168980D02*
D03*
X167012D02*
D03*
X165043D02*
D03*
X163075D02*
D03*
X161106D02*
D03*
X159138D02*
D03*
X157169D02*
D03*
X155201D02*
D03*
X153232D02*
D03*
Y261114D02*
D03*
X155201D02*
D03*
X157169D02*
D03*
X159138D02*
D03*
X161106D02*
D03*
X163075D02*
D03*
X165043D02*
D03*
X167012D02*
D03*
X168980D02*
D03*
X170949D02*
D03*
X172917D02*
D03*
X174886D02*
D03*
D92*
X163319Y274500D02*
D03*
D93*
X392520Y213150D02*
D03*
Y193150D02*
D03*
X402520D02*
D03*
X382520D02*
D03*
Y213150D02*
D03*
X402520D02*
D03*
X392520Y287953D02*
D03*
Y267953D02*
D03*
X402520D02*
D03*
X382520D02*
D03*
Y287953D02*
D03*
X402520D02*
D03*
X392520Y375748D02*
D03*
Y355748D02*
D03*
X402520D02*
D03*
X382520D02*
D03*
Y375748D02*
D03*
X402520D02*
D03*
X287795Y445827D02*
D03*
Y425827D02*
D03*
X297795D02*
D03*
X277795D02*
D03*
Y445827D02*
D03*
X297795D02*
D03*
X335827D02*
D03*
Y425827D02*
D03*
X345827D02*
D03*
X325827D02*
D03*
Y445827D02*
D03*
X345827D02*
D03*
D94*
X41732Y438976D02*
D03*
X406693Y143307D02*
D03*
X249804D02*
D03*
X406693Y438976D02*
D03*
D95*
X255710Y426894D02*
D03*
X209941D02*
D03*
X118504D02*
D03*
D96*
X255710Y415083D02*
D03*
X243898Y426894D02*
D03*
Y415083D02*
D03*
X150885D02*
D03*
X209941D02*
D03*
X150885Y426894D02*
D03*
X162696Y415083D02*
D03*
X198130D02*
D03*
X162696Y426894D02*
D03*
X198130D02*
D03*
X174507Y415083D02*
D03*
Y426894D02*
D03*
X186319Y415083D02*
D03*
Y426894D02*
D03*
X106693D02*
D03*
Y415083D02*
D03*
X94882Y426894D02*
D03*
X83071D02*
D03*
X94882Y415083D02*
D03*
X83071D02*
D03*
X71260Y426894D02*
D03*
X118504Y415083D02*
D03*
X71260D02*
D03*
D97*
X249804Y443902D02*
D03*
X159350D02*
D03*
X201476D02*
D03*
X110039D02*
D03*
X79725D02*
D03*
D98*
X39075Y143760D02*
D03*
Y383760D02*
D03*
D99*
X49075D02*
D03*
X59075D02*
D03*
X69075D02*
D03*
X79075D02*
D03*
X89075D02*
D03*
X99075D02*
D03*
X109075D02*
D03*
X119075D02*
D03*
X129075D02*
D03*
X139075D02*
D03*
X149075D02*
D03*
X159075D02*
D03*
X169075D02*
D03*
X179075D02*
D03*
X189075D02*
D03*
X199075D02*
D03*
X209075D02*
D03*
X219075D02*
D03*
X39075Y373760D02*
D03*
X49075D02*
D03*
X59075D02*
D03*
X69075D02*
D03*
X79075D02*
D03*
X89075D02*
D03*
X99075D02*
D03*
X109075D02*
D03*
X119075D02*
D03*
X129075D02*
D03*
X139075D02*
D03*
X149075D02*
D03*
X159075D02*
D03*
X169075D02*
D03*
X179075D02*
D03*
X189075D02*
D03*
X199075D02*
D03*
X209075D02*
D03*
X219075D02*
D03*
X49075Y143760D02*
D03*
X59075D02*
D03*
X69075D02*
D03*
X79075D02*
D03*
X89075D02*
D03*
X99075D02*
D03*
X109075D02*
D03*
X119075D02*
D03*
X129075D02*
D03*
X139075D02*
D03*
X149075D02*
D03*
X159075D02*
D03*
X169075D02*
D03*
X179075D02*
D03*
X189075D02*
D03*
X199075D02*
D03*
X209075D02*
D03*
X219075D02*
D03*
X39075Y133760D02*
D03*
X49075D02*
D03*
X59075D02*
D03*
X69075D02*
D03*
X79075D02*
D03*
X89075D02*
D03*
X99075D02*
D03*
X109075D02*
D03*
X119075D02*
D03*
X129075D02*
D03*
X139075D02*
D03*
X149075D02*
D03*
X159075D02*
D03*
X169075D02*
D03*
X179075D02*
D03*
X189075D02*
D03*
X199075D02*
D03*
X209075D02*
D03*
X219075D02*
D03*
D100*
X194882Y246850D02*
D03*
X217717Y275590D02*
D03*
X222441Y258268D02*
D03*
X285827Y201181D02*
D03*
X176772Y220079D02*
D03*
X310827Y259252D02*
D03*
X275590Y259842D02*
D03*
X391535Y223819D02*
D03*
X386221D02*
D03*
X380906D02*
D03*
X375590D02*
D03*
X407480Y216929D02*
D03*
Y223819D02*
D03*
Y210039D02*
D03*
X402165Y223819D02*
D03*
X396850D02*
D03*
X391535D02*
D03*
Y219488D02*
D03*
X396850D02*
D03*
X402165D02*
D03*
X407480D02*
D03*
X375590D02*
D03*
X380906D02*
D03*
X386221D02*
D03*
X391535D02*
D03*
Y204134D02*
D03*
X396850D02*
D03*
X402165D02*
D03*
X407480D02*
D03*
X375590D02*
D03*
X380906D02*
D03*
X386221D02*
D03*
X391535D02*
D03*
Y200197D02*
D03*
X396850D02*
D03*
X402165D02*
D03*
X407480D02*
D03*
X375590D02*
D03*
X380906D02*
D03*
X386221D02*
D03*
X391535D02*
D03*
X391929Y183661D02*
D03*
X397244D02*
D03*
X402559D02*
D03*
X407874D02*
D03*
X375984D02*
D03*
X381299D02*
D03*
X386614D02*
D03*
X391929D02*
D03*
Y179724D02*
D03*
X397244D02*
D03*
X402559D02*
D03*
X375984D02*
D03*
X381299D02*
D03*
X386614D02*
D03*
X391929D02*
D03*
X370472Y200787D02*
D03*
Y206102D02*
D03*
Y211417D02*
D03*
Y216732D02*
D03*
Y184843D02*
D03*
Y190157D02*
D03*
Y195472D02*
D03*
Y200787D02*
D03*
X366142D02*
D03*
Y206102D02*
D03*
Y211417D02*
D03*
Y216732D02*
D03*
Y184843D02*
D03*
Y190157D02*
D03*
Y195472D02*
D03*
Y200787D02*
D03*
X361811D02*
D03*
Y206102D02*
D03*
Y211417D02*
D03*
Y216732D02*
D03*
Y184843D02*
D03*
Y190157D02*
D03*
Y195472D02*
D03*
Y200787D02*
D03*
X357480D02*
D03*
Y206102D02*
D03*
Y211417D02*
D03*
Y216732D02*
D03*
Y184843D02*
D03*
Y190157D02*
D03*
Y195472D02*
D03*
Y200787D02*
D03*
X392323Y299803D02*
D03*
X387008D02*
D03*
X381693D02*
D03*
X376378D02*
D03*
X408268Y292913D02*
D03*
Y286024D02*
D03*
X402953Y299803D02*
D03*
X397638D02*
D03*
X392323D02*
D03*
Y295472D02*
D03*
X397638D02*
D03*
X402953D02*
D03*
X408268D02*
D03*
X376378D02*
D03*
X381693D02*
D03*
X387008D02*
D03*
X392323D02*
D03*
Y280118D02*
D03*
X397638D02*
D03*
X402953D02*
D03*
X408268D02*
D03*
X376378D02*
D03*
X381693D02*
D03*
X387008D02*
D03*
X392323D02*
D03*
Y276181D02*
D03*
X397638D02*
D03*
X402953D02*
D03*
X408268D02*
D03*
X376378D02*
D03*
X381693D02*
D03*
X387008D02*
D03*
X392323D02*
D03*
X392717Y259646D02*
D03*
X398031D02*
D03*
X403346D02*
D03*
X408661D02*
D03*
X376772D02*
D03*
X382087D02*
D03*
X387402D02*
D03*
X392717D02*
D03*
X398031Y255709D02*
D03*
X382087D02*
D03*
X387402D02*
D03*
X392717D02*
D03*
X371260Y276772D02*
D03*
Y282087D02*
D03*
Y287402D02*
D03*
Y292717D02*
D03*
Y260827D02*
D03*
Y266142D02*
D03*
Y271457D02*
D03*
Y276772D02*
D03*
X366929D02*
D03*
Y282087D02*
D03*
Y287402D02*
D03*
Y292717D02*
D03*
Y260827D02*
D03*
Y266142D02*
D03*
Y271457D02*
D03*
Y276772D02*
D03*
X362598D02*
D03*
Y282087D02*
D03*
Y287402D02*
D03*
Y292717D02*
D03*
Y260827D02*
D03*
Y266142D02*
D03*
Y271457D02*
D03*
Y276772D02*
D03*
X358268D02*
D03*
Y282087D02*
D03*
Y287402D02*
D03*
Y292717D02*
D03*
Y260827D02*
D03*
Y266142D02*
D03*
Y271457D02*
D03*
Y276772D02*
D03*
X359449Y364764D02*
D03*
Y359449D02*
D03*
Y354134D02*
D03*
Y348819D02*
D03*
Y380709D02*
D03*
Y375394D02*
D03*
Y370079D02*
D03*
Y364764D02*
D03*
X363779D02*
D03*
Y359449D02*
D03*
Y354134D02*
D03*
Y348819D02*
D03*
Y380709D02*
D03*
Y375394D02*
D03*
Y370079D02*
D03*
Y364764D02*
D03*
X368110D02*
D03*
Y359449D02*
D03*
Y354134D02*
D03*
Y348819D02*
D03*
Y380709D02*
D03*
Y375394D02*
D03*
Y370079D02*
D03*
Y364764D02*
D03*
X372441D02*
D03*
Y359449D02*
D03*
Y354134D02*
D03*
Y348819D02*
D03*
Y380709D02*
D03*
Y375394D02*
D03*
Y370079D02*
D03*
Y364764D02*
D03*
X393898Y343701D02*
D03*
X383268D02*
D03*
X377953D02*
D03*
X399213D02*
D03*
X393898D02*
D03*
Y347638D02*
D03*
X388583D02*
D03*
X383268D02*
D03*
X377953D02*
D03*
X409842D02*
D03*
X404528D02*
D03*
X399213D02*
D03*
X393898D02*
D03*
X393504Y364173D02*
D03*
X388189D02*
D03*
X382874D02*
D03*
X377559D02*
D03*
X409449D02*
D03*
X404134D02*
D03*
X398819D02*
D03*
X393504D02*
D03*
Y368110D02*
D03*
X388189D02*
D03*
X382874D02*
D03*
X377559D02*
D03*
X409449D02*
D03*
X404134D02*
D03*
X398819D02*
D03*
X393504D02*
D03*
Y383465D02*
D03*
X388189D02*
D03*
X382874D02*
D03*
X377559D02*
D03*
X409449D02*
D03*
X404134D02*
D03*
X398819D02*
D03*
X393504D02*
D03*
Y387795D02*
D03*
X398819D02*
D03*
X404134D02*
D03*
X409449Y374016D02*
D03*
Y387795D02*
D03*
Y380906D02*
D03*
X377559Y387795D02*
D03*
X382874D02*
D03*
X388189D02*
D03*
X393504D02*
D03*
X142126Y338189D02*
D03*
X319291Y336614D02*
D03*
X400000Y333465D02*
D03*
X349213Y246850D02*
D03*
X311417Y150787D02*
D03*
X350787Y331496D02*
D03*
X347244Y151969D02*
D03*
X311221Y163386D02*
D03*
Y156496D02*
D03*
X316535Y163386D02*
D03*
Y170276D02*
D03*
Y156496D02*
D03*
X311221Y170276D02*
D03*
X310827Y252362D02*
D03*
Y245472D02*
D03*
X316142Y252362D02*
D03*
Y259252D02*
D03*
Y245472D02*
D03*
X308661Y350394D02*
D03*
X313976Y336614D02*
D03*
Y350394D02*
D03*
Y343504D02*
D03*
X319291D02*
D03*
X308661Y336614D02*
D03*
Y343504D02*
D03*
X330709Y314567D02*
D03*
X287943Y394094D02*
D03*
X288583Y362598D02*
D03*
X301279Y358465D02*
D03*
X316535Y175984D02*
D03*
X303150Y175591D02*
D03*
X245276Y176772D02*
D03*
X250394Y202756D02*
D03*
X288583Y177953D02*
D03*
X377952Y161811D02*
D03*
X287795Y209055D02*
D03*
X313779Y222047D02*
D03*
X287795Y302756D02*
D03*
X281102Y295669D02*
D03*
X304331Y264961D02*
D03*
X253543Y270079D02*
D03*
X256673Y281516D02*
D03*
X259449Y286221D02*
D03*
X262598Y292520D02*
D03*
X246063Y282677D02*
D03*
X252756Y311024D02*
D03*
X313779Y266142D02*
D03*
X395669Y249606D02*
D03*
X402756Y232677D02*
D03*
X275590Y181102D02*
D03*
X283465Y267717D02*
D03*
X307087Y228346D02*
D03*
Y307087D02*
D03*
Y314961D02*
D03*
X299213Y133858D02*
D03*
Y228346D02*
D03*
X275590Y330709D02*
D03*
X283465Y314961D02*
D03*
X275590Y244094D02*
D03*
X291339Y314961D02*
D03*
X299213Y141732D02*
D03*
X291339Y307087D02*
D03*
X283465Y141732D02*
D03*
X275590Y409449D02*
D03*
X307087Y141732D02*
D03*
X299213Y267717D02*
D03*
X291339Y409449D02*
D03*
X283465D02*
D03*
X307087Y236220D02*
D03*
X299213Y307087D02*
D03*
X291339Y267717D02*
D03*
X283465Y228346D02*
D03*
X291339D02*
D03*
X275590Y157480D02*
D03*
X291339Y133858D02*
D03*
Y141732D02*
D03*
X299213Y314961D02*
D03*
X283465Y259842D02*
D03*
X299213Y409449D02*
D03*
X283465Y244094D02*
D03*
X275590Y307087D02*
D03*
X291339Y330709D02*
D03*
X275590Y267717D02*
D03*
X283465Y330709D02*
D03*
X314961Y236220D02*
D03*
X307087Y133858D02*
D03*
X291339Y244094D02*
D03*
X307087Y409449D02*
D03*
X314961Y228346D02*
D03*
X275590Y314961D02*
D03*
X312598Y357874D02*
D03*
X253543Y347638D02*
D03*
X250787Y324016D02*
D03*
X327953Y398819D02*
D03*
X258268Y396457D02*
D03*
X261811Y400787D02*
D03*
X258661Y360630D02*
D03*
X262992Y362205D02*
D03*
X408317Y325935D02*
D03*
X380315Y324410D02*
D03*
X235138Y255413D02*
D03*
X214567Y210236D02*
D03*
X227165Y236614D02*
D03*
X147244Y203740D02*
D03*
X184252Y242520D02*
D03*
X126772Y219291D02*
D03*
X126673Y233366D02*
D03*
X179614Y297342D02*
D03*
X176189D02*
D03*
X172764D02*
D03*
X186909Y276082D02*
D03*
X187007Y279527D02*
D03*
X177165Y309842D02*
D03*
X183039Y297342D02*
D03*
X169339D02*
D03*
X165913D02*
D03*
X162205D02*
D03*
X224016Y328346D02*
D03*
X151969Y308661D02*
D03*
X171653Y336221D02*
D03*
X178347Y333858D02*
D03*
X162205Y333465D02*
D03*
X185039Y315354D02*
D03*
X213386Y324803D02*
D03*
X231102Y300394D02*
D03*
X242618Y294488D02*
D03*
X82579Y406398D02*
D03*
X36122Y182874D02*
D03*
X35039Y188189D02*
D03*
X201083Y169095D02*
D03*
X144390Y186516D02*
D03*
X72146Y170374D02*
D03*
X49508Y404331D02*
D03*
X166740Y153157D02*
D03*
X173622Y154429D02*
D03*
X133274Y219302D02*
D03*
X141217Y279780D02*
D03*
X135335Y283366D02*
D03*
X178248Y317028D02*
D03*
X173819Y310630D02*
D03*
X141641Y293813D02*
D03*
X55610Y288976D02*
D03*
X65847Y254823D02*
D03*
X50199Y255131D02*
D03*
X40356Y255032D02*
D03*
X132880Y265859D02*
D03*
X190453Y209154D02*
D03*
X218406Y228346D02*
D03*
X221358Y225098D02*
D03*
X150787Y315256D02*
D03*
X186902Y269220D02*
D03*
Y265402D02*
D03*
X186803Y272744D02*
D03*
X186902Y283205D02*
D03*
Y261976D02*
D03*
Y258945D02*
D03*
X161909Y236417D02*
D03*
X144193Y365748D02*
D03*
X188484Y393799D02*
D03*
X77264Y394094D02*
D03*
X49606Y400689D02*
D03*
X69390Y390846D02*
D03*
X74705Y363090D02*
D03*
X224311Y232579D02*
D03*
X197146Y332677D02*
D03*
X242323Y233957D02*
D03*
X238583Y300394D02*
D03*
X235138Y296555D02*
D03*
X145374Y211516D02*
D03*
X162106Y344094D02*
D03*
X145472Y344193D02*
D03*
X218799Y338583D02*
D03*
X130413Y262402D02*
D03*
X134646Y233760D02*
D03*
X203642Y365158D02*
D03*
X135630Y363090D02*
D03*
X123228Y433760D02*
D03*
X179626Y351378D02*
D03*
X38287Y354232D02*
D03*
X208071Y361417D02*
D03*
X130217Y359744D02*
D03*
X128150Y155610D02*
D03*
X123917Y335728D02*
D03*
X116437Y245177D02*
D03*
X79921Y198622D02*
D03*
X77953Y281988D02*
D03*
X111122Y153543D02*
D03*
X90059Y153051D02*
D03*
X167028Y347244D02*
D03*
X72736Y346850D02*
D03*
X93602Y366240D02*
D03*
X62205Y361910D02*
D03*
X67126Y332677D02*
D03*
X60925Y216535D02*
D03*
X55118Y341535D02*
D03*
X218898Y159055D02*
D03*
X209842Y162992D02*
D03*
X53937Y351575D02*
D03*
X83465Y359055D02*
D03*
X51575Y357480D02*
D03*
X189764Y357480D02*
D03*
X45276Y254921D02*
D03*
X55118D02*
D03*
X60500Y254791D02*
D03*
X69882Y254921D02*
D03*
X70500Y288752D02*
D03*
X61024Y288583D02*
D03*
X50197Y288386D02*
D03*
X45276D02*
D03*
X40354D02*
D03*
X91043Y283465D02*
D03*
X164173Y315846D02*
D03*
X116500Y232909D02*
D03*
X140157Y219291D02*
D03*
X146358Y235630D02*
D03*
X169685Y220472D02*
D03*
X213779Y272047D02*
D03*
X108858Y292913D02*
D03*
X117000Y303024D02*
D03*
X116500Y266106D02*
D03*
X115157Y250984D02*
D03*
X98425Y250000D02*
D03*
X97441Y258858D02*
D03*
X98425Y265748D02*
D03*
Y274606D02*
D03*
X100079Y311024D02*
D03*
X131102Y319291D02*
D03*
X152264Y334646D02*
D03*
X148327Y331693D02*
D03*
X138189Y327362D02*
D03*
X124902Y310039D02*
D03*
X145079Y251658D02*
D03*
X141217Y255520D02*
D03*
Y258945D02*
D03*
Y262370D02*
D03*
Y265795D02*
D03*
Y269220D02*
D03*
X141417Y272646D02*
D03*
X141316Y276354D02*
D03*
X141217Y283205D02*
D03*
Y286630D02*
D03*
Y290055D02*
D03*
X145079Y297342D02*
D03*
X148504D02*
D03*
X151929D02*
D03*
X155354D02*
D03*
X158780D02*
D03*
X186902Y293480D02*
D03*
Y290055D02*
D03*
Y286630D02*
D03*
Y255520D02*
D03*
X183071Y251673D02*
D03*
X179614Y251658D02*
D03*
X176189D02*
D03*
X172764D02*
D03*
X169339D02*
D03*
X165913D02*
D03*
X162205Y251757D02*
D03*
X158760Y251575D02*
D03*
X155354Y251658D02*
D03*
X151929D02*
D03*
X148504D02*
D03*
X316535Y150787D02*
D03*
X286417Y131890D02*
D03*
X269685Y152559D02*
D03*
X275590Y135827D02*
D03*
X393256Y144665D02*
D03*
X386752Y146878D02*
D03*
X380858Y147594D02*
D03*
X372862Y149874D02*
D03*
X395504Y325933D02*
D03*
X389772Y324646D02*
D03*
X396153Y232634D02*
D03*
X390390Y233421D02*
D03*
X383354Y236051D02*
D03*
X160228Y266429D02*
D03*
X166409D02*
D03*
X160228Y271587D02*
D03*
Y277413D02*
D03*
Y282571D02*
D03*
X154508Y271587D02*
D03*
Y277413D02*
D03*
X166409Y271587D02*
D03*
Y277413D02*
D03*
Y282571D02*
D03*
X172130Y277413D02*
D03*
Y271587D02*
D03*
M02*
