G04*
G04 #@! TF.GenerationSoftware,Altium Limited,Altium Designer,19.1.8 (144)*
G04*
G04 Layer_Color=65535*
%FSLAX25Y25*%
%MOIN*%
G70*
G01*
G75*
%ADD10C,0.00394*%
%ADD11C,0.00787*%
%ADD12C,0.01575*%
%ADD13C,0.01000*%
%ADD14C,0.01968*%
D10*
X176319Y319429D02*
G03*
X176319Y319429I-197J0D01*
G01*
X162047Y318839D02*
G03*
X162047Y318839I-197J0D01*
G01*
X147776Y318740D02*
G03*
X147776Y318740I-197J0D01*
G01*
D11*
X207283Y267913D02*
X223425D01*
X207283Y247835D02*
X223425D01*
X289567Y140551D02*
Y144882D01*
X283268Y140551D02*
Y144882D01*
X302110Y153937D02*
X325732D01*
X302110Y173622D02*
X325732D01*
X282677Y162795D02*
X289764D01*
X282677Y168701D02*
X289764D01*
X280315Y249803D02*
X287402D01*
X280315Y255709D02*
X287402D01*
X301181Y333465D02*
X324803D01*
X301181Y353150D02*
X324803D01*
X313386Y363386D02*
X337008D01*
X313386Y383071D02*
X337008D01*
X315236Y180965D02*
X338858D01*
X315236Y200650D02*
X338858D01*
X314567Y271760D02*
X338189D01*
X314567Y291445D02*
X338189D01*
X302362Y262598D02*
X325984D01*
X302362Y242913D02*
X325984D01*
X202669Y178528D02*
Y190535D01*
X161331Y178528D02*
Y190535D01*
X202669Y207465D02*
Y219472D01*
X161331Y207465D02*
Y219472D01*
Y178528D02*
X202669D01*
X161331Y219472D02*
X202669D01*
X291732Y171752D02*
X292520D01*
X291732Y176279D02*
X292520D01*
X280315Y206398D02*
X281102D01*
X280315Y210925D02*
X281102D01*
X324606Y218209D02*
X325394D01*
X324606Y222736D02*
X325394D01*
X329232Y306693D02*
Y307480D01*
X333760Y306693D02*
Y307480D01*
X279528Y305020D02*
X280315D01*
X279528Y300492D02*
X280315D01*
X281102Y396752D02*
X281890D01*
X281102Y392224D02*
X281890D01*
X107461Y314799D02*
Y315201D01*
X102539Y314799D02*
Y315201D01*
X280709Y338386D02*
X287795D01*
X280709Y344291D02*
X287795D01*
X386319Y244094D02*
Y244882D01*
X381398Y244094D02*
Y244882D01*
X384744Y332677D02*
Y333465D01*
X379823Y332677D02*
Y333465D01*
X375295Y157874D02*
Y158661D01*
X370374Y157874D02*
Y158661D01*
X391240Y153150D02*
Y153937D01*
X396161Y153150D02*
Y153937D01*
X405807Y333465D02*
Y334252D01*
X410728Y333465D02*
Y334252D01*
X400295Y240158D02*
Y240945D01*
X405217Y240158D02*
Y240945D01*
X207874Y277658D02*
X210236D01*
X207874Y282972D02*
X210236D01*
X217126Y238583D02*
X217520D01*
X217126Y235433D02*
X217520D01*
X209055Y231398D02*
X211417D01*
X209055Y226870D02*
X211417D01*
X38472Y265201D02*
Y277799D01*
X72528D01*
Y265201D02*
Y277799D01*
X38472Y265201D02*
X72528D01*
X37843Y257819D02*
Y263823D01*
X332579Y390551D02*
Y391339D01*
X328051Y390551D02*
Y391339D01*
X177642Y288870D02*
X178429D01*
Y288083D02*
Y288870D01*
X149689D02*
X150476D01*
X149689Y288083D02*
Y288870D01*
Y260130D02*
Y260917D01*
Y260130D02*
X150476D01*
X178429D02*
Y262098D01*
X177642Y260130D02*
X178429D01*
D12*
X150236Y220177D02*
X157244D01*
X102500Y323500D02*
X107500D01*
D13*
X249800Y205752D02*
X251768D01*
X250784D01*
Y202800D01*
X252752D02*
Y205752D01*
X254228D01*
X254720Y205260D01*
Y204276D01*
X254228Y203784D01*
X252752D01*
X257671Y205752D02*
X256688Y205260D01*
X255704Y204276D01*
Y203292D01*
X256196Y202800D01*
X257179D01*
X257671Y203292D01*
Y203784D01*
X257179Y204276D01*
X255704D01*
X249800Y317952D02*
X251768D01*
X250784D01*
Y315000D01*
X252752D02*
Y317952D01*
X254228D01*
X254720Y317460D01*
Y316476D01*
X254228Y315984D01*
X252752D01*
X257671Y317952D02*
X255704D01*
Y316476D01*
X256688Y316968D01*
X257179D01*
X257671Y316476D01*
Y315492D01*
X257179Y315000D01*
X256196D01*
X255704Y315492D01*
X247244Y390353D02*
X249212D01*
X248228D01*
Y387402D01*
X250196D02*
Y390353D01*
X251672D01*
X252164Y389861D01*
Y388878D01*
X251672Y388386D01*
X250196D01*
X254624Y387402D02*
Y390353D01*
X253148Y388878D01*
X255116D01*
X249800Y179352D02*
X251768D01*
X250784D01*
Y176400D01*
X252752D02*
Y179352D01*
X254228D01*
X254720Y178860D01*
Y177876D01*
X254228Y177384D01*
X252752D01*
X255704Y178860D02*
X256196Y179352D01*
X257179D01*
X257671Y178860D01*
Y178368D01*
X257179Y177876D01*
X256688D01*
X257179D01*
X257671Y177384D01*
Y176892D01*
X257179Y176400D01*
X256196D01*
X255704Y176892D01*
X249800Y265952D02*
X251768D01*
X250784D01*
Y263000D01*
X252752D02*
Y265952D01*
X254228D01*
X254720Y265460D01*
Y264476D01*
X254228Y263984D01*
X252752D01*
X257671Y263000D02*
X255704D01*
X257671Y264968D01*
Y265460D01*
X257179Y265952D01*
X256196D01*
X255704Y265460D01*
X246850Y352952D02*
X248818D01*
X247834D01*
Y350000D01*
X249802D02*
Y352952D01*
X251278D01*
X251770Y352460D01*
Y351476D01*
X251278Y350984D01*
X249802D01*
X252754Y350000D02*
X253738D01*
X253246D01*
Y352952D01*
X252754Y352460D01*
X137343Y230669D02*
Y233621D01*
X138818D01*
X139310Y233129D01*
Y232145D01*
X138818Y231653D01*
X137343D01*
X138327D02*
X139310Y230669D01*
X140294D02*
X141278D01*
X140786D01*
Y233621D01*
X140294Y233129D01*
X142754Y230669D02*
X143738D01*
X143246D01*
Y233621D01*
X142754Y233129D01*
X131043Y230669D02*
Y233621D01*
X132519D01*
X133011Y233129D01*
Y232145D01*
X132519Y231653D01*
X131043D01*
X132027D02*
X133011Y230669D01*
X133995Y233129D02*
X134487Y233621D01*
X135471D01*
X135963Y233129D01*
Y232637D01*
X135471Y232145D01*
X135963Y231653D01*
Y231161D01*
X135471Y230669D01*
X134487D01*
X133995Y231161D01*
Y231653D01*
X134487Y232145D01*
X133995Y232637D01*
Y233129D01*
X134487Y232145D02*
X135471D01*
X123957Y230768D02*
Y233719D01*
X125433D01*
X125925Y233228D01*
Y232244D01*
X125433Y231752D01*
X123957D01*
X124941D02*
X125925Y230768D01*
X128876Y233719D02*
X127892Y233228D01*
X126909Y232244D01*
Y231260D01*
X127401Y230768D01*
X128384D01*
X128876Y231260D01*
Y231752D01*
X128384Y232244D01*
X126909D01*
X38200Y292252D02*
X39184D01*
X38692D01*
Y289300D01*
X38200D01*
X39184D01*
X42628Y291760D02*
X42136Y292252D01*
X41152D01*
X40660Y291760D01*
Y289792D01*
X41152Y289300D01*
X42136D01*
X42628Y289792D01*
X43612Y289300D02*
X44596D01*
X44104D01*
Y292252D01*
X43612Y291760D01*
X266142Y202756D02*
Y205708D01*
X267618D01*
X268110Y205216D01*
Y204232D01*
X267618Y203740D01*
X266142D01*
X267126D02*
X268110Y202756D01*
X271061Y205708D02*
X269093D01*
Y204232D01*
X270077Y204724D01*
X270569D01*
X271061Y204232D01*
Y203248D01*
X270569Y202756D01*
X269585D01*
X269093Y203248D01*
X273521Y202756D02*
Y205708D01*
X272045Y204232D01*
X274013D01*
X264665Y295079D02*
Y298030D01*
X266141D01*
X266633Y297539D01*
Y296555D01*
X266141Y296063D01*
X264665D01*
X265649D02*
X266633Y295079D01*
X269585Y298030D02*
X267617D01*
Y296555D01*
X268601Y297047D01*
X269093D01*
X269585Y296555D01*
Y295571D01*
X269093Y295079D01*
X268109D01*
X267617Y295571D01*
X270569Y297539D02*
X271061Y298030D01*
X272045D01*
X272537Y297539D01*
Y297047D01*
X272045Y296555D01*
X271553D01*
X272045D01*
X272537Y296063D01*
Y295571D01*
X272045Y295079D01*
X271061D01*
X270569Y295571D01*
X265354Y386221D02*
Y389172D01*
X266830D01*
X267322Y388680D01*
Y387696D01*
X266830Y387204D01*
X265354D01*
X266338D02*
X267322Y386221D01*
X270274Y389172D02*
X268306D01*
Y387696D01*
X269290Y388188D01*
X269782D01*
X270274Y387696D01*
Y386712D01*
X269782Y386221D01*
X268798D01*
X268306Y386712D01*
X273226Y386221D02*
X271258D01*
X273226Y388188D01*
Y388680D01*
X272734Y389172D01*
X271750D01*
X271258Y388680D01*
X272047Y152362D02*
Y155314D01*
X273523D01*
X274015Y154822D01*
Y153838D01*
X273523Y153346D01*
X272047D01*
X273031D02*
X274015Y152362D01*
X274999Y154822D02*
X275491Y155314D01*
X276475D01*
X276967Y154822D01*
Y154330D01*
X276475Y153838D01*
X275983D01*
X276475D01*
X276967Y153346D01*
Y152854D01*
X276475Y152362D01*
X275491D01*
X274999Y152854D01*
X279919Y155314D02*
X278935Y154822D01*
X277951Y153838D01*
Y152854D01*
X278443Y152362D01*
X279427D01*
X279919Y152854D01*
Y153346D01*
X279427Y153838D01*
X277951D01*
X293307Y152362D02*
Y155314D01*
X294783D01*
X295275Y154822D01*
Y153838D01*
X294783Y153346D01*
X293307D01*
X294291D02*
X295275Y152362D01*
X296259Y154822D02*
X296751Y155314D01*
X297735D01*
X298227Y154822D01*
Y154330D01*
X297735Y153838D01*
X297243D01*
X297735D01*
X298227Y153346D01*
Y152854D01*
X297735Y152362D01*
X296751D01*
X296259Y152854D01*
X300687Y152362D02*
Y155314D01*
X299211Y153838D01*
X301179D01*
X284645Y154428D02*
X284153Y154920D01*
X283169D01*
X282677Y154428D01*
Y152461D01*
X283169Y151969D01*
X284153D01*
X284645Y152461D01*
X285629Y151969D02*
X286613D01*
X286121D01*
Y154920D01*
X285629Y154428D01*
X288089Y154920D02*
X290057D01*
Y154428D01*
X288089Y152461D01*
Y151969D01*
X200394Y394882D02*
Y397834D01*
X201870D01*
X202362Y397342D01*
Y396358D01*
X201870Y395866D01*
X200394D01*
X201378D02*
X202362Y394882D01*
X203345Y397342D02*
X203837Y397834D01*
X204821D01*
X205313Y397342D01*
Y396850D01*
X204821Y396358D01*
X204329D01*
X204821D01*
X205313Y395866D01*
Y395374D01*
X204821Y394882D01*
X203837D01*
X203345Y395374D01*
X211417Y394882D02*
Y397834D01*
X212893D01*
X213385Y397342D01*
Y396358D01*
X212893Y395866D01*
X211417D01*
X212401D02*
X213385Y394882D01*
X215845D02*
Y397834D01*
X214369Y396358D01*
X216337D01*
X175984Y394882D02*
Y397834D01*
X177460D01*
X177952Y397342D01*
Y396358D01*
X177460Y395866D01*
X175984D01*
X176968D02*
X177952Y394882D01*
X178936D02*
X179920D01*
X179428D01*
Y397834D01*
X178936Y397342D01*
X186667Y394552D02*
Y397504D01*
X188143D01*
X188635Y397012D01*
Y396028D01*
X188143Y395536D01*
X186667D01*
X187651D02*
X188635Y394552D01*
X191587D02*
X189619D01*
X191587Y396520D01*
Y397012D01*
X191095Y397504D01*
X190111D01*
X189619Y397012D01*
X165905Y322500D02*
Y325452D01*
X167381D01*
X167873Y324960D01*
Y323976D01*
X167381Y323484D01*
X165905D01*
X166889D02*
X167873Y322500D01*
X170825D02*
X168857D01*
X170825Y324468D01*
Y324960D01*
X170333Y325452D01*
X169349D01*
X168857Y324960D01*
X171809D02*
X172301Y325452D01*
X173285D01*
X173777Y324960D01*
Y324468D01*
X173285Y323976D01*
X173777Y323484D01*
Y322992D01*
X173285Y322500D01*
X172301D01*
X171809Y322992D01*
Y323484D01*
X172301Y323976D01*
X171809Y324468D01*
Y324960D01*
X172301Y323976D02*
X173285D01*
X149606Y322441D02*
Y325393D01*
X151082D01*
X151574Y324901D01*
Y323917D01*
X151082Y323425D01*
X149606D01*
X150590D02*
X151574Y322441D01*
X154526D02*
X152558D01*
X154526Y324409D01*
Y324901D01*
X154034Y325393D01*
X153050D01*
X152558Y324901D01*
X155510Y325393D02*
X157478D01*
Y324901D01*
X155510Y322933D01*
Y322441D01*
X134252Y321260D02*
Y324212D01*
X135728D01*
X136220Y323720D01*
Y322736D01*
X135728Y322244D01*
X134252D01*
X135236D02*
X136220Y321260D01*
X139172D02*
X137204D01*
X139172Y323228D01*
Y323720D01*
X138680Y324212D01*
X137696D01*
X137204Y323720D01*
X141631Y321260D02*
Y324212D01*
X140156Y322736D01*
X142123D01*
X111024Y321654D02*
Y324605D01*
X112499D01*
X112991Y324113D01*
Y323129D01*
X112499Y322638D01*
X111024D01*
X112008D02*
X112991Y321654D01*
X113975D02*
X114959D01*
X114467D01*
Y324605D01*
X113975Y324113D01*
X118403Y324605D02*
X116435D01*
Y323129D01*
X117419Y323621D01*
X117911D01*
X118403Y323129D01*
Y322146D01*
X117911Y321654D01*
X116927D01*
X116435Y322146D01*
X93701Y328542D02*
Y325590D01*
X95177D01*
X95669Y326082D01*
Y328050D01*
X95177Y328542D01*
X93701D01*
X98620Y328050D02*
X98128Y328542D01*
X97145D01*
X96653Y328050D01*
Y327558D01*
X97145Y327066D01*
X98128D01*
X98620Y326574D01*
Y326082D01*
X98128Y325590D01*
X97145D01*
X96653Y326082D01*
X99604Y325590D02*
X100588D01*
X100096D01*
Y328542D01*
X99604Y328050D01*
X150100Y295452D02*
Y292992D01*
X150592Y292500D01*
X151576D01*
X152068Y292992D01*
Y295452D01*
X155020Y292500D02*
X153052D01*
X155020Y294468D01*
Y294960D01*
X154528Y295452D01*
X153544D01*
X153052Y294960D01*
X275197Y213386D02*
Y216338D01*
X276673D01*
X277165Y215846D01*
Y214862D01*
X276673Y214370D01*
X275197D01*
X276181D02*
X277165Y213386D01*
X280117Y216338D02*
X278149D01*
Y214862D01*
X279133Y215354D01*
X279625D01*
X280117Y214862D01*
Y213878D01*
X279625Y213386D01*
X278641D01*
X278149Y213878D01*
X281101Y216338D02*
X283068D01*
Y215846D01*
X281101Y213878D01*
Y213386D01*
X275091Y307587D02*
Y310538D01*
X276566D01*
X277058Y310046D01*
Y309063D01*
X276566Y308571D01*
X275091D01*
X276075D02*
X277058Y307587D01*
X280010Y310538D02*
X278042D01*
Y309063D01*
X279026Y309554D01*
X279518D01*
X280010Y309063D01*
Y308079D01*
X279518Y307587D01*
X278534D01*
X278042Y308079D01*
X282962Y310538D02*
X281978Y310046D01*
X280994Y309063D01*
Y308079D01*
X281486Y307587D01*
X282470D01*
X282962Y308079D01*
Y308571D01*
X282470Y309063D01*
X280994D01*
X274803Y399606D02*
Y402558D01*
X276279D01*
X276771Y402066D01*
Y401082D01*
X276279Y400590D01*
X274803D01*
X275787D02*
X276771Y399606D01*
X279723Y402558D02*
X277755D01*
Y401082D01*
X278739Y401574D01*
X279231D01*
X279723Y401082D01*
Y400098D01*
X279231Y399606D01*
X278247D01*
X277755Y400098D01*
X282675Y402558D02*
X280707D01*
Y401082D01*
X281691Y401574D01*
X282183D01*
X282675Y401082D01*
Y400098D01*
X282183Y399606D01*
X281199D01*
X280707Y400098D01*
X376378Y147244D02*
Y150196D01*
X377854D01*
X378346Y149704D01*
Y148720D01*
X377854Y148228D01*
X376378D01*
X377362D02*
X378346Y147244D01*
X381298Y150196D02*
X379330D01*
Y148720D01*
X380314Y149212D01*
X380806D01*
X381298Y148720D01*
Y147736D01*
X380806Y147244D01*
X379822D01*
X379330Y147736D01*
X382282Y147244D02*
X383265D01*
X382773D01*
Y150196D01*
X382282Y149704D01*
X386614Y234252D02*
Y237204D01*
X388090D01*
X388582Y236712D01*
Y235728D01*
X388090Y235236D01*
X386614D01*
X387598D02*
X388582Y234252D01*
X391534Y237204D02*
X389566D01*
Y235728D01*
X390550Y236220D01*
X391042D01*
X391534Y235728D01*
Y234744D01*
X391042Y234252D01*
X390058D01*
X389566Y234744D01*
X392518Y236712D02*
X393010Y237204D01*
X393994D01*
X394486Y236712D01*
Y234744D01*
X393994Y234252D01*
X393010D01*
X392518Y234744D01*
Y236712D01*
X385433Y323228D02*
Y326180D01*
X386909D01*
X387401Y325688D01*
Y324704D01*
X386909Y324212D01*
X385433D01*
X386417D02*
X387401Y323228D01*
X389861D02*
Y326180D01*
X388385Y324704D01*
X390353D01*
X391337Y323720D02*
X391829Y323228D01*
X392813D01*
X393305Y323720D01*
Y325688D01*
X392813Y326180D01*
X391829D01*
X391337Y325688D01*
Y325196D01*
X391829Y324704D01*
X393305D01*
X369291Y164567D02*
Y167519D01*
X370767D01*
X371259Y167027D01*
Y166043D01*
X370767Y165551D01*
X369291D01*
X370275D02*
X371259Y164567D01*
X373719D02*
Y167519D01*
X372243Y166043D01*
X374211D01*
X375195Y167027D02*
X375687Y167519D01*
X376671D01*
X377163Y167027D01*
Y166535D01*
X376671Y166043D01*
X377163Y165551D01*
Y165059D01*
X376671Y164567D01*
X375687D01*
X375195Y165059D01*
Y165551D01*
X375687Y166043D01*
X375195Y166535D01*
Y167027D01*
X375687Y166043D02*
X376671D01*
X372047Y240945D02*
Y243897D01*
X373523D01*
X374015Y243405D01*
Y242421D01*
X373523Y241929D01*
X372047D01*
X373031D02*
X374015Y240945D01*
X376475D02*
Y243897D01*
X374999Y242421D01*
X376967D01*
X377951Y243897D02*
X379919D01*
Y243405D01*
X377951Y241437D01*
Y240945D01*
X370472Y329134D02*
Y332086D01*
X371948D01*
X372440Y331594D01*
Y330610D01*
X371948Y330118D01*
X370472D01*
X371456D02*
X372440Y329134D01*
X374900D02*
Y332086D01*
X373424Y330610D01*
X375392D01*
X378344Y332086D02*
X377360Y331594D01*
X376376Y330610D01*
Y329626D01*
X376868Y329134D01*
X377852D01*
X378344Y329626D01*
Y330118D01*
X377852Y330610D01*
X376376D01*
X377953Y170472D02*
Y173424D01*
X379429D01*
X379921Y172932D01*
Y171948D01*
X379429Y171456D01*
X377953D01*
X378937D02*
X379921Y170472D01*
X382381D02*
Y173424D01*
X380905Y171948D01*
X382872D01*
X385824Y173424D02*
X383856D01*
Y171948D01*
X384840Y172440D01*
X385332D01*
X385824Y171948D01*
Y170964D01*
X385332Y170472D01*
X384348D01*
X383856Y170964D01*
X386614Y256299D02*
Y259251D01*
X388090D01*
X388582Y258759D01*
Y257775D01*
X388090Y257283D01*
X386614D01*
X387598D02*
X388582Y256299D01*
X391042D02*
Y259251D01*
X389566Y257775D01*
X391534D01*
X393994Y256299D02*
Y259251D01*
X392518Y257775D01*
X394486D01*
X382283Y345276D02*
Y348227D01*
X383759D01*
X384251Y347735D01*
Y346751D01*
X383759Y346259D01*
X382283D01*
X383267D02*
X384251Y345276D01*
X386711D02*
Y348227D01*
X385235Y346751D01*
X387203D01*
X388187Y347735D02*
X388679Y348227D01*
X389663D01*
X390155Y347735D01*
Y347243D01*
X389663Y346751D01*
X389171D01*
X389663D01*
X390155Y346259D01*
Y345768D01*
X389663Y345276D01*
X388679D01*
X388187Y345768D01*
X320079Y224410D02*
Y227361D01*
X321555D01*
X322047Y226869D01*
Y225885D01*
X321555Y225393D01*
X320079D01*
X321063D02*
X322047Y224410D01*
X324506D02*
Y227361D01*
X323030Y225885D01*
X324998D01*
X327950Y224410D02*
X325982D01*
X327950Y226377D01*
Y226869D01*
X327458Y227361D01*
X326474D01*
X325982Y226869D01*
X327165Y313779D02*
Y316731D01*
X328641D01*
X329133Y316239D01*
Y315255D01*
X328641Y314763D01*
X327165D01*
X328149D02*
X329133Y313779D01*
X331593D02*
Y316731D01*
X330117Y315255D01*
X332085D01*
X333069Y313779D02*
X334053D01*
X333561D01*
Y316731D01*
X333069Y316239D01*
X327900Y399400D02*
Y402352D01*
X329376D01*
X329868Y401860D01*
Y400876D01*
X329376Y400384D01*
X327900D01*
X328884D02*
X329868Y399400D01*
X332328D02*
Y402352D01*
X330852Y400876D01*
X332820D01*
X333804Y401860D02*
X334296Y402352D01*
X335279D01*
X335771Y401860D01*
Y399892D01*
X335279Y399400D01*
X334296D01*
X333804Y399892D01*
Y401860D01*
X398031Y151969D02*
Y154920D01*
X399507D01*
X399999Y154428D01*
Y153444D01*
X399507Y152952D01*
X398031D01*
X399015D02*
X399999Y151969D01*
X400983Y154428D02*
X401475Y154920D01*
X402459D01*
X402951Y154428D01*
Y153936D01*
X402459Y153444D01*
X401967D01*
X402459D01*
X402951Y152952D01*
Y152461D01*
X402459Y151969D01*
X401475D01*
X400983Y152461D01*
X403935D02*
X404427Y151969D01*
X405411D01*
X405903Y152461D01*
Y154428D01*
X405411Y154920D01*
X404427D01*
X403935Y154428D01*
Y153936D01*
X404427Y153444D01*
X405903D01*
X406693Y235827D02*
Y238779D01*
X408169D01*
X408661Y238287D01*
Y237303D01*
X408169Y236811D01*
X406693D01*
X407677D02*
X408661Y235827D01*
X409645Y238287D02*
X410137Y238779D01*
X411121D01*
X411613Y238287D01*
Y237795D01*
X411121Y237303D01*
X410629D01*
X411121D01*
X411613Y236811D01*
Y236319D01*
X411121Y235827D01*
X410137D01*
X409645Y236319D01*
X412597Y238287D02*
X413089Y238779D01*
X414072D01*
X414564Y238287D01*
Y237795D01*
X414072Y237303D01*
X414564Y236811D01*
Y236319D01*
X414072Y235827D01*
X413089D01*
X412597Y236319D01*
Y236811D01*
X413089Y237303D01*
X412597Y237795D01*
Y238287D01*
X413089Y237303D02*
X414072D01*
X405512Y323228D02*
Y326180D01*
X406988D01*
X407480Y325688D01*
Y324704D01*
X406988Y324212D01*
X405512D01*
X406496D02*
X407480Y323228D01*
X408464Y325688D02*
X408956Y326180D01*
X409939D01*
X410431Y325688D01*
Y325196D01*
X409939Y324704D01*
X409448D01*
X409939D01*
X410431Y324212D01*
Y323720D01*
X409939Y323228D01*
X408956D01*
X408464Y323720D01*
X411415Y326180D02*
X413383D01*
Y325688D01*
X411415Y323720D01*
Y323228D01*
X285827Y177165D02*
Y180117D01*
X287303D01*
X287795Y179625D01*
Y178641D01*
X287303Y178149D01*
X285827D01*
X286811D02*
X287795Y177165D01*
X288779Y179625D02*
X289271Y180117D01*
X290254D01*
X290746Y179625D01*
Y179133D01*
X290254Y178641D01*
X289762D01*
X290254D01*
X290746Y178149D01*
Y177657D01*
X290254Y177165D01*
X289271D01*
X288779Y177657D01*
X293698Y180117D02*
X291730D01*
Y178641D01*
X292714Y179133D01*
X293206D01*
X293698Y178641D01*
Y177657D01*
X293206Y177165D01*
X292222D01*
X291730Y177657D01*
X181496Y242126D02*
Y245078D01*
X182972D01*
X183464Y244586D01*
Y243602D01*
X182972Y243110D01*
X181496D01*
X182480D02*
X183464Y242126D01*
X184448Y244586D02*
X184940Y245078D01*
X185924D01*
X186416Y244586D01*
Y244094D01*
X185924Y243602D01*
X185432D01*
X185924D01*
X186416Y243110D01*
Y242618D01*
X185924Y242126D01*
X184940D01*
X184448Y242618D01*
X187400Y244586D02*
X187892Y245078D01*
X188876D01*
X189368Y244586D01*
Y244094D01*
X188876Y243602D01*
X188384D01*
X188876D01*
X189368Y243110D01*
Y242618D01*
X188876Y242126D01*
X187892D01*
X187400Y242618D01*
X190748Y235528D02*
Y238479D01*
X192224D01*
X192716Y237987D01*
Y237003D01*
X192224Y236511D01*
X190748D01*
X191732D02*
X192716Y235528D01*
X193700Y237987D02*
X194192Y238479D01*
X195176D01*
X195668Y237987D01*
Y237495D01*
X195176Y237003D01*
X194684D01*
X195176D01*
X195668Y236511D01*
Y236019D01*
X195176Y235528D01*
X194192D01*
X193700Y236019D01*
X196652Y237987D02*
X197144Y238479D01*
X198127D01*
X198619Y237987D01*
Y236019D01*
X198127Y235528D01*
X197144D01*
X196652Y236019D01*
Y237987D01*
X173228Y231496D02*
Y234448D01*
X174704D01*
X175196Y233956D01*
Y232972D01*
X174704Y232480D01*
X173228D01*
X174212D02*
X175196Y231496D01*
X178148D02*
X176180D01*
X178148Y233464D01*
Y233956D01*
X177656Y234448D01*
X176672D01*
X176180Y233956D01*
X179132Y231988D02*
X179624Y231496D01*
X180608D01*
X181100Y231988D01*
Y233956D01*
X180608Y234448D01*
X179624D01*
X179132Y233956D01*
Y233464D01*
X179624Y232972D01*
X181100D01*
X164173Y231496D02*
Y234448D01*
X165649D01*
X166141Y233956D01*
Y232972D01*
X165649Y232480D01*
X164173D01*
X165157D02*
X166141Y231496D01*
X169093D02*
X167125D01*
X169093Y233464D01*
Y233956D01*
X168601Y234448D01*
X167617D01*
X167125Y233956D01*
X172045Y234448D02*
X171061Y233956D01*
X170077Y232972D01*
Y231988D01*
X170569Y231496D01*
X171553D01*
X172045Y231988D01*
Y232480D01*
X171553Y232972D01*
X170077D01*
X211392Y240260D02*
Y243212D01*
X212868D01*
X213360Y242720D01*
Y241736D01*
X212868Y241244D01*
X211392D01*
X212376D02*
X213360Y240260D01*
X216312D02*
X214344D01*
X216312Y242228D01*
Y242720D01*
X215820Y243212D01*
X214836D01*
X214344Y242720D01*
X219264Y243212D02*
X217296D01*
Y241736D01*
X218280Y242228D01*
X218772D01*
X219264Y241736D01*
Y240752D01*
X218772Y240260D01*
X217788D01*
X217296Y240752D01*
X120472Y294882D02*
Y297834D01*
X121948D01*
X122440Y297342D01*
Y296358D01*
X121948Y295866D01*
X120472D01*
X121456D02*
X122440Y294882D01*
X125392D02*
X123424D01*
X125392Y296850D01*
Y297342D01*
X124900Y297834D01*
X123916D01*
X123424Y297342D01*
X126376Y294882D02*
X127360D01*
X126868D01*
Y297834D01*
X126376Y297342D01*
X113488Y244216D02*
Y247168D01*
X114964D01*
X115456Y246676D01*
Y245692D01*
X114964Y245200D01*
X113488D01*
X114472D02*
X115456Y244216D01*
X118408D02*
X116440D01*
X118408Y246184D01*
Y246676D01*
X117916Y247168D01*
X116932D01*
X116440Y246676D01*
X119392D02*
X119884Y247168D01*
X120868D01*
X121360Y246676D01*
Y244708D01*
X120868Y244216D01*
X119884D01*
X119392Y244708D01*
Y246676D01*
X118898Y254331D02*
Y257282D01*
X120373D01*
X120865Y256790D01*
Y255807D01*
X120373Y255315D01*
X118898D01*
X119882D02*
X120865Y254331D01*
X121850D02*
X122833D01*
X122341D01*
Y257282D01*
X121850Y256790D01*
X124309Y254823D02*
X124801Y254331D01*
X125785D01*
X126277Y254823D01*
Y256790D01*
X125785Y257282D01*
X124801D01*
X124309Y256790D01*
Y256299D01*
X124801Y255807D01*
X126277D01*
X110236Y312205D02*
Y315157D01*
X111712D01*
X112204Y314665D01*
Y313681D01*
X111712Y313189D01*
X110236D01*
X111220D02*
X112204Y312205D01*
X113188D02*
X114172D01*
X113680D01*
Y315157D01*
X113188Y314665D01*
X115648D02*
X116140Y315157D01*
X117124D01*
X117616Y314665D01*
Y314173D01*
X117124Y313681D01*
X116632D01*
X117124D01*
X117616Y313189D01*
Y312697D01*
X117124Y312205D01*
X116140D01*
X115648Y312697D01*
X120079Y270866D02*
Y273818D01*
X121555D01*
X122047Y273326D01*
Y272342D01*
X121555Y271850D01*
X120079D01*
X121063D02*
X122047Y270866D01*
X123030D02*
X124014D01*
X123522D01*
Y273818D01*
X123030Y273326D01*
X125490D02*
X125982Y273818D01*
X126966D01*
X127458Y273326D01*
Y272834D01*
X126966Y272342D01*
X127458Y271850D01*
Y271358D01*
X126966Y270866D01*
X125982D01*
X125490Y271358D01*
Y271850D01*
X125982Y272342D01*
X125490Y272834D01*
Y273326D01*
X125982Y272342D02*
X126966D01*
X120168Y283658D02*
Y286610D01*
X121644D01*
X122136Y286118D01*
Y285134D01*
X121644Y284642D01*
X120168D01*
X121152D02*
X122136Y283658D01*
X123120D02*
X124104D01*
X123612D01*
Y286610D01*
X123120Y286118D01*
X125580Y286610D02*
X127548D01*
Y286118D01*
X125580Y284150D01*
Y283658D01*
X92520Y286221D02*
Y289172D01*
X93996D01*
X94488Y288680D01*
Y287696D01*
X93996Y287204D01*
X92520D01*
X93504D02*
X94488Y286221D01*
X95472D02*
X96455D01*
X95964D01*
Y289172D01*
X95472Y288680D01*
X99899Y289172D02*
X98915Y288680D01*
X97931Y287696D01*
Y286712D01*
X98423Y286221D01*
X99407D01*
X99899Y286712D01*
Y287204D01*
X99407Y287696D01*
X97931D01*
X105933Y291272D02*
Y294223D01*
X107409D01*
X107901Y293731D01*
Y292748D01*
X107409Y292256D01*
X105933D01*
X106917D02*
X107901Y291272D01*
X108885D02*
X109869D01*
X109377D01*
Y294223D01*
X108885Y293731D01*
X112821Y291272D02*
Y294223D01*
X111345Y292748D01*
X113313D01*
X98783Y252261D02*
Y255213D01*
X100259D01*
X100751Y254721D01*
Y253737D01*
X100259Y253245D01*
X98783D01*
X99767D02*
X100751Y252261D01*
X103703D02*
X101735D01*
X103703Y254229D01*
Y254721D01*
X103211Y255213D01*
X102227D01*
X101735Y254721D01*
X104687D02*
X105179Y255213D01*
X106163D01*
X106655Y254721D01*
Y254229D01*
X106163Y253737D01*
X105671D01*
X106163D01*
X106655Y253245D01*
Y252753D01*
X106163Y252261D01*
X105179D01*
X104687Y252753D01*
X100000Y260630D02*
Y263582D01*
X101476D01*
X101968Y263090D01*
Y262106D01*
X101476Y261614D01*
X100000D01*
X100984D02*
X101968Y260630D01*
X104920D02*
X102952D01*
X104920Y262598D01*
Y263090D01*
X104428Y263582D01*
X103444D01*
X102952Y263090D01*
X107871Y260630D02*
X105904D01*
X107871Y262598D01*
Y263090D01*
X107379Y263582D01*
X106396D01*
X105904Y263090D01*
X195276Y242913D02*
Y245865D01*
X196751D01*
X197243Y245373D01*
Y244389D01*
X196751Y243897D01*
X195276D01*
X196259D02*
X197243Y242913D01*
X198227D02*
X199211D01*
X198719D01*
Y245865D01*
X198227Y245373D01*
X202655Y242913D02*
X200687D01*
X202655Y244881D01*
Y245373D01*
X202163Y245865D01*
X201179D01*
X200687Y245373D01*
X100394Y268504D02*
Y271456D01*
X101870D01*
X102362Y270964D01*
Y269980D01*
X101870Y269488D01*
X100394D01*
X101378D02*
X102362Y268504D01*
X103346Y270964D02*
X103838Y271456D01*
X104821D01*
X105313Y270964D01*
Y270472D01*
X104821Y269980D01*
X104329D01*
X104821D01*
X105313Y269488D01*
Y268996D01*
X104821Y268504D01*
X103838D01*
X103346Y268996D01*
X108265Y268504D02*
X106297D01*
X108265Y270472D01*
Y270964D01*
X107773Y271456D01*
X106789D01*
X106297Y270964D01*
X196063Y270866D02*
Y273818D01*
X197539D01*
X198031Y273326D01*
Y272342D01*
X197539Y271850D01*
X196063D01*
X197047D02*
X198031Y270866D01*
X199015Y271358D02*
X199507Y270866D01*
X200491D01*
X200983Y271358D01*
Y273326D01*
X200491Y273818D01*
X199507D01*
X199015Y273326D01*
Y272834D01*
X199507Y272342D01*
X200983D01*
X99728Y277567D02*
Y280519D01*
X101204D01*
X101696Y280027D01*
Y279043D01*
X101204Y278551D01*
X99728D01*
X100712D02*
X101696Y277567D01*
X102680Y280027D02*
X103172Y280519D01*
X104156D01*
X104648Y280027D01*
Y279535D01*
X104156Y279043D01*
X103664D01*
X104156D01*
X104648Y278551D01*
Y278059D01*
X104156Y277567D01*
X103172D01*
X102680Y278059D01*
X105632Y277567D02*
X106616D01*
X106124D01*
Y280519D01*
X105632Y280027D01*
X163386Y213582D02*
Y210630D01*
X165354D01*
X166338D02*
X167322D01*
X166830D01*
Y213582D01*
X166338Y213090D01*
X144882Y219093D02*
Y216142D01*
X146358D01*
X146850Y216634D01*
Y218602D01*
X146358Y219093D01*
X144882D01*
X147834Y216142D02*
X148818D01*
X148326D01*
Y219093D01*
X147834Y218602D01*
X290551Y215058D02*
X290059Y215550D01*
X289075D01*
X288583Y215058D01*
Y213090D01*
X289075Y212598D01*
X290059D01*
X290551Y213090D01*
X291534Y215058D02*
X292026Y215550D01*
X293010D01*
X293502Y215058D01*
Y214566D01*
X293010Y214074D01*
X292518D01*
X293010D01*
X293502Y213582D01*
Y213090D01*
X293010Y212598D01*
X292026D01*
X291534Y213090D01*
X294486Y215058D02*
X294978Y215550D01*
X295962D01*
X296454Y215058D01*
Y214566D01*
X295962Y214074D01*
X296454Y213582D01*
Y213090D01*
X295962Y212598D01*
X294978D01*
X294486Y213090D01*
Y213582D01*
X294978Y214074D01*
X294486Y214566D01*
Y215058D01*
X294978Y214074D02*
X295962D01*
X290551Y306397D02*
X290059Y306889D01*
X289075D01*
X288583Y306397D01*
Y304429D01*
X289075Y303937D01*
X290059D01*
X290551Y304429D01*
X291534Y306397D02*
X292026Y306889D01*
X293010D01*
X293502Y306397D01*
Y305905D01*
X293010Y305413D01*
X292518D01*
X293010D01*
X293502Y304921D01*
Y304429D01*
X293010Y303937D01*
X292026D01*
X291534Y304429D01*
X294486Y306889D02*
X296454D01*
Y306397D01*
X294486Y304429D01*
Y303937D01*
X290551Y400098D02*
X290059Y400590D01*
X289075D01*
X288583Y400098D01*
Y398130D01*
X289075Y397638D01*
X290059D01*
X290551Y398130D01*
X291534Y400098D02*
X292026Y400590D01*
X293010D01*
X293502Y400098D01*
Y399606D01*
X293010Y399114D01*
X292518D01*
X293010D01*
X293502Y398622D01*
Y398130D01*
X293010Y397638D01*
X292026D01*
X291534Y398130D01*
X296454Y400590D02*
X295470Y400098D01*
X294486Y399114D01*
Y398130D01*
X294978Y397638D01*
X295962D01*
X296454Y398130D01*
Y398622D01*
X295962Y399114D01*
X294486D01*
X385039Y144980D02*
X384547Y145472D01*
X383563D01*
X383071Y144980D01*
Y143012D01*
X383563Y142520D01*
X384547D01*
X385039Y143012D01*
X386023Y144980D02*
X386515Y145472D01*
X387499D01*
X387990Y144980D01*
Y144488D01*
X387499Y143996D01*
X387007D01*
X387499D01*
X387990Y143504D01*
Y143012D01*
X387499Y142520D01*
X386515D01*
X386023Y143012D01*
X390942Y145472D02*
X388974D01*
Y143996D01*
X389958Y144488D01*
X390450D01*
X390942Y143996D01*
Y143012D01*
X390450Y142520D01*
X389467D01*
X388974Y143012D01*
X395275Y233169D02*
X394783Y233661D01*
X393799D01*
X393307Y233169D01*
Y231201D01*
X393799Y230709D01*
X394783D01*
X395275Y231201D01*
X396259Y233169D02*
X396751Y233661D01*
X397735D01*
X398227Y233169D01*
Y232677D01*
X397735Y232185D01*
X397243D01*
X397735D01*
X398227Y231693D01*
Y231201D01*
X397735Y230709D01*
X396751D01*
X396259Y231201D01*
X400687Y230709D02*
Y233661D01*
X399211Y232185D01*
X401179D01*
X396850Y326082D02*
X396358Y326574D01*
X395374D01*
X394882Y326082D01*
Y324114D01*
X395374Y323622D01*
X396358D01*
X396850Y324114D01*
X397834Y326082D02*
X398326Y326574D01*
X399310D01*
X399802Y326082D01*
Y325590D01*
X399310Y325098D01*
X398818D01*
X399310D01*
X399802Y324606D01*
Y324114D01*
X399310Y323622D01*
X398326D01*
X397834Y324114D01*
X400785Y326082D02*
X401277Y326574D01*
X402261D01*
X402753Y326082D01*
Y325590D01*
X402261Y325098D01*
X401769D01*
X402261D01*
X402753Y324606D01*
Y324114D01*
X402261Y323622D01*
X401277D01*
X400785Y324114D01*
X303149Y189074D02*
X302657Y189566D01*
X301673D01*
X301181Y189074D01*
Y187106D01*
X301673Y186614D01*
X302657D01*
X303149Y187106D01*
X304133Y189074D02*
X304625Y189566D01*
X305609D01*
X306101Y189074D01*
Y188582D01*
X305609Y188090D01*
X305117D01*
X305609D01*
X306101Y187598D01*
Y187106D01*
X305609Y186614D01*
X304625D01*
X304133Y187106D01*
X309053Y186614D02*
X307085D01*
X309053Y188582D01*
Y189074D01*
X308561Y189566D01*
X307577D01*
X307085Y189074D01*
X304216Y279444D02*
X303724Y279936D01*
X302740D01*
X302248Y279444D01*
Y277476D01*
X302740Y276984D01*
X303724D01*
X304216Y277476D01*
X305200Y279444D02*
X305692Y279936D01*
X306676D01*
X307168Y279444D01*
Y278952D01*
X306676Y278460D01*
X306184D01*
X306676D01*
X307168Y277968D01*
Y277476D01*
X306676Y276984D01*
X305692D01*
X305200Y277476D01*
X308152Y276984D02*
X309136D01*
X308644D01*
Y279936D01*
X308152Y279444D01*
X302362Y372932D02*
X301870Y373424D01*
X300886D01*
X300394Y372932D01*
Y370964D01*
X300886Y370472D01*
X301870D01*
X302362Y370964D01*
X303345Y372932D02*
X303837Y373424D01*
X304821D01*
X305313Y372932D01*
Y372440D01*
X304821Y371948D01*
X304329D01*
X304821D01*
X305313Y371456D01*
Y370964D01*
X304821Y370472D01*
X303837D01*
X303345Y370964D01*
X306297Y372932D02*
X306789Y373424D01*
X307773D01*
X308265Y372932D01*
Y370964D01*
X307773Y370472D01*
X306789D01*
X306297Y370964D01*
Y372932D01*
X363385Y172539D02*
X362893Y173030D01*
X361909D01*
X361417Y172539D01*
Y170571D01*
X361909Y170079D01*
X362893D01*
X363385Y170571D01*
X366337Y170079D02*
X364369D01*
X366337Y172047D01*
Y172539D01*
X365845Y173030D01*
X364861D01*
X364369Y172539D01*
X367321Y170571D02*
X367813Y170079D01*
X368797D01*
X369289Y170571D01*
Y172539D01*
X368797Y173030D01*
X367813D01*
X367321Y172539D01*
Y172047D01*
X367813Y171555D01*
X369289D01*
X373621Y258365D02*
X373129Y258857D01*
X372146D01*
X371654Y258365D01*
Y256398D01*
X372146Y255906D01*
X373129D01*
X373621Y256398D01*
X376573Y255906D02*
X374605D01*
X376573Y257873D01*
Y258365D01*
X376081Y258857D01*
X375097D01*
X374605Y258365D01*
X377557D02*
X378049Y258857D01*
X379033D01*
X379525Y258365D01*
Y257873D01*
X379033Y257381D01*
X379525Y256889D01*
Y256398D01*
X379033Y255906D01*
X378049D01*
X377557Y256398D01*
Y256889D01*
X378049Y257381D01*
X377557Y257873D01*
Y258365D01*
X378049Y257381D02*
X379033D01*
X370866Y347735D02*
X370374Y348227D01*
X369390D01*
X368898Y347735D01*
Y345768D01*
X369390Y345276D01*
X370374D01*
X370866Y345768D01*
X373817Y345276D02*
X371849D01*
X373817Y347243D01*
Y347735D01*
X373325Y348227D01*
X372341D01*
X371849Y347735D01*
X374801Y348227D02*
X376769D01*
Y347735D01*
X374801Y345768D01*
Y345276D01*
X391338Y172932D02*
X390846Y173424D01*
X389862D01*
X389370Y172932D01*
Y170964D01*
X389862Y170472D01*
X390846D01*
X391338Y170964D01*
X394290Y170472D02*
X392322D01*
X394290Y172440D01*
Y172932D01*
X393798Y173424D01*
X392814D01*
X392322Y172932D01*
X397242Y173424D02*
X396258Y172932D01*
X395274Y171948D01*
Y170964D01*
X395766Y170472D01*
X396750D01*
X397242Y170964D01*
Y171456D01*
X396750Y171948D01*
X395274D01*
X401181Y259153D02*
X400689Y259645D01*
X399705D01*
X399213Y259153D01*
Y257185D01*
X399705Y256693D01*
X400689D01*
X401181Y257185D01*
X404132Y256693D02*
X402164D01*
X404132Y258661D01*
Y259153D01*
X403640Y259645D01*
X402656D01*
X402164Y259153D01*
X407084Y259645D02*
X405116D01*
Y258169D01*
X406100Y258661D01*
X406592D01*
X407084Y258169D01*
Y257185D01*
X406592Y256693D01*
X405608D01*
X405116Y257185D01*
X397243Y347342D02*
X396751Y347834D01*
X395768D01*
X395276Y347342D01*
Y345374D01*
X395768Y344882D01*
X396751D01*
X397243Y345374D01*
X400195Y344882D02*
X398227D01*
X400195Y346850D01*
Y347342D01*
X399703Y347834D01*
X398719D01*
X398227Y347342D01*
X401179D02*
X401671Y347834D01*
X402655D01*
X403147Y347342D01*
Y346850D01*
X402655Y346358D01*
X402163D01*
X402655D01*
X403147Y345866D01*
Y345374D01*
X402655Y344882D01*
X401671D01*
X401179Y345374D01*
X331495Y177657D02*
X331003Y178149D01*
X330019D01*
X329528Y177657D01*
Y175689D01*
X330019Y175197D01*
X331003D01*
X331495Y175689D01*
X334447Y175197D02*
X332479D01*
X334447Y177165D01*
Y177657D01*
X333955Y178149D01*
X332971D01*
X332479Y177657D01*
X337399Y175197D02*
X335431D01*
X337399Y177165D01*
Y177657D01*
X336907Y178149D01*
X335923D01*
X335431Y177657D01*
X318503Y271357D02*
X318011Y271849D01*
X317027D01*
X316535Y271357D01*
Y269390D01*
X317027Y268898D01*
X318011D01*
X318503Y269390D01*
X321455Y268898D02*
X319487D01*
X321455Y270866D01*
Y271357D01*
X320963Y271849D01*
X319979D01*
X319487Y271357D01*
X323915Y268898D02*
Y271849D01*
X322439Y270374D01*
X324407D01*
X316535Y362696D02*
X316043Y363188D01*
X315059D01*
X314567Y362696D01*
Y360728D01*
X315059Y360236D01*
X316043D01*
X316535Y360728D01*
X319487Y360236D02*
X317519D01*
X319487Y362204D01*
Y362696D01*
X318995Y363188D01*
X318011D01*
X317519Y362696D01*
X320471Y360236D02*
X321455D01*
X320963D01*
Y363188D01*
X320471Y362696D01*
X279905Y172554D02*
X279413Y173046D01*
X278429D01*
X277937Y172554D01*
Y170586D01*
X278429Y170095D01*
X279413D01*
X279905Y170586D01*
X282857Y170095D02*
X280889D01*
X282857Y172062D01*
Y172554D01*
X282365Y173046D01*
X281381D01*
X280889Y172554D01*
X283841D02*
X284333Y173046D01*
X285316D01*
X285808Y172554D01*
Y170586D01*
X285316Y170095D01*
X284333D01*
X283841Y170586D01*
Y172554D01*
X278333Y260433D02*
X277841Y260925D01*
X276857D01*
X276365Y260433D01*
Y258465D01*
X276857Y257973D01*
X277841D01*
X278333Y258465D01*
X279317Y257973D02*
X280300D01*
X279808D01*
Y260925D01*
X279317Y260433D01*
X281776Y258465D02*
X282268Y257973D01*
X283252D01*
X283744Y258465D01*
Y260433D01*
X283252Y260925D01*
X282268D01*
X281776Y260433D01*
Y259941D01*
X282268Y259449D01*
X283744D01*
X280519Y348145D02*
X280027Y348637D01*
X279043D01*
X278551Y348145D01*
Y346177D01*
X279043Y345685D01*
X280027D01*
X280519Y346177D01*
X281503Y345685D02*
X282487D01*
X281995D01*
Y348637D01*
X281503Y348145D01*
X283963D02*
X284455Y348637D01*
X285439D01*
X285931Y348145D01*
Y347653D01*
X285439Y347161D01*
X285931Y346669D01*
Y346177D01*
X285439Y345685D01*
X284455D01*
X283963Y346177D01*
Y346669D01*
X284455Y347161D01*
X283963Y347653D01*
Y348145D01*
X284455Y347161D02*
X285439D01*
X166929Y249704D02*
X166437Y250196D01*
X165453D01*
X164961Y249704D01*
Y247736D01*
X165453Y247244D01*
X166437D01*
X166929Y247736D01*
X167912Y247244D02*
X168896D01*
X168404D01*
Y250196D01*
X167912Y249704D01*
X172340Y250196D02*
X171356Y249704D01*
X170372Y248720D01*
Y247736D01*
X170864Y247244D01*
X171848D01*
X172340Y247736D01*
Y248228D01*
X171848Y248720D01*
X170372D01*
X194488Y263484D02*
X193996Y263975D01*
X193012D01*
X192520Y263484D01*
Y261516D01*
X193012Y261024D01*
X193996D01*
X194488Y261516D01*
X195472Y261024D02*
X196455D01*
X195964D01*
Y263975D01*
X195472Y263484D01*
X199899Y263975D02*
X197931D01*
Y262499D01*
X198915Y262991D01*
X199407D01*
X199899Y262499D01*
Y261516D01*
X199407Y261024D01*
X198423D01*
X197931Y261516D01*
X172148Y332775D02*
X171656Y333267D01*
X170672D01*
X170180Y332775D01*
Y330807D01*
X170672Y330315D01*
X171656D01*
X172148Y330807D01*
X173132Y330315D02*
X174116D01*
X173624D01*
Y333267D01*
X173132Y332775D01*
X177068Y330315D02*
Y333267D01*
X175592Y331791D01*
X177560D01*
X157086Y333562D02*
X156594Y334054D01*
X155610D01*
X155118Y333562D01*
Y331594D01*
X155610Y331102D01*
X156594D01*
X157086Y331594D01*
X158070Y331102D02*
X159054D01*
X158562D01*
Y334054D01*
X158070Y333562D01*
X160530D02*
X161022Y334054D01*
X162006D01*
X162498Y333562D01*
Y333070D01*
X162006Y332578D01*
X161514D01*
X162006D01*
X162498Y332086D01*
Y331594D01*
X162006Y331102D01*
X161022D01*
X160530Y331594D01*
X143700Y333562D02*
X143208Y334054D01*
X142224D01*
X141732Y333562D01*
Y331594D01*
X142224Y331102D01*
X143208D01*
X143700Y331594D01*
X144684Y331102D02*
X145668D01*
X145176D01*
Y334054D01*
X144684Y333562D01*
X149112Y331102D02*
X147144D01*
X149112Y333070D01*
Y333562D01*
X148620Y334054D01*
X147636D01*
X147144Y333562D01*
X193700Y222932D02*
X193208Y223424D01*
X192224D01*
X191732Y222932D01*
Y220964D01*
X192224Y220472D01*
X193208D01*
X193700Y220964D01*
X194684D02*
X195176Y220472D01*
X196160D01*
X196652Y220964D01*
Y222932D01*
X196160Y223424D01*
X195176D01*
X194684Y222932D01*
Y222440D01*
X195176Y221948D01*
X196652D01*
X207866Y235251D02*
X207373Y235743D01*
X206390D01*
X205898Y235251D01*
Y233283D01*
X206390Y232791D01*
X207373D01*
X207866Y233283D01*
X208849Y235251D02*
X209341Y235743D01*
X210325D01*
X210817Y235251D01*
Y234759D01*
X210325Y234267D01*
X210817Y233775D01*
Y233283D01*
X210325Y232791D01*
X209341D01*
X208849Y233283D01*
Y233775D01*
X209341Y234267D01*
X208849Y234759D01*
Y235251D01*
X209341Y234267D02*
X210325D01*
X125590Y319389D02*
X125098Y319881D01*
X124114D01*
X123622Y319389D01*
Y317421D01*
X124114Y316929D01*
X125098D01*
X125590Y317421D01*
X126574Y319881D02*
X128542D01*
Y319389D01*
X126574Y317421D01*
Y316929D01*
X159055Y231594D02*
X158563Y232086D01*
X157579D01*
X157087Y231594D01*
Y229626D01*
X157579Y229134D01*
X158563D01*
X159055Y229626D01*
X162006Y232086D02*
X161022Y231594D01*
X160038Y230610D01*
Y229626D01*
X160530Y229134D01*
X161514D01*
X162006Y229626D01*
Y230118D01*
X161514Y230610D01*
X160038D01*
X148759Y245629D02*
X148267Y246121D01*
X147283D01*
X146791Y245629D01*
Y243661D01*
X147283Y243169D01*
X148267D01*
X148759Y243661D01*
X151711Y246121D02*
X149743D01*
Y244645D01*
X150727Y245137D01*
X151219D01*
X151711Y244645D01*
Y243661D01*
X151219Y243169D01*
X150235D01*
X149743Y243661D01*
X219921Y281409D02*
X219429Y281901D01*
X218445D01*
X217953Y281409D01*
Y279441D01*
X218445Y278949D01*
X219429D01*
X219921Y279441D01*
X220905Y281409D02*
X221396Y281901D01*
X222380D01*
X222872Y281409D01*
Y280917D01*
X222380Y280425D01*
X221888D01*
X222380D01*
X222872Y279933D01*
Y279441D01*
X222380Y278949D01*
X221396D01*
X220905Y279441D01*
X227952Y272932D02*
X227460Y273424D01*
X226476D01*
X225984Y272932D01*
Y270964D01*
X226476Y270472D01*
X227460D01*
X227952Y270964D01*
X230904Y270472D02*
X228936D01*
X230904Y272440D01*
Y272932D01*
X230412Y273424D01*
X229428D01*
X228936Y272932D01*
X28000Y456642D02*
X28051Y456693D01*
D14*
X420866Y125500D02*
Y456626D01*
X28051Y456693D02*
X420933D01*
X28000Y449500D02*
Y456642D01*
X28000Y125500D02*
X420866Y125500D01*
X28000Y449500D02*
X28000Y125500D01*
M02*
