G04*
G04 #@! TF.GenerationSoftware,Altium Limited,Altium Designer,19.1.8 (144)*
G04*
G04 Layer_Color=128*
%FSLAX25Y25*%
%MOIN*%
G70*
G01*
G75*
%ADD13C,0.01000*%
%ADD14C,0.01968*%
%ADD35R,0.03740X0.03150*%
%ADD46R,0.05315X0.04331*%
%ADD111R,0.06693X0.02165*%
%ADD112R,0.06102X0.03740*%
%ADD113R,0.07480X0.06102*%
%ADD114R,0.29528X0.09843*%
D13*
X28000Y456642D02*
X28051Y456693D01*
D14*
X420866Y125500D02*
Y456626D01*
X28051Y456693D02*
X420933D01*
X28000Y449500D02*
Y456642D01*
X28000Y125500D02*
X420866Y125500D01*
X28000Y449500D02*
X28000Y125500D01*
D35*
X130315Y206004D02*
D03*
Y211319D02*
D03*
X146850Y265846D02*
D03*
Y271161D02*
D03*
X115748Y206004D02*
D03*
Y211319D02*
D03*
D46*
X196063Y258268D02*
D03*
Y263779D02*
D03*
D111*
X172047Y230915D02*
D03*
Y243317D02*
D03*
D112*
X162547Y242317D02*
D03*
Y233065D02*
D03*
D113*
X196457Y272539D02*
D03*
Y284154D02*
D03*
D114*
X287795Y235827D02*
D03*
X340945D02*
D03*
X288500Y343500D02*
D03*
X341650D02*
D03*
M02*
