G04*
G04 #@! TF.GenerationSoftware,Altium Limited,Altium Designer,19.1.8 (144)*
G04*
G04 Layer_Color=255*
%FSLAX25Y25*%
%MOIN*%
G70*
G01*
G75*
%ADD13C,0.01000*%
%ADD14C,0.01968*%
%ADD16R,0.02953X0.20866*%
%ADD17R,0.07008X0.13504*%
%ADD18R,0.05709X0.04724*%
%ADD19R,0.07087X0.04528*%
%ADD20R,0.15158X0.17795*%
%ADD21R,0.02323X0.02795*%
%ADD22R,0.05402X0.02795*%
%ADD23R,0.02165X0.06693*%
%ADD24R,0.03937X0.04134*%
%ADD25R,0.03347X0.03740*%
%ADD26R,0.04134X0.03543*%
%ADD27R,0.07874X0.13780*%
%ADD28R,0.05512X0.08661*%
%ADD29R,0.05512X0.03543*%
%ADD30R,0.03937X0.04331*%
%ADD31R,0.03543X0.02756*%
%ADD32R,0.03543X0.03347*%
%ADD33R,0.03937X0.03543*%
%ADD34R,0.03150X0.03740*%
%ADD35R,0.03740X0.03150*%
%ADD36R,0.03347X0.05315*%
%ADD37R,0.03937X0.05315*%
%ADD38R,0.13819X0.20984*%
%ADD39R,0.05315X0.03347*%
%ADD40R,0.04724X0.04724*%
%ADD41R,0.03543X0.03937*%
%ADD42R,0.03543X0.04134*%
%ADD43R,0.05709X0.04134*%
%ADD44R,0.03740X0.03347*%
%ADD45R,0.03740X0.06102*%
%ADD46R,0.05315X0.04331*%
%ADD47R,0.02165X0.05315*%
%ADD48R,0.03740X0.04134*%
%ADD49R,0.03347X0.02756*%
%ADD50R,0.01772X0.01378*%
%ADD51R,0.02559X0.06004*%
G04:AMPARAMS|DCode=52|XSize=9.45mil|YSize=23.62mil|CornerRadius=1.98mil|HoleSize=0mil|Usage=FLASHONLY|Rotation=270.000|XOffset=0mil|YOffset=0mil|HoleType=Round|Shape=RoundedRectangle|*
%AMROUNDEDRECTD52*
21,1,0.00945,0.01965,0,0,270.0*
21,1,0.00548,0.02362,0,0,270.0*
1,1,0.00397,-0.00983,-0.00274*
1,1,0.00397,-0.00983,0.00274*
1,1,0.00397,0.00983,0.00274*
1,1,0.00397,0.00983,-0.00274*
%
%ADD52ROUNDEDRECTD52*%
G04:AMPARAMS|DCode=53|XSize=9.45mil|YSize=23.62mil|CornerRadius=1.98mil|HoleSize=0mil|Usage=FLASHONLY|Rotation=180.000|XOffset=0mil|YOffset=0mil|HoleType=Round|Shape=RoundedRectangle|*
%AMROUNDEDRECTD53*
21,1,0.00945,0.01965,0,0,180.0*
21,1,0.00548,0.02362,0,0,180.0*
1,1,0.00397,-0.00274,0.00983*
1,1,0.00397,0.00274,0.00983*
1,1,0.00397,0.00274,-0.00983*
1,1,0.00397,-0.00274,-0.00983*
%
%ADD53ROUNDEDRECTD53*%
G04:AMPARAMS|DCode=101|XSize=195.87mil|YSize=181.1mil|CornerRadius=1.81mil|HoleSize=0mil|Usage=FLASHONLY|Rotation=180.000|XOffset=0mil|YOffset=0mil|HoleType=Round|Shape=RoundedRectangle|*
%AMROUNDEDRECTD101*
21,1,0.19587,0.17748,0,0,180.0*
21,1,0.19224,0.18110,0,0,180.0*
1,1,0.00362,-0.09612,0.08874*
1,1,0.00362,0.09612,0.08874*
1,1,0.00362,0.09612,-0.08874*
1,1,0.00362,-0.09612,-0.08874*
%
%ADD101ROUNDEDRECTD101*%
%ADD102C,0.11614*%
%ADD103C,0.06000*%
%ADD104R,0.05833X0.05833*%
%ADD105C,0.06024*%
%ADD106C,0.11811*%
%ADD107R,0.05500X0.07000*%
%ADD108O,0.05500X0.07000*%
D13*
X28000Y456642D02*
X28051Y456693D01*
D14*
X420866Y125500D02*
Y456626D01*
X28051Y456693D02*
X420933D01*
X28000Y449500D02*
Y456642D01*
X28000Y125500D02*
X420866Y125500D01*
X28000Y449500D02*
X28000Y125500D01*
D16*
X204232Y257874D02*
D03*
X226476D02*
D03*
D17*
X252756Y337008D02*
D03*
Y375984D02*
D03*
Y166142D02*
D03*
Y252756D02*
D03*
Y192520D02*
D03*
Y304724D02*
D03*
D18*
X275590Y148622D02*
D03*
Y141929D02*
D03*
D19*
X286417Y148622D02*
D03*
Y136811D02*
D03*
D20*
X310236Y163779D02*
D03*
X309307Y343307D02*
D03*
X328882Y373228D02*
D03*
X330732Y190807D02*
D03*
X330063Y281602D02*
D03*
X310488Y252756D02*
D03*
D21*
X301476Y156280D02*
D03*
Y161279D02*
D03*
Y166279D02*
D03*
Y171280D02*
D03*
X300547Y335807D02*
D03*
Y340807D02*
D03*
Y345807D02*
D03*
Y350807D02*
D03*
X337642Y365728D02*
D03*
Y370728D02*
D03*
Y375728D02*
D03*
Y380728D02*
D03*
X339492Y183307D02*
D03*
Y188307D02*
D03*
Y193307D02*
D03*
Y198307D02*
D03*
X338823Y274102D02*
D03*
Y279102D02*
D03*
Y284102D02*
D03*
Y289102D02*
D03*
X301728Y260256D02*
D03*
Y255256D02*
D03*
Y250256D02*
D03*
Y245256D02*
D03*
D22*
X324827Y171280D02*
D03*
Y166279D02*
D03*
Y161279D02*
D03*
Y156280D02*
D03*
X323898Y350807D02*
D03*
Y345807D02*
D03*
Y340807D02*
D03*
Y335807D02*
D03*
X314291Y380728D02*
D03*
Y375728D02*
D03*
Y370728D02*
D03*
Y365728D02*
D03*
X316142Y198307D02*
D03*
Y193307D02*
D03*
Y188307D02*
D03*
Y183307D02*
D03*
X315472Y289102D02*
D03*
Y284102D02*
D03*
Y279102D02*
D03*
Y274102D02*
D03*
X325079Y245256D02*
D03*
Y250256D02*
D03*
Y255256D02*
D03*
Y260256D02*
D03*
D23*
X292421Y165748D02*
D03*
X280020D02*
D03*
X290059Y252756D02*
D03*
X277658D02*
D03*
X290453Y341339D02*
D03*
X278051D02*
D03*
D24*
X396457Y237992D02*
D03*
Y243898D02*
D03*
X291732Y209252D02*
D03*
Y203346D02*
D03*
X292126Y301772D02*
D03*
Y295866D02*
D03*
X291732Y394291D02*
D03*
Y388386D02*
D03*
X395276Y329724D02*
D03*
Y335630D02*
D03*
X387008Y151772D02*
D03*
Y157677D02*
D03*
D25*
X323917Y266142D02*
D03*
X318602D02*
D03*
X326673Y177165D02*
D03*
X321358D02*
D03*
X322342Y357480D02*
D03*
X317028D02*
D03*
X176157Y327500D02*
D03*
X170843D02*
D03*
X162000Y328000D02*
D03*
X156685D02*
D03*
X148000D02*
D03*
X142685D02*
D03*
D26*
X109000Y288500D02*
D03*
Y282791D02*
D03*
X390551Y254232D02*
D03*
Y248917D02*
D03*
X213681Y401083D02*
D03*
Y406398D02*
D03*
X202461Y401083D02*
D03*
Y406398D02*
D03*
X189075Y400787D02*
D03*
Y406102D02*
D03*
X177657Y400787D02*
D03*
Y406102D02*
D03*
X116500Y241500D02*
D03*
Y236185D02*
D03*
X117000Y293500D02*
D03*
Y298815D02*
D03*
X390158Y343996D02*
D03*
Y338681D02*
D03*
X381890Y167618D02*
D03*
Y162303D02*
D03*
X171000Y315342D02*
D03*
Y320657D02*
D03*
X157000Y315342D02*
D03*
Y320657D02*
D03*
X143000Y314685D02*
D03*
Y320000D02*
D03*
D27*
X199716Y199000D02*
D03*
X164284D02*
D03*
D28*
X153740Y213878D02*
D03*
D29*
Y203839D02*
D03*
D30*
X162500Y225886D02*
D03*
X156791D02*
D03*
D31*
X390551Y238976D02*
D03*
Y244488D02*
D03*
X390158Y329134D02*
D03*
Y334646D02*
D03*
X381102Y152362D02*
D03*
Y157874D02*
D03*
D32*
X149508Y235433D02*
D03*
Y240551D02*
D03*
X169291Y240158D02*
D03*
Y245276D02*
D03*
D33*
X131102Y310236D02*
D03*
Y315551D02*
D03*
X184646Y232874D02*
D03*
Y237992D02*
D03*
D34*
X99815Y283000D02*
D03*
X94500D02*
D03*
X111516Y318110D02*
D03*
X116831D02*
D03*
X204842Y272000D02*
D03*
X210157D02*
D03*
D35*
X140157Y228150D02*
D03*
Y222835D02*
D03*
X133858Y228150D02*
D03*
Y222835D02*
D03*
X126772Y228248D02*
D03*
Y222933D02*
D03*
X115500Y259315D02*
D03*
Y254000D02*
D03*
X116500Y276000D02*
D03*
Y270685D02*
D03*
X117000Y282185D02*
D03*
Y287500D02*
D03*
X203150Y243602D02*
D03*
Y238287D02*
D03*
X176772Y223327D02*
D03*
Y228642D02*
D03*
D36*
X295374Y174016D02*
D03*
X288878D02*
D03*
X283957Y208661D02*
D03*
X277461D02*
D03*
X328248Y220472D02*
D03*
X321752D02*
D03*
X276673Y302756D02*
D03*
X283169D02*
D03*
X278248Y394488D02*
D03*
X284744D02*
D03*
D37*
X300905Y148500D02*
D03*
X295000D02*
D03*
D38*
X274803Y190551D02*
D03*
X291024D02*
D03*
X273819Y282480D02*
D03*
X290039D02*
D03*
X273819Y374311D02*
D03*
X290039D02*
D03*
D39*
X331496Y303839D02*
D03*
Y310335D02*
D03*
X330315Y394193D02*
D03*
Y387697D02*
D03*
D40*
X105000Y310866D02*
D03*
Y319134D02*
D03*
D41*
X111441Y310000D02*
D03*
X116559D02*
D03*
X196653Y232283D02*
D03*
X191535D02*
D03*
X220472Y237008D02*
D03*
X214173D02*
D03*
D42*
X107815Y274500D02*
D03*
X102500D02*
D03*
Y266000D02*
D03*
X107815D02*
D03*
X101500Y249500D02*
D03*
X106815D02*
D03*
X107158Y258500D02*
D03*
X101842D02*
D03*
D43*
X383858Y248130D02*
D03*
Y240846D02*
D03*
X382283Y336713D02*
D03*
Y329429D02*
D03*
X372835Y161909D02*
D03*
Y154626D02*
D03*
X393701Y149902D02*
D03*
Y157185D02*
D03*
X408268Y330217D02*
D03*
Y337500D02*
D03*
X402756Y236910D02*
D03*
Y244193D02*
D03*
D44*
X375984Y248524D02*
D03*
Y253839D02*
D03*
X374803Y337106D02*
D03*
Y342421D02*
D03*
X303937Y366437D02*
D03*
Y361122D02*
D03*
X305118Y274311D02*
D03*
Y268996D02*
D03*
X307257Y182776D02*
D03*
Y177461D02*
D03*
X366142Y162303D02*
D03*
Y167618D02*
D03*
X393307D02*
D03*
Y162303D02*
D03*
X401968Y254626D02*
D03*
Y249311D02*
D03*
Y342815D02*
D03*
Y337500D02*
D03*
D45*
X213681Y280315D02*
D03*
X204429D02*
D03*
D46*
X194882Y257874D02*
D03*
Y252362D02*
D03*
D47*
X206398Y229134D02*
D03*
X214075D02*
D03*
D48*
X191634Y226772D02*
D03*
X197343D02*
D03*
D49*
X169882Y224213D02*
D03*
Y228740D02*
D03*
D50*
X178347Y321457D02*
D03*
Y319882D02*
D03*
X164075Y320866D02*
D03*
Y319291D02*
D03*
X149803Y320768D02*
D03*
Y319193D02*
D03*
D51*
X40500Y260823D02*
D03*
X45500D02*
D03*
X50500D02*
D03*
X55500D02*
D03*
X60500D02*
D03*
X65500D02*
D03*
X70500D02*
D03*
Y282177D02*
D03*
X65500D02*
D03*
X60500D02*
D03*
X55500D02*
D03*
X50500D02*
D03*
X45500D02*
D03*
X40500D02*
D03*
D52*
X177445Y263673D02*
D03*
Y265642D02*
D03*
Y267610D02*
D03*
Y269579D02*
D03*
Y271547D02*
D03*
Y273516D02*
D03*
Y275484D02*
D03*
Y277453D02*
D03*
Y279421D02*
D03*
Y281390D02*
D03*
Y283358D02*
D03*
Y285327D02*
D03*
X150673D02*
D03*
Y283358D02*
D03*
Y281390D02*
D03*
Y279421D02*
D03*
Y277453D02*
D03*
Y275484D02*
D03*
Y273516D02*
D03*
Y271547D02*
D03*
Y269579D02*
D03*
Y267610D02*
D03*
Y265642D02*
D03*
Y263673D02*
D03*
D53*
X174886Y287886D02*
D03*
X172917D02*
D03*
X170949D02*
D03*
X168980D02*
D03*
X167012D02*
D03*
X165043D02*
D03*
X163075D02*
D03*
X161106D02*
D03*
X159138D02*
D03*
X157169D02*
D03*
X155201D02*
D03*
X153232D02*
D03*
Y261114D02*
D03*
X155201D02*
D03*
X157169D02*
D03*
X159138D02*
D03*
X161106D02*
D03*
X163075D02*
D03*
X165043D02*
D03*
X167012D02*
D03*
X168980D02*
D03*
X170949D02*
D03*
X172917D02*
D03*
X174886D02*
D03*
D101*
X163319Y274500D02*
D03*
D102*
X392520Y213150D02*
D03*
Y193150D02*
D03*
X402520D02*
D03*
X382520D02*
D03*
Y213150D02*
D03*
X402520D02*
D03*
X392520Y287953D02*
D03*
Y267953D02*
D03*
X402520D02*
D03*
X382520D02*
D03*
Y287953D02*
D03*
X402520D02*
D03*
X392520Y375748D02*
D03*
Y355748D02*
D03*
X402520D02*
D03*
X382520D02*
D03*
Y375748D02*
D03*
X402520D02*
D03*
X287795Y445827D02*
D03*
Y425827D02*
D03*
X297795D02*
D03*
X277795D02*
D03*
Y445827D02*
D03*
X297795D02*
D03*
X335827D02*
D03*
Y425827D02*
D03*
X345827D02*
D03*
X325827D02*
D03*
Y445827D02*
D03*
X345827D02*
D03*
D103*
X41732Y438976D02*
D03*
X406693Y143307D02*
D03*
X249804D02*
D03*
X406693Y438976D02*
D03*
D104*
X255710Y426894D02*
D03*
X209941D02*
D03*
X118504D02*
D03*
D105*
X255710Y415083D02*
D03*
X243898Y426894D02*
D03*
Y415083D02*
D03*
X150885D02*
D03*
X209941D02*
D03*
X150885Y426894D02*
D03*
X162696Y415083D02*
D03*
X198130D02*
D03*
X162696Y426894D02*
D03*
X198130D02*
D03*
X174507Y415083D02*
D03*
Y426894D02*
D03*
X186319Y415083D02*
D03*
Y426894D02*
D03*
X106693D02*
D03*
Y415083D02*
D03*
X94882Y426894D02*
D03*
X83071D02*
D03*
X94882Y415083D02*
D03*
X83071D02*
D03*
X71260Y426894D02*
D03*
X118504Y415083D02*
D03*
X71260D02*
D03*
D106*
X249804Y443902D02*
D03*
X159350D02*
D03*
X201476D02*
D03*
X110039D02*
D03*
X79725D02*
D03*
D107*
X39075Y143760D02*
D03*
Y383760D02*
D03*
D108*
X49075D02*
D03*
X59075D02*
D03*
X69075D02*
D03*
X79075D02*
D03*
X89075D02*
D03*
X99075D02*
D03*
X109075D02*
D03*
X119075D02*
D03*
X129075D02*
D03*
X139075D02*
D03*
X149075D02*
D03*
X159075D02*
D03*
X169075D02*
D03*
X179075D02*
D03*
X189075D02*
D03*
X199075D02*
D03*
X209075D02*
D03*
X219075D02*
D03*
X39075Y373760D02*
D03*
X49075D02*
D03*
X59075D02*
D03*
X69075D02*
D03*
X79075D02*
D03*
X89075D02*
D03*
X99075D02*
D03*
X109075D02*
D03*
X119075D02*
D03*
X129075D02*
D03*
X139075D02*
D03*
X149075D02*
D03*
X159075D02*
D03*
X169075D02*
D03*
X179075D02*
D03*
X189075D02*
D03*
X199075D02*
D03*
X209075D02*
D03*
X219075D02*
D03*
X49075Y143760D02*
D03*
X59075D02*
D03*
X69075D02*
D03*
X79075D02*
D03*
X89075D02*
D03*
X99075D02*
D03*
X109075D02*
D03*
X119075D02*
D03*
X129075D02*
D03*
X139075D02*
D03*
X149075D02*
D03*
X159075D02*
D03*
X169075D02*
D03*
X179075D02*
D03*
X189075D02*
D03*
X199075D02*
D03*
X209075D02*
D03*
X219075D02*
D03*
X39075Y133760D02*
D03*
X49075D02*
D03*
X59075D02*
D03*
X69075D02*
D03*
X79075D02*
D03*
X89075D02*
D03*
X99075D02*
D03*
X109075D02*
D03*
X119075D02*
D03*
X129075D02*
D03*
X139075D02*
D03*
X149075D02*
D03*
X159075D02*
D03*
X169075D02*
D03*
X179075D02*
D03*
X189075D02*
D03*
X199075D02*
D03*
X209075D02*
D03*
X219075D02*
D03*
M02*
