G04*
G04 #@! TF.GenerationSoftware,Altium Limited,Altium Designer,19.1.8 (144)*
G04*
G04 Layer_Color=255*
%FSLAX25Y25*%
%MOIN*%
G70*
G01*
G75*
%ADD13C,0.01000*%
%ADD14C,0.01968*%
%ADD35R,0.03740X0.03150*%
%ADD46R,0.05315X0.04331*%
%ADD102C,0.11614*%
%ADD103C,0.06000*%
%ADD104R,0.05833X0.05833*%
%ADD105C,0.06024*%
%ADD106C,0.11811*%
%ADD107R,0.05500X0.07000*%
%ADD108O,0.05500X0.07000*%
%ADD111R,0.06693X0.02165*%
%ADD112R,0.06102X0.03740*%
%ADD113R,0.07480X0.06102*%
%ADD114R,0.29528X0.09843*%
D13*
X28000Y456642D02*
X28051Y456693D01*
D14*
X420866Y125500D02*
Y456626D01*
X28051Y456693D02*
X420933D01*
X28000Y449500D02*
Y456642D01*
X28000Y125500D02*
X420866Y125500D01*
X28000Y449500D02*
X28000Y125500D01*
D35*
X130315Y206004D02*
D03*
Y211319D02*
D03*
X146850Y265846D02*
D03*
Y271161D02*
D03*
X115748Y206004D02*
D03*
Y211319D02*
D03*
D46*
X196063Y258268D02*
D03*
Y263779D02*
D03*
D102*
X392520Y213150D02*
D03*
Y193150D02*
D03*
X402520D02*
D03*
X382520D02*
D03*
Y213150D02*
D03*
X402520D02*
D03*
X392520Y287953D02*
D03*
Y267953D02*
D03*
X402520D02*
D03*
X382520D02*
D03*
Y287953D02*
D03*
X402520D02*
D03*
X392520Y375748D02*
D03*
Y355748D02*
D03*
X402520D02*
D03*
X382520D02*
D03*
Y375748D02*
D03*
X402520D02*
D03*
X287795Y445827D02*
D03*
Y425827D02*
D03*
X297795D02*
D03*
X277795D02*
D03*
Y445827D02*
D03*
X297795D02*
D03*
X335827D02*
D03*
Y425827D02*
D03*
X345827D02*
D03*
X325827D02*
D03*
Y445827D02*
D03*
X345827D02*
D03*
D103*
X41732Y438976D02*
D03*
X406693Y143307D02*
D03*
X249804D02*
D03*
X406693Y438976D02*
D03*
D104*
X255710Y426894D02*
D03*
X209941D02*
D03*
X118504D02*
D03*
D105*
X255710Y415083D02*
D03*
X243898Y426894D02*
D03*
Y415083D02*
D03*
X150885D02*
D03*
X209941D02*
D03*
X150885Y426894D02*
D03*
X162696Y415083D02*
D03*
X198130D02*
D03*
X162696Y426894D02*
D03*
X198130D02*
D03*
X174507Y415083D02*
D03*
Y426894D02*
D03*
X186319Y415083D02*
D03*
Y426894D02*
D03*
X106693D02*
D03*
Y415083D02*
D03*
X94882Y426894D02*
D03*
X83071D02*
D03*
X94882Y415083D02*
D03*
X83071D02*
D03*
X71260Y426894D02*
D03*
X118504Y415083D02*
D03*
X71260D02*
D03*
D106*
X249804Y443902D02*
D03*
X159350D02*
D03*
X201476D02*
D03*
X110039D02*
D03*
X79725D02*
D03*
D107*
X39075Y143760D02*
D03*
Y383760D02*
D03*
D108*
X49075D02*
D03*
X59075D02*
D03*
X69075D02*
D03*
X79075D02*
D03*
X89075D02*
D03*
X99075D02*
D03*
X109075D02*
D03*
X119075D02*
D03*
X129075D02*
D03*
X139075D02*
D03*
X149075D02*
D03*
X159075D02*
D03*
X169075D02*
D03*
X179075D02*
D03*
X189075D02*
D03*
X199075D02*
D03*
X209075D02*
D03*
X219075D02*
D03*
X39075Y373760D02*
D03*
X49075D02*
D03*
X59075D02*
D03*
X69075D02*
D03*
X79075D02*
D03*
X89075D02*
D03*
X99075D02*
D03*
X109075D02*
D03*
X119075D02*
D03*
X129075D02*
D03*
X139075D02*
D03*
X149075D02*
D03*
X159075D02*
D03*
X169075D02*
D03*
X179075D02*
D03*
X189075D02*
D03*
X199075D02*
D03*
X209075D02*
D03*
X219075D02*
D03*
X49075Y143760D02*
D03*
X59075D02*
D03*
X69075D02*
D03*
X79075D02*
D03*
X89075D02*
D03*
X99075D02*
D03*
X109075D02*
D03*
X119075D02*
D03*
X129075D02*
D03*
X139075D02*
D03*
X149075D02*
D03*
X159075D02*
D03*
X169075D02*
D03*
X179075D02*
D03*
X189075D02*
D03*
X199075D02*
D03*
X209075D02*
D03*
X219075D02*
D03*
X39075Y133760D02*
D03*
X49075D02*
D03*
X59075D02*
D03*
X69075D02*
D03*
X79075D02*
D03*
X89075D02*
D03*
X99075D02*
D03*
X109075D02*
D03*
X119075D02*
D03*
X129075D02*
D03*
X139075D02*
D03*
X149075D02*
D03*
X159075D02*
D03*
X169075D02*
D03*
X179075D02*
D03*
X189075D02*
D03*
X199075D02*
D03*
X209075D02*
D03*
X219075D02*
D03*
D111*
X172047Y230915D02*
D03*
Y243317D02*
D03*
D112*
X162547Y242317D02*
D03*
Y233065D02*
D03*
D113*
X196457Y272539D02*
D03*
Y284154D02*
D03*
D114*
X287795Y235827D02*
D03*
X340945D02*
D03*
X288500Y343500D02*
D03*
X341650D02*
D03*
M02*
