G04*
G04 #@! TF.GenerationSoftware,Altium Limited,Altium Designer,19.1.8 (144)*
G04*
G04 Layer_Physical_Order=1*
G04 Layer_Color=255*
%FSLAX25Y25*%
%MOIN*%
G70*
G01*
G75*
%ADD13C,0.01000*%
%ADD14C,0.01968*%
%ADD16R,0.02953X0.20866*%
%ADD17R,0.07008X0.13504*%
%ADD18R,0.05709X0.04724*%
%ADD19R,0.07087X0.04528*%
%ADD20R,0.15158X0.17795*%
%ADD21R,0.02323X0.02795*%
%ADD22R,0.05402X0.02795*%
%ADD23R,0.02165X0.06693*%
%ADD24R,0.03937X0.04134*%
%ADD25R,0.03347X0.03740*%
%ADD26R,0.04134X0.03543*%
%ADD27R,0.07874X0.13780*%
%ADD28R,0.05512X0.08661*%
%ADD29R,0.05512X0.03543*%
%ADD30R,0.03937X0.04331*%
%ADD31R,0.03543X0.02756*%
%ADD32R,0.03543X0.03347*%
%ADD33R,0.03937X0.03543*%
%ADD34R,0.03150X0.03740*%
%ADD35R,0.03740X0.03150*%
%ADD36R,0.03347X0.05315*%
%ADD37R,0.03937X0.05315*%
%ADD38R,0.13819X0.20984*%
%ADD39R,0.05315X0.03347*%
%ADD40R,0.04724X0.04724*%
%ADD41R,0.03543X0.03937*%
%ADD42R,0.03543X0.04134*%
%ADD43R,0.05709X0.04134*%
%ADD44R,0.03740X0.03347*%
%ADD45R,0.03740X0.06102*%
%ADD46R,0.05315X0.04331*%
%ADD47R,0.02165X0.05315*%
%ADD48R,0.03740X0.04134*%
%ADD49R,0.03347X0.02756*%
%ADD50R,0.01772X0.01378*%
%ADD51R,0.02559X0.06004*%
G04:AMPARAMS|DCode=52|XSize=9.45mil|YSize=23.62mil|CornerRadius=1.98mil|HoleSize=0mil|Usage=FLASHONLY|Rotation=270.000|XOffset=0mil|YOffset=0mil|HoleType=Round|Shape=RoundedRectangle|*
%AMROUNDEDRECTD52*
21,1,0.00945,0.01965,0,0,270.0*
21,1,0.00548,0.02362,0,0,270.0*
1,1,0.00397,-0.00983,-0.00274*
1,1,0.00397,-0.00983,0.00274*
1,1,0.00397,0.00983,0.00274*
1,1,0.00397,0.00983,-0.00274*
%
%ADD52ROUNDEDRECTD52*%
G04:AMPARAMS|DCode=53|XSize=9.45mil|YSize=23.62mil|CornerRadius=1.98mil|HoleSize=0mil|Usage=FLASHONLY|Rotation=180.000|XOffset=0mil|YOffset=0mil|HoleType=Round|Shape=RoundedRectangle|*
%AMROUNDEDRECTD53*
21,1,0.00945,0.01965,0,0,180.0*
21,1,0.00548,0.02362,0,0,180.0*
1,1,0.00397,-0.00274,0.00983*
1,1,0.00397,0.00274,0.00983*
1,1,0.00397,0.00274,-0.00983*
1,1,0.00397,-0.00274,-0.00983*
%
%ADD53ROUNDEDRECTD53*%
G04:AMPARAMS|DCode=101|XSize=195.87mil|YSize=181.1mil|CornerRadius=1.81mil|HoleSize=0mil|Usage=FLASHONLY|Rotation=180.000|XOffset=0mil|YOffset=0mil|HoleType=Round|Shape=RoundedRectangle|*
%AMROUNDEDRECTD101*
21,1,0.19587,0.17748,0,0,180.0*
21,1,0.19224,0.18110,0,0,180.0*
1,1,0.00362,-0.09612,0.08874*
1,1,0.00362,0.09612,0.08874*
1,1,0.00362,0.09612,-0.08874*
1,1,0.00362,-0.09612,-0.08874*
%
%ADD101ROUNDEDRECTD101*%
%ADD102C,0.11614*%
%ADD103C,0.06000*%
%ADD104R,0.05833X0.05833*%
%ADD105C,0.06024*%
%ADD106C,0.11811*%
%ADD107R,0.05500X0.07000*%
%ADD108O,0.05500X0.07000*%
%ADD109C,0.01968*%
G36*
X309055Y424803D02*
X296457Y412205D01*
X281102D01*
Y398571D01*
X280921Y398146D01*
X280602Y398146D01*
X278748D01*
Y394488D01*
Y390831D01*
X280602D01*
X280921Y390831D01*
X281102Y390406D01*
Y387386D01*
X281012Y387295D01*
X280803Y386983D01*
X280730Y386614D01*
Y363976D01*
X280803Y363608D01*
X281012Y363295D01*
X281102Y363235D01*
Y306358D01*
X280551D01*
Y299153D01*
X281102D01*
Y297636D01*
X280350Y297486D01*
X279712Y297060D01*
X279285Y296422D01*
X279135Y295669D01*
X279285Y294917D01*
X279712Y294279D01*
X280067Y294041D01*
X280246Y293773D01*
X281102Y292917D01*
Y170095D01*
X280520D01*
Y165748D01*
Y161402D01*
X281102D01*
Y154197D01*
X280640Y154005D01*
X280315Y154331D01*
X270506D01*
X270438Y154376D01*
X269685Y154526D01*
X268932Y154376D01*
X268864Y154331D01*
X266142D01*
Y450000D01*
X268504Y452362D01*
X274521D01*
X274646Y451862D01*
X273995Y451514D01*
X272959Y450663D01*
X272108Y449627D01*
X271476Y448444D01*
X271087Y447161D01*
X271005Y446327D01*
X277795D01*
Y445827D01*
X278295D01*
Y439036D01*
X279130Y439118D01*
X280413Y439507D01*
X281595Y440139D01*
X282632Y440990D01*
X282959D01*
X283995Y440139D01*
X285178Y439507D01*
X286461Y439118D01*
X287295Y439036D01*
Y445827D01*
X288295D01*
Y439036D01*
X289130Y439118D01*
X290413Y439507D01*
X291595Y440139D01*
X292441Y440833D01*
X292795Y440941D01*
X293150Y440833D01*
X293995Y440139D01*
X295178Y439507D01*
X296461Y439118D01*
X297295Y439036D01*
Y445827D01*
X297795D01*
Y446327D01*
X304586D01*
X304504Y447161D01*
X304115Y448444D01*
X303483Y449627D01*
X302632Y450663D01*
X301595Y451514D01*
X300944Y451862D01*
X301069Y452362D01*
X309055D01*
Y424803D01*
D02*
G37*
G36*
X300394Y388583D02*
X310236D01*
X319094Y379724D01*
Y369291D01*
X315834Y368071D01*
X310646D01*
Y366167D01*
X310584Y366106D01*
X304895Y363976D01*
X290056Y363976D01*
Y369258D01*
X290603Y369367D01*
X291081Y369687D01*
X291400Y370165D01*
X291513Y370728D01*
Y374311D01*
X291400Y374875D01*
X291081Y375353D01*
X290603Y375672D01*
X290039Y375784D01*
X289476Y375672D01*
X288998Y375353D01*
X287541Y373896D01*
X287222Y373418D01*
X287109Y372854D01*
Y363976D01*
X281693D01*
Y386614D01*
X285630Y390551D01*
X298425D01*
X300394Y388583D01*
D02*
G37*
G36*
X253931Y456502D02*
X264665Y445768D01*
Y364004D01*
X264165Y363741D01*
X263745Y364022D01*
X262992Y364172D01*
X262239Y364022D01*
X261601Y363596D01*
X261175Y362957D01*
X261025Y362205D01*
X261175Y361452D01*
X261601Y360814D01*
X262239Y360387D01*
X262992Y360238D01*
X263745Y360387D01*
X264165Y360668D01*
X264665Y360405D01*
Y293799D01*
X264165Y293647D01*
X263989Y293911D01*
X263351Y294337D01*
X262598Y294487D01*
X261846Y294337D01*
X261208Y293911D01*
X260781Y293272D01*
X260631Y292520D01*
X260781Y291767D01*
X261208Y291129D01*
X261846Y290703D01*
X262598Y290553D01*
X263351Y290703D01*
X263989Y291129D01*
X264165Y291392D01*
X264665Y291241D01*
Y144390D01*
X245776Y125500D01*
X27953D01*
X27953Y456339D01*
X28306Y456693D01*
X253931Y456502D01*
D02*
G37*
G36*
X416423Y383545D02*
Y350081D01*
X406854Y340512D01*
X404468D01*
Y340238D01*
X393169D01*
Y341398D01*
X387146D01*
Y340238D01*
X373116D01*
X372602Y339724D01*
X371988D01*
Y339254D01*
X354415D01*
X348510Y333348D01*
X344572D01*
X341620Y330396D01*
Y330396D01*
X326856D01*
X321155Y336096D01*
X321258Y336614D01*
X321109Y337367D01*
X320950Y337603D01*
Y342515D01*
X321109Y342751D01*
X321258Y343504D01*
X321109Y344257D01*
X320950Y344493D01*
Y348465D01*
X327543D01*
Y353150D01*
X323034D01*
X320950Y355233D01*
Y386498D01*
X324887Y390435D01*
X409533D01*
X416423Y383545D01*
D02*
G37*
G36*
X317717Y351575D02*
Y330315D01*
X296457D01*
X289165Y337606D01*
X289200Y337903D01*
X289723Y338155D01*
X289798Y338104D01*
X290551Y337954D01*
X291304Y338104D01*
X291942Y338530D01*
X292368Y339169D01*
X292518Y339921D01*
X292420Y340416D01*
Y341339D01*
X292270Y342091D01*
X291844Y342729D01*
X291206Y343156D01*
X290453Y343305D01*
X289700Y343156D01*
X289476Y343006D01*
X288976Y343274D01*
Y352362D01*
X316929D01*
X317717Y351575D01*
D02*
G37*
G36*
X412595Y295378D02*
Y261913D01*
X402752Y252071D01*
X369287D01*
X368303Y251087D01*
X350587D01*
X344681Y245181D01*
X340744D01*
X337791Y242228D01*
X323028D01*
X321528Y243728D01*
Y257819D01*
X322028Y257904D01*
X322071Y257895D01*
X322162Y257913D01*
X328724D01*
Y262598D01*
X324855D01*
X324665Y262636D01*
X323933D01*
X322268Y264301D01*
X322132Y264985D01*
X321706Y265623D01*
X321528Y265801D01*
Y302736D01*
X326882Y308091D01*
X327894D01*
Y307716D01*
X335098D01*
Y308091D01*
X399882D01*
X412595Y295378D01*
D02*
G37*
G36*
X301575Y296457D02*
X311417D01*
X320276Y287598D01*
Y277165D01*
X318351Y276445D01*
X311827D01*
Y274541D01*
X310966Y273681D01*
X306076Y271850D01*
X282874Y271850D01*
Y290492D01*
X283336Y290683D01*
X288566Y285453D01*
Y282480D01*
X288678Y281916D01*
X288998Y281439D01*
X289476Y281119D01*
X290039Y281007D01*
X290603Y281119D01*
X291081Y281439D01*
X291400Y281916D01*
X291513Y282480D01*
Y286063D01*
X291400Y286627D01*
X291081Y287105D01*
X283286Y294900D01*
X286811Y298425D01*
X299606D01*
X301575Y296457D01*
D02*
G37*
G36*
X318110Y262205D02*
Y240945D01*
X296850D01*
X293207Y244588D01*
X293156Y244847D01*
X292729Y245485D01*
X292091Y245912D01*
X291832Y245963D01*
X289370Y248425D01*
Y262992D01*
X317323D01*
X318110Y262205D01*
D02*
G37*
G36*
X302756Y204724D02*
X312598D01*
X321457Y195866D01*
Y185433D01*
X320198Y184962D01*
X319787Y185247D01*
Y185650D01*
X312496D01*
Y183746D01*
X309832Y181082D01*
X307257Y180118D01*
X284055Y180118D01*
Y194899D01*
X284555Y195051D01*
X284785Y194706D01*
X289982Y189509D01*
X290460Y189190D01*
X291024Y189078D01*
X291587Y189190D01*
X292065Y189509D01*
X292385Y189987D01*
X292497Y190551D01*
X292385Y191115D01*
X292065Y191593D01*
X287300Y196358D01*
Y201181D01*
X287188Y201745D01*
X286869Y202223D01*
X286390Y202542D01*
X285827Y202654D01*
X285263Y202542D01*
X284785Y202223D01*
X284555Y201879D01*
X284055Y202030D01*
Y202756D01*
X286358Y205059D01*
X286575D01*
Y205276D01*
X287992Y206693D01*
X288819D01*
Y206240D01*
X294646D01*
Y206693D01*
X300787D01*
X302756Y204724D01*
D02*
G37*
G36*
X314987Y177139D02*
X314718Y176737D01*
X314568Y175984D01*
X314718Y175232D01*
X315145Y174593D01*
X315783Y174167D01*
X316535Y174017D01*
X317288Y174167D01*
X317506Y174313D01*
X317813D01*
X318110Y174016D01*
Y169669D01*
X318079Y169638D01*
X317870Y169325D01*
X317796Y168957D01*
Y156831D01*
X317870Y156462D01*
X318079Y156149D01*
X318110Y156118D01*
Y144095D01*
X300000D01*
X297913Y146181D01*
Y152102D01*
X292087D01*
X292087Y152102D01*
Y152102D01*
X291715Y152380D01*
X291339Y152756D01*
Y170413D01*
X291496D01*
Y177618D01*
X291858Y177953D01*
X302077D01*
X302268Y177491D01*
X301759Y176981D01*
X301332Y176343D01*
X301183Y175591D01*
X301332Y174838D01*
X301759Y174200D01*
X302397Y173773D01*
X303150Y173624D01*
X303902Y173773D01*
X304540Y174200D01*
X305145Y174805D01*
X306568D01*
X306758Y174843D01*
X310072D01*
Y176260D01*
X310434Y176332D01*
X311072Y176759D01*
X312266Y177953D01*
X314173D01*
X314987Y177139D01*
D02*
G37*
G36*
X415551Y220472D02*
X415551Y182480D01*
X399409Y166339D01*
X358465Y166339D01*
X357480Y167323D01*
X351575Y161417D01*
X341732D01*
X334252Y153937D01*
X321654D01*
X318760Y156831D01*
Y168957D01*
X320719Y170916D01*
X321181Y170725D01*
Y168937D01*
X328472D01*
Y173622D01*
X325077D01*
Y173669D01*
X325038Y173867D01*
Y174665D01*
X324943Y175140D01*
X325000Y175197D01*
Y220472D01*
X330906Y226378D01*
X409646D01*
X415551Y220472D01*
D02*
G37*
%LPC*%
G36*
X304586Y445327D02*
X298295D01*
Y439036D01*
X299130Y439118D01*
X300413Y439507D01*
X301595Y440139D01*
X302632Y440990D01*
X303483Y442027D01*
X304115Y443209D01*
X304504Y444492D01*
X304586Y445327D01*
D02*
G37*
G36*
X277295D02*
X271005D01*
X271087Y444492D01*
X271476Y443209D01*
X272108Y442027D01*
X272959Y440990D01*
X273995Y440139D01*
X275178Y439507D01*
X276461Y439118D01*
X277295Y439036D01*
Y445327D01*
D02*
G37*
G36*
X298295Y432618D02*
Y426327D01*
X304586D01*
X304504Y427161D01*
X304115Y428444D01*
X303483Y429627D01*
X302632Y430663D01*
X301595Y431514D01*
X300413Y432146D01*
X299130Y432535D01*
X298295Y432618D01*
D02*
G37*
G36*
X277295D02*
X276461Y432535D01*
X275178Y432146D01*
X273995Y431514D01*
X272959Y430663D01*
X272108Y429627D01*
X271476Y428444D01*
X271087Y427161D01*
X271005Y426327D01*
X277295D01*
Y432618D01*
D02*
G37*
G36*
X304586Y425327D02*
X298295D01*
Y419036D01*
X299130Y419118D01*
X300413Y419507D01*
X301595Y420140D01*
X302632Y420990D01*
X303483Y422027D01*
X304115Y423209D01*
X304504Y424492D01*
X304586Y425327D01*
D02*
G37*
G36*
X288295Y432618D02*
Y425827D01*
Y419036D01*
X289130Y419118D01*
X290413Y419507D01*
X291595Y420140D01*
X292632Y420990D01*
X292959D01*
X293995Y420140D01*
X295178Y419507D01*
X296461Y419118D01*
X297295Y419036D01*
Y425827D01*
Y432618D01*
X296461Y432535D01*
X295178Y432146D01*
X293995Y431514D01*
X292959Y430663D01*
X292632D01*
X291595Y431514D01*
X290413Y432146D01*
X289130Y432535D01*
X288295Y432618D01*
D02*
G37*
G36*
X278295D02*
Y425827D01*
Y419036D01*
X279130Y419118D01*
X280413Y419507D01*
X281595Y420140D01*
X282632Y420990D01*
X282959D01*
X283995Y420140D01*
X285178Y419507D01*
X286461Y419118D01*
X287295Y419036D01*
Y425827D01*
Y432618D01*
X286461Y432535D01*
X285178Y432146D01*
X283995Y431514D01*
X282959Y430663D01*
X282632D01*
X281595Y431514D01*
X280413Y432146D01*
X279130Y432535D01*
X278295Y432618D01*
D02*
G37*
G36*
X277295Y425327D02*
X271005D01*
X271087Y424492D01*
X271476Y423209D01*
X272108Y422027D01*
X272959Y420990D01*
X273995Y420140D01*
X275178Y419507D01*
X276461Y419118D01*
X277295Y419036D01*
Y425327D01*
D02*
G37*
G36*
X276091Y411373D02*
Y409949D01*
X277514D01*
X277460Y410223D01*
X277021Y410879D01*
X276365Y411318D01*
X276091Y411373D01*
D02*
G37*
G36*
X275091D02*
X274816Y411318D01*
X274160Y410879D01*
X273721Y410223D01*
X273667Y409949D01*
X275091D01*
Y411373D01*
D02*
G37*
G36*
X277514Y408949D02*
X276091D01*
Y407525D01*
X276365Y407580D01*
X277021Y408018D01*
X277460Y408675D01*
X277514Y408949D01*
D02*
G37*
G36*
X275091D02*
X273667D01*
X273721Y408675D01*
X274160Y408018D01*
X274816Y407580D01*
X275091Y407525D01*
Y408949D01*
D02*
G37*
G36*
X277748Y398146D02*
X275575D01*
Y394988D01*
X277748D01*
Y398146D01*
D02*
G37*
G36*
Y393988D02*
X275575D01*
Y390831D01*
X277748D01*
Y393988D01*
D02*
G37*
G36*
X280134Y345685D02*
X278551D01*
Y341839D01*
X280134D01*
Y345685D01*
D02*
G37*
G36*
X277551D02*
X275969D01*
Y341839D01*
X277551D01*
Y345685D01*
D02*
G37*
G36*
X280134Y340839D02*
X278551D01*
Y336992D01*
X280134D01*
Y340839D01*
D02*
G37*
G36*
X277551D02*
X275969D01*
Y336992D01*
X277551D01*
Y340839D01*
D02*
G37*
G36*
X276091Y332632D02*
Y331209D01*
X277514D01*
X277460Y331483D01*
X277021Y332139D01*
X276365Y332578D01*
X276091Y332632D01*
D02*
G37*
G36*
X275091D02*
X274816Y332578D01*
X274160Y332139D01*
X273721Y331483D01*
X273667Y331209D01*
X275091D01*
Y332632D01*
D02*
G37*
G36*
X277514Y330209D02*
X276091D01*
Y328785D01*
X276365Y328839D01*
X277021Y329278D01*
X277460Y329934D01*
X277514Y330209D01*
D02*
G37*
G36*
X275091D02*
X273667D01*
X273721Y329934D01*
X274160Y329278D01*
X274816Y328839D01*
X275091Y328785D01*
Y330209D01*
D02*
G37*
G36*
X276091Y316884D02*
Y315461D01*
X277514D01*
X277460Y315735D01*
X277021Y316391D01*
X276365Y316830D01*
X276091Y316884D01*
D02*
G37*
G36*
X275091D02*
X274816Y316830D01*
X274160Y316391D01*
X273721Y315735D01*
X273667Y315461D01*
X275091D01*
Y316884D01*
D02*
G37*
G36*
X277514Y314461D02*
X276091D01*
Y313037D01*
X276365Y313091D01*
X277021Y313530D01*
X277460Y314186D01*
X277514Y314461D01*
D02*
G37*
G36*
X275091D02*
X273667D01*
X273721Y314186D01*
X274160Y313530D01*
X274816Y313091D01*
X275091Y313037D01*
Y314461D01*
D02*
G37*
G36*
X276091Y309010D02*
Y307587D01*
X277514D01*
X277460Y307861D01*
X277021Y308517D01*
X276365Y308956D01*
X276091Y309010D01*
D02*
G37*
G36*
X275091D02*
X274816Y308956D01*
X274160Y308517D01*
X273721Y307861D01*
X273667Y307587D01*
X275091D01*
Y309010D01*
D02*
G37*
G36*
X277732Y306587D02*
X273667D01*
X273721Y306312D01*
X274000Y305895D01*
Y303256D01*
X276673D01*
X279346D01*
Y306413D01*
X277874D01*
X277732Y306587D01*
D02*
G37*
G36*
X279346Y302256D02*
X277173D01*
Y299098D01*
X279346D01*
Y302256D01*
D02*
G37*
G36*
X276173D02*
X274000D01*
Y299098D01*
X276173D01*
Y302256D01*
D02*
G37*
G36*
X276091Y269640D02*
Y268216D01*
X277514D01*
X277460Y268491D01*
X277021Y269147D01*
X276365Y269586D01*
X276091Y269640D01*
D02*
G37*
G36*
X275091D02*
X274816Y269586D01*
X274160Y269147D01*
X273721Y268491D01*
X273667Y268216D01*
X275091D01*
Y269640D01*
D02*
G37*
G36*
X277514Y267216D02*
X276091D01*
Y265793D01*
X276365Y265847D01*
X277021Y266286D01*
X277460Y266942D01*
X277514Y267216D01*
D02*
G37*
G36*
X275091D02*
X273667D01*
X273721Y266942D01*
X274160Y266286D01*
X274816Y265847D01*
X275091Y265793D01*
Y267216D01*
D02*
G37*
G36*
X276091Y261766D02*
Y260343D01*
X277514D01*
X277460Y260617D01*
X277021Y261273D01*
X276365Y261712D01*
X276091Y261766D01*
D02*
G37*
G36*
X275091D02*
X274816Y261712D01*
X274160Y261273D01*
X273721Y260617D01*
X273667Y260343D01*
X275091D01*
Y261766D01*
D02*
G37*
G36*
X277514Y259343D02*
X276091D01*
Y257919D01*
X276365Y257973D01*
X277021Y258412D01*
X277460Y259068D01*
X277514Y259343D01*
D02*
G37*
G36*
X275091D02*
X273667D01*
X273721Y259068D01*
X274160Y258412D01*
X274816Y257973D01*
X275091Y257919D01*
Y259343D01*
D02*
G37*
G36*
X279740Y257102D02*
X278157D01*
Y253256D01*
X279740D01*
Y257102D01*
D02*
G37*
G36*
X277157D02*
X275575D01*
Y253256D01*
X277157D01*
Y257102D01*
D02*
G37*
G36*
X279740Y252256D02*
X278157D01*
Y248410D01*
X279740D01*
Y252256D01*
D02*
G37*
G36*
X277157D02*
X275575D01*
Y248410D01*
X277157D01*
Y252256D01*
D02*
G37*
G36*
X276091Y246018D02*
Y244594D01*
X277514D01*
X277460Y244869D01*
X277021Y245525D01*
X276365Y245964D01*
X276091Y246018D01*
D02*
G37*
G36*
X275091D02*
X274816Y245964D01*
X274160Y245525D01*
X273721Y244869D01*
X273667Y244594D01*
X275091D01*
Y246018D01*
D02*
G37*
G36*
X277514Y243594D02*
X276091D01*
Y242171D01*
X276365Y242225D01*
X277021Y242664D01*
X277460Y243320D01*
X277514Y243594D01*
D02*
G37*
G36*
X275091D02*
X273667D01*
X273721Y243320D01*
X274160Y242664D01*
X274816Y242225D01*
X275091Y242171D01*
Y243594D01*
D02*
G37*
G36*
X280134Y212319D02*
X277961D01*
Y209161D01*
X280134D01*
Y212319D01*
D02*
G37*
G36*
X276961D02*
X274787D01*
Y209161D01*
X276961D01*
Y212319D01*
D02*
G37*
G36*
X280134Y208161D02*
X277961D01*
Y205004D01*
X280134D01*
Y208161D01*
D02*
G37*
G36*
X276961D02*
X274787D01*
Y205004D01*
X276961D01*
Y208161D01*
D02*
G37*
G36*
X276091Y183026D02*
Y181602D01*
X277514D01*
X277460Y181877D01*
X277021Y182533D01*
X276365Y182971D01*
X276091Y183026D01*
D02*
G37*
G36*
X275091D02*
X274816Y182971D01*
X274160Y182533D01*
X273721Y181877D01*
X273667Y181602D01*
X275091D01*
Y183026D01*
D02*
G37*
G36*
X277514Y180602D02*
X276091D01*
Y179179D01*
X276365Y179233D01*
X277021Y179672D01*
X277460Y180328D01*
X277514Y180602D01*
D02*
G37*
G36*
X275091D02*
X273667D01*
X273721Y180328D01*
X274160Y179672D01*
X274816Y179233D01*
X275091Y179179D01*
Y180602D01*
D02*
G37*
G36*
X279520Y170095D02*
X277937D01*
Y166248D01*
X279520D01*
Y170095D01*
D02*
G37*
G36*
Y165248D02*
X277937D01*
Y161402D01*
X279520D01*
Y165248D01*
D02*
G37*
G36*
X276091Y159404D02*
Y157980D01*
X277514D01*
X277460Y158254D01*
X277021Y158911D01*
X276365Y159349D01*
X276091Y159404D01*
D02*
G37*
G36*
X275091D02*
X274816Y159349D01*
X274160Y158911D01*
X273721Y158254D01*
X273667Y157980D01*
X275091D01*
Y159404D01*
D02*
G37*
G36*
X277514Y156980D02*
X276091D01*
Y155556D01*
X276365Y155611D01*
X277021Y156050D01*
X277460Y156706D01*
X277514Y156980D01*
D02*
G37*
G36*
X275091D02*
X273667D01*
X273721Y156706D01*
X274160Y156050D01*
X274816Y155611D01*
X275091Y155556D01*
Y156980D01*
D02*
G37*
G36*
X314567Y377753D02*
X314003Y377641D01*
X313525Y377321D01*
X313384Y377180D01*
X313064Y376701D01*
X312952Y376138D01*
X313064Y375574D01*
X313384Y375096D01*
X313861Y374777D01*
X314425Y374665D01*
X314989Y374777D01*
X315467Y375096D01*
X315609Y375238D01*
X315928Y375716D01*
X316040Y376279D01*
X315928Y376843D01*
X315609Y377321D01*
X315131Y377641D01*
X314567Y377753D01*
D02*
G37*
G36*
X249804Y450785D02*
X248461Y450653D01*
X247169Y450261D01*
X245979Y449625D01*
X244936Y448769D01*
X244080Y447726D01*
X243444Y446536D01*
X243052Y445245D01*
X242920Y443902D01*
X243052Y442559D01*
X243444Y441267D01*
X244080Y440077D01*
X244936Y439034D01*
X245979Y438178D01*
X247169Y437542D01*
X248461Y437150D01*
X249804Y437018D01*
X251147Y437150D01*
X252438Y437542D01*
X253628Y438178D01*
X254671Y439034D01*
X255527Y440077D01*
X256163Y441267D01*
X256555Y442559D01*
X256687Y443902D01*
X256555Y445245D01*
X256163Y446536D01*
X255527Y447726D01*
X254671Y448769D01*
X253628Y449625D01*
X252438Y450261D01*
X251147Y450653D01*
X249804Y450785D01*
D02*
G37*
G36*
X201476D02*
X200133Y450653D01*
X198842Y450261D01*
X197652Y449625D01*
X196609Y448769D01*
X195753Y447726D01*
X195117Y446536D01*
X194725Y445245D01*
X194593Y443902D01*
X194725Y442559D01*
X195117Y441267D01*
X195753Y440077D01*
X196609Y439034D01*
X197652Y438178D01*
X198842Y437542D01*
X200133Y437150D01*
X201476Y437018D01*
X202819Y437150D01*
X204111Y437542D01*
X205301Y438178D01*
X206344Y439034D01*
X207200Y440077D01*
X207836Y441267D01*
X208228Y442559D01*
X208360Y443902D01*
X208228Y445245D01*
X207836Y446536D01*
X207200Y447726D01*
X206344Y448769D01*
X205301Y449625D01*
X204111Y450261D01*
X202819Y450653D01*
X201476Y450785D01*
D02*
G37*
G36*
X159350D02*
X158008Y450653D01*
X156716Y450261D01*
X155526Y449625D01*
X154483Y448769D01*
X153627Y447726D01*
X152991Y446536D01*
X152599Y445245D01*
X152467Y443902D01*
X152599Y442559D01*
X152991Y441267D01*
X153627Y440077D01*
X154483Y439034D01*
X155526Y438178D01*
X156716Y437542D01*
X158008Y437150D01*
X159350Y437018D01*
X160693Y437150D01*
X161985Y437542D01*
X163175Y438178D01*
X164218Y439034D01*
X165074Y440077D01*
X165710Y441267D01*
X166102Y442559D01*
X166234Y443902D01*
X166102Y445245D01*
X165710Y446536D01*
X165074Y447726D01*
X164218Y448769D01*
X163175Y449625D01*
X161985Y450261D01*
X160693Y450653D01*
X159350Y450785D01*
D02*
G37*
G36*
X110039D02*
X108696Y450653D01*
X107405Y450261D01*
X106215Y449625D01*
X105172Y448769D01*
X104315Y447726D01*
X103679Y446536D01*
X103288Y445245D01*
X103155Y443902D01*
X103288Y442559D01*
X103679Y441267D01*
X104315Y440077D01*
X105172Y439034D01*
X106215Y438178D01*
X107405Y437542D01*
X108696Y437150D01*
X110039Y437018D01*
X111382Y437150D01*
X112673Y437542D01*
X113863Y438178D01*
X114906Y439034D01*
X115762Y440077D01*
X116398Y441267D01*
X116790Y442559D01*
X116922Y443902D01*
X116790Y445245D01*
X116398Y446536D01*
X115762Y447726D01*
X114906Y448769D01*
X113863Y449625D01*
X112673Y450261D01*
X111382Y450653D01*
X110039Y450785D01*
D02*
G37*
G36*
X79725D02*
X78382Y450653D01*
X77091Y450261D01*
X75901Y449625D01*
X74857Y448769D01*
X74001Y447726D01*
X73365Y446536D01*
X72974Y445245D01*
X72841Y443902D01*
X72974Y442559D01*
X73365Y441267D01*
X74001Y440077D01*
X74857Y439034D01*
X75901Y438178D01*
X77091Y437542D01*
X78382Y437150D01*
X79725Y437018D01*
X81068Y437150D01*
X82359Y437542D01*
X83549Y438178D01*
X84592Y439034D01*
X85448Y440077D01*
X86084Y441267D01*
X86476Y442559D01*
X86608Y443902D01*
X86476Y445245D01*
X86084Y446536D01*
X85448Y447726D01*
X84592Y448769D01*
X83549Y449625D01*
X82359Y450261D01*
X81068Y450653D01*
X79725Y450785D01*
D02*
G37*
G36*
X123228Y435727D02*
X122476Y435577D01*
X121837Y435151D01*
X121411Y434513D01*
X121261Y433760D01*
X121411Y433007D01*
X121837Y432369D01*
X122476Y431943D01*
X123228Y431793D01*
X123981Y431943D01*
X124619Y432369D01*
X125046Y433007D01*
X125195Y433760D01*
X125046Y434513D01*
X124619Y435151D01*
X123981Y435577D01*
X123228Y435727D01*
D02*
G37*
G36*
X41732Y446206D02*
X40322Y446067D01*
X38966Y445656D01*
X37716Y444988D01*
X36620Y444089D01*
X35721Y442993D01*
X35053Y441743D01*
X34642Y440387D01*
X34503Y438976D01*
X34642Y437566D01*
X35053Y436210D01*
X35721Y434960D01*
X36620Y433864D01*
X37716Y432965D01*
X38966Y432297D01*
X40322Y431886D01*
X41732Y431747D01*
X43143Y431886D01*
X44499Y432297D01*
X45749Y432965D01*
X46844Y433864D01*
X47743Y434960D01*
X48412Y436210D01*
X48823Y437566D01*
X48962Y438976D01*
X48823Y440387D01*
X48412Y441743D01*
X47743Y442993D01*
X46844Y444089D01*
X45749Y444988D01*
X44499Y445656D01*
X43143Y446067D01*
X41732Y446206D01*
D02*
G37*
G36*
X244398Y430874D02*
Y427394D01*
X247878D01*
X247806Y427941D01*
X247402Y428917D01*
X246759Y429755D01*
X245921Y430398D01*
X244945Y430802D01*
X244398Y430874D01*
D02*
G37*
G36*
X243398D02*
X242850Y430802D01*
X241874Y430398D01*
X241036Y429755D01*
X240393Y428917D01*
X239989Y427941D01*
X239917Y427394D01*
X243398D01*
Y430874D01*
D02*
G37*
G36*
X151385D02*
Y427394D01*
X154866D01*
X154794Y427941D01*
X154390Y428917D01*
X153747Y429755D01*
X152909Y430398D01*
X151933Y430802D01*
X151385Y430874D01*
D02*
G37*
G36*
X150385D02*
X149838Y430802D01*
X148862Y430398D01*
X148024Y429755D01*
X147381Y428917D01*
X146977Y427941D01*
X146905Y427394D01*
X150385D01*
Y430874D01*
D02*
G37*
G36*
X259571Y430755D02*
X251848D01*
Y423032D01*
X259571D01*
Y430755D01*
D02*
G37*
G36*
X213803D02*
X206080D01*
Y423032D01*
X213803D01*
Y430755D01*
D02*
G37*
G36*
X122365D02*
X114643D01*
Y423032D01*
X122365D01*
Y430755D01*
D02*
G37*
G36*
X247878Y426394D02*
X244398D01*
Y422913D01*
X244945Y422985D01*
X245921Y423389D01*
X246759Y424032D01*
X247402Y424870D01*
X247806Y425846D01*
X247878Y426394D01*
D02*
G37*
G36*
X243398D02*
X239917D01*
X239989Y425846D01*
X240393Y424870D01*
X241036Y424032D01*
X241874Y423389D01*
X242850Y422985D01*
X243398Y422913D01*
Y426394D01*
D02*
G37*
G36*
X154866D02*
X151385D01*
Y422913D01*
X151933Y422985D01*
X152909Y423389D01*
X153747Y424032D01*
X154390Y424870D01*
X154794Y425846D01*
X154866Y426394D01*
D02*
G37*
G36*
X150385D02*
X146905D01*
X146977Y425846D01*
X147381Y424870D01*
X148024Y424032D01*
X148862Y423389D01*
X149838Y422985D01*
X150385Y422913D01*
Y426394D01*
D02*
G37*
G36*
X198130Y430885D02*
X197097Y430749D01*
X196135Y430350D01*
X195308Y429716D01*
X194674Y428889D01*
X194275Y427926D01*
X194139Y426894D01*
X194275Y425861D01*
X194674Y424898D01*
X195308Y424072D01*
X196135Y423437D01*
X197097Y423038D01*
X198130Y422902D01*
X199163Y423038D01*
X200126Y423437D01*
X200953Y424072D01*
X201587Y424898D01*
X201985Y425861D01*
X202121Y426894D01*
X201985Y427926D01*
X201587Y428889D01*
X200953Y429716D01*
X200126Y430350D01*
X199163Y430749D01*
X198130Y430885D01*
D02*
G37*
G36*
X186319D02*
X185286Y430749D01*
X184324Y430350D01*
X183497Y429716D01*
X182863Y428889D01*
X182464Y427926D01*
X182328Y426894D01*
X182464Y425861D01*
X182863Y424898D01*
X183497Y424072D01*
X184324Y423437D01*
X185286Y423038D01*
X186319Y422902D01*
X187352Y423038D01*
X188315Y423437D01*
X189141Y424072D01*
X189776Y424898D01*
X190174Y425861D01*
X190310Y426894D01*
X190174Y427926D01*
X189776Y428889D01*
X189141Y429716D01*
X188315Y430350D01*
X187352Y430749D01*
X186319Y430885D01*
D02*
G37*
G36*
X174507D02*
X173474Y430749D01*
X172512Y430350D01*
X171685Y429716D01*
X171051Y428889D01*
X170652Y427926D01*
X170516Y426894D01*
X170652Y425861D01*
X171051Y424898D01*
X171685Y424072D01*
X172512Y423437D01*
X173474Y423038D01*
X174507Y422902D01*
X175540Y423038D01*
X176503Y423437D01*
X177330Y424072D01*
X177964Y424898D01*
X178362Y425861D01*
X178498Y426894D01*
X178362Y427926D01*
X177964Y428889D01*
X177330Y429716D01*
X176503Y430350D01*
X175540Y430749D01*
X174507Y430885D01*
D02*
G37*
G36*
X162696D02*
X161663Y430749D01*
X160701Y430350D01*
X159874Y429716D01*
X159240Y428889D01*
X158841Y427926D01*
X158705Y426894D01*
X158841Y425861D01*
X159240Y424898D01*
X159874Y424072D01*
X160701Y423437D01*
X161663Y423038D01*
X162696Y422902D01*
X163729Y423038D01*
X164692Y423437D01*
X165518Y424072D01*
X166153Y424898D01*
X166551Y425861D01*
X166687Y426894D01*
X166551Y427926D01*
X166153Y428889D01*
X165518Y429716D01*
X164692Y430350D01*
X163729Y430749D01*
X162696Y430885D01*
D02*
G37*
G36*
X106693D02*
X105660Y430749D01*
X104697Y430350D01*
X103871Y429716D01*
X103237Y428889D01*
X102838Y427926D01*
X102702Y426894D01*
X102838Y425861D01*
X103237Y424898D01*
X103871Y424072D01*
X104697Y423437D01*
X105660Y423038D01*
X106693Y422902D01*
X107726Y423038D01*
X108688Y423437D01*
X109515Y424072D01*
X110149Y424898D01*
X110548Y425861D01*
X110684Y426894D01*
X110548Y427926D01*
X110149Y428889D01*
X109515Y429716D01*
X108688Y430350D01*
X107726Y430749D01*
X106693Y430885D01*
D02*
G37*
G36*
X94882D02*
X93849Y430749D01*
X92886Y430350D01*
X92060Y429716D01*
X91426Y428889D01*
X91027Y427926D01*
X90891Y426894D01*
X91027Y425861D01*
X91426Y424898D01*
X92060Y424072D01*
X92886Y423437D01*
X93849Y423038D01*
X94882Y422902D01*
X95915Y423038D01*
X96877Y423437D01*
X97704Y424072D01*
X98338Y424898D01*
X98737Y425861D01*
X98873Y426894D01*
X98737Y427926D01*
X98338Y428889D01*
X97704Y429716D01*
X96877Y430350D01*
X95915Y430749D01*
X94882Y430885D01*
D02*
G37*
G36*
X83071D02*
X82038Y430749D01*
X81075Y430350D01*
X80249Y429716D01*
X79615Y428889D01*
X79216Y427926D01*
X79080Y426894D01*
X79216Y425861D01*
X79615Y424898D01*
X80249Y424072D01*
X81075Y423437D01*
X82038Y423038D01*
X83071Y422902D01*
X84104Y423038D01*
X85066Y423437D01*
X85893Y424072D01*
X86527Y424898D01*
X86926Y425861D01*
X87062Y426894D01*
X86926Y427926D01*
X86527Y428889D01*
X85893Y429716D01*
X85066Y430350D01*
X84104Y430749D01*
X83071Y430885D01*
D02*
G37*
G36*
X71260D02*
X70227Y430749D01*
X69264Y430350D01*
X68438Y429716D01*
X67804Y428889D01*
X67405Y427926D01*
X67269Y426894D01*
X67405Y425861D01*
X67804Y424898D01*
X68438Y424072D01*
X69264Y423437D01*
X70227Y423038D01*
X71260Y422902D01*
X72293Y423038D01*
X73255Y423437D01*
X74082Y424072D01*
X74716Y424898D01*
X75115Y425861D01*
X75251Y426894D01*
X75115Y427926D01*
X74716Y428889D01*
X74082Y429716D01*
X73255Y430350D01*
X72293Y430749D01*
X71260Y430885D01*
D02*
G37*
G36*
X255710Y419074D02*
X254677Y418938D01*
X253714Y418539D01*
X252888Y417905D01*
X252253Y417078D01*
X251855Y416116D01*
X251719Y415083D01*
X251855Y414050D01*
X252253Y413087D01*
X252888Y412260D01*
X253714Y411626D01*
X254677Y411228D01*
X255710Y411092D01*
X256743Y411228D01*
X257705Y411626D01*
X258532Y412260D01*
X259166Y413087D01*
X259565Y414050D01*
X259701Y415083D01*
X259565Y416116D01*
X259166Y417078D01*
X258532Y417905D01*
X257705Y418539D01*
X256743Y418938D01*
X255710Y419074D01*
D02*
G37*
G36*
X243898D02*
X242865Y418938D01*
X241902Y418539D01*
X241076Y417905D01*
X240441Y417078D01*
X240043Y416116D01*
X239907Y415083D01*
X240043Y414050D01*
X240441Y413087D01*
X241076Y412260D01*
X241902Y411626D01*
X242865Y411228D01*
X243898Y411092D01*
X244931Y411228D01*
X245893Y411626D01*
X246720Y412260D01*
X247354Y413087D01*
X247753Y414050D01*
X247889Y415083D01*
X247753Y416116D01*
X247354Y417078D01*
X246720Y417905D01*
X245893Y418539D01*
X244931Y418938D01*
X243898Y419074D01*
D02*
G37*
G36*
X162696D02*
X161663Y418938D01*
X160701Y418539D01*
X159874Y417905D01*
X159240Y417078D01*
X158841Y416116D01*
X158705Y415083D01*
X158841Y414050D01*
X159240Y413087D01*
X159874Y412260D01*
X160701Y411626D01*
X161663Y411228D01*
X162696Y411092D01*
X163729Y411228D01*
X164692Y411626D01*
X165518Y412260D01*
X166153Y413087D01*
X166551Y414050D01*
X166687Y415083D01*
X166551Y416116D01*
X166153Y417078D01*
X165518Y417905D01*
X164692Y418539D01*
X163729Y418938D01*
X162696Y419074D01*
D02*
G37*
G36*
X150885D02*
X149852Y418938D01*
X148890Y418539D01*
X148063Y417905D01*
X147429Y417078D01*
X147030Y416116D01*
X146894Y415083D01*
X147030Y414050D01*
X147429Y413087D01*
X148063Y412260D01*
X148890Y411626D01*
X149852Y411228D01*
X150885Y411092D01*
X151918Y411228D01*
X152881Y411626D01*
X153708Y412260D01*
X154342Y413087D01*
X154740Y414050D01*
X154876Y415083D01*
X154740Y416116D01*
X154342Y417078D01*
X153708Y417905D01*
X152881Y418539D01*
X151918Y418938D01*
X150885Y419074D01*
D02*
G37*
G36*
X118504D02*
X117471Y418938D01*
X116508Y418539D01*
X115682Y417905D01*
X115048Y417078D01*
X114649Y416116D01*
X114513Y415083D01*
X114649Y414050D01*
X115048Y413087D01*
X115682Y412260D01*
X116508Y411626D01*
X117471Y411228D01*
X118504Y411092D01*
X119537Y411228D01*
X120499Y411626D01*
X121326Y412260D01*
X121960Y413087D01*
X122359Y414050D01*
X122495Y415083D01*
X122359Y416116D01*
X121960Y417078D01*
X121326Y417905D01*
X120499Y418539D01*
X119537Y418938D01*
X118504Y419074D01*
D02*
G37*
G36*
X106693D02*
X105660Y418938D01*
X104697Y418539D01*
X103871Y417905D01*
X103237Y417078D01*
X102838Y416116D01*
X102702Y415083D01*
X102838Y414050D01*
X103237Y413087D01*
X103871Y412260D01*
X104697Y411626D01*
X105660Y411228D01*
X106693Y411092D01*
X107726Y411228D01*
X108688Y411626D01*
X109515Y412260D01*
X110149Y413087D01*
X110548Y414050D01*
X110684Y415083D01*
X110548Y416116D01*
X110149Y417078D01*
X109515Y417905D01*
X108688Y418539D01*
X107726Y418938D01*
X106693Y419074D01*
D02*
G37*
G36*
X94882D02*
X93849Y418938D01*
X92886Y418539D01*
X92060Y417905D01*
X91426Y417078D01*
X91027Y416116D01*
X90891Y415083D01*
X91027Y414050D01*
X91426Y413087D01*
X92060Y412260D01*
X92886Y411626D01*
X93849Y411228D01*
X94882Y411092D01*
X95915Y411228D01*
X96877Y411626D01*
X97704Y412260D01*
X98338Y413087D01*
X98737Y414050D01*
X98873Y415083D01*
X98737Y416116D01*
X98338Y417078D01*
X97704Y417905D01*
X96877Y418539D01*
X95915Y418938D01*
X94882Y419074D01*
D02*
G37*
G36*
X83071D02*
X82038Y418938D01*
X81075Y418539D01*
X80249Y417905D01*
X79615Y417078D01*
X79216Y416116D01*
X79080Y415083D01*
X79216Y414050D01*
X79615Y413087D01*
X80249Y412260D01*
X81075Y411626D01*
X82038Y411228D01*
X83071Y411092D01*
X84104Y411228D01*
X85066Y411626D01*
X85893Y412260D01*
X86527Y413087D01*
X86926Y414050D01*
X87062Y415083D01*
X86926Y416116D01*
X86527Y417078D01*
X85893Y417905D01*
X85066Y418539D01*
X84104Y418938D01*
X83071Y419074D01*
D02*
G37*
G36*
X71260D02*
X70227Y418938D01*
X69264Y418539D01*
X68438Y417905D01*
X67804Y417078D01*
X67405Y416116D01*
X67269Y415083D01*
X67405Y414050D01*
X67804Y413087D01*
X68438Y412260D01*
X69264Y411626D01*
X70227Y411228D01*
X71260Y411092D01*
X72293Y411228D01*
X73255Y411626D01*
X74082Y412260D01*
X74716Y413087D01*
X75115Y414050D01*
X75251Y415083D01*
X75115Y416116D01*
X74716Y417078D01*
X74082Y417905D01*
X73255Y418539D01*
X72293Y418938D01*
X71260Y419074D01*
D02*
G37*
G36*
X82579Y408365D02*
X81826Y408215D01*
X81188Y407789D01*
X80761Y407150D01*
X80612Y406398D01*
X80761Y405645D01*
X81188Y405007D01*
X81826Y404580D01*
X82579Y404431D01*
X83331Y404580D01*
X83970Y405007D01*
X84396Y405645D01*
X84546Y406398D01*
X84396Y407150D01*
X83970Y407789D01*
X83331Y408215D01*
X82579Y408365D01*
D02*
G37*
G36*
X209941Y419074D02*
X208908Y418938D01*
X207946Y418539D01*
X207119Y417905D01*
X206485Y417078D01*
X206086Y416116D01*
X205950Y415083D01*
X206086Y414050D01*
X206485Y413087D01*
X207119Y412260D01*
X207946Y411626D01*
X208908Y411228D01*
X209941Y411092D01*
X210974Y411228D01*
X211497Y411444D01*
X211913Y411028D01*
Y409114D01*
X210669D01*
Y403854D01*
X210614D01*
Y401583D01*
X216748D01*
Y403854D01*
X216693D01*
Y409114D01*
X214859D01*
Y411638D01*
X214747Y412202D01*
X214427Y412680D01*
X213580Y413527D01*
X213796Y414050D01*
X213932Y415083D01*
X213796Y416116D01*
X213398Y417078D01*
X212764Y417905D01*
X211937Y418539D01*
X210974Y418938D01*
X209941Y419074D01*
D02*
G37*
G36*
X198130D02*
X197097Y418938D01*
X196135Y418539D01*
X195308Y417905D01*
X194674Y417078D01*
X194275Y416116D01*
X194139Y415083D01*
X194275Y414050D01*
X194674Y413087D01*
X195308Y412260D01*
X196135Y411626D01*
X197097Y411228D01*
X198130Y411092D01*
X199163Y411228D01*
X199686Y411444D01*
X200987Y410142D01*
Y409114D01*
X199449D01*
Y403854D01*
X199394D01*
Y401583D01*
X205528D01*
Y403854D01*
X205472D01*
Y409114D01*
X203934D01*
Y410752D01*
X203822Y411316D01*
X203502Y411794D01*
X201769Y413527D01*
X201985Y414050D01*
X202121Y415083D01*
X201985Y416116D01*
X201587Y417078D01*
X200953Y417905D01*
X200126Y418539D01*
X199163Y418938D01*
X198130Y419074D01*
D02*
G37*
G36*
X186319D02*
X185286Y418938D01*
X184324Y418539D01*
X183497Y417905D01*
X182863Y417078D01*
X182464Y416116D01*
X182328Y415083D01*
X182464Y414050D01*
X182863Y413087D01*
X183497Y412260D01*
X184324Y411626D01*
X185286Y411228D01*
X186035Y411129D01*
Y407374D01*
X186063Y407232D01*
Y403559D01*
X186008D01*
Y401287D01*
X192142D01*
Y403559D01*
X192087D01*
Y408819D01*
X188981D01*
Y412137D01*
X189141Y412260D01*
X189776Y413087D01*
X190174Y414050D01*
X190310Y415083D01*
X190174Y416116D01*
X189776Y417078D01*
X189141Y417905D01*
X188315Y418539D01*
X187352Y418938D01*
X186319Y419074D01*
D02*
G37*
G36*
X174507D02*
X173474Y418938D01*
X172512Y418539D01*
X171685Y417905D01*
X171051Y417078D01*
X170652Y416116D01*
X170516Y415083D01*
X170652Y414050D01*
X171051Y413087D01*
X171685Y412260D01*
X172512Y411626D01*
X173474Y411228D01*
X174507Y411092D01*
X174617Y410995D01*
Y407374D01*
X174646Y407232D01*
Y403559D01*
X174591D01*
Y401287D01*
X180724D01*
Y403559D01*
X180669D01*
Y408819D01*
X177564D01*
Y412140D01*
X177497Y412478D01*
X177964Y413087D01*
X178362Y414050D01*
X178498Y415083D01*
X178362Y416116D01*
X177964Y417078D01*
X177330Y417905D01*
X176503Y418539D01*
X175540Y418938D01*
X174507Y419074D01*
D02*
G37*
G36*
X261811Y402754D02*
X261058Y402605D01*
X260420Y402178D01*
X259994Y401540D01*
X259844Y400787D01*
X259994Y400035D01*
X260420Y399397D01*
X261058Y398970D01*
X261811Y398820D01*
X262564Y398970D01*
X263202Y399397D01*
X263628Y400035D01*
X263778Y400787D01*
X263628Y401540D01*
X263202Y402178D01*
X262564Y402605D01*
X261811Y402754D01*
D02*
G37*
G36*
X49508Y406298D02*
X48755Y406148D01*
X48117Y405722D01*
X47691Y405083D01*
X47541Y404331D01*
X47691Y403578D01*
X48117Y402940D01*
X48360Y402778D01*
Y402176D01*
X48215Y402080D01*
X47789Y401442D01*
X47639Y400689D01*
X47789Y399936D01*
X48215Y399298D01*
X48854Y398872D01*
X49606Y398722D01*
X50359Y398872D01*
X50997Y399298D01*
X51424Y399936D01*
X51573Y400689D01*
X51424Y401442D01*
X50997Y402080D01*
X50754Y402242D01*
Y402843D01*
X50899Y402940D01*
X51325Y403578D01*
X51475Y404331D01*
X51325Y405083D01*
X50899Y405722D01*
X50261Y406148D01*
X49508Y406298D01*
D02*
G37*
G36*
X216748Y400583D02*
X214181D01*
Y398311D01*
X216748D01*
Y400583D01*
D02*
G37*
G36*
X213181D02*
X210614D01*
Y398311D01*
X213181D01*
Y400583D01*
D02*
G37*
G36*
X205528D02*
X202961D01*
Y398311D01*
X205528D01*
Y400583D01*
D02*
G37*
G36*
X201961D02*
X199394D01*
Y398311D01*
X201961D01*
Y400583D01*
D02*
G37*
G36*
X192142Y400287D02*
X189575D01*
Y398016D01*
X192142D01*
Y400287D01*
D02*
G37*
G36*
X188575D02*
X186008D01*
Y398016D01*
X188575D01*
Y400287D01*
D02*
G37*
G36*
X180724D02*
X178157D01*
Y398016D01*
X180724D01*
Y400287D01*
D02*
G37*
G36*
X177157D02*
X174591D01*
Y398016D01*
X177157D01*
Y400287D01*
D02*
G37*
G36*
X258268Y398424D02*
X257515Y398274D01*
X256877Y397848D01*
X256451Y397209D01*
X256301Y396457D01*
X256451Y395704D01*
X256877Y395066D01*
X257515Y394639D01*
X258268Y394490D01*
X259020Y394639D01*
X259659Y395066D01*
X260085Y395704D01*
X260235Y396457D01*
X260085Y397209D01*
X259659Y397848D01*
X259020Y398274D01*
X258268Y398424D01*
D02*
G37*
G36*
X77264Y396061D02*
X76511Y395912D01*
X75873Y395485D01*
X75447Y394847D01*
X75297Y394094D01*
X75447Y393342D01*
X75873Y392704D01*
X76511Y392277D01*
X77264Y392128D01*
X78017Y392277D01*
X78655Y392704D01*
X79081Y393342D01*
X79231Y394094D01*
X79081Y394847D01*
X78655Y395485D01*
X78017Y395912D01*
X77264Y396061D01*
D02*
G37*
G36*
X188484Y395766D02*
X187732Y395616D01*
X187093Y395190D01*
X186667Y394552D01*
X186517Y393799D01*
X186667Y393046D01*
X187093Y392408D01*
X187732Y391982D01*
X188484Y391832D01*
X189237Y391982D01*
X189875Y392408D01*
X190301Y393046D01*
X190451Y393799D01*
X190301Y394552D01*
X189875Y395190D01*
X189237Y395616D01*
X188484Y395766D01*
D02*
G37*
G36*
X69390Y392813D02*
X68637Y392664D01*
X67999Y392237D01*
X67573Y391599D01*
X67423Y390846D01*
X67573Y390094D01*
X67999Y389456D01*
X68637Y389029D01*
X69390Y388879D01*
X70143Y389029D01*
X70781Y389456D01*
X71207Y390094D01*
X71357Y390846D01*
X71207Y391599D01*
X70781Y392237D01*
X70143Y392664D01*
X69390Y392813D01*
D02*
G37*
G36*
X42770Y388205D02*
X35380D01*
Y379315D01*
X42770D01*
Y388205D01*
D02*
G37*
G36*
X219075Y388237D02*
X218110Y388110D01*
X217211Y387737D01*
X216440Y387145D01*
X215847Y386373D01*
X215475Y385474D01*
X215348Y384510D01*
Y383010D01*
X215475Y382045D01*
X215847Y381147D01*
X216440Y380375D01*
X217211Y379782D01*
X218110Y379410D01*
X219075Y379283D01*
X220039Y379410D01*
X220938Y379782D01*
X221710Y380375D01*
X222302Y381147D01*
X222675Y382045D01*
X222802Y383010D01*
Y384510D01*
X222675Y385474D01*
X222302Y386373D01*
X221710Y387145D01*
X220938Y387737D01*
X220039Y388110D01*
X219075Y388237D01*
D02*
G37*
G36*
X209075D02*
X208110Y388110D01*
X207211Y387737D01*
X206440Y387145D01*
X205847Y386373D01*
X205475Y385474D01*
X205348Y384510D01*
Y383010D01*
X205475Y382045D01*
X205847Y381147D01*
X206440Y380375D01*
X207211Y379782D01*
X208110Y379410D01*
X209075Y379283D01*
X210039Y379410D01*
X210938Y379782D01*
X211710Y380375D01*
X212302Y381147D01*
X212675Y382045D01*
X212802Y383010D01*
Y384510D01*
X212675Y385474D01*
X212302Y386373D01*
X211710Y387145D01*
X210938Y387737D01*
X210039Y388110D01*
X209075Y388237D01*
D02*
G37*
G36*
X199075D02*
X198110Y388110D01*
X197211Y387737D01*
X196440Y387145D01*
X195847Y386373D01*
X195475Y385474D01*
X195348Y384510D01*
Y383010D01*
X195475Y382045D01*
X195847Y381147D01*
X196440Y380375D01*
X197211Y379782D01*
X198110Y379410D01*
X199075Y379283D01*
X200039Y379410D01*
X200938Y379782D01*
X201710Y380375D01*
X202302Y381147D01*
X202675Y382045D01*
X202802Y383010D01*
Y384510D01*
X202675Y385474D01*
X202302Y386373D01*
X201710Y387145D01*
X200938Y387737D01*
X200039Y388110D01*
X199075Y388237D01*
D02*
G37*
G36*
X189075D02*
X188110Y388110D01*
X187211Y387737D01*
X186440Y387145D01*
X185847Y386373D01*
X185475Y385474D01*
X185348Y384510D01*
Y383010D01*
X185475Y382045D01*
X185847Y381147D01*
X186440Y380375D01*
X187211Y379782D01*
X188110Y379410D01*
X189075Y379283D01*
X190039Y379410D01*
X190938Y379782D01*
X191710Y380375D01*
X192302Y381147D01*
X192675Y382045D01*
X192802Y383010D01*
Y384510D01*
X192675Y385474D01*
X192302Y386373D01*
X191710Y387145D01*
X190938Y387737D01*
X190039Y388110D01*
X189075Y388237D01*
D02*
G37*
G36*
X179075D02*
X178110Y388110D01*
X177211Y387737D01*
X176440Y387145D01*
X175847Y386373D01*
X175475Y385474D01*
X175348Y384510D01*
Y383010D01*
X175475Y382045D01*
X175847Y381147D01*
X176440Y380375D01*
X177211Y379782D01*
X178110Y379410D01*
X179075Y379283D01*
X180039Y379410D01*
X180938Y379782D01*
X181710Y380375D01*
X182302Y381147D01*
X182675Y382045D01*
X182802Y383010D01*
Y384510D01*
X182675Y385474D01*
X182302Y386373D01*
X181710Y387145D01*
X180938Y387737D01*
X180039Y388110D01*
X179075Y388237D01*
D02*
G37*
G36*
X169075D02*
X168110Y388110D01*
X167211Y387737D01*
X166440Y387145D01*
X165847Y386373D01*
X165475Y385474D01*
X165348Y384510D01*
Y383010D01*
X165475Y382045D01*
X165847Y381147D01*
X166440Y380375D01*
X167211Y379782D01*
X168110Y379410D01*
X169075Y379283D01*
X170039Y379410D01*
X170938Y379782D01*
X171710Y380375D01*
X172302Y381147D01*
X172675Y382045D01*
X172802Y383010D01*
Y384510D01*
X172675Y385474D01*
X172302Y386373D01*
X171710Y387145D01*
X170938Y387737D01*
X170039Y388110D01*
X169075Y388237D01*
D02*
G37*
G36*
X159075D02*
X158110Y388110D01*
X157211Y387737D01*
X156440Y387145D01*
X155847Y386373D01*
X155475Y385474D01*
X155348Y384510D01*
Y383010D01*
X155475Y382045D01*
X155847Y381147D01*
X156440Y380375D01*
X157211Y379782D01*
X158110Y379410D01*
X159075Y379283D01*
X160039Y379410D01*
X160938Y379782D01*
X161710Y380375D01*
X162302Y381147D01*
X162675Y382045D01*
X162802Y383010D01*
Y384510D01*
X162675Y385474D01*
X162302Y386373D01*
X161710Y387145D01*
X160938Y387737D01*
X160039Y388110D01*
X159075Y388237D01*
D02*
G37*
G36*
X149075D02*
X148110Y388110D01*
X147211Y387737D01*
X146440Y387145D01*
X145847Y386373D01*
X145475Y385474D01*
X145348Y384510D01*
Y383010D01*
X145475Y382045D01*
X145847Y381147D01*
X146440Y380375D01*
X147211Y379782D01*
X148110Y379410D01*
X149075Y379283D01*
X150039Y379410D01*
X150938Y379782D01*
X151710Y380375D01*
X152302Y381147D01*
X152675Y382045D01*
X152802Y383010D01*
Y384510D01*
X152675Y385474D01*
X152302Y386373D01*
X151710Y387145D01*
X150938Y387737D01*
X150039Y388110D01*
X149075Y388237D01*
D02*
G37*
G36*
X139075D02*
X138110Y388110D01*
X137211Y387737D01*
X136440Y387145D01*
X135847Y386373D01*
X135475Y385474D01*
X135348Y384510D01*
Y383010D01*
X135475Y382045D01*
X135847Y381147D01*
X136440Y380375D01*
X137211Y379782D01*
X138110Y379410D01*
X139075Y379283D01*
X140039Y379410D01*
X140938Y379782D01*
X141710Y380375D01*
X142302Y381147D01*
X142675Y382045D01*
X142802Y383010D01*
Y384510D01*
X142675Y385474D01*
X142302Y386373D01*
X141710Y387145D01*
X140938Y387737D01*
X140039Y388110D01*
X139075Y388237D01*
D02*
G37*
G36*
X129075D02*
X128110Y388110D01*
X127211Y387737D01*
X126440Y387145D01*
X125847Y386373D01*
X125475Y385474D01*
X125348Y384510D01*
Y383010D01*
X125475Y382045D01*
X125847Y381147D01*
X126440Y380375D01*
X127211Y379782D01*
X128110Y379410D01*
X129075Y379283D01*
X130039Y379410D01*
X130938Y379782D01*
X131710Y380375D01*
X132302Y381147D01*
X132675Y382045D01*
X132802Y383010D01*
Y384510D01*
X132675Y385474D01*
X132302Y386373D01*
X131710Y387145D01*
X130938Y387737D01*
X130039Y388110D01*
X129075Y388237D01*
D02*
G37*
G36*
X119075D02*
X118110Y388110D01*
X117211Y387737D01*
X116440Y387145D01*
X115847Y386373D01*
X115475Y385474D01*
X115348Y384510D01*
Y383010D01*
X115475Y382045D01*
X115847Y381147D01*
X116440Y380375D01*
X117211Y379782D01*
X118110Y379410D01*
X119075Y379283D01*
X120039Y379410D01*
X120938Y379782D01*
X121710Y380375D01*
X122302Y381147D01*
X122675Y382045D01*
X122802Y383010D01*
Y384510D01*
X122675Y385474D01*
X122302Y386373D01*
X121710Y387145D01*
X120938Y387737D01*
X120039Y388110D01*
X119075Y388237D01*
D02*
G37*
G36*
X109075D02*
X108110Y388110D01*
X107211Y387737D01*
X106440Y387145D01*
X105847Y386373D01*
X105475Y385474D01*
X105348Y384510D01*
Y383010D01*
X105475Y382045D01*
X105847Y381147D01*
X106440Y380375D01*
X107211Y379782D01*
X108110Y379410D01*
X109075Y379283D01*
X110039Y379410D01*
X110938Y379782D01*
X111710Y380375D01*
X112302Y381147D01*
X112675Y382045D01*
X112802Y383010D01*
Y384510D01*
X112675Y385474D01*
X112302Y386373D01*
X111710Y387145D01*
X110938Y387737D01*
X110039Y388110D01*
X109075Y388237D01*
D02*
G37*
G36*
X99075D02*
X98110Y388110D01*
X97211Y387737D01*
X96440Y387145D01*
X95847Y386373D01*
X95475Y385474D01*
X95348Y384510D01*
Y383010D01*
X95475Y382045D01*
X95847Y381147D01*
X96440Y380375D01*
X97211Y379782D01*
X98110Y379410D01*
X99075Y379283D01*
X100039Y379410D01*
X100938Y379782D01*
X101710Y380375D01*
X102302Y381147D01*
X102675Y382045D01*
X102802Y383010D01*
Y384510D01*
X102675Y385474D01*
X102302Y386373D01*
X101710Y387145D01*
X100938Y387737D01*
X100039Y388110D01*
X99075Y388237D01*
D02*
G37*
G36*
X89075D02*
X88110Y388110D01*
X87211Y387737D01*
X86440Y387145D01*
X85847Y386373D01*
X85475Y385474D01*
X85348Y384510D01*
Y383010D01*
X85475Y382045D01*
X85847Y381147D01*
X86440Y380375D01*
X87211Y379782D01*
X88110Y379410D01*
X89075Y379283D01*
X90039Y379410D01*
X90938Y379782D01*
X91710Y380375D01*
X92302Y381147D01*
X92675Y382045D01*
X92802Y383010D01*
Y384510D01*
X92675Y385474D01*
X92302Y386373D01*
X91710Y387145D01*
X90938Y387737D01*
X90039Y388110D01*
X89075Y388237D01*
D02*
G37*
G36*
X79075D02*
X78110Y388110D01*
X77211Y387737D01*
X76440Y387145D01*
X75847Y386373D01*
X75475Y385474D01*
X75348Y384510D01*
Y383010D01*
X75475Y382045D01*
X75847Y381147D01*
X76440Y380375D01*
X77211Y379782D01*
X78110Y379410D01*
X79075Y379283D01*
X80039Y379410D01*
X80938Y379782D01*
X81710Y380375D01*
X82302Y381147D01*
X82675Y382045D01*
X82802Y383010D01*
Y384510D01*
X82675Y385474D01*
X82302Y386373D01*
X81710Y387145D01*
X80938Y387737D01*
X80039Y388110D01*
X79075Y388237D01*
D02*
G37*
G36*
X69075D02*
X68110Y388110D01*
X67211Y387737D01*
X66440Y387145D01*
X65847Y386373D01*
X65475Y385474D01*
X65348Y384510D01*
Y383010D01*
X65475Y382045D01*
X65847Y381147D01*
X66440Y380375D01*
X67211Y379782D01*
X68110Y379410D01*
X69075Y379283D01*
X70039Y379410D01*
X70938Y379782D01*
X71710Y380375D01*
X72302Y381147D01*
X72675Y382045D01*
X72802Y383010D01*
Y384510D01*
X72675Y385474D01*
X72302Y386373D01*
X71710Y387145D01*
X70938Y387737D01*
X70039Y388110D01*
X69075Y388237D01*
D02*
G37*
G36*
X59075D02*
X58110Y388110D01*
X57211Y387737D01*
X56440Y387145D01*
X55847Y386373D01*
X55475Y385474D01*
X55348Y384510D01*
Y383010D01*
X55475Y382045D01*
X55847Y381147D01*
X56440Y380375D01*
X57211Y379782D01*
X58110Y379410D01*
X59075Y379283D01*
X60039Y379410D01*
X60938Y379782D01*
X61710Y380375D01*
X62302Y381147D01*
X62675Y382045D01*
X62802Y383010D01*
Y384510D01*
X62675Y385474D01*
X62302Y386373D01*
X61710Y387145D01*
X60938Y387737D01*
X60039Y388110D01*
X59075Y388237D01*
D02*
G37*
G36*
X49075D02*
X48110Y388110D01*
X47211Y387737D01*
X46440Y387145D01*
X45847Y386373D01*
X45475Y385474D01*
X45348Y384510D01*
Y383010D01*
X45475Y382045D01*
X45847Y381147D01*
X46440Y380375D01*
X47211Y379782D01*
X48110Y379410D01*
X49075Y379283D01*
X50039Y379410D01*
X50938Y379782D01*
X51710Y380375D01*
X52302Y381147D01*
X52675Y382045D01*
X52802Y383010D01*
Y384510D01*
X52675Y385474D01*
X52302Y386373D01*
X51710Y387145D01*
X50938Y387737D01*
X50039Y388110D01*
X49075Y388237D01*
D02*
G37*
G36*
X109575Y378226D02*
Y374260D01*
X112857D01*
Y374510D01*
X112728Y375489D01*
X112350Y376401D01*
X111749Y377184D01*
X110966Y377785D01*
X110054Y378163D01*
X109575Y378226D01*
D02*
G37*
G36*
X108575D02*
X108096Y378163D01*
X107184Y377785D01*
X106400Y377184D01*
X105799Y376401D01*
X105421Y375489D01*
X105292Y374510D01*
Y374260D01*
X108575D01*
Y378226D01*
D02*
G37*
G36*
X112857Y373260D02*
X109575D01*
Y369293D01*
X110054Y369356D01*
X110966Y369734D01*
X111749Y370335D01*
X112350Y371119D01*
X112728Y372031D01*
X112857Y373010D01*
Y373260D01*
D02*
G37*
G36*
X108575D02*
X105292D01*
Y373010D01*
X105421Y372031D01*
X105799Y371119D01*
X106400Y370335D01*
X107184Y369734D01*
X108096Y369356D01*
X108575Y369293D01*
Y373260D01*
D02*
G37*
G36*
X219075Y378237D02*
X218110Y378110D01*
X217211Y377737D01*
X216440Y377145D01*
X215847Y376373D01*
X215475Y375474D01*
X215348Y374510D01*
Y373010D01*
X215475Y372045D01*
X215847Y371146D01*
X216440Y370375D01*
X217211Y369782D01*
X218110Y369410D01*
X219075Y369283D01*
X220039Y369410D01*
X220938Y369782D01*
X221710Y370375D01*
X222302Y371146D01*
X222675Y372045D01*
X222802Y373010D01*
Y374510D01*
X222675Y375474D01*
X222302Y376373D01*
X221710Y377145D01*
X220938Y377737D01*
X220039Y378110D01*
X219075Y378237D01*
D02*
G37*
G36*
X209075D02*
X208110Y378110D01*
X207211Y377737D01*
X206440Y377145D01*
X205847Y376373D01*
X205475Y375474D01*
X205348Y374510D01*
Y373010D01*
X205475Y372045D01*
X205847Y371146D01*
X206440Y370375D01*
X207211Y369782D01*
X208110Y369410D01*
X209075Y369283D01*
X210039Y369410D01*
X210938Y369782D01*
X211710Y370375D01*
X212302Y371146D01*
X212675Y372045D01*
X212802Y373010D01*
Y374510D01*
X212675Y375474D01*
X212302Y376373D01*
X211710Y377145D01*
X210938Y377737D01*
X210039Y378110D01*
X209075Y378237D01*
D02*
G37*
G36*
X199075D02*
X198110Y378110D01*
X197211Y377737D01*
X196440Y377145D01*
X195847Y376373D01*
X195475Y375474D01*
X195348Y374510D01*
Y373010D01*
X195475Y372045D01*
X195847Y371146D01*
X196440Y370375D01*
X197211Y369782D01*
X198110Y369410D01*
X199075Y369283D01*
X200039Y369410D01*
X200938Y369782D01*
X201710Y370375D01*
X202302Y371146D01*
X202675Y372045D01*
X202802Y373010D01*
Y374510D01*
X202675Y375474D01*
X202302Y376373D01*
X201710Y377145D01*
X200938Y377737D01*
X200039Y378110D01*
X199075Y378237D01*
D02*
G37*
G36*
X189075D02*
X188110Y378110D01*
X187211Y377737D01*
X186440Y377145D01*
X185847Y376373D01*
X185475Y375474D01*
X185348Y374510D01*
Y373010D01*
X185475Y372045D01*
X185847Y371146D01*
X186440Y370375D01*
X187211Y369782D01*
X188110Y369410D01*
X189075Y369283D01*
X190039Y369410D01*
X190938Y369782D01*
X191710Y370375D01*
X192302Y371146D01*
X192675Y372045D01*
X192802Y373010D01*
Y374510D01*
X192675Y375474D01*
X192302Y376373D01*
X191710Y377145D01*
X190938Y377737D01*
X190039Y378110D01*
X189075Y378237D01*
D02*
G37*
G36*
X179075D02*
X178110Y378110D01*
X177211Y377737D01*
X176440Y377145D01*
X175847Y376373D01*
X175475Y375474D01*
X175348Y374510D01*
Y373010D01*
X175475Y372045D01*
X175847Y371146D01*
X176440Y370375D01*
X177211Y369782D01*
X178110Y369410D01*
X179075Y369283D01*
X180039Y369410D01*
X180938Y369782D01*
X181710Y370375D01*
X182302Y371146D01*
X182675Y372045D01*
X182802Y373010D01*
Y374510D01*
X182675Y375474D01*
X182302Y376373D01*
X181710Y377145D01*
X180938Y377737D01*
X180039Y378110D01*
X179075Y378237D01*
D02*
G37*
G36*
X169075D02*
X168110Y378110D01*
X167211Y377737D01*
X166440Y377145D01*
X165847Y376373D01*
X165475Y375474D01*
X165348Y374510D01*
Y373010D01*
X165475Y372045D01*
X165847Y371146D01*
X166440Y370375D01*
X167211Y369782D01*
X168110Y369410D01*
X169075Y369283D01*
X170039Y369410D01*
X170938Y369782D01*
X171710Y370375D01*
X172302Y371146D01*
X172675Y372045D01*
X172802Y373010D01*
Y374510D01*
X172675Y375474D01*
X172302Y376373D01*
X171710Y377145D01*
X170938Y377737D01*
X170039Y378110D01*
X169075Y378237D01*
D02*
G37*
G36*
X159075D02*
X158110Y378110D01*
X157211Y377737D01*
X156440Y377145D01*
X155847Y376373D01*
X155475Y375474D01*
X155348Y374510D01*
Y373010D01*
X155475Y372045D01*
X155847Y371146D01*
X156440Y370375D01*
X157211Y369782D01*
X158110Y369410D01*
X159075Y369283D01*
X160039Y369410D01*
X160938Y369782D01*
X161710Y370375D01*
X162302Y371146D01*
X162675Y372045D01*
X162802Y373010D01*
Y374510D01*
X162675Y375474D01*
X162302Y376373D01*
X161710Y377145D01*
X160938Y377737D01*
X160039Y378110D01*
X159075Y378237D01*
D02*
G37*
G36*
X149075D02*
X148110Y378110D01*
X147211Y377737D01*
X146440Y377145D01*
X145847Y376373D01*
X145475Y375474D01*
X145348Y374510D01*
Y373010D01*
X145475Y372045D01*
X145847Y371146D01*
X146440Y370375D01*
X147211Y369782D01*
X148110Y369410D01*
X149075Y369283D01*
X150039Y369410D01*
X150938Y369782D01*
X151710Y370375D01*
X152302Y371146D01*
X152675Y372045D01*
X152802Y373010D01*
Y374510D01*
X152675Y375474D01*
X152302Y376373D01*
X151710Y377145D01*
X150938Y377737D01*
X150039Y378110D01*
X149075Y378237D01*
D02*
G37*
G36*
X139075D02*
X138110Y378110D01*
X137211Y377737D01*
X136440Y377145D01*
X135847Y376373D01*
X135475Y375474D01*
X135348Y374510D01*
Y373010D01*
X135475Y372045D01*
X135847Y371146D01*
X136440Y370375D01*
X137211Y369782D01*
X138110Y369410D01*
X139075Y369283D01*
X140039Y369410D01*
X140938Y369782D01*
X141710Y370375D01*
X142302Y371146D01*
X142675Y372045D01*
X142802Y373010D01*
Y374510D01*
X142675Y375474D01*
X142302Y376373D01*
X141710Y377145D01*
X140938Y377737D01*
X140039Y378110D01*
X139075Y378237D01*
D02*
G37*
G36*
X129075D02*
X128110Y378110D01*
X127211Y377737D01*
X126440Y377145D01*
X125847Y376373D01*
X125475Y375474D01*
X125348Y374510D01*
Y373010D01*
X125475Y372045D01*
X125847Y371146D01*
X126440Y370375D01*
X127211Y369782D01*
X128110Y369410D01*
X129075Y369283D01*
X130039Y369410D01*
X130938Y369782D01*
X131710Y370375D01*
X132302Y371146D01*
X132675Y372045D01*
X132802Y373010D01*
Y374510D01*
X132675Y375474D01*
X132302Y376373D01*
X131710Y377145D01*
X130938Y377737D01*
X130039Y378110D01*
X129075Y378237D01*
D02*
G37*
G36*
X119075D02*
X118110Y378110D01*
X117211Y377737D01*
X116440Y377145D01*
X115847Y376373D01*
X115475Y375474D01*
X115348Y374510D01*
Y373010D01*
X115475Y372045D01*
X115637Y371655D01*
X111695Y367713D01*
X94870D01*
X94355Y368057D01*
X93602Y368207D01*
X92850Y368057D01*
X92212Y367631D01*
X91785Y366993D01*
X91635Y366240D01*
X91785Y365487D01*
X92212Y364849D01*
X92850Y364423D01*
X93602Y364273D01*
X94355Y364423D01*
X94870Y364767D01*
X112305D01*
X112869Y364879D01*
X113347Y365198D01*
X117720Y369572D01*
X118110Y369410D01*
X119075Y369283D01*
X120039Y369410D01*
X120938Y369782D01*
X121710Y370375D01*
X122302Y371146D01*
X122675Y372045D01*
X122802Y373010D01*
Y374510D01*
X122675Y375474D01*
X122302Y376373D01*
X121710Y377145D01*
X120938Y377737D01*
X120039Y378110D01*
X119075Y378237D01*
D02*
G37*
G36*
X99075D02*
X98110Y378110D01*
X97211Y377737D01*
X96440Y377145D01*
X95847Y376373D01*
X95475Y375474D01*
X95348Y374510D01*
Y373010D01*
X95475Y372045D01*
X95847Y371146D01*
X96440Y370375D01*
X97211Y369782D01*
X98110Y369410D01*
X99075Y369283D01*
X100039Y369410D01*
X100938Y369782D01*
X101710Y370375D01*
X102302Y371146D01*
X102675Y372045D01*
X102802Y373010D01*
Y374510D01*
X102675Y375474D01*
X102302Y376373D01*
X101710Y377145D01*
X100938Y377737D01*
X100039Y378110D01*
X99075Y378237D01*
D02*
G37*
G36*
X89075D02*
X88110Y378110D01*
X87211Y377737D01*
X86440Y377145D01*
X85847Y376373D01*
X85475Y375474D01*
X85348Y374510D01*
Y373010D01*
X85475Y372045D01*
X85847Y371146D01*
X86440Y370375D01*
X87211Y369782D01*
X88110Y369410D01*
X89075Y369283D01*
X90039Y369410D01*
X90938Y369782D01*
X91710Y370375D01*
X92302Y371146D01*
X92675Y372045D01*
X92802Y373010D01*
Y374510D01*
X92675Y375474D01*
X92302Y376373D01*
X91710Y377145D01*
X90938Y377737D01*
X90039Y378110D01*
X89075Y378237D01*
D02*
G37*
G36*
X79075D02*
X78110Y378110D01*
X77211Y377737D01*
X76440Y377145D01*
X75847Y376373D01*
X75475Y375474D01*
X75348Y374510D01*
Y373010D01*
X75475Y372045D01*
X75847Y371146D01*
X76440Y370375D01*
X77211Y369782D01*
X78110Y369410D01*
X79075Y369283D01*
X80039Y369410D01*
X80938Y369782D01*
X81710Y370375D01*
X82302Y371146D01*
X82675Y372045D01*
X82802Y373010D01*
Y374510D01*
X82675Y375474D01*
X82302Y376373D01*
X81710Y377145D01*
X80938Y377737D01*
X80039Y378110D01*
X79075Y378237D01*
D02*
G37*
G36*
X69075D02*
X68110Y378110D01*
X67211Y377737D01*
X66440Y377145D01*
X65847Y376373D01*
X65475Y375474D01*
X65348Y374510D01*
Y373010D01*
X65475Y372045D01*
X65847Y371146D01*
X66440Y370375D01*
X67211Y369782D01*
X68110Y369410D01*
X69075Y369283D01*
X70039Y369410D01*
X70938Y369782D01*
X71710Y370375D01*
X72302Y371146D01*
X72675Y372045D01*
X72802Y373010D01*
Y374510D01*
X72675Y375474D01*
X72302Y376373D01*
X71710Y377145D01*
X70938Y377737D01*
X70039Y378110D01*
X69075Y378237D01*
D02*
G37*
G36*
X59075D02*
X58110Y378110D01*
X57211Y377737D01*
X56440Y377145D01*
X55847Y376373D01*
X55475Y375474D01*
X55348Y374510D01*
Y373010D01*
X55475Y372045D01*
X55847Y371146D01*
X56440Y370375D01*
X57211Y369782D01*
X58110Y369410D01*
X59075Y369283D01*
X60039Y369410D01*
X60938Y369782D01*
X61710Y370375D01*
X62302Y371146D01*
X62675Y372045D01*
X62802Y373010D01*
Y374510D01*
X62675Y375474D01*
X62302Y376373D01*
X61710Y377145D01*
X60938Y377737D01*
X60039Y378110D01*
X59075Y378237D01*
D02*
G37*
G36*
X49075D02*
X48110Y378110D01*
X47211Y377737D01*
X46440Y377145D01*
X45847Y376373D01*
X45475Y375474D01*
X45348Y374510D01*
Y373010D01*
X45475Y372045D01*
X45847Y371146D01*
X46440Y370375D01*
X47211Y369782D01*
X48110Y369410D01*
X49075Y369283D01*
X50039Y369410D01*
X50938Y369782D01*
X51710Y370375D01*
X52302Y371146D01*
X52675Y372045D01*
X52802Y373010D01*
Y374510D01*
X52675Y375474D01*
X52302Y376373D01*
X51710Y377145D01*
X50938Y377737D01*
X50039Y378110D01*
X49075Y378237D01*
D02*
G37*
G36*
X39075D02*
X38110Y378110D01*
X37211Y377737D01*
X36440Y377145D01*
X35847Y376373D01*
X35475Y375474D01*
X35348Y374510D01*
Y373010D01*
X35475Y372045D01*
X35847Y371146D01*
X36440Y370375D01*
X37211Y369782D01*
X38110Y369410D01*
X39075Y369283D01*
X40039Y369410D01*
X40938Y369782D01*
X41710Y370375D01*
X42302Y371146D01*
X42675Y372045D01*
X42802Y373010D01*
Y374510D01*
X42675Y375474D01*
X42302Y376373D01*
X41710Y377145D01*
X40938Y377737D01*
X40039Y378110D01*
X39075Y378237D01*
D02*
G37*
G36*
X144193Y367715D02*
X143440Y367565D01*
X142802Y367139D01*
X142376Y366501D01*
X142226Y365748D01*
X142376Y364995D01*
X142802Y364357D01*
X143440Y363931D01*
X144193Y363781D01*
X144946Y363931D01*
X145584Y364357D01*
X146010Y364995D01*
X146160Y365748D01*
X146010Y366501D01*
X145584Y367139D01*
X144946Y367565D01*
X144193Y367715D01*
D02*
G37*
G36*
X203642Y367124D02*
X202889Y366975D01*
X202251Y366548D01*
X201824Y365910D01*
X201675Y365158D01*
X201824Y364405D01*
X202251Y363767D01*
X202889Y363340D01*
X203642Y363191D01*
X204394Y363340D01*
X205032Y363767D01*
X205459Y364405D01*
X205609Y365158D01*
X205459Y365910D01*
X205032Y366548D01*
X204394Y366975D01*
X203642Y367124D01*
D02*
G37*
G36*
X135630Y365057D02*
X134877Y364908D01*
X134239Y364481D01*
X133813Y363843D01*
X133663Y363090D01*
X133813Y362338D01*
X134239Y361700D01*
X134877Y361273D01*
X135630Y361124D01*
X136383Y361273D01*
X137021Y361700D01*
X137447Y362338D01*
X137597Y363090D01*
X137447Y363843D01*
X137021Y364481D01*
X136383Y364908D01*
X135630Y365057D01*
D02*
G37*
G36*
X74705D02*
X73952Y364908D01*
X73314Y364481D01*
X72887Y363843D01*
X72738Y363090D01*
X72887Y362338D01*
X73314Y361700D01*
X73952Y361273D01*
X74705Y361124D01*
X75457Y361273D01*
X76095Y361700D01*
X76522Y362338D01*
X76672Y363090D01*
X76522Y363843D01*
X76095Y364481D01*
X75457Y364908D01*
X74705Y365057D01*
D02*
G37*
G36*
X62205Y363876D02*
X61452Y363727D01*
X60814Y363300D01*
X60387Y362662D01*
X60238Y361910D01*
X60387Y361157D01*
X60814Y360519D01*
X61452Y360092D01*
X62205Y359943D01*
X62957Y360092D01*
X63595Y360519D01*
X64022Y361157D01*
X64172Y361910D01*
X64022Y362662D01*
X63595Y363300D01*
X62957Y363727D01*
X62205Y363876D01*
D02*
G37*
G36*
X208071Y363384D02*
X207318Y363234D01*
X206680Y362808D01*
X206254Y362170D01*
X206104Y361417D01*
X206254Y360665D01*
X206680Y360027D01*
X207318Y359600D01*
X208071Y359450D01*
X208824Y359600D01*
X209462Y360027D01*
X209888Y360665D01*
X210038Y361417D01*
X209888Y362170D01*
X209462Y362808D01*
X208824Y363234D01*
X208071Y363384D01*
D02*
G37*
G36*
X257205Y383681D02*
X248307D01*
Y368287D01*
X253309D01*
Y364016D01*
X253458Y363263D01*
X253885Y362625D01*
X257271Y359239D01*
X257909Y358813D01*
X258661Y358663D01*
X259414Y358813D01*
X260052Y359239D01*
X260479Y359877D01*
X260628Y360630D01*
X260479Y361383D01*
X260052Y362021D01*
X257242Y364830D01*
Y371890D01*
X257205Y372080D01*
Y383681D01*
D02*
G37*
G36*
X130217Y361711D02*
X129464Y361561D01*
X128826Y361135D01*
X128399Y360497D01*
X128250Y359744D01*
X128399Y358991D01*
X128826Y358353D01*
X129464Y357927D01*
X130217Y357777D01*
X130969Y357927D01*
X131607Y358353D01*
X132034Y358991D01*
X132184Y359744D01*
X132034Y360497D01*
X131607Y361135D01*
X130969Y361561D01*
X130217Y361711D01*
D02*
G37*
G36*
X83465Y361022D02*
X82712Y360872D01*
X82074Y360446D01*
X81647Y359808D01*
X81498Y359055D01*
X81647Y358302D01*
X82074Y357664D01*
X82712Y357238D01*
X83465Y357088D01*
X84217Y357238D01*
X84855Y357664D01*
X85282Y358302D01*
X85431Y359055D01*
X85282Y359808D01*
X84855Y360446D01*
X84217Y360872D01*
X83465Y361022D01*
D02*
G37*
G36*
X51575Y359447D02*
X50822Y359297D01*
X50184Y358871D01*
X49758Y358233D01*
X49608Y357480D01*
X49758Y356728D01*
X50184Y356089D01*
X50822Y355663D01*
X51575Y355513D01*
X52328Y355663D01*
X52966Y356089D01*
X53392Y356728D01*
X53542Y357480D01*
X53392Y358233D01*
X52966Y358871D01*
X52328Y359297D01*
X51575Y359447D01*
D02*
G37*
G36*
X189764Y359447D02*
X189011Y359297D01*
X188373Y358871D01*
X187947Y358233D01*
X187797Y357480D01*
X187947Y356728D01*
X188373Y356089D01*
X189011Y355663D01*
X189764Y355513D01*
X190516Y355663D01*
X191155Y356089D01*
X191581Y356728D01*
X191731Y357480D01*
X191581Y358233D01*
X191155Y358871D01*
X190516Y359297D01*
X189764Y359447D01*
D02*
G37*
G36*
X38287Y356199D02*
X37535Y356049D01*
X36897Y355623D01*
X36470Y354985D01*
X36320Y354232D01*
X36470Y353480D01*
X36897Y352841D01*
X37535Y352415D01*
X38287Y352265D01*
X39040Y352415D01*
X39678Y352841D01*
X40105Y353480D01*
X40254Y354232D01*
X40105Y354985D01*
X39678Y355623D01*
X39040Y356049D01*
X38287Y356199D01*
D02*
G37*
G36*
X53937Y353542D02*
X53184Y353392D01*
X52546Y352966D01*
X52120Y352327D01*
X51970Y351575D01*
X52120Y350822D01*
X52546Y350184D01*
X53184Y349758D01*
X53937Y349608D01*
X54690Y349758D01*
X55328Y350184D01*
X55754Y350822D01*
X55904Y351575D01*
X55754Y352327D01*
X55328Y352966D01*
X54690Y353392D01*
X53937Y353542D01*
D02*
G37*
G36*
X179626Y353345D02*
X178873Y353195D01*
X178235Y352769D01*
X177809Y352131D01*
X177659Y351378D01*
X177809Y350625D01*
X178235Y349987D01*
X178873Y349561D01*
X179626Y349411D01*
X180379Y349561D01*
X181017Y349987D01*
X181443Y350625D01*
X181593Y351378D01*
X181443Y352131D01*
X181017Y352769D01*
X180379Y353195D01*
X179626Y353345D01*
D02*
G37*
G36*
X167028Y349211D02*
X166275Y349061D01*
X165637Y348635D01*
X165210Y347997D01*
X165061Y347244D01*
X165210Y346491D01*
X165637Y345853D01*
X166275Y345427D01*
X167028Y345277D01*
X167780Y345427D01*
X168418Y345853D01*
X168845Y346491D01*
X168994Y347244D01*
X168845Y347997D01*
X168418Y348635D01*
X167780Y349061D01*
X167028Y349211D01*
D02*
G37*
G36*
X72736Y348817D02*
X71983Y348668D01*
X71345Y348241D01*
X70919Y347603D01*
X70769Y346850D01*
X70919Y346098D01*
X71345Y345460D01*
X71983Y345033D01*
X72736Y344883D01*
X73489Y345033D01*
X74127Y345460D01*
X74553Y346098D01*
X74703Y346850D01*
X74553Y347603D01*
X74127Y348241D01*
X73489Y348668D01*
X72736Y348817D01*
D02*
G37*
G36*
X145472Y346160D02*
X144720Y346010D01*
X144082Y345584D01*
X143655Y344946D01*
X143506Y344193D01*
X143655Y343440D01*
X144082Y342802D01*
X144720Y342376D01*
X145472Y342226D01*
X146225Y342376D01*
X146863Y342802D01*
X147290Y343440D01*
X147439Y344193D01*
X147290Y344946D01*
X146863Y345584D01*
X146225Y346010D01*
X145472Y346160D01*
D02*
G37*
G36*
X162106Y346061D02*
X161354Y345912D01*
X160715Y345485D01*
X160289Y344847D01*
X160139Y344094D01*
X160289Y343342D01*
X160715Y342704D01*
X161354Y342277D01*
X162106Y342128D01*
X162859Y342277D01*
X163497Y342704D01*
X163924Y343342D01*
X164073Y344094D01*
X163924Y344847D01*
X163497Y345485D01*
X162859Y345912D01*
X162106Y346061D01*
D02*
G37*
G36*
X55118Y343502D02*
X54365Y343353D01*
X53727Y342926D01*
X53301Y342288D01*
X53151Y341535D01*
X53301Y340783D01*
X53727Y340145D01*
X54365Y339718D01*
X55118Y339568D01*
X55871Y339718D01*
X56509Y340145D01*
X56935Y340783D01*
X57085Y341535D01*
X56935Y342288D01*
X56509Y342926D01*
X55871Y343353D01*
X55118Y343502D01*
D02*
G37*
G36*
X218799Y340550D02*
X218046Y340400D01*
X217408Y339973D01*
X216982Y339335D01*
X216832Y338583D01*
X216982Y337830D01*
X217408Y337192D01*
X218046Y336766D01*
X218799Y336616D01*
X219552Y336766D01*
X220190Y337192D01*
X220616Y337830D01*
X220766Y338583D01*
X220616Y339335D01*
X220190Y339973D01*
X219552Y340400D01*
X218799Y340550D01*
D02*
G37*
G36*
X142126Y340156D02*
X141373Y340006D01*
X140735Y339580D01*
X140309Y338942D01*
X140159Y338189D01*
X140309Y337436D01*
X140735Y336798D01*
X141373Y336372D01*
X142126Y336222D01*
X142879Y336372D01*
X143517Y336798D01*
X143943Y337436D01*
X144093Y338189D01*
X143943Y338942D01*
X143517Y339580D01*
X142879Y340006D01*
X142126Y340156D01*
D02*
G37*
G36*
X123917Y337695D02*
X123165Y337546D01*
X122527Y337119D01*
X122100Y336481D01*
X121950Y335728D01*
X122100Y334976D01*
X122527Y334337D01*
X123165Y333911D01*
X123917Y333761D01*
X124670Y333911D01*
X125308Y334337D01*
X125734Y334976D01*
X125884Y335728D01*
X125734Y336481D01*
X125308Y337119D01*
X124670Y337546D01*
X123917Y337695D01*
D02*
G37*
G36*
X197146Y334644D02*
X196393Y334494D01*
X195755Y334068D01*
X195328Y333430D01*
X195179Y332677D01*
X195328Y331925D01*
X195755Y331286D01*
X196393Y330860D01*
X197146Y330710D01*
X197898Y330860D01*
X198537Y331286D01*
X198963Y331925D01*
X199113Y332677D01*
X198963Y333430D01*
X198537Y334068D01*
X197898Y334494D01*
X197146Y334644D01*
D02*
G37*
G36*
X67126D02*
X66373Y334494D01*
X65735Y334068D01*
X65309Y333430D01*
X65159Y332677D01*
X65309Y331925D01*
X65735Y331286D01*
X66373Y330860D01*
X67126Y330710D01*
X67879Y330860D01*
X68517Y331286D01*
X68943Y331925D01*
X69093Y332677D01*
X68943Y333430D01*
X68517Y334068D01*
X67879Y334494D01*
X67126Y334644D01*
D02*
G37*
G36*
X253543Y349605D02*
X252791Y349455D01*
X252152Y349029D01*
X251726Y348391D01*
X251576Y347638D01*
Y344705D01*
X248307D01*
Y329311D01*
X257205D01*
Y344705D01*
X255510D01*
Y347638D01*
X255361Y348391D01*
X254934Y349029D01*
X254296Y349455D01*
X253543Y349605D01*
D02*
G37*
G36*
X224016Y330313D02*
X223263Y330164D01*
X222625Y329737D01*
X222199Y329099D01*
X222049Y328346D01*
X222199Y327594D01*
X222625Y326956D01*
X223263Y326529D01*
X224016Y326379D01*
X224768Y326529D01*
X225407Y326956D01*
X225833Y327594D01*
X225983Y328346D01*
X225833Y329099D01*
X225407Y329737D01*
X224768Y330164D01*
X224016Y330313D01*
D02*
G37*
G36*
X171653Y338187D02*
X170901Y338038D01*
X170263Y337611D01*
X169836Y336973D01*
X169687Y336221D01*
X169836Y335468D01*
X170180Y334953D01*
Y330315D01*
X168224D01*
Y324685D01*
X169369D01*
Y323374D01*
X167988D01*
Y317941D01*
Y315839D01*
X159036Y306887D01*
X154331D01*
X153767Y306774D01*
X153289Y306455D01*
X147462Y300628D01*
X147143Y300150D01*
X147052Y299693D01*
X146552Y299742D01*
Y304597D01*
X149711Y307756D01*
X150319Y307657D01*
X150578Y307271D01*
X151216Y306844D01*
X151969Y306695D01*
X152721Y306844D01*
X153359Y307271D01*
X153786Y307909D01*
X153935Y308661D01*
X153786Y309414D01*
X153532Y309794D01*
X153642Y310059D01*
X154120Y310379D01*
X156367Y312626D01*
X160012D01*
Y317941D01*
Y319582D01*
X162244D01*
Y317657D01*
X162602D01*
Y316967D01*
X162356Y316599D01*
X162206Y315846D01*
X162356Y315094D01*
X162782Y314456D01*
X163420Y314029D01*
X164173Y313879D01*
X164926Y314029D01*
X165564Y314456D01*
X165990Y315094D01*
X166140Y315846D01*
X165990Y316599D01*
X165617Y317158D01*
X165708Y317460D01*
X165835Y317657D01*
X165905D01*
Y322500D01*
X164028D01*
X163886Y322528D01*
X160012D01*
Y323374D01*
X158158D01*
Y324832D01*
X158512Y325185D01*
X159303Y325185D01*
X159803Y325185D01*
X164618D01*
Y330815D01*
X163678D01*
Y332197D01*
X164022Y332712D01*
X164172Y333465D01*
X164022Y334217D01*
X163595Y334855D01*
X162957Y335282D01*
X162205Y335432D01*
X161452Y335282D01*
X160814Y334855D01*
X160388Y334217D01*
X160238Y333465D01*
X160388Y332712D01*
X160731Y332197D01*
Y331732D01*
X160709Y331617D01*
X160731Y331503D01*
Y331169D01*
X160378Y330815D01*
X159382Y330815D01*
X158882Y330815D01*
X157691D01*
X157585Y331348D01*
X157265Y331826D01*
X154177Y334914D01*
X154081Y335398D01*
X153655Y336036D01*
X153016Y336463D01*
X152264Y336613D01*
X151511Y336463D01*
X150873Y336036D01*
X150447Y335398D01*
X150297Y334646D01*
X150447Y333893D01*
X150873Y333255D01*
X151511Y332828D01*
X152241Y332683D01*
X153760Y331165D01*
X154067Y330815D01*
X154067D01*
X154067Y330815D01*
Y325185D01*
X155212D01*
Y323374D01*
X153988D01*
Y317941D01*
Y314414D01*
X152468Y312894D01*
X151363D01*
X151314Y313394D01*
X151540Y313439D01*
X152178Y313865D01*
X152605Y314503D01*
X152754Y315256D01*
X152605Y316009D01*
X152178Y316647D01*
X151561Y317059D01*
X151549Y317121D01*
X151634Y317559D01*
X151634D01*
Y322402D01*
X147973D01*
Y322241D01*
X146012D01*
Y322716D01*
X144158D01*
Y324832D01*
X144512Y325185D01*
X145303Y325185D01*
X145803Y325185D01*
X150618D01*
Y330815D01*
X150616D01*
X150218Y331315D01*
X150294Y331693D01*
X150144Y332446D01*
X149718Y333084D01*
X149080Y333510D01*
X148327Y333660D01*
X147574Y333510D01*
X146936Y333084D01*
X146510Y332446D01*
X146360Y331693D01*
X146435Y331315D01*
X146038Y330815D01*
X145382Y330815D01*
X144882Y330815D01*
X140067D01*
Y328924D01*
X139647Y328777D01*
X139567Y328762D01*
X138942Y329179D01*
X138189Y329329D01*
X137436Y329179D01*
X136798Y328753D01*
X136372Y328115D01*
X136222Y327362D01*
X136372Y326609D01*
X136798Y325971D01*
X137436Y325545D01*
X138189Y325395D01*
X138942Y325545D01*
X139162Y325692D01*
X140067D01*
Y325185D01*
X141212D01*
Y322716D01*
X139988D01*
Y317284D01*
Y311968D01*
X140168D01*
Y295081D01*
X139824Y294566D01*
X139674Y293813D01*
X139824Y293061D01*
X140250Y292423D01*
X140326Y292372D01*
X140269Y291809D01*
X139786Y291486D01*
X139347Y290829D01*
X139293Y290555D01*
X141217D01*
Y289555D01*
X139293D01*
X139347Y289281D01*
X139786Y288625D01*
X139883Y288559D01*
X139883Y288133D01*
X139815Y288004D01*
X139399Y287383D01*
X139250Y286630D01*
X139399Y285877D01*
X139826Y285239D01*
X139917Y285178D01*
X139766Y284678D01*
X138567D01*
X128442Y294803D01*
Y299591D01*
X128330Y300154D01*
X128010Y300632D01*
X119276Y309367D01*
Y312913D01*
X118304D01*
Y315295D01*
X119350D01*
Y320925D01*
X114535D01*
X114173Y320925D01*
X113811Y320925D01*
X108996D01*
Y320607D01*
X108307D01*
Y322441D01*
X101693D01*
Y315827D01*
X108307D01*
Y317661D01*
X108996D01*
Y315295D01*
X113811D01*
X114173Y315295D01*
X114535Y315295D01*
X115357D01*
Y312913D01*
X114213D01*
Y312968D01*
X111941D01*
Y310000D01*
Y307031D01*
X114213D01*
Y307087D01*
X117389D01*
X125495Y298980D01*
Y294193D01*
X125607Y293629D01*
X125927Y293151D01*
X133978Y285100D01*
X133944Y284757D01*
X133518Y284119D01*
X133368Y283366D01*
X133518Y282613D01*
X133944Y281975D01*
X134277Y281753D01*
X134125Y281253D01*
X130968D01*
X128995Y283227D01*
X128516Y283546D01*
X127953Y283658D01*
X120168D01*
X119815Y284012D01*
X119815Y284842D01*
X119815Y285205D01*
Y290020D01*
X118473D01*
Y290784D01*
X120012D01*
Y296098D01*
Y301532D01*
X118924D01*
X118657Y302031D01*
X118817Y302271D01*
X118967Y303024D01*
X118817Y303776D01*
X118391Y304414D01*
X117753Y304841D01*
X117000Y304991D01*
X116247Y304841D01*
X115609Y304414D01*
X115183Y303776D01*
X115033Y303024D01*
X115183Y302271D01*
X115343Y302031D01*
X115076Y301532D01*
X113988D01*
Y296098D01*
Y290784D01*
X115527D01*
Y290020D01*
X114185D01*
Y285205D01*
X114185Y284980D01*
X114185Y284618D01*
X113831Y284264D01*
X112012D01*
Y285251D01*
X112067Y285728D01*
X112067Y285985D01*
Y288000D01*
X109000D01*
X105933D01*
Y285985D01*
X105933Y285728D01*
X105988Y285251D01*
Y284827D01*
X105635Y284473D01*
X102335D01*
Y285815D01*
X97520D01*
X97158Y285815D01*
X96795Y285815D01*
X91980D01*
Y285714D01*
X91480Y285345D01*
X91043Y285432D01*
X90291Y285282D01*
X89653Y284855D01*
X89226Y284217D01*
X89076Y283465D01*
X89226Y282712D01*
X89653Y282074D01*
X90291Y281647D01*
X91043Y281498D01*
X91349Y281558D01*
X91508Y281527D01*
X91980D01*
Y280185D01*
X96795D01*
X97158Y280185D01*
X97520Y280185D01*
X102335D01*
Y281527D01*
X105988D01*
Y280075D01*
X112012D01*
Y281318D01*
X114185D01*
Y279665D01*
X119815D01*
Y280712D01*
X127343D01*
X129316Y278738D01*
X129795Y278418D01*
X130358Y278306D01*
X139817D01*
X139954Y277843D01*
X139612Y277473D01*
X119315D01*
Y278520D01*
X113685D01*
Y277473D01*
X110531D01*
Y277512D01*
X105272D01*
Y277567D01*
X103000D01*
Y274500D01*
Y271433D01*
X105272D01*
Y271488D01*
X106342D01*
Y269012D01*
X99783D01*
Y267604D01*
X99283Y267495D01*
X99178Y267565D01*
X98425Y267715D01*
X97672Y267565D01*
X97034Y267139D01*
X96608Y266501D01*
X96458Y265748D01*
X96608Y264995D01*
X97034Y264357D01*
X97672Y263931D01*
X98425Y263781D01*
X99178Y263931D01*
X99343Y264041D01*
X99783Y263805D01*
Y262988D01*
X110531D01*
Y269012D01*
X109288D01*
Y271488D01*
X110531D01*
Y274527D01*
X113331D01*
X113685Y274173D01*
X113685Y273342D01*
X113685Y272980D01*
Y268165D01*
X115027D01*
Y267374D01*
X114683Y266859D01*
X114533Y266106D01*
X114683Y265354D01*
X115109Y264716D01*
X115747Y264289D01*
X116500Y264139D01*
X117253Y264289D01*
X117891Y264716D01*
X118317Y265354D01*
X118467Y266106D01*
X118317Y266859D01*
X117973Y267374D01*
Y268165D01*
X119315D01*
Y272980D01*
X119315Y273342D01*
X119315Y273705D01*
Y274527D01*
X133551D01*
X133600Y274027D01*
X133499Y274007D01*
X133021Y273687D01*
X120122Y260788D01*
X118315D01*
Y261835D01*
X112685D01*
Y259973D01*
X109874D01*
Y261512D01*
X104614D01*
Y261567D01*
X102342D01*
Y258500D01*
Y255433D01*
X104614D01*
Y255488D01*
X105684D01*
Y252512D01*
X98783D01*
Y252261D01*
X98425Y251967D01*
X97672Y251817D01*
X97034Y251391D01*
X96608Y250753D01*
X96458Y250000D01*
X96608Y249247D01*
X97034Y248609D01*
X97672Y248183D01*
X98425Y248033D01*
X98783Y247739D01*
Y246488D01*
X109531D01*
Y252512D01*
X108631D01*
Y255488D01*
X109874D01*
Y257027D01*
X112331D01*
X112685Y256673D01*
X112685Y256295D01*
Y251480D01*
X112895D01*
X113212Y251094D01*
X113191Y250984D01*
X113340Y250232D01*
X113767Y249593D01*
X114405Y249167D01*
X115157Y249017D01*
X115910Y249167D01*
X116548Y249593D01*
X116975Y250232D01*
X117124Y250984D01*
X117103Y251094D01*
X117420Y251480D01*
X118315D01*
Y256295D01*
X118315Y256658D01*
X118315Y257020D01*
Y257842D01*
X120732D01*
X121296Y257954D01*
X121774Y258273D01*
X134673Y271172D01*
X138258D01*
X138307Y270672D01*
X137850Y270582D01*
X137372Y270262D01*
X135474Y268365D01*
X135155Y267887D01*
X135043Y267323D01*
Y266996D01*
X134543Y266844D01*
X134271Y267250D01*
X133633Y267677D01*
X132880Y267826D01*
X132128Y267677D01*
X131490Y267250D01*
X131063Y266612D01*
X130914Y265859D01*
X131063Y265107D01*
X131369Y264649D01*
X131335Y264578D01*
X131038Y264244D01*
X130413Y264369D01*
X129661Y264219D01*
X129023Y263792D01*
X128596Y263154D01*
X128446Y262402D01*
X128596Y261649D01*
X129023Y261011D01*
X129661Y260584D01*
X130413Y260435D01*
X131166Y260584D01*
X131804Y261011D01*
X132231Y261649D01*
X132380Y262402D01*
X132231Y263154D01*
X131925Y263612D01*
X131958Y263683D01*
X132256Y264017D01*
X132880Y263893D01*
X133633Y264042D01*
X134271Y264469D01*
X134543Y264875D01*
X135043Y264723D01*
Y262126D01*
X118736Y245819D01*
X118208Y245999D01*
X117828Y246568D01*
X117190Y246994D01*
X116437Y247144D01*
X115684Y246994D01*
X115046Y246568D01*
X114620Y245930D01*
X114470Y245177D01*
X114562Y244717D01*
X114203Y244216D01*
X113488D01*
Y238784D01*
Y233469D01*
X114250D01*
X114567Y233082D01*
X114533Y232909D01*
X114683Y232157D01*
X115109Y231519D01*
X115747Y231092D01*
X116500Y230943D01*
X117253Y231092D01*
X117891Y231519D01*
X118317Y232157D01*
X118467Y232909D01*
X118433Y233082D01*
X118750Y233469D01*
X119512D01*
Y238784D01*
Y242428D01*
X137557Y260474D01*
X137877Y260952D01*
X137989Y261516D01*
Y266713D01*
X139024Y267747D01*
X139766D01*
X139917Y267247D01*
X139826Y267186D01*
X139399Y266548D01*
X139250Y265795D01*
X139399Y265042D01*
X139826Y264404D01*
X139933Y264333D01*
Y263833D01*
X139826Y263761D01*
X139399Y263123D01*
X139250Y262370D01*
X139399Y261617D01*
X139826Y260979D01*
X139933Y260908D01*
Y260598D01*
X139830Y260375D01*
X139483Y260306D01*
X139005Y259987D01*
X125730Y246711D01*
X125411Y246233D01*
X125299Y245669D01*
Y234768D01*
X125282Y234757D01*
X124856Y234119D01*
X124706Y233366D01*
X124856Y232613D01*
X125282Y231975D01*
X125299Y231965D01*
Y230768D01*
X123957D01*
Y225953D01*
X123957Y225590D01*
X123957Y225228D01*
Y220413D01*
X124646D01*
X124928Y219913D01*
X124805Y219291D01*
X124954Y218539D01*
X125381Y217900D01*
X126019Y217474D01*
X126772Y217324D01*
X127524Y217474D01*
X128163Y217900D01*
X128589Y218539D01*
X128739Y219291D01*
X128615Y219913D01*
X128898Y220413D01*
X129587D01*
Y225228D01*
X129587Y225590D01*
X129587Y225953D01*
Y230768D01*
X128245D01*
Y232246D01*
X128490Y232613D01*
X128640Y233366D01*
X128490Y234119D01*
X128245Y234486D01*
Y245059D01*
X132794Y249608D01*
X133255Y249362D01*
X133173Y248949D01*
Y235027D01*
X132828Y234513D01*
X132679Y233760D01*
X132828Y233007D01*
X133173Y232492D01*
Y230669D01*
X131043D01*
Y225854D01*
X131043Y225492D01*
X131043Y225130D01*
Y220315D01*
X131075D01*
X131409Y219815D01*
X131307Y219302D01*
X131457Y218549D01*
X131883Y217911D01*
X132521Y217485D01*
X133274Y217335D01*
X134027Y217485D01*
X134665Y217911D01*
X135091Y218549D01*
X135241Y219302D01*
X135139Y219815D01*
X135473Y220315D01*
X136673D01*
Y225130D01*
X136673Y225492D01*
X136673Y225854D01*
Y230669D01*
X136119D01*
Y232492D01*
X136463Y233007D01*
X136613Y233760D01*
X136463Y234513D01*
X136119Y235027D01*
Y248339D01*
X141362Y253582D01*
X141969Y253702D01*
X142607Y254129D01*
X143034Y254767D01*
X143155Y255374D01*
X149980Y262200D01*
X150673D01*
X150841Y262233D01*
X151310D01*
X151686Y262127D01*
X151793Y261751D01*
Y261282D01*
X151759Y261114D01*
Y260421D01*
X144933Y253595D01*
X144326Y253475D01*
X143688Y253048D01*
X143262Y252410D01*
X143141Y251803D01*
X139116Y247778D01*
X138796Y247300D01*
X138684Y246736D01*
Y230669D01*
X137343D01*
Y225854D01*
X137343Y225492D01*
X137343Y225130D01*
Y220315D01*
X137966D01*
X138295Y219815D01*
X138191Y219291D01*
X138340Y218539D01*
X138767Y217900D01*
X139405Y217474D01*
X140157Y217324D01*
X140910Y217474D01*
X141548Y217900D01*
X141975Y218539D01*
X142124Y219291D01*
X142020Y219815D01*
X142349Y220315D01*
X142972D01*
Y225130D01*
X142973Y225492D01*
X142972Y225854D01*
Y230669D01*
X141631D01*
Y246126D01*
X145224Y249720D01*
X145831Y249840D01*
X146470Y250267D01*
X146541Y250374D01*
X147041D01*
X147113Y250267D01*
X147751Y249840D01*
X148504Y249691D01*
X149257Y249840D01*
X149895Y250267D01*
X149967Y250374D01*
X150467D01*
X150538Y250267D01*
X151176Y249840D01*
X151929Y249691D01*
X152682Y249840D01*
X152887Y249978D01*
X153387Y249710D01*
Y249082D01*
X148905Y244600D01*
X148478Y243961D01*
X148328Y243209D01*
Y243169D01*
X146791D01*
Y237597D01*
X146358D01*
X145606Y237447D01*
X144967Y237021D01*
X144541Y236383D01*
X144391Y235630D01*
X144541Y234877D01*
X144967Y234239D01*
X145606Y233813D01*
X146358Y233663D01*
X146791D01*
Y232815D01*
X152224D01*
Y237933D01*
Y241050D01*
X152262Y241240D01*
Y242394D01*
X156745Y246877D01*
X157171Y247515D01*
X157321Y248268D01*
Y249615D01*
X157821Y249882D01*
X158007Y249758D01*
X158760Y249608D01*
X159513Y249758D01*
X159738Y249908D01*
X160238Y249641D01*
Y246287D01*
X156582Y242631D01*
X156155Y241993D01*
X156006Y241240D01*
Y228996D01*
X153878D01*
Y222801D01*
X152476Y221399D01*
X152049Y220761D01*
X151900Y220008D01*
Y219153D01*
X150039D01*
Y208602D01*
X157441D01*
Y208854D01*
X157941Y209061D01*
X159667Y207335D01*
X159460Y206835D01*
X159402D01*
Y191165D01*
X169165D01*
Y206835D01*
X164061D01*
Y207689D01*
X163911Y208442D01*
X163485Y209080D01*
X159687Y212879D01*
X159048Y213305D01*
X158296Y213455D01*
X157441D01*
Y219153D01*
X156500D01*
X156293Y219654D01*
X157472Y220832D01*
X157899Y221470D01*
X158048Y222223D01*
Y222776D01*
X165413D01*
Y228996D01*
X163973D01*
Y229705D01*
X169508Y235239D01*
X171358D01*
X171922Y235351D01*
X172400Y235671D01*
X173805Y237076D01*
X174125Y237554D01*
X174216Y238012D01*
X174716Y237962D01*
Y234673D01*
X171134Y231091D01*
X171055D01*
X170913Y231063D01*
X167264D01*
Y226417D01*
Y221890D01*
X167711D01*
X167978Y221390D01*
X167868Y221225D01*
X167718Y220472D01*
X167868Y219720D01*
X168294Y219082D01*
X168932Y218655D01*
X169685Y218506D01*
X170438Y218655D01*
X171076Y219082D01*
X171502Y219720D01*
X171652Y220472D01*
X171502Y221225D01*
X171392Y221390D01*
X171521Y221890D01*
X172500D01*
Y226417D01*
Y228385D01*
X172786Y228576D01*
X173495Y229285D01*
X173957Y229094D01*
X173957Y225984D01*
X173957Y225622D01*
Y220807D01*
X174805D01*
Y220079D01*
X174954Y219326D01*
X175381Y218688D01*
X176019Y218262D01*
X176772Y218112D01*
X177524Y218262D01*
X178163Y218688D01*
X178589Y219326D01*
X178739Y220079D01*
Y220807D01*
X179587D01*
Y225622D01*
X179587Y225984D01*
X179587Y226346D01*
Y231161D01*
X179587Y231161D01*
X179587D01*
X179750Y231603D01*
X180569Y232423D01*
X180889Y232901D01*
X181001Y233465D01*
Y250264D01*
X181005Y250267D01*
X181077Y250374D01*
X181577D01*
X181649Y250267D01*
X188533Y243382D01*
Y235776D01*
X188678Y235046D01*
X188680Y235018D01*
X188444Y234546D01*
X187559D01*
Y240709D01*
X185725D01*
Y241252D01*
X186069Y241767D01*
X186219Y242520D01*
X186069Y243272D01*
X185643Y243911D01*
X185005Y244337D01*
X184252Y244487D01*
X183499Y244337D01*
X182861Y243911D01*
X182435Y243272D01*
X182285Y242520D01*
X182435Y241767D01*
X182779Y241252D01*
Y240709D01*
X181732D01*
Y235276D01*
Y230157D01*
X187559D01*
Y230612D01*
X188819D01*
Y229370D01*
Y223760D01*
X192737D01*
Y210297D01*
X192652Y210234D01*
X191973Y210351D01*
X191844Y210544D01*
X191206Y210971D01*
X190453Y211121D01*
X189700Y210971D01*
X189062Y210544D01*
X188636Y209906D01*
X188486Y209154D01*
X188636Y208401D01*
X189062Y207763D01*
X189700Y207336D01*
X190453Y207187D01*
X191206Y207336D01*
X191844Y207763D01*
X191973Y207956D01*
X192652Y208073D01*
X192737Y208010D01*
Y188189D01*
X192811Y187820D01*
X193020Y187508D01*
X193332Y187299D01*
X193701Y187226D01*
X205118Y187226D01*
X205269Y187256D01*
X205422Y187275D01*
X205453Y187292D01*
X205487Y187299D01*
X205615Y187385D01*
X205749Y187461D01*
X211655Y192579D01*
X211676Y192606D01*
X211705Y192626D01*
X211790Y192754D01*
X211885Y192876D01*
X211894Y192910D01*
X211914Y192938D01*
X211944Y193090D01*
X211985Y193238D01*
X211980Y193273D01*
X211987Y193307D01*
Y196850D01*
Y225056D01*
X212047Y225532D01*
X216102D01*
Y227435D01*
X216565Y227580D01*
X216602Y227573D01*
X217015Y226956D01*
X217653Y226529D01*
X218406Y226379D01*
X219158Y226529D01*
X219665Y226868D01*
X219967Y226489D01*
X219788Y226221D01*
X219541Y225851D01*
X219391Y225098D01*
X219541Y224346D01*
X219968Y223708D01*
X220606Y223281D01*
X221358Y223131D01*
X222111Y223281D01*
X222749Y223708D01*
X223176Y224346D01*
X223325Y225098D01*
X223176Y225851D01*
X222749Y226489D01*
X222111Y226916D01*
X221358Y227065D01*
X220606Y226916D01*
X220099Y226577D01*
X219796Y226956D01*
X219976Y227224D01*
X220223Y227594D01*
X220372Y228346D01*
X220223Y229099D01*
X219796Y229737D01*
X219158Y230164D01*
X218406Y230313D01*
X217653Y230164D01*
X217015Y229737D01*
X216602Y229120D01*
X216565Y229113D01*
X216102Y229258D01*
Y232736D01*
X216091D01*
Y234095D01*
X216890D01*
Y239921D01*
X211792D01*
X211705Y240051D01*
X211392Y240260D01*
X211024Y240334D01*
X206673D01*
X206624Y240833D01*
X206668Y240842D01*
X207062Y241005D01*
X207374Y241214D01*
X207583Y241527D01*
X207656Y241895D01*
Y269185D01*
X212677D01*
Y270033D01*
X213732D01*
X214485Y270183D01*
X215123Y270609D01*
X215170Y270656D01*
X215597Y271294D01*
X215746Y272047D01*
X215597Y272800D01*
X215170Y273438D01*
X214532Y273864D01*
X213779Y274014D01*
X213542Y273967D01*
X212677D01*
Y274815D01*
X207656D01*
Y285039D01*
X207583Y285408D01*
X207374Y285721D01*
X207062Y285929D01*
X206693Y286003D01*
X199213D01*
X198844Y285929D01*
X198531Y285721D01*
X198322Y285408D01*
X198249Y285039D01*
Y271187D01*
X188684D01*
X188417Y271687D01*
X188620Y271991D01*
X188770Y272744D01*
X188620Y273497D01*
X188247Y274055D01*
X188194Y274399D01*
Y274621D01*
X188300Y274691D01*
X188726Y275329D01*
X188876Y276082D01*
X188726Y276835D01*
X188302Y277470D01*
X188227Y277586D01*
Y278022D01*
X188398Y278136D01*
X188825Y278774D01*
X188974Y279527D01*
X188825Y280280D01*
X188398Y280918D01*
X188125Y281101D01*
Y281702D01*
X188292Y281814D01*
X188719Y282452D01*
X188868Y283205D01*
X188719Y283958D01*
X188292Y284596D01*
X188185Y284667D01*
Y285167D01*
X188292Y285239D01*
X188719Y285877D01*
X188868Y286630D01*
X188719Y287383D01*
X188292Y288021D01*
X188185Y288092D01*
Y288593D01*
X188292Y288664D01*
X188719Y289302D01*
X188868Y290055D01*
X188719Y290808D01*
X188292Y291446D01*
X188185Y291518D01*
Y292018D01*
X188292Y292090D01*
X188719Y292728D01*
X188868Y293480D01*
X188719Y294233D01*
X188292Y294871D01*
X187654Y295298D01*
X186902Y295447D01*
X186149Y295298D01*
X185511Y294871D01*
X185084Y294233D01*
X184966Y293638D01*
X183431Y292103D01*
X183410Y292073D01*
X178138Y286800D01*
X177445D01*
X177277Y286767D01*
X176808D01*
X176432Y286873D01*
X176326Y287249D01*
Y287718D01*
X176359Y287886D01*
Y288579D01*
X183185Y295405D01*
X183792Y295525D01*
X184430Y295952D01*
X184857Y296590D01*
X185006Y297342D01*
X184857Y298095D01*
X184430Y298733D01*
X183792Y299160D01*
X183039Y299309D01*
X182287Y299160D01*
X181649Y298733D01*
X181577Y298626D01*
X181077D01*
X181005Y298733D01*
X180367Y299160D01*
X179614Y299309D01*
X178861Y299160D01*
X178223Y298733D01*
X178152Y298626D01*
X177652D01*
X177580Y298733D01*
X176942Y299160D01*
X176189Y299309D01*
X175436Y299160D01*
X174798Y298733D01*
X174726Y298626D01*
X174226D01*
X174155Y298733D01*
X173516Y299160D01*
X172764Y299309D01*
X172011Y299160D01*
X171373Y298733D01*
X171301Y298626D01*
X170801D01*
X170729Y298733D01*
X170091Y299160D01*
X169339Y299309D01*
X168586Y299160D01*
X167948Y298733D01*
X167876Y298626D01*
X167376D01*
X167304Y298733D01*
X166666Y299160D01*
X165913Y299309D01*
X165161Y299160D01*
X164523Y298733D01*
X164360Y298490D01*
X163758D01*
X163595Y298733D01*
X162957Y299160D01*
X162205Y299309D01*
X161452Y299160D01*
X160814Y298733D01*
X160742Y298626D01*
X160242D01*
X160170Y298733D01*
X159532Y299160D01*
X158780Y299309D01*
X158027Y299160D01*
X157389Y298733D01*
X157317Y298626D01*
X156817D01*
X156745Y298733D01*
X156107Y299160D01*
X155354Y299309D01*
X154602Y299160D01*
X153963Y298733D01*
X153892Y298626D01*
X153392D01*
X153320Y298733D01*
X152682Y299160D01*
X151929Y299309D01*
X151176Y299160D01*
X150830Y298928D01*
X150260Y299148D01*
X150238Y299237D01*
X154941Y303940D01*
X159646D01*
X160209Y304052D01*
X160687Y304372D01*
X168942Y312626D01*
X172434D01*
X172586Y312126D01*
X172428Y312021D01*
X172002Y311383D01*
X171852Y310630D01*
X172002Y309877D01*
X172428Y309239D01*
X173066Y308813D01*
X173819Y308663D01*
X174572Y308813D01*
X174855Y309002D01*
X175328Y309086D01*
X175493Y308873D01*
X175774Y308451D01*
X176412Y308025D01*
X177165Y307875D01*
X177918Y308025D01*
X178556Y308451D01*
X178982Y309089D01*
X179132Y309842D01*
X178982Y310595D01*
X178556Y311233D01*
X177918Y311659D01*
X177165Y311809D01*
X176412Y311659D01*
X176129Y311470D01*
X175656Y311386D01*
X175491Y311599D01*
X175210Y312021D01*
X174572Y312447D01*
X174448Y312472D01*
X174012Y312626D01*
X174012Y313068D01*
Y317941D01*
Y319984D01*
X176516D01*
Y318248D01*
X176516D01*
X176617Y318059D01*
X176431Y317780D01*
X176281Y317028D01*
X176431Y316275D01*
X176857Y315637D01*
X177495Y315210D01*
X178248Y315061D01*
X179001Y315210D01*
X179639Y315637D01*
X180065Y316275D01*
X180215Y317028D01*
X180072Y317748D01*
X180072Y317791D01*
X180177Y318248D01*
X180177D01*
Y323091D01*
X176516D01*
Y322930D01*
X174012D01*
Y323374D01*
X172316D01*
Y324331D01*
X172669Y324685D01*
X173461Y324685D01*
X173961Y324685D01*
X178776D01*
Y328232D01*
X179388Y328844D01*
X179708Y329322D01*
X179820Y329886D01*
Y332591D01*
X180164Y333106D01*
X180313Y333858D01*
X180164Y334611D01*
X179737Y335249D01*
X179099Y335676D01*
X178347Y335825D01*
X177594Y335676D01*
X176956Y335249D01*
X176529Y334611D01*
X176380Y333858D01*
X176529Y333106D01*
X176873Y332591D01*
Y330740D01*
X176448Y330315D01*
X173961D01*
X173539Y330315D01*
X173127Y330526D01*
Y334953D01*
X173471Y335468D01*
X173620Y336221D01*
X173471Y336973D01*
X173044Y337611D01*
X172406Y338038D01*
X171653Y338187D01*
D02*
G37*
G36*
X213386Y326770D02*
X212633Y326620D01*
X211995Y326194D01*
X211569Y325556D01*
X211419Y324803D01*
X211569Y324050D01*
X211995Y323412D01*
X212633Y322986D01*
X213386Y322836D01*
X214139Y322986D01*
X214777Y323412D01*
X215203Y324050D01*
X215353Y324803D01*
X215203Y325556D01*
X214777Y326194D01*
X214139Y326620D01*
X213386Y326770D01*
D02*
G37*
G36*
X250787Y325983D02*
X250035Y325833D01*
X249397Y325407D01*
X248970Y324768D01*
X248820Y324016D01*
X248970Y323263D01*
X249397Y322625D01*
X250035Y322199D01*
X250787Y322049D01*
X251540Y322199D01*
X252178Y322625D01*
X252605Y323263D01*
X252754Y324016D01*
X252605Y324768D01*
X252178Y325407D01*
X251540Y325833D01*
X250787Y325983D01*
D02*
G37*
G36*
X131602Y321215D02*
Y319791D01*
X133026D01*
X132972Y320065D01*
X132533Y320722D01*
X131877Y321161D01*
X131602Y321215D01*
D02*
G37*
G36*
X130602D02*
X130328Y321161D01*
X129672Y320722D01*
X129233Y320065D01*
X129179Y319791D01*
X130602D01*
Y321215D01*
D02*
G37*
G36*
X133055Y318791D02*
X129149D01*
X128807Y318323D01*
X128134D01*
Y316051D01*
X131102D01*
X134071D01*
Y318323D01*
X133397D01*
X133055Y318791D01*
D02*
G37*
G36*
X185039Y317321D02*
X184287Y317172D01*
X183649Y316745D01*
X183222Y316107D01*
X183072Y315354D01*
X183222Y314602D01*
X183649Y313964D01*
X184287Y313537D01*
X185039Y313387D01*
X185792Y313537D01*
X186430Y313964D01*
X186857Y314602D01*
X187006Y315354D01*
X186857Y316107D01*
X186430Y316745D01*
X185792Y317172D01*
X185039Y317321D01*
D02*
G37*
G36*
X104500Y314228D02*
X101638D01*
Y312970D01*
X101138Y312702D01*
X100853Y312893D01*
X100579Y312947D01*
Y311024D01*
Y309100D01*
X100853Y309155D01*
X101138Y309345D01*
X101638Y309202D01*
Y307504D01*
X104500D01*
Y310866D01*
Y314228D01*
D02*
G37*
G36*
X134071Y315051D02*
X131102D01*
X128134D01*
Y312779D01*
X128189D01*
Y311709D01*
X125874D01*
X125654Y311857D01*
X124902Y312006D01*
X124149Y311857D01*
X123511Y311430D01*
X123084Y310792D01*
X122935Y310039D01*
X123084Y309287D01*
X123511Y308648D01*
X124149Y308222D01*
X124902Y308072D01*
X125654Y308222D01*
X126292Y308648D01*
X126369Y308763D01*
X128189D01*
Y307520D01*
X134016D01*
Y312779D01*
X134071D01*
Y315051D01*
D02*
G37*
G36*
X99579Y312947D02*
X99304Y312893D01*
X98648Y312454D01*
X98210Y311798D01*
X98155Y311524D01*
X99579D01*
Y312947D01*
D02*
G37*
G36*
Y310524D02*
X98155D01*
X98210Y310249D01*
X98648Y309593D01*
X99304Y309155D01*
X99579Y309100D01*
Y310524D01*
D02*
G37*
G36*
X108362Y314228D02*
X105500D01*
Y310866D01*
Y307504D01*
X108362D01*
X108669Y307131D01*
Y307031D01*
X110941D01*
Y310000D01*
Y312968D01*
X108669D01*
X108362Y313341D01*
Y314228D01*
D02*
G37*
G36*
X238583Y302361D02*
X237830Y302211D01*
X237192Y301784D01*
X236766Y301146D01*
X236616Y300394D01*
X236766Y299641D01*
X237192Y299003D01*
X237830Y298576D01*
X238583Y298427D01*
X239335Y298576D01*
X239973Y299003D01*
X240400Y299641D01*
X240550Y300394D01*
X240400Y301146D01*
X239973Y301784D01*
X239335Y302211D01*
X238583Y302361D01*
D02*
G37*
G36*
X231102D02*
X230350Y302211D01*
X229712Y301784D01*
X229285Y301146D01*
X229135Y300394D01*
X229285Y299641D01*
X229712Y299003D01*
X230350Y298576D01*
X231102Y298427D01*
X231855Y298576D01*
X232493Y299003D01*
X232920Y299641D01*
X233069Y300394D01*
X232920Y301146D01*
X232493Y301784D01*
X231855Y302211D01*
X231102Y302361D01*
D02*
G37*
G36*
X252756Y312990D02*
X252003Y312841D01*
X251375Y312421D01*
X248307D01*
Y297028D01*
X257205D01*
Y312421D01*
X254136D01*
X253509Y312841D01*
X252756Y312990D01*
D02*
G37*
G36*
X235138Y298522D02*
X234385Y298372D01*
X233747Y297946D01*
X233321Y297308D01*
X233171Y296555D01*
X233321Y295802D01*
X233747Y295164D01*
X234385Y294738D01*
X235138Y294588D01*
X235891Y294738D01*
X236529Y295164D01*
X236955Y295802D01*
X237105Y296555D01*
X236955Y297308D01*
X236529Y297946D01*
X235891Y298372D01*
X235138Y298522D01*
D02*
G37*
G36*
X109358Y294837D02*
Y293413D01*
X110782D01*
X110727Y293688D01*
X110289Y294344D01*
X109633Y294782D01*
X109358Y294837D01*
D02*
G37*
G36*
X108358D02*
X108084Y294782D01*
X107428Y294344D01*
X106989Y293688D01*
X106935Y293413D01*
X108358D01*
Y294837D01*
D02*
G37*
G36*
X242618Y296455D02*
X241865Y296305D01*
X241227Y295879D01*
X240801Y295241D01*
X240651Y294488D01*
X240801Y293736D01*
X241227Y293097D01*
X241865Y292671D01*
X242618Y292521D01*
X243371Y292671D01*
X244009Y293097D01*
X244435Y293736D01*
X244585Y294488D01*
X244435Y295241D01*
X244009Y295879D01*
X243371Y296305D01*
X242618Y296455D01*
D02*
G37*
G36*
X110782Y292413D02*
X106935D01*
X106989Y292139D01*
X107235Y291772D01*
X106967Y291272D01*
X105933D01*
Y289000D01*
X109000D01*
X112067D01*
Y291272D01*
X110576D01*
X110482Y291772D01*
X110727Y292139D01*
X110782Y292413D01*
D02*
G37*
G36*
X259449Y288187D02*
X258696Y288038D01*
X258058Y287611D01*
X257632Y286973D01*
X257482Y286221D01*
X257632Y285468D01*
X258058Y284830D01*
X258696Y284403D01*
X259449Y284254D01*
X260202Y284403D01*
X260840Y284830D01*
X261266Y285468D01*
X261416Y286221D01*
X261266Y286973D01*
X260840Y287611D01*
X260202Y288038D01*
X259449Y288187D01*
D02*
G37*
G36*
X246063Y284644D02*
X245310Y284494D01*
X244672Y284068D01*
X244246Y283430D01*
X244096Y282677D01*
X244246Y281925D01*
X244672Y281286D01*
X245310Y280860D01*
X246063Y280710D01*
X246816Y280860D01*
X247454Y281286D01*
X247880Y281925D01*
X248030Y282677D01*
X247880Y283430D01*
X247454Y284068D01*
X246816Y284494D01*
X246063Y284644D01*
D02*
G37*
G36*
X77953Y283955D02*
X77200Y283805D01*
X76562Y283379D01*
X76136Y282741D01*
X75986Y281988D01*
X76136Y281236D01*
X76562Y280597D01*
X77200Y280171D01*
X77953Y280021D01*
X78706Y280171D01*
X79344Y280597D01*
X79770Y281236D01*
X79920Y281988D01*
X79770Y282741D01*
X79344Y283379D01*
X78706Y283805D01*
X77953Y283955D01*
D02*
G37*
G36*
X256673Y283483D02*
X255921Y283333D01*
X255282Y282907D01*
X254856Y282269D01*
X254706Y281516D01*
X254856Y280763D01*
X255282Y280125D01*
X255921Y279698D01*
X256673Y279549D01*
X257426Y279698D01*
X258064Y280125D01*
X258490Y280763D01*
X258640Y281516D01*
X258490Y282269D01*
X258064Y282907D01*
X257426Y283333D01*
X256673Y283483D01*
D02*
G37*
G36*
X70500Y290719D02*
X69747Y290569D01*
X69109Y290143D01*
X68683Y289505D01*
X68533Y288752D01*
X68683Y287999D01*
X69027Y287484D01*
Y286124D01*
X68276D01*
Y278230D01*
X72724D01*
Y286124D01*
X71973D01*
Y287484D01*
X72317Y287999D01*
X72467Y288752D01*
X72317Y289505D01*
X71891Y290143D01*
X71253Y290569D01*
X70500Y290719D01*
D02*
G37*
G36*
X67724Y286124D02*
X63276D01*
Y278230D01*
X67724D01*
Y286124D01*
D02*
G37*
G36*
X61024Y290550D02*
X60271Y290400D01*
X59633Y289973D01*
X59206Y289335D01*
X59057Y288583D01*
X59094Y288396D01*
X59027Y288059D01*
Y286124D01*
X58276D01*
Y278230D01*
X62724D01*
Y286124D01*
X61973D01*
Y286897D01*
X62414Y287192D01*
X62841Y287830D01*
X62990Y288583D01*
X62841Y289335D01*
X62414Y289973D01*
X61776Y290400D01*
X61024Y290550D01*
D02*
G37*
G36*
X55610Y290943D02*
X54857Y290794D01*
X54219Y290367D01*
X53793Y289729D01*
X53643Y288976D01*
X53793Y288224D01*
X54137Y287709D01*
Y286124D01*
X53276D01*
Y278230D01*
X57724D01*
Y286124D01*
X57083D01*
Y287709D01*
X57427Y288224D01*
X57577Y288976D01*
X57427Y289729D01*
X57001Y290367D01*
X56363Y290794D01*
X55610Y290943D01*
D02*
G37*
G36*
X50197Y290353D02*
X49444Y290203D01*
X48806Y289777D01*
X48380Y289139D01*
X48230Y288386D01*
X48380Y287633D01*
X48806Y286995D01*
X49027Y286847D01*
Y286124D01*
X48276D01*
Y278230D01*
X52724D01*
Y286124D01*
X51973D01*
Y287572D01*
X52014Y287633D01*
X52164Y288386D01*
X52014Y289139D01*
X51588Y289777D01*
X50950Y290203D01*
X50197Y290353D01*
D02*
G37*
G36*
X45276D02*
X44523Y290203D01*
X43885Y289777D01*
X43458Y289139D01*
X43309Y288386D01*
X43458Y287633D01*
X43885Y286995D01*
X44027Y286900D01*
Y286124D01*
X43276D01*
Y278230D01*
X47724D01*
Y286124D01*
X46973D01*
Y287454D01*
X47093Y287633D01*
X47243Y288386D01*
X47093Y289139D01*
X46666Y289777D01*
X46028Y290203D01*
X45276Y290353D01*
D02*
G37*
G36*
X40354D02*
X39602Y290203D01*
X38963Y289777D01*
X38537Y289139D01*
X38387Y288386D01*
X38537Y287633D01*
X38963Y286995D01*
X39027Y286953D01*
Y286124D01*
X38276D01*
Y278230D01*
X42724D01*
Y286124D01*
X41973D01*
Y287336D01*
X42171Y287633D01*
X42321Y288386D01*
X42171Y289139D01*
X41745Y289777D01*
X41107Y290203D01*
X40354Y290353D01*
D02*
G37*
G36*
X102000Y277567D02*
X99728D01*
Y276652D01*
X99287Y276417D01*
X99199Y276475D01*
X98925Y276530D01*
Y274606D01*
Y272683D01*
X99199Y272737D01*
X99228Y272757D01*
X99728Y272489D01*
Y271433D01*
X102000D01*
Y274500D01*
Y277567D01*
D02*
G37*
G36*
X97925Y276530D02*
X97651Y276475D01*
X96995Y276037D01*
X96556Y275380D01*
X96501Y275106D01*
X97925D01*
Y276530D01*
D02*
G37*
G36*
X216496Y284311D02*
X210866D01*
Y276319D01*
X214905D01*
X215778Y275445D01*
X215899Y274838D01*
X216326Y274200D01*
X216964Y273773D01*
X217717Y273624D01*
X218469Y273773D01*
X219107Y274200D01*
X219534Y274838D01*
X219684Y275590D01*
X219534Y276343D01*
X219107Y276981D01*
X218469Y277408D01*
X217862Y277529D01*
X216496Y278894D01*
Y284311D01*
D02*
G37*
G36*
X97925Y274106D02*
X96501D01*
X96556Y273832D01*
X96995Y273176D01*
X97651Y272737D01*
X97925Y272683D01*
Y274106D01*
D02*
G37*
G36*
X253543Y272046D02*
X252791Y271896D01*
X252152Y271470D01*
X251726Y270831D01*
X251576Y270079D01*
X251726Y269326D01*
X252152Y268688D01*
X252791Y268262D01*
X253543Y268112D01*
X254296Y268262D01*
X254934Y268688D01*
X255361Y269326D01*
X255510Y270079D01*
X255361Y270831D01*
X254934Y271470D01*
X254296Y271896D01*
X253543Y272046D01*
D02*
G37*
G36*
X52724Y264770D02*
X48276D01*
Y260885D01*
X48224Y260833D01*
X47724Y261039D01*
Y264770D01*
X43276D01*
Y256876D01*
X43650D01*
X43724Y256796D01*
X43885Y256312D01*
X43458Y255674D01*
X43309Y254921D01*
X43458Y254169D01*
X43885Y253530D01*
X44523Y253104D01*
X45276Y252954D01*
X46028Y253104D01*
X46666Y253530D01*
X47093Y254169D01*
X47243Y254921D01*
X47093Y255674D01*
X46973Y255853D01*
Y256876D01*
X47724D01*
Y258819D01*
X48224Y259025D01*
X48276Y258974D01*
Y256876D01*
X48610D01*
X48711Y256376D01*
X48382Y255883D01*
X48232Y255131D01*
X48382Y254378D01*
X48809Y253740D01*
X49447Y253313D01*
X50199Y253164D01*
X50952Y253313D01*
X51590Y253740D01*
X52017Y254378D01*
X52166Y255131D01*
X52017Y255883D01*
X51687Y256376D01*
X51789Y256876D01*
X52724D01*
Y264770D01*
D02*
G37*
G36*
X101342Y261567D02*
X99071D01*
Y260757D01*
X98571Y260490D01*
X98215Y260727D01*
X97941Y260782D01*
Y258858D01*
Y256935D01*
X98215Y256989D01*
X98272Y257027D01*
X99071D01*
Y255433D01*
X101342D01*
Y258500D01*
Y261567D01*
D02*
G37*
G36*
X228898Y269252D02*
X224055D01*
Y260054D01*
X223555Y259843D01*
X223194Y260085D01*
X222441Y260235D01*
X221688Y260085D01*
X221050Y259659D01*
X220624Y259020D01*
X220474Y258268D01*
X220624Y257515D01*
X221050Y256877D01*
X221688Y256451D01*
X222441Y256301D01*
X223194Y256451D01*
X223555Y256692D01*
X224055Y256482D01*
Y246496D01*
X228898D01*
Y269252D01*
D02*
G37*
G36*
X96941Y260782D02*
X96667Y260727D01*
X96010Y260289D01*
X95572Y259632D01*
X95517Y259358D01*
X96941D01*
Y260782D01*
D02*
G37*
G36*
Y258358D02*
X95517D01*
X95572Y258084D01*
X96010Y257428D01*
X96667Y256989D01*
X96941Y256935D01*
Y258358D01*
D02*
G37*
G36*
X257205Y260453D02*
X248307D01*
Y256899D01*
X247845Y256708D01*
X247749Y256804D01*
X247111Y257231D01*
X246358Y257380D01*
X235138D01*
X234385Y257231D01*
X233747Y256804D01*
X233321Y256166D01*
X233171Y255413D01*
X233321Y254661D01*
X233747Y254023D01*
X234385Y253596D01*
X235138Y253447D01*
X245544D01*
X247625Y251365D01*
X248263Y250939D01*
X248307Y250930D01*
Y245059D01*
X257205D01*
Y260453D01*
D02*
G37*
G36*
X72724Y264770D02*
X68276D01*
Y256876D01*
X68435D01*
X68587Y256376D01*
X68491Y256312D01*
X68109Y255740D01*
X68080Y255730D01*
X67800Y255700D01*
X67565Y255724D01*
X67237Y256214D01*
X66973Y256390D01*
Y256876D01*
X67724D01*
Y264770D01*
X63276D01*
Y256876D01*
X64027D01*
Y255563D01*
X63880Y254823D01*
X64029Y254070D01*
X64456Y253432D01*
X65094Y253006D01*
X65847Y252856D01*
X66599Y253006D01*
X67237Y253432D01*
X67619Y254004D01*
X67648Y254014D01*
X67929Y254044D01*
X68164Y254021D01*
X68491Y253530D01*
X69129Y253104D01*
X69882Y252954D01*
X70635Y253104D01*
X71273Y253530D01*
X71699Y254169D01*
X71849Y254921D01*
X71843Y254949D01*
X71861Y254976D01*
X71973Y255539D01*
Y256876D01*
X72724D01*
Y264770D01*
D02*
G37*
G36*
X42724D02*
X38276D01*
Y256876D01*
X38743D01*
X38880Y256597D01*
X38934Y256376D01*
X38539Y255785D01*
X38389Y255032D01*
X38539Y254279D01*
X38965Y253641D01*
X39604Y253215D01*
X40356Y253065D01*
X41109Y253215D01*
X41747Y253641D01*
X42173Y254279D01*
X42323Y255032D01*
X42173Y255785D01*
X41973Y256085D01*
Y256876D01*
X42724D01*
Y264770D01*
D02*
G37*
G36*
X57724D02*
X53276D01*
Y256876D01*
X53671D01*
X53823Y256376D01*
X53727Y256312D01*
X53301Y255674D01*
X53151Y254921D01*
X53301Y254169D01*
X53727Y253530D01*
X54365Y253104D01*
X55118Y252954D01*
X55871Y253104D01*
X56509Y253530D01*
X56935Y254169D01*
X57085Y254921D01*
X56973Y255484D01*
Y256876D01*
X57724D01*
Y264770D01*
D02*
G37*
G36*
X62724D02*
X58276D01*
Y256876D01*
X59027D01*
Y256059D01*
X58683Y255544D01*
X58533Y254791D01*
X58683Y254039D01*
X59109Y253400D01*
X59747Y252974D01*
X60500Y252824D01*
X61253Y252974D01*
X61891Y253400D01*
X62317Y254039D01*
X62467Y254791D01*
X62317Y255544D01*
X61973Y256059D01*
Y256876D01*
X62724D01*
Y264770D01*
D02*
G37*
G36*
X223189Y239921D02*
X217756D01*
Y234095D01*
X222402D01*
X222670Y233594D01*
X222494Y233331D01*
X222344Y232579D01*
X222494Y231826D01*
X222920Y231188D01*
X223558Y230762D01*
X224311Y230612D01*
X225064Y230762D01*
X225702Y231188D01*
X226128Y231826D01*
X226278Y232579D01*
X226128Y233331D01*
X225702Y233970D01*
X225064Y234396D01*
X224311Y234546D01*
X223719Y234428D01*
X223325Y234734D01*
X223427Y235141D01*
X225898D01*
X226413Y234797D01*
X227165Y234647D01*
X227918Y234797D01*
X228556Y235223D01*
X228982Y235861D01*
X229132Y236614D01*
X228982Y237367D01*
X228556Y238005D01*
X227918Y238431D01*
X227165Y238581D01*
X226413Y238431D01*
X225898Y238087D01*
X223189D01*
Y239921D01*
D02*
G37*
G36*
X242323Y235924D02*
X241570Y235774D01*
X240932Y235348D01*
X240506Y234709D01*
X240356Y233957D01*
X240506Y233204D01*
X240932Y232566D01*
X241570Y232139D01*
X242323Y231990D01*
X243076Y232139D01*
X243714Y232566D01*
X244140Y233204D01*
X244290Y233957D01*
X244140Y234709D01*
X243714Y235348D01*
X243076Y235774D01*
X242323Y235924D01*
D02*
G37*
G36*
X60925Y218502D02*
X60172Y218353D01*
X59534Y217926D01*
X59108Y217288D01*
X58958Y216535D01*
X59108Y215783D01*
X59534Y215145D01*
X60172Y214718D01*
X60925Y214568D01*
X61678Y214718D01*
X62316Y215145D01*
X62742Y215783D01*
X62892Y216535D01*
X62742Y217288D01*
X62316Y217926D01*
X61678Y218353D01*
X60925Y218502D01*
D02*
G37*
G36*
X145374Y213483D02*
X144621Y213333D01*
X143983Y212907D01*
X143557Y212268D01*
X143407Y211516D01*
X143557Y210763D01*
X143983Y210125D01*
X144621Y209699D01*
X145374Y209549D01*
X146127Y209699D01*
X146765Y210125D01*
X147191Y210763D01*
X147341Y211516D01*
X147191Y212268D01*
X146765Y212907D01*
X146127Y213333D01*
X145374Y213483D01*
D02*
G37*
G36*
X214567Y212203D02*
X213814Y212053D01*
X213176Y211627D01*
X212750Y210989D01*
X212600Y210236D01*
X212750Y209484D01*
X213176Y208845D01*
X213814Y208419D01*
X214567Y208269D01*
X215320Y208419D01*
X215958Y208845D01*
X216384Y209484D01*
X216534Y210236D01*
X216384Y210989D01*
X215958Y211627D01*
X215320Y212053D01*
X214567Y212203D01*
D02*
G37*
G36*
X157441Y206555D02*
X150039D01*
Y205805D01*
X147343D01*
X146590Y205656D01*
X145952Y205229D01*
X145853Y205131D01*
X145427Y204493D01*
X145277Y203740D01*
X145427Y202987D01*
X145853Y202349D01*
X146491Y201923D01*
X147244Y201773D01*
X147739Y201872D01*
X150039D01*
Y201122D01*
X157441D01*
Y206555D01*
D02*
G37*
G36*
X79921Y200589D02*
X79169Y200439D01*
X78530Y200013D01*
X78104Y199375D01*
X77954Y198622D01*
X78104Y197869D01*
X78530Y197231D01*
X79169Y196805D01*
X79921Y196655D01*
X80674Y196805D01*
X81312Y197231D01*
X81739Y197869D01*
X81888Y198622D01*
X81739Y199375D01*
X81312Y200013D01*
X80674Y200439D01*
X79921Y200589D01*
D02*
G37*
G36*
X35039Y190156D02*
X34287Y190006D01*
X33649Y189580D01*
X33222Y188942D01*
X33072Y188189D01*
X33222Y187436D01*
X33649Y186798D01*
X34287Y186372D01*
X35039Y186222D01*
X35792Y186372D01*
X36430Y186798D01*
X36857Y187436D01*
X37006Y188189D01*
X36857Y188942D01*
X36430Y189580D01*
X35792Y190006D01*
X35039Y190156D01*
D02*
G37*
G36*
X250394Y204723D02*
X249641Y204573D01*
X249003Y204147D01*
X248576Y203509D01*
X248427Y202756D01*
Y200217D01*
X248307D01*
Y184823D01*
X257205D01*
Y200217D01*
X252361D01*
Y202756D01*
X252211Y203509D01*
X251784Y204147D01*
X251146Y204573D01*
X250394Y204723D01*
D02*
G37*
G36*
X144390Y188483D02*
X143637Y188333D01*
X142999Y187907D01*
X142573Y187268D01*
X142423Y186516D01*
X142573Y185763D01*
X142999Y185125D01*
X143637Y184699D01*
X144390Y184549D01*
X145142Y184699D01*
X145781Y185125D01*
X146207Y185763D01*
X146357Y186516D01*
X146207Y187268D01*
X145781Y187907D01*
X145142Y188333D01*
X144390Y188483D01*
D02*
G37*
G36*
X36122Y184841D02*
X35369Y184691D01*
X34731Y184265D01*
X34305Y183627D01*
X34155Y182874D01*
X34305Y182121D01*
X34731Y181483D01*
X35369Y181057D01*
X36122Y180907D01*
X36875Y181057D01*
X37513Y181483D01*
X37939Y182121D01*
X38089Y182874D01*
X37939Y183627D01*
X37513Y184265D01*
X36875Y184691D01*
X36122Y184841D01*
D02*
G37*
G36*
X72146Y172341D02*
X71393Y172191D01*
X70755Y171765D01*
X70328Y171127D01*
X70179Y170374D01*
X70328Y169621D01*
X70755Y168983D01*
X71393Y168557D01*
X72146Y168407D01*
X72898Y168557D01*
X73536Y168983D01*
X73963Y169621D01*
X74113Y170374D01*
X73963Y171127D01*
X73536Y171765D01*
X72898Y172191D01*
X72146Y172341D01*
D02*
G37*
G36*
X201083Y171061D02*
X200330Y170912D01*
X199692Y170485D01*
X199266Y169847D01*
X199116Y169095D01*
X199266Y168342D01*
X199692Y167704D01*
X200330Y167277D01*
X201083Y167128D01*
X201835Y167277D01*
X202473Y167704D01*
X202900Y168342D01*
X203050Y169095D01*
X202900Y169847D01*
X202473Y170485D01*
X201835Y170912D01*
X201083Y171061D01*
D02*
G37*
G36*
X209842Y164959D02*
X209090Y164809D01*
X208452Y164383D01*
X208025Y163745D01*
X207876Y162992D01*
X208025Y162239D01*
X208452Y161601D01*
X209090Y161175D01*
X209842Y161025D01*
X210595Y161175D01*
X211233Y161601D01*
X211660Y162239D01*
X211809Y162992D01*
X211660Y163745D01*
X211233Y164383D01*
X210595Y164809D01*
X209842Y164959D01*
D02*
G37*
G36*
X245374Y178739D02*
X245276D01*
X244523Y178589D01*
X243885Y178163D01*
X243458Y177524D01*
X243309Y176772D01*
X243458Y176019D01*
X243885Y175381D01*
X244181Y175183D01*
X248307Y171057D01*
Y158445D01*
X257205D01*
Y173839D01*
X251089D01*
X246765Y178163D01*
X246127Y178589D01*
X245374Y178739D01*
D02*
G37*
G36*
X218898Y161022D02*
X218145Y160872D01*
X217507Y160446D01*
X217080Y159808D01*
X216931Y159055D01*
X217080Y158302D01*
X217507Y157664D01*
X218145Y157238D01*
X218898Y157088D01*
X219650Y157238D01*
X220288Y157664D01*
X220715Y158302D01*
X220865Y159055D01*
X220715Y159808D01*
X220288Y160446D01*
X219650Y160872D01*
X218898Y161022D01*
D02*
G37*
G36*
X128150Y157577D02*
X127397Y157427D01*
X126759Y157001D01*
X126332Y156363D01*
X126183Y155610D01*
X126332Y154858D01*
X126759Y154219D01*
X127397Y153793D01*
X128150Y153643D01*
X128902Y153793D01*
X129540Y154219D01*
X129967Y154858D01*
X130116Y155610D01*
X129967Y156363D01*
X129540Y157001D01*
X128902Y157427D01*
X128150Y157577D01*
D02*
G37*
G36*
X173622Y156396D02*
X172869Y156246D01*
X172231Y155820D01*
X171805Y155182D01*
X171655Y154429D01*
X171805Y153676D01*
X172231Y153038D01*
X172869Y152612D01*
X173622Y152462D01*
X174375Y152612D01*
X175013Y153038D01*
X175439Y153676D01*
X175589Y154429D01*
X175439Y155182D01*
X175013Y155820D01*
X174375Y156246D01*
X173622Y156396D01*
D02*
G37*
G36*
X111122Y155510D02*
X110369Y155360D01*
X109731Y154934D01*
X109305Y154296D01*
X109155Y153543D01*
X109305Y152791D01*
X109731Y152153D01*
X110369Y151726D01*
X111122Y151576D01*
X111875Y151726D01*
X112513Y152153D01*
X112939Y152791D01*
X113089Y153543D01*
X112939Y154296D01*
X112513Y154934D01*
X111875Y155360D01*
X111122Y155510D01*
D02*
G37*
G36*
X166740Y155124D02*
X165988Y154974D01*
X165350Y154548D01*
X164923Y153910D01*
X164773Y153157D01*
X164923Y152404D01*
X165350Y151766D01*
X165988Y151340D01*
X166740Y151190D01*
X167493Y151340D01*
X168131Y151766D01*
X168558Y152404D01*
X168707Y153157D01*
X168558Y153910D01*
X168131Y154548D01*
X167493Y154974D01*
X166740Y155124D01*
D02*
G37*
G36*
X90059Y155018D02*
X89306Y154868D01*
X88668Y154442D01*
X88242Y153804D01*
X88092Y153051D01*
X88242Y152298D01*
X88668Y151660D01*
X89306Y151234D01*
X90059Y151084D01*
X90812Y151234D01*
X91450Y151660D01*
X91876Y152298D01*
X92026Y153051D01*
X91876Y153804D01*
X91450Y154442D01*
X90812Y154868D01*
X90059Y155018D01*
D02*
G37*
G36*
X42770Y148205D02*
X35380D01*
Y139315D01*
X42770D01*
Y148205D01*
D02*
G37*
G36*
X219075Y148237D02*
X218110Y148110D01*
X217211Y147737D01*
X216440Y147145D01*
X215847Y146373D01*
X215475Y145474D01*
X215348Y144510D01*
Y143010D01*
X215475Y142045D01*
X215847Y141147D01*
X216440Y140375D01*
X217211Y139782D01*
X218110Y139410D01*
X219075Y139283D01*
X220039Y139410D01*
X220938Y139782D01*
X221710Y140375D01*
X222302Y141147D01*
X222675Y142045D01*
X222802Y143010D01*
Y144510D01*
X222675Y145474D01*
X222302Y146373D01*
X221710Y147145D01*
X220938Y147737D01*
X220039Y148110D01*
X219075Y148237D01*
D02*
G37*
G36*
X209075D02*
X208110Y148110D01*
X207211Y147737D01*
X206440Y147145D01*
X205847Y146373D01*
X205475Y145474D01*
X205348Y144510D01*
Y143010D01*
X205475Y142045D01*
X205847Y141147D01*
X206440Y140375D01*
X207211Y139782D01*
X208110Y139410D01*
X209075Y139283D01*
X210039Y139410D01*
X210938Y139782D01*
X211710Y140375D01*
X212302Y141147D01*
X212675Y142045D01*
X212802Y143010D01*
Y144510D01*
X212675Y145474D01*
X212302Y146373D01*
X211710Y147145D01*
X210938Y147737D01*
X210039Y148110D01*
X209075Y148237D01*
D02*
G37*
G36*
X199075D02*
X198110Y148110D01*
X197211Y147737D01*
X196440Y147145D01*
X195847Y146373D01*
X195475Y145474D01*
X195348Y144510D01*
Y143010D01*
X195475Y142045D01*
X195847Y141147D01*
X196440Y140375D01*
X197211Y139782D01*
X198110Y139410D01*
X199075Y139283D01*
X200039Y139410D01*
X200938Y139782D01*
X201710Y140375D01*
X202302Y141147D01*
X202675Y142045D01*
X202802Y143010D01*
Y144510D01*
X202675Y145474D01*
X202302Y146373D01*
X201710Y147145D01*
X200938Y147737D01*
X200039Y148110D01*
X199075Y148237D01*
D02*
G37*
G36*
X189075D02*
X188110Y148110D01*
X187211Y147737D01*
X186440Y147145D01*
X185847Y146373D01*
X185475Y145474D01*
X185348Y144510D01*
Y143010D01*
X185475Y142045D01*
X185847Y141147D01*
X186440Y140375D01*
X187211Y139782D01*
X188110Y139410D01*
X189075Y139283D01*
X190039Y139410D01*
X190938Y139782D01*
X191710Y140375D01*
X192302Y141147D01*
X192675Y142045D01*
X192802Y143010D01*
Y144510D01*
X192675Y145474D01*
X192302Y146373D01*
X191710Y147145D01*
X190938Y147737D01*
X190039Y148110D01*
X189075Y148237D01*
D02*
G37*
G36*
X179075D02*
X178110Y148110D01*
X177211Y147737D01*
X176440Y147145D01*
X175847Y146373D01*
X175475Y145474D01*
X175348Y144510D01*
Y143010D01*
X175475Y142045D01*
X175847Y141147D01*
X176440Y140375D01*
X177211Y139782D01*
X178110Y139410D01*
X179075Y139283D01*
X180039Y139410D01*
X180938Y139782D01*
X181710Y140375D01*
X182302Y141147D01*
X182675Y142045D01*
X182802Y143010D01*
Y144510D01*
X182675Y145474D01*
X182302Y146373D01*
X181710Y147145D01*
X180938Y147737D01*
X180039Y148110D01*
X179075Y148237D01*
D02*
G37*
G36*
X169075D02*
X168110Y148110D01*
X167211Y147737D01*
X166440Y147145D01*
X165847Y146373D01*
X165475Y145474D01*
X165348Y144510D01*
Y143010D01*
X165475Y142045D01*
X165847Y141147D01*
X166440Y140375D01*
X167211Y139782D01*
X168110Y139410D01*
X169075Y139283D01*
X170039Y139410D01*
X170938Y139782D01*
X171710Y140375D01*
X172302Y141147D01*
X172675Y142045D01*
X172802Y143010D01*
Y144510D01*
X172675Y145474D01*
X172302Y146373D01*
X171710Y147145D01*
X170938Y147737D01*
X170039Y148110D01*
X169075Y148237D01*
D02*
G37*
G36*
X159075D02*
X158110Y148110D01*
X157211Y147737D01*
X156440Y147145D01*
X155847Y146373D01*
X155475Y145474D01*
X155348Y144510D01*
Y143010D01*
X155475Y142045D01*
X155847Y141147D01*
X156440Y140375D01*
X157211Y139782D01*
X158110Y139410D01*
X159075Y139283D01*
X160039Y139410D01*
X160938Y139782D01*
X161710Y140375D01*
X162302Y141147D01*
X162675Y142045D01*
X162802Y143010D01*
Y144510D01*
X162675Y145474D01*
X162302Y146373D01*
X161710Y147145D01*
X160938Y147737D01*
X160039Y148110D01*
X159075Y148237D01*
D02*
G37*
G36*
X149075D02*
X148110Y148110D01*
X147211Y147737D01*
X146440Y147145D01*
X145847Y146373D01*
X145475Y145474D01*
X145348Y144510D01*
Y143010D01*
X145475Y142045D01*
X145847Y141147D01*
X146440Y140375D01*
X147211Y139782D01*
X148110Y139410D01*
X149075Y139283D01*
X150039Y139410D01*
X150938Y139782D01*
X151710Y140375D01*
X152302Y141147D01*
X152675Y142045D01*
X152802Y143010D01*
Y144510D01*
X152675Y145474D01*
X152302Y146373D01*
X151710Y147145D01*
X150938Y147737D01*
X150039Y148110D01*
X149075Y148237D01*
D02*
G37*
G36*
X139075D02*
X138110Y148110D01*
X137211Y147737D01*
X136440Y147145D01*
X135847Y146373D01*
X135475Y145474D01*
X135348Y144510D01*
Y143010D01*
X135475Y142045D01*
X135847Y141147D01*
X136440Y140375D01*
X137211Y139782D01*
X138110Y139410D01*
X139075Y139283D01*
X140039Y139410D01*
X140938Y139782D01*
X141710Y140375D01*
X142302Y141147D01*
X142675Y142045D01*
X142802Y143010D01*
Y144510D01*
X142675Y145474D01*
X142302Y146373D01*
X141710Y147145D01*
X140938Y147737D01*
X140039Y148110D01*
X139075Y148237D01*
D02*
G37*
G36*
X129075D02*
X128110Y148110D01*
X127211Y147737D01*
X126440Y147145D01*
X125847Y146373D01*
X125475Y145474D01*
X125348Y144510D01*
Y143010D01*
X125475Y142045D01*
X125847Y141147D01*
X126440Y140375D01*
X127211Y139782D01*
X128110Y139410D01*
X129075Y139283D01*
X130039Y139410D01*
X130938Y139782D01*
X131710Y140375D01*
X132302Y141147D01*
X132675Y142045D01*
X132802Y143010D01*
Y144510D01*
X132675Y145474D01*
X132302Y146373D01*
X131710Y147145D01*
X130938Y147737D01*
X130039Y148110D01*
X129075Y148237D01*
D02*
G37*
G36*
X119075D02*
X118110Y148110D01*
X117211Y147737D01*
X116440Y147145D01*
X115847Y146373D01*
X115475Y145474D01*
X115348Y144510D01*
Y143010D01*
X115475Y142045D01*
X115847Y141147D01*
X116440Y140375D01*
X117211Y139782D01*
X118110Y139410D01*
X119075Y139283D01*
X120039Y139410D01*
X120938Y139782D01*
X121710Y140375D01*
X122302Y141147D01*
X122675Y142045D01*
X122802Y143010D01*
Y144510D01*
X122675Y145474D01*
X122302Y146373D01*
X121710Y147145D01*
X120938Y147737D01*
X120039Y148110D01*
X119075Y148237D01*
D02*
G37*
G36*
X109075D02*
X108110Y148110D01*
X107211Y147737D01*
X106440Y147145D01*
X105847Y146373D01*
X105475Y145474D01*
X105348Y144510D01*
Y143010D01*
X105475Y142045D01*
X105847Y141147D01*
X106440Y140375D01*
X107211Y139782D01*
X108110Y139410D01*
X109075Y139283D01*
X110039Y139410D01*
X110938Y139782D01*
X111710Y140375D01*
X112302Y141147D01*
X112675Y142045D01*
X112802Y143010D01*
Y144510D01*
X112675Y145474D01*
X112302Y146373D01*
X111710Y147145D01*
X110938Y147737D01*
X110039Y148110D01*
X109075Y148237D01*
D02*
G37*
G36*
X99075D02*
X98110Y148110D01*
X97211Y147737D01*
X96440Y147145D01*
X95847Y146373D01*
X95475Y145474D01*
X95348Y144510D01*
Y143010D01*
X95475Y142045D01*
X95847Y141147D01*
X96440Y140375D01*
X97211Y139782D01*
X98110Y139410D01*
X99075Y139283D01*
X100039Y139410D01*
X100938Y139782D01*
X101710Y140375D01*
X102302Y141147D01*
X102675Y142045D01*
X102802Y143010D01*
Y144510D01*
X102675Y145474D01*
X102302Y146373D01*
X101710Y147145D01*
X100938Y147737D01*
X100039Y148110D01*
X99075Y148237D01*
D02*
G37*
G36*
X89075D02*
X88110Y148110D01*
X87211Y147737D01*
X86440Y147145D01*
X85847Y146373D01*
X85475Y145474D01*
X85348Y144510D01*
Y143010D01*
X85475Y142045D01*
X85847Y141147D01*
X86440Y140375D01*
X87211Y139782D01*
X88110Y139410D01*
X89075Y139283D01*
X90039Y139410D01*
X90938Y139782D01*
X91710Y140375D01*
X92302Y141147D01*
X92675Y142045D01*
X92802Y143010D01*
Y144510D01*
X92675Y145474D01*
X92302Y146373D01*
X91710Y147145D01*
X90938Y147737D01*
X90039Y148110D01*
X89075Y148237D01*
D02*
G37*
G36*
X79075D02*
X78110Y148110D01*
X77211Y147737D01*
X76440Y147145D01*
X75847Y146373D01*
X75475Y145474D01*
X75348Y144510D01*
Y143010D01*
X75475Y142045D01*
X75847Y141147D01*
X76440Y140375D01*
X77211Y139782D01*
X78110Y139410D01*
X79075Y139283D01*
X80039Y139410D01*
X80938Y139782D01*
X81710Y140375D01*
X82302Y141147D01*
X82675Y142045D01*
X82802Y143010D01*
Y144510D01*
X82675Y145474D01*
X82302Y146373D01*
X81710Y147145D01*
X80938Y147737D01*
X80039Y148110D01*
X79075Y148237D01*
D02*
G37*
G36*
X69075D02*
X68110Y148110D01*
X67211Y147737D01*
X66440Y147145D01*
X65847Y146373D01*
X65475Y145474D01*
X65348Y144510D01*
Y143010D01*
X65475Y142045D01*
X65847Y141147D01*
X66440Y140375D01*
X67211Y139782D01*
X68110Y139410D01*
X69075Y139283D01*
X70039Y139410D01*
X70938Y139782D01*
X71710Y140375D01*
X72302Y141147D01*
X72675Y142045D01*
X72802Y143010D01*
Y144510D01*
X72675Y145474D01*
X72302Y146373D01*
X71710Y147145D01*
X70938Y147737D01*
X70039Y148110D01*
X69075Y148237D01*
D02*
G37*
G36*
X59075D02*
X58110Y148110D01*
X57211Y147737D01*
X56440Y147145D01*
X55847Y146373D01*
X55475Y145474D01*
X55348Y144510D01*
Y143010D01*
X55475Y142045D01*
X55847Y141147D01*
X56440Y140375D01*
X57211Y139782D01*
X58110Y139410D01*
X59075Y139283D01*
X60039Y139410D01*
X60938Y139782D01*
X61710Y140375D01*
X62302Y141147D01*
X62675Y142045D01*
X62802Y143010D01*
Y144510D01*
X62675Y145474D01*
X62302Y146373D01*
X61710Y147145D01*
X60938Y147737D01*
X60039Y148110D01*
X59075Y148237D01*
D02*
G37*
G36*
X49075D02*
X48110Y148110D01*
X47211Y147737D01*
X46440Y147145D01*
X45847Y146373D01*
X45475Y145474D01*
X45348Y144510D01*
Y143010D01*
X45475Y142045D01*
X45847Y141147D01*
X46440Y140375D01*
X47211Y139782D01*
X48110Y139410D01*
X49075Y139283D01*
X50039Y139410D01*
X50938Y139782D01*
X51710Y140375D01*
X52302Y141147D01*
X52675Y142045D01*
X52802Y143010D01*
Y144510D01*
X52675Y145474D01*
X52302Y146373D01*
X51710Y147145D01*
X50938Y147737D01*
X50039Y148110D01*
X49075Y148237D01*
D02*
G37*
G36*
X249804Y150537D02*
X248393Y150398D01*
X247037Y149986D01*
X245787Y149318D01*
X244691Y148419D01*
X243792Y147324D01*
X243124Y146074D01*
X242713Y144718D01*
X242574Y143307D01*
X242713Y141897D01*
X243124Y140540D01*
X243792Y139290D01*
X244691Y138195D01*
X245787Y137296D01*
X247037Y136628D01*
X248393Y136216D01*
X249804Y136077D01*
X251214Y136216D01*
X252570Y136628D01*
X253820Y137296D01*
X254916Y138195D01*
X255815Y139290D01*
X256483Y140540D01*
X256894Y141897D01*
X257033Y143307D01*
X256894Y144718D01*
X256483Y146074D01*
X255815Y147324D01*
X254916Y148419D01*
X253820Y149318D01*
X252570Y149986D01*
X251214Y150398D01*
X249804Y150537D01*
D02*
G37*
G36*
X219075Y138237D02*
X218110Y138110D01*
X217211Y137737D01*
X216440Y137145D01*
X215847Y136373D01*
X215475Y135474D01*
X215348Y134510D01*
Y133010D01*
X215475Y132045D01*
X215847Y131147D01*
X216440Y130375D01*
X217211Y129782D01*
X218110Y129410D01*
X219075Y129283D01*
X220039Y129410D01*
X220938Y129782D01*
X221710Y130375D01*
X222302Y131147D01*
X222675Y132045D01*
X222802Y133010D01*
Y134510D01*
X222675Y135474D01*
X222302Y136373D01*
X221710Y137145D01*
X220938Y137737D01*
X220039Y138110D01*
X219075Y138237D01*
D02*
G37*
G36*
X209075D02*
X208110Y138110D01*
X207211Y137737D01*
X206440Y137145D01*
X205847Y136373D01*
X205475Y135474D01*
X205348Y134510D01*
Y133010D01*
X205475Y132045D01*
X205847Y131147D01*
X206440Y130375D01*
X207211Y129782D01*
X208110Y129410D01*
X209075Y129283D01*
X210039Y129410D01*
X210938Y129782D01*
X211710Y130375D01*
X212302Y131147D01*
X212675Y132045D01*
X212802Y133010D01*
Y134510D01*
X212675Y135474D01*
X212302Y136373D01*
X211710Y137145D01*
X210938Y137737D01*
X210039Y138110D01*
X209075Y138237D01*
D02*
G37*
G36*
X199075D02*
X198110Y138110D01*
X197211Y137737D01*
X196440Y137145D01*
X195847Y136373D01*
X195475Y135474D01*
X195348Y134510D01*
Y133010D01*
X195475Y132045D01*
X195847Y131147D01*
X196440Y130375D01*
X197211Y129782D01*
X198110Y129410D01*
X199075Y129283D01*
X200039Y129410D01*
X200938Y129782D01*
X201710Y130375D01*
X202302Y131147D01*
X202675Y132045D01*
X202802Y133010D01*
Y134510D01*
X202675Y135474D01*
X202302Y136373D01*
X201710Y137145D01*
X200938Y137737D01*
X200039Y138110D01*
X199075Y138237D01*
D02*
G37*
G36*
X189075D02*
X188110Y138110D01*
X187211Y137737D01*
X186440Y137145D01*
X185847Y136373D01*
X185475Y135474D01*
X185348Y134510D01*
Y133010D01*
X185475Y132045D01*
X185847Y131147D01*
X186440Y130375D01*
X187211Y129782D01*
X188110Y129410D01*
X189075Y129283D01*
X190039Y129410D01*
X190938Y129782D01*
X191710Y130375D01*
X192302Y131147D01*
X192675Y132045D01*
X192802Y133010D01*
Y134510D01*
X192675Y135474D01*
X192302Y136373D01*
X191710Y137145D01*
X190938Y137737D01*
X190039Y138110D01*
X189075Y138237D01*
D02*
G37*
G36*
X179075D02*
X178110Y138110D01*
X177211Y137737D01*
X176440Y137145D01*
X175847Y136373D01*
X175475Y135474D01*
X175348Y134510D01*
Y133010D01*
X175475Y132045D01*
X175847Y131147D01*
X176440Y130375D01*
X177211Y129782D01*
X178110Y129410D01*
X179075Y129283D01*
X180039Y129410D01*
X180938Y129782D01*
X181710Y130375D01*
X182302Y131147D01*
X182675Y132045D01*
X182802Y133010D01*
Y134510D01*
X182675Y135474D01*
X182302Y136373D01*
X181710Y137145D01*
X180938Y137737D01*
X180039Y138110D01*
X179075Y138237D01*
D02*
G37*
G36*
X169075D02*
X168110Y138110D01*
X167211Y137737D01*
X166440Y137145D01*
X165847Y136373D01*
X165475Y135474D01*
X165348Y134510D01*
Y133010D01*
X165475Y132045D01*
X165847Y131147D01*
X166440Y130375D01*
X167211Y129782D01*
X168110Y129410D01*
X169075Y129283D01*
X170039Y129410D01*
X170938Y129782D01*
X171710Y130375D01*
X172302Y131147D01*
X172675Y132045D01*
X172802Y133010D01*
Y134510D01*
X172675Y135474D01*
X172302Y136373D01*
X171710Y137145D01*
X170938Y137737D01*
X170039Y138110D01*
X169075Y138237D01*
D02*
G37*
G36*
X159075D02*
X158110Y138110D01*
X157211Y137737D01*
X156440Y137145D01*
X155847Y136373D01*
X155475Y135474D01*
X155348Y134510D01*
Y133010D01*
X155475Y132045D01*
X155847Y131147D01*
X156440Y130375D01*
X157211Y129782D01*
X158110Y129410D01*
X159075Y129283D01*
X160039Y129410D01*
X160938Y129782D01*
X161710Y130375D01*
X162302Y131147D01*
X162675Y132045D01*
X162802Y133010D01*
Y134510D01*
X162675Y135474D01*
X162302Y136373D01*
X161710Y137145D01*
X160938Y137737D01*
X160039Y138110D01*
X159075Y138237D01*
D02*
G37*
G36*
X149075D02*
X148110Y138110D01*
X147211Y137737D01*
X146440Y137145D01*
X145847Y136373D01*
X145475Y135474D01*
X145348Y134510D01*
Y133010D01*
X145475Y132045D01*
X145847Y131147D01*
X146440Y130375D01*
X147211Y129782D01*
X148110Y129410D01*
X149075Y129283D01*
X150039Y129410D01*
X150938Y129782D01*
X151710Y130375D01*
X152302Y131147D01*
X152675Y132045D01*
X152802Y133010D01*
Y134510D01*
X152675Y135474D01*
X152302Y136373D01*
X151710Y137145D01*
X150938Y137737D01*
X150039Y138110D01*
X149075Y138237D01*
D02*
G37*
G36*
X139075D02*
X138110Y138110D01*
X137211Y137737D01*
X136440Y137145D01*
X135847Y136373D01*
X135475Y135474D01*
X135348Y134510D01*
Y133010D01*
X135475Y132045D01*
X135847Y131147D01*
X136440Y130375D01*
X137211Y129782D01*
X138110Y129410D01*
X139075Y129283D01*
X140039Y129410D01*
X140938Y129782D01*
X141710Y130375D01*
X142302Y131147D01*
X142675Y132045D01*
X142802Y133010D01*
Y134510D01*
X142675Y135474D01*
X142302Y136373D01*
X141710Y137145D01*
X140938Y137737D01*
X140039Y138110D01*
X139075Y138237D01*
D02*
G37*
G36*
X129075D02*
X128110Y138110D01*
X127211Y137737D01*
X126440Y137145D01*
X125847Y136373D01*
X125475Y135474D01*
X125348Y134510D01*
Y133010D01*
X125475Y132045D01*
X125847Y131147D01*
X126440Y130375D01*
X127211Y129782D01*
X128110Y129410D01*
X129075Y129283D01*
X130039Y129410D01*
X130938Y129782D01*
X131710Y130375D01*
X132302Y131147D01*
X132675Y132045D01*
X132802Y133010D01*
Y134510D01*
X132675Y135474D01*
X132302Y136373D01*
X131710Y137145D01*
X130938Y137737D01*
X130039Y138110D01*
X129075Y138237D01*
D02*
G37*
G36*
X119075D02*
X118110Y138110D01*
X117211Y137737D01*
X116440Y137145D01*
X115847Y136373D01*
X115475Y135474D01*
X115348Y134510D01*
Y133010D01*
X115475Y132045D01*
X115847Y131147D01*
X116440Y130375D01*
X117211Y129782D01*
X118110Y129410D01*
X119075Y129283D01*
X120039Y129410D01*
X120938Y129782D01*
X121710Y130375D01*
X122302Y131147D01*
X122675Y132045D01*
X122802Y133010D01*
Y134510D01*
X122675Y135474D01*
X122302Y136373D01*
X121710Y137145D01*
X120938Y137737D01*
X120039Y138110D01*
X119075Y138237D01*
D02*
G37*
G36*
X109075D02*
X108110Y138110D01*
X107211Y137737D01*
X106440Y137145D01*
X105847Y136373D01*
X105475Y135474D01*
X105348Y134510D01*
Y133010D01*
X105475Y132045D01*
X105847Y131147D01*
X106440Y130375D01*
X107211Y129782D01*
X108110Y129410D01*
X109075Y129283D01*
X110039Y129410D01*
X110938Y129782D01*
X111710Y130375D01*
X112302Y131147D01*
X112675Y132045D01*
X112802Y133010D01*
Y134510D01*
X112675Y135474D01*
X112302Y136373D01*
X111710Y137145D01*
X110938Y137737D01*
X110039Y138110D01*
X109075Y138237D01*
D02*
G37*
G36*
X99075D02*
X98110Y138110D01*
X97211Y137737D01*
X96440Y137145D01*
X95847Y136373D01*
X95475Y135474D01*
X95348Y134510D01*
Y133010D01*
X95475Y132045D01*
X95847Y131147D01*
X96440Y130375D01*
X97211Y129782D01*
X98110Y129410D01*
X99075Y129283D01*
X100039Y129410D01*
X100938Y129782D01*
X101710Y130375D01*
X102302Y131147D01*
X102675Y132045D01*
X102802Y133010D01*
Y134510D01*
X102675Y135474D01*
X102302Y136373D01*
X101710Y137145D01*
X100938Y137737D01*
X100039Y138110D01*
X99075Y138237D01*
D02*
G37*
G36*
X89075D02*
X88110Y138110D01*
X87211Y137737D01*
X86440Y137145D01*
X85847Y136373D01*
X85475Y135474D01*
X85348Y134510D01*
Y133010D01*
X85475Y132045D01*
X85847Y131147D01*
X86440Y130375D01*
X87211Y129782D01*
X88110Y129410D01*
X89075Y129283D01*
X90039Y129410D01*
X90938Y129782D01*
X91710Y130375D01*
X92302Y131147D01*
X92675Y132045D01*
X92802Y133010D01*
Y134510D01*
X92675Y135474D01*
X92302Y136373D01*
X91710Y137145D01*
X90938Y137737D01*
X90039Y138110D01*
X89075Y138237D01*
D02*
G37*
G36*
X79075D02*
X78110Y138110D01*
X77211Y137737D01*
X76440Y137145D01*
X75847Y136373D01*
X75475Y135474D01*
X75348Y134510D01*
Y133010D01*
X75475Y132045D01*
X75847Y131147D01*
X76440Y130375D01*
X77211Y129782D01*
X78110Y129410D01*
X79075Y129283D01*
X80039Y129410D01*
X80938Y129782D01*
X81710Y130375D01*
X82302Y131147D01*
X82675Y132045D01*
X82802Y133010D01*
Y134510D01*
X82675Y135474D01*
X82302Y136373D01*
X81710Y137145D01*
X80938Y137737D01*
X80039Y138110D01*
X79075Y138237D01*
D02*
G37*
G36*
X69075D02*
X68110Y138110D01*
X67211Y137737D01*
X66440Y137145D01*
X65847Y136373D01*
X65475Y135474D01*
X65348Y134510D01*
Y133010D01*
X65475Y132045D01*
X65847Y131147D01*
X66440Y130375D01*
X67211Y129782D01*
X68110Y129410D01*
X69075Y129283D01*
X70039Y129410D01*
X70938Y129782D01*
X71710Y130375D01*
X72302Y131147D01*
X72675Y132045D01*
X72802Y133010D01*
Y134510D01*
X72675Y135474D01*
X72302Y136373D01*
X71710Y137145D01*
X70938Y137737D01*
X70039Y138110D01*
X69075Y138237D01*
D02*
G37*
G36*
X59075D02*
X58110Y138110D01*
X57211Y137737D01*
X56440Y137145D01*
X55847Y136373D01*
X55475Y135474D01*
X55348Y134510D01*
Y133010D01*
X55475Y132045D01*
X55847Y131147D01*
X56440Y130375D01*
X57211Y129782D01*
X58110Y129410D01*
X59075Y129283D01*
X60039Y129410D01*
X60938Y129782D01*
X61710Y130375D01*
X62302Y131147D01*
X62675Y132045D01*
X62802Y133010D01*
Y134510D01*
X62675Y135474D01*
X62302Y136373D01*
X61710Y137145D01*
X60938Y137737D01*
X60039Y138110D01*
X59075Y138237D01*
D02*
G37*
G36*
X49075D02*
X48110Y138110D01*
X47211Y137737D01*
X46440Y137145D01*
X45847Y136373D01*
X45475Y135474D01*
X45348Y134510D01*
Y133010D01*
X45475Y132045D01*
X45847Y131147D01*
X46440Y130375D01*
X47211Y129782D01*
X48110Y129410D01*
X49075Y129283D01*
X50039Y129410D01*
X50938Y129782D01*
X51710Y130375D01*
X52302Y131147D01*
X52675Y132045D01*
X52802Y133010D01*
Y134510D01*
X52675Y135474D01*
X52302Y136373D01*
X51710Y137145D01*
X50938Y137737D01*
X50039Y138110D01*
X49075Y138237D01*
D02*
G37*
G36*
X39075D02*
X38110Y138110D01*
X37211Y137737D01*
X36440Y137145D01*
X35847Y136373D01*
X35475Y135474D01*
X35348Y134510D01*
Y133010D01*
X35475Y132045D01*
X35847Y131147D01*
X36440Y130375D01*
X37211Y129782D01*
X38110Y129410D01*
X39075Y129283D01*
X40039Y129410D01*
X40938Y129782D01*
X41710Y130375D01*
X42302Y131147D01*
X42675Y132045D01*
X42802Y133010D01*
Y134510D01*
X42675Y135474D01*
X42302Y136373D01*
X41710Y137145D01*
X40938Y137737D01*
X40039Y138110D01*
X39075Y138237D01*
D02*
G37*
%LPD*%
G36*
X147973Y317559D02*
X148330D01*
Y317126D01*
X148428Y316631D01*
Y316404D01*
X148540Y315840D01*
X148846Y315383D01*
X148820Y315256D01*
X148970Y314503D01*
X149397Y313865D01*
X150035Y313439D01*
X150787Y313289D01*
X150849Y312806D01*
X150728Y312782D01*
X150251Y312462D01*
X144037Y306249D01*
X143718Y305771D01*
X143605Y305207D01*
X143114Y305227D01*
Y311968D01*
X146012D01*
Y317284D01*
Y319295D01*
X147973D01*
Y317559D01*
D02*
G37*
G36*
X172197Y285826D02*
X172643Y285737D01*
X173191D01*
X173637Y285826D01*
X173902Y286003D01*
X174166Y285826D01*
X174612Y285737D01*
X174814D01*
X175190Y285631D01*
X175296Y285255D01*
Y285053D01*
X175385Y284607D01*
X175562Y284343D01*
X175385Y284078D01*
X175296Y283632D01*
Y283084D01*
X175385Y282638D01*
X175562Y282374D01*
X175385Y282110D01*
X175296Y281664D01*
Y281116D01*
X175385Y280670D01*
X175562Y280405D01*
X175385Y280141D01*
X175296Y279695D01*
Y279147D01*
X175385Y278701D01*
X175562Y278437D01*
X175385Y278173D01*
X175296Y277727D01*
Y277179D01*
X175385Y276733D01*
X175562Y276468D01*
X175385Y276204D01*
X175296Y275758D01*
Y275210D01*
X175385Y274764D01*
X175562Y274500D01*
X175385Y274236D01*
X175296Y273790D01*
Y273242D01*
X175385Y272796D01*
X175562Y272532D01*
X175385Y272267D01*
X175296Y271821D01*
Y271273D01*
X175385Y270827D01*
X175562Y270563D01*
X175385Y270299D01*
X175296Y269853D01*
Y269305D01*
X175385Y268859D01*
X175562Y268595D01*
X175385Y268330D01*
X175296Y267884D01*
Y267336D01*
X175385Y266890D01*
X175562Y266626D01*
X175385Y266362D01*
X175296Y265916D01*
Y265368D01*
X175385Y264922D01*
X175562Y264657D01*
X175385Y264393D01*
X175296Y263947D01*
Y263745D01*
X175190Y263369D01*
X174814Y263263D01*
X174612D01*
X174166Y263174D01*
X173902Y262997D01*
X173637Y263174D01*
X173191Y263263D01*
X172643D01*
X172197Y263174D01*
X171933Y262997D01*
X171669Y263174D01*
X171223Y263263D01*
X170675D01*
X170229Y263174D01*
X169965Y262997D01*
X169700Y263174D01*
X169254Y263263D01*
X168706D01*
X168260Y263174D01*
X167996Y262997D01*
X167732Y263174D01*
X167286Y263263D01*
X166738D01*
X166292Y263174D01*
X166028Y262997D01*
X165763Y263174D01*
X165317Y263263D01*
X164769D01*
X164323Y263174D01*
X164059Y262997D01*
X163795Y263174D01*
X163349Y263263D01*
X162801D01*
X162355Y263174D01*
X162091Y262997D01*
X161826Y263174D01*
X161380Y263263D01*
X160832D01*
X160386Y263174D01*
X160122Y262997D01*
X159858Y263174D01*
X159412Y263263D01*
X158864D01*
X158418Y263174D01*
X158153Y262997D01*
X157889Y263174D01*
X157443Y263263D01*
X156895D01*
X156449Y263174D01*
X156185Y262997D01*
X155921Y263174D01*
X155475Y263263D01*
X154927D01*
X154481Y263174D01*
X154217Y262997D01*
X153952Y263174D01*
X153506Y263263D01*
X153304D01*
X152928Y263369D01*
X152822Y263745D01*
Y263947D01*
X152750Y264310D01*
X152947Y264519D01*
X153155Y264641D01*
X153267Y264565D01*
X153707Y264478D01*
X160149D01*
X160228Y264462D01*
X160307Y264478D01*
X166330D01*
X166409Y264462D01*
X166489Y264478D01*
X172931D01*
X173370Y264565D01*
X173743Y264814D01*
X173992Y265187D01*
X174079Y265626D01*
Y271498D01*
X174097Y271587D01*
X174079Y271676D01*
Y277324D01*
X174097Y277413D01*
X174079Y277502D01*
Y283374D01*
X173992Y283813D01*
X173743Y284186D01*
X173370Y284435D01*
X172931Y284522D01*
X166489D01*
X166409Y284538D01*
X166330Y284522D01*
X160307D01*
X160228Y284538D01*
X160149Y284522D01*
X153707D01*
X153267Y284435D01*
X153155Y284359D01*
X152947Y284481D01*
X152750Y284690D01*
X152822Y285053D01*
Y285255D01*
X152928Y285631D01*
X153304Y285737D01*
X153506D01*
X153952Y285826D01*
X154217Y286003D01*
X154481Y285826D01*
X154927Y285737D01*
X155475D01*
X155921Y285826D01*
X156185Y286003D01*
X156449Y285826D01*
X156895Y285737D01*
X157443D01*
X157889Y285826D01*
X158153Y286003D01*
X158418Y285826D01*
X158864Y285737D01*
X159412D01*
X159858Y285826D01*
X160122Y286003D01*
X160386Y285826D01*
X160832Y285737D01*
X161380D01*
X161826Y285826D01*
X162091Y286003D01*
X162355Y285826D01*
X162801Y285737D01*
X163349D01*
X163795Y285826D01*
X164059Y286003D01*
X164323Y285826D01*
X164769Y285737D01*
X165317D01*
X165763Y285826D01*
X166028Y286003D01*
X166292Y285826D01*
X166738Y285737D01*
X167286D01*
X167732Y285826D01*
X167996Y286003D01*
X168260Y285826D01*
X168706Y285737D01*
X169254D01*
X169700Y285826D01*
X169965Y286003D01*
X170229Y285826D01*
X170675Y285737D01*
X171223D01*
X171669Y285826D01*
X171933Y286003D01*
X172197Y285826D01*
D02*
G37*
G36*
X198249Y260984D02*
X191279D01*
Y260418D01*
X188782D01*
X188515Y260918D01*
X188719Y261224D01*
X188868Y261976D01*
X188719Y262729D01*
X188292Y263367D01*
X188185Y263439D01*
Y263939D01*
X188292Y264011D01*
X188719Y264649D01*
X188868Y265402D01*
X188719Y266154D01*
X188318Y266754D01*
X188363Y266948D01*
X188502Y267253D01*
X198249D01*
Y260984D01*
D02*
G37*
G36*
X206693Y241895D02*
X206299Y241732D01*
X199213D01*
Y285039D01*
X206693D01*
Y241895D01*
D02*
G37*
G36*
X177445Y262200D02*
X178138D01*
X184964Y255374D01*
X185084Y254767D01*
X185511Y254129D01*
X186149Y253702D01*
X186902Y253553D01*
X187654Y253702D01*
X188292Y254129D01*
X188719Y254767D01*
X188868Y255520D01*
X188719Y256272D01*
X188292Y256910D01*
X188201Y256972D01*
X188353Y257472D01*
X191279D01*
Y254764D01*
Y249252D01*
X193409D01*
Y248118D01*
X193065Y247603D01*
X192915Y246850D01*
X193065Y246098D01*
X193491Y245460D01*
X194129Y245033D01*
X194882Y244883D01*
X195635Y245033D01*
X196273Y245460D01*
X196699Y246098D01*
X196849Y246850D01*
X196699Y247603D01*
X196355Y248118D01*
Y249252D01*
X198249D01*
Y241732D01*
X198322Y241364D01*
X198531Y241051D01*
X198844Y240842D01*
X198888Y240833D01*
X198839Y240334D01*
X194882D01*
X194513Y240260D01*
X194201Y240051D01*
X193020Y238870D01*
X192967Y238791D01*
X192467Y238943D01*
Y244197D01*
X192317Y244950D01*
X191891Y245588D01*
X184557Y252922D01*
X184462Y253064D01*
X184026Y253356D01*
X183927Y253503D01*
X176359Y261071D01*
Y261114D01*
X176326Y261282D01*
Y261751D01*
X176432Y262127D01*
X176808Y262233D01*
X177277D01*
X177445Y262200D01*
D02*
G37*
G36*
X165161Y249840D02*
X165913Y249691D01*
X166666Y249840D01*
X166824Y249946D01*
X167324Y249679D01*
Y247894D01*
X166575D01*
Y242124D01*
X165650D01*
X164897Y241975D01*
X164259Y241548D01*
X160519Y237808D01*
X160439Y237689D01*
X159939Y237841D01*
Y240425D01*
X163595Y244082D01*
X164022Y244720D01*
X164172Y245472D01*
Y249960D01*
X164672Y250167D01*
X165161Y249840D01*
D02*
G37*
G36*
X211024Y196850D02*
Y193307D01*
X205118Y188189D01*
X193701Y188189D01*
Y223760D01*
X194449D01*
Y229784D01*
X194252D01*
Y231906D01*
X194752Y231955D01*
X194836Y231531D01*
X195263Y230893D01*
X195601Y230554D01*
X196239Y230128D01*
X196992Y229978D01*
X197745Y230128D01*
X198383Y230554D01*
X198809Y231192D01*
X198959Y231945D01*
X198809Y232698D01*
X198383Y233336D01*
X198044Y233674D01*
X197406Y234101D01*
X196653Y234250D01*
X195901Y234101D01*
X195263Y233674D01*
X194836Y233036D01*
X194752Y232612D01*
X194252Y232661D01*
Y235197D01*
X193701D01*
Y238189D01*
X194882Y239370D01*
X211024D01*
Y196850D01*
D02*
G37*
%LPC*%
G36*
X206398Y231101D02*
X205645Y230951D01*
X205007Y230525D01*
X204580Y229887D01*
X204431Y229134D01*
Y229129D01*
X204332Y228634D01*
X204482Y227881D01*
X204908Y227243D01*
X205546Y226817D01*
X206299Y226667D01*
X207052Y226817D01*
X207690Y227243D01*
X207788Y227342D01*
X208215Y227980D01*
X208365Y228732D01*
Y229134D01*
X208215Y229887D01*
X207788Y230525D01*
X207150Y230951D01*
X206398Y231101D01*
D02*
G37*
G36*
X197626Y203058D02*
X196873Y202908D01*
X196235Y202482D01*
X195808Y201844D01*
X195659Y201091D01*
X195808Y200338D01*
X196235Y199700D01*
X198326Y197609D01*
X198964Y197183D01*
X199716Y197033D01*
X200469Y197183D01*
X201107Y197609D01*
X201534Y198247D01*
X201683Y199000D01*
X201534Y199753D01*
X201107Y200391D01*
X199016Y202482D01*
X198378Y202908D01*
X197626Y203058D01*
D02*
G37*
G36*
X391000Y380272D02*
X390436Y380160D01*
X389958Y379840D01*
X389639Y379363D01*
X389527Y378799D01*
Y377500D01*
X389639Y376936D01*
X389958Y376458D01*
X390436Y376139D01*
X391000Y376027D01*
X391564Y376139D01*
X392042Y376458D01*
X392361Y376936D01*
X392473Y377500D01*
Y378799D01*
X392361Y379363D01*
X392042Y379840D01*
X391564Y380160D01*
X391000Y380272D01*
D02*
G37*
G36*
X301181Y150938D02*
X300617Y150826D01*
X300139Y150506D01*
X299820Y150028D01*
X299708Y149465D01*
Y149308D01*
X299545Y149064D01*
X299432Y148500D01*
X299545Y147936D01*
X299864Y147458D01*
X300342Y147139D01*
X300905Y147027D01*
X301469Y147139D01*
X301947Y147458D01*
X302223Y147734D01*
X302542Y148212D01*
X302654Y148776D01*
Y149465D01*
X302542Y150028D01*
X302223Y150506D01*
X301745Y150826D01*
X301181Y150938D01*
D02*
G37*
%LPD*%
D13*
X50199Y255131D02*
Y259336D01*
X209941Y415083D02*
X213386Y411638D01*
Y406693D02*
Y411638D01*
X198130Y415083D02*
X202461Y410752D01*
Y406398D02*
Y410752D01*
X186319Y413723D02*
Y415083D01*
Y413723D02*
X187508Y412535D01*
Y407374D02*
Y412535D01*
Y407374D02*
X188779Y406102D01*
X189075D01*
X174507Y413723D02*
Y415083D01*
Y413723D02*
X176091Y412140D01*
Y407374D02*
Y412140D01*
Y407374D02*
X177362Y406102D01*
X177657D01*
X127953Y282185D02*
X130358Y279780D01*
X141217D01*
X117000Y282185D02*
X127953D01*
X134646Y233760D02*
Y248949D01*
X141217Y255520D01*
X408268Y325886D02*
Y330217D01*
X194882Y246850D02*
Y251575D01*
X195276Y251969D01*
X194882Y252362D02*
X195276Y251969D01*
X214626Y278681D02*
Y280500D01*
Y278681D02*
X217717Y275590D01*
X200323Y269220D02*
X200787Y269685D01*
X222441Y258268D02*
X226083D01*
X226476Y257874D01*
X285827Y195748D02*
Y201181D01*
Y195748D02*
X291024Y190551D01*
X93602Y366240D02*
X112305D01*
X119075Y373010D01*
Y373760D01*
X138189Y327165D02*
X142685D01*
X397441Y333465D02*
X400000D01*
X396843Y334063D02*
X397441Y333465D01*
X396744Y334063D02*
X396843D01*
X395276Y335531D02*
X396744Y334063D01*
X395276Y335531D02*
Y335630D01*
X390158Y325031D02*
Y329134D01*
X389772Y324646D02*
X390158Y325031D01*
X349213Y246850D02*
X349606D01*
X366252Y230205D01*
X404362Y321980D02*
X408268Y325886D01*
X370943Y321980D02*
X404362D01*
X361427Y331496D02*
X370943Y321980D01*
X350787Y331496D02*
X361427D01*
X400283Y230205D02*
X402756Y232677D01*
X366252Y230205D02*
X400283D01*
X392994Y144665D02*
X393256D01*
X392777Y144449D02*
X392994Y144665D01*
X371392Y144449D02*
X392777D01*
X363872Y151969D02*
X371392Y144449D01*
X347244Y151969D02*
X363872D01*
X291535Y394094D02*
X291732Y394291D01*
X287943Y394094D02*
X291535D01*
X286122D02*
X287943D01*
X286024Y394193D02*
X286122Y394094D01*
X285531Y393701D02*
X286024Y394193D01*
X288583Y362598D02*
Y372854D01*
X290039Y374311D01*
X288583Y174311D02*
Y177953D01*
Y174311D02*
X288878Y174016D01*
X186702Y272646D02*
X186902D01*
X377952Y161811D02*
X380806D01*
X380806Y161811D01*
X381102Y161811D02*
Y162303D01*
X380807Y161811D02*
X381201Y162205D01*
X380806Y161811D02*
X380807Y161811D01*
X381102Y162303D02*
X381201Y162205D01*
X291535Y209055D02*
X291732Y209252D01*
X287795Y209055D02*
X291535D01*
X283957Y208661D02*
X284350Y209055D01*
X287795D01*
X286417Y148622D02*
X294878D01*
X295000Y148500D01*
X393307Y157579D02*
X393701Y157185D01*
X393307Y157579D02*
Y162303D01*
X381102Y157874D02*
X386693D01*
X381102D02*
Y161811D01*
X372441Y162303D02*
X372835Y161909D01*
X366142Y162303D02*
X372441D01*
X291142Y302756D02*
X292126Y301772D01*
X287795Y302756D02*
X291142D01*
X283169D02*
X287795D01*
X281102Y295669D02*
X281288Y295484D01*
Y294815D02*
Y295484D01*
Y294815D02*
X290039Y286063D01*
Y282480D02*
Y286063D01*
X390551Y248917D02*
X391240Y249606D01*
X395669D01*
X402756Y232677D02*
Y236910D01*
X383465Y248524D02*
X383858Y248130D01*
X375984Y248524D02*
X383465D01*
X401968Y244980D02*
X402756Y244193D01*
X401968Y244980D02*
Y249311D01*
X395866Y244488D02*
X396457Y243898D01*
X390551Y244488D02*
X395866D01*
X390551D02*
Y248917D01*
X331496Y310335D02*
Y311358D01*
X330709Y312146D02*
X331496Y311358D01*
X330709Y312146D02*
Y314567D01*
X284744Y394488D02*
X285531Y393701D01*
X380315Y324410D02*
Y327862D01*
X381882Y329429D01*
X382283D01*
X327953Y396555D02*
X330315Y394193D01*
X327953Y396555D02*
Y398819D01*
X290039Y370728D02*
Y374311D01*
X381890Y337106D02*
X382283Y336713D01*
X374803Y337106D02*
X381890D01*
X401968Y337500D02*
X408268D01*
X390158Y334646D02*
X394291D01*
X395276Y335630D01*
X390158Y334646D02*
Y338681D01*
X116559Y310000D02*
X116831Y310272D01*
Y318110D01*
X110492Y319134D02*
X111516Y318110D01*
X105000Y319134D02*
X110492D01*
X118142Y372827D02*
X119075Y373760D01*
X220866Y236614D02*
X227165D01*
X220472Y237008D02*
X220866Y236614D01*
X184252Y238386D02*
Y242520D01*
Y238386D02*
X184646Y237992D01*
X193811Y258945D02*
X194882Y257874D01*
X186902Y258945D02*
X193811D01*
X126772Y219291D02*
Y222933D01*
Y228248D02*
Y233366D01*
X174886Y289189D02*
X183039Y297342D01*
X172917Y290646D02*
X179614Y297342D01*
X170949Y292102D02*
X176189Y297342D01*
X171768Y296346D02*
X172764Y297342D01*
X171768Y296336D02*
Y296346D01*
X170345Y294913D02*
X171768Y296336D01*
X172917Y287886D02*
Y290646D01*
X252756Y304724D02*
Y311024D01*
X186443Y275484D02*
X187007Y276048D01*
X177445Y275484D02*
X186443D01*
X184933Y277453D02*
X187007Y279527D01*
X177445Y277453D02*
X184933D01*
X185906Y285634D02*
X186902Y286630D01*
X185895Y285634D02*
X185906D01*
X184473Y284211D02*
X185895Y285634D01*
X184473Y284201D02*
Y284211D01*
X181661Y281390D02*
X184473Y284201D01*
X187007Y275984D02*
Y276048D01*
X177445Y281390D02*
X181661D01*
X161106Y287886D02*
Y295006D01*
X159776Y296336D02*
X161106Y295006D01*
X159776Y296336D02*
Y296346D01*
X158780Y297342D02*
X159776Y296346D01*
X170335Y294913D02*
X170345D01*
X168980Y293559D02*
X170335Y294913D01*
X167012Y295016D02*
X169339Y297342D01*
X165913Y297143D02*
Y297342D01*
X162205Y297143D02*
Y297342D01*
Y297143D02*
X163075Y296272D01*
Y287886D02*
Y296272D01*
X151292Y311420D02*
X153078D01*
X145079Y305207D02*
X151292Y311420D01*
X145079Y297342D02*
Y305207D01*
X153078Y311420D02*
X155433Y313776D01*
X171653Y329098D02*
Y336221D01*
Y329098D02*
X172047Y328705D01*
X178347Y329886D02*
Y333858D01*
X176673Y328213D02*
X178347Y329886D01*
X162000Y328000D02*
X162205Y328205D01*
Y333465D01*
Y331640D02*
Y333465D01*
X162182Y331617D02*
X162205Y331640D01*
X381102Y147594D02*
Y152362D01*
X176673Y328213D02*
X176772Y328114D01*
X55309Y282368D02*
X55610Y282669D01*
X213386Y406693D02*
X213681Y406398D01*
X201575Y407283D02*
X202461Y406398D01*
X189173Y406595D02*
X189764Y407185D01*
X177657Y406102D02*
X177952Y406397D01*
X133274Y222546D02*
X133563Y222835D01*
X133274Y219302D02*
Y222546D01*
X143543Y277453D02*
X150673D01*
X141217Y279780D02*
X143543Y277453D01*
Y271547D02*
X150673D01*
X141217Y269220D02*
X143543Y271547D01*
X141217Y265795D02*
X145000Y269579D01*
X141217Y262370D02*
X146457Y267610D01*
X141217Y258945D02*
X147913Y265642D01*
X141217Y255520D02*
X149370Y263673D01*
X150673D01*
X138413Y269220D02*
X141217D01*
X146457Y267610D02*
X150673D01*
X140047Y258945D02*
X141217D01*
X145000Y269579D02*
X150673D01*
X147913Y265642D02*
X150673D01*
X141217Y286630D02*
X146457Y281390D01*
X150673D01*
X178248Y317028D02*
Y317126D01*
X141641Y313326D02*
X143000Y314685D01*
X141641Y293813D02*
Y313326D01*
Y293706D02*
Y293813D01*
Y293706D02*
X150020Y285327D01*
X55610Y282669D02*
Y288976D01*
X55309Y282368D02*
X55500Y282177D01*
X65500Y254823D02*
Y260823D01*
X40500Y255176D02*
Y260823D01*
X40356Y255032D02*
X40500Y255176D01*
X40356Y254923D02*
Y255032D01*
X40354Y254921D02*
X40356Y254923D01*
X134063Y272646D02*
X141417D01*
X120732Y259315D02*
X134063Y272646D01*
X115500Y259315D02*
X120732D01*
X149803Y317126D02*
Y319193D01*
X149902Y316404D02*
Y317126D01*
Y316404D02*
X150787Y315518D01*
Y315256D02*
Y315518D01*
X176189Y234063D02*
Y251668D01*
X172764Y238118D02*
Y251668D01*
X167012Y253994D02*
X169339Y251668D01*
Y251658D02*
Y251668D01*
X168980Y255451D02*
X172764Y251668D01*
X170949Y256908D02*
X176189Y251668D01*
X179614Y251658D02*
Y251668D01*
X172941Y258341D02*
X179614Y251668D01*
X172941Y258341D02*
Y261090D01*
X172917Y261114D02*
X172941Y261090D01*
X174886Y260461D02*
X182886Y252461D01*
X174886Y260461D02*
Y261114D01*
X170949Y256908D02*
Y261114D01*
X168980Y255451D02*
Y261114D01*
X167012Y253994D02*
Y261114D01*
X183118Y269579D02*
X186902Y265795D01*
X184575Y271547D02*
X186902Y269220D01*
X181661Y267610D02*
X186902Y262370D01*
X177445Y271547D02*
X184575D01*
X180205Y265642D02*
X186902Y258945D01*
X183118Y279421D02*
X186902Y283205D01*
X177445Y279421D02*
X183118D01*
X177445Y269579D02*
X183118D01*
X177445Y267610D02*
X181661D01*
X178748Y263673D02*
X186902Y255520D01*
X177445Y265642D02*
X180205D01*
X149803Y317126D02*
X149902D01*
X185906Y289059D02*
X186902Y290055D01*
X185895Y289059D02*
X185906D01*
X184473Y287636D02*
X185895Y289059D01*
X184473Y287626D02*
Y287636D01*
X180205Y283358D02*
X184473Y287626D01*
Y291061D02*
X186891Y293480D01*
X186902D01*
X184473Y291051D02*
Y291061D01*
X178748Y285327D02*
X184473Y291051D01*
X134646Y228937D02*
Y233760D01*
X133858Y228150D02*
X134646Y228937D01*
X116437Y245177D02*
X116500Y245114D01*
Y241500D02*
Y245114D01*
X140157Y219291D02*
Y222835D01*
X131102Y315551D02*
Y319291D01*
X176157Y327500D02*
X176772Y328114D01*
X171799Y321457D02*
X178347D01*
X170843Y327500D02*
X172047Y328705D01*
X171000Y320657D02*
X171799Y321457D01*
X170843Y320815D02*
X171000Y320657D01*
X170843Y320815D02*
Y327500D01*
X152264Y334646D02*
X152362D01*
X148000Y331366D02*
X148327Y331693D01*
X138189Y327165D02*
Y327362D01*
X117000Y303024D02*
X117126Y303150D01*
X164075Y315945D02*
X164173Y315846D01*
X164075Y315945D02*
Y319291D01*
X157000Y320657D02*
X157398Y321055D01*
X163886D01*
X164075Y320866D01*
X60630Y254921D02*
X60827D01*
X60500Y254791D02*
X60630Y254921D01*
X60500Y254791D02*
Y260823D01*
X116394Y282791D02*
X117000Y282185D01*
X109000Y282791D02*
X116394D01*
X124902Y310039D02*
X125098Y310236D01*
X131102D01*
X126772Y233465D02*
Y245669D01*
X169575Y315342D02*
X171000D01*
X159646Y305413D02*
X169575Y315342D01*
X154331Y305413D02*
X159646D01*
X137957Y283205D02*
X141217D01*
X126969Y294193D02*
X137957Y283205D01*
X126969Y294193D02*
Y299591D01*
X169685Y220472D02*
X169882Y220669D01*
Y224213D01*
X177748Y227748D02*
Y231685D01*
X171744Y229618D02*
X176189Y234063D01*
X171055Y229618D02*
X171744D01*
X170177Y228740D02*
X171055Y229618D01*
X169882Y228740D02*
X170177D01*
X179528Y233465D02*
Y251571D01*
X179614Y251658D01*
X177748Y231685D02*
X179528Y233465D01*
X152362Y334646D02*
X156224Y330784D01*
Y328462D02*
Y330784D01*
Y328462D02*
X156685Y328000D01*
Y320972D02*
X157000Y320657D01*
X156685Y320972D02*
Y328000D01*
X142685Y320315D02*
Y327165D01*
X140157Y228150D02*
Y246736D01*
X60500Y282177D02*
Y288059D01*
X61024Y288583D01*
X126772Y245669D02*
X140047Y258945D01*
X140157Y246736D02*
X145079Y251658D01*
X69882Y254921D02*
X70500Y255539D01*
Y260823D01*
X55118Y254921D02*
X55500Y255303D01*
Y260823D01*
X45276Y254921D02*
X45500Y255146D01*
Y256321D01*
Y260823D01*
X70500Y282177D02*
Y288752D01*
X50197Y288386D02*
X50500Y288083D01*
Y282177D02*
Y288083D01*
X45276Y288386D02*
X45500Y288161D01*
Y286679D02*
Y288161D01*
Y282177D02*
Y286679D01*
X40354Y288386D02*
X40500Y288240D01*
Y282177D02*
Y288240D01*
X116500Y232909D02*
Y236185D01*
X116437Y232972D02*
X116500Y232909D01*
X136516Y267323D02*
X138413Y269220D01*
X136516Y261516D02*
Y267323D01*
X118067Y243067D02*
X136516Y261516D01*
X118067Y242772D02*
Y243067D01*
X116795Y241500D02*
X118067Y242772D01*
X116500Y241500D02*
X116795D01*
X171358Y236713D02*
X172764Y238118D01*
X168898Y236713D02*
X171358D01*
X162500Y230315D02*
X168898Y236713D01*
X162500Y225886D02*
Y230315D01*
X204842Y271705D02*
Y272000D01*
X108858Y292913D02*
X109000Y292772D01*
Y288500D02*
Y292772D01*
X91043Y283465D02*
X91508Y283000D01*
X94500D01*
X148504Y299587D02*
X154331Y305413D01*
X178248Y317126D02*
X178347Y317224D01*
Y319882D01*
X143768Y320768D02*
X149803D01*
X143000Y320000D02*
X143768Y320768D01*
X142685Y320315D02*
X143000Y320000D01*
X148000Y328000D02*
Y331366D01*
X148504Y297342D02*
Y299587D01*
X155433Y313776D02*
Y314071D01*
X156705Y315342D01*
X157000D01*
X150020Y285327D02*
X150673D01*
X100079Y311024D02*
X100236Y310866D01*
X105000D01*
X105866Y310000D01*
X111441D01*
X118028Y308531D02*
X126969Y299591D01*
X117831Y308531D02*
X118028D01*
X116559Y309803D02*
X117831Y308531D01*
X116559Y309803D02*
Y310000D01*
X115157Y250984D02*
X115500Y251327D01*
Y254000D01*
X98425Y274606D02*
X98532Y274500D01*
X102500D01*
X97441Y258858D02*
X97799Y258500D01*
X101842D01*
X98425Y265748D02*
X98677Y266000D01*
X102500D01*
X98425Y250000D02*
X98814Y249611D01*
X101389D01*
X101500Y249500D01*
X106815D02*
X107158Y249843D01*
Y258500D01*
X114685D02*
X115500Y259315D01*
X107158Y258500D02*
X114685D01*
X116500Y266106D02*
Y270685D01*
X107815Y266000D02*
Y274500D01*
Y274728D01*
X109087Y276000D01*
X116500D01*
X140954Y276354D02*
X141217D01*
X140600Y276000D02*
X140954Y276354D01*
X116500Y276000D02*
X140600D01*
X117000Y298815D02*
Y303024D01*
Y287500D02*
Y293500D01*
X108791Y283000D02*
X109000Y282791D01*
X99815Y283000D02*
X108791D01*
X314425Y376138D02*
X314567Y376279D01*
X286417Y131890D02*
Y136811D01*
X269685Y152559D02*
X271937Y150307D01*
X273906D01*
X275590Y148622D01*
Y135827D02*
Y141929D01*
Y148622D02*
X286417D01*
X301181Y148776D02*
Y149465D01*
X300905Y148500D02*
X301181Y148776D01*
X393256Y144665D02*
X393701Y145110D01*
Y149902D01*
X386752Y146878D02*
X387008Y147134D01*
Y151772D01*
X380858Y147594D02*
X381102D01*
X372835Y149902D02*
X372862Y149874D01*
X372835Y149902D02*
Y154626D01*
X395276Y326161D02*
X395504Y325933D01*
X395276Y326161D02*
Y329724D01*
X396153Y232634D02*
X396457Y232937D01*
Y237992D01*
X390390Y233421D02*
X390551Y233583D01*
Y238976D01*
X383354Y236051D02*
X383858Y236555D01*
Y240846D01*
X391000Y377500D02*
Y378799D01*
X177445Y283358D02*
X180205D01*
X177445Y285327D02*
X178748D01*
X177445Y273516D02*
X185831D01*
X186702Y272646D01*
X177445Y263673D02*
X178748D01*
X163075Y252728D02*
Y261114D01*
X162205Y251857D02*
X163075Y252728D01*
X162205Y251658D02*
Y251857D01*
X161106Y253984D02*
Y261114D01*
X158780Y251658D02*
X161106Y253984D01*
X159138Y255441D02*
Y261114D01*
X155354Y251658D02*
X159138Y255441D01*
X157169Y256898D02*
Y261114D01*
X151929Y251658D02*
X157169Y256898D01*
X155201Y258354D02*
Y261114D01*
X148504Y251658D02*
X155201Y258354D01*
X153232Y259811D02*
Y261114D01*
X145079Y251658D02*
X153232Y259811D01*
X165043Y252728D02*
Y261114D01*
Y252728D02*
X165913Y251857D01*
Y251658D02*
Y251857D01*
X142287Y273516D02*
X150673D01*
X141417Y272646D02*
X142287Y273516D01*
Y275484D02*
X150673D01*
X141417Y276354D02*
X142287Y275484D01*
X141217Y276354D02*
X141417D01*
X145000Y279421D02*
X150673D01*
X141217Y283205D02*
X145000Y279421D01*
X147913Y283358D02*
X150673D01*
X141217Y290055D02*
X147913Y283358D01*
X165043Y287886D02*
Y296272D01*
X165913Y297143D01*
X167012Y287886D02*
Y295016D01*
X168980Y287886D02*
Y293559D01*
X170949Y287886D02*
Y292102D01*
X174886Y287886D02*
Y289189D01*
X145079Y297342D02*
X153232Y289189D01*
Y287886D02*
Y289189D01*
X148504Y297342D02*
X155201Y290646D01*
Y287886D02*
Y290646D01*
X151929Y297342D02*
X157169Y292102D01*
Y287886D02*
Y292102D01*
X155354Y297342D02*
X159138Y293559D01*
Y287886D02*
Y293559D01*
X28000Y456642D02*
X28051Y456693D01*
D14*
X250394Y194882D02*
Y202756D01*
Y194882D02*
X252756Y192520D01*
X186902Y269220D02*
X200323D01*
X316535Y175984D02*
X316831Y176279D01*
X321260D01*
X321358Y176378D01*
X323071Y174665D01*
Y173709D02*
Y174665D01*
Y173709D02*
X323110Y173669D01*
X314839Y183307D02*
X316142D01*
X309681Y178150D02*
X314839Y183307D01*
X307946Y178150D02*
X309681D01*
X307257Y177461D02*
X307946Y178150D01*
X303150Y175591D02*
X304331Y176772D01*
X306568D01*
X307257Y177461D01*
X245276Y176772D02*
X245374D01*
X252756Y169390D01*
Y166142D02*
Y169390D01*
X313779Y222047D02*
X321063D01*
X321752Y221358D01*
Y220472D02*
Y221358D01*
X323524Y171280D02*
X324827D01*
X323110Y171693D02*
X323524Y171280D01*
X323110Y171693D02*
Y173669D01*
X304331Y264961D02*
Y268307D01*
X305020Y268996D01*
X305118D01*
X309941D02*
X311094Y270149D01*
Y271027D01*
X314169Y274102D01*
X315472D01*
X305118Y268996D02*
X309941D01*
X324665Y260669D02*
X325079Y260256D01*
X323118Y260669D02*
X324665D01*
X320315Y263473D02*
X323118Y260669D01*
X320315Y263473D02*
Y264232D01*
X318602Y265945D02*
X320315Y264232D01*
X318602Y265945D02*
Y266142D01*
X313779D02*
X318602D01*
X322071Y259862D02*
X322189Y259980D01*
X318740Y354661D02*
Y355571D01*
Y354661D02*
X322594Y350807D01*
X312598Y357874D02*
X316634D01*
X317028Y357480D01*
X252756Y337008D02*
X253543Y337795D01*
Y347638D01*
X322594Y350807D02*
X323898D01*
X317028Y357283D02*
X318740Y355571D01*
X317028Y357283D02*
Y357480D01*
X255276Y364016D02*
X258661Y360630D01*
X255276Y364016D02*
Y371890D01*
X251181Y375984D02*
X255276Y371890D01*
X301279Y358465D02*
X303937Y361122D01*
X308760D02*
X309913Y362275D01*
Y362653D01*
X312988Y365728D01*
X314291D01*
X303937Y361122D02*
X308760D01*
X235138Y255413D02*
X246358D01*
X249016Y252756D01*
X252756D01*
X190748Y233071D02*
X191240Y232579D01*
X184646Y232874D02*
X184941Y232579D01*
X191240D01*
X191535Y232283D01*
X191585Y226821D02*
X191634Y226772D01*
X191585Y226821D02*
Y232234D01*
X191535Y232283D02*
X191585Y232234D01*
X190500Y235776D02*
X190748Y235528D01*
Y233071D02*
Y235528D01*
X183039Y251658D02*
X190500Y244197D01*
X176772Y220079D02*
Y223327D01*
X214124Y236959D02*
X214173Y237008D01*
X214124Y229183D02*
Y236959D01*
X214075Y229134D02*
X214124Y229183D01*
X147343Y203839D02*
X153740D01*
X147244Y203740D02*
X147343Y203839D01*
X153740Y213259D02*
X155512Y211488D01*
X158296D02*
X162094Y207689D01*
X155512Y211488D02*
X158296D01*
X162094Y201189D02*
Y207689D01*
X161909Y236417D02*
X165650Y240158D01*
X157972Y241240D02*
X162205Y245472D01*
X157972Y227067D02*
Y241240D01*
X156791Y225886D02*
X157972Y227067D01*
X190500Y235776D02*
Y244197D01*
X196653Y232283D02*
X196992Y231945D01*
X206398Y228732D02*
Y229134D01*
X206299Y228634D02*
X206398Y228732D01*
X197626Y201091D02*
X199716Y199000D01*
X162094Y201189D02*
X164284Y199000D01*
X153740Y213259D02*
Y213878D01*
X153867Y220008D02*
X156081Y222223D01*
Y225176D01*
X156791Y225886D01*
X153867Y214004D02*
Y220008D01*
X153740Y213878D02*
X153867Y214004D01*
X162205Y245472D02*
Y251658D01*
X165650Y240158D02*
X169291D01*
Y245276D02*
Y251610D01*
X169339Y251658D01*
X146358Y235630D02*
X149311D01*
X149508Y235433D01*
X150295Y243209D02*
X155354Y248268D01*
Y251658D01*
X150295Y241240D02*
Y243209D01*
X149606Y240551D02*
X150295Y241240D01*
X149508Y240551D02*
X149606D01*
X213732Y272000D02*
X213779Y272047D01*
X210157Y272000D02*
X213732D01*
X290453Y340020D02*
X290551Y339921D01*
X290453Y340020D02*
Y341339D01*
X420866Y125500D02*
Y456626D01*
X28051Y456693D02*
X420933D01*
X28000Y449500D02*
Y456642D01*
X28000Y125500D02*
X420866Y125500D01*
X28000Y449500D02*
X28000Y125500D01*
D16*
X204232Y257874D02*
D03*
X226476D02*
D03*
D17*
X252756Y337008D02*
D03*
Y375984D02*
D03*
Y166142D02*
D03*
Y252756D02*
D03*
Y192520D02*
D03*
Y304724D02*
D03*
D18*
X275590Y148622D02*
D03*
Y141929D02*
D03*
D19*
X286417Y148622D02*
D03*
Y136811D02*
D03*
D20*
X310236Y163779D02*
D03*
X309307Y343307D02*
D03*
X328882Y373228D02*
D03*
X330732Y190807D02*
D03*
X330063Y281602D02*
D03*
X310488Y252756D02*
D03*
D21*
X301476Y156280D02*
D03*
Y161279D02*
D03*
Y166279D02*
D03*
Y171280D02*
D03*
X300547Y335807D02*
D03*
Y340807D02*
D03*
Y345807D02*
D03*
Y350807D02*
D03*
X337642Y365728D02*
D03*
Y370728D02*
D03*
Y375728D02*
D03*
Y380728D02*
D03*
X339492Y183307D02*
D03*
Y188307D02*
D03*
Y193307D02*
D03*
Y198307D02*
D03*
X338823Y274102D02*
D03*
Y279102D02*
D03*
Y284102D02*
D03*
Y289102D02*
D03*
X301728Y260256D02*
D03*
Y255256D02*
D03*
Y250256D02*
D03*
Y245256D02*
D03*
D22*
X324827Y171280D02*
D03*
Y166279D02*
D03*
Y161279D02*
D03*
Y156280D02*
D03*
X323898Y350807D02*
D03*
Y345807D02*
D03*
Y340807D02*
D03*
Y335807D02*
D03*
X314291Y380728D02*
D03*
Y375728D02*
D03*
Y370728D02*
D03*
Y365728D02*
D03*
X316142Y198307D02*
D03*
Y193307D02*
D03*
Y188307D02*
D03*
Y183307D02*
D03*
X315472Y289102D02*
D03*
Y284102D02*
D03*
Y279102D02*
D03*
Y274102D02*
D03*
X325079Y245256D02*
D03*
Y250256D02*
D03*
Y255256D02*
D03*
Y260256D02*
D03*
D23*
X292421Y165748D02*
D03*
X280020D02*
D03*
X290059Y252756D02*
D03*
X277658D02*
D03*
X290453Y341339D02*
D03*
X278051D02*
D03*
D24*
X396457Y237992D02*
D03*
Y243898D02*
D03*
X291732Y209252D02*
D03*
Y203346D02*
D03*
X292126Y301772D02*
D03*
Y295866D02*
D03*
X291732Y394291D02*
D03*
Y388386D02*
D03*
X395276Y329724D02*
D03*
Y335630D02*
D03*
X387008Y151772D02*
D03*
Y157677D02*
D03*
D25*
X323917Y266142D02*
D03*
X318602D02*
D03*
X326673Y177165D02*
D03*
X321358D02*
D03*
X322342Y357480D02*
D03*
X317028D02*
D03*
X176157Y327500D02*
D03*
X170843D02*
D03*
X162000Y328000D02*
D03*
X156685D02*
D03*
X148000D02*
D03*
X142685D02*
D03*
D26*
X109000Y288500D02*
D03*
Y282791D02*
D03*
X390551Y254232D02*
D03*
Y248917D02*
D03*
X213681Y401083D02*
D03*
Y406398D02*
D03*
X202461Y401083D02*
D03*
Y406398D02*
D03*
X189075Y400787D02*
D03*
Y406102D02*
D03*
X177657Y400787D02*
D03*
Y406102D02*
D03*
X116500Y241500D02*
D03*
Y236185D02*
D03*
X117000Y293500D02*
D03*
Y298815D02*
D03*
X390158Y343996D02*
D03*
Y338681D02*
D03*
X381890Y167618D02*
D03*
Y162303D02*
D03*
X171000Y315342D02*
D03*
Y320657D02*
D03*
X157000Y315342D02*
D03*
Y320657D02*
D03*
X143000Y314685D02*
D03*
Y320000D02*
D03*
D27*
X199716Y199000D02*
D03*
X164284D02*
D03*
D28*
X153740Y213878D02*
D03*
D29*
Y203839D02*
D03*
D30*
X162500Y225886D02*
D03*
X156791D02*
D03*
D31*
X390551Y238976D02*
D03*
Y244488D02*
D03*
X390158Y329134D02*
D03*
Y334646D02*
D03*
X381102Y152362D02*
D03*
Y157874D02*
D03*
D32*
X149508Y235433D02*
D03*
Y240551D02*
D03*
X169291Y240158D02*
D03*
Y245276D02*
D03*
D33*
X131102Y310236D02*
D03*
Y315551D02*
D03*
X184646Y232874D02*
D03*
Y237992D02*
D03*
D34*
X99815Y283000D02*
D03*
X94500D02*
D03*
X111516Y318110D02*
D03*
X116831D02*
D03*
X204842Y272000D02*
D03*
X210157D02*
D03*
D35*
X140157Y228150D02*
D03*
Y222835D02*
D03*
X133858Y228150D02*
D03*
Y222835D02*
D03*
X126772Y228248D02*
D03*
Y222933D02*
D03*
X115500Y259315D02*
D03*
Y254000D02*
D03*
X116500Y276000D02*
D03*
Y270685D02*
D03*
X117000Y282185D02*
D03*
Y287500D02*
D03*
X203150Y243602D02*
D03*
Y238287D02*
D03*
X176772Y223327D02*
D03*
Y228642D02*
D03*
D36*
X295374Y174016D02*
D03*
X288878D02*
D03*
X283957Y208661D02*
D03*
X277461D02*
D03*
X328248Y220472D02*
D03*
X321752D02*
D03*
X276673Y302756D02*
D03*
X283169D02*
D03*
X278248Y394488D02*
D03*
X284744D02*
D03*
D37*
X300905Y148500D02*
D03*
X295000D02*
D03*
D38*
X274803Y190551D02*
D03*
X291024D02*
D03*
X273819Y282480D02*
D03*
X290039D02*
D03*
X273819Y374311D02*
D03*
X290039D02*
D03*
D39*
X331496Y303839D02*
D03*
Y310335D02*
D03*
X330315Y394193D02*
D03*
Y387697D02*
D03*
D40*
X105000Y310866D02*
D03*
Y319134D02*
D03*
D41*
X111441Y310000D02*
D03*
X116559D02*
D03*
X196653Y232283D02*
D03*
X191535D02*
D03*
X220472Y237008D02*
D03*
X214173D02*
D03*
D42*
X107815Y274500D02*
D03*
X102500D02*
D03*
Y266000D02*
D03*
X107815D02*
D03*
X101500Y249500D02*
D03*
X106815D02*
D03*
X107158Y258500D02*
D03*
X101842D02*
D03*
D43*
X383858Y248130D02*
D03*
Y240846D02*
D03*
X382283Y336713D02*
D03*
Y329429D02*
D03*
X372835Y161909D02*
D03*
Y154626D02*
D03*
X393701Y149902D02*
D03*
Y157185D02*
D03*
X408268Y330217D02*
D03*
Y337500D02*
D03*
X402756Y236910D02*
D03*
Y244193D02*
D03*
D44*
X375984Y248524D02*
D03*
Y253839D02*
D03*
X374803Y337106D02*
D03*
Y342421D02*
D03*
X303937Y366437D02*
D03*
Y361122D02*
D03*
X305118Y274311D02*
D03*
Y268996D02*
D03*
X307257Y182776D02*
D03*
Y177461D02*
D03*
X366142Y162303D02*
D03*
Y167618D02*
D03*
X393307D02*
D03*
Y162303D02*
D03*
X401968Y254626D02*
D03*
Y249311D02*
D03*
Y342815D02*
D03*
Y337500D02*
D03*
D45*
X213681Y280315D02*
D03*
X204429D02*
D03*
D46*
X194882Y257874D02*
D03*
Y252362D02*
D03*
D47*
X206398Y229134D02*
D03*
X214075D02*
D03*
D48*
X191634Y226772D02*
D03*
X197343D02*
D03*
D49*
X169882Y224213D02*
D03*
Y228740D02*
D03*
D50*
X178347Y321457D02*
D03*
Y319882D02*
D03*
X164075Y320866D02*
D03*
Y319291D02*
D03*
X149803Y320768D02*
D03*
Y319193D02*
D03*
D51*
X40500Y260823D02*
D03*
X45500D02*
D03*
X50500D02*
D03*
X55500D02*
D03*
X60500D02*
D03*
X65500D02*
D03*
X70500D02*
D03*
Y282177D02*
D03*
X65500D02*
D03*
X60500D02*
D03*
X55500D02*
D03*
X50500D02*
D03*
X45500D02*
D03*
X40500D02*
D03*
D52*
X177445Y263673D02*
D03*
Y265642D02*
D03*
Y267610D02*
D03*
Y269579D02*
D03*
Y271547D02*
D03*
Y273516D02*
D03*
Y275484D02*
D03*
Y277453D02*
D03*
Y279421D02*
D03*
Y281390D02*
D03*
Y283358D02*
D03*
Y285327D02*
D03*
X150673D02*
D03*
Y283358D02*
D03*
Y281390D02*
D03*
Y279421D02*
D03*
Y277453D02*
D03*
Y275484D02*
D03*
Y273516D02*
D03*
Y271547D02*
D03*
Y269579D02*
D03*
Y267610D02*
D03*
Y265642D02*
D03*
Y263673D02*
D03*
D53*
X174886Y287886D02*
D03*
X172917D02*
D03*
X170949D02*
D03*
X168980D02*
D03*
X167012D02*
D03*
X165043D02*
D03*
X163075D02*
D03*
X161106D02*
D03*
X159138D02*
D03*
X157169D02*
D03*
X155201D02*
D03*
X153232D02*
D03*
Y261114D02*
D03*
X155201D02*
D03*
X157169D02*
D03*
X159138D02*
D03*
X161106D02*
D03*
X163075D02*
D03*
X165043D02*
D03*
X167012D02*
D03*
X168980D02*
D03*
X170949D02*
D03*
X172917D02*
D03*
X174886D02*
D03*
D101*
X163319Y274500D02*
D03*
D102*
X392520Y213150D02*
D03*
Y193150D02*
D03*
X402520D02*
D03*
X382520D02*
D03*
Y213150D02*
D03*
X402520D02*
D03*
X392520Y287953D02*
D03*
Y267953D02*
D03*
X402520D02*
D03*
X382520D02*
D03*
Y287953D02*
D03*
X402520D02*
D03*
X392520Y375748D02*
D03*
Y355748D02*
D03*
X402520D02*
D03*
X382520D02*
D03*
Y375748D02*
D03*
X402520D02*
D03*
X287795Y445827D02*
D03*
Y425827D02*
D03*
X297795D02*
D03*
X277795D02*
D03*
Y445827D02*
D03*
X297795D02*
D03*
X335827D02*
D03*
Y425827D02*
D03*
X345827D02*
D03*
X325827D02*
D03*
Y445827D02*
D03*
X345827D02*
D03*
D103*
X41732Y438976D02*
D03*
X406693Y143307D02*
D03*
X249804D02*
D03*
X406693Y438976D02*
D03*
D104*
X255710Y426894D02*
D03*
X209941D02*
D03*
X118504D02*
D03*
D105*
X255710Y415083D02*
D03*
X243898Y426894D02*
D03*
Y415083D02*
D03*
X150885D02*
D03*
X209941D02*
D03*
X150885Y426894D02*
D03*
X162696Y415083D02*
D03*
X198130D02*
D03*
X162696Y426894D02*
D03*
X198130D02*
D03*
X174507Y415083D02*
D03*
Y426894D02*
D03*
X186319Y415083D02*
D03*
Y426894D02*
D03*
X106693D02*
D03*
Y415083D02*
D03*
X94882Y426894D02*
D03*
X83071D02*
D03*
X94882Y415083D02*
D03*
X83071D02*
D03*
X71260Y426894D02*
D03*
X118504Y415083D02*
D03*
X71260D02*
D03*
D106*
X249804Y443902D02*
D03*
X159350D02*
D03*
X201476D02*
D03*
X110039D02*
D03*
X79725D02*
D03*
D107*
X39075Y143760D02*
D03*
Y383760D02*
D03*
D108*
X49075D02*
D03*
X59075D02*
D03*
X69075D02*
D03*
X79075D02*
D03*
X89075D02*
D03*
X99075D02*
D03*
X109075D02*
D03*
X119075D02*
D03*
X129075D02*
D03*
X139075D02*
D03*
X149075D02*
D03*
X159075D02*
D03*
X169075D02*
D03*
X179075D02*
D03*
X189075D02*
D03*
X199075D02*
D03*
X209075D02*
D03*
X219075D02*
D03*
X39075Y373760D02*
D03*
X49075D02*
D03*
X59075D02*
D03*
X69075D02*
D03*
X79075D02*
D03*
X89075D02*
D03*
X99075D02*
D03*
X109075D02*
D03*
X119075D02*
D03*
X129075D02*
D03*
X139075D02*
D03*
X149075D02*
D03*
X159075D02*
D03*
X169075D02*
D03*
X179075D02*
D03*
X189075D02*
D03*
X199075D02*
D03*
X209075D02*
D03*
X219075D02*
D03*
X49075Y143760D02*
D03*
X59075D02*
D03*
X69075D02*
D03*
X79075D02*
D03*
X89075D02*
D03*
X99075D02*
D03*
X109075D02*
D03*
X119075D02*
D03*
X129075D02*
D03*
X139075D02*
D03*
X149075D02*
D03*
X159075D02*
D03*
X169075D02*
D03*
X179075D02*
D03*
X189075D02*
D03*
X199075D02*
D03*
X209075D02*
D03*
X219075D02*
D03*
X39075Y133760D02*
D03*
X49075D02*
D03*
X59075D02*
D03*
X69075D02*
D03*
X79075D02*
D03*
X89075D02*
D03*
X99075D02*
D03*
X109075D02*
D03*
X119075D02*
D03*
X129075D02*
D03*
X139075D02*
D03*
X149075D02*
D03*
X159075D02*
D03*
X169075D02*
D03*
X179075D02*
D03*
X189075D02*
D03*
X199075D02*
D03*
X209075D02*
D03*
X219075D02*
D03*
D109*
X194882Y246850D02*
D03*
X217717Y275590D02*
D03*
X222441Y258268D02*
D03*
X285827Y201181D02*
D03*
X176772Y220079D02*
D03*
X310827Y259252D02*
D03*
X275590Y259842D02*
D03*
X391535Y223819D02*
D03*
X386221D02*
D03*
X380906D02*
D03*
X375590D02*
D03*
X407480Y216929D02*
D03*
Y223819D02*
D03*
Y210039D02*
D03*
X402165Y223819D02*
D03*
X396850D02*
D03*
X391535D02*
D03*
Y219488D02*
D03*
X396850D02*
D03*
X402165D02*
D03*
X407480D02*
D03*
X375590D02*
D03*
X380906D02*
D03*
X386221D02*
D03*
X391535D02*
D03*
Y204134D02*
D03*
X396850D02*
D03*
X402165D02*
D03*
X407480D02*
D03*
X375590D02*
D03*
X380906D02*
D03*
X386221D02*
D03*
X391535D02*
D03*
Y200197D02*
D03*
X396850D02*
D03*
X402165D02*
D03*
X407480D02*
D03*
X375590D02*
D03*
X380906D02*
D03*
X386221D02*
D03*
X391535D02*
D03*
X391929Y183661D02*
D03*
X397244D02*
D03*
X402559D02*
D03*
X407874D02*
D03*
X375984D02*
D03*
X381299D02*
D03*
X386614D02*
D03*
X391929D02*
D03*
Y179724D02*
D03*
X397244D02*
D03*
X402559D02*
D03*
X375984D02*
D03*
X381299D02*
D03*
X386614D02*
D03*
X391929D02*
D03*
X370472Y200787D02*
D03*
Y206102D02*
D03*
Y211417D02*
D03*
Y216732D02*
D03*
Y184843D02*
D03*
Y190157D02*
D03*
Y195472D02*
D03*
Y200787D02*
D03*
X366142D02*
D03*
Y206102D02*
D03*
Y211417D02*
D03*
Y216732D02*
D03*
Y184843D02*
D03*
Y190157D02*
D03*
Y195472D02*
D03*
Y200787D02*
D03*
X361811D02*
D03*
Y206102D02*
D03*
Y211417D02*
D03*
Y216732D02*
D03*
Y184843D02*
D03*
Y190157D02*
D03*
Y195472D02*
D03*
Y200787D02*
D03*
X357480D02*
D03*
Y206102D02*
D03*
Y211417D02*
D03*
Y216732D02*
D03*
Y184843D02*
D03*
Y190157D02*
D03*
Y195472D02*
D03*
Y200787D02*
D03*
X392323Y299803D02*
D03*
X387008D02*
D03*
X381693D02*
D03*
X376378D02*
D03*
X408268Y292913D02*
D03*
Y286024D02*
D03*
X402953Y299803D02*
D03*
X397638D02*
D03*
X392323D02*
D03*
Y295472D02*
D03*
X397638D02*
D03*
X402953D02*
D03*
X408268D02*
D03*
X376378D02*
D03*
X381693D02*
D03*
X387008D02*
D03*
X392323D02*
D03*
Y280118D02*
D03*
X397638D02*
D03*
X402953D02*
D03*
X408268D02*
D03*
X376378D02*
D03*
X381693D02*
D03*
X387008D02*
D03*
X392323D02*
D03*
Y276181D02*
D03*
X397638D02*
D03*
X402953D02*
D03*
X408268D02*
D03*
X376378D02*
D03*
X381693D02*
D03*
X387008D02*
D03*
X392323D02*
D03*
X392717Y259646D02*
D03*
X398031D02*
D03*
X403346D02*
D03*
X408661D02*
D03*
X376772D02*
D03*
X382087D02*
D03*
X387402D02*
D03*
X392717D02*
D03*
X398031Y255709D02*
D03*
X382087D02*
D03*
X387402D02*
D03*
X392717D02*
D03*
X371260Y276772D02*
D03*
Y282087D02*
D03*
Y287402D02*
D03*
Y292717D02*
D03*
Y260827D02*
D03*
Y266142D02*
D03*
Y271457D02*
D03*
Y276772D02*
D03*
X366929D02*
D03*
Y282087D02*
D03*
Y287402D02*
D03*
Y292717D02*
D03*
Y260827D02*
D03*
Y266142D02*
D03*
Y271457D02*
D03*
Y276772D02*
D03*
X362598D02*
D03*
Y282087D02*
D03*
Y287402D02*
D03*
Y292717D02*
D03*
Y260827D02*
D03*
Y266142D02*
D03*
Y271457D02*
D03*
Y276772D02*
D03*
X358268D02*
D03*
Y282087D02*
D03*
Y287402D02*
D03*
Y292717D02*
D03*
Y260827D02*
D03*
Y266142D02*
D03*
Y271457D02*
D03*
Y276772D02*
D03*
X359449Y364764D02*
D03*
Y359449D02*
D03*
Y354134D02*
D03*
Y348819D02*
D03*
Y380709D02*
D03*
Y375394D02*
D03*
Y370079D02*
D03*
Y364764D02*
D03*
X363779D02*
D03*
Y359449D02*
D03*
Y354134D02*
D03*
Y348819D02*
D03*
Y380709D02*
D03*
Y375394D02*
D03*
Y370079D02*
D03*
Y364764D02*
D03*
X368110D02*
D03*
Y359449D02*
D03*
Y354134D02*
D03*
Y348819D02*
D03*
Y380709D02*
D03*
Y375394D02*
D03*
Y370079D02*
D03*
Y364764D02*
D03*
X372441D02*
D03*
Y359449D02*
D03*
Y354134D02*
D03*
Y348819D02*
D03*
Y380709D02*
D03*
Y375394D02*
D03*
Y370079D02*
D03*
Y364764D02*
D03*
X393898Y343701D02*
D03*
X383268D02*
D03*
X377953D02*
D03*
X399213D02*
D03*
X393898D02*
D03*
Y347638D02*
D03*
X388583D02*
D03*
X383268D02*
D03*
X377953D02*
D03*
X409842D02*
D03*
X404528D02*
D03*
X399213D02*
D03*
X393898D02*
D03*
X393504Y364173D02*
D03*
X388189D02*
D03*
X382874D02*
D03*
X377559D02*
D03*
X409449D02*
D03*
X404134D02*
D03*
X398819D02*
D03*
X393504D02*
D03*
Y368110D02*
D03*
X388189D02*
D03*
X382874D02*
D03*
X377559D02*
D03*
X409449D02*
D03*
X404134D02*
D03*
X398819D02*
D03*
X393504D02*
D03*
Y383465D02*
D03*
X388189D02*
D03*
X382874D02*
D03*
X377559D02*
D03*
X409449D02*
D03*
X404134D02*
D03*
X398819D02*
D03*
X393504D02*
D03*
Y387795D02*
D03*
X398819D02*
D03*
X404134D02*
D03*
X409449Y374016D02*
D03*
Y387795D02*
D03*
Y380906D02*
D03*
X377559Y387795D02*
D03*
X382874D02*
D03*
X388189D02*
D03*
X393504D02*
D03*
X142126Y338189D02*
D03*
X319291Y336614D02*
D03*
X400000Y333465D02*
D03*
X349213Y246850D02*
D03*
X311417Y150787D02*
D03*
X350787Y331496D02*
D03*
X347244Y151969D02*
D03*
X311221Y163386D02*
D03*
Y156496D02*
D03*
X316535Y163386D02*
D03*
Y170276D02*
D03*
Y156496D02*
D03*
X311221Y170276D02*
D03*
X310827Y252362D02*
D03*
Y245472D02*
D03*
X316142Y252362D02*
D03*
Y259252D02*
D03*
Y245472D02*
D03*
X308661Y350394D02*
D03*
X313976Y336614D02*
D03*
Y350394D02*
D03*
Y343504D02*
D03*
X319291D02*
D03*
X308661Y336614D02*
D03*
Y343504D02*
D03*
X330709Y314567D02*
D03*
X287943Y394094D02*
D03*
X288583Y362598D02*
D03*
X301279Y358465D02*
D03*
X316535Y175984D02*
D03*
X303150Y175591D02*
D03*
X245276Y176772D02*
D03*
X250394Y202756D02*
D03*
X288583Y177953D02*
D03*
X377952Y161811D02*
D03*
X287795Y209055D02*
D03*
X313779Y222047D02*
D03*
X287795Y302756D02*
D03*
X281102Y295669D02*
D03*
X304331Y264961D02*
D03*
X253543Y270079D02*
D03*
X256673Y281516D02*
D03*
X259449Y286221D02*
D03*
X262598Y292520D02*
D03*
X246063Y282677D02*
D03*
X252756Y311024D02*
D03*
X313779Y266142D02*
D03*
X395669Y249606D02*
D03*
X402756Y232677D02*
D03*
X275590Y181102D02*
D03*
X283465Y267717D02*
D03*
X307087Y228346D02*
D03*
Y307087D02*
D03*
Y314961D02*
D03*
X299213Y133858D02*
D03*
Y228346D02*
D03*
X275590Y330709D02*
D03*
X283465Y314961D02*
D03*
X275590Y244094D02*
D03*
X291339Y314961D02*
D03*
X299213Y141732D02*
D03*
X291339Y307087D02*
D03*
X283465Y141732D02*
D03*
X275590Y409449D02*
D03*
X307087Y141732D02*
D03*
X299213Y267717D02*
D03*
X291339Y409449D02*
D03*
X283465D02*
D03*
X307087Y236220D02*
D03*
X299213Y307087D02*
D03*
X291339Y267717D02*
D03*
X283465Y228346D02*
D03*
X291339D02*
D03*
X275590Y157480D02*
D03*
X291339Y133858D02*
D03*
Y141732D02*
D03*
X299213Y314961D02*
D03*
X283465Y259842D02*
D03*
X299213Y409449D02*
D03*
X283465Y244094D02*
D03*
X275590Y307087D02*
D03*
X291339Y330709D02*
D03*
X275590Y267717D02*
D03*
X283465Y330709D02*
D03*
X314961Y236220D02*
D03*
X307087Y133858D02*
D03*
X291339Y244094D02*
D03*
X307087Y409449D02*
D03*
X314961Y228346D02*
D03*
X275590Y314961D02*
D03*
X312598Y357874D02*
D03*
X253543Y347638D02*
D03*
X250787Y324016D02*
D03*
X327953Y398819D02*
D03*
X258268Y396457D02*
D03*
X261811Y400787D02*
D03*
X258661Y360630D02*
D03*
X262992Y362205D02*
D03*
X408317Y325935D02*
D03*
X380315Y324410D02*
D03*
X235138Y255413D02*
D03*
X214567Y210236D02*
D03*
X227165Y236614D02*
D03*
X147244Y203740D02*
D03*
X184252Y242520D02*
D03*
X126772Y219291D02*
D03*
X126673Y233366D02*
D03*
X179614Y297342D02*
D03*
X176189D02*
D03*
X172764D02*
D03*
X186909Y276082D02*
D03*
X187007Y279527D02*
D03*
X177165Y309842D02*
D03*
X183039Y297342D02*
D03*
X169339D02*
D03*
X165913D02*
D03*
X162205D02*
D03*
X224016Y328346D02*
D03*
X151969Y308661D02*
D03*
X171653Y336221D02*
D03*
X178347Y333858D02*
D03*
X162205Y333465D02*
D03*
X185039Y315354D02*
D03*
X213386Y324803D02*
D03*
X231102Y300394D02*
D03*
X242618Y294488D02*
D03*
X82579Y406398D02*
D03*
X36122Y182874D02*
D03*
X35039Y188189D02*
D03*
X201083Y169095D02*
D03*
X144390Y186516D02*
D03*
X72146Y170374D02*
D03*
X49508Y404331D02*
D03*
X166740Y153157D02*
D03*
X173622Y154429D02*
D03*
X133274Y219302D02*
D03*
X141217Y279780D02*
D03*
X135335Y283366D02*
D03*
X178248Y317028D02*
D03*
X173819Y310630D02*
D03*
X141641Y293813D02*
D03*
X55610Y288976D02*
D03*
X65847Y254823D02*
D03*
X50199Y255131D02*
D03*
X40356Y255032D02*
D03*
X132880Y265859D02*
D03*
X190453Y209154D02*
D03*
X218406Y228346D02*
D03*
X221358Y225098D02*
D03*
X150787Y315256D02*
D03*
X186902Y269220D02*
D03*
Y265402D02*
D03*
X186803Y272744D02*
D03*
X186902Y283205D02*
D03*
Y261976D02*
D03*
Y258945D02*
D03*
X161909Y236417D02*
D03*
X144193Y365748D02*
D03*
X188484Y393799D02*
D03*
X77264Y394094D02*
D03*
X49606Y400689D02*
D03*
X69390Y390846D02*
D03*
X74705Y363090D02*
D03*
X224311Y232579D02*
D03*
X197146Y332677D02*
D03*
X242323Y233957D02*
D03*
X238583Y300394D02*
D03*
X235138Y296555D02*
D03*
X145374Y211516D02*
D03*
X162106Y344094D02*
D03*
X145472Y344193D02*
D03*
X218799Y338583D02*
D03*
X130413Y262402D02*
D03*
X134646Y233760D02*
D03*
X203642Y365158D02*
D03*
X135630Y363090D02*
D03*
X123228Y433760D02*
D03*
X179626Y351378D02*
D03*
X38287Y354232D02*
D03*
X208071Y361417D02*
D03*
X130217Y359744D02*
D03*
X128150Y155610D02*
D03*
X123917Y335728D02*
D03*
X116437Y245177D02*
D03*
X79921Y198622D02*
D03*
X77953Y281988D02*
D03*
X111122Y153543D02*
D03*
X90059Y153051D02*
D03*
X167028Y347244D02*
D03*
X72736Y346850D02*
D03*
X93602Y366240D02*
D03*
X62205Y361910D02*
D03*
X67126Y332677D02*
D03*
X60925Y216535D02*
D03*
X55118Y341535D02*
D03*
X218898Y159055D02*
D03*
X209842Y162992D02*
D03*
X53937Y351575D02*
D03*
X83465Y359055D02*
D03*
X51575Y357480D02*
D03*
X189764Y357480D02*
D03*
X45276Y254921D02*
D03*
X55118D02*
D03*
X60500Y254791D02*
D03*
X69882Y254921D02*
D03*
X70500Y288752D02*
D03*
X61024Y288583D02*
D03*
X50197Y288386D02*
D03*
X45276D02*
D03*
X40354D02*
D03*
X91043Y283465D02*
D03*
X164173Y315846D02*
D03*
X116500Y232909D02*
D03*
X140157Y219291D02*
D03*
X146358Y235630D02*
D03*
X169685Y220472D02*
D03*
X213779Y272047D02*
D03*
X108858Y292913D02*
D03*
X117000Y303024D02*
D03*
X116500Y266106D02*
D03*
X115157Y250984D02*
D03*
X98425Y250000D02*
D03*
X97441Y258858D02*
D03*
X98425Y265748D02*
D03*
Y274606D02*
D03*
X100079Y311024D02*
D03*
X131102Y319291D02*
D03*
X152264Y334646D02*
D03*
X148327Y331693D02*
D03*
X138189Y327362D02*
D03*
X124902Y310039D02*
D03*
X145079Y251658D02*
D03*
X141217Y255520D02*
D03*
Y258945D02*
D03*
Y262370D02*
D03*
Y265795D02*
D03*
Y269220D02*
D03*
X141417Y272646D02*
D03*
X141316Y276354D02*
D03*
X141217Y283205D02*
D03*
Y286630D02*
D03*
Y290055D02*
D03*
X145079Y297342D02*
D03*
X148504D02*
D03*
X151929D02*
D03*
X155354D02*
D03*
X158780D02*
D03*
X186902Y293480D02*
D03*
Y290055D02*
D03*
Y286630D02*
D03*
Y255520D02*
D03*
X183071Y251673D02*
D03*
X179614Y251658D02*
D03*
X176189D02*
D03*
X172764D02*
D03*
X169339D02*
D03*
X165913D02*
D03*
X162205Y251757D02*
D03*
X158760Y251575D02*
D03*
X155354Y251658D02*
D03*
X151929D02*
D03*
X148504D02*
D03*
X316535Y150787D02*
D03*
X286417Y131890D02*
D03*
X269685Y152559D02*
D03*
X275590Y135827D02*
D03*
X393256Y144665D02*
D03*
X386752Y146878D02*
D03*
X380858Y147594D02*
D03*
X372862Y149874D02*
D03*
X395504Y325933D02*
D03*
X389772Y324646D02*
D03*
X396153Y232634D02*
D03*
X390390Y233421D02*
D03*
X383354Y236051D02*
D03*
X160228Y266429D02*
D03*
X166409D02*
D03*
X160228Y271587D02*
D03*
Y277413D02*
D03*
Y282571D02*
D03*
X154508Y271587D02*
D03*
Y277413D02*
D03*
X166409Y271587D02*
D03*
Y277413D02*
D03*
Y282571D02*
D03*
X172130Y277413D02*
D03*
Y271587D02*
D03*
M02*
