M48
;Layer_Color=9474304
;FILE_FORMAT=2:5
INCH,LZ
;TYPE=PLATED
T1F00S00C0.00787
T2F00S00C0.04000
T3F00S00C0.04016
T4F00S00C0.06004
T5F00S00C0.12500
;TYPE=NON_PLATED
T6F00S00C0.11811
%
T01
X0090059Y0153051
X0111122Y0153543
X012815Y015561
X016674Y0153157
X0173622Y0154429
X0269685Y0152559
X027559Y0135827
X0283465Y0141732
X0291339
X0299213
Y0133858
X0291339
X0286417Y013189
X0307087Y0133858
Y0141732
X0311417Y0150787
X0316535
X0347244Y0151969
X0372862Y0149874
X0380858Y0147594
X0386752Y0146878
X0393256Y0144665
X0377952Y0161811
X0375984Y0179724
Y0183661
X0381299
Y0179724
X0386614
Y0183661
X0391929
Y0179724
X0397244
Y0183661
X0402559
Y0179724
X0407874Y0183661
X040748Y0200197
Y0204134
X0402165
Y0200197
X039685
Y0204134
X0391535
Y0200197
X0386221
Y0204134
X0380906
Y0200197
X037559
Y0204134
X0370472Y0206102
X0366142
X0361811
X035748
Y0200787
X0361811
X0366142
X0370472
Y0195472
X0366142
X0361811
X035748
Y0190157
X0361811
X0366142
X0370472
Y0184843
X0366142
X0361811
X035748
Y0211417
X0361811
X0366142
X0370472
Y0216732
X0366142
X0361811
X035748
X037559Y0219488
Y0223819
X0380906
Y0219488
X0386221
Y0223819
X0391535
Y0219488
X039685
Y0223819
X0402165
Y0219488
X040748
Y0216929
Y0223819
X0402756Y0232677
X0396153Y0232634
X039039Y0233421
X0383354Y0236051
X0382087Y0255709
Y0259646
X0376772
X037126Y0260827
X0366929
X0362598
X0358268
Y0266142
X0362598
X0366929
X037126
Y0271457
X0366929
X0362598
X0358268
Y0276772
X0362598
X0366929
X037126
Y0282087
X0366929
X0362598
X0358268
Y0287402
X0362598
X0366929
X037126
Y0292717
X0366929
X0362598
X0358268
X0376378Y0295472
Y0299803
X0381693
Y0295472
X0387008
Y0299803
X0392323
Y0295472
X0397638
Y0299803
X0402953
Y0295472
X0408268
Y0292913
Y0286024
Y0280118
Y0276181
X0402953
Y0280118
X0397638
Y0276181
X0392323
Y0280118
X0387008
Y0276181
X0381693
Y0280118
X0376378
Y0276181
X0387402Y0259646
Y0255709
X0392717
Y0259646
X0398031
Y0255709
X0395669Y0249606
X0403346Y0259646
X0408661
X040748Y0210039
X0349213Y024685
X0316142Y0245472
Y0252362
Y0259252
X0313779Y0266142
X0314961Y023622
Y0228346
X0313779Y0222047
X0316535Y0175984
Y0170276
Y0163386
Y0156496
X0311221
Y0163386
Y0170276
X030315Y0175591
X0288583Y0177953
X027559Y0181102
Y015748
X0245276Y0176772
X0250394Y0202756
X0285827Y0201181
X0287795Y0209055
X0291339Y0228346
X0299213
X0307087
Y023622
X0310827Y0245472
Y0252362
Y0259252
X0304331Y0264961
X0299213Y0267717
X0291339
X0283465
Y0259842
X027559
Y0267717
Y0244094
X0283465
X0291339
X0283465Y0228346
X0242323Y0233957
X0227165Y0236614
X0224311Y0232579
X0218406Y0228346
X0221358Y0225098
X0214567Y0210236
X0190453Y0209154
X0176772Y0220079
X0169685Y0220472
X0161909Y0236417
X0162205Y0251757
X015876Y0251575
X0165913Y0251658
X0169339
X0172764
X0176189
X0179614
X0183071Y0251673
X0186902Y025552
Y0258945
Y0261976
Y0265402
Y026922
X0186803Y0272744
X0186909Y0276082
X0187007Y0279527
X0186902Y0283205
Y028663
Y0290055
Y029348
X0183039Y0297342
X0179614
X0176189
X0172764
X0169339
X0165913
X0162205
X015878
X0160228Y0282571
Y0277413
Y0271587
Y0266429
X0166409
Y0271587
X017213
Y0277413
X0166409
Y0282571
X0173819Y031063
X0177165Y0309842
X0231102Y0300394
X0238583
X0235138Y0296555
X0242618Y0294488
X0246063Y0282677
X0256673Y0281516
X0259449Y0286221
X0262598Y029252
X0281102Y0295669
X0287795Y0302756
X0291339Y0307087
X0299213
X0307087
X027559
X0252756Y0311024
X0253543Y0270079
X0235138Y0255413
X0222441Y0258268
X0217717Y027559
X0213779Y0272047
X0194882Y024685
X0184252Y024252
X0201083Y0169095
X0209842Y0162992
X0218898Y0159055
X014439Y0186516
X0147244Y020374
X0145374Y0211516
X0140157Y0219291
X0133274Y0219302
X0126772Y0219291
X0126673Y0233366
X0134646Y023376
X0146358Y023563
X0145079Y0251658
X0148504
X0151929
X0155354
X0141217Y025552
Y0258945
Y026237
Y0265795
Y026922
X0141417Y0272646
X0141316Y0276354
X0141217Y027978
Y0283205
Y028663
Y0290055
X0141641Y0293813
X0145079Y0297342
X0148504
X0151929
X0155354
X0151969Y0308661
X0124902Y0310039
X0117Y0303024
X0108858Y0292913
X0100079Y0311024
X0091043Y0283465
X0077953Y0281988
X00705Y0288752
X0061024Y0288583
X005561Y0288976
X0050197Y0288386
X0045276
X0040354
X0040356Y0255032
X0045276Y0254921
X0050199Y0255131
X0055118Y0254921
X00605Y0254791
X0065847Y0254823
X0069882Y0254921
X0097441Y0258858
X0098425Y0265748
Y0274606
Y025
X0115157Y0250984
X0116437Y0245177
X01165Y0232909
Y0266106
X013288Y0265859
X0130413Y0262402
X0135335Y0283366
X0154508Y0277413
Y0271587
X0079921Y0198622
X0072146Y0170374
X0036122Y0182874
X0035039Y0188189
X0060925Y0216535
X0067126Y0332677
X0072736Y034685
X0074705Y036309
X0083465Y0359055
X0093602Y036624
X0062205Y036191
X0051575Y035748
X0053937Y0351575
X0055118Y0341535
X0038287Y0354232
X0049606Y0400689
X0049508Y0404331
X006939Y0390846
X0077264Y0394094
X0082579Y0406398
X0123228Y043376
X0130217Y0359744
X013563Y036309
X0144193Y0365748
X0145472Y0344193
X0142126Y0338189
X0148327Y0331693
X0152264Y0334646
X0150787Y0315256
X0131102Y0319291
X0138189Y0327362
X0123917Y0335728
X0162205Y0333465
X0162106Y0344094
X0167028Y0347244
X0171653Y0336221
X0178347Y0333858
X0178248Y0317028
X0185039Y0315354
X0164173Y0315846
X0197146Y0332677
X0213386Y0324803
X0224016Y0328346
X0218799Y0338583
X0208071Y0361417
X0203642Y0365158
X0189764Y035748
X0179626Y0351378
X0188484Y0393799
X0258268Y0396457
X0261811Y0400787
X027559Y0409449
X0283465
X0291339
X0299213
X0307087
X0287943Y0394094
X0288583Y0362598
X0301279Y0358465
X0308661Y0350394
Y0343504
Y0336614
X0307087Y0314961
X0299213
X0291339
X0283465
X027559
Y0330709
X0283465
X0291339
X0250787Y0324016
X0253543Y0347638
X0258661Y036063
X0262992Y0362205
X0312598Y0357874
X0313976Y0350394
Y0343504
X0319291
Y0336614
X0313976
X0330709Y0314567
X0350787Y0331496
X0359449Y0348819
X0363779
X036811
X0372441
Y0354134
X036811
X0363779
X0359449
Y0359449
X0363779
X036811
X0372441
Y0364764
X036811
X0363779
X0359449
Y0370079
X0363779
X036811
X0372441
Y0375394
X036811
X0363779
X0359449
Y0380709
X0363779
X036811
X0372441
X0377559Y0383465
Y0387795
X0382874
Y0383465
X0388189
Y0387795
X0393504
Y0383465
X0398819
Y0387795
X0404134
Y0383465
X0409449
Y0380906
Y0387795
Y0374016
Y036811
Y0364173
X0404134
Y036811
X0398819
Y0364173
X0393504
Y036811
X0388189
Y0364173
X0382874
Y036811
X0377559
Y0364173
X0377953Y0347638
Y0343701
X0383268
Y0347638
X0388583
X0393898
Y0343701
X0399213
Y0347638
X0404528
X0409842
X0408317Y0325935
X0395504Y0325933
X0389772Y0324646
X0380315Y032441
X04Y0333465
X0327953Y0398819
T02
X0039075Y013376
Y014376
X0049075
X0059075
X0069075
X0079075
X0089075
X0099075
X0109075
X0119075
X0129075
X0139075
X0149075
Y013376
X0139075
X0129075
X0119075
X0109075
X0099075
X0089075
X0079075
X0069075
X0059075
X0049075
X0159075
Y014376
X0169075
X0179075
X0189075
X0199075
X0209075
X0219075
Y013376
X0209075
X0199075
X0189075
X0179075
X0169075
X0149075Y037376
Y038376
X0139075
X0129075
X0119075
X0109075
X0099075
X0089075
X0079075
X0069075
X0059075
X0049075
X0039075
Y037376
X0049075
X0059075
X0069075
X0079075
X0089075
X0099075
X0109075
X0119075
X0129075
X0139075
X0159075
Y038376
X0169075
X0179075
X0189075
X0199075
X0209075
X0219075
Y037376
X0209075
X0199075
X0189075
X0179075
X0169075
T03
X007126Y0415083
X0083071
Y0426894
X0094882
X0106693
Y0415083
X0094882
X0118504
Y0426894
X0150885
Y0415083
X007126Y0426894
X0162696
Y0415083
X0174507
Y0426894
X0186319
X019813
X0209941
Y0415083
X019813
X0186319
X0243898
Y0426894
X025571
Y0415083
T04
X038252Y019315
X039252
X040252
Y021315
X039252
X038252
Y0267953
X039252
X040252
Y0287953
X039252
X038252
X0297795Y0425827
X0287795
X0277795
Y0445827
X0287795
X0297795
X0325827
X0335827
X0345827
Y0425827
X0335827
X0325827
X038252Y0375748
X039252
X040252
Y0355748
X039252
X038252
T05
X0249804Y0143307
X0406693
X0041732Y0438976
X0406693
T06
X0079725Y0443902
X0110039
X015935
X0201476
X0249804
M30
