G04*
G04 #@! TF.GenerationSoftware,Altium Limited,Altium Designer,23.11.1 (41)*
G04*
G04 Layer_Color=8388736*
%FSLAX25Y25*%
%MOIN*%
G70*
G04*
G04 #@! TF.SameCoordinates,C18E11E6-2F2A-4DEC-BC48-3546B0B1B692*
G04*
G04*
G04 #@! TF.FilePolarity,Negative*
G04*
G01*
G75*
%ADD17R,0.01200X0.04700*%
%ADD18R,0.04700X0.01200*%
%ADD24R,0.08584X0.06417*%
%ADD26R,0.12992X0.13386*%
%ADD28R,0.12600X0.06300*%
%ADD39R,0.15000X0.16700*%
%ADD44R,0.06299X0.11811*%
%ADD49R,0.02953X0.03347*%
%ADD50R,0.19724X0.13819*%
%ADD51R,0.06102X0.06063*%
%ADD52R,0.03740X0.03740*%
%ADD53R,0.03740X0.03740*%
%ADD54R,0.04921X0.05118*%
%ADD55R,0.01969X0.03150*%
%ADD56R,0.10040X0.07874*%
%ADD57R,0.03347X0.02953*%
%ADD58R,0.05118X0.04921*%
%ADD59R,0.05158X0.06378*%
%ADD60R,0.06378X0.05158*%
%ADD61R,0.08465X0.05512*%
%ADD62R,0.06614X0.11299*%
%ADD63R,0.11299X0.06614*%
%ADD64R,0.02953X0.06496*%
%ADD65R,0.04331X0.10827*%
%ADD66R,0.02953X0.01772*%
%ADD67R,0.10827X0.12402*%
%ADD68R,0.01575X0.03543*%
%ADD69R,0.08465X0.06102*%
%ADD70R,0.14370X0.06102*%
%ADD71R,0.05276X0.06063*%
%ADD72R,0.10433X0.26181*%
%ADD73R,0.09488X0.09095*%
%ADD74C,0.25591*%
%ADD75C,0.05709*%
%ADD76C,0.02041*%
%ADD77C,0.04607*%
%ADD78C,0.06615*%
%ADD79R,0.06423X0.06423*%
%ADD80C,0.05591*%
%ADD81R,0.06423X0.06423*%
%ADD82C,0.06890*%
G04:AMPARAMS|DCode=83|XSize=68.9mil|YSize=68.9mil|CornerRadius=18.7mil|HoleSize=0mil|Usage=FLASHONLY|Rotation=180.000|XOffset=0mil|YOffset=0mil|HoleType=Round|Shape=RoundedRectangle|*
%AMROUNDEDRECTD83*
21,1,0.06890,0.03150,0,0,180.0*
21,1,0.03150,0.06890,0,0,180.0*
1,1,0.03740,-0.01575,0.01575*
1,1,0.03740,0.01575,0.01575*
1,1,0.03740,0.01575,-0.01575*
1,1,0.03740,-0.01575,-0.01575*
%
%ADD83ROUNDEDRECTD83*%
%ADD84C,0.02591*%
G36*
X574029Y402456D02*
X574039Y402456D01*
X574049Y402454D01*
X574060Y402452D01*
X574070Y402450D01*
X574080Y402447D01*
X574089Y402444D01*
X574099Y402440D01*
X574108Y402435D01*
X574117Y402430D01*
X574126Y402425D01*
X574134Y402419D01*
X574143Y402413D01*
X574150Y402406D01*
X574158Y402399D01*
X574165Y402392D01*
X574172Y402384D01*
X574178Y402376D01*
X574184Y402367D01*
X574189Y402358D01*
X574194Y402349D01*
X574198Y402340D01*
X574202Y402330D01*
X574206Y402321D01*
X574209Y402311D01*
X574211Y402301D01*
X574213Y402291D01*
X574214Y402280D01*
X574215Y402270D01*
X574216Y402260D01*
Y399740D01*
X574215Y399730D01*
X574214Y399720D01*
X574213Y399709D01*
X574211Y399699D01*
X574209Y399689D01*
X574206Y399679D01*
X574202Y399670D01*
X574198Y399660D01*
X574194Y399651D01*
X574189Y399642D01*
X574184Y399633D01*
X574178Y399624D01*
X574172Y399616D01*
X574165Y399608D01*
X574158Y399601D01*
X574150Y399594D01*
X574143Y399587D01*
X574134Y399581D01*
X574126Y399575D01*
X574117Y399570D01*
X574108Y399565D01*
X574099Y399560D01*
X574089Y399556D01*
X574080Y399553D01*
X574070Y399550D01*
X574060Y399548D01*
X574049Y399546D01*
X574039Y399544D01*
X574029Y399544D01*
X574019Y399543D01*
X567759D01*
X567748Y399544D01*
X567738Y399544D01*
X567728Y399546D01*
X567718Y399548D01*
X567708Y399550D01*
X567698Y399553D01*
X567688Y399556D01*
X567679Y399560D01*
X567669Y399565D01*
X567660Y399570D01*
X567652Y399575D01*
X567643Y399581D01*
X567635Y399587D01*
X567627Y399594D01*
X567620Y399601D01*
X567613Y399608D01*
X567606Y399616D01*
X567599Y399624D01*
X567594Y399633D01*
X567588Y399642D01*
X567583Y399651D01*
X567579Y399660D01*
X567575Y399670D01*
X567572Y399679D01*
X567569Y399689D01*
X567566Y399699D01*
X567564Y399709D01*
X567563Y399720D01*
X567562Y399730D01*
X567562Y399740D01*
Y402260D01*
X567562Y402270D01*
X567563Y402280D01*
X567564Y402291D01*
X567566Y402301D01*
X567569Y402311D01*
X567572Y402321D01*
X567575Y402330D01*
X567579Y402340D01*
X567583Y402349D01*
X567588Y402358D01*
X567594Y402367D01*
X567599Y402376D01*
X567606Y402384D01*
X567613Y402392D01*
X567620Y402399D01*
X567627Y402406D01*
X567635Y402413D01*
X567643Y402419D01*
X567652Y402425D01*
X567660Y402430D01*
X567669Y402435D01*
X567679Y402440D01*
X567688Y402444D01*
X567698Y402447D01*
X567708Y402450D01*
X567718Y402452D01*
X567728Y402454D01*
X567738Y402456D01*
X567748Y402456D01*
X567759Y402457D01*
X574019D01*
X574029Y402456D01*
D02*
G37*
G36*
X552769D02*
X552779Y402456D01*
X552790Y402454D01*
X552800Y402452D01*
X552810Y402450D01*
X552820Y402447D01*
X552829Y402444D01*
X552839Y402440D01*
X552848Y402435D01*
X552857Y402430D01*
X552866Y402425D01*
X552875Y402419D01*
X552883Y402413D01*
X552890Y402406D01*
X552898Y402399D01*
X552905Y402392D01*
X552912Y402384D01*
X552918Y402376D01*
X552924Y402367D01*
X552929Y402358D01*
X552934Y402349D01*
X552939Y402340D01*
X552943Y402330D01*
X552946Y402321D01*
X552949Y402311D01*
X552951Y402301D01*
X552953Y402291D01*
X552955Y402280D01*
X552955Y402270D01*
X552956Y402260D01*
Y399740D01*
X552955Y399730D01*
X552955Y399720D01*
X552953Y399709D01*
X552951Y399699D01*
X552949Y399689D01*
X552946Y399679D01*
X552943Y399670D01*
X552939Y399660D01*
X552934Y399651D01*
X552929Y399642D01*
X552924Y399633D01*
X552918Y399624D01*
X552912Y399616D01*
X552905Y399608D01*
X552898Y399601D01*
X552890Y399594D01*
X552883Y399587D01*
X552875Y399581D01*
X552866Y399575D01*
X552857Y399570D01*
X552848Y399565D01*
X552839Y399560D01*
X552829Y399556D01*
X552820Y399553D01*
X552810Y399550D01*
X552800Y399548D01*
X552790Y399546D01*
X552779Y399544D01*
X552769Y399544D01*
X552759Y399543D01*
X546499D01*
X546489Y399544D01*
X546478Y399544D01*
X546468Y399546D01*
X546458Y399548D01*
X546448Y399550D01*
X546438Y399553D01*
X546428Y399556D01*
X546419Y399560D01*
X546410Y399565D01*
X546400Y399570D01*
X546392Y399575D01*
X546383Y399581D01*
X546375Y399587D01*
X546367Y399594D01*
X546360Y399601D01*
X546353Y399608D01*
X546346Y399616D01*
X546340Y399624D01*
X546334Y399633D01*
X546328Y399642D01*
X546324Y399651D01*
X546319Y399660D01*
X546315Y399670D01*
X546312Y399679D01*
X546309Y399689D01*
X546306Y399699D01*
X546305Y399709D01*
X546303Y399720D01*
X546302Y399730D01*
X546302Y399740D01*
Y402260D01*
X546302Y402270D01*
X546303Y402280D01*
X546305Y402291D01*
X546306Y402301D01*
X546309Y402311D01*
X546312Y402321D01*
X546315Y402330D01*
X546319Y402340D01*
X546324Y402349D01*
X546328Y402358D01*
X546334Y402367D01*
X546340Y402376D01*
X546346Y402384D01*
X546353Y402392D01*
X546360Y402399D01*
X546367Y402406D01*
X546375Y402413D01*
X546383Y402419D01*
X546392Y402425D01*
X546400Y402430D01*
X546410Y402435D01*
X546419Y402440D01*
X546428Y402444D01*
X546438Y402447D01*
X546448Y402450D01*
X546458Y402452D01*
X546468Y402454D01*
X546478Y402456D01*
X546489Y402456D01*
X546499Y402457D01*
X552759D01*
X552769Y402456D01*
D02*
G37*
G36*
X574029Y397456D02*
X574039Y397456D01*
X574049Y397454D01*
X574060Y397452D01*
X574070Y397450D01*
X574080Y397447D01*
X574089Y397444D01*
X574099Y397440D01*
X574108Y397435D01*
X574117Y397430D01*
X574126Y397425D01*
X574134Y397419D01*
X574143Y397413D01*
X574150Y397406D01*
X574158Y397399D01*
X574165Y397392D01*
X574172Y397384D01*
X574178Y397376D01*
X574184Y397367D01*
X574189Y397358D01*
X574194Y397349D01*
X574198Y397340D01*
X574202Y397330D01*
X574206Y397321D01*
X574209Y397311D01*
X574211Y397301D01*
X574213Y397291D01*
X574214Y397280D01*
X574215Y397270D01*
X574216Y397260D01*
Y394740D01*
X574215Y394730D01*
X574214Y394720D01*
X574213Y394709D01*
X574211Y394699D01*
X574209Y394689D01*
X574206Y394679D01*
X574202Y394670D01*
X574198Y394660D01*
X574194Y394651D01*
X574189Y394642D01*
X574184Y394633D01*
X574178Y394624D01*
X574172Y394616D01*
X574165Y394608D01*
X574158Y394601D01*
X574150Y394594D01*
X574143Y394587D01*
X574134Y394581D01*
X574126Y394575D01*
X574117Y394570D01*
X574108Y394565D01*
X574099Y394560D01*
X574089Y394556D01*
X574080Y394553D01*
X574070Y394550D01*
X574060Y394548D01*
X574049Y394546D01*
X574039Y394544D01*
X574029Y394544D01*
X574019Y394543D01*
X567759D01*
X567748Y394544D01*
X567738Y394544D01*
X567728Y394546D01*
X567718Y394548D01*
X567708Y394550D01*
X567698Y394553D01*
X567688Y394556D01*
X567679Y394560D01*
X567669Y394565D01*
X567660Y394570D01*
X567652Y394575D01*
X567643Y394581D01*
X567635Y394587D01*
X567627Y394594D01*
X567620Y394601D01*
X567613Y394608D01*
X567606Y394616D01*
X567599Y394624D01*
X567594Y394633D01*
X567588Y394642D01*
X567583Y394651D01*
X567579Y394660D01*
X567575Y394670D01*
X567572Y394679D01*
X567569Y394689D01*
X567566Y394699D01*
X567564Y394709D01*
X567563Y394720D01*
X567562Y394730D01*
X567562Y394740D01*
Y397260D01*
X567562Y397270D01*
X567563Y397280D01*
X567564Y397291D01*
X567566Y397301D01*
X567569Y397311D01*
X567572Y397321D01*
X567575Y397330D01*
X567579Y397340D01*
X567583Y397349D01*
X567588Y397358D01*
X567594Y397367D01*
X567599Y397376D01*
X567606Y397384D01*
X567613Y397392D01*
X567620Y397399D01*
X567627Y397406D01*
X567635Y397413D01*
X567643Y397419D01*
X567652Y397425D01*
X567660Y397430D01*
X567669Y397435D01*
X567679Y397440D01*
X567688Y397444D01*
X567698Y397447D01*
X567708Y397450D01*
X567718Y397452D01*
X567728Y397454D01*
X567738Y397456D01*
X567748Y397456D01*
X567759Y397457D01*
X574019D01*
X574029Y397456D01*
D02*
G37*
G36*
X552769D02*
X552779Y397456D01*
X552790Y397454D01*
X552800Y397452D01*
X552810Y397450D01*
X552820Y397447D01*
X552829Y397444D01*
X552839Y397440D01*
X552848Y397435D01*
X552857Y397430D01*
X552866Y397425D01*
X552875Y397419D01*
X552883Y397413D01*
X552890Y397406D01*
X552898Y397399D01*
X552905Y397392D01*
X552912Y397384D01*
X552918Y397376D01*
X552924Y397367D01*
X552929Y397358D01*
X552934Y397349D01*
X552939Y397340D01*
X552943Y397330D01*
X552946Y397321D01*
X552949Y397311D01*
X552951Y397301D01*
X552953Y397291D01*
X552955Y397280D01*
X552955Y397270D01*
X552956Y397260D01*
Y394740D01*
X552955Y394730D01*
X552955Y394720D01*
X552953Y394709D01*
X552951Y394699D01*
X552949Y394689D01*
X552946Y394679D01*
X552943Y394670D01*
X552939Y394660D01*
X552934Y394651D01*
X552929Y394642D01*
X552924Y394633D01*
X552918Y394624D01*
X552912Y394616D01*
X552905Y394608D01*
X552898Y394601D01*
X552890Y394594D01*
X552883Y394587D01*
X552875Y394581D01*
X552866Y394575D01*
X552857Y394570D01*
X552848Y394565D01*
X552839Y394560D01*
X552829Y394556D01*
X552820Y394553D01*
X552810Y394550D01*
X552800Y394548D01*
X552790Y394546D01*
X552779Y394544D01*
X552769Y394544D01*
X552759Y394543D01*
X546499D01*
X546489Y394544D01*
X546478Y394544D01*
X546468Y394546D01*
X546458Y394548D01*
X546448Y394550D01*
X546438Y394553D01*
X546428Y394556D01*
X546419Y394560D01*
X546410Y394565D01*
X546400Y394570D01*
X546392Y394575D01*
X546383Y394581D01*
X546375Y394587D01*
X546367Y394594D01*
X546360Y394601D01*
X546353Y394608D01*
X546346Y394616D01*
X546340Y394624D01*
X546334Y394633D01*
X546328Y394642D01*
X546324Y394651D01*
X546319Y394660D01*
X546315Y394670D01*
X546312Y394679D01*
X546309Y394689D01*
X546306Y394699D01*
X546305Y394709D01*
X546303Y394720D01*
X546302Y394730D01*
X546302Y394740D01*
Y397260D01*
X546302Y397270D01*
X546303Y397280D01*
X546305Y397291D01*
X546306Y397301D01*
X546309Y397311D01*
X546312Y397321D01*
X546315Y397330D01*
X546319Y397340D01*
X546324Y397349D01*
X546328Y397358D01*
X546334Y397367D01*
X546340Y397376D01*
X546346Y397384D01*
X546353Y397392D01*
X546360Y397399D01*
X546367Y397406D01*
X546375Y397413D01*
X546383Y397419D01*
X546392Y397425D01*
X546400Y397430D01*
X546410Y397435D01*
X546419Y397440D01*
X546428Y397444D01*
X546438Y397447D01*
X546448Y397450D01*
X546458Y397452D01*
X546468Y397454D01*
X546478Y397456D01*
X546489Y397456D01*
X546499Y397457D01*
X552759D01*
X552769Y397456D01*
D02*
G37*
G36*
X574029Y392456D02*
X574039Y392456D01*
X574049Y392454D01*
X574060Y392452D01*
X574070Y392450D01*
X574080Y392447D01*
X574089Y392444D01*
X574099Y392440D01*
X574108Y392435D01*
X574117Y392430D01*
X574126Y392425D01*
X574134Y392419D01*
X574143Y392413D01*
X574150Y392406D01*
X574158Y392399D01*
X574165Y392392D01*
X574172Y392384D01*
X574178Y392376D01*
X574184Y392367D01*
X574189Y392358D01*
X574194Y392349D01*
X574198Y392340D01*
X574202Y392330D01*
X574206Y392321D01*
X574209Y392311D01*
X574211Y392301D01*
X574213Y392291D01*
X574214Y392280D01*
X574215Y392270D01*
X574216Y392260D01*
Y389740D01*
X574215Y389730D01*
X574214Y389720D01*
X574213Y389709D01*
X574211Y389699D01*
X574209Y389689D01*
X574206Y389679D01*
X574202Y389670D01*
X574198Y389660D01*
X574194Y389651D01*
X574189Y389642D01*
X574184Y389633D01*
X574178Y389624D01*
X574172Y389616D01*
X574165Y389608D01*
X574158Y389601D01*
X574150Y389594D01*
X574143Y389587D01*
X574134Y389581D01*
X574126Y389575D01*
X574117Y389570D01*
X574108Y389565D01*
X574099Y389560D01*
X574089Y389556D01*
X574080Y389553D01*
X574070Y389550D01*
X574060Y389548D01*
X574049Y389546D01*
X574039Y389544D01*
X574029Y389544D01*
X574019Y389543D01*
X567759D01*
X567748Y389544D01*
X567738Y389544D01*
X567728Y389546D01*
X567718Y389548D01*
X567708Y389550D01*
X567698Y389553D01*
X567688Y389556D01*
X567679Y389560D01*
X567669Y389565D01*
X567660Y389570D01*
X567652Y389575D01*
X567643Y389581D01*
X567635Y389587D01*
X567627Y389594D01*
X567620Y389601D01*
X567613Y389608D01*
X567606Y389616D01*
X567599Y389624D01*
X567594Y389633D01*
X567588Y389642D01*
X567583Y389651D01*
X567579Y389660D01*
X567575Y389670D01*
X567572Y389679D01*
X567569Y389689D01*
X567566Y389699D01*
X567564Y389709D01*
X567563Y389720D01*
X567562Y389730D01*
X567562Y389740D01*
Y392260D01*
X567562Y392270D01*
X567563Y392280D01*
X567564Y392291D01*
X567566Y392301D01*
X567569Y392311D01*
X567572Y392321D01*
X567575Y392330D01*
X567579Y392340D01*
X567583Y392349D01*
X567588Y392358D01*
X567594Y392367D01*
X567599Y392376D01*
X567606Y392384D01*
X567613Y392392D01*
X567620Y392399D01*
X567627Y392406D01*
X567635Y392413D01*
X567643Y392419D01*
X567652Y392425D01*
X567660Y392430D01*
X567669Y392435D01*
X567679Y392440D01*
X567688Y392444D01*
X567698Y392447D01*
X567708Y392450D01*
X567718Y392452D01*
X567728Y392454D01*
X567738Y392456D01*
X567748Y392456D01*
X567759Y392457D01*
X574019D01*
X574029Y392456D01*
D02*
G37*
G36*
X552769D02*
X552779Y392456D01*
X552790Y392454D01*
X552800Y392452D01*
X552810Y392450D01*
X552820Y392447D01*
X552829Y392444D01*
X552839Y392440D01*
X552848Y392435D01*
X552857Y392430D01*
X552866Y392425D01*
X552875Y392419D01*
X552883Y392413D01*
X552890Y392406D01*
X552898Y392399D01*
X552905Y392392D01*
X552912Y392384D01*
X552918Y392376D01*
X552924Y392367D01*
X552929Y392358D01*
X552934Y392349D01*
X552939Y392340D01*
X552943Y392330D01*
X552946Y392321D01*
X552949Y392311D01*
X552951Y392301D01*
X552953Y392291D01*
X552955Y392280D01*
X552955Y392270D01*
X552956Y392260D01*
Y389740D01*
X552955Y389730D01*
X552955Y389720D01*
X552953Y389709D01*
X552951Y389699D01*
X552949Y389689D01*
X552946Y389679D01*
X552943Y389670D01*
X552939Y389660D01*
X552934Y389651D01*
X552929Y389642D01*
X552924Y389633D01*
X552918Y389624D01*
X552912Y389616D01*
X552905Y389608D01*
X552898Y389601D01*
X552890Y389594D01*
X552883Y389587D01*
X552875Y389581D01*
X552866Y389575D01*
X552857Y389570D01*
X552848Y389565D01*
X552839Y389560D01*
X552829Y389556D01*
X552820Y389553D01*
X552810Y389550D01*
X552800Y389548D01*
X552790Y389546D01*
X552779Y389544D01*
X552769Y389544D01*
X552759Y389543D01*
X546499D01*
X546489Y389544D01*
X546478Y389544D01*
X546468Y389546D01*
X546458Y389548D01*
X546448Y389550D01*
X546438Y389553D01*
X546428Y389556D01*
X546419Y389560D01*
X546410Y389565D01*
X546400Y389570D01*
X546392Y389575D01*
X546383Y389581D01*
X546375Y389587D01*
X546367Y389594D01*
X546360Y389601D01*
X546353Y389608D01*
X546346Y389616D01*
X546340Y389624D01*
X546334Y389633D01*
X546328Y389642D01*
X546324Y389651D01*
X546319Y389660D01*
X546315Y389670D01*
X546312Y389679D01*
X546309Y389689D01*
X546306Y389699D01*
X546305Y389709D01*
X546303Y389720D01*
X546302Y389730D01*
X546302Y389740D01*
Y392260D01*
X546302Y392270D01*
X546303Y392280D01*
X546305Y392291D01*
X546306Y392301D01*
X546309Y392311D01*
X546312Y392321D01*
X546315Y392330D01*
X546319Y392340D01*
X546324Y392349D01*
X546328Y392358D01*
X546334Y392367D01*
X546340Y392376D01*
X546346Y392384D01*
X546353Y392392D01*
X546360Y392399D01*
X546367Y392406D01*
X546375Y392413D01*
X546383Y392419D01*
X546392Y392425D01*
X546400Y392430D01*
X546410Y392435D01*
X546419Y392440D01*
X546428Y392444D01*
X546438Y392447D01*
X546448Y392450D01*
X546458Y392452D01*
X546468Y392454D01*
X546478Y392456D01*
X546489Y392456D01*
X546499Y392457D01*
X552759D01*
X552769Y392456D01*
D02*
G37*
G36*
X565593Y386807D02*
X554924D01*
Y400193D01*
X565593D01*
Y386807D01*
D02*
G37*
G36*
X574029Y387456D02*
X574039Y387456D01*
X574049Y387454D01*
X574060Y387452D01*
X574070Y387450D01*
X574080Y387447D01*
X574089Y387444D01*
X574099Y387440D01*
X574108Y387435D01*
X574117Y387430D01*
X574126Y387425D01*
X574134Y387419D01*
X574143Y387413D01*
X574150Y387406D01*
X574158Y387399D01*
X574165Y387392D01*
X574172Y387384D01*
X574178Y387376D01*
X574184Y387367D01*
X574189Y387358D01*
X574194Y387349D01*
X574198Y387340D01*
X574202Y387330D01*
X574206Y387321D01*
X574209Y387311D01*
X574211Y387301D01*
X574213Y387291D01*
X574214Y387280D01*
X574215Y387270D01*
X574216Y387260D01*
Y384740D01*
X574215Y384730D01*
X574214Y384720D01*
X574213Y384709D01*
X574211Y384699D01*
X574209Y384689D01*
X574206Y384679D01*
X574202Y384670D01*
X574198Y384660D01*
X574194Y384651D01*
X574189Y384642D01*
X574184Y384633D01*
X574178Y384624D01*
X574172Y384616D01*
X574165Y384608D01*
X574158Y384601D01*
X574150Y384594D01*
X574143Y384587D01*
X574134Y384581D01*
X574126Y384575D01*
X574117Y384570D01*
X574108Y384565D01*
X574099Y384560D01*
X574089Y384556D01*
X574080Y384553D01*
X574070Y384550D01*
X574060Y384548D01*
X574049Y384546D01*
X574039Y384544D01*
X574029Y384544D01*
X574019Y384543D01*
X567759D01*
X567748Y384544D01*
X567738Y384544D01*
X567728Y384546D01*
X567718Y384548D01*
X567708Y384550D01*
X567698Y384553D01*
X567688Y384556D01*
X567679Y384560D01*
X567669Y384565D01*
X567660Y384570D01*
X567652Y384575D01*
X567643Y384581D01*
X567635Y384587D01*
X567627Y384594D01*
X567620Y384601D01*
X567613Y384608D01*
X567606Y384616D01*
X567599Y384624D01*
X567594Y384633D01*
X567588Y384642D01*
X567583Y384651D01*
X567579Y384660D01*
X567575Y384670D01*
X567572Y384679D01*
X567569Y384689D01*
X567566Y384699D01*
X567564Y384709D01*
X567563Y384720D01*
X567562Y384730D01*
X567562Y384740D01*
Y387260D01*
X567562Y387270D01*
X567563Y387280D01*
X567564Y387291D01*
X567566Y387301D01*
X567569Y387311D01*
X567572Y387321D01*
X567575Y387330D01*
X567579Y387340D01*
X567583Y387349D01*
X567588Y387358D01*
X567594Y387367D01*
X567599Y387376D01*
X567606Y387384D01*
X567613Y387392D01*
X567620Y387399D01*
X567627Y387406D01*
X567635Y387413D01*
X567643Y387419D01*
X567652Y387425D01*
X567660Y387430D01*
X567669Y387435D01*
X567679Y387440D01*
X567688Y387444D01*
X567698Y387447D01*
X567708Y387450D01*
X567718Y387452D01*
X567728Y387454D01*
X567738Y387456D01*
X567748Y387456D01*
X567759Y387457D01*
X574019D01*
X574029Y387456D01*
D02*
G37*
G36*
X552769D02*
X552779Y387456D01*
X552790Y387454D01*
X552800Y387452D01*
X552810Y387450D01*
X552820Y387447D01*
X552829Y387444D01*
X552839Y387440D01*
X552848Y387435D01*
X552857Y387430D01*
X552866Y387425D01*
X552875Y387419D01*
X552883Y387413D01*
X552890Y387406D01*
X552898Y387399D01*
X552905Y387392D01*
X552912Y387384D01*
X552918Y387376D01*
X552924Y387367D01*
X552929Y387358D01*
X552934Y387349D01*
X552939Y387340D01*
X552943Y387330D01*
X552946Y387321D01*
X552949Y387311D01*
X552951Y387301D01*
X552953Y387291D01*
X552955Y387280D01*
X552955Y387270D01*
X552956Y387260D01*
Y384740D01*
X552955Y384730D01*
X552955Y384720D01*
X552953Y384709D01*
X552951Y384699D01*
X552949Y384689D01*
X552946Y384679D01*
X552943Y384670D01*
X552939Y384660D01*
X552934Y384651D01*
X552929Y384642D01*
X552924Y384633D01*
X552918Y384624D01*
X552912Y384616D01*
X552905Y384608D01*
X552898Y384601D01*
X552890Y384594D01*
X552883Y384587D01*
X552875Y384581D01*
X552866Y384575D01*
X552857Y384570D01*
X552848Y384565D01*
X552839Y384560D01*
X552829Y384556D01*
X552820Y384553D01*
X552810Y384550D01*
X552800Y384548D01*
X552790Y384546D01*
X552779Y384544D01*
X552769Y384544D01*
X552759Y384543D01*
X546499D01*
X546489Y384544D01*
X546478Y384544D01*
X546468Y384546D01*
X546458Y384548D01*
X546448Y384550D01*
X546438Y384553D01*
X546428Y384556D01*
X546419Y384560D01*
X546410Y384565D01*
X546400Y384570D01*
X546392Y384575D01*
X546383Y384581D01*
X546375Y384587D01*
X546367Y384594D01*
X546360Y384601D01*
X546353Y384608D01*
X546346Y384616D01*
X546340Y384624D01*
X546334Y384633D01*
X546328Y384642D01*
X546324Y384651D01*
X546319Y384660D01*
X546315Y384670D01*
X546312Y384679D01*
X546309Y384689D01*
X546306Y384699D01*
X546305Y384709D01*
X546303Y384720D01*
X546302Y384730D01*
X546302Y384740D01*
Y387260D01*
X546302Y387270D01*
X546303Y387280D01*
X546305Y387291D01*
X546306Y387301D01*
X546309Y387311D01*
X546312Y387321D01*
X546315Y387330D01*
X546319Y387340D01*
X546324Y387349D01*
X546328Y387358D01*
X546334Y387367D01*
X546340Y387376D01*
X546346Y387384D01*
X546353Y387392D01*
X546360Y387399D01*
X546367Y387406D01*
X546375Y387413D01*
X546383Y387419D01*
X546392Y387425D01*
X546400Y387430D01*
X546410Y387435D01*
X546419Y387440D01*
X546428Y387444D01*
X546438Y387447D01*
X546448Y387450D01*
X546458Y387452D01*
X546468Y387454D01*
X546478Y387456D01*
X546489Y387456D01*
X546499Y387457D01*
X552759D01*
X552769Y387456D01*
D02*
G37*
G36*
X369685Y236555D02*
X368189D01*
Y239469D01*
X369685D01*
Y236555D01*
D02*
G37*
G36*
X367717D02*
X366220D01*
Y239469D01*
X367717D01*
Y236555D01*
D02*
G37*
G36*
X365748D02*
X364252D01*
Y239469D01*
X365748D01*
Y236555D01*
D02*
G37*
G36*
X363779D02*
X362283D01*
Y239469D01*
X363779D01*
Y236555D01*
D02*
G37*
G36*
X361811D02*
X360315D01*
Y239469D01*
X361811D01*
Y236555D01*
D02*
G37*
G36*
X276685D02*
X275189D01*
Y239469D01*
X276685D01*
Y236555D01*
D02*
G37*
G36*
X274716D02*
X273220D01*
Y239469D01*
X274716D01*
Y236555D01*
D02*
G37*
G36*
X272748D02*
X271252D01*
Y239469D01*
X272748D01*
Y236555D01*
D02*
G37*
G36*
X270779D02*
X269284D01*
Y239469D01*
X270779D01*
Y236555D01*
D02*
G37*
G36*
X268811D02*
X267315D01*
Y239469D01*
X268811D01*
Y236555D01*
D02*
G37*
G36*
X243685D02*
X242189D01*
Y239469D01*
X243685D01*
Y236555D01*
D02*
G37*
G36*
X241717D02*
X240220D01*
Y239469D01*
X241717D01*
Y236555D01*
D02*
G37*
G36*
X239748D02*
X238252D01*
Y239469D01*
X239748D01*
Y236555D01*
D02*
G37*
G36*
X237779D02*
X236283D01*
Y239469D01*
X237779D01*
Y236555D01*
D02*
G37*
G36*
X235811D02*
X234315D01*
Y239469D01*
X235811D01*
Y236555D01*
D02*
G37*
G36*
X150685D02*
X149189D01*
Y239469D01*
X150685D01*
Y236555D01*
D02*
G37*
G36*
X148716D02*
X147221D01*
Y239469D01*
X148716D01*
Y236555D01*
D02*
G37*
G36*
X146748D02*
X145252D01*
Y239469D01*
X146748D01*
Y236555D01*
D02*
G37*
G36*
X144780D02*
X143283D01*
Y239469D01*
X144780D01*
Y236555D01*
D02*
G37*
G36*
X142811D02*
X141315D01*
Y239469D01*
X142811D01*
Y236555D01*
D02*
G37*
G36*
X496185Y235555D02*
X494689D01*
Y238469D01*
X496185D01*
Y235555D01*
D02*
G37*
G36*
X494216D02*
X492721D01*
Y238469D01*
X494216D01*
Y235555D01*
D02*
G37*
G36*
X492248D02*
X490752D01*
Y238469D01*
X492248D01*
Y235555D01*
D02*
G37*
G36*
X490279D02*
X488784D01*
Y238469D01*
X490279D01*
Y235555D01*
D02*
G37*
G36*
X488311D02*
X486815D01*
Y238469D01*
X488311D01*
Y235555D01*
D02*
G37*
G36*
X403185D02*
X401689D01*
Y238469D01*
X403185D01*
Y235555D01*
D02*
G37*
G36*
X401217D02*
X399721D01*
Y238469D01*
X401217D01*
Y235555D01*
D02*
G37*
G36*
X399248D02*
X397752D01*
Y238469D01*
X399248D01*
Y235555D01*
D02*
G37*
G36*
X397280D02*
X395783D01*
Y238469D01*
X397280D01*
Y235555D01*
D02*
G37*
G36*
X395311D02*
X393815D01*
Y238469D01*
X395311D01*
Y235555D01*
D02*
G37*
G36*
X370000Y234252D02*
X371969D01*
Y232716D01*
X370000D01*
Y232283D01*
X371969D01*
Y230748D01*
X370000D01*
Y228976D01*
X360000D01*
Y230748D01*
X358032D01*
Y232283D01*
X360000D01*
Y232716D01*
X358032D01*
Y234252D01*
X360000D01*
Y236024D01*
X370000D01*
Y234252D01*
D02*
G37*
G36*
X277000D02*
X278969D01*
Y232716D01*
X277000D01*
Y232283D01*
X278969D01*
Y230748D01*
X277000D01*
Y228976D01*
X267000D01*
Y230748D01*
X265032D01*
Y232283D01*
X267000D01*
Y232716D01*
X265032D01*
Y234252D01*
X267000D01*
Y236024D01*
X277000D01*
Y234252D01*
D02*
G37*
G36*
X244000D02*
X245969D01*
Y232716D01*
X244000D01*
Y232283D01*
X245969D01*
Y230748D01*
X244000D01*
Y228976D01*
X234000D01*
Y230748D01*
X232031D01*
Y232283D01*
X234000D01*
Y232716D01*
X232031D01*
Y234252D01*
X234000D01*
Y236024D01*
X244000D01*
Y234252D01*
D02*
G37*
G36*
X151000D02*
X152969D01*
Y232716D01*
X151000D01*
Y232283D01*
X152969D01*
Y230748D01*
X151000D01*
Y228976D01*
X141000D01*
Y230748D01*
X139032D01*
Y232283D01*
X141000D01*
Y232716D01*
X139032D01*
Y234252D01*
X141000D01*
Y236024D01*
X151000D01*
Y234252D01*
D02*
G37*
G36*
X496500Y233252D02*
X498468D01*
Y231716D01*
X496500D01*
Y231283D01*
X498468D01*
Y229748D01*
X496500D01*
Y227976D01*
X486500D01*
Y229748D01*
X484531D01*
Y231283D01*
X486500D01*
Y231716D01*
X484531D01*
Y233252D01*
X486500D01*
Y235024D01*
X496500D01*
Y233252D01*
D02*
G37*
G36*
X403500D02*
X405469D01*
Y231716D01*
X403500D01*
Y231283D01*
X405469D01*
Y229748D01*
X403500D01*
Y227976D01*
X393500D01*
Y229748D01*
X391531D01*
Y231283D01*
X393500D01*
Y231716D01*
X391531D01*
Y233252D01*
X393500D01*
Y235024D01*
X403500D01*
Y233252D01*
D02*
G37*
G36*
X369685Y225532D02*
X368189D01*
Y228445D01*
X369685D01*
Y225532D01*
D02*
G37*
G36*
X367717D02*
X366220D01*
Y228445D01*
X367717D01*
Y225532D01*
D02*
G37*
G36*
X365748D02*
X364252D01*
Y228445D01*
X365748D01*
Y225532D01*
D02*
G37*
G36*
X363779D02*
X362283D01*
Y228445D01*
X363779D01*
Y225532D01*
D02*
G37*
G36*
X361811D02*
X360315D01*
Y228445D01*
X361811D01*
Y225532D01*
D02*
G37*
G36*
X276685D02*
X275189D01*
Y228445D01*
X276685D01*
Y225532D01*
D02*
G37*
G36*
X274716D02*
X273220D01*
Y228445D01*
X274716D01*
Y225532D01*
D02*
G37*
G36*
X272748D02*
X271252D01*
Y228445D01*
X272748D01*
Y225532D01*
D02*
G37*
G36*
X270779D02*
X269284D01*
Y228445D01*
X270779D01*
Y225532D01*
D02*
G37*
G36*
X268811D02*
X267315D01*
Y228445D01*
X268811D01*
Y225532D01*
D02*
G37*
G36*
X243685D02*
X242189D01*
Y228445D01*
X243685D01*
Y225532D01*
D02*
G37*
G36*
X241717D02*
X240220D01*
Y228445D01*
X241717D01*
Y225532D01*
D02*
G37*
G36*
X239748D02*
X238252D01*
Y228445D01*
X239748D01*
Y225532D01*
D02*
G37*
G36*
X237779D02*
X236283D01*
Y228445D01*
X237779D01*
Y225532D01*
D02*
G37*
G36*
X235811D02*
X234315D01*
Y228445D01*
X235811D01*
Y225532D01*
D02*
G37*
G36*
X150685D02*
X149189D01*
Y228445D01*
X150685D01*
Y225532D01*
D02*
G37*
G36*
X148716D02*
X147221D01*
Y228445D01*
X148716D01*
Y225532D01*
D02*
G37*
G36*
X146748D02*
X145252D01*
Y228445D01*
X146748D01*
Y225532D01*
D02*
G37*
G36*
X144780D02*
X143283D01*
Y228445D01*
X144780D01*
Y225532D01*
D02*
G37*
G36*
X142811D02*
X141315D01*
Y228445D01*
X142811D01*
Y225532D01*
D02*
G37*
G36*
X496185Y224532D02*
X494689D01*
Y227445D01*
X496185D01*
Y224532D01*
D02*
G37*
G36*
X494216D02*
X492721D01*
Y227445D01*
X494216D01*
Y224532D01*
D02*
G37*
G36*
X492248D02*
X490752D01*
Y227445D01*
X492248D01*
Y224532D01*
D02*
G37*
G36*
X490279D02*
X488784D01*
Y227445D01*
X490279D01*
Y224532D01*
D02*
G37*
G36*
X488311D02*
X486815D01*
Y227445D01*
X488311D01*
Y224532D01*
D02*
G37*
G36*
X403185D02*
X401689D01*
Y227445D01*
X403185D01*
Y224532D01*
D02*
G37*
G36*
X401217D02*
X399721D01*
Y227445D01*
X401217D01*
Y224532D01*
D02*
G37*
G36*
X399248D02*
X397752D01*
Y227445D01*
X399248D01*
Y224532D01*
D02*
G37*
G36*
X397280D02*
X395783D01*
Y227445D01*
X397280D01*
Y224532D01*
D02*
G37*
G36*
X395311D02*
X393815D01*
Y227445D01*
X395311D01*
Y224532D01*
D02*
G37*
D17*
X686827Y318232D02*
D03*
X684858D02*
D03*
X682890D02*
D03*
X680921D02*
D03*
X678953D02*
D03*
X676984D02*
D03*
X675016D02*
D03*
X673047D02*
D03*
X671079D02*
D03*
X669110D02*
D03*
X667142D02*
D03*
X665173D02*
D03*
Y284768D02*
D03*
X667142D02*
D03*
X669110D02*
D03*
X671079D02*
D03*
X673047D02*
D03*
X675016D02*
D03*
X676984D02*
D03*
X678953D02*
D03*
X680921D02*
D03*
X682890D02*
D03*
X684858D02*
D03*
X686827D02*
D03*
D18*
X659268Y312327D02*
D03*
Y310358D02*
D03*
Y308390D02*
D03*
Y306421D02*
D03*
Y304453D02*
D03*
Y302484D02*
D03*
Y300516D02*
D03*
Y298547D02*
D03*
Y296579D02*
D03*
Y294610D02*
D03*
Y292642D02*
D03*
Y290673D02*
D03*
X692732D02*
D03*
Y292642D02*
D03*
Y294610D02*
D03*
Y296579D02*
D03*
Y298547D02*
D03*
Y300516D02*
D03*
Y302484D02*
D03*
Y304453D02*
D03*
Y306421D02*
D03*
Y308390D02*
D03*
Y310358D02*
D03*
Y312327D02*
D03*
D24*
X562312Y374000D02*
D03*
X547688D02*
D03*
D26*
X430000Y339500D02*
D03*
Y363500D02*
D03*
X411000D02*
D03*
Y339500D02*
D03*
X284500Y340500D02*
D03*
Y364500D02*
D03*
X303500D02*
D03*
Y340500D02*
D03*
X177500D02*
D03*
Y364500D02*
D03*
X158500D02*
D03*
Y340500D02*
D03*
D28*
X536000Y325450D02*
D03*
Y360550D02*
D03*
D39*
X237500Y422550D02*
D03*
Y397450D02*
D03*
X363500Y422550D02*
D03*
Y397450D02*
D03*
X490000Y421550D02*
D03*
Y396450D02*
D03*
D44*
X204000Y328839D02*
D03*
Y346161D02*
D03*
X330000Y328839D02*
D03*
Y346161D02*
D03*
X456500Y327839D02*
D03*
Y345161D02*
D03*
D49*
X700032Y316000D02*
D03*
X703968D02*
D03*
X526469Y269500D02*
D03*
X522532D02*
D03*
X573118Y269000D02*
D03*
X569181D02*
D03*
X194468Y392000D02*
D03*
X190532D02*
D03*
X320468D02*
D03*
X316531D02*
D03*
X443032Y391000D02*
D03*
X446969D02*
D03*
X159031Y409500D02*
D03*
X162969D02*
D03*
X285032D02*
D03*
X288968D02*
D03*
X411531Y408500D02*
D03*
X415469D02*
D03*
X533532Y387000D02*
D03*
X537468D02*
D03*
X527727D02*
D03*
X523790D02*
D03*
X578727Y407500D02*
D03*
X574790D02*
D03*
X249969Y300000D02*
D03*
X246031D02*
D03*
X375969D02*
D03*
X372031D02*
D03*
X502468Y299000D02*
D03*
X498531D02*
D03*
X138469Y300000D02*
D03*
X134531D02*
D03*
X264469D02*
D03*
X260531D02*
D03*
X390968Y299000D02*
D03*
X387032D02*
D03*
X229260Y342563D02*
D03*
X236740D02*
D03*
X233000Y350437D02*
D03*
X481760Y341563D02*
D03*
X489240D02*
D03*
X485500Y349437D02*
D03*
X355260Y342563D02*
D03*
X362740D02*
D03*
X359000Y350437D02*
D03*
X735500Y243437D02*
D03*
X739240Y235563D02*
D03*
X731760D02*
D03*
X713500Y242937D02*
D03*
X717240Y235063D02*
D03*
X709760D02*
D03*
D50*
X419567Y382500D02*
D03*
X167067Y383500D02*
D03*
X293067D02*
D03*
D51*
X435244Y386122D02*
D03*
Y378878D02*
D03*
X182744Y379878D02*
D03*
Y387122D02*
D03*
X308744Y379878D02*
D03*
Y387122D02*
D03*
D52*
X713180Y249043D02*
D03*
X706481D02*
D03*
X728480Y249542D02*
D03*
X735181D02*
D03*
X488681Y356043D02*
D03*
X481981D02*
D03*
X355481Y357043D02*
D03*
X362180D02*
D03*
X236180D02*
D03*
X229481D02*
D03*
D53*
X387457Y218681D02*
D03*
Y211981D02*
D03*
X260958Y212981D02*
D03*
Y219681D02*
D03*
X134958D02*
D03*
Y212981D02*
D03*
X485458Y210981D02*
D03*
Y217681D02*
D03*
X358958Y218681D02*
D03*
Y211981D02*
D03*
X232958D02*
D03*
Y218681D02*
D03*
X523716Y392981D02*
D03*
Y399680D02*
D03*
D54*
X583000Y235350D02*
D03*
Y241650D02*
D03*
X694500Y276150D02*
D03*
Y269850D02*
D03*
X164000Y404150D02*
D03*
Y397850D02*
D03*
X290000Y404150D02*
D03*
Y397850D02*
D03*
X416500Y403150D02*
D03*
Y396850D02*
D03*
X249500Y210150D02*
D03*
Y203850D02*
D03*
X375500Y210150D02*
D03*
Y203850D02*
D03*
X501000Y202850D02*
D03*
Y209150D02*
D03*
X152000Y210150D02*
D03*
Y203850D02*
D03*
X278000Y210150D02*
D03*
Y203850D02*
D03*
X404500Y209150D02*
D03*
Y202850D02*
D03*
X574500Y235850D02*
D03*
Y242150D02*
D03*
X591500Y235350D02*
D03*
Y241650D02*
D03*
X515759Y398500D02*
D03*
Y404799D02*
D03*
X509259D02*
D03*
Y398500D02*
D03*
X208500Y405350D02*
D03*
Y411650D02*
D03*
X334500Y405350D02*
D03*
Y411650D02*
D03*
X461000Y404350D02*
D03*
Y410650D02*
D03*
X222000Y397350D02*
D03*
Y403650D02*
D03*
X348000Y397350D02*
D03*
Y403650D02*
D03*
X474500Y396350D02*
D03*
Y402650D02*
D03*
X695000Y239150D02*
D03*
Y232850D02*
D03*
X662500Y246350D02*
D03*
Y252650D02*
D03*
X712000Y400350D02*
D03*
Y406650D02*
D03*
Y413350D02*
D03*
Y419650D02*
D03*
D55*
X473571Y311551D02*
D03*
X471012D02*
D03*
X468453D02*
D03*
X465893D02*
D03*
X473571Y298953D02*
D03*
X471012D02*
D03*
X468453D02*
D03*
X465893D02*
D03*
X339393Y299953D02*
D03*
X341953D02*
D03*
X344512D02*
D03*
X347071D02*
D03*
X339393Y312551D02*
D03*
X341953D02*
D03*
X344512D02*
D03*
X347071D02*
D03*
X221071D02*
D03*
X218512D02*
D03*
X215953D02*
D03*
X213393D02*
D03*
X221071Y299953D02*
D03*
X218512D02*
D03*
X215953D02*
D03*
X213393D02*
D03*
X415393Y298953D02*
D03*
X417953D02*
D03*
X420512D02*
D03*
X423071D02*
D03*
X415393Y311551D02*
D03*
X417953D02*
D03*
X420512D02*
D03*
X423071D02*
D03*
X296571Y312551D02*
D03*
X294012D02*
D03*
X291453D02*
D03*
X288893D02*
D03*
X296571Y299953D02*
D03*
X294012D02*
D03*
X291453D02*
D03*
X288893D02*
D03*
X162893D02*
D03*
X165453D02*
D03*
X168012D02*
D03*
X170571D02*
D03*
X162893Y312551D02*
D03*
X165453D02*
D03*
X168012D02*
D03*
X170571D02*
D03*
X477071Y287551D02*
D03*
X474512D02*
D03*
X471953D02*
D03*
X469393D02*
D03*
X477071Y274953D02*
D03*
X474512D02*
D03*
X471953D02*
D03*
X469393D02*
D03*
X342893Y275953D02*
D03*
X345453D02*
D03*
X348012D02*
D03*
X350571D02*
D03*
X342893Y288551D02*
D03*
X345453D02*
D03*
X348012D02*
D03*
X350571D02*
D03*
X224571D02*
D03*
X222012D02*
D03*
X219453D02*
D03*
X216893D02*
D03*
X224571Y275953D02*
D03*
X222012D02*
D03*
X219453D02*
D03*
X216893D02*
D03*
X411893Y274953D02*
D03*
X414453D02*
D03*
X417012D02*
D03*
X419571D02*
D03*
X411893Y287551D02*
D03*
X414453D02*
D03*
X417012D02*
D03*
X419571D02*
D03*
X293071Y288551D02*
D03*
X290512D02*
D03*
X287953D02*
D03*
X285393D02*
D03*
X293071Y275953D02*
D03*
X290512D02*
D03*
X287953D02*
D03*
X285393D02*
D03*
X159393D02*
D03*
X161953D02*
D03*
X164512D02*
D03*
X167071D02*
D03*
X159393Y288551D02*
D03*
X161953D02*
D03*
X164512D02*
D03*
X167071D02*
D03*
X720429Y399949D02*
D03*
X722988D02*
D03*
X725547D02*
D03*
X728107D02*
D03*
X720429Y412547D02*
D03*
X722988D02*
D03*
X725547D02*
D03*
X728107D02*
D03*
D56*
X469732Y306984D02*
D03*
X343232Y307984D02*
D03*
X217232D02*
D03*
X419232Y306984D02*
D03*
X292732Y307984D02*
D03*
X166732D02*
D03*
X473232Y282984D02*
D03*
X346732Y283984D02*
D03*
X220732D02*
D03*
X415732Y282984D02*
D03*
X289232Y283984D02*
D03*
X163232D02*
D03*
X724268Y404516D02*
D03*
D57*
X159000Y401532D02*
D03*
Y405469D02*
D03*
X285000Y401532D02*
D03*
Y405469D02*
D03*
X411500Y400531D02*
D03*
Y404468D02*
D03*
X503259Y403618D02*
D03*
Y399681D02*
D03*
X196000Y305031D02*
D03*
Y308968D02*
D03*
X322000Y305031D02*
D03*
Y308968D02*
D03*
X448500Y304031D02*
D03*
Y307968D02*
D03*
X192000Y304532D02*
D03*
Y308469D02*
D03*
X318000Y304532D02*
D03*
Y308469D02*
D03*
X444500Y303532D02*
D03*
Y307469D02*
D03*
X188000Y305031D02*
D03*
Y308968D02*
D03*
X314000Y305031D02*
D03*
Y308968D02*
D03*
X440500Y304031D02*
D03*
Y307968D02*
D03*
X206000Y397468D02*
D03*
Y393531D02*
D03*
X332000Y397468D02*
D03*
Y393531D02*
D03*
X458500Y396468D02*
D03*
Y392531D02*
D03*
X201000Y397468D02*
D03*
Y393531D02*
D03*
X327000Y397468D02*
D03*
Y393531D02*
D03*
X453500Y396468D02*
D03*
Y392531D02*
D03*
X199500Y385500D02*
D03*
Y389437D02*
D03*
X325500Y385500D02*
D03*
Y389437D02*
D03*
X452000Y384500D02*
D03*
Y388437D02*
D03*
X227500Y308469D02*
D03*
Y304532D02*
D03*
X353500D02*
D03*
Y308469D02*
D03*
X480000Y303532D02*
D03*
Y307469D02*
D03*
X151000Y308469D02*
D03*
Y304532D02*
D03*
X277000Y308469D02*
D03*
Y304532D02*
D03*
X403500Y307469D02*
D03*
Y303532D02*
D03*
X689500Y272532D02*
D03*
Y276468D02*
D03*
X655000Y282031D02*
D03*
Y285968D02*
D03*
X589759Y396532D02*
D03*
Y400468D02*
D03*
X583259Y396532D02*
D03*
Y400468D02*
D03*
Y390469D02*
D03*
Y386531D02*
D03*
X195000Y412968D02*
D03*
Y409031D02*
D03*
X321000Y412968D02*
D03*
Y409031D02*
D03*
X447500Y411969D02*
D03*
Y408032D02*
D03*
X155000Y405532D02*
D03*
Y409469D02*
D03*
X281000Y405532D02*
D03*
Y409469D02*
D03*
X407500Y404531D02*
D03*
Y408468D02*
D03*
X150500Y409469D02*
D03*
Y405532D02*
D03*
X276500Y409469D02*
D03*
Y405532D02*
D03*
X403000Y408468D02*
D03*
Y404531D02*
D03*
X224000Y348437D02*
D03*
Y344500D02*
D03*
X350000D02*
D03*
Y348437D02*
D03*
X476500Y343500D02*
D03*
Y347437D02*
D03*
X224000Y356937D02*
D03*
Y353000D02*
D03*
X350000Y356937D02*
D03*
Y353000D02*
D03*
X476500Y355937D02*
D03*
Y352000D02*
D03*
X233000Y202532D02*
D03*
Y206469D02*
D03*
X359000D02*
D03*
Y202532D02*
D03*
X485500Y205469D02*
D03*
Y201532D02*
D03*
X135000Y207469D02*
D03*
Y203532D02*
D03*
X261000Y207469D02*
D03*
Y203532D02*
D03*
X387500Y206469D02*
D03*
Y202532D02*
D03*
X219500Y263531D02*
D03*
Y267469D02*
D03*
X345500Y263531D02*
D03*
Y267469D02*
D03*
X472000Y262531D02*
D03*
Y266469D02*
D03*
X169000Y265531D02*
D03*
Y269468D02*
D03*
X293000D02*
D03*
Y265531D02*
D03*
X419500Y268468D02*
D03*
Y264531D02*
D03*
X209000Y250468D02*
D03*
Y246532D02*
D03*
X335000Y250468D02*
D03*
Y246532D02*
D03*
X461500Y249468D02*
D03*
Y245532D02*
D03*
X176500Y250468D02*
D03*
Y246532D02*
D03*
X301000Y250468D02*
D03*
Y246532D02*
D03*
X427500Y249468D02*
D03*
Y245532D02*
D03*
X156500Y308469D02*
D03*
Y304532D02*
D03*
X282500Y308469D02*
D03*
Y304532D02*
D03*
X409000Y307469D02*
D03*
Y303532D02*
D03*
X233000Y308469D02*
D03*
Y304532D02*
D03*
X359000Y308469D02*
D03*
Y304532D02*
D03*
X485500Y307469D02*
D03*
Y303532D02*
D03*
X239500Y287469D02*
D03*
Y283531D02*
D03*
X365500Y287469D02*
D03*
Y283531D02*
D03*
X492000Y286469D02*
D03*
Y282531D02*
D03*
X145000Y283531D02*
D03*
Y287469D02*
D03*
X271000D02*
D03*
Y283531D02*
D03*
X397500Y286469D02*
D03*
Y282531D02*
D03*
X726500Y243468D02*
D03*
Y239531D02*
D03*
X704500Y242969D02*
D03*
Y239032D02*
D03*
X726500Y235469D02*
D03*
Y231532D02*
D03*
X704500Y234968D02*
D03*
Y231031D02*
D03*
X530322Y396500D02*
D03*
X538196Y400240D02*
D03*
Y392760D02*
D03*
D58*
X540150Y262000D02*
D03*
X533850D02*
D03*
X540150Y268500D02*
D03*
X533850D02*
D03*
X586799D02*
D03*
X580500D02*
D03*
X586799Y262000D02*
D03*
X580500D02*
D03*
X578908Y379000D02*
D03*
X572609D02*
D03*
X229650Y294500D02*
D03*
X223350D02*
D03*
X355650D02*
D03*
X349350D02*
D03*
X482150Y293500D02*
D03*
X475850D02*
D03*
X153850Y294500D02*
D03*
X160150D02*
D03*
X279850D02*
D03*
X286150D02*
D03*
X406350Y293500D02*
D03*
X412650D02*
D03*
X139350Y309500D02*
D03*
X145650D02*
D03*
X265350D02*
D03*
X271650D02*
D03*
X391850Y308500D02*
D03*
X398150D02*
D03*
X139350Y315500D02*
D03*
X145650D02*
D03*
X271650D02*
D03*
X265350D02*
D03*
X398150Y314500D02*
D03*
X391850D02*
D03*
X648650Y290000D02*
D03*
X642350D02*
D03*
X648650Y296000D02*
D03*
X642350D02*
D03*
X648650Y308000D02*
D03*
X642350D02*
D03*
X648650Y302000D02*
D03*
X642350D02*
D03*
X669150Y229500D02*
D03*
X662850D02*
D03*
D59*
X526965Y262500D02*
D03*
X520035D02*
D03*
X135035Y337000D02*
D03*
X141965D02*
D03*
X261035D02*
D03*
X267965D02*
D03*
X387535Y336000D02*
D03*
X394465D02*
D03*
X135035Y345000D02*
D03*
X141965D02*
D03*
X261035D02*
D03*
X267965D02*
D03*
X387535Y344000D02*
D03*
X394465D02*
D03*
X135035Y353000D02*
D03*
X141965D02*
D03*
X261035D02*
D03*
X267965D02*
D03*
X387535Y352000D02*
D03*
X394465D02*
D03*
X145465Y329500D02*
D03*
X138535D02*
D03*
X271465D02*
D03*
X264535D02*
D03*
X397965Y328500D02*
D03*
X391035D02*
D03*
X138535Y322000D02*
D03*
X145465D02*
D03*
X264535D02*
D03*
X271465D02*
D03*
X391035Y321000D02*
D03*
X397965D02*
D03*
X573614Y262500D02*
D03*
X566685D02*
D03*
D60*
X201500Y413465D02*
D03*
Y406535D02*
D03*
X327500Y413465D02*
D03*
Y406535D02*
D03*
X454000Y412465D02*
D03*
Y405535D02*
D03*
X205500Y381535D02*
D03*
Y388465D02*
D03*
X331500Y381535D02*
D03*
Y388465D02*
D03*
X458000Y380535D02*
D03*
Y387465D02*
D03*
X213000Y379535D02*
D03*
Y386465D02*
D03*
X339000Y379535D02*
D03*
Y386465D02*
D03*
X465500Y378535D02*
D03*
Y385465D02*
D03*
X213000Y399465D02*
D03*
Y392535D02*
D03*
X339000Y399465D02*
D03*
Y392535D02*
D03*
X465500Y398465D02*
D03*
Y391535D02*
D03*
X589759Y389965D02*
D03*
Y383035D02*
D03*
X597759Y389965D02*
D03*
Y383035D02*
D03*
Y403965D02*
D03*
Y397035D02*
D03*
D61*
X231000Y384413D02*
D03*
Y373587D02*
D03*
X357000Y384413D02*
D03*
Y373587D02*
D03*
X483500Y383413D02*
D03*
Y372587D02*
D03*
X221500Y386913D02*
D03*
Y376087D02*
D03*
X347500Y386913D02*
D03*
Y376087D02*
D03*
X474000Y385913D02*
D03*
Y375087D02*
D03*
D62*
X519721Y252000D02*
D03*
X530279D02*
D03*
X536279Y310500D02*
D03*
X525721D02*
D03*
X566370Y252000D02*
D03*
X576929D02*
D03*
X221220Y329500D02*
D03*
X231780D02*
D03*
X347220D02*
D03*
X357780D02*
D03*
X473721Y328500D02*
D03*
X484279D02*
D03*
X571870Y310000D02*
D03*
X582429D02*
D03*
D63*
X585759Y335780D02*
D03*
Y325220D02*
D03*
X572259Y335780D02*
D03*
Y325220D02*
D03*
X608259Y378720D02*
D03*
Y389280D02*
D03*
X242000Y383780D02*
D03*
Y373220D02*
D03*
X368000Y383780D02*
D03*
Y373220D02*
D03*
X494500Y382780D02*
D03*
Y372220D02*
D03*
X608259Y408280D02*
D03*
Y397721D02*
D03*
D64*
X674000Y240657D02*
D03*
X679000D02*
D03*
X684000D02*
D03*
X689000D02*
D03*
X674000Y260343D02*
D03*
X679000D02*
D03*
X684000D02*
D03*
X689000D02*
D03*
D65*
X686020Y229000D02*
D03*
X675980D02*
D03*
D66*
X190480Y408799D02*
D03*
Y405650D02*
D03*
Y402500D02*
D03*
Y399350D02*
D03*
Y396201D02*
D03*
X175520Y408799D02*
D03*
Y405650D02*
D03*
Y402500D02*
D03*
Y399350D02*
D03*
Y396201D02*
D03*
X301520D02*
D03*
Y399350D02*
D03*
Y402500D02*
D03*
Y405650D02*
D03*
Y408799D02*
D03*
X316480Y396201D02*
D03*
Y399350D02*
D03*
Y402500D02*
D03*
Y405650D02*
D03*
Y408799D02*
D03*
X442980Y407799D02*
D03*
Y404650D02*
D03*
Y401500D02*
D03*
Y398350D02*
D03*
Y395201D02*
D03*
X428020Y407799D02*
D03*
Y404650D02*
D03*
Y401500D02*
D03*
Y398350D02*
D03*
Y395201D02*
D03*
D67*
X183000Y402500D02*
D03*
X309000D02*
D03*
X435500Y401500D02*
D03*
D68*
X239063Y215992D02*
D03*
X241032D02*
D03*
X243000D02*
D03*
X244969D02*
D03*
X239063Y203000D02*
D03*
X241032D02*
D03*
X243000D02*
D03*
X244969D02*
D03*
X365000Y216000D02*
D03*
X366968D02*
D03*
X368937D02*
D03*
X370905D02*
D03*
X365000Y203008D02*
D03*
X366968D02*
D03*
X368937D02*
D03*
X370905D02*
D03*
X491500Y215000D02*
D03*
X493469D02*
D03*
X495437D02*
D03*
X497405D02*
D03*
X491500Y202008D02*
D03*
X493469D02*
D03*
X495437D02*
D03*
X497405D02*
D03*
X146906Y203008D02*
D03*
X144937D02*
D03*
X142968D02*
D03*
X141000D02*
D03*
X146906Y216000D02*
D03*
X144937D02*
D03*
X142968D02*
D03*
X141000D02*
D03*
X267000D02*
D03*
X268969D02*
D03*
X270937D02*
D03*
X272905D02*
D03*
X267000Y203008D02*
D03*
X268969D02*
D03*
X270937D02*
D03*
X272905D02*
D03*
X393500Y215000D02*
D03*
X395468D02*
D03*
X397437D02*
D03*
X399406D02*
D03*
X393500Y202008D02*
D03*
X395468D02*
D03*
X397437D02*
D03*
X399406D02*
D03*
D69*
X207500Y265839D02*
D03*
Y283161D02*
D03*
X333500Y265839D02*
D03*
Y283161D02*
D03*
X460000Y264839D02*
D03*
Y282161D02*
D03*
X176500Y283161D02*
D03*
Y265839D02*
D03*
X302500D02*
D03*
Y283161D02*
D03*
X429000Y264839D02*
D03*
Y282161D02*
D03*
X217000Y257661D02*
D03*
Y240339D02*
D03*
X343000Y257661D02*
D03*
Y240339D02*
D03*
X469500Y256661D02*
D03*
Y239339D02*
D03*
X168500Y240339D02*
D03*
Y257661D02*
D03*
X293000D02*
D03*
Y240339D02*
D03*
X419500Y256661D02*
D03*
Y239339D02*
D03*
X203500Y293339D02*
D03*
Y310661D02*
D03*
X329500Y293339D02*
D03*
Y310661D02*
D03*
X456000Y292339D02*
D03*
Y309661D02*
D03*
X180500Y293339D02*
D03*
Y310661D02*
D03*
X306500Y293339D02*
D03*
Y310661D02*
D03*
X433000Y292339D02*
D03*
Y309661D02*
D03*
X247000Y276839D02*
D03*
Y294161D02*
D03*
X373000D02*
D03*
Y276839D02*
D03*
X499500Y293161D02*
D03*
Y275839D02*
D03*
X137500Y294161D02*
D03*
Y276839D02*
D03*
X263500Y294161D02*
D03*
Y276839D02*
D03*
X390000Y293161D02*
D03*
Y275839D02*
D03*
D70*
X531000Y276189D02*
D03*
X577150Y275689D02*
D03*
D71*
X521945Y299811D02*
D03*
X531000D02*
D03*
X540055D02*
D03*
X586205Y299311D02*
D03*
X577150D02*
D03*
X568094D02*
D03*
D72*
X651259Y362894D02*
D03*
Y412106D02*
D03*
D73*
X220000Y229279D02*
D03*
Y209988D02*
D03*
X346000Y229279D02*
D03*
Y209988D02*
D03*
X472500Y228279D02*
D03*
Y208988D02*
D03*
X234500Y249721D02*
D03*
Y269012D02*
D03*
X360500Y249721D02*
D03*
Y269012D02*
D03*
X487000Y248721D02*
D03*
Y268012D02*
D03*
X154500Y269012D02*
D03*
Y249721D02*
D03*
X275000D02*
D03*
Y269012D02*
D03*
X401500Y248721D02*
D03*
Y268012D02*
D03*
X164000Y229279D02*
D03*
Y209988D02*
D03*
X290000Y229279D02*
D03*
Y209988D02*
D03*
X416500Y208988D02*
D03*
Y228279D02*
D03*
X699000Y422012D02*
D03*
Y402720D02*
D03*
D74*
X612000Y325000D02*
D03*
X754500Y252000D02*
D03*
X132500Y255750D02*
D03*
X208500Y435250D02*
D03*
X754500Y399500D02*
D03*
D75*
X385500Y399000D02*
D03*
X260500Y407500D02*
D03*
X130000Y404000D02*
D03*
X165500Y417500D02*
D03*
X151000Y381000D02*
D03*
X221000Y410000D02*
D03*
X292000Y416500D02*
D03*
X344000Y411500D02*
D03*
X276500Y381500D02*
D03*
X401500Y382500D02*
D03*
X418500Y416000D02*
D03*
X470000Y412000D02*
D03*
X537000Y369500D02*
D03*
X535608Y411006D02*
D03*
X200000Y251000D02*
D03*
X326000D02*
D03*
X452500Y250000D02*
D03*
X184000Y251000D02*
D03*
X310000D02*
D03*
X436500Y250000D02*
D03*
X541000Y252000D02*
D03*
X587650D02*
D03*
X558000Y315000D02*
D03*
X231000Y317000D02*
D03*
X357000D02*
D03*
X483500Y316000D02*
D03*
X699000Y385000D02*
D03*
Y436000D02*
D03*
D76*
X562818Y385823D02*
D03*
X557700D02*
D03*
X562818Y390941D02*
D03*
X557700D02*
D03*
X562818Y396059D02*
D03*
X557700D02*
D03*
X562818Y401177D02*
D03*
X557700D02*
D03*
D77*
X201512Y232311D02*
D03*
Y208689D02*
D03*
X327512Y232311D02*
D03*
Y208689D02*
D03*
X454012Y231311D02*
D03*
Y207689D02*
D03*
X802012Y366783D02*
D03*
Y402217D02*
D03*
Y324783D02*
D03*
Y360217D02*
D03*
Y409283D02*
D03*
Y444717D02*
D03*
Y318217D02*
D03*
Y282783D02*
D03*
Y240283D02*
D03*
Y275717D02*
D03*
Y233217D02*
D03*
Y197783D02*
D03*
X609122Y200488D02*
D03*
X561878D02*
D03*
X555122D02*
D03*
X507878D02*
D03*
X663122D02*
D03*
X615878D02*
D03*
D78*
X197811Y220500D02*
D03*
X323811D02*
D03*
X450311Y219500D02*
D03*
X731594Y435000D02*
D03*
X786500Y390406D02*
D03*
X798311Y378594D02*
D03*
Y390406D02*
D03*
X786500Y348406D02*
D03*
X798311Y336594D02*
D03*
Y348406D02*
D03*
X786500Y432906D02*
D03*
X798311Y421094D02*
D03*
Y432906D02*
D03*
Y306406D02*
D03*
Y294594D02*
D03*
X786500Y306406D02*
D03*
Y263906D02*
D03*
X798311Y252094D02*
D03*
Y263906D02*
D03*
Y221406D02*
D03*
Y209594D02*
D03*
X786500Y221406D02*
D03*
X585500Y216000D02*
D03*
X597311Y204189D02*
D03*
X585500D02*
D03*
X573689D02*
D03*
X597311Y216000D02*
D03*
X531500D02*
D03*
X543311Y204189D02*
D03*
X531500D02*
D03*
X519689D02*
D03*
X543311Y216000D02*
D03*
X639500D02*
D03*
X651311Y204189D02*
D03*
X639500D02*
D03*
X627689D02*
D03*
X651311Y216000D02*
D03*
X748500Y203500D02*
D03*
X760311D02*
D03*
X694000D02*
D03*
X705811D02*
D03*
D79*
X186000Y220500D02*
D03*
X312000D02*
D03*
X438500Y219500D02*
D03*
X786500Y378594D02*
D03*
Y336594D02*
D03*
Y421094D02*
D03*
Y294594D02*
D03*
Y252094D02*
D03*
Y209594D02*
D03*
D80*
X719783Y427283D02*
D03*
X755217D02*
D03*
X724878Y211217D02*
D03*
X772122D02*
D03*
X717622D02*
D03*
X670378D02*
D03*
D81*
X743406Y435000D02*
D03*
X573689Y216000D02*
D03*
X519689D02*
D03*
X627689D02*
D03*
X736689Y203500D02*
D03*
X682189D02*
D03*
D82*
X722000Y275000D02*
D03*
X732000D02*
D03*
D83*
X742000D02*
D03*
D84*
X702000Y312000D02*
D03*
X707000Y316000D02*
D03*
X702500Y292000D02*
D03*
X711500Y298500D02*
D03*
X715000D02*
D03*
X708000D02*
D03*
X704000Y308000D02*
D03*
X786500Y312000D02*
D03*
X770500Y326500D02*
D03*
X696000Y323000D02*
D03*
X664500Y327000D02*
D03*
X668000Y329500D02*
D03*
X654000Y292500D02*
D03*
X679500Y332000D02*
D03*
X677000Y334500D02*
D03*
X773500Y333000D02*
D03*
X495000Y360000D02*
D03*
X265000Y400000D02*
D03*
X415000Y220000D02*
D03*
X375000Y240000D02*
D03*
X780000Y350000D02*
D03*
X709000Y452500D02*
D03*
X135000Y420000D02*
D03*
X630000Y190000D02*
D03*
X489000Y452500D02*
D03*
X125000Y300000D02*
D03*
X210000Y230000D02*
D03*
X660000Y210000D02*
D03*
X365000Y360000D02*
D03*
X520000Y290000D02*
D03*
X635000Y320000D02*
D03*
X795000Y240000D02*
D03*
X600000Y190000D02*
D03*
X800000Y330000D02*
D03*
X405000Y260000D02*
D03*
X810000Y330000D02*
D03*
X255000Y260000D02*
D03*
X640000Y210000D02*
D03*
X600000Y410000D02*
D03*
X740000D02*
D03*
X460000Y370000D02*
D03*
X685000Y360000D02*
D03*
X700000Y370000D02*
D03*
X689000Y452500D02*
D03*
X735000Y320000D02*
D03*
X595000Y300000D02*
D03*
X140000Y450000D02*
D03*
X390000Y370000D02*
D03*
X775000Y200000D02*
D03*
X155000Y400000D02*
D03*
X745000Y320000D02*
D03*
X419000Y452500D02*
D03*
X790000Y230000D02*
D03*
X705000Y360000D02*
D03*
X210000Y370000D02*
D03*
X175000Y240000D02*
D03*
X265000Y420000D02*
D03*
X660000Y370000D02*
D03*
X130000Y230000D02*
D03*
Y430000D02*
D03*
X445000Y360000D02*
D03*
X475000Y420000D02*
D03*
X265000Y380000D02*
D03*
X515000Y360000D02*
D03*
X630000Y290000D02*
D03*
X430000Y410000D02*
D03*
X285000Y240000D02*
D03*
X146398Y398602D02*
D03*
X715000Y320000D02*
D03*
X145000Y420000D02*
D03*
X150000Y450000D02*
D03*
X555000Y420000D02*
D03*
X395000D02*
D03*
X605000Y200000D02*
D03*
X565000Y280000D02*
D03*
X695000Y360000D02*
D03*
X795000Y200000D02*
D03*
X150000Y190000D02*
D03*
X785000Y200000D02*
D03*
X705000Y320000D02*
D03*
X670000Y390000D02*
D03*
X765000Y220000D02*
D03*
X630000Y330000D02*
D03*
X397500Y205000D02*
D03*
X185000Y440000D02*
D03*
X620000Y310000D02*
D03*
X695000Y220000D02*
D03*
X309000Y452500D02*
D03*
X130000Y390000D02*
D03*
X393000Y380000D02*
D03*
X705000Y340000D02*
D03*
X595000Y360000D02*
D03*
X195000D02*
D03*
X675000Y340000D02*
D03*
X425000Y420000D02*
D03*
X680000Y390000D02*
D03*
X545000Y300000D02*
D03*
X675000Y400000D02*
D03*
X770000Y430000D02*
D03*
X380000Y250000D02*
D03*
Y350000D02*
D03*
X735000Y340000D02*
D03*
Y260000D02*
D03*
X560000Y350000D02*
D03*
X785000Y280000D02*
D03*
X705000Y380000D02*
D03*
X500000Y350000D02*
D03*
X460000Y230000D02*
D03*
X740000Y350000D02*
D03*
X140000Y390000D02*
D03*
X600000Y310000D02*
D03*
X735000Y220000D02*
D03*
X530000Y210101D02*
D03*
X305000Y420000D02*
D03*
X610000Y350000D02*
D03*
X725000Y260000D02*
D03*
X765000Y200000D02*
D03*
X725000Y360000D02*
D03*
X750000Y190000D02*
D03*
X379000Y452500D02*
D03*
X140000Y210000D02*
D03*
X785000Y360000D02*
D03*
X500000Y250000D02*
D03*
X229000Y452500D02*
D03*
X329000D02*
D03*
X180000Y210000D02*
D03*
X535000Y200000D02*
D03*
X305000Y300000D02*
D03*
X243000Y206000D02*
D03*
X640000Y350000D02*
D03*
X750000Y430000D02*
D03*
X690000Y370000D02*
D03*
X625000Y380000D02*
D03*
X670000Y350000D02*
D03*
X125000Y220000D02*
D03*
X780000Y310000D02*
D03*
X339000Y452500D02*
D03*
X400000Y410000D02*
D03*
X455000Y300000D02*
D03*
X710000Y250000D02*
D03*
X390000D02*
D03*
X565000Y420000D02*
D03*
X755000Y300000D02*
D03*
X525000Y200000D02*
D03*
X380000Y290000D02*
D03*
X760000Y210000D02*
D03*
X545346Y227464D02*
D03*
X190000Y450000D02*
D03*
X370000Y310000D02*
D03*
X135000Y440000D02*
D03*
X245000Y240000D02*
D03*
X660000Y190000D02*
D03*
X609000Y452500D02*
D03*
X359000D02*
D03*
X810000Y230000D02*
D03*
X335000Y360000D02*
D03*
X300000Y230000D02*
D03*
X335000Y420000D02*
D03*
X610000Y310000D02*
D03*
X505000Y260000D02*
D03*
X600000Y290000D02*
D03*
X230000Y190000D02*
D03*
X345000Y360000D02*
D03*
X240000Y190000D02*
D03*
X370000Y350000D02*
D03*
X620000Y370000D02*
D03*
X580000D02*
D03*
X170000Y250000D02*
D03*
X730000Y290000D02*
D03*
X625000Y300000D02*
D03*
X380000Y230000D02*
D03*
X455000Y420000D02*
D03*
X515000Y260000D02*
D03*
X730000Y330000D02*
D03*
X740000Y310000D02*
D03*
X805000Y420000D02*
D03*
X475000Y220000D02*
D03*
X240000Y310000D02*
D03*
X345000Y220000D02*
D03*
X805000D02*
D03*
X325000Y300000D02*
D03*
X500000Y330000D02*
D03*
X790000Y310000D02*
D03*
X275000Y280000D02*
D03*
X775000Y260000D02*
D03*
X140000Y190000D02*
D03*
X155000Y440000D02*
D03*
X380000Y270000D02*
D03*
X255000Y400000D02*
D03*
X430000Y270000D02*
D03*
X440000Y370000D02*
D03*
X810000D02*
D03*
X470000D02*
D03*
X255000Y380000D02*
D03*
X550000Y250000D02*
D03*
X380000Y390000D02*
D03*
X745000Y360000D02*
D03*
X630000Y370000D02*
D03*
X800000Y190000D02*
D03*
X520000Y210000D02*
D03*
X635000Y200000D02*
D03*
X755000Y320000D02*
D03*
X810000Y190000D02*
D03*
X710000Y350000D02*
D03*
X349000Y452500D02*
D03*
X610000Y290000D02*
D03*
X595000Y340000D02*
D03*
X279000Y452500D02*
D03*
X620000Y250000D02*
D03*
X605000Y420000D02*
D03*
X135000Y380000D02*
D03*
X740000Y250000D02*
D03*
X369000Y206000D02*
D03*
X745000Y340000D02*
D03*
X525000Y360000D02*
D03*
X780000Y190000D02*
D03*
X810000Y270000D02*
D03*
X125000Y240000D02*
D03*
X415000Y420000D02*
D03*
X180000Y190000D02*
D03*
X635000Y340000D02*
D03*
X479000Y452500D02*
D03*
X505000Y240000D02*
D03*
X170000Y210000D02*
D03*
X125000Y320000D02*
D03*
X615000Y340000D02*
D03*
X395000Y400000D02*
D03*
X790000Y370000D02*
D03*
X755000Y220000D02*
D03*
X680000Y350000D02*
D03*
X475000Y240000D02*
D03*
X265000Y360000D02*
D03*
X720000Y390000D02*
D03*
X640000Y190000D02*
D03*
X375000Y260000D02*
D03*
X740000Y330000D02*
D03*
X605000Y360000D02*
D03*
X615000Y220000D02*
D03*
X130000Y450000D02*
D03*
X399000Y452500D02*
D03*
X645000Y340000D02*
D03*
X680000Y190000D02*
D03*
X385000Y280000D02*
D03*
X465000Y360000D02*
D03*
X469000Y452500D02*
D03*
X589000D02*
D03*
X610000Y190000D02*
D03*
X760000Y430000D02*
D03*
X720000Y330000D02*
D03*
X240000Y350000D02*
D03*
X680000Y410000D02*
D03*
X810000Y350000D02*
D03*
X719000Y452500D02*
D03*
X530000Y390000D02*
D03*
X635000Y420000D02*
D03*
X755000Y360000D02*
D03*
X529000Y452500D02*
D03*
X215000Y420000D02*
D03*
X725000Y380000D02*
D03*
X635000Y220000D02*
D03*
X770000Y190000D02*
D03*
X145000Y440000D02*
D03*
X515000Y420000D02*
D03*
X675000Y380000D02*
D03*
X225500Y446000D02*
D03*
X675000Y220000D02*
D03*
X665000Y380000D02*
D03*
X770000Y290000D02*
D03*
X340000Y250000D02*
D03*
X345000Y420000D02*
D03*
X780000Y290000D02*
D03*
X370000Y330000D02*
D03*
X315000Y360000D02*
D03*
X385000Y260000D02*
D03*
X299000Y452500D02*
D03*
X790000Y450000D02*
D03*
X435000Y420000D02*
D03*
X495000Y340000D02*
D03*
X570000Y190000D02*
D03*
X490000Y350000D02*
D03*
X510000Y410000D02*
D03*
X780000Y250000D02*
D03*
X740000Y210000D02*
D03*
X500000Y310000D02*
D03*
X735000Y400000D02*
D03*
X605000Y280000D02*
D03*
X690000Y190000D02*
D03*
X545000Y420000D02*
D03*
X780000Y450000D02*
D03*
X255000Y220000D02*
D03*
X445000Y380000D02*
D03*
X255000Y320000D02*
D03*
X275000Y420000D02*
D03*
X220000Y190000D02*
D03*
X155000Y260000D02*
D03*
X340000Y370000D02*
D03*
X740000Y270000D02*
D03*
X225000Y220000D02*
D03*
X505000Y380000D02*
D03*
X255000Y420000D02*
D03*
X559000Y452500D02*
D03*
X380000Y370000D02*
D03*
X725000Y420000D02*
D03*
X315000D02*
D03*
X560000Y410000D02*
D03*
X180000D02*
D03*
X735000Y240000D02*
D03*
X640000Y330000D02*
D03*
X558346Y227464D02*
D03*
X389000Y452500D02*
D03*
X285000Y260000D02*
D03*
X810000Y210000D02*
D03*
X590000Y190000D02*
D03*
X570000Y410000D02*
D03*
X770000Y450000D02*
D03*
X660000Y390000D02*
D03*
X700000Y410000D02*
D03*
X475000Y360000D02*
D03*
X810000Y390000D02*
D03*
X305000Y260000D02*
D03*
X630000Y350000D02*
D03*
X625000Y280000D02*
D03*
X175000Y220000D02*
D03*
X385000Y240000D02*
D03*
X655000Y200000D02*
D03*
X795000Y260000D02*
D03*
X510000Y210000D02*
D03*
X265000Y240000D02*
D03*
X140000Y370000D02*
D03*
X810000Y430000D02*
D03*
X745000Y220000D02*
D03*
X255000Y360000D02*
D03*
X515000Y380000D02*
D03*
X650000Y210000D02*
D03*
X710000Y390000D02*
D03*
X685000Y340000D02*
D03*
X600000Y350000D02*
D03*
X335000Y240000D02*
D03*
X310000Y210000D02*
D03*
X490000D02*
D03*
X770000Y410000D02*
D03*
X805000Y340000D02*
D03*
X775000Y420000D02*
D03*
X715000Y240000D02*
D03*
X740000Y390000D02*
D03*
X715000Y340000D02*
D03*
X255000Y280000D02*
D03*
X560000Y270000D02*
D03*
X715000Y380000D02*
D03*
X375000Y360000D02*
D03*
X160000Y430000D02*
D03*
X135000Y240000D02*
D03*
X295000Y220000D02*
D03*
X810000Y410000D02*
D03*
X595000Y200000D02*
D03*
X130000Y370000D02*
D03*
X405000Y420000D02*
D03*
X130000Y310000D02*
D03*
X605000Y300000D02*
D03*
X810000Y450000D02*
D03*
X125000Y440000D02*
D03*
X565000Y360000D02*
D03*
X620000Y190000D02*
D03*
X485000Y360000D02*
D03*
X366346Y256464D02*
D03*
X569000Y452500D02*
D03*
X429000D02*
D03*
X375000Y400000D02*
D03*
X780000Y230000D02*
D03*
X175000Y440000D02*
D03*
X475000Y260000D02*
D03*
X205000Y220000D02*
D03*
X562846Y214464D02*
D03*
X710000Y190000D02*
D03*
X660000Y330000D02*
D03*
X430000Y230000D02*
D03*
X805000Y380000D02*
D03*
X760000Y350000D02*
D03*
X539000Y452500D02*
D03*
X460000Y270000D02*
D03*
X305000Y240000D02*
D03*
X649000Y452500D02*
D03*
X249000D02*
D03*
X250000Y330000D02*
D03*
X365000Y300000D02*
D03*
X805000Y440000D02*
D03*
X130000Y290000D02*
D03*
X775000Y300000D02*
D03*
X265000Y260000D02*
D03*
X669000Y452500D02*
D03*
X355000Y260000D02*
D03*
X750000Y370000D02*
D03*
X259000Y452500D02*
D03*
X155000Y420000D02*
D03*
X275000Y360000D02*
D03*
X475000Y380000D02*
D03*
X690000Y350000D02*
D03*
X755000Y280000D02*
D03*
X130000Y210000D02*
D03*
X730000Y370000D02*
D03*
X639000Y452500D02*
D03*
X175000Y420000D02*
D03*
X180000Y450000D02*
D03*
X260000Y390000D02*
D03*
X125000Y340000D02*
D03*
X810000Y310000D02*
D03*
X575000Y360000D02*
D03*
X300000Y210000D02*
D03*
X760000Y330000D02*
D03*
X700000Y390000D02*
D03*
X250000Y270000D02*
D03*
X595000Y320000D02*
D03*
X655000Y340000D02*
D03*
X380000Y410000D02*
D03*
X630000D02*
D03*
X425000Y260000D02*
D03*
X365000Y320000D02*
D03*
X350000Y410000D02*
D03*
X790000Y290000D02*
D03*
X170000Y190000D02*
D03*
X785000Y400000D02*
D03*
X780000Y370000D02*
D03*
X730000Y270000D02*
D03*
X760000Y310000D02*
D03*
X140000Y270000D02*
D03*
X185000Y300000D02*
D03*
X155000Y220000D02*
D03*
X775000Y280000D02*
D03*
X205000Y300000D02*
D03*
X600000Y370000D02*
D03*
X145000Y206000D02*
D03*
X505000Y360000D02*
D03*
X720000Y190000D02*
D03*
X240000Y210000D02*
D03*
X580000Y190000D02*
D03*
X665000Y220000D02*
D03*
X535000Y400000D02*
D03*
X715000Y220000D02*
D03*
X595000Y280000D02*
D03*
X555000Y300000D02*
D03*
Y260000D02*
D03*
X805000Y280000D02*
D03*
X180000Y430000D02*
D03*
X760000Y290000D02*
D03*
X705000Y400000D02*
D03*
X700000Y190000D02*
D03*
X629000Y452500D02*
D03*
X599000D02*
D03*
X170000Y450000D02*
D03*
X465000Y420000D02*
D03*
X765000D02*
D03*
X615000Y300000D02*
D03*
X720000Y310000D02*
D03*
X320000Y350000D02*
D03*
X235000Y280000D02*
D03*
X730000Y210000D02*
D03*
X635000Y300000D02*
D03*
X270000Y410000D02*
D03*
X250000D02*
D03*
Y370000D02*
D03*
X449000Y452500D02*
D03*
X380000Y330000D02*
D03*
X640000Y370000D02*
D03*
Y410000D02*
D03*
X720000Y350000D02*
D03*
X800000Y450000D02*
D03*
X165000Y220000D02*
D03*
X670000Y190000D02*
D03*
X235000Y260000D02*
D03*
X520000Y370000D02*
D03*
X210000Y210000D02*
D03*
X620000Y350000D02*
D03*
X685000Y400000D02*
D03*
X615000Y420000D02*
D03*
X125000D02*
D03*
X130000Y270000D02*
D03*
X755000Y420000D02*
D03*
X225000Y360000D02*
D03*
X320000Y210000D02*
D03*
X570000Y370000D02*
D03*
X615000Y280000D02*
D03*
X755000Y340000D02*
D03*
X319000Y452500D02*
D03*
X800000Y270000D02*
D03*
X375000Y320000D02*
D03*
X755000Y440000D02*
D03*
X130000Y190000D02*
D03*
X740000Y370000D02*
D03*
X255000Y240000D02*
D03*
X125000Y380000D02*
D03*
X330000Y370000D02*
D03*
X690000Y410000D02*
D03*
X480000Y350000D02*
D03*
X619000Y452500D02*
D03*
X765000Y300000D02*
D03*
X590000Y290000D02*
D03*
X659000Y452500D02*
D03*
X605000Y240000D02*
D03*
X699000Y452500D02*
D03*
X790000Y330000D02*
D03*
X150000Y430000D02*
D03*
X760000Y230000D02*
D03*
X395000Y280000D02*
D03*
X509000Y452500D02*
D03*
X380000Y310000D02*
D03*
X140000Y410000D02*
D03*
X145000Y360000D02*
D03*
X190000Y370000D02*
D03*
X655000Y380000D02*
D03*
X665000Y340000D02*
D03*
X565000D02*
D03*
X810000Y250000D02*
D03*
X285000Y220000D02*
D03*
X360000Y290000D02*
D03*
X775000Y320000D02*
D03*
X385000Y420000D02*
D03*
X400000Y370000D02*
D03*
X260000D02*
D03*
X625000Y360000D02*
D03*
X725000Y340000D02*
D03*
X790000Y190000D02*
D03*
X210000Y350000D02*
D03*
X125000Y360000D02*
D03*
Y280000D02*
D03*
X680000Y370000D02*
D03*
X370000Y410000D02*
D03*
X550000D02*
D03*
X620000Y290000D02*
D03*
X710000Y310000D02*
D03*
X790000Y430000D02*
D03*
X735000Y300000D02*
D03*
X440000Y410000D02*
D03*
X535000Y420000D02*
D03*
X225000Y340000D02*
D03*
X215000Y360000D02*
D03*
X200000Y190000D02*
D03*
X255000Y300000D02*
D03*
X505000Y340000D02*
D03*
X735000Y360000D02*
D03*
X285000Y420000D02*
D03*
X200000Y450000D02*
D03*
X390000Y410000D02*
D03*
X200000Y370000D02*
D03*
X555000Y280000D02*
D03*
X765000Y440000D02*
D03*
X459000Y452500D02*
D03*
X655000Y220000D02*
D03*
X239000Y452500D02*
D03*
X765000Y340000D02*
D03*
X750000Y230000D02*
D03*
X350000Y370000D02*
D03*
X450000D02*
D03*
X170000Y230000D02*
D03*
X215000Y220000D02*
D03*
X555000Y360000D02*
D03*
X540000Y390000D02*
D03*
X271000Y206000D02*
D03*
X210000Y450000D02*
D03*
X585000Y380000D02*
D03*
X780000Y210000D02*
D03*
X585000Y360000D02*
D03*
X765000Y240000D02*
D03*
X750000Y210000D02*
D03*
X545000Y280000D02*
D03*
X409000Y452500D02*
D03*
X679000D02*
D03*
X740000Y450000D02*
D03*
X715000Y260000D02*
D03*
X600000Y270000D02*
D03*
X405000Y400000D02*
D03*
X785000Y320000D02*
D03*
X780000Y270000D02*
D03*
X230000Y350000D02*
D03*
X210000Y190000D02*
D03*
X760000Y450000D02*
D03*
X385000Y360000D02*
D03*
X445000Y420000D02*
D03*
X480000Y210000D02*
D03*
X610000Y250000D02*
D03*
X570000Y290000D02*
D03*
X505000Y420000D02*
D03*
X810000Y290000D02*
D03*
X780000Y390000D02*
D03*
X675000Y360000D02*
D03*
X645000Y380000D02*
D03*
X730000Y190000D02*
D03*
X400000Y210000D02*
D03*
X165000Y440000D02*
D03*
X470000Y350000D02*
D03*
X615000Y360000D02*
D03*
X625000Y260000D02*
D03*
X290000Y250000D02*
D03*
X500000Y410000D02*
D03*
X495000Y320000D02*
D03*
X220000Y450000D02*
D03*
X269000Y452500D02*
D03*
X555000Y220000D02*
D03*
X145000Y300000D02*
D03*
X549000Y452500D02*
D03*
X520000Y390000D02*
D03*
X579000Y452500D02*
D03*
X150000Y290000D02*
D03*
X135000Y400000D02*
D03*
X730000Y350000D02*
D03*
X190000Y210000D02*
D03*
X690000Y390000D02*
D03*
X390000D02*
D03*
X245000Y320000D02*
D03*
X505000Y220000D02*
D03*
X340000Y230000D02*
D03*
X450000Y350000D02*
D03*
X190000Y190000D02*
D03*
X270000Y210000D02*
D03*
X685000Y380000D02*
D03*
X785000Y240000D02*
D03*
X635000Y380000D02*
D03*
X545000Y360000D02*
D03*
X750000Y350000D02*
D03*
X535000Y220000D02*
D03*
X750000Y450000D02*
D03*
X550000Y290000D02*
D03*
X695000Y380000D02*
D03*
X775000Y440000D02*
D03*
X250000Y350000D02*
D03*
X190000Y430000D02*
D03*
X205000Y240000D02*
D03*
X420000Y410000D02*
D03*
X590000Y310000D02*
D03*
X580000Y350000D02*
D03*
X780000Y330000D02*
D03*
X220000Y250000D02*
D03*
X305000Y220000D02*
D03*
X665000Y360000D02*
D03*
X640000Y230000D02*
D03*
X160000Y450000D02*
D03*
X410000Y230000D02*
D03*
X470000Y250000D02*
D03*
X790000Y270000D02*
D03*
X670000Y370000D02*
D03*
X420000Y250000D02*
D03*
X525000Y420000D02*
D03*
X575000D02*
D03*
X710000Y370000D02*
D03*
X615000Y240000D02*
D03*
X795000Y440000D02*
D03*
X760000Y370000D02*
D03*
X195000Y420000D02*
D03*
X340000Y210000D02*
D03*
X505000Y280000D02*
D03*
X685000Y220000D02*
D03*
X780000Y430000D02*
D03*
X385000Y200000D02*
D03*
X610000Y370000D02*
D03*
X370000Y210000D02*
D03*
X499000Y452500D02*
D03*
X765000Y360000D02*
D03*
X325000D02*
D03*
X620000Y410000D02*
D03*
X340000D02*
D03*
X550000Y270000D02*
D03*
X160000Y190000D02*
D03*
X245000Y360000D02*
D03*
X515000Y280000D02*
D03*
X705000Y220000D02*
D03*
X595000D02*
D03*
X630000Y310000D02*
D03*
X289000Y452500D02*
D03*
X435000Y300000D02*
D03*
X360000Y410000D02*
D03*
X740000Y190000D02*
D03*
X780000Y410000D02*
D03*
X125000Y200000D02*
D03*
X660000Y350000D02*
D03*
X635000Y360000D02*
D03*
X220000Y370000D02*
D03*
X240346Y256464D02*
D03*
X650000Y230000D02*
D03*
X519000Y452500D02*
D03*
X730000Y230000D02*
D03*
X480000Y410000D02*
D03*
X625000Y340000D02*
D03*
X170000Y430000D02*
D03*
X250000Y250000D02*
D03*
X325000Y420000D02*
D03*
X729000Y452500D02*
D03*
X585000Y420000D02*
D03*
X493346Y254964D02*
D03*
X750000Y270000D02*
D03*
X560000Y290000D02*
D03*
X185000Y420000D02*
D03*
X439000Y452500D02*
D03*
X540000Y290000D02*
D03*
X795000Y400000D02*
D03*
X745000Y420000D02*
D03*
X590000Y370000D02*
D03*
X130000Y330000D02*
D03*
X625000Y420000D02*
D03*
X590000Y350000D02*
D03*
X205000Y420000D02*
D03*
X215000Y340000D02*
D03*
X795000Y320000D02*
D03*
X755000Y200000D02*
D03*
X520000Y410000D02*
D03*
X385000Y380000D02*
D03*
X635000Y260000D02*
D03*
X570000Y350000D02*
D03*
X270500Y390000D02*
D03*
X495500Y205000D02*
D03*
X135000Y360000D02*
D03*
X140000Y430000D02*
D03*
X250000Y310000D02*
D03*
X645000Y200000D02*
D03*
X250000Y230000D02*
D03*
X595000Y420000D02*
D03*
X650000Y190000D02*
D03*
X760000D02*
D03*
X125000Y400000D02*
D03*
X205000Y260000D02*
D03*
X605000Y340000D02*
D03*
X650000Y330000D02*
D03*
X310000Y410000D02*
D03*
X369000Y452500D02*
D03*
X490000Y290000D02*
D03*
X730000Y390000D02*
D03*
X550000Y310000D02*
D03*
X175000Y300000D02*
D03*
X625000Y200000D02*
D03*
X795000Y360000D02*
D03*
X538000Y204000D02*
D03*
X241500Y224000D02*
D03*
X187134Y402500D02*
D03*
X183000Y407421D02*
D03*
Y397579D02*
D03*
X178866Y402500D02*
D03*
X183000D02*
D03*
X309000D02*
D03*
X304866D02*
D03*
X309000Y397579D02*
D03*
Y407421D02*
D03*
X313134Y402500D02*
D03*
X439634Y401500D02*
D03*
X435500Y406421D02*
D03*
Y396579D02*
D03*
X431366Y401500D02*
D03*
X435500D02*
D03*
X699000Y252000D02*
D03*
X669082Y236082D02*
D03*
X481500Y222500D02*
D03*
X493646Y222866D02*
D03*
X497500Y222500D02*
D03*
X503500Y198500D02*
D03*
X493500Y195968D02*
D03*
X367000Y196000D02*
D03*
X149026Y262547D02*
D03*
X151500Y243500D02*
D03*
X146500Y246500D02*
D03*
X523500Y241000D02*
D03*
X526250Y245500D02*
D03*
X523500Y244000D02*
D03*
X529000D02*
D03*
X526250Y242500D02*
D03*
X391000Y198500D02*
D03*
X264500D02*
D03*
X138000Y198000D02*
D03*
X560259Y406000D02*
D03*
X541759Y400000D02*
D03*
X527759Y383000D02*
D03*
X543759Y382500D02*
D03*
X798500Y438500D02*
D03*
Y396000D02*
D03*
X786500D02*
D03*
Y438500D02*
D03*
X724500Y396500D02*
D03*
X699000D02*
D03*
X712000Y396000D02*
D03*
X608259Y373500D02*
D03*
X597759Y408500D02*
D03*
Y378500D02*
D03*
X608259Y413500D02*
D03*
X589759Y404000D02*
D03*
X583259D02*
D03*
X571259Y407500D02*
D03*
X589759Y378500D02*
D03*
X568500Y379000D02*
D03*
X583259Y383000D02*
D03*
X570500Y374000D02*
D03*
X543759Y391000D02*
D03*
X515759Y394000D02*
D03*
X684000Y266000D02*
D03*
X702500Y276500D02*
D03*
X706000D02*
D03*
X689500Y269000D02*
D03*
X722000Y269500D02*
D03*
X699000Y276500D02*
D03*
X685500Y275634D02*
D03*
X699000Y269500D02*
D03*
X679000Y265500D02*
D03*
X622000Y204000D02*
D03*
X640000Y235000D02*
D03*
X637000Y233000D02*
D03*
X634000Y231000D02*
D03*
X621500Y237500D02*
D03*
Y228500D02*
D03*
X618000D02*
D03*
X621500Y240500D02*
D03*
X669000Y260500D02*
D03*
X697000Y255000D02*
D03*
X669000Y251500D02*
D03*
X694500Y257500D02*
D03*
X638000Y295500D02*
D03*
X651500Y285500D02*
D03*
X658500Y282000D02*
D03*
X654000Y303000D02*
D03*
X647000Y285500D02*
D03*
X638000Y308500D02*
D03*
Y302000D02*
D03*
X654000Y307000D02*
D03*
X648500Y312500D02*
D03*
X638000Y290000D02*
D03*
X760500Y198500D02*
D03*
X656500Y216000D02*
D03*
X695000Y228000D02*
D03*
X656500Y204000D02*
D03*
X718500Y232000D02*
D03*
X739285Y231854D02*
D03*
X706000Y198500D02*
D03*
X701000Y231000D02*
D03*
X708500D02*
D03*
X786500Y227000D02*
D03*
Y269000D02*
D03*
X541500Y310500D02*
D03*
X651259Y347000D02*
D03*
X541500Y305000D02*
D03*
X592000Y216000D02*
D03*
Y204000D02*
D03*
X561000Y252000D02*
D03*
X562000Y262500D02*
D03*
X566000Y269000D02*
D03*
X596000Y252000D02*
D03*
X593500Y249000D02*
D03*
Y255000D02*
D03*
X786500Y353500D02*
D03*
X798500D02*
D03*
X614000Y228500D02*
D03*
X572259Y341000D02*
D03*
X585759D02*
D03*
X588000Y304000D02*
D03*
X591000Y268500D02*
D03*
X587500Y310000D02*
D03*
X591000Y262000D02*
D03*
X538000Y216000D02*
D03*
X544500Y268500D02*
D03*
X514500Y251500D02*
D03*
X519000Y269500D02*
D03*
X544500Y262000D02*
D03*
X515500Y262500D02*
D03*
X598000Y248500D02*
D03*
X579000Y204000D02*
D03*
X135500Y232500D02*
D03*
X140000Y224000D02*
D03*
X230083Y232443D02*
D03*
X181500Y244000D02*
D03*
X170500Y207000D02*
D03*
X161500Y266500D02*
D03*
X158000Y194000D02*
D03*
X409000D02*
D03*
X497500D02*
D03*
X282500D02*
D03*
X404500Y221000D02*
D03*
X375956Y194104D02*
D03*
X256500Y344500D02*
D03*
X277000Y219500D02*
D03*
X241000Y196859D02*
D03*
X144604Y221896D02*
D03*
X151500Y222000D02*
D03*
X156000Y300500D02*
D03*
X491000Y218500D02*
D03*
X497500D02*
D03*
X275026Y262047D02*
D03*
X440000Y391000D02*
D03*
X296500Y206500D02*
D03*
X356083Y231943D02*
D03*
X307500Y243500D02*
D03*
X423000Y206000D02*
D03*
X395000Y218500D02*
D03*
X397500Y221000D02*
D03*
X434000Y243000D02*
D03*
X482583Y231443D02*
D03*
X362000Y222000D02*
D03*
X370500Y219500D02*
D03*
X350000Y298500D02*
D03*
X425000Y295500D02*
D03*
X409000Y300000D02*
D03*
X394500Y299000D02*
D03*
X403500Y300000D02*
D03*
X399500Y241000D02*
D03*
X480000Y299500D02*
D03*
X485500D02*
D03*
X495208Y298809D02*
D03*
X492500Y241500D02*
D03*
X429000Y260000D02*
D03*
X404500Y213500D02*
D03*
X387500Y223000D02*
D03*
X389500Y231500D02*
D03*
X407000D02*
D03*
X394000Y241000D02*
D03*
X417000Y271500D02*
D03*
X414500D02*
D03*
X412000D02*
D03*
X472500D02*
D03*
X469500D02*
D03*
X466500Y272000D02*
D03*
X460000Y260000D02*
D03*
X466000Y206000D02*
D03*
X454500Y243000D02*
D03*
X481500Y218500D02*
D03*
X500583Y231443D02*
D03*
X502000Y213500D02*
D03*
X476500Y297500D02*
D03*
X403000Y218500D02*
D03*
X399500D02*
D03*
X488000Y221000D02*
D03*
X480000Y271500D02*
D03*
X387000Y270500D02*
D03*
X494007Y218276D02*
D03*
X401526Y261547D02*
D03*
X408500Y271500D02*
D03*
X496500Y260000D02*
D03*
X458500Y399500D02*
D03*
X453500D02*
D03*
X415104Y392529D02*
D03*
X440500Y386000D02*
D03*
X421500Y392000D02*
D03*
X425000Y395000D02*
D03*
X411500Y397500D02*
D03*
Y395000D02*
D03*
X425000Y401500D02*
D03*
X407500D02*
D03*
X472500Y343500D02*
D03*
X458000Y376000D02*
D03*
X452000Y380968D02*
D03*
X440604Y379029D02*
D03*
X472500Y352000D02*
D03*
X489500Y338000D02*
D03*
X466000Y402500D02*
D03*
X465500Y374000D02*
D03*
X474000Y370500D02*
D03*
X483500Y368000D02*
D03*
X494000Y367000D02*
D03*
X461000Y415000D02*
D03*
X454000Y417000D02*
D03*
X447500Y415000D02*
D03*
X456500Y354000D02*
D03*
X383000Y352000D02*
D03*
Y344000D02*
D03*
Y336000D02*
D03*
X386500Y328500D02*
D03*
Y321000D02*
D03*
X387500Y314500D02*
D03*
Y308500D02*
D03*
X490500Y328500D02*
D03*
X448500Y300500D02*
D03*
X444500Y300000D02*
D03*
X440500Y300500D02*
D03*
X404500Y199000D02*
D03*
X298500Y296000D02*
D03*
X282500Y300500D02*
D03*
X268000Y299500D02*
D03*
X277000Y300500D02*
D03*
X273000Y241500D02*
D03*
X353500Y300000D02*
D03*
X359000D02*
D03*
X368708Y299309D02*
D03*
X366000Y242000D02*
D03*
X302500Y260500D02*
D03*
X277000Y222500D02*
D03*
X278000Y214500D02*
D03*
X270500Y221500D02*
D03*
X261000Y223000D02*
D03*
X263000Y232000D02*
D03*
X280500D02*
D03*
X267500Y241500D02*
D03*
X290000Y272000D02*
D03*
X287500D02*
D03*
X285000Y272500D02*
D03*
X345500Y272000D02*
D03*
X342500D02*
D03*
X340000Y272500D02*
D03*
X333500Y260500D02*
D03*
X339500Y206500D02*
D03*
X328000Y243500D02*
D03*
X355000Y219000D02*
D03*
X374082Y231943D02*
D03*
X375500Y214500D02*
D03*
X373500Y218500D02*
D03*
X268500Y219500D02*
D03*
X367500Y223500D02*
D03*
X273000Y219000D02*
D03*
X353500Y272000D02*
D03*
X260500Y271000D02*
D03*
X364500Y219500D02*
D03*
X372000Y224500D02*
D03*
X378600Y198500D02*
D03*
X282000Y272000D02*
D03*
X370000Y260500D02*
D03*
X333000Y400500D02*
D03*
X323500Y398000D02*
D03*
X288604Y393029D02*
D03*
X314000Y386500D02*
D03*
X295000Y392500D02*
D03*
X298500Y395500D02*
D03*
X285000Y398500D02*
D03*
Y395500D02*
D03*
X298500Y402000D02*
D03*
X313500Y391500D02*
D03*
X281000Y402500D02*
D03*
X346000Y344000D02*
D03*
X331500Y377000D02*
D03*
X325500Y381469D02*
D03*
X314105Y379529D02*
D03*
X346000Y352500D02*
D03*
X363000Y338500D02*
D03*
X340500Y402500D02*
D03*
X339000Y375000D02*
D03*
X347500Y371500D02*
D03*
X357000Y369000D02*
D03*
X368000Y368000D02*
D03*
X334500Y416000D02*
D03*
X327500Y418000D02*
D03*
X321000Y416000D02*
D03*
X330000Y354500D02*
D03*
X256500Y352500D02*
D03*
Y336500D02*
D03*
X260000Y329000D02*
D03*
Y321500D02*
D03*
X261000Y315000D02*
D03*
Y309000D02*
D03*
X364000Y329000D02*
D03*
X322000Y301000D02*
D03*
X318000Y300500D02*
D03*
X314000Y301000D02*
D03*
X354625Y224125D02*
D03*
X278000Y199500D02*
D03*
X152000Y200000D02*
D03*
X228625Y224625D02*
D03*
X188000Y301500D02*
D03*
X192000Y301000D02*
D03*
X196000Y301500D02*
D03*
X238000Y329500D02*
D03*
X135000Y309500D02*
D03*
Y315500D02*
D03*
X134000Y322000D02*
D03*
Y329500D02*
D03*
X130500Y337000D02*
D03*
Y345000D02*
D03*
Y353000D02*
D03*
X204000Y355000D02*
D03*
X195000Y416000D02*
D03*
X201500Y417500D02*
D03*
X208500Y416000D02*
D03*
X242000Y368500D02*
D03*
X231000Y369500D02*
D03*
X221500Y372000D02*
D03*
X213000Y375500D02*
D03*
X214500Y403000D02*
D03*
X236500Y338500D02*
D03*
X220000Y353000D02*
D03*
X188104Y380029D02*
D03*
X199500Y381968D02*
D03*
X205500Y377500D02*
D03*
X220000Y344500D02*
D03*
X155000Y403000D02*
D03*
X187500Y392000D02*
D03*
X172500Y402500D02*
D03*
X159000Y396000D02*
D03*
Y399000D02*
D03*
X172500Y396000D02*
D03*
X169000Y393000D02*
D03*
X188000Y387000D02*
D03*
X162604Y393529D02*
D03*
X201000Y400000D02*
D03*
X206000D02*
D03*
X244000Y261000D02*
D03*
X252600Y199000D02*
D03*
X241507Y219276D02*
D03*
X246000Y225000D02*
D03*
X238500Y219500D02*
D03*
X227500Y272500D02*
D03*
X235500Y222000D02*
D03*
X147000Y219500D02*
D03*
X150500D02*
D03*
X224000Y298500D02*
D03*
X142000Y219500D02*
D03*
X245000Y219000D02*
D03*
X249500Y214500D02*
D03*
X248082Y232443D02*
D03*
X229000Y219500D02*
D03*
X202000Y244000D02*
D03*
X213500Y207000D02*
D03*
X207500Y261000D02*
D03*
X214000Y273000D02*
D03*
X216500Y272500D02*
D03*
X219500D02*
D03*
X164500Y269500D02*
D03*
X162000Y272500D02*
D03*
X164500D02*
D03*
X154500Y232500D02*
D03*
X135000Y224500D02*
D03*
X152000Y214500D02*
D03*
X176500Y261000D02*
D03*
X240000Y242500D02*
D03*
X242708Y299809D02*
D03*
X233000Y300500D02*
D03*
X227500D02*
D03*
X151000Y301000D02*
D03*
X142000Y300000D02*
D03*
X172500Y296500D02*
D03*
M02*
