G04*
G04 #@! TF.GenerationSoftware,Altium Limited,Altium Designer,19.1.8 (144)*
G04*
G04 Layer_Color=32896*
%FSLAX25Y25*%
%MOIN*%
G70*
G01*
G75*
%ADD12C,0.00787*%
%ADD117C,0.00700*%
D12*
X199902Y277067D02*
Y279429D01*
X193209Y277067D02*
Y279429D01*
X165205Y236510D02*
Y238872D01*
X159890Y236510D02*
Y238872D01*
X169095Y233573D02*
Y240659D01*
X175000Y233573D02*
Y240659D01*
X44000Y374500D02*
X234000D01*
X44000Y394500D02*
X234000D01*
Y374500D02*
Y394500D01*
X44000Y374500D02*
Y394500D01*
Y134500D02*
Y154500D01*
X234000Y134500D02*
Y154500D01*
X44000D02*
X234000D01*
X44000Y134500D02*
X234000D01*
D117*
X335539Y198205D02*
X352370Y215035D01*
Y229593D01*
X276780Y198205D02*
Y229577D01*
Y198205D02*
X335539D01*
X276780Y273795D02*
X335539D01*
X276780Y242423D02*
Y273795D01*
X352370Y242407D02*
Y256965D01*
X335539Y273795D02*
X352370Y256965D01*
X336039Y305705D02*
X352870Y322535D01*
Y337093D01*
X277279Y305705D02*
Y337077D01*
Y305705D02*
X336039D01*
X277279Y381295D02*
X336039D01*
X277279Y349923D02*
Y381295D01*
X352870Y349907D02*
Y364465D01*
X336039Y381295D02*
X352870Y364465D01*
M02*
