G04*
G04 #@! TF.GenerationSoftware,Altium Limited,Altium Designer,19.1.8 (144)*
G04*
G04 Layer_Color=16711935*
%FSLAX25Y25*%
%MOIN*%
G70*
G01*
G75*
%ADD88R,0.06633X0.06633*%
%ADD89C,0.06824*%
%ADD90C,0.12611*%
%ADD91R,0.06300X0.07800*%
%ADD92O,0.06300X0.07800*%
%ADD93C,0.12414*%
%ADD94C,0.02769*%
%ADD112R,0.08280X0.06902*%
%ADD113R,0.06115X0.05131*%
%ADD114R,0.06902X0.04540*%
%ADD115R,0.07493X0.02965*%
%ADD116R,0.30328X0.10642*%
D88*
X256890Y420276D02*
D03*
X200575Y418276D02*
D03*
X104263D02*
D03*
D89*
X256890Y408465D02*
D03*
X245078Y420276D02*
D03*
Y408465D02*
D03*
X141519Y406465D02*
D03*
X200575D02*
D03*
X141519Y418276D02*
D03*
X153330Y406465D02*
D03*
X188764D02*
D03*
X153330Y418276D02*
D03*
X188764D02*
D03*
X165141Y406465D02*
D03*
Y418276D02*
D03*
X176953Y406465D02*
D03*
Y418276D02*
D03*
X92452D02*
D03*
Y406465D02*
D03*
X80641Y418276D02*
D03*
X68830D02*
D03*
X80641Y406465D02*
D03*
X68830D02*
D03*
X57019Y418276D02*
D03*
X104263Y406465D02*
D03*
X57019D02*
D03*
D90*
X250984Y437284D02*
D03*
X149984Y435284D02*
D03*
X192110D02*
D03*
X95798D02*
D03*
X65484D02*
D03*
D91*
X229000Y379500D02*
D03*
Y139500D02*
D03*
D92*
X219000D02*
D03*
X209000D02*
D03*
X199000D02*
D03*
X189000D02*
D03*
X179000D02*
D03*
X169000D02*
D03*
X159000D02*
D03*
X149000D02*
D03*
X139000D02*
D03*
X129000D02*
D03*
X119000D02*
D03*
X109000D02*
D03*
X99000D02*
D03*
X89000D02*
D03*
X79000D02*
D03*
X69000D02*
D03*
X59000D02*
D03*
X49000D02*
D03*
X229000Y149500D02*
D03*
X219000D02*
D03*
X209000D02*
D03*
X199000D02*
D03*
X189000D02*
D03*
X179000D02*
D03*
X169000D02*
D03*
X159000D02*
D03*
X149000D02*
D03*
X139000D02*
D03*
X129000D02*
D03*
X119000D02*
D03*
X109000D02*
D03*
X99000D02*
D03*
X89000D02*
D03*
X79000D02*
D03*
X69000D02*
D03*
X59000D02*
D03*
X49000D02*
D03*
X219000Y379500D02*
D03*
X209000D02*
D03*
X199000D02*
D03*
X189000D02*
D03*
X179000D02*
D03*
X169000D02*
D03*
X159000D02*
D03*
X149000D02*
D03*
X139000D02*
D03*
X129000D02*
D03*
X119000D02*
D03*
X109000D02*
D03*
X99000D02*
D03*
X89000D02*
D03*
X79000D02*
D03*
X69000D02*
D03*
X59000D02*
D03*
X49000D02*
D03*
X229000Y389500D02*
D03*
X219000D02*
D03*
X209000D02*
D03*
X199000D02*
D03*
X189000D02*
D03*
X179000D02*
D03*
X169000D02*
D03*
X159000D02*
D03*
X149000D02*
D03*
X139000D02*
D03*
X129000D02*
D03*
X119000D02*
D03*
X109000D02*
D03*
X99000D02*
D03*
X89000D02*
D03*
X79000D02*
D03*
X69000D02*
D03*
X59000D02*
D03*
X49000D02*
D03*
D93*
X317087Y438150D02*
D03*
X297087D02*
D03*
Y418150D02*
D03*
X317087D02*
D03*
X307087D02*
D03*
Y438150D02*
D03*
X365315Y437165D02*
D03*
X345315D02*
D03*
Y417165D02*
D03*
X365315D02*
D03*
X355315D02*
D03*
Y437165D02*
D03*
X449500Y389500D02*
D03*
X429500D02*
D03*
Y369500D02*
D03*
X449500D02*
D03*
X439500D02*
D03*
Y389500D02*
D03*
X451000Y301000D02*
D03*
X431000D02*
D03*
Y281000D02*
D03*
X451000D02*
D03*
X441000D02*
D03*
Y301000D02*
D03*
X447500Y216500D02*
D03*
X427500D02*
D03*
Y196500D02*
D03*
X447500D02*
D03*
X437500D02*
D03*
Y216500D02*
D03*
D94*
X60827Y254921D02*
D03*
X124902Y310039D02*
D03*
X101181Y237697D02*
D03*
X126772Y233465D02*
D03*
X136811Y241043D02*
D03*
X133071Y261811D02*
D03*
X127362Y256299D02*
D03*
X164173Y315846D02*
D03*
X330052Y263779D02*
D03*
X176772Y218110D02*
D03*
X169685Y220472D02*
D03*
X207087Y212598D02*
D03*
X169291Y310236D02*
D03*
X198819Y301575D02*
D03*
X210630Y209055D02*
D03*
X137402Y160236D02*
D03*
X130315Y176772D02*
D03*
X153937Y176378D02*
D03*
X132677Y168110D02*
D03*
X123228Y174803D02*
D03*
X126772Y218110D02*
D03*
X133858Y218504D02*
D03*
X140157D02*
D03*
X152362Y334646D02*
D03*
X162992Y348819D02*
D03*
X130315Y279528D02*
D03*
X48425Y240945D02*
D03*
X129134Y282283D02*
D03*
X143701Y360630D02*
D03*
X169000Y360732D02*
D03*
X140157Y356693D02*
D03*
X178740Y357874D02*
D03*
X138189Y327165D02*
D03*
Y351969D02*
D03*
X207480Y355118D02*
D03*
X124409Y273228D02*
D03*
X131890Y349213D02*
D03*
X128740Y344488D02*
D03*
X123622Y269291D02*
D03*
X157480Y345276D02*
D03*
X172047Y337402D02*
D03*
X125591Y334252D02*
D03*
X122835Y255118D02*
D03*
X153937Y238583D02*
D03*
X112205Y229921D02*
D03*
X120866Y409449D02*
D03*
X120079Y264173D02*
D03*
X140157Y233071D02*
D03*
X70866Y226772D02*
D03*
X59449Y172835D02*
D03*
X104331Y174409D02*
D03*
X63779Y164173D02*
D03*
X81496Y163779D02*
D03*
X218504Y401968D02*
D03*
X228740Y398425D02*
D03*
X259842Y396457D02*
D03*
X104331Y395669D02*
D03*
X57087D02*
D03*
X74016Y250787D02*
D03*
X57480Y220472D02*
D03*
X53543Y203150D02*
D03*
X49606Y255118D02*
D03*
X61024Y288583D02*
D03*
X90551Y277559D02*
D03*
X143701Y368898D02*
D03*
X91339Y366929D02*
D03*
X157480Y334646D02*
D03*
X209842Y334252D02*
D03*
X229528Y233465D02*
D03*
X152362Y329528D02*
D03*
X219291Y331102D02*
D03*
X235433Y233858D02*
D03*
X228346Y327165D02*
D03*
X239370Y235433D02*
D03*
X235433Y322441D02*
D03*
X247244Y235433D02*
D03*
X241339Y317717D02*
D03*
X248425Y241339D02*
D03*
X173228Y309842D02*
D03*
X179921Y303150D02*
D03*
X177953Y305906D02*
D03*
X185827Y310630D02*
D03*
X257874Y287402D02*
D03*
X261024Y292913D02*
D03*
X260827Y345472D02*
D03*
X258661Y353150D02*
D03*
X246063Y294094D02*
D03*
X252362Y280709D02*
D03*
X254724Y319685D02*
D03*
X246850Y347244D02*
D03*
X250394Y284646D02*
D03*
X250590Y356102D02*
D03*
X51181Y337598D02*
D03*
X36417Y370079D02*
D03*
X69882Y254921D02*
D03*
X64961D02*
D03*
X55118D02*
D03*
X45276D02*
D03*
X40354D02*
D03*
X69882Y289370D02*
D03*
X55118Y288386D02*
D03*
X50197D02*
D03*
X45276D02*
D03*
X40354D02*
D03*
X334646Y150591D02*
D03*
X339895D02*
D03*
X345144D02*
D03*
X350394D02*
D03*
X329396D02*
D03*
X324147D02*
D03*
X318898D02*
D03*
X334646Y165354D02*
D03*
X339895D02*
D03*
X345144D02*
D03*
X350394D02*
D03*
X329396D02*
D03*
X324147D02*
D03*
X318898D02*
D03*
X340551Y248031D02*
D03*
X345800D02*
D03*
X351050D02*
D03*
X335302D02*
D03*
X330052D02*
D03*
X324803D02*
D03*
X356299D02*
D03*
X354331Y321161D02*
D03*
X348524Y322047D02*
D03*
X343799Y321949D02*
D03*
X338287Y321850D02*
D03*
X333563Y322047D02*
D03*
X327953D02*
D03*
X322933Y322342D02*
D03*
X322835Y425197D02*
D03*
Y409449D02*
D03*
X314961D02*
D03*
Y346457D02*
D03*
Y338583D02*
D03*
Y330709D02*
D03*
Y314961D02*
D03*
Y307087D02*
D03*
Y283465D02*
D03*
Y275591D02*
D03*
Y267717D02*
D03*
Y259843D02*
D03*
Y244095D02*
D03*
Y236221D02*
D03*
Y228347D02*
D03*
Y204725D02*
D03*
X307087Y409449D02*
D03*
Y370079D02*
D03*
Y362205D02*
D03*
Y346457D02*
D03*
Y338583D02*
D03*
Y330709D02*
D03*
Y314961D02*
D03*
Y307087D02*
D03*
Y283465D02*
D03*
Y275591D02*
D03*
Y244095D02*
D03*
Y236221D02*
D03*
Y228347D02*
D03*
Y204725D02*
D03*
Y196851D02*
D03*
Y188977D02*
D03*
Y181103D02*
D03*
Y173228D02*
D03*
Y149606D02*
D03*
Y141732D02*
D03*
Y133858D02*
D03*
X299213Y409449D02*
D03*
Y370079D02*
D03*
Y362205D02*
D03*
Y354331D02*
D03*
Y330709D02*
D03*
Y314961D02*
D03*
Y307087D02*
D03*
Y283465D02*
D03*
Y275591D02*
D03*
Y267717D02*
D03*
Y259843D02*
D03*
Y244095D02*
D03*
Y228347D02*
D03*
Y204725D02*
D03*
Y196851D02*
D03*
Y188977D02*
D03*
Y181103D02*
D03*
Y165354D02*
D03*
Y141732D02*
D03*
Y133858D02*
D03*
X291339Y425197D02*
D03*
Y409449D02*
D03*
Y401575D02*
D03*
Y370079D02*
D03*
Y362205D02*
D03*
Y354331D02*
D03*
Y330709D02*
D03*
Y314961D02*
D03*
Y307087D02*
D03*
Y283465D02*
D03*
Y275591D02*
D03*
Y267717D02*
D03*
Y259843D02*
D03*
Y244095D02*
D03*
Y228347D02*
D03*
Y204725D02*
D03*
Y196851D02*
D03*
Y188977D02*
D03*
Y141732D02*
D03*
Y133858D02*
D03*
X283465Y433071D02*
D03*
Y425197D02*
D03*
Y417323D02*
D03*
Y409449D02*
D03*
Y401575D02*
D03*
Y393701D02*
D03*
Y362205D02*
D03*
Y354331D02*
D03*
Y330709D02*
D03*
Y314961D02*
D03*
Y307087D02*
D03*
Y283465D02*
D03*
Y275591D02*
D03*
Y267717D02*
D03*
Y259843D02*
D03*
Y244095D02*
D03*
Y228347D02*
D03*
Y204725D02*
D03*
Y196851D02*
D03*
Y173228D02*
D03*
Y165354D02*
D03*
Y141732D02*
D03*
X275591Y425197D02*
D03*
Y417323D02*
D03*
Y409449D02*
D03*
Y401575D02*
D03*
Y393701D02*
D03*
Y385827D02*
D03*
Y354331D02*
D03*
Y330709D02*
D03*
Y314961D02*
D03*
Y307087D02*
D03*
Y283465D02*
D03*
Y275591D02*
D03*
Y267717D02*
D03*
Y259843D02*
D03*
Y244095D02*
D03*
Y181103D02*
D03*
Y173228D02*
D03*
Y157480D02*
D03*
X116437Y232972D02*
D03*
X213075Y225969D02*
D03*
X206201Y233465D02*
D03*
X147244Y203740D02*
D03*
X146358Y235630D02*
D03*
X171949Y233760D02*
D03*
X161909Y236417D02*
D03*
X213779Y272047D02*
D03*
X218504Y280315D02*
D03*
X229823Y300394D02*
D03*
X215256Y258465D02*
D03*
X108858Y292913D02*
D03*
X91043Y283465D02*
D03*
X178248Y317126D02*
D03*
X149803D02*
D03*
X176378Y331004D02*
D03*
X148228Y331594D02*
D03*
X162182Y331617D02*
D03*
X105315Y335630D02*
D03*
X100079Y311024D02*
D03*
X115157Y250984D02*
D03*
X98425Y274606D02*
D03*
X97441Y258858D02*
D03*
X98425Y265748D02*
D03*
Y250000D02*
D03*
X116500Y266374D02*
D03*
X117126Y303150D02*
D03*
X358268Y288386D02*
D03*
X357283Y306102D02*
D03*
X355315Y218504D02*
D03*
X355906Y200197D02*
D03*
X362205Y146653D02*
D03*
X378795Y237000D02*
D03*
X376795Y325000D02*
D03*
X353346Y375984D02*
D03*
X352498Y387500D02*
D03*
X423228Y163386D02*
D03*
X425197Y253937D02*
D03*
X423228Y341535D02*
D03*
X318898Y154528D02*
D03*
X324147D02*
D03*
X329396D02*
D03*
X350394D02*
D03*
X345144D02*
D03*
X339895D02*
D03*
X334646D02*
D03*
X318898Y144685D02*
D03*
X324147D02*
D03*
X329396D02*
D03*
X350394D02*
D03*
X345144D02*
D03*
X339895D02*
D03*
X334646D02*
D03*
X318898Y139764D02*
D03*
X324147D02*
D03*
X329396D02*
D03*
X350394D02*
D03*
X345144D02*
D03*
X339895D02*
D03*
X334646D02*
D03*
X318898Y159449D02*
D03*
X324147D02*
D03*
X329396D02*
D03*
X350394D02*
D03*
X345144D02*
D03*
X339895D02*
D03*
X334646D02*
D03*
X318898Y169291D02*
D03*
X324147D02*
D03*
X329396D02*
D03*
X350394D02*
D03*
X345144D02*
D03*
X339895D02*
D03*
X334646D02*
D03*
X318898Y174213D02*
D03*
X324147D02*
D03*
X329396D02*
D03*
X350394D02*
D03*
X345144D02*
D03*
X339895D02*
D03*
X334646D02*
D03*
X324803Y244094D02*
D03*
X330052D02*
D03*
X335302D02*
D03*
X356299D02*
D03*
X351050D02*
D03*
X345800D02*
D03*
X340551D02*
D03*
X324803Y229331D02*
D03*
X330052D02*
D03*
X335302D02*
D03*
X356299D02*
D03*
X351050D02*
D03*
X345800D02*
D03*
X340551D02*
D03*
X324803Y253937D02*
D03*
X330052D02*
D03*
X335302D02*
D03*
X356299D02*
D03*
X351050D02*
D03*
X345800D02*
D03*
X340551D02*
D03*
X324803Y258858D02*
D03*
X330052D02*
D03*
X335302D02*
D03*
X356299D02*
D03*
X351050D02*
D03*
X345800D02*
D03*
X340551D02*
D03*
X324803Y263779D02*
D03*
X335302D02*
D03*
X356299D02*
D03*
X351050D02*
D03*
X345800D02*
D03*
X340551D02*
D03*
X338583Y352362D02*
D03*
X343832D02*
D03*
X349081D02*
D03*
X354331D02*
D03*
X333333D02*
D03*
X328084D02*
D03*
X322835D02*
D03*
Y347441D02*
D03*
Y337598D02*
D03*
X338583Y317913D02*
D03*
X343832D02*
D03*
X349081D02*
D03*
X354331D02*
D03*
X333333D02*
D03*
X328084D02*
D03*
X322835D02*
D03*
X338583Y327756D02*
D03*
X343832D02*
D03*
X349081D02*
D03*
X354331D02*
D03*
X333333D02*
D03*
X328084D02*
D03*
X322835D02*
D03*
X338583Y332677D02*
D03*
X343832D02*
D03*
X349081D02*
D03*
X354331D02*
D03*
X333333D02*
D03*
X328084D02*
D03*
X322835D02*
D03*
X286417Y131890D02*
D03*
X269685Y152559D02*
D03*
X290354Y158465D02*
D03*
X275590Y135827D02*
D03*
X314961Y211614D02*
D03*
X326772Y221457D02*
D03*
X328445Y303445D02*
D03*
X332677Y310039D02*
D03*
X313287Y392028D02*
D03*
X328740Y402559D02*
D03*
X435039Y147638D02*
D03*
X423228Y148622D02*
D03*
X414740Y148992D02*
D03*
X405512Y148622D02*
D03*
X401575Y326921D02*
D03*
X423228Y327756D02*
D03*
X412614D02*
D03*
X433071Y325787D02*
D03*
X441929Y241142D02*
D03*
X425197Y238189D02*
D03*
X416339D02*
D03*
X406496Y237205D02*
D03*
X186902Y276354D02*
D03*
Y279780D02*
D03*
Y293480D02*
D03*
Y283205D02*
D03*
Y290055D02*
D03*
Y286630D02*
D03*
Y272646D02*
D03*
Y269220D02*
D03*
Y255520D02*
D03*
Y265795D02*
D03*
Y258945D02*
D03*
Y262370D02*
D03*
X162205Y251658D02*
D03*
X158780D02*
D03*
X145079D02*
D03*
X155354D02*
D03*
X148504D02*
D03*
X151929D02*
D03*
X165913D02*
D03*
X169339D02*
D03*
X183039D02*
D03*
X172764D02*
D03*
X179614D02*
D03*
X176189D02*
D03*
X141217Y272646D02*
D03*
Y269220D02*
D03*
Y255520D02*
D03*
Y265795D02*
D03*
Y262370D02*
D03*
Y276354D02*
D03*
Y279780D02*
D03*
Y293480D02*
D03*
Y283205D02*
D03*
Y290055D02*
D03*
Y286630D02*
D03*
X165913Y297342D02*
D03*
X169339D02*
D03*
X183039D02*
D03*
X172764D02*
D03*
X179614D02*
D03*
X176189D02*
D03*
X151929D02*
D03*
X148504D02*
D03*
X155354D02*
D03*
X145079D02*
D03*
X158780D02*
D03*
X162205D02*
D03*
X160228Y266429D02*
D03*
X166409D02*
D03*
X160228Y271587D02*
D03*
Y277413D02*
D03*
Y282571D02*
D03*
X154508Y271587D02*
D03*
Y277413D02*
D03*
X166409Y271587D02*
D03*
Y277413D02*
D03*
Y282571D02*
D03*
X172130Y277413D02*
D03*
Y271587D02*
D03*
D112*
X196555Y272441D02*
D03*
Y284055D02*
D03*
D113*
X196063Y258661D02*
D03*
Y264173D02*
D03*
D114*
X162547Y233065D02*
D03*
Y242317D02*
D03*
D115*
X172047Y243317D02*
D03*
Y230915D02*
D03*
D116*
X288000Y236000D02*
D03*
X341150D02*
D03*
X288500Y343500D02*
D03*
X341650D02*
D03*
M02*
